<svg width="24" height="25" viewBox="0 0 24 25" fill="none" xmlns="http://www.w3.org/2000/svg">
<path d="M8.58513 10.969C6.7673 12.1326 5.55157 14.1647 5.55157 16.4746C5.55157 20.0755 8.48092 23.0106 12.0876 23.0106C15.6943 23.0106 18.6237 20.0813 18.6237 16.4746C18.6237 14.1589 17.4079 12.1268 15.5901 10.969L21.5067 1.90882C21.6804 1.64252 21.6051 1.28358 21.3388 1.10991C21.0725 0.93623 20.7136 1.01149 20.5399 1.2778L14.5828 10.4016C14.577 10.4132 14.5712 10.4306 14.5654 10.4422C14.3628 10.3611 14.1544 10.2859 13.946 10.2222L12.7823 8.43909L17.0432 1.91461C17.2169 1.64831 17.1416 1.28937 16.8753 1.1157C16.609 0.942019 16.2501 1.01728 16.0764 1.28358L12.0876 7.36808L8.10462 1.27201C7.93094 1.0057 7.57201 0.930441 7.30571 1.10412C7.0394 1.2778 6.96414 1.63673 7.13782 1.90303L12.3945 9.95587C12.2902 9.95008 12.1918 9.93851 12.0876 9.93851C11.2134 9.93851 10.374 10.1122 9.60983 10.4306C9.60404 10.419 9.60404 10.4016 9.59246 10.3901L3.64112 1.27201C3.46744 1.0057 3.1085 0.930441 2.8422 1.10412C2.57589 1.2778 2.50063 1.63673 2.67431 1.90303L8.58513 10.969ZM17.4658 16.4746C17.4658 19.4387 15.0517 21.8528 12.0876 21.8528C9.12353 21.8528 6.70942 19.4387 6.70942 16.4746C6.70942 13.5105 9.12353 11.0964 12.0876 11.0964C15.0517 11.0964 17.4658 13.5105 17.4658 16.4746Z" fill="currentColor"/>
<path d="M10.6982 16.1736L11.9429 14.9289V19.4271C11.9429 19.7455 12.2034 20.0061 12.5218 20.0061C12.8402 20.0061 13.1007 19.7455 13.1007 19.4271V13.5279C13.1007 13.2963 12.9618 13.0821 12.7418 12.9953C12.5218 12.9084 12.2787 12.9548 12.1108 13.1226L9.87612 15.3573C9.65034 15.5831 9.65034 15.9478 9.87612 16.1736C10.1019 16.3994 10.4666 16.3994 10.6982 16.1736Z" fill="currentColor"/>
</svg>
