<svg width="24" height="24" viewBox="0 0 24 24" fill="none" xmlns="http://www.w3.org/2000/svg">
<path d="M22.8147 7.7774C22.7034 7.66669 22.5527 7.60455 22.3956 7.60455C22.2386 7.60455 22.088 7.66669 21.9766 7.7774L18.2198 11.558L14.4749 7.7774C14.3635 7.66669 14.2129 7.60455 14.0558 7.60455C13.8988 7.60455 13.7481 7.66669 13.6368 7.7774C13.5811 7.83266 13.5368 7.89841 13.5067 7.97085C13.4765 8.04328 13.4609 8.12098 13.4609 8.19945C13.4609 8.27792 13.4765 8.35562 13.5067 8.42805C13.5368 8.50049 13.5811 8.56623 13.6368 8.62149L17.3817 12.402L13.6427 16.1469C13.5592 16.2297 13.5022 16.3354 13.4788 16.4506C13.4554 16.5658 13.4666 16.6854 13.5112 16.7942C13.5557 16.903 13.6315 16.9961 13.729 17.0619C13.8265 17.1276 13.9412 17.1629 14.0588 17.1634C14.1375 17.1631 14.2153 17.1472 14.2877 17.1165C14.3602 17.0859 14.4258 17.0412 14.4808 16.9851L18.2198 13.2402L21.9112 16.9732C22.0223 17.0859 22.1737 17.1499 22.332 17.151C22.4903 17.1521 22.6426 17.0903 22.7553 16.9791C22.868 16.868 22.9319 16.7166 22.9331 16.5583C22.9342 16.4 22.8724 16.2478 22.7612 16.1351L19.0579 12.3961L22.8444 8.6096C22.9495 8.49464 23.0052 8.34305 22.9997 8.18743C22.9941 8.03181 22.9277 7.88458 22.8147 7.7774Z" fill="currentColor"/>
<path d="M11.3957 19.553H3.78106C3.73378 19.5529 3.68761 19.5388 3.64844 19.5123C3.60926 19.4858 3.57886 19.4483 3.56113 19.4044C3.54101 19.3627 3.53422 19.3158 3.54166 19.2701C3.5491 19.2244 3.57043 19.182 3.60274 19.1488L8.22738 14.2686C8.85795 13.6341 9.42716 12.9415 9.92743 12.2C10.3268 11.5981 10.6502 10.9493 10.8904 10.2681C11.0965 9.64899 11.2009 9.00058 11.1995 8.34809C11.2247 7.51954 11.0299 6.69912 10.6348 5.97038C10.2409 5.32037 9.65231 4.81084 8.95258 4.51403C8.06543 4.14944 7.11159 3.97527 6.15284 4.00283C5.25738 4.0047 4.3688 4.1595 3.52546 4.46054C2.7316 4.72823 1.98966 5.13037 1.33202 5.64939C1.19594 5.73866 1.0902 5.86719 1.02886 6.01793C0.99038 6.1479 0.99038 6.28623 1.02886 6.4162C1.0595 6.5378 1.12574 6.6475 1.21908 6.73125C1.30572 6.81098 1.41672 6.85915 1.53413 6.86796C1.68127 6.85654 1.82088 6.7982 1.9324 6.70153C2.50958 6.23753 3.16062 5.87383 3.85834 5.62561C4.54429 5.38718 5.26615 5.26854 5.99233 5.2749C6.96813 5.21927 7.93166 5.51445 8.70887 6.1071C9.03508 6.40766 9.29062 6.77678 9.45712 7.18791C9.62363 7.59904 9.69696 8.04195 9.67183 8.48481C9.66516 9.3098 9.47213 10.1226 9.10714 10.8625C8.62474 11.7837 8.01211 12.6305 7.28818 13.3769L1.8789 19.1726C1.74571 19.3135 1.63177 19.4714 1.54008 19.6422C1.47155 19.766 1.43479 19.9049 1.43308 20.0464C1.42663 20.1415 1.43964 20.237 1.47132 20.3269C1.50301 20.4169 1.5527 20.4994 1.61736 20.5695C1.78751 20.6987 1.99862 20.762 2.21178 20.7478H11.366C11.5527 20.765 11.7392 20.712 11.8891 20.5992C11.9453 20.5343 11.988 20.4588 12.0145 20.3771C12.0411 20.2954 12.051 20.2093 12.0436 20.1237C12.0522 20.044 12.0434 19.9633 12.0177 19.8874C11.9921 19.8114 11.9502 19.742 11.895 19.6838C11.7479 19.5856 11.5721 19.5395 11.3957 19.553Z" fill="currentColor"/>
</svg>
