<svg width="24" height="24" viewBox="0 0 24 24" fill="none" xmlns="http://www.w3.org/2000/svg">
<path d="M19.0487 13.0921C20.3752 13.0921 21.4539 12.0048 21.4539 10.6695C21.4539 9.33427 20.3744 8.24695 19.0487 8.24695C17.7231 8.24695 16.6436 9.33427 16.6436 10.6695C16.6436 12.0056 17.7231 13.0921 19.0487 13.0921Z" fill="#C9C2EA"/>
<path d="M19.3753 14.2742H18.7215C17.9109 14.2742 17.1787 14.5916 16.6182 15.0978C16.8228 15.5802 16.9372 16.1109 16.9372 16.6683V18.0352H22.5378V17.4587C22.5378 15.7034 21.1196 14.2742 19.3753 14.2742Z" fill="#C9C2EA"/>
<path d="M4.94911 8.24695C3.62266 8.24695 2.54395 9.33427 2.54395 10.6695C2.54395 12.0056 3.62345 13.0921 4.94911 13.0921C6.27477 13.0921 7.35426 12.0048 7.35426 10.6695C7.35426 9.33427 6.27477 8.24695 4.94911 8.24695Z" fill="#C9C2EA"/>
<path d="M4.62261 14.2742C2.8791 14.2742 1.46094 15.7034 1.46094 17.4595V18.036H7.01993V16.6691C7.01993 16.1022 7.13909 15.5636 7.35076 15.0741C6.79415 14.5829 6.0737 14.2742 5.27721 14.2742H4.62261Z" fill="#C9C2EA"/>
<path d="M19.048 13.5565C20.6284 13.5565 21.9141 12.2615 21.9141 10.6696C21.9141 9.0785 20.6284 7.78351 19.048 7.78351C17.4683 7.78351 16.1826 9.0785 16.1826 10.6696C16.1826 12.2615 17.4675 13.5565 19.048 13.5565ZM19.048 8.24702C20.3744 8.24702 21.4531 9.33434 21.4531 10.6696C21.4531 12.0057 20.3736 13.0922 19.048 13.0922C17.7223 13.0922 16.6428 12.0049 16.6428 10.6696C16.6428 9.33434 17.7223 8.24702 19.048 8.24702Z" fill="currentColor"/>
<path d="M19.3758 13.8107H18.722C17.8385 13.8107 17.0279 14.1321 16.3984 14.6635C15.7093 13.4696 14.4283 12.6634 12.9615 12.6634H10.9954C9.538 12.6634 8.26487 13.4593 7.57264 14.6398C6.94705 14.1218 6.14663 13.8107 5.27567 13.8107H4.62185C2.62513 13.8107 1 15.4476 1 17.4596V18.2674C1 18.3953 1.1027 18.4995 1.23048 18.4995H7.24965H8.66939H15.3298H16.7088H22.7695C22.8965 18.4995 23 18.3961 23 18.2674V17.4596C22.9992 15.4476 21.3733 13.8107 19.3758 13.8107ZM22.5383 18.036H16.9377V16.6692C16.9377 16.1117 16.8233 15.5811 16.6186 15.0986C17.1792 14.5917 17.9114 14.275 18.722 14.275H19.3758C21.1201 14.275 22.5383 15.7043 22.5383 17.4604V18.036ZM15.5595 18.036H15.3298H15.0993H8.89987H8.66939H8.43969H7.47935V16.6692C7.47935 16.2373 7.5601 15.8243 7.70199 15.4413C7.73335 15.3552 7.76784 15.2715 7.80626 15.1886C7.84075 15.1136 7.87524 15.0386 7.91444 14.9667C8.51338 13.8715 9.66971 13.1277 10.9962 13.1277H12.9623C14.2997 13.1277 15.4647 13.8842 16.0589 14.9952C16.0981 15.0678 16.1318 15.1428 16.1655 15.2186C16.2031 15.3023 16.2369 15.3884 16.2682 15.4761C16.4015 15.8495 16.4783 16.2507 16.4783 16.67V18.0368H15.5595V18.036ZM1.46018 18.036V17.4596C1.46018 15.7027 2.87913 14.2742 4.62185 14.2742H5.27567C6.07216 14.2742 6.79261 14.5822 7.34921 15.0741C7.13755 15.5637 7.01839 16.1022 7.01839 16.6692V18.036H1.46018Z" fill="currentColor"/>
<path d="M4.94913 13.5565C6.52879 13.5565 7.81447 12.2615 7.81447 10.6696C7.81447 9.0785 6.52879 7.78351 4.94913 7.78351C3.36869 7.78351 2.08301 9.0785 2.08301 10.6696C2.08379 12.2615 3.36869 13.5565 4.94913 13.5565ZM7.35429 10.6696C7.35429 12.0057 6.27479 13.0922 4.94913 13.0922C3.62269 13.0922 2.54397 12.0049 2.54397 10.6696C2.54397 9.33434 3.62347 8.24702 4.94913 8.24702C6.27479 8.24702 7.35429 9.33434 7.35429 10.6696Z" fill="currentColor"/>
<path d="M11.9785 12.2141C13.9533 12.2141 15.5596 10.5961 15.5596 8.60703C15.5596 6.61795 13.9533 5 11.9785 5C10.0038 5 8.39746 6.61795 8.39746 8.60703C8.39746 10.5961 10.0038 12.2141 11.9785 12.2141ZM11.9785 5.46351C13.6993 5.46351 15.0995 6.87379 15.0995 8.60703C15.0995 10.3403 13.6993 11.7505 11.9785 11.7505C10.2578 11.7505 8.85764 10.3403 8.85764 8.60703C8.85764 6.87379 10.2578 5.46351 11.9785 5.46351Z" fill="currentColor"/>
</svg>
