<svg width="26" height="25" viewBox="0 0 26 25" fill="none" xmlns="http://www.w3.org/2000/svg">
<path d="M19.8811 6.68548L24.8339 1.74805L19.0688 5.86245C17.5712 4.54742 15.5494 3.7409 13.3244 3.7409C8.70857 3.7409 4.9668 7.21128 4.9668 11.4924C4.9668 13.3867 5.69957 15.1219 6.91637 16.4684C6.99609 16.5567 7.13379 16.4547 7.07478 16.3509C6.50844 15.3559 6.18541 14.2089 6.18541 12.9872C6.18541 9.18002 9.32201 6.09389 13.1914 6.09389C14.6393 6.09389 15.9848 6.52612 17.1014 7.26659L12.1516 10.7991L15.1159 14.8267H18.6806L15.7164 10.8371L18.2957 8.26577L19.8813 6.68522L19.8811 6.68548Z" fill="currentColor"/>
<path d="M5.95287 18.8107L1 23.7481L6.76511 19.6337C8.26275 20.9487 10.2845 21.7552 12.5095 21.7552C17.1254 21.7552 20.8671 18.2849 20.8671 14.0038C20.8671 12.1095 20.1344 10.3743 18.9176 9.02778C18.8378 8.93945 18.7001 9.04141 18.7592 9.14521C19.3255 10.1402 19.6485 11.2872 19.6485 12.5089C19.6485 16.3161 16.5119 19.4022 12.6426 19.4022C11.1946 19.4022 9.84917 18.97 8.73254 18.2295L13.6823 14.697L10.7181 10.6694H7.15337L10.1176 14.659L7.53826 17.2304L5.95261 18.8109L5.95287 18.8107Z" fill="currentColor"/>
</svg>
