<svg width="24" height="24" viewBox="0 0 24 24" fill="none" xmlns="http://www.w3.org/2000/svg">
<path d="M14.9758 22.99C14.97 22.99 14.97 22.99 14.9642 22.99C14.7095 22.9842 14.4895 22.8164 14.42 22.5675L8.97789 3.5309L6.59263 10.6848C6.51158 10.9221 6.29158 11.0784 6.04264 11.0784H1.57895C1.26053 11.0784 1 10.8179 1 10.4996C1 10.1813 1.26053 9.9208 1.57895 9.9208H5.63158L8.48001 1.38357C8.56106 1.14048 8.81001 0.98999 9.04159 0.98999C9.29632 0.995778 9.51631 1.16363 9.58578 1.41251L15.0279 20.4491L17.4132 13.2952C17.4942 13.0579 17.7142 12.9016 17.9632 12.9016H22.4211C22.7395 12.9016 23 13.1621 23 13.4804C23 13.7987 22.7395 14.0592 22.4211 14.0592H18.3742L15.5258 22.5964C15.4505 22.8337 15.2247 22.99 14.9758 22.99Z" fill="currentColor"/>
</svg>
