<svg width="24" height="24" viewBox="0 0 24 24" fill="none" xmlns="http://www.w3.org/2000/svg">
<path d="M21.925 4.38372H19.1207V1.5794C19.1207 1.26073 18.8599 1 18.5413 1C18.2226 1 17.9618 1.26073 17.9618 1.5794V4.38372H15.1575C14.8389 4.38372 14.5781 4.64445 14.5781 4.96313C14.5781 5.2818 14.8389 5.54253 15.1575 5.54253H17.9618V8.34685C17.9618 8.66552 18.2226 8.92625 18.5413 8.92625C18.8599 8.92625 19.1207 8.66552 19.1207 8.34685V5.54253H21.925C22.2436 5.54253 22.5044 5.2818 22.5044 4.96313C22.5044 4.64445 22.2494 4.38372 21.925 4.38372Z" fill="currentColor"/>
<path d="M13.5984 11.8233C14.0851 11.0411 14.369 10.1198 14.369 9.12906C14.369 6.28997 12.0572 3.97815 9.21808 3.97815C6.37899 3.97815 4.06717 6.28997 4.06717 9.12906C4.06717 10.1198 4.35108 11.0411 4.83778 11.8291C3.17489 12.3505 1.96973 13.9265 1.96973 15.7053V19.5178C1.96973 21.4356 3.52832 23 5.45195 23H15.887C16.1999 23 16.449 22.7509 16.4606 22.438H16.4664V19.5699V18.9036V15.6995C16.4606 13.886 15.2729 12.339 13.5984 11.8233ZM9.21228 5.13696C11.414 5.13696 13.2044 6.92732 13.2044 9.12906C13.2044 11.3308 11.414 13.1212 9.21228 13.1212C7.01055 13.1212 5.22019 11.3308 5.22019 9.12906C5.22019 6.92732 7.01055 5.13696 9.21228 5.13696ZM15.3018 21.8354H5.44615C4.16567 21.8354 3.12274 20.7925 3.12274 19.512V15.6995C3.12274 14.3089 4.14829 13.0864 5.50989 12.843H5.64894C6.57599 13.7295 7.82751 14.28 9.20649 14.28C10.5913 14.28 11.8544 13.7237 12.7814 12.8315C14.1952 13.0227 15.296 14.2626 15.296 15.6995V18.9036V21.8354H15.3018Z" fill="currentColor"/>
</svg>
