<svg width="24" height="24" viewBox="0 0 24 24" fill="none" xmlns="http://www.w3.org/2000/svg">
<path d="M8.62426 14.6022H15.0523C16.3402 14.6022 17.0279 14.0078 17.3775 13.5124C18.1118 12.4693 18.141 10.7326 17.465 8.86772C16.8006 7.03781 14.9823 5.55756 14.1431 4.94565C14.1431 4.94565 14.1373 4.94565 14.1315 4.93982L13.4846 4.94565H9.80147V4.93399C9.80147 4.93399 9.78398 4.93982 9.77815 4.94565C9.03803 5.47014 7.68016 6.65901 6.76521 8.85607C6.00177 10.8142 5.94932 12.3352 6.60786 13.3842C7.30719 14.4973 8.53684 14.5964 8.63009 14.6022H8.62426ZM11.5556 11.1231C11.6838 11.2338 11.8354 11.2804 12.0277 11.2804C12.2491 11.2804 12.4181 11.228 12.5289 11.1347C12.6396 11.0415 12.692 10.9133 12.692 10.7384C12.692 10.5986 12.6454 10.482 12.5463 10.3829C12.4356 10.2722 12.2433 10.1731 11.9752 10.0799C11.5614 9.95169 11.2351 9.77685 11.0136 9.56123C10.7805 9.32812 10.664 9.02507 10.664 8.64627C10.664 8.26747 10.7689 7.98191 10.9845 7.7488C11.171 7.54482 11.4216 7.41079 11.7246 7.35251V6.67649H12.4881V7.35834C12.7969 7.42827 13.0475 7.57979 13.2282 7.81873C13.4322 8.08098 13.5312 8.43064 13.5312 8.8619V9.00759H12.6571V8.8619C12.6571 8.62296 12.6046 8.43647 12.4997 8.2966C12.4065 8.16839 12.2724 8.10429 12.0976 8.10429C11.9053 8.10429 11.7654 8.15091 11.678 8.24415C11.5848 8.3374 11.544 8.47144 11.544 8.64627C11.544 8.79779 11.5906 8.92017 11.6838 9.00759C11.7538 9.07752 11.9169 9.18825 12.2783 9.31063C12.6979 9.44467 13.0242 9.62533 13.234 9.83513C13.4555 10.0566 13.572 10.3596 13.572 10.7326C13.572 11.1056 13.4555 11.4203 13.2224 11.6534C13.0242 11.8515 12.7561 11.9797 12.424 12.038V12.6266H11.6663V12.038C11.3516 11.9797 11.0836 11.8515 10.8738 11.6417C10.629 11.397 10.5066 11.0473 10.5125 10.5986L10.5241 10.5519L10.5591 10.4587L10.664 10.4412H11.375V10.5869C11.375 10.8433 11.4332 11.0298 11.5556 11.1289V11.1231Z" fill="currentColor"/>
<path d="M21.3347 21.8286H9.49854C8.78173 21.8286 8.10571 21.5081 7.65114 20.9545L3.36775 15.7211C3.22205 15.5405 3.15212 15.319 3.17543 15.0859C3.19874 14.8528 3.30947 14.6488 3.49013 14.5031C3.85728 14.2001 4.41091 14.2525 4.70813 14.6255L7.06254 17.4986C7.21406 19.1245 8.58358 20.4008 10.2503 20.4008H13.6479C13.9684 20.4008 14.2307 20.1386 14.2307 19.818C14.2307 19.4975 13.9684 19.2353 13.6479 19.2353H10.2503C9.32954 19.2353 8.54862 18.6234 8.29803 17.7842H12.0628C12.1152 17.7842 12.1618 17.7667 12.2143 17.755C12.2259 17.755 12.2376 17.755 12.2492 17.7492C12.3133 17.7259 12.3775 17.6909 12.4299 17.6385C12.4357 17.6326 12.4649 17.6093 12.494 17.586C12.8786 17.2713 14.9358 15.7794 16.9464 17.6326C17.0513 17.7317 17.197 17.7842 17.3427 17.7842H21.3347C21.6552 17.7842 21.9175 17.5219 21.9175 17.2014C21.9175 16.8809 21.6552 16.6186 21.3347 16.6186H17.5642C15.3671 14.7654 12.9719 15.727 11.8355 16.6186H7.84346L5.6056 13.8912C4.89462 13.0229 3.61251 12.9005 2.74418 13.6115C2.32458 13.9553 2.06233 14.4449 2.00988 14.981C1.95743 15.523 2.11478 16.0475 2.45862 16.4671L6.74202 21.6946C7.41803 22.5221 8.42041 23 9.49271 23H21.3289C21.6494 23 21.9117 22.7378 21.9117 22.4172C21.9117 22.0967 21.6494 21.8345 21.3289 21.8345L21.3347 21.8286Z" fill="currentColor"/>
<path d="M9.32957 4.07149H14.5454L15.4487 2.17164C15.5653 1.92687 15.4953 1.64131 15.2914 1.46648C14.93 1.17509 14.0617 0.784634 13.0477 1.21006C12.3076 1.59469 12.0628 1.47814 11.6548 1.29165C11.3809 1.16927 11.0429 1.01192 10.5767 1.00026C9.32375 0.982777 8.58945 1.85111 8.55448 1.88608C8.40879 2.06674 8.38548 2.32316 8.49621 2.52713L9.32375 4.06566L9.32957 4.07149Z" fill="currentColor"/>
</svg>
