<svg width="24" height="24" viewBox="0 0 24 24" fill="none" xmlns="http://www.w3.org/2000/svg">
<path d="M10.477 21.8455C9.03756 21.5446 7.69115 20.9032 6.5505 19.975C5.40985 19.0468 4.50817 17.8589 3.92094 16.5106C3.33371 15.1624 3.07801 13.693 3.17528 12.2257C3.27255 10.7583 3.71995 9.33561 4.48001 8.07667C5.24007 6.81773 6.29068 5.7592 7.54387 4.9897C8.79706 4.2202 10.2163 3.76212 11.6829 3.65383C13.1495 3.54553 14.6207 3.79016 15.9734 4.36724C17.326 4.94431 18.5207 5.83704 19.4574 6.97069L14.6783 7.3232C14.6024 7.32623 14.5278 7.34419 14.4589 7.37604C14.3899 7.40788 14.3279 7.45299 14.2764 7.5088C14.2249 7.56461 14.1849 7.63002 14.1586 7.7013C14.1324 7.77257 14.1205 7.84831 14.1235 7.9242C14.1265 8.00009 14.1445 8.07464 14.1763 8.14359C14.2082 8.21254 14.2533 8.27454 14.3091 8.32606C14.3649 8.37758 14.4303 8.41759 14.5016 8.44383C14.5729 8.47007 14.6486 8.48201 14.7245 8.47898H14.765L15.2099 8.4443L16.3079 8.36339L17.7353 8.25938L19.1453 8.15536L20.2202 8.07445C20.4355 8.08173 20.65 8.04434 20.8501 7.96465C20.9517 7.90214 21.033 7.8116 21.0842 7.70395C21.1355 7.59629 21.1545 7.4761 21.1391 7.35787V7.10938L21.0813 6.21943L21.0119 4.98853L20.931 3.67095L20.8617 2.51517L20.8155 1.72924V1.54432C20.811 1.46838 20.7917 1.39406 20.7585 1.32563C20.7253 1.25719 20.6789 1.19599 20.622 1.14552C20.565 1.09505 20.4987 1.05632 20.4268 1.03154C20.3549 1.00675 20.2788 0.996408 20.2029 1.0011C20.0506 1.01005 19.908 1.07887 19.8062 1.19254C19.7045 1.30621 19.6518 1.45552 19.6597 1.60788L19.9082 5.72823C18.7907 4.54383 17.41 3.6393 15.8779 3.08792C14.3457 2.53654 12.7052 2.35381 11.0893 2.55455C9.47338 2.75528 7.92747 3.33382 6.57679 4.24331C5.22612 5.1528 4.10867 6.36766 3.31497 7.78946C2.52127 9.21127 2.07363 10.8 2.00834 12.4271C1.94305 14.0541 2.26192 15.6736 2.93914 17.1545C3.61635 18.6353 4.63286 19.9358 5.90632 20.9506C7.17977 21.9654 8.67436 22.666 10.269 22.9955C10.3073 23.0015 10.3463 23.0015 10.3846 22.9955C10.5189 22.9985 10.6502 22.9546 10.7557 22.8712C10.8611 22.7879 10.9343 22.6704 10.9624 22.539C10.9791 22.4613 10.9796 22.3811 10.9638 22.3032C10.948 22.2253 10.9164 22.1516 10.8708 22.0865C10.8253 22.0214 10.7668 21.9664 10.699 21.925C10.6313 21.8835 10.5557 21.8565 10.477 21.8455Z" fill="currentColor"/>
<path d="M15.0015 18.4302H13.7128V11.5996C13.7174 11.5347 13.7079 11.4696 13.6849 11.4087C13.662 11.3479 13.6261 11.2927 13.5799 11.247C13.4924 11.1805 13.3878 11.1402 13.2783 11.131C13.1688 11.1218 13.0589 11.144 12.9615 11.195C12.8588 11.2359 12.7602 11.2862 12.6668 11.3453L11.1007 12.3797C10.9964 12.436 10.9162 12.5285 10.8754 12.6397C10.844 12.7355 10.844 12.8387 10.8754 12.9345C10.8998 13.0243 10.9476 13.1061 11.014 13.1714C11.0844 13.2393 11.1765 13.2802 11.2741 13.287C11.3876 13.2924 11.5001 13.2643 11.5977 13.2061L12.6437 12.5126V18.4302H11.2568C11.1258 18.4263 10.9974 18.4671 10.8927 18.5458C10.845 18.5882 10.8076 18.641 10.7836 18.7001C10.7595 18.7592 10.7494 18.8231 10.754 18.8867C10.7511 18.9523 10.7613 19.0178 10.7842 19.0793C10.807 19.1409 10.8419 19.1972 10.8869 19.245C10.9901 19.3318 11.122 19.3772 11.2568 19.3721H15.0304C15.1645 19.3793 15.2964 19.336 15.4002 19.2508C15.4478 19.2034 15.4848 19.1464 15.5087 19.0837C15.5326 19.0209 15.5429 18.9538 15.5389 18.8867C15.5435 18.8231 15.5334 18.7592 15.5093 18.7001C15.4853 18.641 15.4479 18.5882 15.4002 18.5458C15.2862 18.4592 15.1441 18.418 15.0015 18.4302Z" fill="currentColor"/>
<path d="M21.9421 15.4599C21.7506 15.0718 21.4518 14.7469 21.081 14.5237C20.6698 14.2954 20.2048 14.1817 19.7346 14.1943C19.3186 14.1876 18.9069 14.2787 18.5325 14.4601C18.3598 14.5415 18.2016 14.6508 18.0645 14.7838V12.1486H21.37C21.5062 12.1584 21.6409 12.1149 21.7456 12.0272C21.8309 11.9319 21.878 11.8084 21.878 11.6805C21.878 11.5526 21.8309 11.4291 21.7456 11.3338C21.6406 11.2466 21.5061 11.2032 21.37 11.2124H17.5039C17.4378 11.2083 17.3716 11.2174 17.309 11.2392C17.2465 11.2611 17.189 11.2952 17.1398 11.3395C17.0913 11.3887 17.0539 11.4476 17.03 11.5124C17.006 11.5772 16.9962 11.6463 17.0011 11.7152V15.6795C16.9985 15.7419 17.0084 15.8043 17.0302 15.8628C17.0521 15.9214 17.0854 15.975 17.1283 16.0204C17.1752 16.065 17.2306 16.0997 17.2911 16.1225C17.3516 16.1453 17.4161 16.1558 17.4808 16.1534C17.5804 16.156 17.6787 16.1299 17.764 16.0782C17.8419 16.034 17.9122 15.9774 17.972 15.9106C18.1668 15.6667 18.4136 15.4692 18.6944 15.3328C18.9682 15.2155 19.2634 15.1565 19.5612 15.1594C19.7838 15.1472 20.0065 15.1832 20.214 15.265C20.4214 15.3468 20.6088 15.4724 20.7632 15.6333C21.0602 15.9751 21.2153 16.4175 21.1966 16.8699C21.2038 17.1677 21.1341 17.4622 20.9944 17.7252C20.8644 17.9717 20.663 18.1732 20.4165 18.3031C20.129 18.444 19.8118 18.5134 19.4918 18.5054C19.143 18.5066 18.796 18.454 18.4632 18.3493C18.1265 18.2385 17.8089 18.0768 17.5212 17.8697C17.4282 17.7953 17.3107 17.7582 17.1918 17.7657C17.0922 17.7711 16.9979 17.8121 16.926 17.8812C16.8543 17.9484 16.8036 18.0349 16.78 18.1303C16.7564 18.2257 16.761 18.3258 16.7931 18.4187C16.8352 18.5209 16.9079 18.6077 17.0011 18.6672C17.3544 18.9467 17.7587 19.1548 18.1916 19.2797C18.6166 19.4103 19.0588 19.4765 19.5034 19.4762C20.015 19.4906 20.5219 19.3753 20.977 19.141C21.3805 18.9261 21.715 18.6016 21.9421 18.2049C22.1576 17.7817 22.2592 17.3096 22.2368 16.8353C22.2501 16.3598 22.149 15.8881 21.9421 15.4599Z" fill="currentColor"/>
</svg>
