<svg width="24" height="24" viewBox="0 0 24 24" fill="none" xmlns="http://www.w3.org/2000/svg">
<path d="M22.6136 13.2416L16.0733 8.94696L21.2187 3.80147C21.4445 3.57574 21.4445 3.2111 21.2187 2.98537C20.993 2.75964 20.6284 2.75964 20.4026 2.98537L15.0893 8.29871L13.9433 7.54628C13.9201 5.0864 13.6018 1.33002 11.877 1.33002C10.1522 1.33002 9.83384 5.0864 9.81069 7.54628L1.14034 13.2416C0.978281 13.3516 0.879883 13.531 0.879883 13.7278V15.2153C0.879883 15.3947 0.966702 15.5684 1.10561 15.6783C1.25031 15.7883 1.43553 15.823 1.60917 15.7767L9.86278 13.4963V13.5194L2.54103 20.8412C2.3153 21.0669 2.3153 21.4316 2.54103 21.6573C2.65679 21.7731 2.80148 21.8251 2.95197 21.8251C3.10246 21.8251 3.24715 21.7673 3.36291 21.6573L9.99012 15.0301L10.2332 18.0977L8.06273 20.8991C7.9817 21.0033 7.94118 21.1248 7.94118 21.2521V22.7396C7.94118 22.9364 8.03958 23.1159 8.20743 23.2258C8.30004 23.2895 8.41001 23.3184 8.51998 23.3184C8.60101 23.3184 8.68204 23.3011 8.75728 23.2663L11.8828 21.883L15.0198 23.2663C15.1993 23.3474 15.4076 23.33 15.5697 23.22C15.7318 23.1159 15.8302 22.9306 15.8302 22.7339V21.2464C15.8302 21.119 15.7839 20.9917 15.7086 20.8875L13.5092 18.0919L13.8912 13.4847L22.1506 15.7652C22.3242 15.8115 22.5095 15.7767 22.6542 15.6668C22.7989 15.5568 22.8799 15.3889 22.8799 15.2037V13.7162C22.8741 13.531 22.7757 13.3516 22.6136 13.2416ZM10.7194 12.275C10.5805 12.1766 10.4011 12.1419 10.2332 12.1882L2.03747 14.4513V14.0346L10.7078 8.33922C10.8699 8.22925 10.9683 8.04983 10.9683 7.85304C10.9683 5.23688 11.4082 2.67861 11.8654 2.47603C12.3458 2.67861 12.7857 5.23688 12.7857 7.85304C12.7857 8.04983 12.8841 8.22925 13.0462 8.33922L14.2501 9.12639L10.8988 12.4776C10.8583 12.4024 10.8004 12.3271 10.7194 12.275ZM21.7165 14.4513L13.5208 12.1882C13.3529 12.1419 13.1793 12.1708 13.0346 12.2692C12.8957 12.3676 12.8031 12.5239 12.7915 12.6976L12.3342 18.225C12.3227 18.3697 12.3632 18.5144 12.4558 18.6302L14.6726 21.4489V21.8483L12.1143 20.7197C12.0391 20.6849 11.958 20.6676 11.8828 20.6676C11.8075 20.6676 11.7207 20.6849 11.6455 20.7197L9.09877 21.8483V21.4489L11.2808 18.6302C11.3676 18.5144 11.414 18.3755 11.4024 18.2308L11.0667 13.9535L15.2398 9.78042L21.7165 14.0404V14.4513Z" fill="currentColor"/>
</svg>
