<svg width="24" height="24" viewBox="0 0 24 24" fill="none" xmlns="http://www.w3.org/2000/svg">
<path d="M22.6194 13.2448L13.9467 7.54791C13.9236 5.08739 13.6051 1.33002 11.8799 1.33002C10.1546 1.33002 9.8362 5.08739 9.81304 7.54791L1.14041 13.2448C0.978304 13.3548 0.879883 13.5342 0.879883 13.7311V15.219C0.879883 15.3984 0.966725 15.5721 1.10567 15.6821C1.25041 15.7921 1.43567 15.8269 1.60936 15.7805L9.86515 13.4995L10.2299 18.1079L8.05883 20.91C7.97778 21.0142 7.93725 21.1358 7.93725 21.2632V22.7511C7.93725 22.9479 8.03567 23.1274 8.20357 23.2374C8.2962 23.3011 8.4062 23.33 8.5162 23.33C8.59725 23.33 8.6783 23.3126 8.75357 23.2779L11.8799 21.8942L15.0178 23.2779C15.1973 23.359 15.4057 23.3416 15.5678 23.2316C15.7299 23.1274 15.8283 22.9421 15.8283 22.7453V21.2574C15.8283 21.13 15.782 21.0026 15.7067 20.8984L13.5067 18.1021L13.8888 13.4937L22.1504 15.7748C22.3241 15.8211 22.5094 15.7863 22.6541 15.6763C22.7988 15.5663 22.8799 15.3984 22.8799 15.2132V13.7253C22.8799 13.5342 22.7815 13.3548 22.6194 13.2448ZM21.722 14.4548L13.5241 12.1911C13.3562 12.1448 13.1825 12.1737 13.0378 12.2721C12.8988 12.3705 12.8062 12.5269 12.7946 12.7005L12.3315 18.2295C12.3199 18.3742 12.3604 18.519 12.453 18.6348L14.6704 21.4542V21.8537L12.1115 20.7248C12.0362 20.69 11.9551 20.6726 11.8799 20.6726C11.8046 20.6726 11.7178 20.69 11.6425 20.7248L9.09515 21.8537V21.4542L11.2778 18.6348C11.3646 18.519 11.4109 18.38 11.3994 18.2353L10.9594 12.7063C10.9478 12.5326 10.8551 12.3763 10.7162 12.2779C10.5772 12.1795 10.3978 12.1448 10.2299 12.1911L2.03778 14.4548V14.0379L10.7104 8.34107C10.8725 8.23107 10.9709 8.0516 10.9709 7.85475C10.9709 5.23791 11.4109 2.67896 11.8683 2.47633C12.3488 2.67896 12.7888 5.23791 12.7888 7.85475C12.7888 8.0516 12.8873 8.23107 13.0494 8.34107L21.722 14.0379V14.4548Z" fill="currentColor"/>
</svg>
