<svg width="24" height="24" viewBox="0 0 24 24" fill="none" xmlns="http://www.w3.org/2000/svg">
<path d="M11.5798 6.72327C11.2614 6.72327 11.0009 6.98376 11.0009 7.30214V12.5236L7.56239 15.8059C7.33084 16.0258 7.32505 16.3905 7.54503 16.6221C7.6608 16.7436 7.81131 16.8015 7.96182 16.8015C8.10654 16.8015 8.25126 16.7494 8.36125 16.6394L11.9792 13.1893C12.095 13.0793 12.1587 12.9288 12.1587 12.7725V7.30214C12.1587 6.98376 11.8982 6.72327 11.5798 6.72327Z" fill="currentColor"/>
<path d="M11.5797 2.60156C5.9588 2.60156 1.37988 7.1747 1.37988 12.8014C1.37988 18.4281 5.9588 22.9954 11.5797 22.9954C17.2006 22.9954 21.7795 18.4223 21.7795 12.7956C21.7795 7.16891 17.2006 2.60156 11.5797 2.60156ZM11.5797 21.8377C6.59557 21.8377 2.53764 17.7855 2.53764 12.7956C2.53764 7.80567 6.59557 3.75932 11.5797 3.75932C16.5638 3.75932 20.6218 7.81146 20.6218 12.8014C20.6218 17.7913 16.5638 21.8377 11.5797 21.8377Z" fill="currentColor"/>
<path d="M20.1932 5.03875C20.2916 5.10242 20.4016 5.13716 20.5116 5.13716C20.6968 5.13716 20.882 5.04454 20.992 4.87666C21.1715 4.61038 21.0962 4.25147 20.8299 4.07202L16.3668 1.09659C16.1005 0.917137 15.7416 0.992391 15.5622 1.25867C15.3827 1.52496 15.458 1.88386 15.7243 2.06332L20.1932 5.03875Z" fill="currentColor"/>
<path d="M2.64793 5.13131C2.75792 5.13131 2.8679 5.10237 2.96631 5.0329L7.42946 2.05747C7.69574 1.87802 7.76521 1.51911 7.59154 1.25283C7.41788 0.986545 7.05319 0.917079 6.7869 1.09074L2.32375 4.06617C2.05747 4.24563 1.988 4.60453 2.16167 4.87082C2.27744 5.04448 2.46269 5.13131 2.64793 5.13131Z" fill="currentColor"/>
</svg>
