<svg width="22" height="22" viewBox="0 0 22 22" fill="none" xmlns="http://www.w3.org/2000/svg">
<path d="M9.07789 9.65106H0.578947C0.425401 9.65106 0.278143 9.59007 0.169569 9.4815C0.0609956 9.37293 0 9.22566 0 9.07211V0.578947C0 0.425401 0.0609956 0.278152 0.169569 0.169578C0.278143 0.0610045 0.425401 0 0.578947 0H9.07789C9.23144 0 9.37869 0.0610045 9.48727 0.169578C9.59584 0.278152 9.65684 0.425401 9.65684 0.578947V9.07211C9.65684 9.22566 9.59584 9.37293 9.48727 9.4815C9.37869 9.59007 9.23144 9.65106 9.07789 9.65106ZM1.15789 8.49317H8.49894V1.15789H1.15789V8.49317Z" fill="currentColor"/>
<path d="M21.4211 9.65106H12.9222C12.7686 9.65106 12.6214 9.59007 12.5128 9.4815C12.4042 9.37293 12.3432 9.22566 12.3432 9.07211V0.578947C12.3432 0.425401 12.4042 0.278152 12.5128 0.169578C12.6214 0.0610045 12.7686 0 12.9222 0H21.4211C21.5747 0 21.7219 0.0610045 21.8305 0.169578C21.9391 0.278152 22.0001 0.425401 22.0001 0.578947V9.07211C22.0001 9.22566 21.9391 9.37293 21.8305 9.4815C21.7219 9.59007 21.5747 9.65106 21.4211 9.65106ZM13.5011 8.49317H20.8422V1.15789H13.5011V8.49317Z" fill="currentColor"/>
<path d="M9.07789 22H3.47368C2.55241 22 1.66886 21.634 1.01742 20.9826C0.365974 20.3311 0 19.4476 0 18.5263V12.9337C0 12.7801 0.0609956 12.6329 0.169569 12.5243C0.278143 12.4157 0.425401 12.3547 0.578947 12.3547H9.07789C9.23144 12.3547 9.37869 12.4157 9.48727 12.5243C9.59584 12.6329 9.65684 12.7801 9.65684 12.9337V21.4326C9.65381 21.5842 9.59148 21.7285 9.48323 21.8345C9.37498 21.9406 9.22945 22 9.07789 22ZM1.15789 13.501V18.5147C1.15789 19.1289 1.40188 19.7179 1.83617 20.1522C2.27047 20.5865 2.8595 20.8305 3.47368 20.8305H8.48737V13.501H1.15789Z" fill="currentColor"/>
<path d="M21.4211 22H12.9222C12.7686 22 12.6214 21.939 12.5128 21.8304C12.4042 21.7218 12.3432 21.5746 12.3432 21.421V12.9221C12.3432 12.7685 12.4042 12.6213 12.5128 12.5127C12.6214 12.4041 12.7686 12.3431 12.9222 12.3431H21.4211C21.5747 12.3431 21.7219 12.4041 21.8305 12.5127C21.9391 12.6213 22.0001 12.7685 22.0001 12.9221V21.421C22.0001 21.5746 21.9391 21.7218 21.8305 21.8304C21.7219 21.939 21.5747 22 21.4211 22ZM13.5011 20.8421H20.8422V13.501H13.5011V20.8421Z" fill="currentColor"/>
</svg>
