<svg width="24" height="24" viewBox="0 0 24 24" fill="none" xmlns="http://www.w3.org/2000/svg">
<path d="M22.6924 3H1.27867C1.20476 3 1.13388 3.02936 1.08162 3.08162C1.02936 3.13388 1 3.20476 1 3.27867V17.6229C1 17.6968 1.02936 17.7677 1.08162 17.82C1.13388 17.8722 1.20476 17.9016 1.27867 17.9016H14.8016C14.8425 17.9082 14.8843 17.9059 14.9242 17.8947C14.9641 17.8836 15.0011 17.8639 15.0326 17.837C15.0642 17.8102 15.0895 17.7768 15.1069 17.7392C15.1242 17.7016 15.1332 17.6607 15.1332 17.6193C15.1332 17.5778 15.1242 17.5369 15.1069 17.4993C15.0895 17.4617 15.0642 17.4283 15.0326 17.4015C15.0011 17.3746 14.9641 17.355 14.9242 17.3438C14.8843 17.3327 14.8425 17.3303 14.8016 17.3369H1.56468V9.16011H22.4137V17.6229C22.4137 17.6968 22.4431 17.7677 22.4953 17.82C22.5476 17.8722 22.6185 17.9016 22.6924 17.9016C22.7663 17.9016 22.8372 17.8722 22.8894 17.82C22.9417 17.7677 22.9711 17.6968 22.9711 17.6229V3.27867C22.9711 3.20476 22.9417 3.13388 22.8894 3.08162C22.8372 3.02936 22.7663 3 22.6924 3ZM1.56468 6.19006V3.56468H22.4137V6.19006H1.56468Z" fill="currentColor"/>
<path d="M18.7467 21.605C20.946 21.605 22.7288 19.8222 22.7288 17.6229C22.7288 15.4237 20.946 13.6409 18.7467 13.6409C16.5475 13.6409 14.7646 15.4237 14.7646 17.6229C14.7646 19.8222 16.5475 21.605 18.7467 21.605Z" fill="#C9C2EA"/>
<path d="M18.7475 21.847C17.9112 21.8427 17.095 21.5906 16.4019 21.1227C15.7088 20.6548 15.1699 19.992 14.8532 19.218C14.5365 18.444 14.4563 17.5936 14.6226 16.774C14.789 15.9545 15.1944 15.2026 15.7878 14.6133C16.3812 14.024 17.1359 13.6238 17.9565 13.4631C18.7772 13.3024 19.6271 13.3886 20.3989 13.7106C21.1707 14.0326 21.8297 14.5761 22.2928 15.2724C22.756 15.9688 23.0023 16.7867 23.0009 17.623C23.0009 18.1802 22.8907 18.7318 22.6766 19.2463C22.4625 19.7607 22.1487 20.2276 21.7533 20.6203C21.358 21.0129 20.8889 21.3234 20.373 21.534C19.8571 21.7445 19.3047 21.8509 18.7475 21.847ZM18.7475 13.9562C18.0223 13.9562 17.3134 14.1713 16.7104 14.5742C16.1074 14.9771 15.6374 15.5498 15.3599 16.2198C15.0823 16.8898 15.0097 17.627 15.1512 18.3383C15.2927 19.0496 15.6419 19.7029 16.1547 20.2157C16.6675 20.7285 17.3209 21.0778 18.0321 21.2192C18.7434 21.3607 19.4807 21.2881 20.1507 21.0106C20.8207 20.7331 21.3934 20.2631 21.7963 19.6601C22.1992 19.0571 22.4142 18.3482 22.4142 17.623C22.4142 16.6505 22.0279 15.7178 21.3403 15.0302C20.6526 14.3425 19.72 13.9562 18.7475 13.9562Z" fill="currentColor"/>
<path d="M19.5315 20.1383H17.9694C17.9355 20.1393 17.9016 20.1333 17.87 20.1208C17.8384 20.1083 17.8097 20.0894 17.7857 20.0654C17.7616 20.0413 17.7428 20.0126 17.7302 19.981C17.7177 19.9494 17.7118 19.9156 17.7128 19.8816V18.0482H16.7814C16.7331 18.0479 16.6859 18.034 16.6451 18.008C16.6044 17.9821 16.5718 17.9451 16.5511 17.9015C16.5304 17.8578 16.5225 17.8092 16.5282 17.7612C16.5339 17.7132 16.553 17.6678 16.5834 17.6302L18.5488 15.1955C18.5729 15.1663 18.6031 15.1428 18.6373 15.1267C18.6716 15.1105 18.7089 15.1022 18.7468 15.1022C18.7846 15.1022 18.822 15.1105 18.8562 15.1267C18.8905 15.1428 18.9207 15.1663 18.9448 15.1955L20.9102 17.6669C20.9405 17.7045 20.9597 17.7499 20.9654 17.7978C20.9711 17.8458 20.9632 17.8944 20.9425 17.9381C20.9218 17.9818 20.8892 18.0187 20.8485 18.0447C20.8077 18.0707 20.7605 18.0846 20.7122 18.0849H19.7881V19.8669C19.7901 19.9019 19.785 19.9368 19.773 19.9697C19.761 20.0025 19.7424 20.0326 19.7184 20.058C19.6943 20.0834 19.6653 20.1036 19.6332 20.1174C19.6011 20.1312 19.5664 20.1383 19.5315 20.1383ZM18.2261 19.6249H19.2748V17.7916C19.2738 17.7576 19.2797 17.7238 19.2923 17.6922C19.3048 17.6606 19.3237 17.6319 19.3477 17.6078C19.3718 17.5838 19.4005 17.5649 19.4321 17.5524C19.4637 17.5398 19.4975 17.5339 19.5315 17.5349H20.1695L19.5315 16.7355L18.7468 15.7675L17.3241 17.5349H17.9694C18.0375 17.5349 18.1028 17.5619 18.1509 17.6101C18.1991 17.6582 18.2261 17.7235 18.2261 17.7916V19.6249Z" fill="currentColor"/>
</svg>
