<svg width="24" height="24" viewBox="0 0 24 24" fill="none" xmlns="http://www.w3.org/2000/svg">
<path d="M8.85141 7.5913C8.71152 7.5913 8.57162 7.53884 8.45504 7.43975C7.74975 6.79275 7.33008 5.67361 7.33008 4.43789C7.33008 3.208 7.74975 2.08304 8.45504 1.43603C8.69403 1.22037 9.06125 1.23785 9.27691 1.47101C9.49258 1.70999 9.48092 2.07721 9.24194 2.29287C8.78729 2.70672 8.49585 3.54608 8.49585 4.43206C8.49585 5.32971 8.78146 6.15158 9.24194 6.57125C9.48092 6.78692 9.49258 7.15997 9.27691 7.39312C9.16616 7.52719 9.00879 7.5913 8.85141 7.5913Z" fill="currentColor"/>
<path d="M16.3238 4.43788C16.3238 5.33552 16.0382 6.15739 15.5777 6.57707C15.3387 6.79273 15.3271 7.16578 15.5427 7.39893C15.6593 7.52134 15.8167 7.58546 15.9741 7.58546C16.114 7.58546 16.2539 7.533 16.3704 7.43391C17.0757 6.78691 17.4954 5.66777 17.4954 4.43205C17.4954 3.20216 17.0757 2.07719 16.3704 1.43019C16.1315 1.21452 15.7642 1.22618 15.5486 1.46516C15.3329 1.70415 15.3446 2.07136 15.5835 2.28703C16.0382 2.72419 16.3238 3.54023 16.3238 4.43788Z" fill="currentColor"/>
<path d="M17.4603 22.8396C17.4778 22.7696 17.4836 22.6997 17.4778 22.6297C17.4778 22.6239 17.4778 22.6239 17.4778 22.6181C17.4778 22.5947 17.4836 22.5714 17.4719 22.5481L13.2985 5.80765C13.689 5.55118 13.9397 5.1315 13.9397 4.65353C13.9397 3.87247 13.2519 3.23712 12.4067 3.23712C11.5615 3.23712 10.8737 3.87247 10.8737 4.65353C10.8737 5.1315 11.1302 5.54535 11.5149 5.80765L8.85108 16.5036C8.83942 16.5327 8.83359 16.5619 8.82776 16.591L7.34141 22.5539C7.33558 22.5656 7.34141 22.5773 7.34141 22.5947C7.33558 22.6355 7.33557 22.6705 7.33557 22.7113C7.33557 22.7463 7.33558 22.7813 7.34141 22.8162C7.34723 22.8512 7.36472 22.8862 7.37638 22.9153C7.39386 22.9503 7.40552 22.9853 7.42884 23.0203C7.43466 23.0319 7.44049 23.0436 7.44632 23.0552C7.45798 23.0727 7.47547 23.0785 7.49295 23.0902C7.52793 23.1252 7.56873 23.1601 7.61536 23.1835C7.64451 23.2009 7.67364 23.2184 7.70862 23.2301C7.7261 23.2359 7.74359 23.2534 7.76691 23.2592C7.79605 23.2651 7.81937 23.2592 7.84851 23.2651C7.87183 23.2651 7.88932 23.2767 7.91263 23.2767C7.93012 23.2767 7.9476 23.2709 7.96509 23.2709C7.99423 23.2709 8.01755 23.2651 8.04087 23.2592C8.08167 23.2476 8.12247 23.2359 8.16327 23.2126C8.18658 23.2009 8.2099 23.1893 8.23322 23.1718C8.24488 23.166 8.26236 23.1601 8.27402 23.1485L12.4008 19.8494L16.5277 23.1485C16.6326 23.2359 16.7608 23.2767 16.8891 23.2767C16.8891 23.2767 16.8891 23.2767 16.8949 23.2767H16.9007C16.9474 23.2767 16.994 23.2709 17.0406 23.2592C17.0639 23.2534 17.0814 23.2359 17.1047 23.2301C17.1281 23.2243 17.1455 23.2126 17.1689 23.2009C17.233 23.166 17.2854 23.1252 17.3321 23.0727C17.3379 23.0669 17.3437 23.0669 17.3437 23.0611C17.3437 23.0552 17.3495 23.0552 17.3495 23.0494C17.3962 22.9911 17.4253 22.927 17.4486 22.8629C17.4603 22.8454 17.4603 22.8396 17.4603 22.8396ZM10.4482 14.9298H14.371L14.7557 16.4686L12.4067 18.3455L10.0635 16.4744L10.4482 14.9298ZM10.7396 13.764L12.4125 7.06085L14.0854 13.764H10.7396ZM8.89771 21.1492L9.75455 17.716L11.4741 19.0916L8.89771 21.1492ZM15.0646 17.7102L15.9273 21.1608L13.3393 19.0916L15.0646 17.7102Z" fill="currentColor"/>
</svg>
