<svg width="24" height="24" viewBox="0 0 24 24" fill="none" xmlns="http://www.w3.org/2000/svg">
<path d="M11.1953 20.0165C11.4673 20.0165 11.6885 20.2367 11.6885 20.5087V22.5067C11.6885 22.7787 11.4673 22.9999 11.1953 22.9999H0.493164C0.221145 22.9999 0 22.7787 0 22.5067V20.5087C2.01966e-05 20.2367 0.221158 20.0165 0.493164 20.0165H11.1953ZM21.6367 0.00867215C21.7655 -0.0156706 21.8969 0.0116055 22.0059 0.0858206C22.1136 0.158958 22.1885 0.27294 22.2129 0.40125L23.3291 6.31141C23.379 6.57884 23.2033 6.83691 22.9365 6.88758L20.5645 7.33582C20.5338 7.34157 20.5033 7.34361 20.4727 7.34363C20.3745 7.34363 20.2771 7.31415 20.1943 7.2577C20.0868 7.1846 20.0127 7.07135 19.9883 6.94324L19.9023 6.48914L18.5654 6.74207L19.5107 11.7489L19.5254 11.746C19.6542 11.7216 19.7855 11.7489 19.8945 11.8231C20.0023 11.8963 20.0772 12.0102 20.1016 12.1386L21.9492 21.9208C21.9729 22.0497 21.9448 22.1822 21.8711 22.2899C21.798 22.3977 21.6846 22.4726 21.5557 22.497L19.1631 22.9481C19.1324 22.9539 19.1014 22.9569 19.0713 22.9569C18.839 22.9569 18.6318 22.7916 18.5869 22.5555L16.7393 12.7743C16.6892 12.5069 16.8652 12.249 17.1318 12.1981L17.1475 12.1952L16.2012 7.18836L14.8652 7.44031L14.9502 7.89344C14.9739 8.02238 14.9468 8.15578 14.873 8.26355C14.7999 8.37134 14.6856 8.44523 14.5566 8.46961L12.1836 8.91785C12.1529 8.92357 12.1218 8.92566 12.0918 8.92566C11.8598 8.92544 11.6533 8.76087 11.6084 8.5243L10.4932 2.61512C10.4431 2.34823 10.6189 2.0906 10.8857 2.03992L13.2578 1.59168C13.3868 1.5673 13.5195 1.59441 13.6279 1.66883C13.7356 1.74197 13.8096 1.85605 13.834 1.98426L13.9199 2.43738L18.957 1.48621L18.8711 1.03309C18.8211 0.76559 18.9978 0.507591 19.2646 0.456914L21.6367 0.00867215ZM0.985352 22.0145H10.7031V21.0018H0.985352V22.0145ZM19.2119 12.8085H19.21L17.8145 13.0721L17.8115 13.0731L17.7998 13.0751L19.4648 21.8886L20.8896 21.62L19.2246 12.8055L19.2119 12.8085ZM7.97559 16.5565C8.87641 16.5565 10.2019 17.1268 10.248 18.6747H10.2529C10.5248 18.6747 10.7459 18.895 10.7461 19.1669C10.7461 19.4389 10.5249 19.66 10.2529 19.66H1.43457C1.16255 19.66 0.941406 19.4389 0.941406 19.1669C0.941608 18.895 1.16268 18.6747 1.43457 18.6747H1.4375C1.4715 17.8999 2.04627 16.5565 4.06348 16.5565H7.97559ZM4.06348 17.5419C2.66569 17.5419 2.45389 18.368 2.42285 18.6747H9.26074C9.20799 17.6193 8.18465 17.5444 7.97363 17.5419H4.06348ZM5.84375 4.9452C8.83207 4.94524 11.2637 7.37679 11.2637 10.3651C11.2636 13.3534 8.83205 15.785 5.84375 15.785C2.85542 15.785 0.42387 13.3534 0.423828 10.3651C0.423828 7.37676 2.85539 4.9452 5.84375 4.9452ZM5.84375 5.93055C3.39879 5.93055 1.40918 7.92016 1.40918 10.3651C1.40922 12.81 3.39882 14.7997 5.84375 14.7997C8.28865 14.7996 10.2783 12.81 10.2783 10.3651C10.2783 7.92018 8.28868 5.93059 5.84375 5.93055ZM7.60742 7.90516C7.79987 7.71312 8.11136 7.71296 8.30371 7.90516C8.49618 8.09762 8.49618 8.40996 8.30371 8.60242L6.54004 10.3651L8.30371 12.1288C8.49609 12.3212 8.49593 12.6326 8.30371 12.8251C8.20748 12.9213 8.08146 12.9696 7.95508 12.9696C7.82877 12.9695 7.70359 12.9212 7.60742 12.8251L5.84375 11.0624L4.08008 12.8251C3.98396 12.9212 3.85866 12.9695 3.73242 12.9696C3.60604 12.9696 3.48002 12.9213 3.38379 12.8251C3.19146 12.6326 3.19137 12.3212 3.38379 12.1288L5.14648 10.3651L3.38379 8.60242C3.19132 8.40996 3.19132 8.09762 3.38379 7.90516C3.57618 7.71303 3.88767 7.71305 4.08008 7.90516L5.84375 9.66883L7.60742 7.90516ZM17.1699 7.00477L18.1162 12.0126L18.542 11.9315L17.5967 6.92469L17.1699 7.00477ZM11.5527 2.91688L12.4854 7.85828L13.8906 7.59266L13.8047 7.14051V7.13953L13.042 3.10535V3.1034L12.957 2.65125L11.5527 2.91688ZM14.1025 3.40613L14.6816 6.47254L16.4912 6.13074C16.4953 6.12986 16.4989 6.12668 16.5029 6.12586L17.8975 5.86316C17.9007 5.86255 17.904 5.86355 17.9072 5.86316L19.7188 5.52039L19.5107 4.4159L19.1396 2.45496L14.1025 3.40613ZM19.9316 1.33387L20.0166 1.78699L20.0176 1.78797L20.2988 3.27918L20.8652 6.27625L22.2695 6.01063L21.3359 1.06824L19.9316 1.33387Z" fill="currentColor"/>
</svg>
