<svg width="24" height="25" viewBox="0 0 24 25" fill="none" xmlns="http://www.w3.org/2000/svg">
<path d="M3.68665 4.72571C3.35665 4.72571 3.09033 4.99202 3.09033 5.32202C3.09033 5.65202 3.35665 5.91834 3.68665 5.91834C4.01665 5.91834 4.28296 5.65202 4.28296 5.32202C4.28875 4.99781 4.01665 4.72571 3.68665 4.72571Z" fill="currentColor"/>
<path d="M6.05433 4.72571C5.72433 4.72571 5.45801 4.99202 5.45801 5.32202C5.45801 5.65202 5.72433 5.91834 6.05433 5.91834C6.38433 5.91834 6.65064 5.65202 6.65064 5.32202C6.65064 4.99781 6.38433 4.72571 6.05433 4.72571Z" fill="currentColor"/>
<path d="M8.422 4.72571C8.092 4.72571 7.82568 4.99202 7.82568 5.32202C7.82568 5.65202 8.092 5.91834 8.422 5.91834C8.752 5.91834 9.01831 5.65202 9.01831 5.32202C9.01831 4.99781 8.752 4.72571 8.422 4.72571Z" fill="currentColor"/>
<path d="M22.4211 2.73999H1.57895C1.26053 2.73999 1 3.00052 1 3.31894V7.33683V18.2731C1 20.2068 2.56895 21.7758 4.50263 21.7758H22.4211C22.7395 21.7758 23 21.5153 23 21.1968V7.33683V3.31894C23 2.99473 22.7395 2.73999 22.4211 2.73999ZM2.15789 3.89788H21.8421V6.75789H2.15789V3.89788ZM4.50263 20.6179C3.21158 20.6179 2.15789 19.5642 2.15789 18.2731V7.91578H21.8421V20.6179H4.50263Z" fill="currentColor"/>
</svg>
