<svg width="24" height="24" viewBox="0 0 24 24" fill="none" xmlns="http://www.w3.org/2000/svg">
<path d="M17.5741 6.24341C16.9838 6.24341 16.4397 6.27235 15.9304 6.32444C16.4686 4.39705 17.7188 3.88771 17.7709 3.86456C18.0372 3.76616 18.1935 3.49992 18.1414 3.2221C18.0951 2.94427 17.852 2.7417 17.5741 2.7417C16.1677 2.7417 15.0101 2.89797 14.0377 3.14107C12.9554 2.12817 10.9296 1.04004 7.19635 1.04004C6.91852 1.04004 6.68122 1.23683 6.62913 1.51465C6.57704 1.78668 6.73332 2.05872 6.99377 2.1629C7.05744 2.18605 8.39445 2.73591 8.89801 4.83115C8.07033 4.66908 7.11531 4.57648 6.00981 4.57648C5.73199 4.57648 5.49469 4.77327 5.4426 5.05109C5.39051 5.32312 5.54678 5.59516 5.80724 5.69934C5.89406 5.73407 7.89669 6.55017 7.89669 10.0866L7.91406 10.6017C6.89538 11.1863 6.2124 12.2802 6.2124 13.5362V19.6541C6.2124 21.5236 7.72884 23.04 9.59835 23.04H13.9856C15.8551 23.04 17.3716 21.5236 17.3716 19.6541V13.5246C17.3716 12.3092 16.7233 11.2442 15.7567 10.6422C16.1156 8.03188 17.7073 7.38363 17.7709 7.36048C18.0372 7.26209 18.1935 6.99584 18.1414 6.71802C18.0951 6.4402 17.852 6.24341 17.5741 6.24341ZM14.6975 6.49229C14.1014 6.60805 13.5747 6.75275 13.1058 6.92638C12.7181 6.50965 12.1971 6.08713 11.4968 5.7167C12.2608 4.98163 13.5689 4.24656 15.8204 3.99189C15.3574 4.55333 14.9233 5.36364 14.6975 6.49229ZM8.95009 2.29024C10.7617 2.4986 11.954 3.01373 12.7354 3.56937C11.6183 4.0382 10.8659 4.64014 10.3624 5.21894C10.2871 5.19 10.2119 5.16685 10.1366 5.1437C9.92826 3.82983 9.45365 2.91534 8.95009 2.29024ZM9.04849 10.0519C9.04849 7.96822 8.4234 6.64278 7.76357 5.82089C9.90511 6.06398 11.19 6.74117 11.9714 7.44151C10.3508 8.33864 9.72568 9.51939 9.49416 10.1503C9.34368 10.1561 9.19898 10.1676 9.06007 10.1908L9.04849 10.0519ZM16.214 17.2463L15.1258 18.3344L13.8641 17.0784C13.6383 16.8527 13.2737 16.8527 13.048 17.0784L11.792 18.3344L10.536 17.0784C10.3103 16.8527 9.94562 16.8527 9.71989 17.0784L8.46391 18.3344L7.37577 17.2463V15.5157L8.05297 16.1929C8.2787 16.4186 8.64333 16.4186 8.86906 16.1929L10.125 14.9369L11.381 16.1929C11.6068 16.4186 11.9714 16.4186 12.1971 16.1929L13.4531 14.9369L14.7091 16.1929C14.8249 16.3087 14.9696 16.3607 15.1201 16.3607C15.2705 16.3607 15.4152 16.3029 15.531 16.1929L16.2082 15.5157V17.2463H16.214ZM13.9798 21.8767H9.59256C8.36551 21.8767 7.3642 20.8753 7.3642 19.6483V18.8843L8.04139 19.5615C8.26712 19.7872 8.63176 19.7872 8.85749 19.5615L10.1135 18.3055L11.3695 19.5615C11.5952 19.7872 11.9598 19.7872 12.1856 19.5615L13.4416 18.3055L14.6975 19.5615C14.8133 19.6772 14.958 19.7293 15.1085 19.7293C15.259 19.7293 15.4037 19.6715 15.5194 19.5615L16.1966 18.8843V19.6483C16.214 20.8753 15.2127 21.8767 13.9798 21.8767ZM16.214 13.8777L15.1258 14.9658L13.8641 13.7041C13.6383 13.4783 13.2737 13.4783 13.048 13.7041L11.792 14.9601L10.536 13.7041C10.3103 13.4783 9.94562 13.4783 9.71989 13.7041L8.46391 14.9601L7.37577 13.8719V13.5246C7.37577 12.2976 8.37709 11.2963 9.60414 11.2963H13.9914C15.2184 11.2963 16.2198 12.2976 16.2198 13.5246V13.8777H16.214ZM14.657 10.2082C14.4371 10.1618 14.2113 10.1387 13.9856 10.1387H10.7617C11.2248 9.29366 12.4808 7.86403 15.8204 7.48782C15.3342 8.08976 14.8712 8.96953 14.657 10.2082Z" fill="currentColor"/>
</svg>
