<svg width="24" height="24" viewBox="0 0 24 24" fill="none" xmlns="http://www.w3.org/2000/svg">
<path d="M22.7326 3.38736C22.7326 3.10375 22.5011 2.85487 22.2233 2.81436C22.2001 2.80857 22.177 2.80857 22.1538 2.80857H11.5793L10.7053 1.77252C10.5953 1.64519 10.4332 1.56995 10.2654 1.56995H4.3038C3.98546 1.56995 3.72501 1.8304 3.72501 2.14874V5.77779H1.3288C1.01046 5.77779 0.75 6.03824 0.75 6.35658V19.0727C0.75 20.7281 2.11595 22.0767 3.80025 22.0767H18.9994C19.3177 22.0767 19.5782 21.8162 19.5782 21.4979V17.9672V17.6141H22.1712C22.4895 17.6141 22.75 17.3537 22.75 17.0353V13.5626V11.0564V5.86461C22.7442 5.86461 22.7326 3.38736 22.7326 3.38736ZM1.90759 19.0727V6.93538H6.92574L9.61714 10.4892C9.72711 10.6339 9.89496 10.7207 10.0802 10.7207H18.4148C18.4148 13.1285 18.4148 15.5363 18.4148 17.9498C18.4148 18.9396 18.4148 19.9293 18.4148 20.9249H3.80025C2.75842 20.9191 1.90759 20.0914 1.90759 19.0727ZM9.33353 8.19715H18.4032L18.409 9.56311H10.3638L9.33353 8.19715ZM19.5724 15.7099V10.1419V10.1361L19.555 7.61257C19.555 7.29423 19.2946 7.03956 18.9763 7.03956H8.45955L7.67818 6.0093C7.56821 5.86461 7.40035 5.77779 7.21514 5.77779H4.8826V2.72754H9.98757L10.8558 3.75779C10.8673 3.76937 10.8789 3.78094 10.8905 3.79252C10.8963 3.79831 10.9021 3.8041 10.9021 3.8041C11.0062 3.90249 11.1452 3.96037 11.2956 3.96037H21.5635L21.5808 16.445H19.5666V15.7099H19.5724Z" fill="currentColor"/>
</svg>
