<svg width="24" height="24" viewBox="0 0 24 24" fill="none" xmlns="http://www.w3.org/2000/svg">
<path d="M23 12.4645C23 12.3139 22.9479 12.1633 22.8379 12.0533L14.4699 3.69688C14.244 3.47103 13.8792 3.47103 13.6533 3.69688C13.4275 3.92273 13.4275 4.28756 13.6533 4.51341L21.0311 11.8911L1.5791 11.9317C1.26059 11.9317 1 12.1923 1 12.5108C1 12.8293 1.26059 13.0899 1.5791 13.0899L21.0253 13.0493L13.6128 20.4618C13.3869 20.6877 13.3869 21.0525 13.6128 21.2784C13.7286 21.3942 13.8734 21.4463 14.024 21.4463C14.1745 21.4463 14.3193 21.3884 14.4351 21.2784C14.4351 21.2784 22.8321 12.8814 22.8436 12.8698C22.9421 12.7656 23 12.615 23 12.4645Z" fill="currentColor"/>
</svg>
