<svg width="24" height="24" viewBox="0 0 24 24" fill="none" xmlns="http://www.w3.org/2000/svg">
<path d="M22.4298 11.9306L2.98043 11.89L10.3572 4.51328C10.583 4.28746 10.583 3.92268 10.3572 3.69686C10.1314 3.47104 9.76659 3.47104 9.54077 3.69686C9.54077 3.69686 1.18546 12.0522 1.17967 12.058C0.959641 12.278 0.959641 12.6601 1.17967 12.8802L9.5813 21.2876C9.69711 21.4034 9.84186 21.4555 9.99241 21.4555C10.143 21.4555 10.2877 21.3976 10.4035 21.2876C10.6293 21.0618 10.6293 20.697 10.4035 20.4712L2.99201 13.0597L22.4356 13.1002C22.7541 13.1002 23.0147 12.8396 23.0147 12.5212C23.0089 12.1911 22.7483 11.9306 22.4298 11.9306Z" fill="currentColor"/>
</svg>
