<svg width="24" height="24" viewBox="0 0 24 24" fill="none" xmlns="http://www.w3.org/2000/svg">
<path d="M19.7927 4.31106C15.5013 0.0196459 8.52267 0.0196459 4.23125 4.31106C-0.0601575 8.60247 -0.0601575 15.5811 4.23125 19.8725C6.37406 22.0153 9.19446 23.0925 12.0149 23.0925C14.8353 23.0925 17.6499 22.0211 19.7985 19.8725C24.0841 15.5811 24.0841 8.60247 19.7927 4.31106ZM18.9703 19.0501C15.1306 22.8898 8.88752 22.8898 5.04783 19.0501C1.20815 15.2104 1.20815 8.96732 5.04783 5.12764C8.88752 1.28796 15.1306 1.28796 18.9703 5.12764C22.81 8.96732 22.81 15.2162 18.9703 19.0501Z" fill="currentColor"/>
<path d="M16.8561 6.40753L7.33503 15.9633V8.87466C7.33503 8.55613 7.07442 8.29552 6.7559 8.29552C6.43737 8.29552 6.17676 8.55613 6.17676 8.87466V17.3648C6.17676 17.6776 6.44316 17.944 6.7559 17.944H15.2055C15.5241 17.944 15.7847 17.6833 15.7847 17.3648C15.7847 17.0463 15.5241 16.7857 15.2055 16.7857H8.15162L17.6784 7.22411C17.9043 6.99825 17.9043 6.63339 17.6784 6.40753C17.4468 6.18166 17.0819 6.18166 16.8561 6.40753Z" fill="currentColor"/>
</svg>
