<svg width="24" height="24" viewBox="0 0 24 24" fill="none" xmlns="http://www.w3.org/2000/svg">
<path d="M12 1.08002C5.93263 1.08002 1 6.01265 1 12.08C1 18.1474 5.93263 23.08 12 23.08C18.0674 23.08 23 18.1474 23 12.08C23 6.01844 18.0674 1.08002 12 1.08002ZM12 21.9221C6.57526 21.9221 2.15789 17.5048 2.15789 12.08C2.15789 6.65528 6.57526 2.23791 12 2.23791C17.4247 2.23791 21.8421 6.65528 21.8421 12.08C21.8421 17.5048 17.4305 21.9221 12 21.9221Z" fill="currentColor"/>
<path d="M12.4282 4.22951C12.324 4.1253 12.1735 4.0674 12.023 4.06161C11.8667 4.06161 11.7161 4.11951 11.6061 4.22951L5.60245 10.2332C5.37666 10.459 5.37666 10.8237 5.60245 11.0495C5.71824 11.1653 5.86297 11.2174 6.0135 11.2174C6.16403 11.2174 6.30876 11.1595 6.42455 11.0495L11.4382 6.03582L11.4093 19.5195C11.4093 19.8379 11.6698 20.0985 11.9882 20.0985C12.3067 20.0985 12.5672 19.8379 12.5672 19.5195L12.5961 6.02425L17.5809 11.009C17.8067 11.2348 18.1714 11.2348 18.3972 11.009C18.623 10.7832 18.623 10.4185 18.3972 10.1927C18.3972 10.2042 12.4398 4.24108 12.4282 4.22951Z" fill="currentColor"/>
</svg>
