<svg width="24" height="24" viewBox="0 0 24 24" fill="none" xmlns="http://www.w3.org/2000/svg">
<path d="M21.2875 9.54497C21.2875 9.54497 12.9236 1.18111 12.9121 1.17532C12.6862 0.966805 12.3213 0.961013 12.1012 1.18111L3.69676 9.58551C3.47087 9.81141 3.47087 10.1763 3.69676 10.4022C3.81261 10.518 3.95741 10.5702 4.10801 10.5702C4.2586 10.5702 4.4034 10.5123 4.51925 10.4022L11.9332 2.98826L11.8869 22.4383C11.8869 22.7568 12.1475 23.0175 12.4661 23.0175C12.7846 23.0175 13.0453 22.7568 13.0453 22.4383L13.0858 2.98247L20.465 10.3617C20.6909 10.5876 21.0558 10.5876 21.2817 10.3617C21.5076 10.1358 21.5134 9.77086 21.2875 9.54497Z" fill="currentColor"/>
</svg>
