<svg width="24" height="24" viewBox="0 0 24 24" fill="none" xmlns="http://www.w3.org/2000/svg">
<path d="M22.7817 6.6671C22.6428 6.52814 22.4517 6.47025 22.2606 6.51078L16.9978 7.5645C16.7894 7.60503 16.6215 7.76135 16.5578 7.96399C16.4941 8.16663 16.552 8.39243 16.7025 8.54296L18.4973 10.3378L13.5645 15.5543L8.51007 10.4999C8.40007 10.3899 8.25533 10.332 8.09901 10.332C7.94268 10.332 7.79794 10.3957 7.68793 10.4999L1.11661 17.0712C0.890816 17.297 0.890816 17.6618 1.11661 17.8876C1.23241 18.0033 1.37715 18.0555 1.52768 18.0555C1.67822 18.0555 1.82296 17.9976 1.93876 17.8876L8.09901 11.7273L13.165 16.7933C13.275 16.9033 13.414 16.9612 13.5819 16.9612C13.7382 16.9612 13.8887 16.8917 13.9929 16.7817L19.3079 11.1541L20.9001 12.7463C21.0101 12.8563 21.1606 12.9142 21.3111 12.9142C21.369 12.9142 21.4211 12.9084 21.479 12.891C21.6817 12.8273 21.838 12.6594 21.8785 12.451L22.9322 7.18818C22.9786 6.99711 22.9149 6.80605 22.7817 6.6671ZM20.9637 11.1657L18.2831 8.48506L21.6353 7.81346L20.9637 11.1657Z" fill="currentColor"/>
</svg>
