<svg width="24" height="24" viewBox="0 0 24 24" fill="none" xmlns="http://www.w3.org/2000/svg">
<path d="M12 1.08002C5.93263 1.08002 1 6.01265 1 12.08C1 18.1474 5.93263 23.08 12 23.08C18.0674 23.08 23 18.1474 23 12.08C23 6.01844 18.0674 1.08002 12 1.08002ZM12 21.9221C6.57526 21.9221 2.15789 17.5048 2.15789 12.08C2.15789 6.65528 6.57526 2.23791 12 2.23791C17.4247 2.23791 21.8421 6.65528 21.8421 12.08C21.8421 17.5048 17.4305 21.9221 12 21.9221Z" fill="currentColor"/>
<path d="M17.5814 13.1106L12.5677 18.1242L12.5967 4.64056C12.5967 4.32214 12.3362 4.06161 12.0177 4.06161C11.6993 4.06161 11.4388 4.32214 11.4388 4.64056L11.4098 18.1358L6.42511 13.1511C6.19932 12.9253 5.83458 12.9253 5.6088 13.1511C5.38301 13.3769 5.38301 13.7416 5.6088 13.9674C5.6088 13.9674 11.5777 19.9363 11.5893 19.9479C11.8151 20.1563 12.1798 20.1621 12.3998 19.9421L18.4035 13.9385C18.6293 13.7127 18.6293 13.3479 18.4035 13.1221C18.1777 12.8963 17.8072 12.8848 17.5814 13.1106Z" fill="currentColor"/>
</svg>
