<svg width="24" height="24" viewBox="0 0 24 24" fill="none" xmlns="http://www.w3.org/2000/svg">
<path d="M12 1C5.93263 1 1 5.93263 1 12C1 18.0674 5.93263 23 12 23C18.0674 23 23 18.0674 23 12C23 5.93263 18.0674 1 12 1ZM12 21.8421C6.57526 21.8421 2.15789 17.4247 2.15789 12C2.15789 6.57526 6.57526 2.15789 12 2.15789C17.4247 2.15789 21.8421 6.57526 21.8421 12C21.8421 17.4247 17.4305 21.8421 12 21.8421Z" fill="currentColor"/>
<path d="M20.0184 12.0174C20.0184 11.8668 19.9663 11.7163 19.8563 11.6063L13.8526 5.60263C13.6268 5.37684 13.262 5.37684 13.0363 5.60263C12.8105 5.82842 12.8105 6.19316 13.0363 6.41895L18.0499 11.4326L4.56625 11.4037C4.24783 11.4037 3.9873 11.6642 3.9873 11.9826C3.9873 12.3011 4.24783 12.5616 4.56625 12.5616L18.0615 12.5905L13.0768 17.5753C12.851 17.8011 12.851 18.1658 13.0768 18.3916C13.1926 18.5074 13.3373 18.5595 13.4878 18.5595C13.6384 18.5595 13.7831 18.5016 13.8989 18.3916C13.8989 18.3916 19.8678 12.4226 19.8678 12.4168C19.9605 12.3184 20.0184 12.1679 20.0184 12.0174Z" fill="currentColor"/>
</svg>
