<svg width="24" height="24" viewBox="0 0 24 24" fill="none" xmlns="http://www.w3.org/2000/svg">
<g clip-path="url(#clip0_1_1277)">
<path d="M23.9462 22.7066L4.89754 3.72939H19.4006C19.8377 3.72939 20.1953 3.37178 20.1953 2.9347C20.1953 2.49762 19.8377 2.14001 19.4006 2.14001C19.4006 2.14001 2.97439 2.14001 2.95849 2.14001C2.54525 2.14796 2.19558 2.49762 2.17969 2.9347V19.2815C2.17969 19.7185 2.5373 20.0762 2.97438 20.0762C3.41146 20.0762 3.76907 19.7185 3.76907 19.2815V4.84991L22.8257 23.835C22.9847 23.986 23.1833 24.0655 23.3899 24.0655C23.5966 24.0655 23.7952 23.986 23.9542 23.835C24.2562 23.5172 24.2562 23.0165 23.9462 22.7066Z" fill="currentColor"/>
</g>
<defs>
<clipPath id="clip0_1_1277">
<rect width="24" height="24" fill="white"/>
</clipPath>
</defs>
</svg>
