<svg width="24" height="24" viewBox="0 0 24 24" fill="none" xmlns="http://www.w3.org/2000/svg">
<path d="M12 1C5.93263 1 1 5.93263 1 12C1 18.0674 5.93263 23 12 23C18.0674 23 23 18.0674 23 12C23 5.93263 18.0674 1 12 1ZM12 21.8421C6.57526 21.8421 2.15789 17.4247 2.15789 12C2.15789 6.57526 6.57526 2.15789 12 2.15789C17.4247 2.15789 21.8421 6.57526 21.8421 12C21.8421 17.4247 17.4305 21.8421 12 21.8421Z" fill="currentColor"/>
<path d="M19.4455 11.4384L5.95023 11.4095L10.935 6.42474C11.1608 6.19896 11.1608 5.83422 10.935 5.60843C10.7092 5.38264 10.3444 5.38264 10.1187 5.60843C10.1187 5.60843 4.14971 11.5774 4.14971 11.5832C4.03971 11.6932 3.97602 11.8495 3.98181 12.0058C3.98181 12.1563 4.0455 12.3011 4.14971 12.4053L10.1534 18.409C10.2692 18.5247 10.4139 18.5769 10.5644 18.5769C10.715 18.5769 10.8597 18.519 10.9755 18.409C11.2013 18.1832 11.2013 17.8184 10.9755 17.5926L5.96182 12.579L19.4455 12.6079C19.7639 12.6079 20.0244 12.3474 20.0244 12.029C20.0244 11.699 19.7639 11.4384 19.4455 11.4384Z" fill="currentColor"/>
</svg>
