<svg width="24" height="24" viewBox="0 0 24 24" fill="none" xmlns="http://www.w3.org/2000/svg">
<g clip-path="url(#clip0_1_1280)">
<path d="M24.064 23.6048C24.1037 23.5094 24.1355 23.4061 24.1355 23.3028V6.86785C24.1355 6.43075 23.7779 6.07312 23.3408 6.07312C22.9037 6.07312 22.546 6.43075 22.546 6.86785V21.3716L3.568 2.32996C3.25805 2.02002 2.75738 2.02002 2.43949 2.32996C2.12955 2.6399 2.12955 3.14058 2.43949 3.45052L21.4255 22.5081H6.99328C6.55618 22.5081 6.19855 22.8657 6.19855 23.3028C6.19855 23.7399 6.55618 24.0975 6.99328 24.0975C6.99328 24.0975 23.3249 24.0975 23.3408 24.0975C23.6428 24.0975 23.9368 23.8829 24.064 23.6048Z" fill="currentColor"/>
</g>
<defs>
<clipPath id="clip0_1_1280">
<rect width="24" height="24" fill="white"/>
</clipPath>
</defs>
</svg>
