<svg width="24" height="24" viewBox="0 0 24 24" fill="none" xmlns="http://www.w3.org/2000/svg">
<path d="M19.7811 4.30475C17.7026 2.22633 14.9411 1.08002 12.0058 1.08002C9.06474 1.08002 6.30316 2.22633 4.22474 4.30475C2.14632 6.38317 1 9.14475 1 12.08C1 15.0211 2.14632 17.7826 4.22474 19.8611C6.36684 22.0032 9.18632 23.08 12 23.08C14.8195 23.08 17.6332 22.009 19.7811 19.8611C24.0653 15.5711 24.0653 8.59475 19.7811 4.30475ZM18.9589 19.039C15.1205 22.8774 8.87948 22.8774 5.04105 19.039C3.18263 17.1805 2.15789 14.7084 2.15789 12.08C2.15789 9.4516 3.18263 6.97949 5.04105 5.12107C6.89948 3.26265 9.37158 2.23791 12 2.23791C14.6284 2.23791 17.1005 3.26265 18.9589 5.12107C22.7974 8.95949 22.7974 15.2063 18.9589 19.039Z" fill="currentColor"/>
<path d="M17.8533 6.81161C17.8533 6.50477 17.5812 6.25003 17.2744 6.25003H8.78702C8.4686 6.25003 8.20807 6.51056 8.20807 6.82898C8.20807 7.1474 8.4686 7.40793 8.78702 7.40793H15.8733L6.32071 16.9258C6.09492 17.1516 6.09492 17.5163 6.32071 17.7421C6.4365 17.8579 6.58124 17.91 6.73176 17.91C6.8765 17.91 7.02702 17.8521 7.14281 17.7421L16.7012 8.21845V15.2758C16.7012 15.5942 16.9618 15.8548 17.2802 15.8548C17.5986 15.8548 17.8591 15.5942 17.8591 15.2758C17.8533 15.2758 17.8533 6.82898 17.8533 6.81161Z" fill="currentColor"/>
</svg>
