<svg width="24" height="24" viewBox="0 0 24 24" fill="none" xmlns="http://www.w3.org/2000/svg">
<path d="M19.7922 4.31106C15.5008 0.0196459 8.52218 0.0196459 4.23077 4.31106C-0.0606458 8.60247 -0.0606458 15.5811 4.23077 19.8725C6.37358 22.0153 9.19397 23.0925 12.0144 23.0925C14.8348 23.0925 17.6494 22.0211 19.798 19.8725C24.0836 15.5811 24.0836 8.60247 19.7922 4.31106ZM18.9698 19.0501C15.1301 22.8898 8.88703 22.8898 5.04734 19.0501C1.20766 15.2104 1.20766 8.96732 5.04734 5.12764C8.88703 1.28796 15.1301 1.28796 18.9698 5.12764C22.8095 8.96732 22.8095 15.2162 18.9698 19.0501Z" fill="currentColor"/>
<path d="M8.13446 7.41523H15.2231C15.5416 7.41523 15.8022 7.15462 15.8022 6.8361C15.8022 6.51757 15.5416 6.25696 15.2231 6.25696C15.2231 6.25696 6.73294 6.25696 6.72136 6.25696C6.41442 6.26275 6.16539 6.51757 6.15381 6.8361V15.2857C6.15381 15.6042 6.41442 15.8649 6.73295 15.8649C7.05147 15.8649 7.31208 15.6042 7.31208 15.2857V8.23182L16.8736 17.7586C16.9895 17.8687 17.1343 17.9266 17.2848 17.9266C17.4354 17.9266 17.5802 17.8687 17.696 17.7586C17.9219 17.5328 17.9219 17.1679 17.696 16.942L8.13446 7.41523Z" fill="currentColor"/>
</svg>
