<svg width="24" height="24" viewBox="0 0 24 24" fill="none" xmlns="http://www.w3.org/2000/svg">
<path d="M19.7932 4.31106C15.5018 0.0196459 8.52315 0.0196459 4.23174 4.31106C-0.0596693 8.60247 -0.0596693 15.5811 4.23174 19.8725C6.37455 22.0153 9.19495 23.0925 12.0153 23.0925C14.8357 23.0925 17.6504 22.0211 19.799 19.8725C24.0846 15.5811 24.0846 8.60247 19.7932 4.31106ZM18.9708 19.0501C15.1311 22.8898 8.888 22.8898 5.04832 19.0501C1.20864 15.2104 1.20864 8.96732 5.04832 5.12764C6.96527 3.21069 9.49031 2.24932 12.0096 2.24932C14.5288 2.24932 17.0539 3.21069 18.9708 5.12764C22.8105 8.96732 22.8105 15.2162 18.9708 19.0501Z" fill="currentColor"/>
<path d="M17.8415 17.3648V8.87466C17.8415 8.55613 17.5809 8.29552 17.2623 8.29552C16.9438 8.29552 16.6832 8.55613 16.6832 8.87466V15.9633L7.16218 6.40753C6.93632 6.18166 6.57146 6.18166 6.33981 6.40753C6.11394 6.63339 6.11394 6.99825 6.33981 7.22411L15.8666 16.7857H8.81272C8.49419 16.7857 8.23358 17.0463 8.23358 17.3648C8.23358 17.6833 8.49419 17.944 8.81272 17.944H17.2623C17.5751 17.944 17.8415 17.6776 17.8415 17.3648Z" fill="currentColor"/>
</svg>
