<svg width="24" height="24" viewBox="0 0 24 24" fill="none" xmlns="http://www.w3.org/2000/svg">
<g clip-path="url(#clip0_1_1274)">
<path d="M24.2694 1.9206C24.2694 1.49955 23.8881 1.14999 23.475 1.14999H7.0539C6.61696 1.14999 6.25946 1.50749 6.25946 1.94443C6.25946 2.38137 6.61696 2.73887 7.0539 2.73887H21.5524L2.50972 21.7101C2.19989 22.0199 2.19989 22.5204 2.50972 22.8302C2.66861 22.9891 2.86721 23.0606 3.07376 23.0606C3.27237 23.0606 3.47893 22.9812 3.63782 22.8302L22.6885 3.85109V18.2781C22.6885 18.715 23.046 19.0725 23.4829 19.0725C23.9198 19.0725 24.2773 18.715 24.2773 18.2781C24.2694 18.2781 24.2694 1.94443 24.2694 1.9206Z" fill="currentColor"/>
</g>
<defs>
<clipPath id="clip0_1_1274">
<rect width="24" height="24" fill="white"/>
</clipPath>
</defs>
</svg>
