<svg width="24" height="24" viewBox="0 0 24 24" fill="none" xmlns="http://www.w3.org/2000/svg">
<path d="M21.2872 13.615C21.0613 13.3892 20.6964 13.3892 20.4705 13.615L13.0567 21.0288L13.0914 1.5792C13.0914 1.26064 12.8308 1 12.5122 1C12.1937 1 11.933 1.26064 11.933 1.5792L11.8925 21.0346L4.51343 13.6556C4.28755 13.4297 3.92265 13.4297 3.69676 13.6556C3.47087 13.8815 3.47087 14.2464 3.69676 14.4723L12.0604 22.836C12.2342 23.0097 12.5238 23.0503 12.7439 22.9344C12.796 22.9112 12.8366 22.8765 12.8771 22.836L21.2814 14.4317C21.513 14.2058 21.513 13.8409 21.2872 13.615Z" fill="currentColor"/>
</svg>
