<svg width="24" height="24" viewBox="0 0 24 24" fill="none" xmlns="http://www.w3.org/2000/svg">
<path d="M22.9979 17.4759L21.9442 12.2132C21.9037 12.0048 21.7474 11.8369 21.5448 11.7732C21.3421 11.7095 21.1163 11.7674 20.9658 11.9179L19.3737 13.5101L14.0589 7.88263C13.9489 7.76684 13.8041 7.70316 13.6478 7.70316C13.4973 7.69737 13.341 7.76105 13.231 7.87105L8.16513 12.9369L1.99348 6.77683C1.76769 6.55103 1.40295 6.55103 1.17716 6.77683C0.951365 7.00262 0.951365 7.36736 1.17716 7.59315L7.74828 14.1643C7.97408 14.3901 8.33882 14.3901 8.56461 14.1643L13.6189 9.11001L18.5516 14.3264L16.7568 16.1211C16.6063 16.2717 16.5484 16.4917 16.6121 16.7001C16.6757 16.9027 16.8436 17.059 17.0521 17.0996L22.3148 18.1533C22.3553 18.1591 22.39 18.1649 22.4306 18.1649C22.5811 18.1649 22.7316 18.107 22.8416 17.997C22.9748 17.858 23.0327 17.6612 22.9979 17.4759ZM18.3431 16.179L21.0237 13.4985L21.6953 16.8506L18.3431 16.179Z" fill="currentColor"/>
</svg>
