<svg width="24" height="24" viewBox="0 0 24 24" fill="none" xmlns="http://www.w3.org/2000/svg">
<path d="M22.979 11.8264C22.979 2.44319 15.9509 1.04004 11.7595 1.04004C7.42916 1.04004 0.97998 3.9907 0.97998 12.1093C0.97998 20.7361 7.8923 23.04 11.9795 23.04C16.2693 23.04 18.0524 21.2789 18.1276 21.2038C18.3476 20.9786 18.3476 20.6148 18.1218 20.3896C17.896 20.1645 17.5313 20.1645 17.3055 20.3896C17.2882 20.407 15.7425 21.8852 11.9795 21.8852C10.9722 21.8852 2.13782 21.6138 2.13782 12.1093C2.13782 4.26787 8.43069 2.19489 11.7595 2.19489C16.3503 2.19489 21.8211 3.86366 21.8211 11.8322C21.8211 11.8668 21.8501 15.1351 20.397 16.5324C19.9454 16.9655 19.407 17.1618 18.6834 17.133C18.6602 17.1387 18.0813 17.1503 17.6413 16.6999C17.2129 16.2553 17.0277 15.4584 17.1145 14.4017C17.3924 10.891 17.7166 6.98755 17.7166 6.98755C17.7455 6.66996 17.5082 6.3928 17.1898 6.36392C16.8656 6.34083 16.5935 6.57757 16.5645 6.88938C16.5645 6.88938 16.4951 7.73243 16.3909 8.9739C15.4414 7.23007 13.7278 6.08099 11.719 6.08099C8.62752 6.08099 6.11501 8.81222 6.11501 12.1671C6.11501 15.5219 8.62752 18.2532 11.719 18.2532C13.4962 18.2532 15.0478 17.3524 16.0377 15.9319C16.1709 16.5786 16.4314 17.1156 16.825 17.5141C17.5603 18.2589 18.4981 18.282 18.7065 18.282C19.6791 18.3225 20.5186 18.0106 21.2017 17.3582C23.0195 15.6201 22.9848 11.9708 22.979 11.8264ZM11.7248 17.1041C9.27592 17.1041 7.27863 14.8925 7.27863 12.1729C7.27863 9.45317 9.27592 7.24162 11.7248 7.24162C14.1389 7.24162 16.0319 9.40697 16.0319 12.1729C16.0319 14.9387 14.1446 17.1041 11.7248 17.1041Z" fill="currentColor"/>
</svg>
