<svg width="24" height="24" viewBox="0 0 24 24" fill="none" xmlns="http://www.w3.org/2000/svg">
<path d="M22.2526 3.55005H1.39956C1.24594 3.55005 1.0986 3.61108 0.989971 3.71971C0.88134 3.82834 0.820312 3.97567 0.820312 4.1293V11.5785C0.820312 11.7321 0.88134 11.8794 0.989971 11.9881C1.0986 12.0967 1.24594 12.1577 1.39956 12.1577H5.28635V17.6085C5.28635 18.5303 5.65252 19.4143 6.3043 20.0661C6.95609 20.7178 7.8401 21.084 8.76187 21.084H17.7692C17.9229 21.084 18.0702 21.023 18.1788 20.9144C18.2875 20.8057 18.3485 20.6584 18.3485 20.5048V12.1577H22.2411C22.3947 12.1577 22.542 12.0967 22.6507 11.9881C22.7593 11.8794 22.8203 11.7321 22.8203 11.5785V4.1293C22.8203 3.97766 22.7609 3.83205 22.6548 3.72375C22.5486 3.61544 22.4042 3.55308 22.2526 3.55005ZM5.28635 9.09929H3.88455V6.6085H5.28635V9.09929ZM17.2016 19.9371H8.77344C8.15894 19.9371 7.56959 19.693 7.13507 19.2585C6.70055 18.8239 6.45643 18.2346 6.45643 17.6201V6.61429H17.2132L17.2016 19.9371ZM19.7677 6.61429V9.10508H18.3601V6.61429H19.7677ZM21.6734 11.005H18.3601V10.2636H20.3469C20.5005 10.2636 20.6479 10.2026 20.7565 10.0939C20.8651 9.98529 20.9262 9.83796 20.9262 9.68433V6.03504C20.9262 5.88141 20.8651 5.73407 20.7565 5.62544C20.6479 5.51681 20.5005 5.45579 20.3469 5.45579H17.9488C17.8952 5.43479 17.8384 5.42304 17.7808 5.42103H5.8656C5.81001 5.42368 5.75522 5.43542 5.70341 5.45579H3.3053C3.15167 5.45579 3.00434 5.51681 2.89571 5.62544C2.78708 5.73407 2.72605 5.88141 2.72605 6.03504V9.68433C2.72605 9.83796 2.78708 9.98529 2.89571 10.0939C3.00434 10.2026 3.15167 10.2636 3.3053 10.2636H5.28635V11.005H1.97882V4.70855H21.6734V11.005Z" fill="currentColor"/>
<path d="M12.1218 12.8528C11.8283 12.7716 11.5544 12.6317 11.3167 12.4415C11.2501 12.3738 11.1982 12.293 11.1643 12.2043C11.1304 12.1156 11.1152 12.0208 11.1197 11.926C11.1115 11.8216 11.1241 11.7166 11.1569 11.6171C11.1898 11.5176 11.2421 11.4257 11.3109 11.3467C11.3898 11.2775 11.4815 11.2244 11.5809 11.1906C11.6803 11.1568 11.7854 11.143 11.8901 11.1498C12.0017 11.1434 12.1131 11.165 12.2142 11.2125C12.3154 11.26 12.4031 11.3321 12.4694 11.422C12.6232 11.6506 12.6984 11.9231 12.6837 12.1982V12.343H13.7437V12.1982C13.7666 11.7188 13.6279 11.2456 13.3498 10.8544C13.1023 10.5486 12.7526 10.3429 12.3651 10.2751V9.38306H11.4557V10.2693C11.0778 10.3275 10.7296 10.5087 10.4652 10.7848C10.1851 11.1043 10.0379 11.5188 10.0539 11.9434C10.0463 12.157 10.0825 12.37 10.1602 12.5693C10.2379 12.7685 10.3554 12.9497 10.5057 13.1019C10.8615 13.4248 11.2911 13.6555 11.7569 13.7738C12.0385 13.8583 12.3004 13.9982 12.5273 14.1851C12.6618 14.3306 12.7341 14.5229 12.7287 14.721C12.7233 14.9191 12.6406 15.1072 12.4983 15.2451C12.3016 15.3961 12.0565 15.4703 11.809 15.4536C11.5703 15.4628 11.3367 15.3822 11.1545 15.2277C11.0602 15.1292 10.9886 15.0113 10.9446 14.8822C10.9006 14.7532 10.8852 14.6161 10.8996 14.4805V14.3357H10.0075H9.90328L9.86853 14.4283V14.4805C9.84807 14.7239 9.87817 14.969 9.95691 15.2002C10.0357 15.4315 10.1614 15.644 10.3261 15.8243C10.6201 16.1014 10.9922 16.2814 11.3919 16.3399V17.1045H12.2898V16.3399C12.6903 16.29 13.0651 16.1158 13.3614 15.8417C13.5093 15.6881 13.6249 15.5065 13.7015 15.3075C13.7781 15.1086 13.8141 14.8963 13.8074 14.6832C13.8176 14.4707 13.7843 14.2584 13.7096 14.0592C13.6349 13.86 13.5204 13.6781 13.373 13.5247C13.0135 13.2071 12.5852 12.9771 12.1218 12.8528Z" fill="currentColor"/>
</svg>
