<svg width="24" height="24" viewBox="0 0 24 24" fill="none" xmlns="http://www.w3.org/2000/svg">
<path d="M22.1823 3.55005H1.32925C1.17563 3.55005 1.02828 3.61108 0.91965 3.71971C0.811019 3.82834 0.75 3.97567 0.75 4.1293V11.5785C0.75 11.7321 0.811019 11.8795 0.91965 11.9881C1.02828 12.0967 1.17563 12.1577 1.32925 12.1577H5.21603V17.6085C5.21603 18.5303 5.5822 19.4143 6.23398 20.0661C6.88577 20.7178 7.76978 21.084 8.69155 21.084H17.7047C17.8583 21.084 18.0057 21.023 18.1143 20.9144C18.2229 20.8057 18.284 20.6584 18.284 20.5048V12.1577H22.1707C22.3244 12.1577 22.4717 12.0967 22.5804 11.9881C22.689 11.8795 22.75 11.7321 22.75 11.5785V4.1293C22.75 3.97766 22.6906 3.83205 22.5845 3.72375C22.4783 3.61544 22.334 3.55308 22.1823 3.55005ZM5.21603 9.09929H3.81423V6.6085H5.21603V9.09929ZM17.137 19.9371H8.70313C8.08862 19.9371 7.49927 19.693 7.06475 19.2585C6.63023 18.8239 6.38612 18.2346 6.38612 17.6201V6.61429H17.1486L17.137 19.9371ZM19.6973 6.61429V9.10508H18.2955V6.61429H19.6973ZM21.6031 11.005H18.2955V10.2636H20.2766C20.4302 10.2636 20.5776 10.2026 20.6862 10.0939C20.7948 9.98529 20.8559 9.83796 20.8559 9.68433V6.03504C20.8559 5.88141 20.7948 5.73408 20.6862 5.62544C20.5776 5.51681 20.4302 5.45579 20.2766 5.45579H17.8785C17.8267 5.43542 17.7719 5.42368 17.7163 5.42103H5.79528C5.73969 5.42368 5.6849 5.43542 5.63309 5.45579H3.23498C3.08135 5.45579 2.93403 5.51681 2.8254 5.62544C2.71676 5.73408 2.65573 5.88141 2.65573 6.03504V9.68433C2.65573 9.83796 2.71676 9.98529 2.8254 10.0939C2.93403 10.2026 3.08135 10.2636 3.23498 10.2636H5.21603V11.005H1.90851V4.70855H21.6031V11.005Z" fill="currentColor"/>
<path d="M11.09 13.3336C11.3398 13.3016 11.5678 13.1751 11.7272 12.9802C11.8694 12.7986 11.9451 12.5737 11.9415 12.343C11.9513 12.1726 11.9214 12.0023 11.854 11.8455C11.7866 11.6886 11.6837 11.5496 11.5534 11.4394C11.2014 11.2004 10.7786 11.088 10.3544 11.1208H8.39648V15.5753H10.4239C10.8542 15.6062 11.2825 15.492 11.6403 15.2509C11.7774 15.1449 11.8868 15.0074 11.9594 14.8501C12.032 14.6928 12.0656 14.5203 12.0574 14.3473C12.0626 14.0981 11.9736 13.8561 11.8083 13.6695C11.6158 13.4765 11.3615 13.3576 11.09 13.3336ZM9.30012 11.8449H10.2327C10.7251 11.8449 10.9742 12.036 10.9742 12.4241C10.9742 12.8122 10.7251 13.0034 10.2327 13.0034H9.30012V11.8449ZM10.9047 14.7411C10.7372 14.8623 10.5311 14.918 10.3254 14.8976H9.28274V13.739H10.3196C10.5244 13.7201 10.7293 13.7733 10.8989 13.8896C10.9614 13.9427 11.0108 14.0095 11.0429 14.0849C11.0751 14.1604 11.0892 14.2422 11.0842 14.3241C11.0845 14.4019 11.0681 14.4789 11.0361 14.5498C11.0042 14.6208 10.9574 14.684 10.8989 14.7354L10.9047 14.7411Z" fill="currentColor"/>
<path d="M14.6526 13.6117L13.9575 13.4727C13.8332 13.4547 13.7145 13.4092 13.6099 13.3395C13.5812 13.3179 13.5578 13.2899 13.5417 13.2577C13.5256 13.2256 13.5173 13.1901 13.5173 13.1541C13.5157 13.121 13.521 13.0879 13.533 13.057C13.545 13.0261 13.5633 12.998 13.5868 12.9745C13.6423 12.9179 13.7125 12.8778 13.7895 12.8587C13.8955 12.8316 14.0045 12.818 14.1139 12.8182C14.2901 12.8164 14.4637 12.8603 14.6179 12.9456C14.7813 13.0271 14.918 13.1537 15.0117 13.3105L15.591 12.766C15.4475 12.5568 15.2462 12.3938 15.0117 12.2968C14.7308 12.1817 14.429 12.1265 14.1255 12.1346C13.8438 12.1264 13.5635 12.1778 13.3029 12.2852C13.1024 12.3713 12.9285 12.5093 12.799 12.6849C12.6928 12.838 12.6362 13.02 12.6368 13.2063C12.6325 13.3242 12.6518 13.4419 12.6936 13.5523C12.7353 13.6627 12.7988 13.7637 12.8801 13.8492C13.1207 14.0476 13.4113 14.1759 13.72 14.2199L14.2993 14.3416C14.4092 14.3526 14.5137 14.3948 14.6005 14.4632C14.6486 14.5153 14.6754 14.5835 14.6758 14.6544C14.677 14.7067 14.6621 14.7581 14.633 14.8016C14.604 14.8451 14.5623 14.8787 14.5136 14.8977C14.3806 14.9563 14.236 14.984 14.0907 14.9788C13.8663 14.985 13.6443 14.931 13.4477 14.8224C13.2722 14.727 13.1229 14.5897 13.0133 14.4227L12.4746 14.9614C12.6582 15.189 12.8949 15.3681 13.1639 15.4827C13.4612 15.606 13.7805 15.6671 14.1023 15.6623C14.3854 15.6714 14.6674 15.6221 14.9306 15.5175C15.1342 15.4338 15.3106 15.2955 15.4404 15.1178C15.5522 14.9455 15.6107 14.744 15.6084 14.5385C15.6149 14.3249 15.538 14.1172 15.394 13.9593C15.1914 13.7657 14.931 13.6437 14.6526 13.6117Z" fill="currentColor"/>
</svg>
