<svg width="24" height="24" viewBox="0 0 24 24" fill="none" xmlns="http://www.w3.org/2000/svg">
<path d="M12.0348 9.99976C9.38317 9.99976 7.31055 11.2329 7.31055 12.8134C7.31055 14.394 9.38317 15.6271 12.0348 15.6271C14.6863 15.6271 16.759 14.394 16.759 12.8134C16.759 11.2329 14.6863 9.99976 12.0348 9.99976ZM12.0348 14.4634C9.99107 14.4634 8.46844 13.5892 8.46844 12.8076C8.46844 12.0261 9.99107 11.1519 12.0348 11.1519C14.0784 11.1519 15.6011 12.0261 15.6011 12.8076C15.6011 13.5892 14.0784 14.4634 12.0348 14.4634Z" fill="currentColor"/>
<path d="M22.4211 3.23193H1.57895C1.26053 3.23193 1 3.49246 1 3.81088V11.2561C1 11.5746 1.26053 11.8351 1.57895 11.8351H5.46369V17.283C5.46369 19.2051 7.02684 20.7682 8.94895 20.7682H17.9574C18.2758 20.7682 18.5363 20.5077 18.5363 20.1893V11.8351H22.4211C22.7395 11.8351 23 11.5746 23 11.2561V3.81088C23 3.49246 22.7395 3.23193 22.4211 3.23193ZM5.46369 8.77825H4.05684V6.29456H5.46369V8.77825ZM17.3784 19.6104H8.94895C7.66947 19.6104 6.62158 18.5683 6.62158 17.283V6.28877H17.3726V19.6104H17.3784ZM21.8421 10.6772H18.5363V9.93615H20.5221C20.8405 9.93615 21.1011 9.67562 21.1011 9.3572V5.71561C21.1011 5.39719 20.8405 5.13667 20.5221 5.13667H18.8432H18.1253H5.88053H5.1221H3.48369C3.16527 5.13667 2.90474 5.39719 2.90474 5.71561V9.3572C2.90474 9.67562 3.16527 9.93615 3.48369 9.93615H5.46947V10.6772H2.16368V4.38983H21.8479V10.6772H21.8421ZM18.5363 8.77825V6.29456H19.9432V8.77825H18.5363Z" fill="currentColor"/>
</svg>
