<svg width="24" height="24" viewBox="0 0 24 24" fill="none" xmlns="http://www.w3.org/2000/svg">
<path d="M19.5722 12C20.7533 10.5816 21.5291 9.16895 21.7375 7.94737C21.8938 7.05 21.7375 6.25684 21.2975 5.64895C20.377 4.39263 18.3159 4.13789 15.7859 4.75158C14.877 2.44158 13.5338 1 12.0054 1C10.477 1 9.13382 2.44737 8.21908 4.75158C5.68329 4.13211 3.62224 4.39263 2.7075 5.64895C2.26172 6.25684 2.1054 7.05 2.26172 7.94737C2.47014 9.16895 3.24593 10.5758 4.42698 12C3.24593 13.4184 2.47014 14.8311 2.26172 16.0526C2.1054 16.95 2.26172 17.7432 2.70172 18.3511C3.30382 19.1789 4.39803 19.5726 5.79908 19.5726C6.52856 19.5726 7.34487 19.4511 8.21329 19.2426C9.12224 21.5526 10.4712 23 11.9996 23C13.528 23 14.877 21.5526 15.7859 19.2426C16.6543 19.4511 17.4707 19.5726 18.2001 19.5726C19.5954 19.5726 20.6896 19.1789 21.2975 18.3511C21.7433 17.7432 21.8938 16.95 21.7375 16.0526C21.5291 14.8311 20.7533 13.4242 19.5722 12ZM18.2233 5.57947C19.248 5.57947 20.0007 5.83421 20.3654 6.33211C20.6201 6.68526 20.7012 7.16 20.597 7.75053C20.4291 8.74053 19.7749 9.91579 18.7907 11.1258C18.2117 10.5121 17.5633 9.91 16.8512 9.31947C16.7122 8.06316 16.4865 6.89368 16.1738 5.85158C16.9322 5.67211 17.627 5.57368 18.2233 5.57368V5.57947ZM14.3154 15.1321C13.5338 15.6647 12.758 16.1221 11.9996 16.5216C11.2412 16.1221 10.4654 15.6647 9.68382 15.1321C9.18593 14.7905 8.7054 14.4374 8.24803 14.0726C8.19014 13.4126 8.16119 12.7179 8.16119 12C8.16119 11.2821 8.19014 10.5874 8.24803 9.92737C8.7054 9.56263 9.18014 9.20947 9.68382 8.86789C10.4654 8.33526 11.2412 7.87211 11.9996 7.47263C12.758 7.87211 13.5338 8.33526 14.3154 8.86789C14.8133 9.20947 15.2938 9.56263 15.7512 9.92737C15.8091 10.5874 15.838 11.2821 15.838 12C15.838 12.7179 15.8091 13.4126 15.7512 14.0726C15.2938 14.4374 14.8191 14.7905 14.3154 15.1321ZM15.5428 15.6821C15.4154 16.4579 15.2475 17.1816 15.0507 17.83C14.4775 17.6447 13.8812 17.4189 13.2617 17.1411C13.8291 16.8168 14.3965 16.4695 14.9638 16.0874C15.1607 15.9542 15.3517 15.8211 15.537 15.6821H15.5428ZM10.7375 17.1468C10.118 17.4247 9.52172 17.6505 8.94856 17.8358C8.75172 17.1816 8.58382 16.4637 8.45645 15.6879C8.6475 15.8268 8.83856 15.96 9.02961 16.0932C9.59698 16.4811 10.1643 16.8226 10.7317 17.1468H10.7375ZM7.02645 13.0305C6.65593 12.6889 6.30277 12.3474 5.97856 12C6.30277 11.6526 6.65014 11.3111 7.02645 10.9695C7.01487 11.3111 7.00329 11.6526 7.00329 12C7.00329 12.3474 7.01487 12.6889 7.02645 13.0305ZM8.45645 8.31789C8.58382 7.54211 8.75172 6.82421 8.94856 6.17579C9.52172 6.36105 10.1122 6.58105 10.7317 6.85895C10.1643 7.18316 9.59698 7.53053 9.02961 7.91842C8.83277 8.05158 8.64172 8.18474 8.45645 8.32368V8.31789ZM13.2675 6.85316C13.887 6.57526 14.4775 6.35526 15.0507 6.17C15.2475 6.81842 15.4154 7.53632 15.5428 8.31211C15.3517 8.17316 15.1607 8.04 14.9696 7.90684C14.4022 7.51895 13.8349 7.17158 13.2675 6.84737V6.85316ZM16.9786 10.9695C17.3491 11.3111 17.7022 11.6526 18.0265 12C17.7022 12.3474 17.3549 12.6889 16.9786 13.0305C16.9901 12.6889 17.0017 12.3474 17.0017 12C17.0017 11.6526 16.9901 11.3111 16.9786 10.9695ZM11.9996 2.15789C12.9375 2.15789 13.9217 3.23474 14.6628 5.07C13.8059 5.34789 12.9086 5.71263 11.9996 6.17C11.0849 5.71842 10.1875 5.34789 9.33645 5.07C10.0775 3.23474 11.0675 2.15789 11.9996 2.15789ZM3.40224 7.75053C3.29803 7.16 3.37908 6.68526 3.63382 6.33211C3.99856 5.83421 4.75119 5.57947 5.77593 5.57947C6.37224 5.57947 7.07277 5.6779 7.8254 5.85737C7.51277 6.89368 7.28119 8.06316 7.14803 9.32526C6.43593 9.91 5.7875 10.5179 5.20856 11.1316C4.21856 9.92158 3.57014 8.74632 3.40224 7.75632V7.75053ZM3.63961 17.6679C3.38487 17.3147 3.30382 16.84 3.40803 16.2495C3.57593 15.2595 4.23014 14.0842 5.21435 12.8742C5.79329 13.4879 6.44172 14.09 7.15382 14.6805C7.29277 15.9368 7.52435 17.1121 7.83698 18.1484C5.77593 18.6347 4.21856 18.4553 3.63961 17.6679ZM11.9996 21.8421C11.0617 21.8421 10.0717 20.7595 9.33066 18.9242C10.1875 18.6463 11.0849 18.2758 11.9996 17.8242C12.9143 18.2758 13.8117 18.6463 14.6686 18.9242C13.9275 20.7595 12.9375 21.8421 11.9996 21.8421ZM20.3654 17.6679C19.7922 18.4553 18.2291 18.6347 16.168 18.1484C16.4807 17.1121 16.7122 15.9368 16.8512 14.6805C17.5633 14.0958 18.2117 13.4879 18.7907 12.8742C19.7807 14.0842 20.4291 15.2595 20.597 16.2495C20.7012 16.84 20.6201 17.3147 20.3654 17.6679Z" fill="currentColor"/>
<path d="M11.9537 10.5121C11.1316 10.5121 10.4658 11.1779 10.4658 12C10.4658 12.8221 11.1316 13.4879 11.9537 13.4879C12.7758 13.4879 13.4416 12.8221 13.4416 12C13.4416 11.1779 12.7758 10.5121 11.9537 10.5121Z" fill="currentColor"/>
</svg>
