<svg width="24" height="24" viewBox="0 0 24 24" fill="none" xmlns="http://www.w3.org/2000/svg">
<path d="M20.4646 11.7239L11.8732 20.3153C9.81659 22.372 6.46227 22.372 4.40566 20.3153C3.40921 19.3189 2.85885 17.9922 2.85885 16.5787C2.85885 15.1651 3.40921 13.8442 4.40566 12.842L14.1036 3.14405C15.4013 1.84635 17.5101 1.84635 18.8078 3.14405C20.1055 4.44174 20.1055 6.5505 18.8078 7.84819L9.10981 17.5519C8.58841 18.0733 7.68466 18.0675 7.16906 17.5519C6.63607 17.019 6.63607 16.1442 7.16906 15.6112L16.2877 6.49257C16.5136 6.26663 16.5136 5.90165 16.2877 5.67571C16.0617 5.44977 15.6968 5.44977 15.4708 5.67571L6.3522 14.7886C5.36734 15.7734 5.36734 17.3839 6.3522 18.3688C6.83305 18.8496 7.46451 19.1103 8.14233 19.1103C8.82014 19.1103 9.4574 18.8438 9.93245 18.3688L19.6304 8.67084C21.38 6.92127 21.38 4.07677 19.6304 2.32719C17.8808 0.577622 15.0363 0.577622 13.2868 2.32719L3.58881 12.0252C2.37222 13.2417 1.7002 14.8581 1.7002 16.5787C1.7002 18.2993 2.37222 19.9156 3.58881 21.1322C4.84595 22.3893 6.49124 23.015 8.14233 23.015C9.79341 23.015 11.4387 22.3893 12.6958 21.1322L21.2873 12.5408C21.5132 12.3148 21.5132 11.9498 21.2873 11.7239C21.0614 11.498 20.6906 11.4922 20.4646 11.7239Z" fill="currentColor"/>
</svg>
