<svg width="24" height="24" viewBox="0 0 24 24" fill="none" xmlns="http://www.w3.org/2000/svg">
<path d="M21.1705 11.1041C21.1705 11.1041 22.5119 10.4831 22.5729 9.74279C22.6339 9.00251 21.0546 9.11543 21.0546 9.11543L20.6339 9.93726L19.4693 6.35508C19.2071 5.5458 18.4693 5 17.6461 5H12.073H12.0243H11.9877H11.9389H6.36578C5.53652 5 4.80483 5.5458 4.54264 6.35508L3.37802 9.93726L2.95729 9.11543C2.95729 9.11543 1.37804 9.00251 1.43901 9.74279C1.49999 10.4831 2.84144 11.1041 2.84144 11.1041C1.08536 11.606 1 13.6637 1 14.7114V19.2785C1 19.6801 1.31707 20 1.70121 20H4.3841C4.77434 20 5.08532 19.6738 5.08532 19.2785V18.808H11.9328H11.9816H12.0182H12.0669H18.9144V19.2785C18.9144 19.6801 19.2315 20 19.6156 20H22.2985C22.6888 20 22.9997 19.6738 22.9997 19.2785V14.7114C23.0058 13.6637 22.9205 11.606 21.1705 11.1041ZM5.32312 7.2271C5.51824 6.56211 6.10969 6.11041 6.78651 6.11041H12.006H17.2254C17.9022 6.11041 18.4937 6.56211 18.6888 7.2271L19.6644 10.5583H11.9999H4.33532L5.32312 7.2271ZM6.75602 15.9975H4.49386C4.04874 15.9975 3.65241 15.7026 3.51216 15.2698L3.27436 14.542C3.15241 14.1719 3.46948 13.808 3.84142 13.8896L6.32311 14.3413C6.64627 14.4103 6.92066 14.6173 7.0609 14.9373L7.21333 15.2823C7.35358 15.6211 7.11577 15.9975 6.75602 15.9975ZM14.9084 17.5596C14.9084 17.6474 14.8413 17.7164 14.7559 17.7164H9.256C9.17063 17.7164 9.10356 17.6474 9.10356 17.5596V16.6876C9.10356 16.5997 9.17063 16.5307 9.256 16.5307H14.7559C14.8413 16.5307 14.9084 16.5997 14.9084 16.6876V17.5596ZM20.7437 14.5483L20.5059 15.276C20.3656 15.7089 19.9693 16.0038 19.5242 16.0038H17.262C16.9023 16.0038 16.6644 15.6211 16.8108 15.2886L16.9632 14.9435C17.1035 14.6299 17.3779 14.4166 17.701 14.3476L20.1827 13.8959C20.5485 13.808 20.8656 14.1782 20.7437 14.5483Z" fill="currentColor"/>
</svg>
