<svg width="24" height="24" viewBox="0 0 24 24" fill="none" xmlns="http://www.w3.org/2000/svg">
<path d="M20.4332 13.2241H7.5932C7.43911 13.2241 7.29134 13.2852 7.18239 13.3939C7.07343 13.5026 7.01221 13.65 7.01221 13.8037V20.486C7.01221 21.1654 7.28276 21.8169 7.76436 22.2973C8.24595 22.7777 8.89914 23.0476 9.58021 23.0476H22.4202C22.5743 23.0476 22.7221 22.9866 22.831 22.8779C22.94 22.7692 23.0012 22.6218 23.0012 22.4681V15.7858C23.0012 15.1064 22.7306 14.4548 22.249 13.9744C21.7675 13.494 21.1143 13.2241 20.4332 13.2241ZM21.8392 21.8885H9.58021C9.20779 21.887 8.85104 21.7387 8.58769 21.476C8.32435 21.2133 8.17573 20.8575 8.1742 20.486V14.3832H20.4332C20.8056 14.3848 21.1624 14.533 21.4257 14.7957C21.6891 15.0584 21.8377 15.4143 21.8392 15.7858V21.8885Z" fill="currentColor"/>
<path d="M15.6457 10.5466V3.59186C15.6442 2.91655 15.3742 2.26943 14.8949 1.79246C14.4157 1.31548 13.7663 1.04761 13.0893 1.04761H1.61469C1.4606 1.04761 1.31283 1.10867 1.20387 1.21736C1.09491 1.32604 1.03369 1.47346 1.03369 1.62716V8.58185C1.03369 9.25817 1.30304 9.90678 1.78245 10.385C2.26187 10.8632 2.91209 11.1319 3.59009 11.1319H15.0647C15.1415 11.1319 15.2176 11.1167 15.2884 11.0872C15.3593 11.0578 15.4236 11.0146 15.4776 10.9601C15.5317 10.9057 15.5743 10.8411 15.6032 10.7701C15.632 10.6991 15.6465 10.6231 15.6457 10.5466ZM13.0893 2.18354C13.4582 2.18354 13.812 2.32929 14.0733 2.58889C14.3346 2.84849 14.4822 3.20079 14.4837 3.56869V4.30473H2.19568V2.18354H13.0893ZM3.59009 9.96699C3.22074 9.96547 2.86696 9.81844 2.60579 9.55792C2.34462 9.2974 2.19721 8.94449 2.19568 8.57606V5.99703H14.4837V9.96699H3.59009Z" fill="currentColor"/>
<path d="M18.0338 6.65191H20.4159V9.12083L19.922 8.61082C19.868 8.5565 19.8038 8.51338 19.733 8.48396C19.6622 8.45454 19.5862 8.43939 19.5095 8.43939C19.4328 8.43939 19.3569 8.45454 19.2861 8.48396C19.2153 8.51338 19.151 8.5565 19.097 8.61082C18.9888 8.71941 18.9281 8.8663 18.9281 9.01941C18.9281 9.17252 18.9888 9.31941 19.097 9.428L20.5902 10.958C20.6231 10.9883 20.6603 11.0137 20.7005 11.0334C20.7235 11.0521 20.7489 11.0677 20.7761 11.0797C20.8441 11.1087 20.9171 11.1244 20.991 11.1261C21.067 11.1252 21.142 11.1094 21.2118 11.0797C21.2736 11.0555 21.3291 11.0179 21.3745 10.9696L22.8677 9.43959C22.9755 9.32969 23.0352 9.18154 23.0336 9.02775C23.0319 8.87395 22.9691 8.72711 22.8589 8.61951C22.8044 8.56624 22.7398 8.5242 22.669 8.4958C22.5982 8.46741 22.5224 8.45321 22.4461 8.45402C22.2919 8.45565 22.1447 8.5183 22.0368 8.62821L21.5372 9.13822V6.07236C21.5372 5.91865 21.476 5.77123 21.367 5.66255C21.2581 5.55386 21.1103 5.4928 20.9562 5.4928H17.9931C17.839 5.4928 17.6912 5.55386 17.5823 5.66255C17.4733 5.77123 17.4121 5.91865 17.4121 6.07236C17.4121 6.22606 17.4733 6.37348 17.5823 6.48216C17.6912 6.59085 17.839 6.65191 17.9931 6.65191H18.0338Z" fill="currentColor"/>
<path d="M14.3674 18.0113C14.5863 17.9775 14.7838 17.8613 14.9194 17.6867C15.0426 17.5187 15.1078 17.3153 15.1053 17.1072C15.1148 16.9521 15.0889 16.797 15.0295 16.6534C14.9701 16.5099 14.8788 16.3816 14.7625 16.2784C14.4469 16.0496 14.0589 15.9426 13.6702 15.977H12.0435V20.1035H13.6993C14.0988 20.1293 14.4956 20.0212 14.8264 19.7963C14.9528 19.6965 15.0539 19.5684 15.1215 19.4224C15.1891 19.2764 15.2214 19.1167 15.2157 18.956C15.2175 18.7305 15.137 18.5121 14.9891 18.3416C14.8307 18.1577 14.6088 18.0398 14.3674 18.0113ZM12.7 16.5334H13.6238C14.1467 16.5334 14.4139 16.7362 14.4139 17.1419C14.4139 17.5476 14.1467 17.7215 13.6238 17.7215H12.7V16.5334ZM14.321 19.379C14.1502 19.4949 13.9462 19.5518 13.74 19.5413H12.7116V18.301H13.74C13.9462 18.2905 14.1502 18.3475 14.321 18.4633C14.3832 18.5223 14.4327 18.5934 14.4666 18.6721C14.5005 18.7508 14.5179 18.8355 14.5179 18.9212C14.5179 19.0068 14.5005 19.0916 14.4666 19.1703C14.4327 19.249 14.3832 19.32 14.321 19.379Z" fill="currentColor"/>
<path d="M17.6211 18.359L16.9065 18.2083C16.783 18.1917 16.6664 18.1416 16.5695 18.0634C16.5152 18.0063 16.4849 17.9306 16.4849 17.8519C16.4849 17.7731 16.5152 17.6974 16.5695 17.6403C16.6277 17.5759 16.7018 17.5279 16.7845 17.5012C16.8973 17.4665 17.0151 17.4508 17.1331 17.4549C17.3014 17.4559 17.4668 17.4977 17.6153 17.5766C17.7689 17.6591 17.8913 17.7893 17.9639 17.9475L18.4287 17.5592C18.3079 17.3549 18.1303 17.1898 17.9174 17.084C17.6665 16.9684 17.3919 16.9129 17.1157 16.9217C16.8766 16.9179 16.6392 16.9633 16.4185 17.055C16.2428 17.1323 16.0906 17.2542 15.9769 17.4085C15.8789 17.5477 15.8261 17.7136 15.8259 17.8838C15.8207 17.9898 15.8371 18.0958 15.874 18.1954C15.911 18.295 15.9677 18.3861 16.0408 18.4633C16.2407 18.641 16.4898 18.7542 16.7554 18.7879L17.412 18.927C17.5228 18.9416 17.6263 18.9902 17.7083 19.0661C17.7613 19.1226 17.7904 19.1973 17.7896 19.2747C17.7896 19.3327 17.7739 19.3897 17.7443 19.4396C17.7146 19.4896 17.6721 19.5307 17.6211 19.5587C17.4789 19.6297 17.321 19.6636 17.1622 19.6572C16.9443 19.6642 16.7289 19.61 16.5405 19.5007C16.3715 19.4055 16.2327 19.2649 16.1396 19.095L15.6748 19.4949C15.8308 19.7167 16.0434 19.8928 16.2907 20.0049C16.5604 20.1277 16.8541 20.1891 17.1505 20.1846C17.3906 20.1903 17.6294 20.1489 17.8535 20.0629C18.0334 19.9901 18.1887 19.8674 18.3009 19.7094C18.4006 19.548 18.4474 19.3595 18.4345 19.1704C18.4388 18.9831 18.3724 18.8011 18.2486 18.6604C18.078 18.4943 17.8577 18.3885 17.6211 18.359Z" fill="currentColor"/>
</svg>
