<svg width="24" height="24" viewBox="0 0 24 24" fill="none" xmlns="http://www.w3.org/2000/svg">
<path d="M22.4211 9.70258H19.8158C19.4974 9.70258 19.2368 9.9631 19.2368 10.2815V11.6421H11.2821V3.14889C11.2821 2.83047 11.0216 2.56995 10.7032 2.56995C5.35369 2.56995 1 6.90047 1 12.221C1 14.2068 1.60211 16.1173 2.74264 17.7384C2.85264 17.9005 3.0321 17.9873 3.21736 17.9873C3.33315 17.9873 3.44894 17.9526 3.54736 17.8831C3.80789 17.6978 3.87159 17.3389 3.68632 17.0784C2.79475 15.8105 2.27948 14.3399 2.18106 12.8057H19.2253C19.1268 14.3747 18.6116 15.8684 17.7142 17.1594C17.5289 17.4199 17.5926 17.7847 17.8589 17.9642C17.9574 18.0336 18.0732 18.0684 18.1889 18.0684C18.3742 18.0684 18.5537 17.9815 18.6637 17.8194C19.8042 16.1868 20.4005 14.2705 20.4005 12.2731C20.4005 12.2557 20.3947 12.2442 20.3947 12.2326V10.8605H22.4211C22.7395 10.8605 23 10.5999 23 10.2815C23 9.9631 22.7453 9.70258 22.4211 9.70258ZM10.1242 3.74521V11.6421H2.18684C2.47631 7.42153 5.87474 4.03468 10.1242 3.74521Z" fill="currentColor"/>
<path d="M7.22925 16.1173C5.71241 16.1173 4.47925 17.3447 4.47925 18.8557C4.47925 20.3668 5.71241 21.5942 7.22925 21.5942C8.74609 21.5942 9.97925 20.3668 9.97925 18.8557C9.97925 17.3447 8.74609 16.1173 7.22925 16.1173ZM7.22925 20.4363C6.34925 20.4363 5.63714 19.7299 5.63714 18.8557C5.63714 17.9873 6.34925 17.2752 7.22925 17.2752C8.10925 17.2752 8.82135 17.9815 8.82135 18.8557C8.82135 19.7299 8.10925 20.4363 7.22925 20.4363Z" fill="currentColor"/>
<path d="M13.9395 16.1173C12.4226 16.1173 11.1895 17.3447 11.1895 18.8557C11.1895 20.3668 12.4226 21.5942 13.9395 21.5942C15.4563 21.5942 16.6895 20.3668 16.6895 18.8557C16.6895 17.3447 15.4563 16.1173 13.9395 16.1173ZM13.9395 20.4363C13.0595 20.4363 12.3473 19.7299 12.3473 18.8557C12.3473 17.9873 13.0595 17.2752 13.9395 17.2752C14.8195 17.2752 15.5316 17.9815 15.5316 18.8557C15.5316 19.7299 14.8195 20.4363 13.9395 20.4363Z" fill="currentColor"/>
</svg>
