<svg width="24" height="24" viewBox="0 0 24 24" fill="none" xmlns="http://www.w3.org/2000/svg">
<path d="M23 10.7964C23 9.9567 22.4614 9.2502 21.7144 8.97802C21.8708 8.70005 21.9692 8.38155 21.9692 8.03988C21.9692 7.16544 21.3843 6.42998 20.5794 6.18676C20.7126 5.92037 20.7994 5.62503 20.7994 5.31232C20.7994 4.24099 19.9308 3.36654 18.8536 3.36654H12.1245C11.0474 3.36654 9.98763 3.54607 8.9742 3.88773V2.90906C8.9742 2.59055 8.71361 2.32996 8.3951 2.32996H1.5791C1.26059 2.32996 1 2.59055 1 2.90906V13.4197C1 15.3307 2.55778 16.8885 4.46881 16.8885H8.38931C8.70782 16.8885 8.96841 16.6279 8.96841 16.3094V15.5566L9.49539 15.8925C10.2714 16.3847 10.891 17.1781 11.2327 18.1278L12.6341 21.9788C12.721 22.2162 12.941 22.361 13.1785 22.361C13.2364 22.361 13.3001 22.3494 13.358 22.3321L13.8386 22.1699C15.518 21.614 16.462 19.6335 15.9466 17.7514L15.4427 15.9156H19.8034C20.8747 15.9156 21.7491 14.9485 21.7491 13.7672C21.7491 13.3734 21.6449 13.0143 21.4828 12.6958C22.3456 12.4989 23 11.723 23 10.7964ZM7.81021 15.7303H4.46881C3.19479 15.7303 2.1582 14.6937 2.1582 13.4197V3.48816H7.81021V15.7303ZM21.06 11.5782H16.7168C16.3983 11.5782 16.1377 11.8388 16.1377 12.1573C16.1377 12.1631 16.1435 12.1689 16.1435 12.1747C16.1435 12.1804 16.1377 12.1862 16.1377 12.192C16.1377 12.5105 16.3983 12.7711 16.7168 12.7711H19.8034C20.2377 12.7711 20.5909 13.217 20.5909 13.7614C20.5909 14.3057 20.2377 14.7516 19.8034 14.7516H14.6841C14.5046 14.7516 14.3309 14.8385 14.2208 14.9775C14.1108 15.1223 14.0761 15.3076 14.1224 15.4813L14.8289 18.0525C15.1764 19.3092 14.5799 20.6643 13.5259 21.0465L12.3156 17.7224C11.8813 16.5295 11.0995 15.5276 10.1034 14.9022L8.95683 14.1783V5.10964L9.17689 5.02856C10.1208 4.69268 11.1053 4.51895 12.1129 4.51895H18.8536C19.288 4.51895 19.6412 4.8722 19.6412 5.30653C19.6412 5.74085 19.288 6.0941 18.8536 6.0941H16.711C16.3925 6.0941 16.1319 6.3547 16.1319 6.6732C16.1319 6.99171 16.3925 7.2523 16.711 7.2523H18.8536H20.0234C20.4578 7.2523 20.811 7.60555 20.811 8.03988C20.811 8.4742 20.4578 8.82746 20.0234 8.82746H16.711C16.3925 8.82746 16.1319 9.08805 16.1319 9.40656C16.1319 9.41235 16.1377 9.41814 16.1377 9.42393C16.1377 9.42972 16.1319 9.43551 16.1319 9.4413C16.1319 9.75981 16.3925 10.0204 16.711 10.0204H21.0542C21.4885 10.0204 21.8418 10.3737 21.8418 10.808C21.8418 11.2423 21.4886 11.5782 21.06 11.5782Z" fill="currentColor"/>
</svg>
