<svg width="24" height="24" viewBox="0 0 24 24" fill="none" xmlns="http://www.w3.org/2000/svg">
<path d="M14.9297 7.33315L17.2801 2.39515C17.3359 2.27721 17.3504 2.14384 17.3209 2.01669C17.2915 1.88954 17.22 1.77607 17.118 1.69468C16.6461 1.34574 16.0911 1.12635 15.5082 1.05831C14.9252 0.990266 14.3347 1.07594 13.7951 1.30682C12.3826 2.04202 11.85 1.79888 11.1148 1.45733C10.6063 1.18772 10.0454 1.03169 9.47072 1H9.36652C8.80443 1.00133 8.24893 1.12111 7.73623 1.35152C7.22354 1.58193 6.76516 1.91781 6.39098 2.33725C6.31985 2.42598 6.27643 2.53368 6.26614 2.64693C6.25584 2.76018 6.27913 2.87395 6.33308 2.97405L8.64868 7.31578C6.2941 8.94327 4.47975 11.2374 3.43859 13.9036C2.20554 17.0644 2.10713 19.4958 3.14336 21.1341C3.48054 21.6523 3.92966 22.0882 4.45765 22.4098C4.98563 22.7314 5.57904 22.9305 6.19415 22.9923H16.9617C17.6476 23.0341 18.3332 22.9047 18.9567 22.6156C19.5802 22.3266 20.122 21.8871 20.5335 21.3367C21.6913 19.6926 21.7202 16.9197 20.6319 13.921C19.4799 10.7197 16.1223 8.16097 14.9297 7.33315ZM9.44177 2.1578C9.84897 2.189 10.2443 2.30957 10.5996 2.51092C11.4332 2.893 12.3826 3.33295 14.2582 2.36041C14.5319 2.24019 14.8276 2.17811 15.1266 2.17811C15.4255 2.17811 15.7212 2.24019 15.9949 2.36041L13.8298 6.96844H9.77754L7.54877 2.81774C8.07453 2.36789 8.7503 2.1323 9.44177 2.1578ZM19.5956 20.6825C19.29 21.0791 18.8898 21.3929 18.4318 21.5951C17.9737 21.7973 17.4723 21.8816 16.9732 21.8403H6.25204C5.82077 21.7891 5.40615 21.6432 5.03786 21.413C4.66957 21.1828 4.35672 20.8741 4.1217 20.5089C3.31703 19.2121 3.45597 17.076 4.52114 14.3436C5.52069 11.789 7.29895 9.61373 9.60387 8.12624H14.0209C14.7734 8.62988 18.4263 11.2176 19.5551 14.332C20.2845 16.364 20.6956 19.1253 19.5956 20.6767V20.6825Z" fill="currentColor"/>
<path d="M11.2832 15.6172C11.5906 15.5787 11.8729 15.428 12.0759 15.194C12.2789 14.96 12.3883 14.6592 12.3831 14.3494C12.3949 14.1311 12.3562 13.913 12.2698 13.7122C12.1835 13.5114 12.0518 13.3332 11.8852 13.1916C11.4337 12.8834 10.8905 12.7384 10.3454 12.7806H7.82715V18.5464H10.4438C10.9974 18.5846 11.5478 18.4358 12.0068 18.1238C12.1815 17.9874 12.321 17.811 12.4137 17.6096C12.5063 17.4082 12.5494 17.1875 12.5394 16.966C12.5464 16.6468 12.4327 16.3367 12.221 16.0977C11.9775 15.8285 11.6439 15.6576 11.2832 15.6172ZM8.99653 13.7011H10.1891C10.8201 13.7011 11.1384 13.95 11.1384 14.4421C11.1384 14.9341 10.8201 15.183 10.1891 15.183H8.99653V13.7011ZM11.0516 17.4118C10.8405 17.5592 10.5847 17.6288 10.328 17.6086H8.99653V16.1035H10.328C10.5837 16.0853 10.8382 16.1525 11.0516 16.2945C11.1341 16.3651 11.1983 16.4546 11.2387 16.5555C11.279 16.6563 11.2943 16.7654 11.2832 16.8734C11.2828 16.9707 11.262 17.0669 11.2221 17.1556C11.1822 17.2444 11.1241 17.3238 11.0516 17.3886V17.4118Z" fill="currentColor"/>
<path d="M15.856 15.9761L14.9645 15.7909C14.8079 15.7656 14.6581 15.7085 14.5245 15.623C14.4856 15.5954 14.4537 15.559 14.4315 15.5168C14.4094 15.4745 14.3976 15.4276 14.3972 15.3798C14.3978 15.2948 14.4285 15.2127 14.484 15.1483C14.5613 15.0826 14.6523 15.0351 14.7503 15.0093C14.886 14.972 15.0264 14.9545 15.1671 14.9572C15.3926 14.9573 15.6148 15.0109 15.8155 15.1135C16.0194 15.2238 16.191 15.3855 16.3133 15.5824L17.0312 14.8878C16.8398 14.6162 16.5746 14.4053 16.267 14.2799C15.8993 14.133 15.505 14.064 15.1092 14.0773C14.7441 14.0649 14.3806 14.132 14.044 14.2741C13.7867 14.3782 13.5653 14.5553 13.4073 14.7836C13.2689 14.9781 13.1941 15.2106 13.1931 15.4493C13.1866 15.6009 13.2115 15.7521 13.2663 15.8936C13.3211 16.0351 13.4046 16.1637 13.5115 16.2713C13.8171 16.53 14.1911 16.6948 14.5882 16.746L15.3524 16.9023C15.4918 16.9215 15.6237 16.9774 15.7344 17.0644C15.7972 17.1298 15.8325 17.2169 15.8328 17.3076C15.8344 17.3755 15.8153 17.4423 15.7781 17.4991C15.7409 17.556 15.6873 17.6002 15.6244 17.626C15.4523 17.6979 15.2666 17.7314 15.0803 17.7244C14.8083 17.7318 14.539 17.6704 14.2971 17.5459C14.0552 17.4215 13.8487 17.2379 13.6967 17.0123L13.0078 17.707C13.243 17.9978 13.5476 18.2248 13.8935 18.3669C14.2744 18.5276 14.6843 18.6084 15.0976 18.6043C15.4602 18.6151 15.821 18.55 16.157 18.4133C16.4194 18.3097 16.6465 18.1329 16.8112 17.9038C16.9573 17.6824 17.0339 17.4223 17.0312 17.1571C17.0363 16.882 16.937 16.6151 16.7533 16.4103C16.5053 16.1777 16.1923 16.0263 15.856 15.9761Z" fill="currentColor"/>
</svg>
