<svg width="24" height="24" viewBox="0 0 24 24" fill="none" xmlns="http://www.w3.org/2000/svg">
<path d="M14.912 7.33299L17.2275 2.39511C17.2841 2.2778 17.2994 2.14484 17.271 2.01774C17.2427 1.89064 17.1723 1.77681 17.0712 1.69466C16.5994 1.34573 16.0444 1.12635 15.4615 1.05831C14.8786 0.990267 14.288 1.07594 13.7484 1.30681C12.336 2.04199 11.8034 1.79886 11.0682 1.45731C10.5598 1.18771 9.99883 1.03169 9.42418 1H9.3142C8.76075 1.00752 8.21494 1.13032 7.7116 1.36056C7.20826 1.5908 6.75844 1.92343 6.39083 2.33722C6.31971 2.42594 6.27629 2.53365 6.26599 2.64689C6.2557 2.76013 6.27899 2.8739 6.33294 2.974L8.64848 7.31562C6.29396 8.94307 4.47965 11.2372 3.43853 13.9033C2.2055 17.064 2.10709 19.4953 3.1375 21.1336C3.47498 21.6515 3.92417 22.0872 4.45208 22.4087C4.98 22.7303 5.57323 22.9295 6.18822 22.9918H16.9555C17.6416 23.0351 18.3277 22.9064 18.9514 22.6173C19.5752 22.3281 20.1168 21.8878 20.5272 21.3362C21.6849 19.6922 21.7197 16.9193 20.6314 13.9207C19.462 10.7195 16.1045 8.16079 14.912 7.33299ZM9.4184 2.15777C9.83733 2.18465 10.2449 2.30533 10.6109 2.51089C11.4445 2.89295 12.3881 3.3329 14.2637 2.36037C14.5374 2.24015 14.833 2.17808 15.132 2.17808C15.4309 2.17808 15.7266 2.24015 16.0003 2.36037L13.8063 6.96829H9.75415L7.5486 2.81769C8.0695 2.37526 8.73518 2.14031 9.4184 2.15777ZM19.5778 20.6821C19.2709 21.0787 18.8697 21.3924 18.4107 21.5945C17.9517 21.7967 17.4495 21.8811 16.9497 21.8398H6.22875C5.79839 21.7882 5.38477 21.642 5.01749 21.4119C4.65021 21.1817 4.33836 20.8732 4.10424 20.5084C3.29959 19.2117 3.43852 17.0756 4.50367 14.3433C5.50113 11.7875 7.27982 9.61173 9.58627 8.12606H13.9974C14.7499 8.62969 18.4027 11.2173 19.5315 14.3317C20.284 16.3636 20.6777 19.1248 19.5778 20.6763V20.6821Z" fill="currentColor"/>
<path d="M12.278 14.6268C11.8996 14.5196 11.547 14.3365 11.2418 14.0885C11.1536 13.9999 11.0848 13.894 11.04 13.7773C10.9951 13.6607 10.9751 13.536 10.9813 13.4112C10.9662 13.1422 11.0577 12.878 11.236 12.676C11.3394 12.5797 11.4618 12.5062 11.5955 12.4603C11.7291 12.4145 11.8709 12.3972 12.0117 12.4097C12.157 12.4026 12.3018 12.4317 12.4332 12.4944C12.5645 12.557 12.6782 12.6512 12.7642 12.7686C12.9664 13.0665 13.066 13.4221 13.0479 13.7817V13.9148H14.3156V13.7701C14.3439 13.1694 14.1708 12.5765 13.8236 12.0855C13.5108 11.6869 13.061 11.4187 12.5616 11.333V10.21H11.4849V11.3272C11.0032 11.395 10.5585 11.6235 10.2229 11.9755C9.87459 12.3729 9.69222 12.889 9.7135 13.417C9.70512 13.6868 9.75216 13.9555 9.85173 14.2064C9.9513 14.4573 10.1013 14.6851 10.2924 14.8758C10.7412 15.2806 11.2815 15.5706 11.8669 15.7209C12.2311 15.8229 12.5688 16.0026 12.8568 16.2477C13.0368 16.4387 13.1341 16.693 13.1276 16.9553C13.1211 17.2176 13.0113 17.4668 12.8221 17.6486C12.5634 17.8446 12.2429 17.9411 11.919 17.9207C11.6075 17.9334 11.3023 17.8303 11.0623 17.6312C10.938 17.5016 10.8436 17.3463 10.7856 17.1763C10.7276 17.0063 10.7075 16.8257 10.7265 16.6471V16.5024H9.63245H9.52826L9.48773 16.595V16.6471C9.46117 16.9519 9.49898 17.2589 9.59871 17.5481C9.69844 17.8373 9.85785 18.1023 10.0666 18.3259C10.4426 18.6801 10.9206 18.9069 11.4328 18.9743V19.941H12.4979V19.009C13.0085 18.952 13.4873 18.7329 13.8641 18.3838C14.0558 18.1912 14.2061 17.9614 14.3056 17.7085C14.4052 17.4556 14.4519 17.185 14.443 16.9134C14.4559 16.6501 14.4148 16.3869 14.3222 16.14C14.2296 15.8931 14.0875 15.6677 13.9046 15.4778C13.4392 15.0667 12.881 14.7747 12.278 14.6268Z" fill="currentColor"/>
</svg>
