<svg width="24" height="25" viewBox="0 0 24 25" fill="none" xmlns="http://www.w3.org/2000/svg">
<path d="M22.9711 11.6325C22.9305 10.417 22.6932 9.25362 22.2879 8.16548C21.7495 6.57958 21.1184 5.8503 21.0779 5.804C21.0721 5.79821 21.0721 5.79821 21.0663 5.79242C19.6653 3.74928 17.5868 2.20389 15.1611 1.46882C15.1437 1.46303 15.1263 1.45146 15.1032 1.44567C15.0453 1.43409 14.9989 1.42252 14.9411 1.41094C14.0032 1.15049 13.0132 1 11.9942 1C11.8032 1 11.6121 1.01736 11.4211 1.02894C9.77105 1.06366 8.87948 1.43989 8.78684 1.4804C6.37842 2.21547 4.31737 3.76085 2.92211 5.79242C2.91632 5.79821 2.91632 5.79821 2.91053 5.804C2.87 5.8503 2.23316 6.57958 1.70053 8.16548C1.29526 9.25362 1.05789 10.417 1.01737 11.6325C1.01158 11.7019 1.00579 11.7656 1 11.835C1 11.8582 1.00579 11.8871 1.00579 11.9103C1.00579 11.9392 1 11.974 1 12.0029C1 14.4454 1.81053 16.6969 3.16527 18.5259C3.17106 18.5433 3.17684 18.5606 3.18842 18.578C3.21737 18.6301 3.68053 19.4346 4.94263 20.4244C5.87474 21.2057 6.94 21.8308 8.09211 22.2707C8.15 22.2997 8.2079 22.3228 8.26579 22.3518C8.29474 22.3633 8.32947 22.3633 8.35842 22.3691C9.49895 22.7743 10.7205 23 12 23C13.2795 23 14.5011 22.7685 15.6416 22.3691C15.6705 22.3633 15.7053 22.3633 15.7342 22.3518C15.7979 22.3228 15.85 22.2997 15.9079 22.2707C17.06 21.8308 18.1253 21.2057 19.0574 20.4244C20.3195 19.4288 20.7826 18.6301 20.8116 18.578C20.8232 18.5606 20.8232 18.5433 20.8347 18.5259C22.1895 16.6969 23 14.4454 23 12.0029C23 11.974 22.9942 11.9392 22.9942 11.9103C22.9942 11.8871 23 11.8582 23 11.835C22.9826 11.7656 22.9768 11.7019 22.9711 11.6325ZM20.0068 17.6924L16.8342 17.4551L15.3926 15.3483L16.9037 10.7006L18.9011 10.3475L21.8305 12.1881C21.7842 14.237 21.1184 16.1297 20.0068 17.6924ZM7.14842 17.4551L3.97579 17.6924C2.86421 16.1297 2.19842 14.237 2.15789 12.1939L5.08737 10.3533L7.08474 10.7064L8.59579 15.3541L7.14842 17.4551ZM9.64948 14.8564L8.20211 10.4054L11.9884 7.65614L15.7747 10.4054L14.3274 14.8564H9.64948ZM19.9779 6.27282L18.7216 9.20153L16.5968 9.57774L12.5674 6.64904V4.82584L15.0916 2.67272C17.0774 3.33254 18.7795 4.61168 19.9779 6.27282ZM8.88526 2.67272L11.4095 4.83162V6.65483L7.38 9.58353L5.25526 9.20732L3.99895 6.27861C5.20316 4.61168 6.89948 3.33254 8.88526 2.67272ZM8.97211 21.362L8.17895 17.9992L9.53369 16.0197H14.4432L15.7979 17.9992L15.0047 21.3678C14.0553 21.6746 13.0363 21.8482 11.9826 21.8482C10.9289 21.8482 9.92158 21.6688 8.97211 21.362Z" fill="currentColor"/>
</svg>
