<svg width="25" height="24" viewBox="0 0 25 24" fill="none" xmlns="http://www.w3.org/2000/svg">
<g clip-path="url(#clip0_1_3388)">
<path d="M7.02344 11.5939C7.16103 11.5983 7.21142 11.666 7.21191 11.8263C7.21336 12.3369 7.21191 12.848 7.21191 13.3586H7.20801L7.21582 14.0695C7.2177 14.3067 7.21692 14.5439 7.20508 14.7804C7.17367 15.4296 7.09105 16.0742 6.84375 16.6847C6.7317 16.9619 6.58359 17.2214 6.37598 17.4386C6.05429 17.7738 5.66388 17.9068 5.20117 17.8058C4.94437 17.7498 4.79099 17.581 4.69922 17.3488C4.59056 17.0735 4.60034 16.7876 4.66406 16.506C4.76116 16.0756 4.98557 15.7052 5.27637 15.382C5.53138 15.099 5.81801 14.8435 6.0957 14.5812C6.153 14.5268 6.18782 14.476 6.18457 14.3957C6.18023 14.262 6.18359 14.128 6.18359 13.9943V11.9328C6.18358 11.8846 6.18074 11.835 6.18652 11.7873C6.19921 11.6678 6.26466 11.5973 6.38477 11.5939C6.59779 11.5876 6.81089 11.5867 7.02344 11.5939ZM6.07129 15.216C5.76949 15.4922 5.50412 15.7981 5.30371 16.1584C5.19865 16.3479 5.14169 16.5487 5.10742 16.7589C5.08472 16.9009 5.10424 17.0387 5.16797 17.1672C5.24526 17.3241 5.41296 17.3937 5.58203 17.3449C5.72287 17.3029 5.83462 17.2187 5.89453 17.0861C5.96403 16.9326 6.03213 16.7736 6.07031 16.6105C6.14999 16.2667 6.16405 15.9132 6.16406 15.5607V15.1535L6.07129 15.216ZM9.10254 11.5851C9.60335 11.4663 10.092 11.4927 10.5518 11.7375C10.7798 11.8587 10.9633 12.0339 11.0957 12.2619C11.3236 12.6569 11.4304 13.0795 11.4062 13.5451L11.4111 13.6867C11.4126 14.0159 11.347 14.3416 11.2109 14.6535C10.9781 15.1852 10.5718 15.4929 10 15.5871C9.63868 15.647 9.28581 15.6321 8.94043 15.506C8.42122 15.3157 8.10331 14.932 7.94922 14.4172C7.77003 13.8211 7.77526 13.2178 7.98242 12.6261C8.17226 12.0866 8.53157 11.7199 9.10254 11.5851ZM15.4463 11.5304C15.5774 11.5547 15.6507 11.6477 15.6406 11.7755C15.615 12.09 15.5986 12.4059 15.5537 12.7179C15.4668 13.3278 15.3165 13.9218 15.0264 14.4699C14.8462 14.81 14.6366 15.13 14.3066 15.3507C14.0526 15.5193 13.776 15.6145 13.4697 15.6213C13.205 15.627 12.9934 15.5199 12.8379 15.3166C12.7501 15.2027 12.6915 15.067 12.6191 14.9406C12.608 14.9208 12.5964 14.8996 12.5713 14.8566L12.3262 15.1349C12.276 15.1861 12.2209 15.2364 12.1592 15.2736C12.0771 15.3228 11.9896 15.3011 11.9316 15.2316C11.8804 15.1698 11.8745 15.0853 11.9229 15.0109C11.9426 14.9811 11.9749 14.9597 11.9951 14.9298C12.1294 14.7357 12.2665 14.5429 12.3926 14.3429C12.4245 14.2922 12.4306 14.2153 12.4268 14.1525C12.4084 13.8314 12.3546 13.5098 12.3662 13.1906C12.3826 12.7375 12.3719 12.278 12.4883 11.8322C12.5443 11.6156 12.5744 11.5929 12.8037 11.592C12.9494 11.591 13.0955 11.5891 13.2412 11.592C13.4377 11.5949 13.4935 11.6476 13.4902 11.84C13.482 12.338 13.4532 12.8366 13.4619 13.3341C13.4687 13.7394 13.4861 14.148 13.5996 14.5431C13.6257 14.6354 13.6612 14.7286 13.7119 14.8088C13.7838 14.9225 13.854 14.9341 13.9775 14.8781C14.1727 14.7897 14.3206 14.6462 14.4355 14.4709C14.6131 14.2 14.7348 13.9042 14.8145 13.589C14.9652 12.992 15.0465 12.3856 15.0537 11.7697C15.0562 11.6105 15.1246 11.5377 15.2822 11.5255C15.3363 11.5217 15.3936 11.5208 15.4463 11.5304ZM17.2588 11.5734C17.5525 11.4797 17.8478 11.4957 18.1289 11.6281C18.3225 11.7189 18.4319 11.8837 18.4961 12.0822C18.5583 12.2704 18.5695 12.4609 18.541 12.6574C18.4555 13.2375 18.2461 13.7716 17.9355 14.2668C17.8361 14.4255 17.7267 14.5784 17.6123 14.7482C17.7949 14.9974 18.0401 15.1445 18.3535 15.173C18.6501 15.2 18.9332 15.1328 19.208 15.0275C19.3672 14.9667 19.3677 14.9647 19.3682 14.7902V11.8507C19.3769 11.6607 19.4461 11.5929 19.6387 11.591C19.809 11.5886 19.979 11.5881 20.1494 11.591C20.3349 11.5939 20.3844 11.6423 20.3975 11.8263C20.4004 11.8615 20.4064 11.8962 20.415 11.9689L20.5684 11.8468C20.991 11.501 21.467 11.4409 21.9756 11.5998C22.2345 11.6804 22.3898 11.8803 22.4531 12.1339C22.5057 12.344 22.5377 12.5641 22.543 12.7804C22.557 13.3701 22.5633 13.9608 22.5498 14.55C22.5397 14.9673 22.7905 15.1962 23.1914 15.1779C23.4328 15.1668 23.6573 15.1053 23.8838 15.0343C23.9297 15.0198 23.9756 14.9981 24.0225 14.9894C24.1092 14.9718 24.1932 15.0199 24.2305 15.0998C24.2667 15.1775 24.2536 15.2518 24.1787 15.3117C24.1271 15.3527 24.0686 15.392 24.0068 15.4113C23.4687 15.5857 22.9206 15.6696 22.3555 15.5783C22.2662 15.5638 22.1763 15.5427 22.0918 15.5109C21.7659 15.3887 21.6095 15.1321 21.5684 14.8029C21.5394 14.5686 21.5268 14.3306 21.5234 14.0939C21.5152 13.6014 21.5224 13.1084 21.5137 12.6164C21.5113 12.5035 21.4834 12.3866 21.4443 12.2804C21.3762 12.0935 21.2093 12.0125 21.0156 12.0685C20.7815 12.1366 20.5887 12.2749 20.4463 12.4718C20.4081 12.5245 20.4004 12.6079 20.3994 12.6769C20.3965 13.5105 20.3984 14.3443 20.3984 15.1779C20.3984 15.2262 20.3994 15.2756 20.3965 15.3244C20.3882 15.458 20.3252 15.5266 20.1934 15.5304C19.9932 15.5353 19.792 15.5424 19.5928 15.5275C19.5126 15.5212 19.4357 15.4586 19.3291 15.4084C18.9669 15.5397 18.5559 15.6221 18.1338 15.6164C17.715 15.6111 17.3116 15.5277 16.9609 15.2775C16.6448 15.4174 16.3218 15.4943 15.9844 15.5011C15.6023 15.5084 15.2312 15.4603 14.8975 15.255C14.8531 15.2271 14.8016 15.192 14.7812 15.1476C14.7257 15.0254 14.8349 14.8935 14.9688 14.9162C15.0397 14.9283 15.1068 14.9608 15.1758 14.9826C15.4559 15.0729 15.741 15.1317 16.0361 15.1095C16.2303 15.095 16.4167 15.0469 16.5684 14.9513C16.466 14.7228 16.3464 14.5153 16.2773 14.2912C16.062 13.5933 16.1027 12.9081 16.4648 12.2638C16.6441 11.9455 16.8979 11.6884 17.2588 11.5734ZM10.127 12.2629C9.96557 12.0007 9.59223 11.7932 9.23535 12.1457C9.10155 12.2775 9.02293 12.442 8.97559 12.6193C8.89114 12.9369 8.85197 13.2613 8.84277 13.5929C8.87176 13.8461 8.89059 14.1015 8.93262 14.3517C8.96502 14.5491 9.03894 14.7384 9.15527 14.9045C9.27699 15.0783 9.44044 15.1928 9.66211 15.1691C9.87544 15.1468 10.0305 15.0225 10.1338 14.8371C10.2565 14.6173 10.3163 14.3764 10.3555 14.1291C10.4163 13.7422 10.4042 13.3539 10.3525 12.9689C10.3197 12.7212 10.2597 12.4796 10.127 12.2629ZM17.9775 12.1984C17.8916 12.011 17.6954 11.9559 17.5225 12.0646C17.4627 12.1017 17.4023 12.1503 17.3604 12.2072C17.198 12.4265 17.0998 12.6759 17.0742 12.9455C17.0467 13.2371 17.0557 13.5293 17.1406 13.8127C17.1865 13.9662 17.2088 14.1302 17.3203 14.2785L17.4189 14.1632C17.66 13.8097 17.8489 13.4283 17.9648 13.0168C18.0155 12.8387 18.027 12.6474 18.0371 12.4611C18.0419 12.3747 18.0142 12.279 17.9775 12.1984ZM6.71875 9.88981C7.00662 9.8927 7.21285 10.0975 7.21289 10.38C7.2525 10.6776 6.91904 10.884 6.70215 10.8849C6.42653 10.8847 6.19237 10.6489 6.19141 10.3722C6.19005 10.0971 6.42043 9.88609 6.71875 9.88981ZM8.35352 5.46696C8.68537 5.43024 9.02161 5.43724 9.34863 5.53434C9.90111 5.69813 10.2282 6.07158 10.373 6.61832C10.4266 6.81968 10.4453 7.02349 10.4424 7.2316C10.438 7.62722 10.439 8.02251 10.4434 8.41813C10.4448 8.52 10.4583 8.62482 10.4824 8.72379C10.5366 8.94494 10.7139 9.09012 10.9395 9.10172C11.1399 9.1109 11.3411 9.11583 11.5459 9.02067V5.79606C11.5523 5.59404 11.6226 5.52168 11.8203 5.51969C11.9841 5.51824 12.1488 5.51824 12.3135 5.51969C12.5205 5.52213 12.569 5.56896 12.584 5.77555C12.5864 5.80496 12.5889 5.83402 12.5938 5.89078C12.6516 5.84833 12.6943 5.82106 12.7324 5.78922C13.1391 5.44971 13.5974 5.37773 14.1006 5.51383C14.3885 5.5916 14.5579 5.79021 14.6328 6.06168C14.6859 6.25248 14.7154 6.45544 14.7207 6.65446C14.7366 7.26156 14.7359 7.87011 14.7422 8.4777C14.7422 8.52649 14.7393 8.57636 14.7432 8.62418C14.7612 8.89976 14.9202 9.06211 15.2061 9.09977C15.4677 9.13398 15.7266 9.08826 15.9795 8.98356C15.908 8.84782 15.8357 8.71747 15.7705 8.58414C15.6372 8.31369 15.5745 8.0237 15.5586 7.72379C15.5383 7.32052 15.5588 6.92173 15.7051 6.53922C15.9263 5.96391 16.326 5.581 16.9404 5.47086C17.1577 5.43185 17.3893 5.45445 17.6133 5.47086C17.7629 5.48202 17.9119 5.52504 18.0576 5.56461C18.1386 5.58682 18.2167 5.62424 18.2891 5.66715C18.3765 5.7198 18.402 5.81557 18.3691 5.90446C18.3362 5.99122 18.2503 6.04585 18.1494 6.02848C18.0664 6.01398 17.9864 5.98136 17.9043 5.95914C17.8049 5.93259 17.7068 5.89794 17.6055 5.88395C17.2351 5.83426 16.9675 5.94477 16.7607 6.3693C16.6436 6.61249 16.601 6.88082 16.5918 7.14762C16.5788 7.51764 16.5702 7.89084 16.6494 8.25699C16.6905 8.44766 16.7391 8.63391 16.8496 8.79996C16.9853 9.00357 17.1723 9.10123 17.416 9.1066C17.6762 9.11288 17.9193 9.03264 18.165 8.96793C18.2119 8.95586 18.2593 8.93665 18.3066 8.93375C18.408 8.92704 18.489 8.9875 18.5127 9.07828C18.5386 9.17566 18.5061 9.25559 18.4062 9.30094C18.0875 9.44681 17.7486 9.51253 17.4004 9.52848C16.9797 9.54828 16.7018 9.48571 16.3203 9.28629C15.947 9.4582 15.5389 9.50833 15.127 9.54117C14.8884 9.56049 14.6537 9.53815 14.4209 9.48649C14.0108 9.3952 13.8007 9.12422 13.7461 8.72477C13.7176 8.51464 13.7031 8.3006 13.7002 8.08903C13.6934 7.5728 13.7006 7.05495 13.6924 6.53824C13.6899 6.42623 13.6607 6.30854 13.6201 6.20328C13.551 6.02234 13.3948 5.94606 13.207 5.99723C12.9704 6.06099 12.7777 6.19858 12.6318 6.39274C12.5961 6.44008 12.5869 6.51696 12.5869 6.58024C12.584 7.41959 12.585 8.25846 12.585 9.09782C12.585 9.15868 12.5868 9.22053 12.5781 9.28043C12.5621 9.39283 12.4987 9.45914 12.3848 9.45914C12.1429 9.45818 11.901 9.4459 11.6592 9.43961C11.6181 9.43816 11.5762 9.44266 11.5361 9.45231C11.1116 9.54938 10.6847 9.58663 10.252 9.50699C10.0444 9.46886 9.84895 9.4074 9.70117 9.25016C9.63164 9.1758 9.57827 9.08694 9.50586 8.98844C9.45533 9.03367 9.40207 9.07948 9.35059 9.12711C9.15457 9.30526 8.93645 9.44511 8.67578 9.50699C8.10338 9.64224 7.57984 9.43645 7.24219 8.92203C7.04945 8.62883 6.94287 8.30203 6.89746 7.95231C6.8366 7.48138 6.85233 7.0206 7.00879 6.56754C7.12565 6.22951 7.32018 5.9539 7.60938 5.74235C7.83297 5.5796 8.09033 5.49644 8.35352 5.46696ZM20.2832 5.45524C20.5634 5.44654 20.8413 5.45809 21.1133 5.54117C21.6738 5.71219 22.0023 6.09581 22.124 6.65446C22.1718 6.87231 22.1822 7.10023 22.1885 7.3234C22.1986 7.6881 22.1885 8.05392 22.1924 8.4191C22.1938 8.52098 22.2073 8.62578 22.2324 8.72379C22.2909 8.95559 22.4675 9.08821 22.7061 9.10465C22.9914 9.12444 23.2604 9.05525 23.5264 8.965C23.5664 8.9515 23.6065 8.93366 23.6475 8.92399C23.7493 8.89936 23.844 8.94254 23.876 9.02457C23.9131 9.11869 23.8762 9.22079 23.7793 9.26481C23.132 9.55898 22.4617 9.6344 21.7705 9.45328C21.5768 9.40353 21.4144 9.24737 21.2627 8.98942L21.0703 9.14957C21.0084 9.20072 20.9469 9.25001 20.8828 9.29508C20.5038 9.55955 20.0908 9.61854 19.6523 9.46891C19.3171 9.35491 19.0929 9.10975 18.9219 8.81364C18.712 8.4472 18.6283 8.04565 18.6143 7.62711C18.6022 7.25382 18.6368 6.88783 18.7666 6.53336C18.9994 5.89682 19.5275 5.47809 20.2832 5.45524ZM4.27734 3.78727C4.7618 3.78293 5.22242 3.86608 5.60352 4.19742C5.87977 4.43797 6.0157 4.74102 6.02246 5.11149C6.0297 5.45299 5.95325 5.76382 5.74121 6.03239C5.6664 6.1265 5.57077 6.20427 5.4834 6.28824C5.453 6.31719 5.41939 6.34241 5.37695 6.37809L5.49414 6.43961C5.90039 6.63477 6.14567 6.9599 6.25098 7.39078C6.37359 7.89258 6.31076 8.36871 6.02051 8.80289C5.78671 9.15311 5.44829 9.35821 5.04688 9.4611C4.72041 9.54557 4.38836 9.56476 4.05176 9.53434C3.65875 9.49861 3.26571 9.46858 2.88477 9.35563C2.85533 9.34694 2.82681 9.33645 2.79883 9.32535C2.57034 9.23551 2.55176 9.20844 2.55176 8.96305V4.38102C2.55176 4.12035 2.5846 4.07677 2.83691 3.98942C3.14404 3.88318 3.46595 3.85766 3.78516 3.82145C3.94843 3.80357 4.11311 3.7892 4.27734 3.78727ZM0.980469 8.215C1.21464 8.21502 1.39397 8.27048 1.52051 8.38102C1.64706 8.49211 1.7119 8.64837 1.71191 8.85074C1.71191 9.05314 1.64707 9.20889 1.52051 9.32047C1.39398 9.4309 1.21403 9.48647 0.980469 9.48649C0.746671 9.48649 0.566496 9.43109 0.439453 9.32047C0.312506 9.20938 0.25 9.05259 0.25 8.85074C0.250009 8.64903 0.312646 8.49209 0.439453 8.38102C0.566496 8.2704 0.746188 8.215 0.980469 8.215ZM3.74805 6.62614C3.67382 6.62478 3.63717 6.668 3.63379 6.73942C3.63186 6.77611 3.63184 6.81259 3.63184 6.84977V8.80094C3.63186 8.86071 3.63676 8.92083 3.63965 8.97867L3.75293 9.02555C3.86604 9.05975 3.98122 9.0595 4.09277 9.07145C4.60518 9.12357 4.9073 8.88017 5.0498 8.4943C5.16042 8.19577 5.17948 7.88792 5.16016 7.57828C5.15 7.4107 5.11664 7.24106 5.06738 7.08024C4.99634 6.84559 4.82014 6.71198 4.58398 6.65934C4.3077 6.59752 4.02675 6.63145 3.74805 6.62614ZM20.8486 6.08317C20.597 5.82428 20.2121 5.80739 19.9609 6.12321C19.8615 6.24779 19.7974 6.38909 19.752 6.54313C19.6293 6.95852 19.6358 7.38321 19.6436 7.80875C19.6474 8.04255 19.6878 8.27107 19.7627 8.48844C19.8086 8.62203 19.8884 8.75293 19.9824 8.85953C20.1094 9.00341 20.2758 9.05615 20.4775 9.00797C20.7051 8.95339 20.8885 8.83682 21.0537 8.67789C21.1242 8.61027 21.1567 8.53714 21.1543 8.43668C21.1485 8.1818 21.1523 7.92642 21.1523 7.67106V7.08805C21.1552 6.84856 21.1225 6.61388 21.0342 6.39176C20.9908 6.28127 20.9301 6.16719 20.8486 6.08317ZM9.09961 6.08121C8.84752 5.82534 8.45973 5.80185 8.21387 6.12711C8.13127 6.23628 8.05625 6.36437 8.02051 6.49528C7.84282 7.14586 7.83103 7.80323 8.00684 8.45719C8.04309 8.59286 8.12406 8.72553 8.21387 8.8361C8.34323 8.99712 8.51777 9.05801 8.7334 9.00699C8.95454 8.95436 9.13317 8.84023 9.2959 8.68961C9.37753 8.61377 9.41647 8.53019 9.41309 8.41715C9.40682 8.19857 9.41113 7.97949 9.41113 7.7609L9.41016 7.13981C9.40581 6.88429 9.38513 6.62892 9.28418 6.39078C9.23732 6.28065 9.18124 6.16526 9.09961 6.08121ZM4.24609 4.25016C4.11336 4.25016 3.98087 4.27226 3.84766 4.28434C3.64091 4.30366 3.63184 4.31141 3.63184 4.51188C3.63087 4.99804 3.63087 5.48372 3.63184 5.96989C3.63184 6.02976 3.63971 6.08911 3.64551 6.18082C3.89224 6.18082 4.1158 6.17746 4.33984 6.1818C4.55762 6.18663 4.7129 6.09748 4.80469 5.89957C4.83512 5.83339 4.87322 5.76796 4.88965 5.6984C4.96396 5.39422 4.98931 5.09041 4.90723 4.78043C4.81304 4.427 4.60866 4.25266 4.24609 4.25016Z" fill="#694780"/>
<path d="M15.3037 16.6636C15.7087 16.6636 16.0281 16.7758 16.2305 16.978C16.3923 17.1403 16.4736 17.3381 16.4736 17.5815V17.5923C16.4735 17.9924 16.2608 18.2154 16.0078 18.3569C16.4182 18.5139 16.6717 18.7526 16.6719 19.229V19.2388C16.6719 19.8875 16.1447 20.2124 15.3438 20.2124H13.6553V17.1694C13.6551 16.7534 13.377 16.7476 13.377 16.7476V16.6636H15.3037ZM17.2402 16.6587C17.7943 16.6587 18.0635 17.1069 18.0635 17.1069L19.5576 19.1147C19.5576 18.3945 19.5586 16.6626 19.5586 16.6626H19.9717C20.3498 16.6627 20.3281 17.0493 20.3281 17.0493V20.2124H19.9111C19.4495 20.2123 19.145 19.737 19.1387 19.7271L17.7695 17.9536V19.8423C17.7699 19.8534 17.7796 20.2124 17.5166 20.2124H16.998V17.3687C16.998 16.8587 16.6533 16.7466 16.6533 16.7466V16.6587H17.2402ZM22.4814 16.6636C22.8867 16.6636 23.2068 16.7756 23.4092 16.978C23.5709 17.1403 23.6523 17.3381 23.6523 17.5815V17.5923C23.6522 17.9925 23.4386 18.2154 23.1855 18.3569C23.596 18.5139 23.8494 18.7526 23.8496 19.229V19.2388C23.8496 19.8874 23.3232 20.2123 22.5225 20.2124H20.834V17.1694C20.8338 16.7534 20.5547 16.7476 20.5547 16.7476V16.6636H22.4814ZM14.416 19.5269H15.3438V19.5278C15.6886 19.5278 15.8965 19.4058 15.8965 19.1421V19.1323C15.8965 18.8942 15.7188 18.7466 15.3184 18.7466H14.416V19.5269ZM21.5938 19.5269H22.5215L22.5225 19.5278C22.8671 19.5277 23.0742 19.4057 23.0742 19.1421V19.1323C23.0742 18.8942 22.8965 18.7466 22.4961 18.7466H21.5938V19.5269ZM14.416 18.0981H15.1357L15.2588 18.0933C15.5317 18.0683 15.6982 17.9536 15.6982 17.7231V17.7124C15.6981 17.4798 15.5158 17.3482 15.1865 17.3481H14.416V18.0981ZM21.5938 18.0981H22.3135L22.4375 18.0933C22.71 18.0682 22.877 17.9534 22.877 17.7231V17.7124C22.8768 17.4798 22.6936 17.3481 22.3643 17.3481H21.5938V18.0981Z" fill="#26B460"/>
</g>
<defs>
<clipPath id="clip0_1_3388">
<rect width="24" height="24" fill="white" transform="translate(0.25)"/>
</clipPath>
</defs>
</svg>
