<svg width="24" height="25" viewBox="0 0 24 25" fill="none" xmlns="http://www.w3.org/2000/svg">
<path fill-rule="evenodd" clip-rule="evenodd" d="M23 12.7561C23.0102 18.818 18.0497 23.7867 11.926 23.7476C5.95035 23.7095 0.971738 18.8439 1.00012 12.6891C1.0282 6.65649 5.93662 1.71389 12.0731 1.74822C18.1443 1.78225 23.0161 6.73522 23 12.7561ZM12.0007 23.5534C17.9745 23.5491 22.81 18.7142 22.803 12.7388C22.7958 6.74651 17.9176 1.93422 11.9623 1.9539C6.0561 1.97343 1.16203 6.78557 1.20109 12.8284C1.23924 18.7451 6.04481 23.5485 12.0008 23.5535L12.0007 23.5534Z" fill="currentColor"/>
<path fill-rule="evenodd" clip-rule="evenodd" d="M8.05963 21.7805C8.05963 21.7467 8.04406 21.7353 7.97082 21.7025C6.83153 21.1929 5.82851 20.4875 4.95642 19.5962C4.2055 18.8287 3.59587 17.9605 3.13213 16.9921C3.0688 16.8598 3.00929 16.9605 2.94856 16.9744C2.86082 16.9944 2.88996 17.049 2.91636 17.1027C3.06224 17.4 3.21942 17.6909 3.39231 17.9735C3.84415 18.7126 4.379 19.3861 5.00388 19.9854C5.63685 20.5925 6.33254 21.1178 7.10346 21.5401C7.36104 21.6813 7.62244 21.8145 7.89085 21.9332C7.91832 21.9454 7.95662 21.9828 7.98241 21.9434C8.01614 21.8918 8.03613 21.8313 8.05947 21.7805H8.05963Z" fill="currentColor"/>
<path fill-rule="evenodd" clip-rule="evenodd" d="M16.0659 21.9774C16.0794 21.9721 16.1001 21.9651 16.1196 21.9557C16.2831 21.8776 16.4483 21.8032 16.609 21.72C17.6503 21.1811 18.5735 20.4867 19.3739 19.6282C20.0734 18.8776 20.6452 18.0411 21.0925 17.1186C21.1135 17.0751 21.1488 17.0339 21.0734 16.9988C20.9196 16.9271 20.9206 16.9236 20.8753 17.0176C20.5646 17.661 20.1903 18.2654 19.747 18.8256C18.7403 20.0981 17.4965 21.0679 16.0171 21.7341C15.9422 21.7678 15.9435 21.8001 15.9725 21.8576C15.9881 21.8883 16.002 21.9197 16.0157 21.9512C16.0241 21.9704 16.036 21.9823 16.0659 21.9776V21.9774Z" fill="currentColor"/>
<path fill-rule="evenodd" clip-rule="evenodd" d="M3.71924 16.6167C3.67895 16.6343 3.63973 16.6543 3.59853 16.6686C3.5378 16.6898 3.53581 16.7244 3.56145 16.7771C3.94325 17.5624 4.42103 18.2844 5.00028 18.9374C5.61357 19.6284 6.31353 20.2183 7.10139 20.7026C7.45297 20.9188 7.81783 21.11 8.19352 21.2807C8.25028 21.3065 8.27974 21.2984 8.29805 21.2403C8.30552 21.2165 8.31331 21.1919 8.32613 21.171C8.36458 21.1091 8.34123 21.0769 8.28035 21.0499C7.51889 20.7127 6.82198 20.2726 6.18108 19.741C5.49851 19.175 4.91224 18.5235 4.41736 17.7884C4.17794 17.4327 3.96782 17.0609 3.77936 16.6762C3.767 16.6509 3.76318 16.6121 3.71908 16.6164L3.71924 16.6167Z" fill="currentColor"/>
<path fill-rule="evenodd" clip-rule="evenodd" d="M20.4667 16.752C20.4591 16.6954 20.4044 16.6971 20.3709 16.6741C20.2982 16.6243 20.2573 16.6306 20.2123 16.7232C19.7204 17.7369 19.0625 18.6289 18.2399 19.4003C17.5086 20.0861 16.6861 20.6339 15.7763 21.0526C15.6485 21.1115 15.652 21.1092 15.6985 21.2373C15.726 21.3127 15.7544 21.3298 15.8337 21.2938C16.5337 20.9757 17.1871 20.5823 17.7905 20.1054C18.927 19.207 19.8084 18.1046 20.4421 16.803C20.4504 16.7862 20.4582 16.7693 20.4664 16.7519L20.4667 16.752Z" fill="currentColor"/>
<path fill-rule="evenodd" clip-rule="evenodd" d="M2.83036 10.6841C2.83112 10.6787 2.83189 10.6732 2.8325 10.6675C3.03713 10.6594 3.24176 10.6492 3.44655 10.6443C3.52666 10.6423 3.57396 10.6166 3.58449 10.5307C3.59212 10.4692 3.60754 10.4075 3.62829 10.3491C3.65469 10.2749 3.62463 10.2533 3.55611 10.2366C3.08352 10.1221 2.61108 10.0064 2.14062 9.88358C2.04769 9.85932 2.01763 9.87656 1.99581 9.96887C1.93676 10.2194 1.93248 10.2173 2.18137 10.2762C2.31871 10.3087 2.45497 10.3456 2.59185 10.3804C2.52608 10.4043 2.46291 10.4113 2.39958 10.4156C2.31871 10.4211 2.23752 10.4242 2.15665 10.4284C1.85969 10.4446 1.86122 10.4449 1.80522 10.7311C1.79332 10.7923 1.81147 10.8157 1.86977 10.8265C1.94622 10.8408 2.02145 10.8622 2.09714 10.881C2.50869 10.983 2.92024 11.0844 3.33134 11.1883C3.39375 11.204 3.4235 11.1899 3.43419 11.124C3.44456 11.0596 3.46333 10.9965 3.4818 10.9338C3.4998 10.8721 3.48119 10.8469 3.41618 10.8321C3.21994 10.7873 3.02553 10.7339 2.83051 10.684L2.83036 10.6841Z" fill="currentColor"/>
<path fill-rule="evenodd" clip-rule="evenodd" d="M8.0179 3.89368C7.92131 3.78733 7.82609 3.68511 7.73362 3.58059C7.55401 3.37766 7.55676 3.38148 7.31169 3.49164C7.23493 3.52612 7.23478 3.55801 7.26438 3.62377C7.44628 4.0278 7.62649 4.43258 7.80457 4.83829C7.90315 5.06288 7.90071 5.06395 8.12869 4.95913C8.13159 4.95791 8.13418 4.95562 8.13708 4.95501C8.24405 4.93518 8.22818 4.87872 8.19125 4.80213C8.10763 4.6288 8.03148 4.45166 7.94466 4.25895C7.96846 4.27497 7.9764 4.27818 7.98128 4.28397C8.07482 4.39276 8.16806 4.50186 8.26114 4.6111C8.44517 4.82715 8.44395 4.82501 8.70184 4.70616C8.77036 4.67457 8.78577 4.64635 8.75281 4.57387C8.5645 4.15917 8.38124 3.74232 8.19705 3.32579C8.11282 3.13552 8.11373 3.13507 7.92848 3.21731C7.90285 3.22875 7.87828 3.24263 7.85218 3.25301C7.79435 3.27574 7.7913 3.31145 7.81587 3.36393C7.88072 3.50232 7.94145 3.64269 8.00371 3.7823C8.01851 3.81541 8.0382 3.84791 8.01806 3.89399L8.0179 3.89368Z" fill="currentColor"/>
<path fill-rule="evenodd" clip-rule="evenodd" d="M21.1662 11.2059C21.2014 11.192 21.2181 11.1841 21.2355 11.1789C21.5367 11.0886 21.8378 10.9973 22.1399 10.9098C22.1962 10.8934 22.2165 10.8692 22.2031 10.811C22.1803 10.7139 22.1573 10.6164 22.1436 10.5178C22.1338 10.4485 22.1086 10.4385 22.0465 10.4616C21.8713 10.5269 21.6942 10.5875 21.5178 10.6498C21.212 10.7576 20.9063 10.8657 20.6002 10.9729C20.557 10.988 20.5308 11.0079 20.5414 11.0605C20.5758 11.2317 20.6087 11.4032 20.6394 11.5752C20.6498 11.6334 20.6782 11.649 20.7359 11.6443C20.9069 11.6302 21.0783 11.6214 21.2496 11.6112C21.5892 11.5909 21.9285 11.5697 22.2682 11.5523C22.3288 11.5492 22.343 11.5332 22.328 11.4738C22.3036 11.3773 22.2824 11.2793 22.2702 11.1806C22.2615 11.1098 22.2307 11.0944 22.1654 11.1016C21.8399 11.1374 21.5142 11.1699 21.1665 11.2059H21.1662Z" fill="currentColor"/>
<path fill-rule="evenodd" clip-rule="evenodd" d="M6.2662 5.96372C6.26254 5.8377 6.10888 5.72067 5.99 5.58335C5.97032 5.56062 5.95094 5.57877 5.93431 5.59433C5.85679 5.66681 5.77988 5.73989 5.70114 5.811C5.66207 5.84624 5.66543 5.87325 5.70236 5.90986C5.76203 5.96922 5.81803 6.03269 5.87128 6.09784C5.90013 6.13309 5.93461 6.17489 5.88197 6.2196C5.83237 6.26171 5.79361 6.22951 5.76019 6.19549C5.68557 6.11996 5.61309 6.0423 5.54076 5.96464C5.39198 5.80474 5.2432 5.64484 5.09579 5.48356C5.05917 5.44344 5.04009 5.39553 5.0906 5.3525C5.13791 5.31222 5.17346 5.3528 5.20291 5.3821C5.27585 5.45488 5.34635 5.5301 5.41487 5.607C5.44966 5.64606 5.47667 5.64881 5.51482 5.61127C5.58807 5.53895 5.6636 5.46861 5.74097 5.40056C5.77606 5.36974 5.77317 5.34746 5.74173 5.31756C5.65826 5.23776 5.57799 5.15461 5.4933 5.07603C5.41868 5.00676 5.32804 4.97624 5.22611 4.98677C5.0201 5.00798 4.87193 5.12668 4.76572 5.29116C4.65799 5.45793 4.65448 5.63492 4.79044 5.79452C4.98867 6.0275 5.19315 6.2553 5.41639 6.46494C5.49086 6.53482 5.57342 6.59738 5.68618 6.60089C5.96193 6.60943 6.26636 6.31938 6.26636 5.96372H6.2662Z" fill="currentColor"/>
<path fill-rule="evenodd" clip-rule="evenodd" d="M4.11183 9.0571C4.11702 8.8943 4.05323 8.77117 3.90918 8.6932C3.83517 8.65307 3.76009 8.61477 3.68593 8.57449C3.65053 8.55527 3.6252 8.55237 3.60582 8.59738C3.56508 8.69198 3.52113 8.78536 3.47642 8.87812C3.45383 8.92496 3.46543 8.95151 3.51319 8.97257C3.5959 9.00903 3.67739 9.04886 3.75719 9.09158C3.79168 9.11004 3.81289 9.1404 3.7926 9.18541C3.77261 9.22997 3.73705 9.23531 3.69921 9.22203C3.64336 9.20266 3.58903 9.1784 3.53532 9.15368C3.29132 9.04153 3.04732 8.92939 2.80453 8.81465C2.75814 8.79268 2.69939 8.76583 2.73068 8.69625C2.7615 8.62774 2.81476 8.65002 2.86588 8.67336C2.95667 8.71487 3.04854 8.75408 3.13933 8.79573C3.16985 8.80977 3.19732 8.82365 3.217 8.782C3.26492 8.68023 3.31207 8.57831 3.36121 8.47715C3.37753 8.44358 3.37006 8.42802 3.33496 8.41459C3.23867 8.37797 3.14513 8.33418 3.04823 8.2994C2.85214 8.22891 2.69497 8.27254 2.56374 8.43382C2.48805 8.52689 2.43525 8.63308 2.40977 8.75118C2.37208 8.92542 2.43876 9.11187 2.58602 9.19121C2.88007 9.34989 3.18297 9.49148 3.49595 9.60988C3.64046 9.66451 3.77429 9.63979 3.88766 9.53436C4.02607 9.40589 4.10267 9.24629 4.11168 9.05694L4.11183 9.0571Z" fill="currentColor"/>
<path fill-rule="evenodd" clip-rule="evenodd" d="M7.47957 5.30763C7.47621 5.30061 7.47179 5.28887 7.46538 5.27849C7.42586 5.21487 7.38481 5.15216 7.3462 5.08792C7.32194 5.04749 7.29539 5.05207 7.26136 5.0751C7.20963 5.11005 7.15607 5.14239 7.10296 5.17504C7.08221 5.18786 7.05459 5.20983 7.03658 5.18282C6.97799 5.09479 6.90245 5.00904 6.87758 4.91108C6.86278 4.8528 6.97768 4.8351 7.02865 4.79162C7.03094 4.78963 7.03368 4.78795 7.03643 4.78658C7.09579 4.75729 7.06939 4.71258 7.04192 4.68863C6.98012 4.63507 7.00149 4.50248 6.87483 4.51316C6.87193 4.51347 6.86934 4.51606 6.86659 4.51743C6.80387 4.54642 6.74695 4.63233 6.68317 4.60044C6.62747 4.57267 6.60031 4.48799 6.56048 4.42833C6.55697 4.42314 6.55377 4.4178 6.54995 4.41277C6.5231 4.37661 6.53591 4.35708 6.57071 4.33098C6.63129 4.28552 6.73917 4.27392 6.74604 4.19458C6.7523 4.12272 6.67111 4.06321 6.63495 3.9944C6.63052 3.98616 6.62503 3.97853 6.62076 3.97014C6.5997 3.92955 6.57406 3.93093 6.53744 3.95397C6.36821 4.06016 6.19837 4.16544 6.02655 4.26736C5.97878 4.29559 5.97665 4.32152 6.00396 4.36425C6.07797 4.4799 6.14939 4.59723 6.22233 4.7135C6.42101 5.03101 6.62015 5.34837 6.81868 5.66588C6.83775 5.6964 6.85194 5.72478 6.89742 5.69579C7.079 5.57998 7.26227 5.46708 7.44478 5.35295C7.46034 5.34318 7.47881 5.33555 7.47988 5.30779L7.47957 5.30763Z" fill="currentColor"/>
<path fill-rule="evenodd" clip-rule="evenodd" d="M18.0409 4.30319C18.0284 4.26322 17.9976 4.25086 17.9721 4.23499C17.8188 4.13902 17.6628 4.04686 17.5113 3.94799C17.4563 3.91214 17.4313 3.91687 17.3961 3.97408C17.1342 4.39916 16.8704 4.82302 16.6024 5.24414C16.5618 5.30807 16.5664 5.33828 16.6296 5.37474C16.7485 5.44325 16.8644 5.5171 16.9812 5.58927C17.1302 5.68153 17.247 5.65182 17.3315 5.50016C17.3331 5.49742 17.3343 5.49452 17.3363 5.49208C17.3663 5.45317 17.355 5.42403 17.3158 5.39992C17.26 5.36574 17.2047 5.3305 17.1493 5.29525C17.1251 5.27984 17.1029 5.26718 17.1274 5.23041C17.1772 5.15503 17.2218 5.07615 17.2693 4.9991C17.2888 4.96736 17.3089 4.96294 17.3457 4.98384C17.4061 5.01847 17.4673 5.10026 17.5273 5.07493C17.5822 5.05158 17.6097 4.96324 17.6492 4.90358C17.6509 4.90099 17.6521 4.89794 17.6541 4.89565C17.6959 4.84744 17.6799 4.81906 17.6286 4.78717C17.4614 4.68341 17.4689 4.68494 17.567 4.51115C17.6169 4.42281 17.6561 4.42937 17.7284 4.47881C17.8673 4.57402 17.8703 4.57081 17.9665 4.42724C17.9939 4.38619 18.0173 4.3424 18.0406 4.30304L18.0409 4.30319Z" fill="currentColor"/>
<path fill-rule="evenodd" clip-rule="evenodd" d="M9.10174 3.12795C9.17147 3.10903 9.164 3.16457 9.1733 3.19905C9.27493 3.57225 9.37702 3.94531 9.47499 4.31943C9.4933 4.38946 9.51954 4.41113 9.59081 4.38534C9.6697 4.35681 9.75149 4.33407 9.83389 4.31805C9.90546 4.30417 9.91675 4.26908 9.89859 4.20606C9.85968 4.07118 9.82428 3.93539 9.78735 3.7999C9.7228 3.56218 9.65795 3.32447 9.59371 3.08675C9.58226 3.04449 9.5667 3.00253 9.63125 2.98285C9.69122 2.96454 9.78354 2.98117 9.80185 2.91434C9.81696 2.85941 9.77698 2.78938 9.76141 2.72591C9.75699 2.70775 9.75241 2.68959 9.74768 2.67144C9.7373 2.63192 9.71685 2.61529 9.67275 2.62719C9.40464 2.69966 9.13607 2.77015 8.86781 2.84202C8.84873 2.84721 8.81791 2.84721 8.82676 2.88016C8.85163 2.97308 8.86231 3.07607 8.91206 3.15373C8.93892 3.19569 9.02574 3.13848 9.08632 3.13069C9.09243 3.12993 9.09853 3.12856 9.10174 3.12795Z" fill="currentColor"/>
<path fill-rule="evenodd" clip-rule="evenodd" d="M21.4685 8.50412C21.4647 8.49451 21.4618 8.48566 21.4578 8.47711C21.4087 8.3726 21.3595 8.26808 21.31 8.16387C21.288 8.11764 21.2556 8.13595 21.2234 8.1509C20.7655 8.36543 20.308 8.58071 19.8488 8.79264C19.7864 8.82148 19.7831 8.85291 19.8098 8.90769C19.874 9.03951 19.9346 9.17317 19.997 9.30591C20.0457 9.40977 20.1227 9.43855 20.2277 9.39227C20.3796 9.32544 20.3843 9.32285 20.3088 9.18065C20.2677 9.1036 20.2802 9.0714 20.3597 9.0357C20.7101 8.87854 21.0574 8.71498 21.4058 8.55325C21.4302 8.54196 21.4603 8.53631 21.4683 8.50412H21.4685Z" fill="currentColor"/>
<path fill-rule="evenodd" clip-rule="evenodd" d="M14.3587 2.69205C14.3781 2.64018 14.334 2.63789 14.3032 2.63011C14.2125 2.60737 14.1199 2.59211 14.0306 2.56511C13.9649 2.54527 13.9394 2.55794 13.9237 2.62827C13.8135 3.12064 13.6994 3.61225 13.5848 4.10355C13.571 4.16244 13.5863 4.18777 13.6475 4.19982C13.7941 4.22835 13.9395 4.26406 14.0854 4.29656C14.1979 4.32158 14.2666 4.27962 14.2913 4.17068C14.3277 4.00956 14.3285 4.00574 14.1668 3.97233C14.0895 3.95646 14.072 3.92274 14.0908 3.84996C14.1274 3.70837 14.1584 3.56525 14.1913 3.42259C14.2472 3.17984 14.3027 2.93694 14.3589 2.69205H14.3587Z" fill="currentColor"/>
<path fill-rule="evenodd" clip-rule="evenodd" d="M21.4082 12.7242C21.4082 12.7164 21.4082 12.732 21.4082 12.7242C21.7073 12.714 22.0064 12.7019 22.3056 12.6951C22.3706 12.6936 22.3966 12.6739 22.392 12.6089C22.3857 12.5187 22.3793 12.4282 22.3815 12.3381C22.3828 12.2763 22.3628 12.2566 22.3015 12.2586C21.7935 12.2758 21.2854 12.2914 20.7772 12.3059C20.7267 12.3072 20.7037 12.3225 20.7063 12.3768C20.7111 12.4764 20.7127 12.5764 20.7121 12.6762C20.7117 12.7331 20.7348 12.7497 20.7911 12.7488C20.9968 12.7456 21.2023 12.7242 21.408 12.7242H21.4082Z" fill="currentColor"/>
<path fill-rule="evenodd" clip-rule="evenodd" d="M20.4075 10.3106C20.4142 10.3083 20.4232 10.3056 20.4321 10.3025C20.9193 10.1362 21.4064 9.96973 21.8937 9.80357C21.9373 9.78877 21.9504 9.76421 21.9335 9.71813C21.9013 9.6304 21.8686 9.54205 21.8467 9.45142C21.8279 9.37346 21.7902 9.37117 21.7256 9.39421C21.4935 9.47675 21.2602 9.55579 21.0272 9.63574C20.7882 9.71782 20.5496 9.80098 20.3096 9.88001C20.249 9.89985 20.231 9.92457 20.2561 9.98667C20.2925 10.0762 20.3205 10.169 20.3515 10.2607C20.3607 10.2879 20.3659 10.3173 20.4077 10.3107L20.4075 10.3106Z" fill="currentColor"/>
<path fill-rule="evenodd" clip-rule="evenodd" d="M2.30049 16.3115C2.44744 16.2056 2.57196 16.1188 2.69297 16.0269C2.7357 15.9946 2.7653 15.9949 2.80681 16.0278C2.89699 16.0996 2.99282 16.1639 3.08301 16.2358C3.10513 16.2535 3.12421 16.2663 3.14832 16.2552C3.17807 16.2415 3.15015 16.2177 3.15 16.1995C3.14878 16.1141 3.10849 16.0375 3.08545 15.9571C3.0357 15.7837 3.03433 15.7871 3.18021 15.6772C3.26902 15.6102 3.36684 15.5527 3.46038 15.4546C3.34349 15.4546 3.2504 15.4551 3.15747 15.4546C2.91561 15.4532 2.91713 15.4526 2.84358 15.2155C2.81795 15.1325 2.79963 15.0456 2.74546 14.9539C2.69572 15.1011 2.64566 15.229 2.61072 15.3609C2.58951 15.4412 2.54999 15.4604 2.47354 15.4571C2.33544 15.4513 2.19688 15.4554 2.03711 15.4554C2.15659 15.5694 2.27531 15.6443 2.3893 15.7238C2.45644 15.7706 2.46606 15.8159 2.43996 15.8881C2.39266 16.0187 2.35268 16.1519 2.30064 16.3116L2.30049 16.3115Z" fill="currentColor"/>
<path fill-rule="evenodd" clip-rule="evenodd" d="M21.9582 15.4968C21.9567 15.4889 21.955 15.481 21.9533 15.473C21.8109 15.473 21.6684 15.4689 21.5263 15.4747C21.4528 15.4776 21.4229 15.4485 21.4033 15.3813C21.3637 15.2454 21.3154 15.1117 21.2625 14.9523C21.2134 15.0998 21.1621 15.2185 21.136 15.3426C21.1117 15.4584 21.0498 15.4816 20.9459 15.4756C20.821 15.4684 20.6954 15.4739 20.5703 15.4739C20.6799 15.5784 20.7899 15.6659 20.9071 15.7422C20.9729 15.785 20.9831 15.8279 20.9581 15.8976C20.9103 16.031 20.8696 16.1669 20.8259 16.3018C20.9558 16.2274 21.0728 16.145 21.1848 16.0563C21.2402 16.0125 21.2816 16.0096 21.3388 16.0546C21.4522 16.1439 21.5717 16.2255 21.6887 16.3102C21.66 16.1651 21.6197 16.0313 21.5723 15.9001C21.546 15.8273 21.5573 15.7834 21.6267 15.739C21.7418 15.6654 21.8482 15.5781 21.9582 15.4967V15.4968Z" fill="currentColor"/>
<path fill-rule="evenodd" clip-rule="evenodd" d="M12.2432 22.0455C12.2872 22.0294 12.2849 21.9924 12.2971 21.9656C12.3621 21.8231 12.5048 21.7404 12.6439 21.7665C12.7877 21.7935 12.8933 21.9261 12.896 22.0857C12.8978 22.194 12.8684 22.2942 12.8202 22.3913C12.6966 22.6404 12.5124 22.844 12.3317 23.0506C12.3122 23.073 12.2772 23.0945 12.2925 23.1284C12.3062 23.1591 12.3432 23.1455 12.3689 23.1435C12.5713 23.1282 12.7739 23.116 12.9754 23.0927C13.1887 23.068 13.1882 23.0631 13.2304 22.8475C13.2343 22.8273 13.2497 22.8031 13.2218 22.79C13.1972 22.7784 13.1805 22.7962 13.1679 22.815C13.1373 22.8611 13.0976 22.8972 13.0431 22.9076C12.8895 22.9369 12.733 22.9428 12.5775 22.9554C12.5635 22.9564 12.5423 22.9543 12.5354 22.9453C12.5212 22.9262 12.5418 22.9122 12.553 22.8981C12.6032 22.8344 12.6537 22.771 12.7039 22.7073C12.8333 22.5429 12.9682 22.3815 13.037 22.1795C13.1354 21.8911 13.0103 21.6479 12.7382 21.5936C12.457 21.5373 12.1903 21.777 12.2431 22.0454L12.2432 22.0455Z" fill="currentColor"/>
<path fill-rule="evenodd" clip-rule="evenodd" d="M9.66429 21.4807C9.84756 21.541 9.8529 21.5422 9.80865 21.7347C9.73891 22.0388 9.66262 22.3415 9.58601 22.644C9.55488 22.7669 9.53794 22.7753 9.40885 22.7692C9.39176 22.7685 9.37009 22.7593 9.3623 22.7981C9.53886 22.8423 9.71236 22.9006 9.89441 22.9232C9.90143 22.8885 9.88525 22.8852 9.87076 22.8791C9.74227 22.8255 9.7354 22.8124 9.76897 22.6757C9.80545 22.5272 9.84283 22.3789 9.87991 22.2306C9.94187 21.9822 10.0044 21.734 10.0653 21.4854C10.0752 21.4448 10.0955 21.3869 10.0165 21.4018C9.89822 21.4241 9.78149 21.454 9.66414 21.4807H9.66429Z" fill="currentColor"/>
<path fill-rule="evenodd" clip-rule="evenodd" d="M8.05953 21.7805C8.03634 21.8313 8.01619 21.8918 7.98247 21.9434C7.95668 21.9828 7.91838 21.9454 7.89091 21.9332C7.62234 21.8143 7.3611 21.6811 7.10351 21.5401C6.33244 21.1178 5.63691 20.5925 5.00394 19.9854C4.37905 19.3861 3.8442 18.7126 3.39237 17.9735C3.21963 17.6909 3.0623 17.4001 2.91642 17.1027C2.89002 17.0489 2.86072 16.9944 2.94861 16.9744C3.00935 16.9605 3.06886 16.8598 3.13219 16.9921C3.59593 17.9605 4.2057 18.8287 4.95648 19.5962C5.82842 20.4875 6.83159 21.1929 7.97087 21.7025C8.04412 21.7353 8.05968 21.7466 8.05968 21.7803L8.05953 21.7805Z" fill="currentColor"/>
<path fill-rule="evenodd" clip-rule="evenodd" d="M16.066 21.9774C16.0361 21.9822 16.0242 21.9704 16.0158 21.951C16.0021 21.9196 15.9882 21.888 15.9726 21.8575C15.9435 21.8 15.9422 21.7676 16.0172 21.7339C17.4966 21.0678 18.7405 20.098 19.7471 18.8255C20.1904 18.2651 20.5645 17.6609 20.8754 17.0175C20.9207 16.9235 20.9196 16.927 21.0734 16.9987C21.1488 17.0339 21.1137 17.075 21.0925 17.1185C20.6453 18.0409 20.0736 18.8777 19.374 19.6281C18.5736 20.4866 17.6504 21.181 16.6091 21.7199C16.4482 21.803 16.283 21.8775 16.1197 21.9556C16.1002 21.9649 16.0794 21.9719 16.066 21.9773V21.9774Z" fill="currentColor"/>
<path fill-rule="evenodd" clip-rule="evenodd" d="M3.71908 16.6167C3.76318 16.6124 3.767 16.6511 3.77936 16.6765C3.96782 17.0611 4.17794 17.4331 4.41736 17.7886C4.91224 18.5237 5.49851 19.1751 6.18108 19.7413C6.82198 20.2729 7.51889 20.7129 8.28035 21.0501C8.34123 21.0771 8.36458 21.1091 8.32613 21.1712C8.31315 21.1922 8.30552 21.2167 8.29805 21.2405C8.27974 21.2987 8.25029 21.3067 8.19352 21.281C7.81783 21.1102 7.45297 20.919 7.10139 20.7028C6.31353 20.2184 5.61357 19.6287 5.00028 18.9377C4.42087 18.2848 3.94309 17.5628 3.56145 16.7773C3.53581 16.7247 3.5378 16.6902 3.59853 16.6688C3.63973 16.6545 3.67895 16.6345 3.71924 16.617L3.71908 16.6167Z" fill="currentColor"/>
<path fill-rule="evenodd" clip-rule="evenodd" d="M20.4664 16.752C20.4582 16.7694 20.4504 16.7863 20.4421 16.8031C19.8084 18.1047 18.927 19.2071 17.7905 20.1055C17.187 20.5825 16.5337 20.9758 15.8337 21.2939C15.7544 21.3299 15.726 21.3128 15.6985 21.2375C15.652 21.1093 15.6485 21.1114 15.7763 21.0527C16.6861 20.634 17.5085 20.0863 18.2399 19.4004C19.0625 18.629 19.7204 17.7369 20.2123 16.7233C20.2572 16.6307 20.2982 16.6244 20.3709 16.6742C20.4044 16.6972 20.4589 16.6954 20.4667 16.7521L20.4664 16.752Z" fill="currentColor"/>
<path fill-rule="evenodd" clip-rule="evenodd" d="M15.9614 4.9505C15.8672 4.95828 15.7888 4.91556 15.7091 4.88123C15.5544 4.8144 15.4021 4.74208 15.2475 4.67464C15.1984 4.65328 15.1819 4.63161 15.2068 4.57638C15.4169 4.1098 15.6246 3.64184 15.832 3.17404C15.8507 3.13147 15.8729 3.11804 15.9188 3.13864C16.1097 3.22393 16.3043 3.30266 16.4833 3.41145C16.6592 3.51841 16.7073 3.66153 16.6273 3.8524C16.5019 4.15176 16.3712 4.44898 16.2362 4.74406C16.1837 4.85865 16.1178 4.9714 15.9614 4.9505ZM16.2431 3.64825C16.2434 3.59821 16.21 3.57929 16.1747 3.56525C16.1332 3.54862 16.1283 3.58829 16.1185 3.61056C15.9879 3.90412 15.8587 4.19845 15.7293 4.49262C15.72 4.51367 15.6945 4.53717 15.7262 4.55761C15.7563 4.57699 15.794 4.58477 15.8224 4.55929C15.8471 4.53717 15.8675 4.50696 15.8813 4.47659C15.9951 4.22332 16.1073 3.96927 16.2193 3.71523C16.2293 3.6925 16.236 3.66839 16.2431 3.6484V3.64825Z" fill="currentColor"/>
<path fill-rule="evenodd" clip-rule="evenodd" d="M19.131 6.30352C19.2069 6.4706 19.1736 6.58747 19.0691 6.69C18.9846 6.77285 18.9047 6.86104 18.8072 6.92955C18.6894 7.0124 18.604 7.01606 18.4912 6.92772C18.2991 6.77697 18.145 6.5864 17.9718 6.41597C17.9205 6.36562 17.973 6.33831 18.0018 6.3107C18.3211 6.00371 18.6403 5.69688 18.9617 5.39218C19.02 5.33695 19.0665 5.23701 19.141 5.2393C19.2133 5.24159 19.2609 5.33801 19.3157 5.39645C19.4072 5.4941 19.5087 5.58305 19.5861 5.69352C19.7066 5.86593 19.7014 5.99913 19.5682 6.16117C19.5444 6.19001 19.5192 6.21778 19.4928 6.24432C19.3964 6.34136 19.2917 6.40621 19.131 6.30368V6.30352ZM18.8422 6.28567C18.8388 6.24478 18.8234 6.21167 18.7943 6.19397C18.7628 6.17505 18.7453 6.2106 18.7265 6.228C18.6536 6.29544 18.5812 6.36364 18.5112 6.43398C18.4882 6.45702 18.4335 6.47624 18.4715 6.52079C18.5057 6.56062 18.5525 6.57603 18.6034 6.53651C18.6821 6.47517 18.7511 6.40407 18.8182 6.33084C18.8301 6.31787 18.8355 6.29864 18.842 6.28567H18.8422ZM19.0677 6.05635C19.1284 6.05894 19.2992 5.89187 19.2971 5.83069C19.2958 5.79742 19.2766 5.77042 19.2521 5.75211C19.2232 5.73044 19.2072 5.76386 19.1912 5.7782C19.133 5.82977 19.0772 5.88378 19.0218 5.93841C19.0033 5.95656 18.9713 5.97304 18.9925 6.00722C19.0093 6.03438 19.0338 6.0536 19.0679 6.0565L19.0677 6.05635Z" fill="currentColor"/>
<path fill-rule="evenodd" clip-rule="evenodd" d="M2.43084 13.547C2.46166 13.3164 2.61426 13.2766 2.78486 13.2569C2.88725 13.2452 2.98904 13.2299 3.09234 13.2362C3.20343 13.2431 3.27958 13.3029 3.30705 13.4104C3.36839 13.6501 3.37404 13.8979 3.41036 14.1413C3.41951 14.2029 3.37419 14.2038 3.3336 14.2086C3.0487 14.2423 2.76365 14.2757 2.47875 14.3093C2.26832 14.334 2.05759 14.3572 1.84746 14.3848C1.77437 14.3944 1.74827 14.3686 1.74186 14.2968C1.72966 14.157 1.70799 14.018 1.69258 13.8785C1.68403 13.801 1.68022 13.7231 1.69929 13.6459C1.72676 13.5356 1.78932 13.4558 1.8966 13.4133C1.9967 13.3738 2.10184 13.3586 2.20805 13.3576C2.31883 13.3567 2.38414 13.4252 2.43069 13.5467L2.43084 13.547ZM2.92601 13.6643C2.85689 13.6745 2.77113 13.6866 2.68552 13.7003C2.62647 13.7098 2.61243 13.7548 2.6164 13.8039C2.62143 13.8674 2.67286 13.839 2.70322 13.8364C2.805 13.8274 2.90633 13.8132 3.00765 13.7995C3.03558 13.7957 3.07815 13.8056 3.07327 13.7563C3.06976 13.7203 3.06305 13.6796 3.01757 13.6698C2.99361 13.6648 2.96828 13.6665 2.92617 13.664L2.92601 13.6643ZM2.05179 13.9202C2.11969 13.9127 2.20652 13.9033 2.29335 13.8938C2.32066 13.8909 2.35485 13.895 2.35317 13.8532C2.35179 13.8183 2.3434 13.7759 2.3051 13.7705C2.20545 13.7566 2.10535 13.7606 2.01333 13.8085C1.98007 13.8258 1.98434 13.8607 1.98739 13.8923C1.99014 13.9207 2.00738 13.9284 2.05194 13.9204L2.05179 13.9202Z" fill="currentColor"/>
<path fill-rule="evenodd" clip-rule="evenodd" d="M2.82954 10.6842C3.02456 10.7343 3.21896 10.7875 3.4152 10.8325C3.48006 10.8473 3.49883 10.8725 3.48082 10.9341C3.46251 10.9968 3.44374 11.06 3.43321 11.1244C3.42253 11.1903 3.39277 11.2045 3.33036 11.1886C2.91926 11.0847 2.50756 10.9834 2.09616 10.8813C2.02047 10.8626 1.94524 10.8412 1.86879 10.8269C1.8105 10.816 1.79234 10.7927 1.80424 10.7315C1.86024 10.4451 1.85872 10.4448 2.15567 10.4288C2.2367 10.4244 2.31773 10.4213 2.3986 10.416C2.46193 10.4117 2.52526 10.4045 2.59088 10.3807C2.45415 10.3458 2.31773 10.3089 2.18039 10.2765C1.93151 10.2178 1.93578 10.2198 1.99483 9.96923C2.01666 9.87692 2.04672 9.85968 2.13965 9.88394C2.6101 10.0068 3.08254 10.1224 3.55513 10.237C3.62365 10.2536 3.65356 10.2753 3.62731 10.3495C3.60656 10.4079 3.59115 10.4695 3.58352 10.531C3.57299 10.6169 3.52568 10.6427 3.44557 10.6447C3.24079 10.6496 3.03615 10.6598 2.83152 10.6679C2.83076 10.6734 2.83015 10.6789 2.82938 10.6844L2.82954 10.6842Z" fill="currentColor"/>
<path fill-rule="evenodd" clip-rule="evenodd" d="M11.2894 3.19675C11.4497 3.22619 11.5054 3.32751 11.5211 3.46483C11.5403 3.63236 11.5626 3.79943 11.5868 3.96619C11.5951 4.0228 11.5792 4.04523 11.5203 4.04782C11.4425 4.05118 11.3636 4.05698 11.2881 4.07391C11.2101 4.09131 11.1826 4.07178 11.1759 3.9903C11.1626 3.82872 11.1385 3.66791 11.1173 3.50694C11.1129 3.47306 11.1037 3.4395 11.0935 3.40685C11.0805 3.3655 11.0502 3.34688 11.007 3.35299C10.9517 3.36077 10.9702 3.4044 10.9736 3.43385C10.9951 3.61984 11.02 3.80553 11.0433 3.99137C11.0576 4.1055 11.052 4.11175 10.9369 4.1232C10.8562 4.13128 10.7752 4.13815 10.6951 4.15097C10.6435 4.15921 10.622 4.14593 10.6156 4.09177C10.5551 3.58353 10.4924 3.07545 10.4305 2.56736C10.4259 2.53029 10.4157 2.49108 10.474 2.48467C10.7 2.4598 10.9241 2.41265 11.1533 2.42943C11.2803 2.43874 11.3578 2.51366 11.4021 2.62687C11.4352 2.71186 11.4504 2.80142 11.4558 2.89205C11.466 3.06721 11.4489 3.0994 11.2894 3.19705V3.19675ZM11.0488 2.95873C11.047 2.88564 11.0454 2.82644 11.0235 2.7709C11.0061 2.72681 10.9696 2.71231 10.9255 2.72025C10.877 2.72894 10.8967 2.76877 10.8988 2.79516C10.905 2.87206 10.915 2.94866 10.9266 3.02494C10.9302 3.0492 10.9241 3.08796 10.9681 3.08292C11.0024 3.07896 11.0372 3.06797 11.0451 3.02784C11.0505 3.00084 11.0483 2.97246 11.0489 2.95888L11.0488 2.95873Z" fill="currentColor"/>
<path fill-rule="evenodd" clip-rule="evenodd" d="M8.01806 3.89374C8.0382 3.84766 8.01851 3.81532 8.00371 3.78206C7.94145 3.64245 7.88072 3.50208 7.81587 3.36369C7.7913 3.31105 7.7942 3.2755 7.85218 3.25276C7.87828 3.24254 7.90285 3.2285 7.92848 3.21706C8.11373 3.13482 8.11297 3.13528 8.19705 3.32554C8.38124 3.74208 8.5645 4.15907 8.75281 4.57363C8.78577 4.64625 8.77051 4.67433 8.70184 4.70591C8.44395 4.82477 8.44502 4.82691 8.26114 4.61086C8.16806 4.50161 8.07482 4.39267 7.98128 4.28373C7.9764 4.27793 7.96846 4.27473 7.94466 4.25871C8.03164 4.45141 8.10763 4.62856 8.19125 4.80188C8.22818 4.87848 8.24405 4.93493 8.13708 4.95477C8.13418 4.95538 8.13159 4.95751 8.12869 4.95889C7.90071 5.06371 7.90315 5.06264 7.80457 4.83804C7.62649 4.43234 7.44643 4.02755 7.26438 3.62353C7.23478 3.55777 7.23493 3.52588 7.31169 3.4914C7.5566 3.38139 7.55401 3.37742 7.73362 3.58035C7.82609 3.68486 7.92116 3.78709 8.0179 3.89344L8.01806 3.89374Z" fill="currentColor"/>
<path fill-rule="evenodd" clip-rule="evenodd" d="M4.36489 8.21451C4.26509 8.22199 4.17567 8.17774 4.09052 8.12388C3.84271 7.96703 3.59458 7.81079 3.35608 7.64006C3.22606 7.54699 3.16823 7.35001 3.2224 7.18507C3.2665 7.0508 3.346 6.94003 3.4571 6.85428C3.59413 6.74855 3.74901 6.7339 3.89688 6.81599C4.18895 6.97803 4.46927 7.16066 4.73524 7.36237C4.86144 7.45819 4.8883 7.60344 4.86129 7.76044C4.82879 7.94918 4.5947 8.2406 4.36489 8.21451ZM3.60267 7.14922C3.55079 7.148 3.5192 7.19972 3.54606 7.24107C3.56239 7.26624 3.58695 7.28837 3.61229 7.30485C3.84423 7.45697 4.07679 7.60787 4.30996 7.75815C4.35436 7.78684 4.4006 7.81293 4.4476 7.83688C4.47964 7.85321 4.50925 7.84436 4.52802 7.81278C4.54496 7.7844 4.53611 7.75831 4.51367 7.73695C4.50024 7.72413 4.4856 7.71223 4.47018 7.70185C4.22557 7.54058 3.98126 7.379 3.73558 7.21925C3.6927 7.19133 3.64464 7.17104 3.60252 7.14922H3.60267Z" fill="currentColor"/>
<path fill-rule="evenodd" clip-rule="evenodd" d="M20.785 7.29911C20.7753 7.42316 20.7385 7.52538 20.6477 7.59694C20.3774 7.80979 20.0845 7.98937 19.7887 8.16331C19.6547 8.24219 19.4695 8.20588 19.345 8.09404C19.2629 8.02034 19.1983 7.93246 19.1568 7.82916C19.0752 7.62563 19.1116 7.45428 19.2848 7.31971C19.5414 7.12044 19.8162 6.94727 20.1009 6.79103C20.2326 6.71871 20.3686 6.73015 20.4923 6.81178C20.6698 6.92881 20.765 7.09756 20.7849 7.29926L20.785 7.29911ZM20.4467 7.17766C20.4292 7.11403 20.3863 7.11388 20.3394 7.14165C20.2564 7.19078 20.1751 7.2425 20.0944 7.2953C19.8937 7.42621 19.6937 7.55803 19.4938 7.69017C19.4579 7.71397 19.428 7.74418 19.4588 7.7901C19.4866 7.83145 19.5258 7.81726 19.5585 7.79804C19.6361 7.75227 19.7124 7.7042 19.7881 7.65523C19.9814 7.52996 20.1743 7.40408 20.3666 7.27699C20.4022 7.25349 20.4411 7.22969 20.4467 7.17781V7.17766Z" fill="currentColor"/>
<path fill-rule="evenodd" clip-rule="evenodd" d="M21.1664 11.2059C21.5142 11.1699 21.8398 11.1373 22.1653 11.1016C22.2306 11.0944 22.2615 11.1098 22.2702 11.1806C22.2824 11.2793 22.3036 11.3774 22.328 11.4739C22.343 11.5332 22.3288 11.5491 22.2682 11.5523C21.9285 11.5695 21.589 11.5909 21.2496 11.6112C21.0782 11.6214 20.9069 11.6301 20.7358 11.6443C20.6781 11.649 20.6497 11.6333 20.6394 11.5752C20.6087 11.4032 20.5757 11.2317 20.5414 11.0605C20.5309 11.0079 20.557 10.9881 20.6001 10.973C20.9063 10.8659 21.2119 10.7578 21.5177 10.6498C21.6941 10.5876 21.8713 10.5271 22.0465 10.4617C22.1087 10.4385 22.1339 10.4484 22.1435 10.5178C22.1574 10.6164 22.1803 10.7139 22.203 10.8111C22.2166 10.8692 22.1963 10.8935 22.1398 10.9098C21.8377 10.9974 21.5366 11.0886 21.2354 11.1789C21.218 11.1841 21.2014 11.1921 21.1663 11.2059H21.1664Z" fill="currentColor"/>
<path fill-rule="evenodd" clip-rule="evenodd" d="M3.16625 11.6811C3.30186 11.6768 3.36544 11.7331 3.357 11.8502C3.35272 11.9092 3.34051 11.9686 3.34296 12.0272C3.34631 12.1078 3.30572 12.121 3.23919 12.114C3.19891 12.1097 3.15755 12.1164 3.11757 12.1114C3.05318 12.1033 3.03273 12.1319 3.02357 12.1924C3.0132 12.2614 3.05455 12.2677 3.1017 12.2817C3.16945 12.3018 3.26666 12.2747 3.30038 12.3375C3.32815 12.3893 3.3013 12.4706 3.29748 12.5388C3.28884 12.6948 3.20857 12.7555 3.05669 12.721C2.60637 12.6192 2.15591 12.5173 1.70514 12.4175C1.65509 12.4063 1.62579 12.3915 1.63159 12.3334C1.64715 12.175 1.66012 12.0164 1.6734 11.8577C1.67813 11.8017 1.69659 11.7707 1.76328 11.7677C2.00331 11.7564 2.24289 11.7371 2.48277 11.722C2.71945 11.7071 2.95628 11.6937 3.16625 11.6811ZM2.10113 12.0955C2.09945 12.101 2.09777 12.1065 2.09609 12.1119C2.28073 12.1509 2.46553 12.1888 2.64971 12.2298C2.69686 12.2403 2.72784 12.2426 2.73104 12.1805C2.73394 12.1265 2.73135 12.0926 2.66085 12.0942C2.47438 12.0983 2.28775 12.0955 2.10113 12.0955Z" fill="currentColor"/>
<path fill-rule="evenodd" clip-rule="evenodd" d="M12.6954 3.91401C12.6954 3.88899 12.6933 3.86381 12.6959 3.8391C12.7011 3.78768 12.6816 3.7654 12.628 3.76571C12.5804 3.76601 12.5302 3.75289 12.5299 3.82674C12.5299 3.83894 12.5247 3.85115 12.5222 3.86336C12.4961 3.99091 12.4164 4.05235 12.2833 4.04767C12.0332 4.03897 12.0341 4.03913 12.0837 3.80095C12.1765 3.35543 12.2703 2.91005 12.358 2.46346C12.3727 2.38915 12.4034 2.3739 12.4707 2.38C12.626 2.39419 12.7818 2.40411 12.9375 2.41326C12.9852 2.41601 13.0105 2.43035 13.0145 2.48345C13.0525 2.99367 13.091 3.50373 13.1334 4.01365C13.1404 4.09726 13.1055 4.10824 13.0376 4.10077C12.9632 4.09253 12.888 4.08322 12.8137 4.08581C12.7208 4.08917 12.6787 4.05637 12.6953 3.96085C12.6979 3.94575 12.6956 3.92973 12.6956 3.91401H12.6954ZM12.7 2.84673C12.6329 3.0222 12.6031 3.20514 12.5702 3.38762C12.559 3.44926 12.5828 3.46849 12.6428 3.47398C12.7141 3.48054 12.6997 3.43553 12.6999 3.39708C12.7003 3.21368 12.7 3.03013 12.7 2.84673Z" fill="currentColor"/>
<path fill-rule="evenodd" clip-rule="evenodd" d="M21.008 14.2988C20.8926 14.2988 20.7769 14.2962 20.6616 14.2999C20.5964 14.3019 20.5705 14.2819 20.5816 14.2138C20.5963 14.1247 20.6069 14.0347 20.6146 13.9445C20.6202 13.8783 20.6477 13.8489 20.716 13.8606C20.7528 13.8669 20.7914 13.8631 20.8277 13.8712C20.9086 13.8889 20.9401 13.8548 20.9446 13.7769C20.9472 13.734 20.9365 13.7111 20.8924 13.7071C20.8801 13.7061 20.8682 13.7015 20.856 13.6989C20.7159 13.6683 20.6568 13.5814 20.6787 13.4383C20.7131 13.2126 20.7138 13.2105 20.9329 13.2668C21.3768 13.3809 21.8196 13.4989 22.2638 13.6122C22.3259 13.6281 22.3426 13.6537 22.3334 13.7164C22.3117 13.8646 22.296 14.0135 22.2809 14.1624C22.2744 14.2273 22.2535 14.2584 22.1784 14.2598C21.7882 14.2668 21.3981 14.2802 21.0081 14.2915C21.0081 14.2939 21.0081 14.2965 21.0081 14.299L21.008 14.2988ZM21.8463 13.8965C21.6672 13.8527 21.4899 13.8091 21.3124 13.7662C21.266 13.7549 21.2346 13.7628 21.2318 13.8217C21.2297 13.8695 21.2355 13.898 21.2939 13.8972C21.477 13.895 21.6603 13.8963 21.8463 13.8963V13.8965Z" fill="currentColor"/>
<path fill-rule="evenodd" clip-rule="evenodd" d="M6.26624 5.96372C6.26624 6.31938 5.96181 6.60943 5.68607 6.60089C5.5733 6.59738 5.49075 6.53482 5.41628 6.46494C5.19318 6.2553 4.9887 6.0275 4.79033 5.79452C4.65452 5.63492 4.65803 5.45793 4.76561 5.29116C4.87182 5.12668 5.01999 5.00798 5.22599 4.98677C5.32793 4.97624 5.41857 5.00676 5.49319 5.07603C5.57788 5.15461 5.65799 5.23776 5.74162 5.31756C5.77305 5.34746 5.77595 5.36974 5.74085 5.40056C5.66349 5.46861 5.5881 5.53895 5.5147 5.61127C5.47656 5.64881 5.44955 5.64621 5.41475 5.607C5.34639 5.52995 5.27574 5.45473 5.2028 5.3821C5.17335 5.3528 5.13779 5.31222 5.09049 5.3525C5.03998 5.39553 5.0589 5.44344 5.09567 5.48356C5.24308 5.64484 5.39186 5.80474 5.54065 5.96464C5.61298 6.0423 5.68546 6.11996 5.76008 6.19549C5.79365 6.22951 5.83226 6.26171 5.88185 6.2196C5.9345 6.17504 5.90001 6.13309 5.87117 6.09784C5.81776 6.03269 5.76176 5.96922 5.70225 5.90986C5.66532 5.87325 5.66196 5.84624 5.70103 5.811C5.77977 5.73989 5.85667 5.66681 5.93419 5.59433C5.95083 5.57877 5.97021 5.56062 5.98989 5.58335C6.10876 5.72067 6.26243 5.8377 6.26609 5.96372H6.26624Z" fill="currentColor"/>
<path fill-rule="evenodd" clip-rule="evenodd" d="M4.11152 9.05716C4.10252 9.24651 4.02592 9.4061 3.88766 9.53473C3.77428 9.64 3.64031 9.66487 3.49595 9.61025C3.18297 9.49185 2.88007 9.35026 2.58602 9.19158C2.43876 9.11209 2.37208 8.92579 2.40977 8.75155C2.4354 8.63345 2.48805 8.52726 2.56374 8.43418C2.69497 8.27291 2.85214 8.22927 3.04823 8.29976C3.14513 8.33455 3.23867 8.37834 3.33496 8.41496C3.37006 8.42839 3.37753 8.4438 3.36121 8.47752C3.31207 8.57852 3.26477 8.6806 3.217 8.78237C3.19732 8.82402 3.16985 8.81013 3.13933 8.7961C3.04854 8.75444 2.95683 8.71508 2.86588 8.67373C2.81476 8.65039 2.7615 8.62811 2.73068 8.69662C2.69924 8.76619 2.75814 8.7932 2.80453 8.81502C3.04732 8.92976 3.29132 9.0419 3.53532 9.15404C3.58903 9.17876 3.64336 9.20302 3.69921 9.2224C3.73705 9.23552 3.77245 9.23033 3.7926 9.18578C3.81289 9.14077 3.79168 9.11041 3.75719 9.09195C3.67754 9.04922 3.59605 9.0094 3.51319 8.97293C3.46543 8.95188 3.45383 8.92548 3.47642 8.87849C3.52097 8.78557 3.56492 8.69234 3.60582 8.59775C3.6252 8.55274 3.65053 8.55564 3.68593 8.57486C3.75994 8.61514 3.83502 8.65344 3.90918 8.69357C4.05323 8.77153 4.11686 8.89466 4.11168 9.05746L4.11152 9.05716Z" fill="currentColor"/>
<path fill-rule="evenodd" clip-rule="evenodd" d="M7.4789 5.30772C7.47798 5.33549 7.45937 5.34312 7.4438 5.35289C7.2613 5.46701 7.07788 5.57992 6.89644 5.69573C6.85096 5.72472 6.83677 5.69634 6.8177 5.66582C6.61902 5.34831 6.42003 5.03095 6.22135 4.71343C6.14856 4.59702 6.077 4.47984 6.00299 4.36418C5.97567 4.32146 5.97781 4.29568 6.02557 4.2673C6.19739 4.16537 6.36723 4.05994 6.53646 3.9539C6.57309 3.93102 6.59872 3.92949 6.61978 3.97008C6.62405 3.97832 6.6297 3.9861 6.63397 3.99434C6.67014 4.06315 6.75132 4.12265 6.74506 4.19452C6.7382 4.2737 6.63031 4.28545 6.56973 4.33092C6.53494 4.35701 6.52212 4.37654 6.54898 4.4127C6.55264 4.41774 6.556 4.42308 6.55951 4.42827C6.59933 4.48777 6.6265 4.5726 6.68219 4.60037C6.74613 4.63211 6.80305 4.54636 6.86561 4.51737C6.86836 4.516 6.87111 4.5134 6.87385 4.5131C7.00051 4.50257 6.97915 4.63516 7.04095 4.68856C7.06857 4.71237 7.09481 4.75722 7.03545 4.78652C7.03271 4.78789 7.02996 4.78957 7.02767 4.79155C6.97686 4.83504 6.8618 4.85289 6.8766 4.91102C6.90147 5.00898 6.97701 5.09472 7.03561 5.18276C7.05361 5.20977 7.08123 5.1878 7.10199 5.17498C7.15509 5.14233 7.20865 5.10983 7.26038 5.07504C7.29441 5.05216 7.32096 5.04743 7.34522 5.08786C7.38383 5.15209 7.42488 5.2148 7.4644 5.27843C7.47081 5.2888 7.47524 5.30055 7.47859 5.30757L7.4789 5.30772Z" fill="currentColor"/>
<path fill-rule="evenodd" clip-rule="evenodd" d="M18.0408 4.30324C18.0174 4.34245 17.9941 4.38639 17.9666 4.42744C17.8705 4.57086 17.8674 4.57406 17.7285 4.47901C17.6564 4.42957 17.617 4.42301 17.5671 4.51135C17.469 4.68514 17.4615 4.68361 17.6287 4.78737C17.68 4.81925 17.6962 4.84763 17.6542 4.89585C17.6522 4.89814 17.651 4.90119 17.6493 4.90378C17.6098 4.96344 17.5824 5.05178 17.5274 5.07513C17.4674 5.10045 17.4063 5.01867 17.3458 4.98404C17.3091 4.96298 17.2889 4.96756 17.2694 4.9993C17.2219 5.07635 17.1774 5.15523 17.1275 5.2306C17.103 5.26737 17.1252 5.28004 17.1494 5.29545C17.2047 5.33069 17.2599 5.36579 17.3159 5.40012C17.3553 5.42422 17.3664 5.45337 17.3364 5.49227C17.3345 5.49471 17.3332 5.49761 17.3316 5.50036C17.2471 5.65223 17.1303 5.68193 16.9813 5.58947C16.8645 5.51714 16.7486 5.44345 16.6297 5.37494C16.5664 5.33848 16.5618 5.30811 16.6025 5.24433C16.8705 4.82307 17.1343 4.39936 17.3962 3.97428C17.4314 3.91722 17.4565 3.91233 17.5114 3.94819C17.6629 4.04706 17.8189 4.13906 17.9722 4.23519C17.9976 4.25106 18.0285 4.26341 18.0411 4.30339L18.0408 4.30324Z" fill="currentColor"/>
<path fill-rule="evenodd" clip-rule="evenodd" d="M9.10174 3.12795C9.09853 3.12856 9.09243 3.12993 9.08632 3.13069C9.02574 3.13848 8.93907 3.19569 8.91206 3.15373C8.86231 3.07607 8.85163 2.97308 8.82676 2.88016C8.81791 2.84721 8.84873 2.84721 8.86781 2.84202C9.13607 2.77015 9.40464 2.69966 9.67275 2.62719C9.71685 2.61529 9.7373 2.63192 9.74768 2.67144C9.75241 2.68959 9.75699 2.70775 9.76141 2.72591C9.77698 2.78923 9.81696 2.85926 9.80185 2.91434C9.78354 2.98117 9.69137 2.96454 9.63125 2.98285C9.5667 3.00253 9.58226 3.04449 9.59371 3.08675C9.65795 3.32462 9.72265 3.56218 9.78735 3.7999C9.82413 3.93539 9.85968 4.07118 9.89859 4.20606C9.91675 4.26908 9.90531 4.30417 9.83389 4.31805C9.75149 4.33407 9.6697 4.35681 9.59081 4.38534C9.5197 4.41113 9.49345 4.38946 9.47499 4.31943C9.37702 3.94531 9.27493 3.57225 9.1733 3.19905C9.164 3.16457 9.17147 3.10903 9.10174 3.12795Z" fill="currentColor"/>
<path fill-rule="evenodd" clip-rule="evenodd" d="M21.4683 8.50411C21.4602 8.5363 21.43 8.5418 21.4057 8.55324C21.0575 8.71497 20.7101 8.87854 20.3597 9.03569C20.28 9.07139 20.2677 9.10359 20.3087 9.18064C20.3843 9.32284 20.3795 9.32544 20.2277 9.39226C20.1227 9.43855 20.0458 9.40976 19.997 9.30591C19.9347 9.17316 19.874 9.0395 19.8097 8.90768C19.783 8.8529 19.7865 8.82132 19.8488 8.79263C20.308 8.5807 20.7654 8.36542 21.2234 8.15089C21.2556 8.13579 21.2878 8.11748 21.3099 8.16386C21.3595 8.26807 21.4086 8.37259 21.4578 8.4771C21.4617 8.4855 21.4646 8.4945 21.4685 8.50411H21.4683Z" fill="currentColor"/>
<path fill-rule="evenodd" clip-rule="evenodd" d="M14.3589 2.69205C14.3027 2.93694 14.2473 3.17984 14.1913 3.42259C14.1585 3.56525 14.1274 3.70822 14.0908 3.84996C14.072 3.92259 14.0895 3.95646 14.1668 3.97233C14.3285 4.00574 14.3277 4.00941 14.2913 4.17068C14.2666 4.27962 14.1979 4.32158 14.0854 4.29656C13.9395 4.26406 13.7941 4.22851 13.6475 4.19982C13.5863 4.18792 13.571 4.16244 13.5848 4.10355C13.6994 3.61209 13.8135 3.12064 13.9237 2.62827C13.9394 2.55794 13.9649 2.54527 14.0306 2.56511C14.1199 2.59211 14.2125 2.60737 14.3032 2.63011C14.334 2.63789 14.3781 2.64018 14.3587 2.69205H14.3589Z" fill="currentColor"/>
<path fill-rule="evenodd" clip-rule="evenodd" d="M21.408 12.7241C21.2023 12.7241 20.9966 12.7455 20.7911 12.7487C20.7348 12.7496 20.7117 12.733 20.7121 12.6761C20.7125 12.5763 20.7111 12.4763 20.7063 12.3767C20.7037 12.3222 20.7267 12.3071 20.7772 12.3058C21.2854 12.2913 21.7933 12.2757 22.3015 12.2585C22.3628 12.2563 22.3828 12.2762 22.3815 12.3379C22.3793 12.4281 22.3859 12.5186 22.392 12.6088C22.3966 12.6739 22.3705 12.6936 22.3056 12.695C22.0064 12.7018 21.7073 12.7139 21.4082 12.7241C21.4082 12.7163 21.4082 12.7319 21.4082 12.7241H21.408Z" fill="currentColor"/>
<path fill-rule="evenodd" clip-rule="evenodd" d="M20.4077 10.3106C20.3659 10.317 20.3607 10.2875 20.3515 10.2605C20.3205 10.1688 20.2925 10.0761 20.2561 9.98651C20.231 9.92441 20.249 9.89969 20.3096 9.87986C20.5496 9.80097 20.7881 9.71767 21.0272 9.63558C21.2602 9.55563 21.4935 9.47659 21.7256 9.39405C21.7902 9.37101 21.8279 9.37345 21.8467 9.45127C21.8685 9.5419 21.9011 9.63024 21.9335 9.71797C21.9504 9.7642 21.9373 9.78862 21.8937 9.80342C21.4064 9.96973 20.9193 10.136 20.4321 10.3023C20.4232 10.3054 20.4144 10.3081 20.4075 10.3104L20.4077 10.3106Z" fill="currentColor"/>
<path fill-rule="evenodd" clip-rule="evenodd" d="M2.30049 16.3115C2.35253 16.1518 2.39251 16.0186 2.43996 15.888C2.46606 15.816 2.45644 15.7705 2.3893 15.7236C2.27531 15.6441 2.15659 15.5692 2.03711 15.4553C2.19688 15.4553 2.33544 15.4511 2.47354 15.4569C2.54999 15.4601 2.58951 15.4409 2.61072 15.3608C2.64566 15.2288 2.69572 15.101 2.74546 14.9537C2.79963 15.0454 2.81779 15.1324 2.84358 15.2154C2.91698 15.4525 2.91546 15.4533 3.15747 15.4545C3.25056 15.455 3.34349 15.4545 3.46038 15.4545C3.36684 15.5526 3.26902 15.6101 3.18021 15.6771C3.03433 15.7871 3.0357 15.7838 3.08545 15.9569C3.10849 16.0373 3.14893 16.1139 3.15 16.1994C3.1503 16.2175 3.17807 16.2413 3.14832 16.2551C3.12421 16.2662 3.10513 16.2534 3.08301 16.2357C2.99282 16.164 2.89699 16.0994 2.80681 16.0277C2.76515 15.9946 2.7357 15.9943 2.69297 16.0268C2.57211 16.1185 2.44744 16.2055 2.30049 16.3114V16.3115Z" fill="currentColor"/>
<path fill-rule="evenodd" clip-rule="evenodd" d="M21.9582 15.4968C21.8482 15.5783 21.7418 15.6655 21.6267 15.7391C21.5573 15.7835 21.546 15.8274 21.5723 15.9002C21.6196 16.0314 21.66 16.1652 21.6887 16.3103C21.5717 16.2257 21.4522 16.144 21.3388 16.0548C21.2816 16.0098 21.2401 16.0127 21.1848 16.0564C21.0728 16.1452 20.9556 16.2275 20.8259 16.3019C20.8696 16.1671 20.9103 16.0311 20.9581 15.8978C20.9831 15.828 20.9729 15.7852 20.9071 15.7423C20.7899 15.666 20.6799 15.5784 20.5703 15.4741C20.6956 15.4741 20.8212 15.4686 20.9459 15.4757C21.0498 15.4817 21.1116 15.4585 21.136 15.3427C21.1621 15.2186 21.2134 15.0999 21.2625 14.9524C21.3154 15.1118 21.3638 15.2453 21.4033 15.3814C21.4229 15.4486 21.4528 15.4779 21.5263 15.4748C21.6684 15.4692 21.8109 15.4731 21.9533 15.4731C21.955 15.4811 21.9565 15.489 21.9582 15.4969V15.4968Z" fill="currentColor"/>
<path fill-rule="evenodd" clip-rule="evenodd" d="M14.5015 21.6777C14.5044 21.7948 14.437 21.8843 14.3612 21.9615C14.2873 22.0369 14.3192 22.0612 14.3952 22.0905C14.4681 22.1185 14.5348 22.1603 14.596 22.2093C14.804 22.3758 14.7948 22.662 14.5772 22.8164C14.3445 22.9815 14.0209 22.9183 13.9165 22.6872C13.8463 22.5314 13.9143 22.402 13.9983 22.2774C14.0744 22.1643 14.0755 22.1664 13.9604 22.1001C13.8297 22.0246 13.7154 21.9367 13.712 21.765C13.7093 21.6205 13.7679 21.5085 13.893 21.4399C14.0422 21.3581 14.1983 21.3331 14.3563 21.4229C14.4542 21.4786 14.5072 21.56 14.5015 21.6779V21.6777ZM14.052 22.4835C14.0503 22.5465 14.0653 22.6066 14.0863 22.6655C14.1516 22.8482 14.3431 22.8715 14.4686 22.8115C14.6242 22.7372 14.6567 22.5551 14.538 22.4303C14.4768 22.366 14.4016 22.3231 14.3247 22.2815C14.1327 22.1774 14.0798 22.205 14.0523 22.4275C14.05 22.446 14.052 22.4649 14.052 22.4835ZM14.354 21.72C14.3512 21.6953 14.3499 21.6703 14.3454 21.6457C14.3222 21.5185 14.2496 21.4429 14.1423 21.4335C14.0134 21.422 13.8979 21.4919 13.86 21.6045C13.8277 21.7005 13.8698 21.803 13.9786 21.873C14.0438 21.9152 14.1153 21.9473 14.1834 21.985C14.2086 21.9991 14.2327 22.0026 14.2485 21.9757C14.2958 21.8959 14.3584 21.8218 14.354 21.7199V21.72Z" fill="currentColor"/>
<path fill-rule="evenodd" clip-rule="evenodd" d="M10.7568 23.0965C10.8551 23.0585 10.9572 23.0559 11.0498 23.0083C11.2404 22.9102 11.3515 22.7453 11.4394 22.5596C11.4466 22.5445 11.4577 22.5228 11.4367 22.5094C11.4179 22.4973 11.402 22.5152 11.3852 22.5216C11.169 22.6034 11.0037 22.5695 10.8873 22.4193C10.7686 22.2663 10.7744 22.0112 10.9012 21.8124C11.0144 21.6348 11.1873 21.5603 11.3912 21.6079C11.5491 21.6449 11.6395 21.7613 11.6938 21.9024C11.8383 22.2773 11.6593 22.7468 11.3188 22.9587C11.1629 23.0559 10.9944 23.156 10.7913 23.1066C10.7797 23.1037 10.7683 23.0998 10.7568 23.0965ZM11.5369 22.1284C11.5313 22.0065 11.5201 21.8991 11.466 21.8C11.4203 21.7166 11.3567 21.6636 11.2578 21.6699C11.1626 21.6758 11.0977 21.7263 11.0617 21.815C10.9981 21.9714 10.9924 22.1298 11.0466 22.2892C11.0909 22.4193 11.1778 22.4801 11.2967 22.4682C11.4603 22.4517 11.5021 22.4105 11.5224 22.2457C11.5278 22.2025 11.5331 22.1595 11.5369 22.1284Z" fill="currentColor"/>
<path fill-rule="evenodd" clip-rule="evenodd" d="M12.2431 22.0455C12.1903 21.7771 12.457 21.5374 12.7382 21.5937C13.0105 21.6482 13.1354 21.8913 13.037 22.1796C12.968 22.3816 12.8333 22.5431 12.7039 22.7074C12.6537 22.7712 12.6032 22.8345 12.553 22.8983C12.542 22.9123 12.5212 22.9262 12.5354 22.9454C12.5421 22.9544 12.5634 22.9565 12.5775 22.9555C12.733 22.943 12.8895 22.937 13.0431 22.9077C13.0976 22.8973 13.1373 22.861 13.1679 22.8151C13.1805 22.7963 13.1972 22.7785 13.2218 22.7901C13.2497 22.8032 13.2343 22.8275 13.2304 22.8476C13.1882 23.0632 13.1888 23.0681 12.9754 23.0928C12.7739 23.1161 12.5711 23.1284 12.3689 23.1436C12.3432 23.1456 12.3064 23.1592 12.2925 23.1285C12.2772 23.0945 12.312 23.073 12.3317 23.0507C12.5122 22.8441 12.6966 22.6406 12.8202 22.3914C12.8682 22.2945 12.8977 22.1941 12.896 22.0858C12.8933 21.9263 12.7878 21.7936 12.6439 21.7666C12.5048 21.7404 12.3621 21.8232 12.2971 21.9657C12.2847 21.9927 12.287 22.0296 12.2431 22.0457V22.0455Z" fill="currentColor"/>
<path fill-rule="evenodd" clip-rule="evenodd" d="M9.66414 21.4807C9.78149 21.454 9.89822 21.4241 10.0165 21.4018C10.0955 21.3869 10.0752 21.4448 10.0653 21.4854C10.0044 21.734 9.94187 21.9822 9.87991 22.2306C9.84283 22.3789 9.8056 22.5272 9.76897 22.6757C9.7354 22.8122 9.74227 22.8255 9.87076 22.8791C9.88525 22.8852 9.90143 22.8885 9.89441 22.9232C9.71236 22.9006 9.53886 22.8422 9.3623 22.7981C9.37009 22.7593 9.39176 22.7685 9.40885 22.7692C9.53794 22.7753 9.55503 22.7669 9.58601 22.644C9.66246 22.3414 9.73876 22.0388 9.80865 21.7347C9.8529 21.5422 9.84756 21.541 9.66429 21.4807H9.66414Z" fill="currentColor"/>
<path fill-rule="evenodd" clip-rule="evenodd" d="M3.99918 12.7516C4.00818 8.32075 7.57512 4.75792 11.9839 4.74953C16.4532 4.74113 19.9646 8.35493 20.0008 12.679C20.0381 17.149 16.3848 20.7889 11.925 20.7465C7.61236 20.7055 4.0126 17.209 3.99902 12.7516H3.99918ZM6.1102 7.64514C6.04016 7.72586 5.97179 7.80794 5.90495 7.89125C5.50576 8.39033 5.17081 8.9361 4.90331 9.51635C4.50534 10.3796 4.28316 11.287 4.21815 12.2336C4.1591 13.0949 4.24577 13.9429 4.46872 14.7766C4.65046 15.4559 4.92254 16.0978 5.27961 16.7037C5.31227 16.7589 5.34096 16.7786 5.40459 16.7461C5.5549 16.6695 5.71329 16.6106 5.87444 16.561C6.24753 16.4458 6.62719 16.3686 7.0186 16.4335C7.62182 16.5334 8.21374 16.4829 8.79773 16.3169C9.1162 16.2264 9.40582 16.0885 9.58375 15.7855C9.66158 15.6529 9.72872 15.5154 9.77175 15.3683C9.91657 14.8726 10.2265 14.5323 10.7099 14.3473C10.964 14.2501 11.2271 14.1828 11.486 14.1019C11.6691 14.0447 11.8628 14.007 12.0047 13.8602C12.0106 13.8531 12.0164 13.8459 12.0222 13.8387L12.0226 13.8383C12.0958 13.7542 12.1368 13.6529 12.1681 13.5488C12.1939 13.4632 12.2134 13.3735 12.1748 13.2843L12.1765 13.2772C12.1756 13.2496 12.1768 13.2215 12.1547 13.2003C12.1506 13.1497 12.1269 13.1086 12.0915 13.0594C12.0676 13.1208 12.0293 13.1623 12.0253 13.2196C11.9911 13.2788 11.9592 13.3396 11.9221 13.397C11.8114 13.5682 11.6847 13.7177 11.4657 13.7542C11.2873 13.7839 11.1096 13.8192 10.933 13.8586C10.7632 13.8964 10.583 13.8985 10.4261 13.9817C10.1729 14.1156 10.0074 14.3303 9.89596 14.5899C9.87964 14.6278 9.86545 14.6669 9.85019 14.7054C9.79144 14.4097 9.863 14.1538 10.0742 13.9431C10.279 13.7389 10.5352 13.6451 10.8176 13.6341C11.1759 13.6202 11.4361 13.4586 11.6031 13.1469C11.6905 12.9838 11.7502 12.8073 11.7903 12.6269C11.8291 12.4529 11.8242 12.2608 11.8953 12.0966C11.9817 11.897 12.1243 11.715 12.3194 11.6187C12.4747 11.542 12.6659 11.5269 12.8273 11.5943C12.8676 11.6112 12.9101 11.6634 12.9577 11.6556C13.0053 11.6479 13.0709 11.5728 13.1092 11.543C13.221 11.4558 13.333 11.3685 13.4449 11.2812C13.7286 11.06 14.0139 10.8374 14.33 10.6637C14.6356 10.4957 15.0156 10.4236 15.3618 10.4626C15.3815 10.4687 15.4013 10.4748 15.4212 10.4809C15.4149 10.479 15.3063 10.5173 15.2915 10.5212C15.2356 10.5365 15.1804 10.5534 15.1254 10.5719C15.0157 10.6088 14.9082 10.6517 14.8029 10.6997C14.592 10.796 14.3907 10.913 14.2003 11.0449C13.8476 11.289 13.5317 11.5832 13.2398 11.8973C13.153 11.9909 13.1708 12.0777 13.1838 12.1964C13.1978 12.3255 13.2207 12.4544 13.269 12.5754C13.3152 12.6916 13.3721 12.8029 13.5029 12.8488C13.5154 12.8549 13.5279 12.861 13.5404 12.8671C13.7026 12.9481 13.8635 13.0311 13.9927 13.1626C13.9982 13.1692 14.0037 13.1758 14.0091 13.1823C14.0156 13.1893 14.022 13.1964 14.0286 13.2035L14.0268 13.2029C14.17 13.4324 14.2091 13.686 14.2006 13.9507C14.199 13.9603 14.1977 13.9698 14.1961 13.9794C14.1917 13.9806 14.1873 13.9812 14.1827 13.9812C14.1859 13.9678 14.1821 13.957 14.1705 13.9492C14.165 13.9211 14.1653 13.8912 14.145 13.8677C14.1482 13.8636 14.1478 13.8599 14.1435 13.857C14.0704 13.5301 13.8627 13.2395 13.5587 13.0905C13.4979 13.0606 13.4341 13.0366 13.3744 13.0043C13.1058 12.8592 12.9487 12.5623 12.8881 12.2631C12.8653 12.1506 12.8511 12.0295 12.7784 11.9407C12.6963 11.8406 12.5473 11.8056 12.4254 11.8493C12.3035 11.8929 12.2128 12.0079 12.1881 12.135C12.1768 12.1926 12.178 12.2519 12.1814 12.3105C12.2043 12.6962 12.307 13.2841 12.7732 13.3494L12.7811 13.3528L12.7895 13.3517C12.7988 13.3966 12.7631 13.4098 12.735 13.4271C12.6718 13.466 12.601 13.4742 12.5293 13.4687C12.4263 13.4609 12.4396 13.5975 12.4204 13.6697C12.3947 13.7667 12.3543 13.8625 12.28 13.9324C12.2556 13.9554 12.227 13.9762 12.2133 14.0067C12.1925 14.0526 12.2107 14.1062 12.2316 14.1521C12.5127 14.7653 13.2374 15.0822 13.8435 15.27C14.1372 15.3611 14.4398 15.4231 14.7458 15.4545C14.922 15.4725 15.1343 15.4937 15.3064 15.4402C15.3533 15.4257 15.3977 15.3962 15.4193 15.3523C15.4393 15.3115 15.4378 15.2641 15.4377 15.2188C15.4371 15.0957 15.4493 14.9724 15.4741 14.8517C15.4818 14.8151 15.4897 14.7737 15.4689 14.7426C15.4459 14.7076 15.3986 14.7015 15.3579 14.6919C15.3153 14.682 15.2729 14.6658 15.2353 14.6433C15.2234 14.6361 15.1287 14.5688 15.1702 14.5601C15.2845 14.5363 15.4099 14.5551 15.5133 14.5008C15.5614 14.4756 15.6048 14.4197 15.5819 14.3706C15.5661 14.3366 15.526 14.3222 15.4892 14.3146C15.4039 14.2969 15.3159 14.2981 15.2294 14.2868C15.1428 14.2755 15.0542 14.2499 14.9919 14.189C14.9736 14.1712 14.9587 14.1396 14.9777 14.1228C14.9883 14.1135 15.004 14.1144 15.018 14.116C15.1589 14.1303 15.3015 14.1405 15.4428 14.1251C15.4985 14.119 15.5796 14.117 15.6229 14.0795C15.6627 14.045 15.6725 13.9806 15.6824 13.9322L15.6859 13.9275L15.6833 13.9223C15.6897 13.9052 15.6984 13.8885 15.7021 13.8708C15.7285 13.7464 15.7261 13.7431 15.6014 13.7418C15.5172 13.7411 15.4328 13.7418 15.3505 13.7212C15.288 13.7057 15.2387 13.672 15.2458 13.5993C15.2558 13.4994 15.3368 13.3059 15.4453 13.2778C15.4622 13.3247 15.443 13.3819 15.4357 13.4295C15.4276 13.4823 15.4296 13.543 15.4685 13.5796C15.505 13.6141 15.561 13.615 15.6112 13.6138C15.6705 13.6124 15.73 13.6111 15.7894 13.6099C15.8259 13.6091 15.8637 13.6079 15.8967 13.592C15.9296 13.5761 15.9563 13.5412 15.9507 13.5052C15.9565 13.5423 16.0679 13.5786 16.0969 13.5844C16.1544 13.596 16.2592 13.5909 16.3009 13.5404C16.3456 13.486 16.3177 13.367 16.307 13.3052C16.2579 13.0197 16.1973 12.736 16.1259 12.4553C16.0896 12.3129 16.0505 12.1715 16.0087 12.0307C15.9933 11.979 15.9605 11.9272 15.9649 11.8714C15.9693 11.8155 16.0139 11.7777 16.0514 11.7396C16.1428 11.6469 16.2498 11.5705 16.3343 11.471C16.36 11.4408 16.3839 11.4075 16.3929 11.3689C16.4047 11.3187 16.3897 11.2666 16.3749 11.2173C16.3343 11.0823 16.2939 10.9472 16.2533 10.8122C16.2202 10.702 16.1607 10.5754 16.2873 10.5022C16.2978 10.5003 16.3082 10.4985 16.3188 10.4967C16.3528 10.4977 16.3868 10.4974 16.4207 10.5002C16.5435 10.5101 16.5962 10.4727 16.66 10.3686C16.7237 10.2646 16.7593 10.1494 16.7649 10.0301C16.7727 9.86575 16.7211 9.69929 16.6217 9.56838C16.7442 9.60591 16.8618 9.66557 16.9536 9.75498C17.0453 9.84439 17.1092 9.96584 17.115 10.0939C17.1162 10.1204 17.1152 10.1479 17.126 10.1721C17.1582 10.2435 17.2333 10.1866 17.2777 10.163C17.4236 10.0852 17.5627 9.99499 17.6933 9.89368C17.7197 9.87323 17.7472 9.85019 17.7568 9.81815C17.7684 9.77924 17.7507 9.73805 17.7301 9.70311C17.5018 9.3151 16.9139 9.22615 16.5061 9.20631C16.4938 9.2054 16.4816 9.20448 16.4694 9.20372C15.7396 9.15108 15.0054 9.22203 14.2834 9.34547C13.5651 9.46814 12.8569 9.66069 12.1846 9.94357C11.5916 10.193 11.0206 10.5124 10.4772 10.8557C10.3647 10.9268 10.2533 10.9996 10.143 11.074C9.75512 11.3361 9.37912 11.6215 9.06538 11.9689C8.88501 12.1685 8.72173 12.3982 8.67626 12.6634C8.66237 12.7444 8.66024 12.83 8.68999 12.9068C8.72891 13.0075 8.81879 13.0819 8.91752 13.1256C8.98206 13.1541 9.05089 13.1712 9.12001 13.1843C9.12856 13.186 9.27627 13.2189 9.26711 13.2252C9.18013 13.2856 8.97672 13.2656 8.87403 13.2586C8.78567 13.2527 8.69442 13.2373 8.62209 13.1863C8.53908 13.1277 8.49208 13.0298 8.46781 12.931C8.38068 12.5766 8.54808 12.2072 8.76751 11.9155C9.09102 11.4852 9.52866 11.155 9.97928 10.8606C10.2251 10.6999 10.4767 10.5479 10.7334 10.4051C10.8617 10.3337 10.9913 10.2646 11.1222 10.1979C11.2765 10.1192 11.4323 10.0473 11.5875 9.96752C11.7517 9.883 11.9185 9.80366 12.0876 9.72965C12.4257 9.5815 12.7732 9.45441 13.1272 9.34928C13.8005 9.14925 14.5016 9.031 15.2014 8.97531C15.3786 8.96112 15.5555 8.94175 15.7329 8.93122C15.7815 8.92832 15.9595 8.94953 15.9902 8.91199C16.0209 8.87446 15.9469 8.76216 15.9283 8.72554C15.7874 8.44861 15.5837 8.20556 15.3449 8.00782C15.0595 7.77148 14.725 7.59845 14.3748 7.47776C14.0881 7.37905 13.7898 7.31451 13.4879 7.28597C13.3117 7.26934 13.1345 7.26492 12.9575 7.26049C12.84 7.2576 12.7227 7.2547 12.6052 7.2518C12.5243 7.24981 12.5048 7.23517 12.5881 7.19046C12.6512 7.15659 12.7202 7.13492 12.789 7.11646C13.5677 6.90728 14.4113 7.08778 15.1296 7.45427C15.7128 7.75179 16.2444 8.18282 16.5629 8.75499C16.6429 8.89857 16.7096 8.9628 16.8779 8.9718C17.1297 8.98508 17.3791 9.03741 17.6151 9.12621C17.7811 9.18877 17.9444 9.27223 18.0623 9.40466C18.1804 9.5371 18.2464 9.72615 18.196 9.89627C18.1611 10.0148 18.0753 10.1114 17.9853 10.1959C17.5916 10.5656 17.0503 10.7773 16.5409 10.9335C16.4686 10.9558 16.4569 10.9802 16.4942 11.0401C16.5074 11.0612 16.5155 11.0853 16.526 11.108C16.6143 11.2983 16.5893 11.4709 16.4504 11.6292C16.3824 11.7069 16.3131 11.7838 16.2316 11.8465C16.1648 11.8979 16.1555 11.9478 16.1807 12.0302C16.3262 12.5055 16.4323 12.9901 16.4884 13.4846C16.5043 13.6243 16.4764 13.6616 16.3438 13.7063C16.2273 13.7456 16.1057 13.7608 15.9838 13.7577C15.9124 13.7559 15.884 13.7838 15.8718 13.8499C15.8553 13.9388 15.8327 14.0267 15.8098 14.1143C15.7909 14.1872 15.7833 14.2556 15.8037 14.3331C15.8365 14.4565 15.8011 14.5683 15.6954 14.6503C15.6687 14.6709 15.6415 14.6861 15.6376 14.7286C15.62 14.9152 15.5977 15.1011 15.6035 15.2894C15.6089 15.4609 15.5488 15.5477 15.389 15.6103C15.2678 15.6577 15.1406 15.6703 15.0119 15.6718C14.805 15.6744 14.5996 15.6539 14.3979 15.6094C14.3191 15.592 14.2749 15.6207 14.2317 15.6771C14.1839 15.7398 14.2433 15.7667 14.2708 15.8022C14.3915 15.9579 14.5102 16.1155 14.6054 16.2876C14.7122 16.4806 14.8341 16.6713 14.8152 16.9078C14.8032 17.0584 14.763 17.2035 14.7165 17.3456C14.5662 17.8041 14.6019 18.242 14.8708 18.646C15.0995 18.9896 15.2558 19.3524 15.2498 19.7723C15.2491 19.8233 15.2669 19.8315 15.3119 19.8085C15.4064 19.7603 15.5045 19.7186 15.5985 19.6695C16.171 19.3695 16.6992 19.0044 17.1828 18.5758C17.5603 18.2413 17.8993 17.8707 18.2071 17.4713C18.2229 17.451 18.256 17.4299 18.2384 17.4002C18.2224 17.3733 18.1871 17.3836 18.16 17.3846C18.0663 17.388 17.9729 17.3941 17.8807 17.4133C17.5072 17.4908 17.2069 17.7006 16.9241 17.9421C16.8861 17.9746 16.8478 18.0068 16.8107 18.0402C16.7761 18.0714 16.7427 18.1039 16.6973 18.1464C16.7404 17.8779 16.9125 17.7137 17.1039 17.534C16.6931 17.5502 16.3244 17.5056 15.9685 17.3688C15.6171 17.2336 15.1822 16.9133 15.0774 16.7003C15.1285 16.7258 15.1764 16.7476 15.2223 16.7729C15.9548 17.1767 16.7273 17.3282 17.5551 17.153C17.882 17.0839 18.2023 16.9833 18.5358 16.9469C18.5812 16.942 18.5966 16.9072 18.6162 16.8761C18.7933 16.5959 18.9512 16.3053 19.0888 16.0039C19.7207 14.6211 19.9304 13.1742 19.7264 11.67C19.5787 10.5816 19.2094 9.57036 18.6289 8.63644C18.1765 7.90849 17.6207 7.27056 16.9595 6.72647C16.2489 6.1418 15.4586 5.69535 14.5892 5.38898C13.8197 5.11785 13.0271 4.97336 12.213 4.95184C11.1408 4.92346 10.1047 5.10564 9.10826 5.5057C8.46339 5.76462 7.8559 6.10731 7.30243 6.52782C6.86814 6.85784 6.46804 7.23303 6.1105 7.64484L6.1102 7.64514ZM13.1292 18.3593C12.8992 18.6188 12.656 18.8643 12.3914 19.0892C11.8252 19.5708 11.2158 19.9873 10.5566 20.3312C10.528 20.3461 10.5012 20.3643 10.459 20.3896C10.7334 20.4551 10.9933 20.4822 11.2525 20.5132C11.3024 20.5192 11.3362 20.4913 11.3699 20.4649C11.9466 20.0138 12.4723 19.5148 12.8573 18.8835C12.9601 18.7149 13.0617 18.5456 13.1281 18.3582L13.1324 18.3559L13.1292 18.359V18.3593ZM9.29031 17.4373C9.24895 17.4359 9.22393 17.4164 9.19738 17.4014C8.85678 17.2087 8.50413 17.0451 8.12859 16.9307C7.2945 16.6765 6.50023 16.7589 5.7461 17.2015C5.64203 17.2626 5.64264 17.2656 5.71757 17.3665C6.05953 17.8269 6.44347 18.2487 6.87654 18.6252C7.58367 19.2401 8.37488 19.7143 9.25033 20.0483C9.30801 20.0703 9.3634 20.0733 9.42414 20.0596C9.70751 19.9958 9.98691 19.9191 10.2634 19.83C10.9371 19.6127 11.5715 19.3175 12.1376 18.8875C12.8508 18.3459 13.3637 17.6655 13.579 16.7829C13.6797 16.3698 13.7806 15.9573 13.9965 15.5847C14.0376 15.5137 13.9779 15.5178 13.9392 15.5062C13.525 15.382 13.1235 15.2284 12.7546 14.9989C12.5959 14.9004 12.4509 14.7842 12.3105 14.6539C12.3595 15.2478 12.387 15.8384 12.3502 16.4307C12.3068 16.1945 12.2666 15.958 12.2281 15.7212C12.1484 15.2313 12.0671 14.7417 11.9685 14.2551C11.9583 14.2043 11.9467 14.179 11.8915 14.2055C11.6107 14.341 11.3084 14.4069 11.0079 14.48C10.6173 14.5751 10.3209 14.7871 10.1761 15.1762C10.1326 15.2931 10.0916 15.4116 10.0614 15.5325C9.90848 16.1443 9.46686 16.4692 8.91828 16.6864C8.76446 16.7473 8.59828 16.749 8.43073 16.7583C8.75408 16.938 9.05958 17.1352 9.29016 17.4374L9.29031 17.4373ZM12.3453 20.5376C12.6299 20.5305 12.9119 20.4967 13.1934 20.4589C13.2444 20.452 13.2885 20.4322 13.3254 20.3948C13.5018 20.2166 13.6633 20.0265 13.7847 19.8062C13.8897 19.6159 13.9424 19.4168 13.9045 19.1942C13.8632 18.9504 13.7943 18.7137 13.7397 18.4734C13.6653 18.146 13.6726 17.825 13.7916 17.5068C13.9462 17.0933 14.1349 16.6965 14.3544 16.3143C14.3834 16.2638 14.3809 16.2313 14.346 16.1905C14.2708 16.103 14.1966 16.0143 14.1238 15.9246C14.095 15.8892 14.0774 15.8729 14.044 15.9246C13.8442 16.2339 13.7174 16.5705 13.6735 16.9351C13.6518 17.1149 13.6379 17.2955 13.607 17.4739C13.46 18.3187 13.1165 19.0822 12.6429 19.7912C12.4866 20.0251 12.318 20.2497 12.1422 20.4693C12.1265 20.4888 12.0883 20.5079 12.1075 20.5379C12.1233 20.5624 12.1596 20.5489 12.1864 20.5482C12.2395 20.5466 12.2923 20.5413 12.3454 20.5376H12.3453ZM14.102 20.2602C14.3507 20.1927 14.574 20.1139 14.7955 20.0303C14.8421 20.0128 14.8502 19.9745 14.8549 19.9333C14.8659 19.8371 14.8816 19.7412 14.8856 19.6447C14.9005 19.277 14.8598 18.9217 14.6457 18.606C14.5163 18.4151 14.4557 18.2009 14.4409 17.9723C14.418 17.6219 14.4861 17.2824 14.5657 16.9446C14.6023 16.7896 14.6162 16.6382 14.5254 16.4963C14.503 16.4974 14.4967 16.5134 14.49 16.5265C14.2827 16.9293 14.0893 17.3384 13.9607 17.7745C13.8963 17.9926 13.8931 18.2101 13.972 18.4275C14.0124 18.5387 14.0406 18.6544 14.0748 18.7679C14.1873 19.1415 14.2608 19.519 14.1993 19.9121C14.1815 20.026 14.1392 20.1325 14.1021 20.2602H14.102Z" fill="currentColor"/>
<path fill-rule="evenodd" clip-rule="evenodd" d="M11.4795 10.014C11.4871 9.99717 11.5015 9.99397 11.5179 9.99458C11.5095 10.0098 11.4952 10.0133 11.4795 10.014Z" fill="currentColor"/>
<path fill-rule="evenodd" clip-rule="evenodd" d="M12.3978 13.7627C12.3984 13.7786 12.3953 13.7928 12.3799 13.8013C12.3795 13.7854 12.3831 13.7715 12.3978 13.7627Z" fill="currentColor"/>
<path fill-rule="evenodd" clip-rule="evenodd" d="M13.2578 15.0406C13.2752 15.0394 13.2906 15.0423 13.2993 15.06C13.2824 15.0603 13.2676 15.0559 13.2578 15.0406Z" fill="currentColor"/>
<path fill-rule="evenodd" clip-rule="evenodd" d="M7.97101 6.07581C7.96444 6.08115 7.95773 6.08648 7.95117 6.09167C7.95773 6.08633 7.96444 6.08115 7.97101 6.07581Z" fill="currentColor"/>
<path fill-rule="evenodd" clip-rule="evenodd" d="M6.71298 7.02686C6.70611 7.03357 6.69925 7.04043 6.69238 7.04715C6.69925 7.04028 6.70611 7.03357 6.71298 7.02686Z" fill="currentColor"/>
<path fill-rule="evenodd" clip-rule="evenodd" d="M11.2158 10.4285C11.2089 10.4332 11.2022 10.4379 11.1953 10.4427C11.202 10.4379 11.2089 10.4332 11.2158 10.4285Z" fill="currentColor"/>
<path fill-rule="evenodd" clip-rule="evenodd" d="M12.0049 13.8604C12.0108 13.8532 12.0166 13.846 12.0224 13.8389C12.0166 13.846 12.0107 13.8532 12.0049 13.8604Z" fill="currentColor"/>
<path fill-rule="evenodd" clip-rule="evenodd" d="M12.1357 11.7403C12.1429 11.7339 12.1501 11.7275 12.1571 11.7209C12.1499 11.7274 12.1428 11.7339 12.1357 11.7403Z" fill="currentColor"/>
<path fill-rule="evenodd" clip-rule="evenodd" d="M13.0727 12.7318C13.0673 12.7248 13.062 12.7177 13.0566 12.7106C13.062 12.7176 13.0673 12.7246 13.0727 12.7318Z" fill="currentColor"/>
<path fill-rule="evenodd" clip-rule="evenodd" d="M15.2305 15.4497C15.2355 15.4407 15.2413 15.439 15.2483 15.4479L15.2398 15.4514L15.2306 15.4497H15.2305Z" fill="currentColor"/>
<path fill-rule="evenodd" clip-rule="evenodd" d="M12.9973 12.6009C12.992 12.5911 12.9868 12.5813 12.9814 12.5714C12.9868 12.5812 12.992 12.5909 12.9973 12.6009Z" fill="currentColor"/>
<path fill-rule="evenodd" clip-rule="evenodd" d="M13.1299 18.3595L13.1336 18.3562L13.1289 18.3587L13.1299 18.3595Z" fill="currentColor"/>
<path fill-rule="evenodd" clip-rule="evenodd" d="M6.13168 7.62817C6.12527 7.63489 6.11871 7.6416 6.1123 7.64816C6.11871 7.64145 6.12527 7.63473 6.13168 7.62817Z" fill="currentColor"/>
<path fill-rule="evenodd" clip-rule="evenodd" d="M5.92502 7.87292C5.91876 7.87949 5.91251 7.88605 5.90625 7.89245C5.91251 7.88589 5.91876 7.87933 5.92502 7.87292Z" fill="currentColor"/>
<path fill-rule="evenodd" clip-rule="evenodd" d="M7.87686 6.13489C7.87076 6.13946 7.86465 6.14389 7.8584 6.14847C7.8645 6.14389 7.8706 6.13931 7.87686 6.13489Z" fill="currentColor"/>
<path fill-rule="evenodd" clip-rule="evenodd" d="M12.1122 11.4474C12.0759 11.4607 12.0492 11.478 12.0467 11.5017C12.0208 11.7481 11.9266 11.9709 11.8131 12.1872C11.7324 12.3268 11.6398 12.458 11.52 12.5668C11.4691 12.6131 11.4482 12.6596 11.4563 12.7299C11.4809 12.9468 11.4197 13.1312 11.2338 13.2615C11.2279 13.2663 11.2218 13.271 11.2157 13.2759C11.2071 13.2815 11.1987 13.2872 11.1902 13.2928C11.1846 13.2913 11.1804 13.293 11.1775 13.298C11.1688 13.3024 11.1603 13.3068 11.1516 13.3113H11.1447L11.1402 13.3161C11.1327 13.321 11.1253 13.3261 11.1179 13.3309L11.1098 13.3306L11.1032 13.3354C10.8966 13.4039 10.6843 13.4495 10.4715 13.4939C10.2061 13.5491 9.94044 13.6065 9.73718 13.8082C9.72726 13.8181 9.71353 13.8235 9.70468 13.8151C9.6972 13.8081 9.69659 13.7928 9.69445 13.7809C9.68636 13.7365 9.74557 13.7157 9.73367 13.6698C9.73397 13.664 9.73413 13.6584 9.73443 13.6526C9.74084 13.6459 9.74725 13.6392 9.75366 13.6324C9.76602 13.6273 9.77411 13.6189 9.7735 13.6045C9.81317 13.5798 9.8382 13.5412 9.8678 13.5069C9.88306 13.5032 9.89679 13.4974 9.90229 13.4808C9.99308 13.4329 10.0837 13.385 10.1745 13.337L10.1802 13.3377L10.1838 13.3334C10.2049 13.3331 10.2241 13.3282 10.2398 13.3132C10.2609 13.3136 10.2816 13.3129 10.2969 13.2951C10.4669 13.2467 10.6421 13.2165 10.8058 13.1468V13.1482C10.8583 13.1506 10.901 13.1218 10.945 13.1004C11.0107 13.0685 11.0674 13.0237 11.0805 12.9457C11.0866 12.9098 11.0816 12.8685 11.0285 12.888C10.8542 12.9521 10.6663 12.9707 10.4963 13.0484C10.4916 13.0459 10.4876 13.0468 10.4844 13.051C10.4661 13.0488 10.4497 13.0517 10.4371 13.0667L10.4323 13.0642L10.4281 13.0677C10.3569 13.079 10.2885 13.098 10.2288 13.1408L10.2234 13.1393C10.2011 13.1408 10.1794 13.1442 10.1635 13.1622C10.1577 13.1639 10.1518 13.1654 10.146 13.1671C10.1388 13.1712 10.1316 13.1753 10.1245 13.1794L10.1266 13.1776C10.1081 13.1767 10.093 13.1828 10.0817 13.1977C10.0776 13.1947 10.0743 13.1953 10.0715 13.1996C9.99537 13.2281 9.91648 13.2515 9.85544 13.3097L9.84995 13.3087L9.84644 13.3131C9.82141 13.3164 9.80203 13.3285 9.7883 13.3496C9.77273 13.3503 9.75946 13.3549 9.7529 13.3706C9.74588 13.376 9.73886 13.3814 9.73184 13.3868L9.73306 13.3857C9.72406 13.392 9.7152 13.3981 9.70635 13.4043C9.69232 13.4053 9.68255 13.4121 9.67767 13.4255C9.64165 13.4403 9.61266 13.4634 9.59267 13.4971C9.57787 13.4998 9.56917 13.5087 9.56627 13.5233C9.42115 13.6518 9.3415 13.8087 9.35782 14.0069C9.35721 14.0227 9.3566 14.0384 9.35599 14.0543C9.32028 14.0482 9.3096 14.0174 9.29358 13.9915C9.19104 13.8261 9.21927 13.6628 9.30091 13.5002C9.30548 13.4983 9.30655 13.4953 9.30441 13.491C9.31159 13.482 9.31861 13.473 9.32578 13.464C9.36133 13.4246 9.39689 13.3853 9.43244 13.3459C9.45808 13.3258 9.48463 13.3065 9.50905 13.285C9.53163 13.2652 9.55986 13.2438 9.51958 13.2136C9.51561 13.2028 9.51149 13.1919 9.50752 13.1811C9.50859 13.1697 9.50416 13.1617 9.49257 13.1585L9.49486 13.1591C9.48997 13.1379 9.48707 13.1161 9.48021 13.0957C9.41383 12.8987 9.41856 12.7035 9.49547 12.5107C9.56398 12.3387 9.68697 12.2061 9.81363 12.0766C9.82034 12.0761 9.82477 12.0729 9.82736 12.0667C9.85681 12.0494 9.8852 12.0313 9.90107 11.9992L9.90259 11.9979C9.90885 11.9925 9.91526 11.9872 9.92152 11.9817L9.92228 11.9811C9.94685 11.9776 9.96623 11.966 9.97874 11.9442L9.97813 11.9446C9.98515 11.9384 9.99217 11.9323 9.99919 11.9262L9.99858 11.9277C10.1463 11.8474 10.2871 11.7556 10.4396 11.6833C10.9908 11.4219 11.5808 11.3062 12.179 11.2325C12.7267 11.1651 13.1843 10.9195 13.5997 10.5748C13.9499 10.2843 14.3065 9.97455 14.692 9.73164C15.072 9.4921 15.5296 9.33128 15.9692 9.42298C16.1275 9.45609 16.2833 9.52444 16.3915 9.64452C16.5468 9.81708 16.5744 10.1007 16.3681 10.246C16.3239 10.2771 16.1981 10.3496 16.1442 10.3165C16.1694 10.1953 16.1937 10.0649 16.1447 9.9512C16.1003 9.84821 16.0004 9.77635 15.8928 9.74507C15.7852 9.71379 15.6701 9.71852 15.5592 9.7353C15.2937 9.77528 15.0419 9.88071 14.8064 10.0098C14.4802 10.1886 14.1797 10.4146 13.9174 10.6782C13.8443 10.7516 13.774 10.8282 13.6922 10.8918C13.6066 10.9582 13.5101 11.0092 13.412 11.0548C13.1828 11.1614 12.9423 11.2411 12.6989 11.3082C12.5768 11.3419 12.4539 11.3723 12.3307 11.4016C12.2938 11.4103 12.1841 11.4202 12.1123 11.4463L12.1122 11.4474ZM9.83545 12.6814C9.96775 12.5941 10.112 12.5319 10.2357 12.4365C10.3633 12.3381 10.4696 12.2277 10.4336 12.0438C10.4213 11.9809 10.3976 11.9745 10.3456 12.0029C10.191 12.0871 10.0445 12.1837 9.92686 12.3151C9.7326 12.532 9.64532 12.782 9.71108 13.0757C9.72528 13.1388 9.74405 13.1434 9.797 13.1158C10.0508 12.9832 10.3233 12.9063 10.6015 12.8436C11.0895 12.7336 11.433 12.4454 11.6335 11.9878C11.6825 11.8758 11.7141 11.758 11.7228 11.6354C11.7244 11.6122 11.7405 11.5762 11.6919 11.5728C11.6094 11.5671 11.5531 11.6169 11.55 11.6996C11.54 11.9663 11.4629 12.2061 11.2477 12.3789C10.8296 12.7145 10.3415 12.7383 9.83545 12.6816V12.6814ZM10.4483 12.5188C10.554 12.5378 10.6225 12.4779 10.6993 12.4507C10.8415 12.4004 10.97 12.3227 11.0709 12.2072C11.1853 12.0761 11.198 11.9289 11.1347 11.7708C11.1196 11.7328 11.1 11.7165 11.0567 11.7324C10.9953 11.7548 10.932 11.7724 10.869 11.7899C10.8336 11.7998 10.8192 11.8186 10.8197 11.8566C10.8238 12.1421 10.6975 12.3573 10.4483 12.5189V12.5188Z" fill="currentColor"/>
<path fill-rule="evenodd" clip-rule="evenodd" d="M9.64005 7.76127C9.43053 7.822 9.22376 7.89234 9.01959 7.96832C8.94146 7.99731 8.50351 8.11815 8.51221 8.20039C8.51938 8.26905 8.71302 8.34473 8.76826 8.36762C8.90056 8.4227 9.04263 8.4526 9.18485 8.46664C9.61792 8.50921 10.0511 8.41049 10.4749 8.31208C10.8987 8.21367 11.3316 8.11403 11.7648 8.15477C12.198 8.19551 12.6398 8.40195 12.8511 8.78232C12.3624 8.42605 11.7204 8.26356 11.134 8.41156C10.8861 8.47396 10.6556 8.58733 10.4114 8.66102C10.1691 8.73411 9.90587 8.75165 9.65393 8.76737C9.33806 8.7872 9.0173 8.77103 8.70967 8.69261C8.54883 8.65172 8.39196 8.59389 8.24455 8.51729C8.08524 8.43475 7.99811 8.3255 7.88381 8.18925C7.86764 8.16988 7.8507 8.15004 7.82812 8.1389C7.80477 8.12746 7.77791 8.12654 7.75212 8.12487C7.43426 8.10518 7.12678 7.95245 6.91895 7.71108C7.61662 7.88425 8.34969 7.82536 9.04187 7.65523C9.7194 7.48862 10.3878 7.15508 11.1036 7.32597C11.1129 7.32826 11.1222 7.33039 11.1317 7.33268C11.3326 7.39982 11.5123 7.50281 11.6664 7.64898L11.6694 7.65325C11.6694 7.65325 11.6746 7.65218 11.6748 7.65233C11.7108 7.71474 11.7427 7.74541 11.662 7.72862C11.5989 7.7155 11.5307 7.66515 11.4683 7.64318C11.152 7.53164 10.8057 7.53836 10.4732 7.58215C10.1909 7.61922 9.91319 7.68193 9.64005 7.76097V7.76127Z" fill="currentColor"/>
<path fill-rule="evenodd" clip-rule="evenodd" d="M6.73136 7.29293C6.72144 7.26089 6.68069 7.24639 6.67871 7.19086C7.75085 7.32787 8.75296 7.0662 9.75994 6.71588C10.0049 6.63059 10.2534 6.5421 10.5125 6.5302C10.9572 6.50975 11.3825 6.71802 11.7432 6.97862C12.2993 7.38051 12.7484 7.91194 13.2784 8.34755C13.5875 8.60174 13.9556 8.83213 14.3552 8.81199C14.1111 9.00516 13.7464 8.97021 13.4755 8.81687C13.2047 8.66353 13.0043 8.41407 12.8021 8.17742C12.5126 7.8384 12.2022 7.51066 11.8298 7.26562C11.4573 7.02058 11.0149 6.8622 10.5701 6.89119C10.2139 6.91439 9.87774 7.05399 9.53959 7.16782C8.89472 7.38493 8.16561 7.56299 7.48106 7.53675C7.20853 7.52637 6.95155 7.46733 6.73197 7.29354L6.73136 7.29293Z" fill="currentColor"/>
<path fill-rule="evenodd" clip-rule="evenodd" d="M9.97228 9.78515C9.84609 10.1403 9.81084 10.5207 9.78032 10.8964C9.67625 10.6567 9.62864 10.3935 9.6381 10.1326C9.64298 9.99815 9.66297 9.86418 9.69822 9.73449C9.72981 9.61869 9.82091 9.50486 9.67304 9.44719C9.43118 9.3529 9.09958 9.13028 9.01855 8.86861C9.05976 8.88631 9.10721 8.90905 9.15086 8.92934C9.37197 9.03187 9.6149 9.13212 9.86012 9.15439C10.1397 9.17987 10.4139 9.06681 10.6719 8.97527C10.8987 8.89471 11.1297 8.82605 11.3635 8.76929C11.5156 8.73236 11.6702 8.70047 11.8268 8.69727C12.258 8.68857 12.6798 8.90874 12.9494 9.24563C12.603 8.989 12.1349 8.97557 11.7064 9.02394C11.2372 9.07688 10.7739 9.19177 10.341 9.38036C10.2685 9.41194 10.1958 9.44627 10.1375 9.49967C10.0585 9.57215 10.0126 9.67331 9.97625 9.77416C9.97488 9.77798 9.9735 9.78164 9.97228 9.78545V9.78515Z" fill="currentColor"/>
<path fill-rule="evenodd" clip-rule="evenodd" d="M9.96515 11.482C9.9949 11.4588 10.0253 11.4366 10.0562 11.4152C10.3762 11.1958 10.7944 11.0426 11.1791 10.9883C11.1914 10.9866 11.2039 10.9848 11.2163 10.9829C11.4087 10.9504 11.5988 10.9125 11.7917 10.8868C11.9846 10.8612 12.1944 10.8291 12.3917 10.7802C12.6544 10.715 12.9115 10.6171 13.1346 10.4637C13.2898 10.3571 13.4259 10.2255 13.5733 10.1085C13.7869 9.9387 14.052 9.79482 14.3343 9.81786C14.1149 9.94816 13.9264 10.1075 13.7271 10.2667C13.2841 10.621 12.8201 11.0386 12.2259 11.0791C11.5164 11.1271 10.7634 11.2716 10.1356 11.6201C9.88992 11.7565 9.6656 11.9315 9.47363 12.1367C9.56687 11.8763 9.74648 11.6529 9.96499 11.482H9.96515Z" fill="currentColor"/>
<path fill-rule="evenodd" clip-rule="evenodd" d="M9.67969 10.6091C9.69143 10.62 9.69433 10.6334 9.69143 10.6486C9.68747 10.6355 9.68365 10.6224 9.67969 10.6091Z" fill="currentColor"/>
<path fill-rule="evenodd" clip-rule="evenodd" d="M9.30566 6.86243C9.2991 6.86609 9.29269 6.8699 9.28613 6.87356C9.29254 6.8699 9.2991 6.86609 9.30566 6.86243Z" fill="currentColor"/>
<path fill-rule="evenodd" clip-rule="evenodd" d="M9.99957 11.927C9.99255 11.9333 9.98553 11.9394 9.97852 11.9455C9.98553 11.9394 9.99255 11.9331 9.99957 11.927Z" fill="currentColor"/>
<path fill-rule="evenodd" clip-rule="evenodd" d="M9.49316 13.1595C9.50476 13.1627 9.50918 13.1707 9.50812 13.1821C9.50308 13.1747 9.4982 13.167 9.49316 13.1595Z" fill="currentColor"/>
<path fill-rule="evenodd" clip-rule="evenodd" d="M9.69922 10.6952C9.70349 10.705 9.70792 10.7147 9.71219 10.7245C9.70776 10.7147 9.70349 10.705 9.69922 10.6952Z" fill="currentColor"/>
<path fill-rule="evenodd" clip-rule="evenodd" d="M11.8716 7.06988C11.8643 7.06363 11.8569 7.05752 11.8496 7.05127C11.8569 7.05737 11.8643 7.06363 11.8716 7.06988Z" fill="currentColor"/>
<path fill-rule="evenodd" clip-rule="evenodd" d="M13.3544 8.40075C13.3476 8.3945 13.3407 8.38809 13.334 8.38184C13.3408 8.38809 13.3477 8.3945 13.3544 8.40075Z" fill="currentColor"/>
<path fill-rule="evenodd" clip-rule="evenodd" d="M9.87069 11.552C9.86307 11.5584 9.85544 11.5648 9.84766 11.5714C9.85528 11.565 9.86291 11.5584 9.87069 11.552Z" fill="currentColor"/>
<path fill-rule="evenodd" clip-rule="evenodd" d="M9.7373 10.8105C9.74158 10.8194 9.74585 10.8282 9.75012 10.8369C9.74585 10.8281 9.74158 10.8194 9.7373 10.8105Z" fill="currentColor"/>
<path fill-rule="evenodd" clip-rule="evenodd" d="M10.1807 9.46628C10.1881 9.46109 10.1958 9.4559 10.2032 9.45056C10.1958 9.45575 10.1881 9.46094 10.1807 9.46628Z" fill="currentColor"/>
<path fill-rule="evenodd" clip-rule="evenodd" d="M9.3218 7.33088C9.31897 7.32921 9.31614 7.32771 9.31348 7.32605C9.31631 7.32755 9.3193 7.32905 9.32213 7.33054L9.3218 7.33088Z" fill="currentColor"/>
<path fill-rule="evenodd" clip-rule="evenodd" d="M11.2158 13.2759C11.2219 13.2712 11.2279 13.2664 11.2338 13.2617C11.2279 13.2664 11.2218 13.2712 11.2158 13.2759Z" fill="currentColor"/>
<path fill-rule="evenodd" clip-rule="evenodd" d="M10.9863 9.16519C10.9937 9.16153 11.0011 9.15787 11.0085 9.15405C11.0011 9.15771 10.9937 9.16138 10.9863 9.16519Z" fill="currentColor"/>
<path fill-rule="evenodd" clip-rule="evenodd" d="M11.985 7.16232C11.9766 7.15637 11.9684 7.15057 11.96 7.14478C11.9684 7.15073 11.9766 7.15652 11.985 7.16232Z" fill="currentColor"/>
<path fill-rule="evenodd" clip-rule="evenodd" d="M9.92126 11.9825C9.91501 11.9879 9.9086 11.9934 9.90234 11.9987C9.90875 11.9934 9.91501 11.9879 9.92126 11.9825Z" fill="currentColor"/>
<path fill-rule="evenodd" clip-rule="evenodd" d="M9.32605 13.4648C9.31888 13.4738 9.31186 13.4828 9.30469 13.4918C9.31171 13.4828 9.31888 13.4738 9.32605 13.4648Z" fill="currentColor"/>
<path fill-rule="evenodd" clip-rule="evenodd" d="M9.32227 16.9993C9.35919 16.9827 9.38208 16.9902 9.40543 17.0012C9.72329 17.1527 10.0651 17.182 10.4095 17.1989C10.7777 17.2171 11.1472 17.2056 11.5149 17.2365C11.834 17.2632 12.1485 17.3101 12.4323 17.4733C12.5605 17.5469 12.6728 17.64 12.7629 17.7592C12.794 17.8005 12.7949 17.8272 12.75 17.8581C12.6908 17.8985 12.6391 17.9725 12.5775 17.9804C12.514 17.9885 12.4888 17.8902 12.441 17.8434C12.1923 17.5999 11.8781 17.5198 11.5482 17.4763C11.1452 17.4231 10.7378 17.4282 10.334 17.3835C9.96561 17.3426 9.61357 17.2604 9.32227 16.9993Z" fill="currentColor"/>
<path fill-rule="evenodd" clip-rule="evenodd" d="M15.8998 11.6736L15.8698 11.7028C15.8174 11.7537 15.7645 11.8055 15.7259 11.8674C15.6221 12.0345 15.6366 12.2507 15.5528 12.4286C15.551 12.4326 15.5489 12.4367 15.5456 12.4396C15.5315 12.4518 15.5116 12.4339 15.5006 12.4187C15.4378 12.3314 15.3398 12.276 15.24 12.2359C15.1402 12.1958 15.0355 12.1678 14.9386 12.1212C14.9018 12.1033 14.8629 12.0787 14.8527 12.0392C15.0662 12.0115 15.2797 11.9835 15.459 11.8534L15.4585 11.8544C15.509 11.8322 15.5563 11.8012 15.5925 11.7589C15.6099 11.7386 15.6836 11.6721 15.6752 11.6469C15.6694 11.6291 15.6523 11.6176 15.6361 11.6082C15.4867 11.5212 15.3076 11.4919 15.1358 11.5107C14.964 11.5295 14.7993 11.5945 14.6516 11.6843C14.6278 11.6186 14.685 11.5276 14.5742 11.5314C14.5846 11.489 14.6717 11.4614 14.707 11.4426C14.7671 11.4108 14.8297 11.3837 14.8941 11.3616C15.0227 11.3175 15.1584 11.2934 15.2943 11.2913C15.5339 11.2876 15.7741 11.352 15.9795 11.4751C15.9902 11.4816 16.001 11.4884 16.008 11.4986C16.0309 11.5325 15.9995 11.576 15.9702 11.6047C15.9465 11.6277 15.9229 11.6506 15.8994 11.6736H15.8998Z" fill="currentColor"/>
<path fill-rule="evenodd" clip-rule="evenodd" d="M14.9276 10.3053C14.9015 10.3057 14.8768 10.3103 14.8565 10.3285C14.8487 10.3231 14.8408 10.3178 14.833 10.3125C14.8364 10.3071 14.8399 10.3019 14.8432 10.2966C14.8976 10.2458 14.9519 10.1948 15.0062 10.144C15.0415 10.124 15.077 10.1048 15.1118 10.0841C15.2873 9.97999 15.4753 9.91286 15.6805 9.92095C15.8746 9.92858 15.9471 10.0032 15.9216 10.1809L15.9189 10.1854L15.9221 10.1895C15.9056 10.2012 15.9032 10.2183 15.9036 10.2366L15.905 10.235C15.8995 10.242 15.894 10.2488 15.8887 10.2559C15.8839 10.2581 15.8826 10.2617 15.8846 10.2665C15.8737 10.2684 15.8629 10.27 15.852 10.2719C15.852 10.2719 15.8522 10.2726 15.852 10.2728C15.7684 10.1751 15.6557 10.1455 15.5346 10.146C15.3192 10.1466 15.1213 10.2195 14.9275 10.3051L14.9276 10.3053Z" fill="currentColor"/>
<path fill-rule="evenodd" clip-rule="evenodd" d="M15.4765 10.9606C15.5153 10.9519 15.555 10.9466 15.5946 10.9445C15.6827 10.9399 15.7717 10.9513 15.8557 10.9777C16.0004 11.023 16.2072 11.1245 16.167 11.3068L16.1631 11.3103L16.1647 11.3154C16.1086 11.3651 16.0671 11.3407 16.0245 11.2925C15.9465 11.2042 15.8593 11.1088 15.7469 11.0671C15.6224 11.0209 15.4892 10.998 15.3564 11.0002C15.3889 10.9997 15.4355 10.9706 15.4686 10.9626C15.4712 10.962 15.4738 10.9614 15.4764 10.9608L15.4765 10.9606Z" fill="currentColor"/>
<path fill-rule="evenodd" clip-rule="evenodd" d="M15.8492 13.4252C15.8474 13.4294 15.8447 13.4331 15.8404 13.4348C15.8361 13.4363 15.8314 13.4352 15.827 13.4342C15.8084 13.4296 15.7897 13.425 15.771 13.4204C15.7661 13.4192 15.761 13.418 15.7568 13.4154C15.7517 13.4124 15.7481 13.4078 15.7443 13.4034C15.7252 13.3812 15.7021 13.3623 15.6857 13.3382C15.6692 13.3141 15.6603 13.2817 15.673 13.2554C15.7006 13.2695 15.7295 13.281 15.7592 13.2895C15.7682 13.2921 15.7784 13.2943 15.7865 13.2895C15.7926 13.286 15.7961 13.2792 15.7989 13.2726C15.8048 13.2587 15.8061 13.2256 15.8151 13.2154C15.8152 13.2151 15.8157 13.2149 15.8161 13.2146C15.8288 13.2079 15.8445 13.2164 15.8479 13.2303C15.8573 13.2709 15.8772 13.3072 15.8697 13.3683C15.868 13.382 15.8613 13.394 15.8549 13.4063C15.8531 13.4099 15.8521 13.4182 15.8491 13.425L15.8492 13.4252Z" fill="currentColor"/>
<path fill-rule="evenodd" clip-rule="evenodd" d="M9.47165 12.1315C9.47104 12.1389 9.47043 12.1464 9.46997 12.1539C9.46631 12.1524 9.46265 12.1508 9.45898 12.1495C9.46356 12.1437 9.46814 12.138 9.47272 12.1322L9.47165 12.1315Z" fill="currentColor"/>
<path fill-rule="evenodd" clip-rule="evenodd" d="M20.9519 12.4923L20.791 12.7488L22.0187 12.703L20.9519 12.4923Z" fill="currentColor"/>
</svg>
