<svg width="25" height="24" viewBox="0 0 25 24" fill="none" xmlns="http://www.w3.org/2000/svg">
<g clip-path="url(#clip0_1_3376)">
<path d="M7.02441 12.7809C7.16196 12.7853 7.21238 12.8531 7.21289 13.0133C7.21434 13.5239 7.21289 14.035 7.21289 14.5456H7.20898L7.2168 15.2565C7.21867 15.4937 7.2179 15.7309 7.20605 15.9674C7.17465 16.6166 7.09204 17.2612 6.84473 17.8717C6.73267 18.1489 6.58459 18.4084 6.37695 18.6256C6.05525 18.9608 5.66488 19.0938 5.20215 18.9928C4.94532 18.9368 4.79197 18.768 4.7002 18.5358C4.59153 18.2605 4.6013 17.9746 4.66504 17.693C4.76213 17.2626 4.98655 16.8922 5.27734 16.569C5.53234 16.286 5.819 16.0304 6.09668 15.7682C6.15396 15.7138 6.18881 15.6631 6.18555 15.5827C6.1812 15.449 6.18456 15.315 6.18457 15.1813V13.1198C6.18455 13.0718 6.18178 13.0228 6.1875 12.9753C6.20006 12.8555 6.26546 12.7843 6.38574 12.7809C6.59876 12.7746 6.81188 12.7737 7.02441 12.7809ZM6.07227 16.403C5.77044 16.6792 5.50511 16.9851 5.30469 17.3454C5.19962 17.535 5.14267 17.7357 5.1084 17.946C5.0857 18.0879 5.10523 18.2257 5.16895 18.3542C5.24623 18.5112 5.41394 18.5807 5.58301 18.5319C5.72384 18.4899 5.83561 18.4057 5.89551 18.2731C5.96502 18.1196 6.03311 17.9607 6.07129 17.7975C6.15097 17.4537 6.16503 17.1003 6.16504 16.7477V16.3405L6.07227 16.403ZM15.4463 12.7174C15.5777 12.7416 15.6517 12.8346 15.6416 12.9626C15.616 13.277 15.5996 13.5929 15.5547 13.9049C15.4677 14.5148 15.3175 15.1088 15.0273 15.6569C14.8473 15.9968 14.6373 16.316 14.3076 16.5368C14.0536 16.7053 13.7769 16.8015 13.4707 16.8083C13.206 16.8141 12.9944 16.7069 12.8389 16.5036C12.751 16.3896 12.6926 16.2532 12.6201 16.1266C12.6091 16.1069 12.5973 16.0864 12.5723 16.0436L12.3271 16.3219C12.277 16.3731 12.2219 16.4234 12.1602 16.4606C12.0781 16.5098 11.9906 16.488 11.9326 16.4186C11.8814 16.3568 11.8755 16.2723 11.9238 16.1979C11.9436 16.1681 11.9758 16.1467 11.9961 16.1169C12.1304 15.9227 12.2675 15.7299 12.3936 15.5299C12.4254 15.4792 12.4306 15.4023 12.4268 15.3395C12.4084 15.0184 12.3556 14.6968 12.3672 14.3776C12.3836 13.9245 12.3728 13.4651 12.4893 13.0192C12.5452 12.8026 12.5754 12.7799 12.8047 12.779C12.9504 12.778 13.0965 12.7761 13.2422 12.779C13.4387 12.7819 13.4945 12.8345 13.4912 13.027C13.483 13.525 13.4542 14.0236 13.4629 14.5212C13.4697 14.9264 13.4871 15.3351 13.6006 15.7301C13.6266 15.8222 13.6623 15.9147 13.7129 15.9948C13.7849 16.1088 13.8549 16.1211 13.9785 16.0651C14.1736 15.9767 14.3216 15.8332 14.4365 15.6579C14.6142 15.387 14.7348 15.0904 14.8145 14.7751C14.9651 14.1781 15.0474 13.5725 15.0547 12.9567C15.0571 12.7974 15.1254 12.7247 15.2832 12.7126C15.3372 12.7087 15.3938 12.7079 15.4463 12.7174ZM9.10254 12.7721C9.60336 12.6534 10.092 12.6796 10.5518 12.9245C10.7798 13.0457 10.9633 13.2209 11.0957 13.4489C11.3235 13.8438 11.4303 14.2658 11.4062 14.7311L11.4111 14.8737C11.4126 15.2028 11.347 15.5287 11.2109 15.8405C10.9781 16.3721 10.5717 16.6799 10 16.7741C9.63873 16.834 9.28577 16.8191 8.94043 16.693C8.42123 16.5027 8.10334 16.119 7.94922 15.6042C7.77003 15.0081 7.77526 14.4048 7.98242 13.8131C8.17226 13.2736 8.53157 12.9069 9.10254 12.7721ZM17.2578 12.7604C17.5515 12.6667 17.8468 12.6827 18.1279 12.8151C18.3216 12.9059 18.4309 13.0707 18.4951 13.2692C18.5573 13.4575 18.5685 13.6479 18.54 13.8444C18.4546 14.4244 18.246 14.9578 17.9355 15.4528C17.8361 15.6117 17.7258 15.7643 17.6113 15.9342C17.7939 16.1835 18.0391 16.3315 18.3525 16.36C18.6491 16.3871 18.9322 16.3198 19.207 16.2145C19.3663 16.1537 19.3667 16.1516 19.3672 15.9772V13.0378C19.3759 12.8476 19.4452 12.779 19.6377 12.777C19.8082 12.7746 19.9789 12.7741 20.1494 12.777C20.3346 12.78 20.3834 12.8294 20.3965 13.0133C20.3994 13.0485 20.4054 13.0832 20.4141 13.1559L20.5684 13.0338C20.9908 12.6883 21.4662 12.628 21.9746 12.7868C22.2334 12.8674 22.3888 13.0666 22.4521 13.32C22.5048 13.5301 22.5377 13.751 22.543 13.9674C22.557 14.5571 22.5633 15.1478 22.5498 15.737C22.5397 16.1543 22.7895 16.3833 23.1904 16.3649C23.4318 16.3538 23.6564 16.2923 23.8828 16.2213C23.9287 16.2069 23.9746 16.1841 24.0215 16.1755C24.1082 16.1578 24.1923 16.2068 24.2295 16.2868C24.2657 16.3645 24.2534 16.4388 24.1787 16.4987C24.127 16.5398 24.0677 16.579 24.0059 16.5983C23.4678 16.7726 22.9195 16.8566 22.3545 16.7653C22.2652 16.7508 22.1753 16.7298 22.0908 16.6979C21.7648 16.5757 21.6084 16.3184 21.5674 15.9889C21.5384 15.7548 21.5258 15.5175 21.5225 15.2809C21.5143 14.7884 21.5214 14.2954 21.5127 13.8034C21.5103 13.6903 21.4825 13.5727 21.4434 13.4665C21.3752 13.2798 21.2091 13.1998 21.0156 13.2555C20.7813 13.3236 20.5878 13.4618 20.4453 13.6588C20.4072 13.7115 20.3994 13.7949 20.3984 13.8639C20.3955 14.6976 20.3975 15.5312 20.3975 16.3649C20.3975 16.4132 20.3984 16.4626 20.3955 16.5114C20.3872 16.6448 20.3249 16.7135 20.1934 16.7174C19.9929 16.7223 19.7913 16.7285 19.5918 16.7135C19.5116 16.7073 19.4348 16.6456 19.3281 16.5954C18.9658 16.7268 18.555 16.8092 18.1328 16.8034C17.7142 16.7981 17.3115 16.7145 16.9609 16.4645C16.6446 16.6046 16.321 16.6814 15.9834 16.6881C15.6013 16.6954 15.2303 16.6464 14.8965 16.4411C14.8522 16.4132 14.8006 16.3788 14.7803 16.3346C14.7247 16.2124 14.834 16.0806 14.9678 16.1032C15.0387 16.1152 15.1058 16.1479 15.1748 16.1696C15.4549 16.2599 15.7401 16.3177 16.0352 16.2956C16.2292 16.2811 16.4158 16.2338 16.5674 16.1383C16.465 15.9099 16.3464 15.7023 16.2773 15.4782C16.0619 14.7803 16.1018 14.0951 16.4639 13.4508C16.6431 13.1325 16.897 12.8754 17.2578 12.7604ZM10.127 13.4499C9.96563 13.1876 9.59229 12.9802 9.23535 13.3327C9.10155 13.4646 9.02293 13.629 8.97559 13.8063C8.89114 14.1239 8.85197 14.4483 8.84277 14.7799C8.87174 15.0329 8.89064 15.2877 8.93262 15.5378C8.96498 15.7353 9.03886 15.9253 9.15527 16.0915C9.2769 16.2651 9.43976 16.3796 9.66113 16.3561C9.87464 16.3339 10.0304 16.2096 10.1338 16.0241C10.2565 15.8043 10.3163 15.5634 10.3555 15.3161C10.4163 14.9292 10.4032 14.5409 10.3516 14.1559C10.3187 13.9082 10.2597 13.6667 10.127 13.4499ZM17.9766 13.3854C17.8906 13.198 17.6944 13.1429 17.5215 13.2516C17.4617 13.2888 17.4013 13.3373 17.3594 13.3942C17.1972 13.6134 17.0989 13.8621 17.0732 14.1315C17.0457 14.4233 17.0556 14.7161 17.1406 14.9997C17.1864 15.1532 17.2079 15.3173 17.3193 15.4655L17.418 15.3493C17.6588 14.9959 17.848 14.6151 17.9639 14.2038C18.0146 14.0255 18.026 13.8336 18.0361 13.6471C18.0409 13.5609 18.0132 13.4659 17.9766 13.3854ZM6.71875 11.0768C7.00661 11.0797 7.21283 11.2845 7.21289 11.5671C7.2525 11.8646 6.91904 12.0719 6.70215 12.0729C6.42647 12.0727 6.19237 11.8359 6.19141 11.5592C6.19007 11.284 6.42037 11.073 6.71875 11.0768ZM20.2832 6.64127C20.5633 6.63259 20.8404 6.64512 21.1123 6.72819C21.6731 6.89918 22.0013 7.28267 22.123 7.84147C22.1709 8.05932 22.1822 8.28724 22.1885 8.51041C22.1986 8.87504 22.1885 9.241 22.1924 9.60612C22.1939 9.70793 22.2064 9.81286 22.2314 9.9108C22.2899 10.1424 22.4667 10.2751 22.7051 10.2917C22.9906 10.3115 23.2602 10.2423 23.5264 10.152C23.5665 10.1385 23.6064 10.1207 23.6475 10.111C23.7492 10.0866 23.8431 10.1296 23.875 10.2116C23.9122 10.3058 23.8754 10.4079 23.7783 10.4518C23.1311 10.7459 22.4607 10.8214 21.7695 10.6403C21.5759 10.5905 21.4133 10.4343 21.2617 10.1764L21.0703 10.3356C21.0083 10.3869 20.947 10.4359 20.8828 10.4811C20.5036 10.7458 20.09 10.8057 19.6514 10.6559C19.3162 10.5419 19.0919 10.2967 18.9209 10.0006C18.7109 9.6341 18.6273 9.23182 18.6133 8.81315C18.6012 8.43999 18.6368 8.07472 18.7666 7.72037C18.9994 7.08371 19.5272 6.66398 20.2832 6.64127ZM8.35449 6.65299C8.68635 6.61628 9.02258 6.62426 9.34961 6.72135C9.902 6.88516 10.2291 7.25864 10.374 7.80533C10.4275 8.0066 10.4463 8.2106 10.4434 8.41862C10.439 8.81414 10.44 9.20961 10.4443 9.60514C10.4458 9.70693 10.4593 9.81191 10.4834 9.9108C10.5376 10.1318 10.715 10.2771 10.9404 10.2887C11.1409 10.2979 11.3421 10.3019 11.5469 10.2067V6.98307C11.5532 6.78082 11.6234 6.70867 11.8213 6.7067C11.985 6.70525 12.1497 6.70525 12.3145 6.7067C12.5215 6.70915 12.57 6.75591 12.585 6.96256C12.5874 6.99196 12.5899 7.02095 12.5947 7.0778C12.6526 7.03535 12.6953 7.00805 12.7334 6.97623C13.14 6.63674 13.5984 6.5638 14.1016 6.69987C14.3895 6.77764 14.5589 6.97722 14.6338 7.24869C14.6869 7.43942 14.7164 7.64255 14.7217 7.84147C14.7376 8.44853 14.7369 9.05716 14.7432 9.66471C14.7432 9.71336 14.7403 9.76252 14.7441 9.81022C14.762 10.086 14.9211 10.2491 15.207 10.2868C15.4687 10.321 15.7275 10.2744 15.9805 10.1696C15.909 10.034 15.8366 9.90437 15.7715 9.77115C15.6382 9.50072 15.5755 9.21069 15.5596 8.9108C15.5393 8.50745 15.5597 8.10783 15.7061 7.72526C15.9273 7.15034 16.3264 6.76809 16.9404 6.65787C17.1577 6.61877 17.3893 6.64145 17.6133 6.65787C17.763 6.66898 17.9127 6.71201 18.0586 6.75162C18.1396 6.77385 18.2177 6.81124 18.29 6.85416C18.3774 6.90675 18.4028 7.00171 18.3701 7.09049C18.3373 7.17743 18.2513 7.23286 18.1504 7.21549C18.0673 7.201 17.9874 7.16838 17.9053 7.14615C17.8058 7.11959 17.7078 7.08496 17.6064 7.07096C17.236 7.02123 16.9684 7.13081 16.7617 7.55533C16.6444 7.79875 16.602 8.06754 16.5928 8.33463C16.5797 8.70456 16.5712 9.07696 16.6504 9.44303C16.6914 9.63376 16.7401 9.81988 16.8506 9.986C16.9863 10.1898 17.1731 10.2883 17.417 10.2936C17.6773 10.2999 17.9202 10.2187 18.166 10.154C18.2129 10.1419 18.2603 10.1227 18.3076 10.1198C18.4089 10.1131 18.4899 10.1737 18.5137 10.2643C18.5397 10.3618 18.5069 10.4415 18.4072 10.487C18.0885 10.6328 17.7496 10.6995 17.4014 10.7155C16.9806 10.7353 16.7029 10.6718 16.3213 10.4723C15.948 10.6442 15.5398 10.6953 15.1279 10.7282C14.8893 10.7475 14.6547 10.7242 14.4219 10.6725C14.0119 10.5813 13.8017 10.3111 13.7471 9.91178C13.7186 9.70165 13.7041 9.48761 13.7012 9.27604C13.6944 8.75976 13.7016 8.24202 13.6934 7.72526C13.6909 7.61319 13.6617 7.4956 13.6211 7.3903C13.552 7.20924 13.3958 7.13221 13.208 7.18326C12.9713 7.24703 12.7787 7.38556 12.6328 7.57975C12.5972 7.62699 12.5879 7.70311 12.5879 7.76627C12.585 8.60581 12.5859 9.44529 12.5859 10.2848C12.5859 10.3457 12.5878 10.4075 12.5791 10.4674C12.563 10.5797 12.4995 10.6461 12.3857 10.6462C12.1437 10.6452 11.9012 10.6319 11.6592 10.6256C11.6183 10.6243 11.577 10.6297 11.5371 10.6393C11.1126 10.7364 10.6856 10.7736 10.2529 10.694C10.0452 10.6558 9.84996 10.5937 9.70215 10.4362C9.6326 10.3618 9.57929 10.273 9.50684 10.1745C9.45616 10.2198 9.40321 10.2663 9.35156 10.3141C9.15555 10.4923 8.93742 10.6321 8.67676 10.694C8.10434 10.8293 7.57984 10.6235 7.24219 10.109C7.04958 9.81596 6.94386 9.48887 6.89844 9.13932C6.83759 8.66847 6.85338 8.20754 7.00977 7.75455C7.12662 7.41655 7.3212 7.1409 7.61035 6.92936C7.83399 6.76658 8.09125 6.68246 8.35449 6.65299ZM4.27832 4.97428C4.76278 4.96995 5.2234 5.05309 5.60449 5.38444C5.88074 5.62498 6.01668 5.92803 6.02344 6.2985C6.03068 6.64 5.95422 6.95083 5.74219 7.2194C5.66738 7.31351 5.57175 7.39129 5.48438 7.47526C5.45398 7.5042 5.42036 7.52942 5.37793 7.5651L5.49512 7.62662C5.90136 7.82178 6.14665 8.14691 6.25195 8.5778C6.37456 9.07959 6.31174 9.55572 6.02148 9.9899C5.78769 10.3401 5.44927 10.5452 5.04785 10.6481C4.72139 10.7326 4.38934 10.7518 4.05273 10.7214C3.65973 10.6856 3.26668 10.6556 2.88574 10.5426C2.85631 10.534 2.82779 10.5235 2.7998 10.5124C2.57132 10.4225 2.55273 10.3955 2.55273 10.1501V5.56803C2.55274 5.30736 2.58557 5.26378 2.83789 5.17643C3.14502 5.07019 3.46693 5.04467 3.78613 5.00846C3.9494 4.99059 4.11408 4.97621 4.27832 4.97428ZM0.980469 9.40201C1.21466 9.40203 1.39397 9.45746 1.52051 9.56803C1.64707 9.67913 1.71191 9.83536 1.71191 10.0378C1.7119 10.2401 1.64706 10.3959 1.52051 10.5075C1.39398 10.6179 1.214 10.6735 0.980469 10.6735C0.746671 10.6735 0.566496 10.6181 0.439453 10.5075C0.312485 10.3964 0.25001 10.2396 0.25 10.0378C0.25 9.83604 0.312668 9.67911 0.439453 9.56803C0.566496 9.45741 0.746188 9.40201 0.980469 9.40201ZM3.74902 7.81315C3.67479 7.81179 3.63814 7.85501 3.63477 7.92643C3.63284 7.96312 3.63281 7.9996 3.63281 8.03678V9.98795C3.63284 10.0477 3.63773 10.1078 3.64062 10.1657L3.75391 10.2126C3.86702 10.2468 3.9822 10.2465 4.09375 10.2585C4.60615 10.3106 4.90828 10.0672 5.05078 9.68131C5.1614 9.38278 5.18045 9.07493 5.16113 8.7653C5.15098 8.59771 5.11762 8.42807 5.06836 8.26725C4.99731 8.0326 4.82111 7.89899 4.58496 7.84635C4.30867 7.78453 4.02773 7.81846 3.74902 7.81315ZM20.8477 7.27018C20.596 7.01126 20.2111 6.9943 19.96 7.31022C19.8605 7.4348 19.7964 7.57612 19.751 7.73014C19.6283 8.14553 19.6348 8.57024 19.6426 8.99576C19.6465 9.22941 19.6869 9.45723 19.7617 9.67448C19.8076 9.8082 19.8873 9.93983 19.9814 10.0465C20.1085 10.1905 20.2756 10.2433 20.4775 10.195C20.7048 10.1404 20.8877 10.0237 21.0527 9.8649C21.1232 9.79729 21.1567 9.72413 21.1543 9.62369C21.1485 9.36864 21.1523 9.11263 21.1523 8.85709V8.27408C21.1552 8.03475 21.1215 7.80076 21.0332 7.57877C20.9898 7.46825 20.9292 7.35421 20.8477 7.27018ZM9.10059 7.26822C8.84847 7.01224 8.46072 6.98869 8.21484 7.31412C8.13232 7.42318 8.05727 7.55054 8.02148 7.68131C7.84372 8.33198 7.831 8.99015 8.00684 9.6442C8.04308 9.77982 8.12507 9.91159 8.21484 10.0221C8.34423 10.1834 8.51861 10.2451 8.73438 10.194C8.95548 10.1414 9.13417 10.0272 9.29688 9.87662C9.37851 9.80078 9.41744 9.7172 9.41406 9.60416C9.40779 9.38537 9.41211 9.16573 9.41211 8.94694L9.41113 8.32682C9.40679 8.07139 9.38601 7.81586 9.28516 7.5778C9.23832 7.4677 9.18217 7.35227 9.10059 7.26822ZM4.24707 5.43717C4.11434 5.43717 3.98185 5.45927 3.84863 5.47135C3.64189 5.49067 3.63281 5.49842 3.63281 5.69889C3.63185 6.18505 3.63185 6.67073 3.63281 7.1569C3.63281 7.21677 3.64069 7.27613 3.64648 7.36783C3.89321 7.36783 4.11678 7.36447 4.34082 7.36881C4.5586 7.37364 4.71387 7.28449 4.80566 7.08658C4.8361 7.02041 4.8742 6.95497 4.89062 6.88541C4.96494 6.58123 4.99028 6.27742 4.9082 5.96744C4.81402 5.61402 4.60963 5.43967 4.24707 5.43717Z" fill="white"/>
</g>
<defs>
<clipPath id="clip0_1_3376">
<rect width="24" height="24" fill="white" transform="translate(0.25)"/>
</clipPath>
</defs>
</svg>
