<svg width="24" height="24" viewBox="0 0 24 24" fill="none" xmlns="http://www.w3.org/2000/svg">
<path d="M22.7469 8.61267L12.3265 1.32417C12.1297 1.18524 11.8634 1.18524 11.6608 1.32417L1.24037 8.61267C1.03197 8.75739 0.945131 9.01791 1.02039 9.26105C1.09565 9.50419 1.32142 9.66628 1.57036 9.66628H3.58497V17.4411H1.62246C1.30406 17.4411 1.04355 17.7016 1.04355 18.02V19.5888C1.04355 21.505 2.60082 23.0623 4.51701 23.0623H21.9307C22.2491 23.0623 22.5096 22.8018 22.5096 22.4834V18.02C22.5096 17.7016 22.2491 17.4411 21.9307 17.4411H20.4139V9.66628H22.417C22.6717 9.66628 22.8917 9.50419 22.9669 9.26105C23.0422 9.01791 22.9553 8.75739 22.7469 8.61267ZM4.74858 9.66628H7.36526V17.4411H4.74858V9.66628ZM14.4569 17.4411V9.66628H15.4584V17.4411H14.4569ZM13.2991 17.4411H10.6766V9.66628H13.2991V17.4411ZM9.51881 17.4411H8.52308V9.66628H9.5246V17.4411H9.51881ZM21.3633 21.9045H4.5228C3.24341 21.9045 2.20716 20.8624 2.20716 19.5888V18.5989H4.15809C4.16388 18.5989 4.16388 18.5989 4.16967 18.5989C4.17546 18.5989 4.17546 18.5989 4.18124 18.5989H10.0861C10.0919 18.5989 10.0919 18.5989 10.0977 18.5989C10.1035 18.5989 10.1035 18.5989 10.1093 18.5989H16.02C16.0258 18.5989 16.0258 18.5989 16.0316 18.5989C16.0373 18.5989 16.0373 18.5989 16.0431 18.5989H19.8234C19.8292 18.5989 19.8292 18.5989 19.835 18.5989C19.8408 18.5989 19.8408 18.5989 19.8466 18.5989H21.3518V21.9045H21.3633ZM19.2619 17.4411H16.6105V9.66628H19.2619V17.4411ZM3.41129 8.50846L11.9965 2.50515L20.5818 8.50846H3.41129Z" fill="currentColor"/>
</svg>
