<svg width="24" height="25" viewBox="0 0 24 25" fill="none" xmlns="http://www.w3.org/2000/svg">
<path d="M22.851 4.1499H2.00888C1.69046 4.1499 1.42993 4.41043 1.42993 4.72885V19.6136C1.42993 19.932 1.69046 20.1925 2.00888 20.1925H22.851C23.1694 20.1925 23.4299 19.932 23.4299 19.6136V4.72885C23.4299 4.41043 23.1694 4.1499 22.851 4.1499ZM22.272 16.9388C19.9041 16.6494 18.0573 14.6346 18.0573 12.1857C18.0573 9.74253 19.8984 7.72201 22.272 7.43253V16.9388ZM11.851 14.6752C10.7105 14.4088 9.85941 13.3957 9.85941 12.1741C9.85941 10.9525 10.7105 9.93937 11.851 9.67306V14.6752ZM13.0089 9.67306C14.1494 9.93937 15.0005 10.9525 15.0005 12.1741C15.0005 13.3957 14.1494 14.4088 13.0089 14.6752V9.67306ZM2.58783 7.43253C4.95572 7.72201 6.80256 9.73674 6.80256 12.1857C6.80256 14.6288 4.96151 16.6494 2.58783 16.9388V7.43253ZM2.58783 18.1083C5.59835 17.8188 7.96046 15.2715 7.96046 12.1915C7.96046 9.11148 5.59835 6.55832 2.58783 6.26885V5.31358H11.851V8.49779C10.0678 8.77569 8.70151 10.3157 8.70151 12.1741C8.70151 14.0325 10.0678 15.5725 11.851 15.8504V19.0346H2.58783V18.1083ZM13.0089 19.0404V15.8562C14.792 15.5783 16.1584 14.0383 16.1584 12.1799C16.1584 10.3215 14.792 8.78148 13.0089 8.50358V5.31937H22.272V6.27464C19.2615 6.56411 16.8994 9.11148 16.8994 12.1915C16.8994 15.2715 19.2615 17.8131 22.272 18.1083V19.0404H13.0089Z" fill="currentColor"/>
</svg>
