<svg width="24" height="24" viewBox="0 0 24 24" fill="none" xmlns="http://www.w3.org/2000/svg">
<path d="M22.9742 16.5357C22.9742 16.4721 22.9626 16.4084 22.9337 16.3448C22.9337 16.339 22.9337 16.339 22.9279 16.3332L20 9.49942V3.66671C20 2.54414 19.0857 1.62988 17.9631 1.62988H5.99681C4.87424 1.62988 3.96 2.54414 3.96 3.66671V9.49942L1.03207 16.3332C1.03207 16.339 1.03206 16.339 1.02627 16.3448C1.00313 16.4084 0.991559 16.4721 0.985773 16.5357C0.985773 16.5415 0.97998 16.5531 0.97998 16.5589V17.0912C0.97998 18.2716 1.5702 19.319 2.4671 19.9555V21.5178C2.4671 21.8361 2.72749 22.0965 3.04574 22.0965H6.01996C6.33822 22.0965 6.59861 21.8361 6.59861 21.5178V20.6094H17.344V21.5178C17.344 21.8361 17.6044 22.0965 17.9226 22.0965H20.8969C21.2151 22.0965 21.4755 21.8361 21.4755 21.5178V20.6094H22.4013C22.7196 20.6094 22.98 20.349 22.98 20.0307V16.5589C22.98 16.5473 22.9742 16.5415 22.9742 16.5357ZM6.0026 2.78717H17.9689C18.455 2.78717 18.8485 3.18065 18.8485 3.66671V9.03651H18.1367L17.8532 7.54361C17.7317 6.91868 17.1878 6.46155 16.5455 6.46155H14.2251C13.4902 6.46155 12.8942 7.05755 12.8942 7.79243V9.03651H11.0773V7.79243C11.0773 7.05755 10.4813 6.46155 9.74642 6.46155H7.42606C6.78955 6.46155 6.23985 6.91868 6.11833 7.54361L5.83479 9.03651H5.12306V3.66671C5.12306 3.18065 5.52233 2.78717 6.0026 2.78717ZM17.1993 10.3211C17.2109 10.3905 17.182 10.4368 17.1646 10.46C17.1473 10.4831 17.101 10.5236 17.0315 10.5236H14.2251C14.1325 10.5236 14.0515 10.4484 14.0515 10.35V7.79243C14.0515 7.69984 14.1267 7.61883 14.2251 7.61883H16.5455C16.6265 7.61883 16.7017 7.6767 16.7133 7.75771L17.1993 10.3211ZM9.92001 7.79243V10.35C9.92001 10.4426 9.84479 10.5236 9.74642 10.5236H6.94C6.87057 10.5236 6.82428 10.4831 6.80692 10.46C6.78956 10.4368 6.76063 10.3905 6.7722 10.3153L7.25826 7.75771C7.27562 7.6767 7.34505 7.61883 7.42606 7.61883H9.74642C9.84479 7.61883 9.92001 7.69984 9.92001 7.79243ZM4.92633 10.1938H5.62648C5.58019 10.5526 5.67856 10.9171 5.9158 11.2006C6.1704 11.5073 6.54074 11.6809 6.94 11.6809H9.74642C10.4813 11.6809 11.0773 11.0849 11.0773 10.35V10.1938H12.8942V10.35C12.8942 11.0849 13.4902 11.6809 14.2251 11.6809H17.0315C17.4308 11.6809 17.8011 11.5073 18.0557 11.2006C18.2872 10.9171 18.3856 10.5583 18.3451 10.1938H19.0452L21.5276 15.9802H2.44974L4.92633 10.1938ZM5.45868 20.9392H3.64174V20.4936C3.91949 20.5631 4.20881 20.6094 4.5097 20.6094H5.45868V20.9392ZM20.3356 20.9392H18.5186V20.6094H20.3356V20.9392ZM21.8227 19.4521H20.9142H17.94H4.5097C3.22512 19.4521 2.17777 18.4163 2.15462 17.1375H21.8285V19.4521H21.8227Z" fill="currentColor"/>
</svg>
