<svg width="24" height="24" viewBox="0 0 24 24" fill="none" xmlns="http://www.w3.org/2000/svg">
<g clip-path="url(#clip0_88_3026)">
<path d="M18.9747 16.3178C18.4711 16.3178 18.0658 15.9299 18.0658 15.4494V9.67149C18.0658 6.86939 16.19 4.48991 13.6021 3.64465V3.41307C13.6021 2.30728 12.7047 1.40991 11.5989 1.40991H11.4716C10.3658 1.40991 9.46842 2.30728 9.46842 3.41307V3.64465C6.87474 4.48991 5.00474 6.86939 5.00474 9.67149V15.4494C5.00474 15.9299 4.59368 16.3178 4.06684 16.3178C2.92632 16.3178 2 17.2268 2 18.3441C2 19.4615 2.92632 20.3704 4.06684 20.3704H8.02684C8.27579 22.0899 9.75789 23.4099 11.5411 23.4099C13.3242 23.4099 14.8063 22.0841 15.0553 20.3704H18.9863C20.1268 20.3704 21.0532 19.4615 21.0532 18.3441C21.0416 17.2268 20.1153 16.3178 18.9747 16.3178ZM11.4658 2.56781H11.5932C12.0505 2.56781 12.4211 2.93255 12.4384 3.38412C12.1432 3.3436 11.8421 3.31465 11.5295 3.31465C11.2226 3.31465 10.9216 3.3436 10.6205 3.38412C10.6437 2.92676 11.0142 2.56781 11.4658 2.56781ZM11.5295 22.252C10.3832 22.252 9.42211 21.4473 9.18474 20.3704H13.8684C13.6368 21.4415 12.6758 22.252 11.5295 22.252ZM18.9747 19.2068H14.5111H8.55368H4.06105C3.55737 19.2068 3.15211 18.8189 3.15211 18.3383C3.15211 17.8578 3.56316 17.4699 4.09 17.4699C5.23053 17.4699 6.15684 16.561 6.15684 15.4436V9.66571C6.15684 6.79992 8.57105 4.46097 11.5353 4.46097C14.4995 4.46097 16.9137 6.79413 16.9137 9.66571V15.4436C16.9137 16.561 17.84 17.4699 18.9805 17.4699C19.4842 17.4699 19.8895 17.8578 19.8895 18.3383C19.8895 18.8189 19.4784 19.2068 18.9747 19.2068Z" fill="currentColor"/>
</g>
<defs>
<clipPath id="clip0_88_3026">
<rect width="24" height="24" fill="white"/>
</clipPath>
</defs>
</svg>
