<svg width="24" height="24" viewBox="0 0 24 24" fill="none" xmlns="http://www.w3.org/2000/svg">
<path d="M19.489 16.0338C18.9853 16.0338 18.58 15.6459 18.58 15.1654V9.38748C18.58 8.50748 18.3948 7.6738 18.0648 6.90959L21.44 3.53433C21.6658 3.30854 21.6658 2.94381 21.44 2.71802C21.2142 2.49223 20.8495 2.49223 20.6237 2.71802L17.4858 5.85591C16.6869 4.69802 15.5058 3.80643 14.1221 3.35485V3.12328C14.1221 2.01749 13.2248 1.12012 12.119 1.12012H11.9916C10.8858 1.12012 9.98844 2.01749 9.98844 3.12328V3.35485C7.39475 4.20012 5.52476 6.57959 5.52476 9.3817V15.1596C5.52476 15.6401 5.1137 16.028 4.58686 16.028C3.44634 16.028 2.52002 16.937 2.52002 18.0543C2.52002 18.8012 2.93686 19.4438 3.55055 19.797L2.73423 20.6133C2.50844 20.8391 2.50844 21.2038 2.73423 21.4296C2.85002 21.5454 2.99476 21.5975 3.14528 21.5975C3.29581 21.5975 3.44055 21.5396 3.55634 21.4296L4.90528 20.0806H8.54686C8.79581 21.8001 10.2779 23.1201 12.0611 23.1201C13.8442 23.1201 15.3263 21.7943 15.5753 20.0806H19.5063C20.6469 20.0806 21.5732 19.1717 21.5732 18.0543C21.5616 16.9427 20.6295 16.0338 19.489 16.0338ZM11.9858 2.27801H12.1132C12.5705 2.27801 12.9411 2.64275 12.9584 3.09433C12.6632 3.0538 12.3621 3.02486 12.0495 3.02486C11.7369 3.02486 11.4416 3.0538 11.1405 3.09433C11.1579 2.64275 11.5284 2.27801 11.9858 2.27801ZM3.66634 18.0543C3.66634 17.5738 4.07739 17.1859 4.60423 17.1859C5.74476 17.1859 6.67107 16.277 6.67107 15.1596V9.3817C6.67107 6.51591 9.08528 4.17696 12.0495 4.17696C13.9948 4.17696 15.6969 5.18433 16.6405 6.6896L4.43055 18.9054C3.99633 18.8417 3.66634 18.4885 3.66634 18.0543ZM12.0495 21.9622C10.9032 21.9622 9.94212 21.1575 9.70476 20.0806H14.3884C14.1569 21.1575 13.1958 21.9622 12.0495 21.9622ZM19.489 18.9227H15.0253H9.06791H6.04581L17.1616 7.80696C17.3237 8.30486 17.4163 8.83748 17.4163 9.38748V15.1654C17.4163 16.2828 18.3427 17.1917 19.4832 17.1917C19.9869 17.1917 20.3921 17.5796 20.3921 18.0601C20.3921 18.5406 19.9927 18.9227 19.489 18.9227Z" fill="currentColor"/>
</svg>
