<svg width="24" height="24" viewBox="0 0 24 24" fill="none" xmlns="http://www.w3.org/2000/svg">
<path d="M18.5643 11.903C18.223 11.903 17.8933 11.9493 17.5751 12.0245L15.5735 6.81805L18.0784 5.56273C18.3619 5.41811 18.4776 5.07101 18.3387 4.78755C18.1941 4.50409 17.847 4.38839 17.5636 4.52723L14.5901 6.01395C14.324 6.147 14.2025 6.45939 14.3066 6.73706L15.1397 8.90062L11.8712 14.4021L8.66058 8.99318H8.89776C9.21593 8.99318 9.47625 8.73286 9.47625 8.41469C9.47625 8.09652 9.21593 7.8362 8.89776 7.8362H5.92432C5.60615 7.8362 5.34583 8.09652 5.34583 8.41469C5.34583 8.73286 5.60615 8.99318 5.92432 8.99318H7.3127L7.93747 10.0518L6.76313 12.2096C6.27141 12.0129 5.7392 11.903 5.17806 11.903C2.80625 11.903 0.879883 13.8294 0.879883 16.2012C0.879883 18.573 2.80625 20.4994 5.17806 20.4994C7.30691 20.4994 9.07131 18.9432 9.41262 16.9127H10.6332C10.8531 17.3813 11.3274 17.711 11.877 17.711C12.6348 17.711 13.2538 17.092 13.2538 16.3342C13.2538 15.8946 13.0455 15.507 12.7216 15.2524L15.6777 10.2716L16.5107 12.4294C15.186 13.1641 14.2835 14.5756 14.2835 16.1954C14.2835 18.5672 16.2099 20.4936 18.5817 20.4936C20.9535 20.4936 22.8799 18.5672 22.8799 16.1954C22.8799 13.8236 20.9361 11.903 18.5643 11.903ZM8.63165 11.2088L11.0324 15.2524C10.8646 15.3855 10.7258 15.5533 10.6332 15.7557H9.45311C9.32584 14.5467 8.69529 13.4823 7.7697 12.7823L8.63165 11.2088ZM8.28456 15.7557H6.15571L7.21435 13.812C7.78127 14.2979 8.17464 14.9806 8.28456 15.7557ZM5.17806 19.3424C3.44838 19.3424 2.03686 17.9309 2.03686 16.2012C2.03686 14.4715 3.44838 13.06 5.17806 13.06C5.53673 13.06 5.88382 13.1236 6.20778 13.2393L4.66899 16.0565C4.57065 16.2359 4.57643 16.4557 4.68056 16.6293C4.78469 16.8028 4.97559 16.9127 5.17806 16.9127H8.23249C7.90854 18.3011 6.66479 19.3424 5.17806 19.3424ZM11.8712 16.5541C11.7497 16.5541 11.6514 16.4557 11.6514 16.3342C11.6514 16.2127 11.7497 16.1144 11.8712 16.1144C11.9927 16.1144 12.091 16.2127 12.091 16.3342C12.091 16.4557 11.9927 16.5541 11.8712 16.5541ZM18.5643 19.3424C16.8347 19.3424 15.4231 17.9309 15.4231 16.2012C15.4231 15.0731 16.0248 14.0839 16.9156 13.5343L18.0206 16.4094C18.1073 16.6408 18.3272 16.7797 18.5586 16.7797C18.628 16.7797 18.6974 16.7681 18.7668 16.7392C19.0618 16.6235 19.2122 16.2879 19.0965 15.9929L17.9916 13.112C18.1768 13.0773 18.3677 13.06 18.5586 13.06C20.2882 13.06 21.6998 14.4715 21.6998 16.2012C21.6998 17.9309 20.2998 19.3424 18.5643 19.3424Z" fill="currentColor"/>
</svg>
