<svg width="24" height="25" viewBox="0 0 24 25" fill="none" xmlns="http://www.w3.org/2000/svg">
<path d="M22.4233 12.396H18.5385V7.55769C18.5385 7.23899 18.278 6.97824 17.9596 6.97824H12.5811V6.20758C13.1196 6.06852 13.5769 5.73824 13.8432 5.27468C14.1501 4.74159 14.1443 4.10421 13.8317 3.57112L12.5001 1.2997C12.2917 0.946242 11.7069 0.946242 11.4985 1.2997L10.1727 3.57112C9.86009 4.10421 9.85431 4.74159 10.1611 5.27468C10.4275 5.73824 10.8848 6.06852 11.4233 6.20758V6.97824H6.04482C5.7264 6.97824 5.46588 7.23899 5.46588 7.55769V12.396H1.58114C1.26272 12.396 1.0022 12.6568 1.0022 12.9755V19.5348C1.0022 21.4643 2.57115 23.0346 4.49904 23.0346H22.4233C22.7417 23.0346 23.0022 22.7739 23.0022 22.4552V12.9755C23.0022 12.6568 22.7417 12.396 22.4233 12.396ZM11.1685 4.70103C11.099 4.57935 11.0411 4.38234 11.1743 4.16215L12.0022 2.74252L12.8301 4.15636C12.9632 4.38234 12.9054 4.57355 12.8359 4.69524C12.7201 4.89804 12.4364 5.11823 12.0022 5.11823C11.568 5.12403 11.2843 4.90384 11.1685 4.70103ZM17.3806 8.13713V8.73396C17.3806 9.11059 17.0275 9.38293 16.7438 9.56835C16.4196 9.77695 16.0548 9.92761 15.6785 10.0029C15.0301 10.1304 14.3527 10.0609 13.739 9.8291C13.2238 9.63789 12.6969 9.29022 12.5811 8.71657C12.5406 8.52536 12.419 8.35152 12.2396 8.26461C12.089 8.19507 11.9038 8.19507 11.759 8.2704C11.5911 8.35152 11.4638 8.52536 11.4348 8.71078C11.3248 9.45246 10.248 10.0551 9.03219 10.0551C7.8164 10.0551 6.75115 9.45826 6.62957 8.71657V8.12554H17.3806V8.13713ZM6.62957 10.5476C7.26641 10.9706 8.10588 11.2256 9.03219 11.2256C10.2769 11.2256 11.3712 10.7562 12.008 10.0377C12.6448 10.7562 13.739 11.2256 14.9838 11.2256C15.9043 11.2256 16.7438 10.9706 17.3806 10.5476V12.4018H6.62957V10.5476ZM6.05062 13.5549H17.9596H21.8443V14.9514C21.7111 15.6351 20.5764 16.3652 18.9496 16.3652C17.2938 16.3652 16.1532 15.6177 16.049 14.9224C16.049 14.9108 16.0433 14.905 16.0375 14.8992C16.0317 14.8876 16.0259 14.8761 16.0259 14.8645C15.9506 14.5863 15.6843 14.3951 15.389 14.4415C15.1401 14.482 14.9548 14.679 14.9143 14.9166C14.9143 14.9224 14.9085 14.9282 14.9085 14.934C14.7927 15.6235 13.6522 16.3652 12.008 16.3652C10.3522 16.3652 9.21167 15.6235 9.10746 14.9398C9.07851 14.7718 8.95694 14.6095 8.80641 14.5284C8.55747 14.3951 8.23903 14.4704 8.07114 14.6906C8.01903 14.7602 7.97851 14.8413 7.96693 14.934C7.85114 15.6235 6.71061 16.371 5.0664 16.371C3.42798 16.371 2.29903 15.6351 2.17166 14.9514V13.5665H6.05062V13.5549ZM4.49904 21.8815C3.20799 21.8815 2.16009 20.8327 2.16009 19.5406V16.7361C2.89536 17.2286 3.9143 17.5241 5.05483 17.5241C6.53693 17.5241 7.81061 17.0258 8.52272 16.2493C9.22903 17.0258 10.5085 17.5241 12.0022 17.5241C13.4843 17.5241 14.7638 17.0258 15.4759 16.2435C16.188 17.0258 17.4617 17.5241 18.9496 17.5241C20.0901 17.5241 21.109 17.2286 21.8443 16.7361V21.8815H4.49904Z" fill="currentColor"/>
</svg>
