<svg width="24" height="24" viewBox="0 0 24 24" fill="none" xmlns="http://www.w3.org/2000/svg">
<path d="M16.7161 17.2221H16.508L15.6283 10.6179L16.7042 8.97136C16.8231 8.78709 16.835 8.55526 16.728 8.36504C16.621 8.17482 16.4248 8.05593 16.2049 8.05593H14.8377L15.01 7.71116C15.6818 6.35585 15.4143 4.72116 14.3502 3.64523L12.989 2.26614C13.0841 2.13537 13.1554 1.98082 13.1554 1.80249C13.1554 1.3626 12.7988 1 12.3529 1C11.9071 1 11.5504 1.35666 11.5504 1.80249C11.5504 1.98082 11.6218 2.13537 11.7169 2.27209L10.314 3.7344C9.26782 4.82221 9.03004 6.4569 9.71364 7.80032L9.84442 8.05593H8.48911C8.26917 8.05593 8.06706 8.17482 7.966 8.36504C7.86495 8.55526 7.8709 8.79303 7.98979 8.97136L9.06571 10.6179L8.18594 17.2221H6.22432C5.89738 17.2221 5.62988 17.4896 5.62988 17.8165V20.646C5.62988 21.9419 6.68203 23 7.98384 23H18.4578C18.7847 23 19.0522 22.7325 19.0522 22.4056V19.5761C19.0641 18.2743 18.0119 17.2221 16.7161 17.2221ZM10.7836 7.25345C10.3259 6.36179 10.4864 5.27398 11.1819 4.54877L12.3648 3.31829L13.5121 4.47744C14.2195 5.19076 14.3978 6.27857 13.952 7.17617L13.524 8.04404H11.1997L10.7836 7.25345ZM15.1111 9.23885L14.6058 10.0116H10.1119L9.60665 9.23885H15.1111ZM10.207 11.1945H14.5107L15.3132 17.2162H9.41047L10.207 11.1945ZM17.8752 21.8052H7.99572C7.35373 21.8052 6.83063 21.2821 6.83063 20.6401V18.405H8.72093H15.979H16.7042C17.3462 18.405 17.8693 18.9281 17.8693 19.5701V21.8052H17.8752Z" fill="currentColor"/>
</svg>
