<svg width="25" height="24" viewBox="0 0 25 24" fill="none" xmlns="http://www.w3.org/2000/svg">
<path d="M12.1025 1C6.03437 1 1.10254 5.93183 1.10254 12C1.10254 18.0682 6.03437 23 12.1025 23C18.1707 23 23.1025 18.0682 23.1025 12C23.1025 5.93183 18.1649 1 12.1025 1ZM12.1025 21.8464C7.32645 21.8464 3.34061 18.4316 2.44653 13.915H5.09415V14.6534C5.09415 14.9706 5.35372 15.2302 5.67097 15.2302C5.98822 15.2302 6.24779 14.9706 6.24779 14.6534V13.3382C6.24779 13.021 5.98822 12.7614 5.67097 12.7614H2.29656C2.27926 12.5076 2.25618 12.2596 2.25618 12C2.25618 11.6193 2.28502 11.2444 2.3254 10.8752H5.67097C5.98822 10.8752 6.24779 10.6156 6.24779 10.2984C6.24779 9.98112 5.98822 9.72155 5.67097 9.72155H2.53306C3.56557 5.38962 7.45912 2.15364 12.1025 2.15364C16.746 2.15364 20.6395 5.38962 21.672 9.72155H18.6091C18.2918 9.72155 18.0323 9.98112 18.0323 10.2984C18.0323 10.6156 18.2918 10.8752 18.6091 10.8752H21.8797C21.9201 11.2444 21.9489 11.6193 21.9489 12C21.9489 12.2538 21.9316 12.5076 21.9085 12.7614H18.6091C18.2918 12.7614 18.0323 13.021 18.0323 13.3382V14.6534C18.0323 14.9706 18.2918 15.2302 18.6091 15.2302C18.9263 15.2302 19.1859 14.9706 19.1859 14.6534V13.915H21.7585C20.8645 18.4316 16.8786 21.8464 12.1025 21.8464Z" fill="currentColor"/>
<path d="M16.665 9.51383C16.665 7.99102 15.5402 6.72778 14.0808 6.49705V5.18766C14.0808 4.87041 13.8213 4.61084 13.504 4.61084C13.1868 4.61084 12.9272 4.87041 12.9272 5.18766V6.44513H10.7699V5.18766C10.7699 4.87041 10.5103 4.61084 10.1931 4.61084C9.8758 4.61084 9.61623 4.87041 9.61623 5.18766V6.44513H7.66081C7.34355 6.44513 7.08398 6.7047 7.08398 7.02196C7.08398 7.33921 7.34355 7.59878 7.66081 7.59878H8.95866V16.3953H7.66081C7.34355 16.3953 7.08398 16.6549 7.08398 16.9721C7.08398 17.2894 7.34355 17.549 7.66081 17.549H9.61623V18.8064C9.61623 19.1237 9.8758 19.3833 10.1931 19.3833C10.5103 19.3833 10.7699 19.1237 10.7699 18.8064V17.549H12.9272V18.8064C12.9272 19.1237 13.1868 19.3833 13.504 19.3833C13.8213 19.3833 14.0808 19.1237 14.0808 18.8064V17.497C15.5402 17.2663 16.665 16.0088 16.665 14.4803C16.665 13.4535 16.1516 12.5479 15.3787 11.9942C16.1574 11.4404 16.665 10.5348 16.665 9.50806V9.51383ZM15.5114 14.486C15.5114 15.5416 14.6519 16.3953 13.6021 16.3953H10.1123V12.5768H13.6021C14.6577 12.5768 15.5114 13.4362 15.5114 14.486ZM13.6021 11.4231H10.1123V7.60455H13.6021C14.6577 7.60455 15.5114 8.46401 15.5114 9.51383C15.5114 10.5636 14.6519 11.4231 13.6021 11.4231Z" fill="currentColor"/>
</svg>
