<svg width="24" height="24" viewBox="0 0 24 24" fill="none" xmlns="http://www.w3.org/2000/svg">
<path d="M11.202 23.0048C11.121 23.0048 11.0399 22.9874 10.9646 22.9526C10.7562 22.86 10.623 22.6516 10.623 22.4257V13.6999L6.32089 16.6529C6.05454 16.8324 5.69555 16.7687 5.51605 16.5024C5.33656 16.236 5.40025 15.877 5.6666 15.6975L10.0787 12.675L5.73029 10.44C5.44657 10.2953 5.33656 9.94207 5.48131 9.65835C5.62607 9.37463 5.97927 9.26462 6.26299 9.40938L10.6288 11.656V1.58103C10.6288 1.34942 10.762 1.14676 10.9704 1.05412C11.1789 0.961475 11.4221 1.00201 11.5958 1.15255L18.544 7.40597C18.6772 7.52756 18.7467 7.69548 18.7351 7.87497C18.7235 8.05447 18.6309 8.21659 18.4861 8.31503L12.3369 12.5303L18.4224 15.6628C18.5903 15.7496 18.7061 15.9118 18.7351 16.1028C18.7582 16.2939 18.6888 16.4792 18.5498 16.6066L11.6016 22.86C11.48 22.9526 11.341 23.0048 11.202 23.0048ZM11.7811 13.5494V21.1287L17.137 16.3055L11.7811 13.5494ZM11.7811 2.88382V11.4996L17.218 7.77075L11.7811 2.88382Z" fill="currentColor"/>
</svg>
