<svg width="24" height="24" viewBox="0 0 24 24" fill="none" xmlns="http://www.w3.org/2000/svg">
<path d="M12 1.47669L11.9843 1.7262L12 1.72719L12.0157 1.7262L12 1.47669ZM20.4316 5.64759H20.6816V5.59102L20.6573 5.53997L20.4316 5.64759ZM20.4316 12.5675L20.6816 12.58V12.5675H20.4316ZM12 22.5402L11.9718 22.7886L12 22.7918L12.0282 22.7886L12 22.5402ZM3.56934 12.5675H3.31902L3.31965 12.58L3.56934 12.5675ZM3.56934 5.64759L3.34369 5.53997L3.31934 5.59102V5.64759H3.56934ZM12 1.47669L12.0157 1.7262C13.0282 1.6626 14.6653 1.78948 16.258 2.37856C17.8487 2.96693 19.3722 4.00701 20.206 5.75522L20.4316 5.64759L20.6573 5.53997C19.7499 3.63763 18.1 2.52679 16.4314 1.90961C14.7647 1.29313 13.0566 1.15983 11.9843 1.22719L12 1.47669ZM20.4316 5.64759H20.1816V12.5675H20.4316H20.6816V5.64759H20.4316ZM20.4316 12.5675L20.182 12.555C20.1082 14.0312 19.6055 16.2991 18.3418 18.2807C17.0831 20.2545 15.0743 21.9392 11.9718 22.2918L12 22.5402L12.0282 22.7886C15.3081 22.4159 17.4397 20.6252 18.7634 18.5495C20.0822 16.4816 20.6041 14.1258 20.6813 12.58L20.4316 12.5675ZM12 22.5402L12.0282 22.2918C8.9258 21.9391 6.91729 20.2544 5.65876 18.2806C4.39527 16.2991 3.89277 14.0312 3.81902 12.555L3.56934 12.5675L3.31965 12.58C3.39687 14.1257 3.91862 16.4815 5.23717 18.5494C6.56068 20.6251 8.69202 22.4158 11.9718 22.7886L12 22.5402ZM3.56934 12.5675H3.81934V5.64759H3.56934H3.31934V12.5675H3.56934ZM3.56934 5.64759L3.79498 5.75522C4.62879 4.00708 6.15201 2.96703 7.74246 2.37865C9.33483 1.78957 10.9717 1.66264 11.9843 1.7262L12 1.47669L12.0157 1.22719C10.9433 1.15987 9.23543 1.29322 7.56898 1.90971C5.90062 2.52691 4.25099 3.63774 3.34369 5.53997L3.56934 5.64759Z" fill="currentColor"/>
<circle cx="11.9995" cy="12.001" r="5.6733" fill="#C9C2EA"/>
<circle cx="11.9995" cy="12.001" r="5.6733" stroke="currentColor" stroke-width="0.5"/>
<g clip-path="url(#clip0_1_2674)">
<path d="M8.8418 11.9745H10.8318C11.5524 11.9745 12.1365 12.5586 12.1365 13.2792V13.3321C12.1365 14.0526 11.5524 14.6367 10.8318 14.6367H8.8418V9.36523H10.1728C10.8934 9.36523 11.4775 9.94938 11.4775 10.6699C11.4774 11.3904 10.8934 11.9745 10.1728 11.9745H8.8418Z" stroke="currentColor" stroke-width="0.5" stroke-linecap="round" stroke-linejoin="round"/>
<path d="M15.1585 11.3421H13.9475C13.5245 11.3421 13.1816 11.685 13.1816 12.108C13.1816 12.4376 13.3926 12.7303 13.7053 12.8345L14.6348 13.1444C14.9475 13.2486 15.1585 13.5413 15.1585 13.8709C15.1585 14.2939 14.8156 14.6368 14.3926 14.6368H13.1816" stroke="currentColor" stroke-width="0.5" stroke-linecap="round" stroke-linejoin="round"/>
</g>
<defs>
<clipPath id="clip0_1_2674">
<rect width="7.28957" height="6.24393" fill="white" transform="translate(8.35449 8.87903)"/>
</clipPath>
</defs>
</svg>
