<svg width="24" height="25" viewBox="0 0 24 25" fill="none" xmlns="http://www.w3.org/2000/svg">
<g clip-path="url(#clip0_1_2922)">
<path d="M3.44759 14.524C3.36278 14.5592 3.27503 14.5893 3.18368 14.6141C3.09232 14.6393 2.99802 14.6589 2.90044 14.6733C2.80287 14.6876 2.70431 14.6948 2.60542 14.6948C2.38702 14.6948 2.19154 14.6664 2.01865 14.6099C1.84577 14.5534 1.69908 14.4746 1.57923 14.3737C1.45939 14.2727 1.36771 14.1528 1.30451 14.0137C1.24132 13.8748 1.20988 13.7222 1.20988 13.556C1.20988 13.3897 1.24034 13.2482 1.30157 13.1143C1.36247 12.9803 1.45153 12.865 1.56876 12.7683C1.68565 12.6716 1.82972 12.5965 2.00065 12.5425C2.17157 12.489 2.36607 12.4619 2.58414 12.4619C2.67451 12.4619 2.76619 12.4677 2.85886 12.4792C2.95152 12.4906 3.04124 12.5066 3.12801 12.5275C3.21478 12.5484 3.29664 12.5736 3.37359 12.6036C3.45054 12.6337 3.51832 12.668 3.57726 12.7069L3.8916 12.191C3.69481 12.078 3.48197 11.9937 3.25309 11.9385C3.02421 11.8833 2.77241 11.8558 2.49835 11.8558C2.18532 11.8558 1.90503 11.8996 1.65749 11.9868C1.40995 12.0741 1.20006 12.1943 1.02848 12.3469C0.856907 12.4994 0.725932 12.6791 0.635559 12.8862C0.545186 13.0934 0.5 13.3165 0.5 13.5556C0.5 13.7948 0.544204 14.0293 0.632285 14.242C0.720693 14.4547 0.852322 14.6396 1.0275 14.7964C1.20268 14.9532 1.42075 15.0764 1.68205 15.1659C1.94334 15.2554 2.24688 15.3002 2.59298 15.3002C2.86442 15.3002 3.12048 15.2669 3.3618 15.2002C3.60312 15.1336 3.8153 15.0414 3.99932 14.9242L3.68498 14.4083C3.61196 14.4498 3.53272 14.488 3.44825 14.5233L3.44759 14.524Z" fill="#7866CB"/>
<path d="M7.87033 12.3276C7.7017 12.1763 7.49902 12.0594 7.26195 11.9764C7.02521 11.8934 6.76359 11.8519 6.47807 11.8519C6.19254 11.8519 5.92928 11.8934 5.6932 11.9764C5.45712 12.0594 5.25443 12.1767 5.0858 12.3276C4.91717 12.4789 4.7862 12.6595 4.69288 12.8702C4.59956 13.081 4.55273 13.3129 4.55273 13.5664C4.55273 13.8199 4.59923 14.0552 4.69288 14.2678C4.7862 14.4805 4.91717 14.6635 5.0858 14.8167C5.25443 14.9699 5.45679 15.0892 5.6932 15.1744C5.92928 15.2597 6.1909 15.3022 6.47807 15.3022C6.76523 15.3022 7.02521 15.2594 7.26195 15.1744C7.49869 15.0892 7.7017 14.9699 7.87033 14.8167C8.03896 14.6635 8.16993 14.4805 8.26325 14.2678C8.35657 14.0552 8.4034 13.8212 8.4034 13.5664C8.4034 13.3116 8.3569 13.081 8.26325 12.8702C8.16961 12.6595 8.03896 12.4789 7.87033 12.3276ZM7.62606 14.0349C7.56287 14.1738 7.47609 14.2923 7.36542 14.3904C7.25475 14.4884 7.12377 14.5642 6.9725 14.6171C6.82089 14.67 6.65619 14.6965 6.47839 14.6965C6.30059 14.6965 6.13557 14.67 5.98429 14.6171C5.83269 14.5642 5.70138 14.4884 5.59006 14.3904C5.47873 14.2923 5.39196 14.1738 5.32942 14.0349C5.26688 13.8961 5.23577 13.7399 5.23577 13.5664C5.23577 13.393 5.26688 13.2378 5.32942 13.1002C5.39196 12.9627 5.47873 12.8464 5.59006 12.751C5.70138 12.6556 5.83269 12.5831 5.98429 12.5328C6.13589 12.4828 6.30059 12.4576 6.47839 12.4576C6.65619 12.4576 6.82122 12.4828 6.9725 12.5328C7.1241 12.5831 7.25507 12.6556 7.36542 12.751C7.47609 12.8464 7.56287 12.9627 7.62606 13.1002C7.68926 13.2378 7.72069 13.3933 7.72069 13.5664C7.72069 13.7396 7.68926 13.8961 7.62606 14.0349Z" fill="#7866CB"/>
<path d="M12.2024 13.7447C12.2649 13.6503 12.3111 13.5467 12.3412 13.4344C12.3713 13.322 12.3864 13.2034 12.3864 13.0786C12.3864 12.8937 12.3559 12.7284 12.2947 12.5823C12.2335 12.4363 12.1408 12.3125 12.0157 12.2106C11.8907 12.109 11.7335 12.0312 11.5442 11.9773C11.3546 11.9237 11.1307 11.8966 10.8723 11.8966H9.16016V15.255H9.84286V14.2988L10.8766 14.3011H10.8959L11.5292 15.255H12.3648L11.6326 14.1805C11.7603 14.1319 11.8717 14.0708 11.9663 13.9969C12.0609 13.9231 12.1398 13.8391 12.202 13.7444L12.2024 13.7447ZM11.6189 13.3396C11.5865 13.4177 11.5377 13.484 11.4725 13.5383C11.407 13.5928 11.3262 13.635 11.2292 13.665C11.1323 13.6951 11.0193 13.7101 10.89 13.7101H9.84352V12.4896H10.89C11.15 12.4896 11.3445 12.5408 11.4735 12.6431C11.6028 12.7457 11.6673 12.8907 11.6673 13.0783C11.6673 13.1743 11.6513 13.2612 11.6189 13.3393V13.3396Z" fill="#7866CB"/>
<path d="M13.9854 14.6601V13.7251H15.9193V13.1645H13.9854V12.4941H16.1691V11.8966H13.3027V15.255H16.2143V14.6601H13.9854Z" fill="#7866CB"/>
<path d="M23.4421 14.0877C23.2882 13.9594 23.1094 13.86 22.914 13.7983C22.8724 13.7852 22.8298 13.7738 22.7866 13.764L21.9726 13.5611C21.6834 13.4889 21.4018 13.3873 21.1379 13.2494C20.9015 13.126 20.6772 12.9757 20.4942 12.7931C20.3858 12.6719 20.2902 12.5575 20.206 12.451C20.2047 12.449 20.2034 12.4474 20.2021 12.4455C20.0253 12.2027 19.8835 11.9361 19.7748 11.6562L19.5246 11.0122C19.5246 11.0122 19.5243 11.0113 19.524 11.0109L19.5201 11.0011C19.4978 10.9433 19.4706 10.8874 19.4389 10.8348C19.356 10.6983 19.2431 10.582 19.1091 10.4951C18.9431 10.3879 18.7453 10.3255 18.5328 10.3262C18.246 10.3272 17.9844 10.4461 17.7941 10.6362C17.6039 10.826 17.4844 11.0871 17.4834 11.3732C17.4827 11.5853 17.5453 11.7826 17.6533 11.9479C17.7404 12.0815 17.857 12.1945 17.9939 12.2769C18.0466 12.3086 18.1023 12.3357 18.1605 12.3579L18.1704 12.3618C18.1707 12.3618 18.1714 12.3621 18.1717 12.3625L18.8171 12.6121C19.0977 12.7205 19.3645 12.8617 19.6081 13.0384C19.6101 13.0397 19.6117 13.041 19.6137 13.0423C19.7208 13.1263 19.8351 13.222 19.9565 13.3298C20.1392 13.5121 20.2902 13.7362 20.414 13.9721C20.5521 14.2354 20.6543 14.5164 20.7263 14.8048L20.9297 15.617C20.9392 15.6601 20.9506 15.7026 20.9641 15.7441C21.0259 15.9391 21.1255 16.1178 21.2542 16.2711C21.5577 16.6327 22.023 16.8549 22.5377 16.8251C22.9287 16.8026 23.2823 16.6334 23.5436 16.3723C23.8052 16.1113 23.9748 15.7588 23.9974 15.3687C24.0272 14.8548 23.8046 14.3906 23.4421 14.0881V14.0877Z" fill="#7866CB"/>
<path d="M18.78 14.4762C18.1984 14.4762 17.7256 14.9476 17.7256 15.5269C17.7256 16.1061 18.1987 16.5775 18.78 16.5775C19.3613 16.5775 19.8344 16.1061 19.8344 15.5269C19.8344 14.9476 19.3613 14.4762 18.78 14.4762Z" fill="#7866CB"/>
<path d="M22.6951 12.6777C23.2767 12.6777 23.7495 12.2063 23.7495 11.6271C23.7495 11.0478 23.2764 10.5764 22.6951 10.5764C22.1137 10.5764 21.6406 11.0478 21.6406 11.6271C21.6406 12.2063 22.1137 12.6777 22.6951 12.6777Z" fill="#0C55F8"/>
</g>
<defs>
<clipPath id="clip0_1_2922">
<rect width="23.4996" height="6.50161" fill="white" transform="translate(0.5 10.3262)"/>
</clipPath>
</defs>
</svg>
