<svg width="24" height="24" viewBox="0 0 24 24" fill="none" xmlns="http://www.w3.org/2000/svg">
<path d="M19.0645 5.96095V2.30303C14.5881 2.27554 5.21529 2.22058 3.53468 2.22058C1.85406 2.22058 1.32953 3.60231 1.27734 4.29317V21.0426H22.7489V5.96095H19.0645Z" fill="white"/>
<path d="M11.5152 22.5451C13.9425 22.5451 15.9103 20.5774 15.9103 18.15C15.9103 15.7227 13.9425 13.755 11.5152 13.755C9.08786 13.755 7.12012 15.7227 7.12012 18.15C7.12012 20.5774 9.08786 22.5451 11.5152 22.5451Z" fill="#7866CB"/>
<path d="M3.12416 3.84769C3.06172 3.84767 3.00174 3.87204 2.95702 3.91562C2.91229 3.9592 2.88637 4.01852 2.88477 4.08094C2.88632 4.14395 2.91204 4.20394 2.95661 4.2485C3.00117 4.29306 3.06116 4.31879 3.12416 4.32034H16.9171C16.9801 4.31879 17.0401 4.29306 17.0846 4.2485C17.1292 4.20394 17.1549 4.14395 17.1565 4.08094C17.1549 4.01852 17.129 3.9592 17.0842 3.91562C17.0395 3.87204 16.9795 3.84767 16.9171 3.84769H3.12416Z" fill="currentColor"/>
<path d="M22.7667 5.68916H1.46659V4.36941C1.46482 3.87532 1.65654 3.40017 2.00072 3.04567C2.34489 2.69117 2.81417 2.48549 3.3081 2.47265H18.8443V4.5597C18.8459 4.62212 18.8718 4.68145 18.9166 4.72503C18.9613 4.7686 19.0213 4.79298 19.0837 4.79296C19.1456 4.79296 19.2049 4.76838 19.2487 4.72464C19.2924 4.6809 19.317 4.62157 19.317 4.5597V2.2394C19.317 2.17695 19.2926 2.11697 19.249 2.07225C19.2055 2.02753 19.1461 2.0016 19.0837 2H3.33265C3.02391 2.00241 2.71867 2.06561 2.43436 2.18599C2.15004 2.30637 1.89222 2.48157 1.67562 2.70159C1.45902 2.92161 1.28788 3.18215 1.17197 3.46831C1.05605 3.75448 0.997645 4.06067 1.00007 4.36941V21.0351C1.00007 21.097 1.02465 21.1563 1.06839 21.2C1.11214 21.2438 1.17147 21.2684 1.23333 21.2684H6.37729C6.43915 21.2684 6.49848 21.2438 6.54223 21.2C6.58597 21.1563 6.61055 21.097 6.61055 21.0351C6.61057 20.9727 6.58619 20.9127 6.54261 20.8679C6.49904 20.8232 6.43971 20.7973 6.37729 20.7957H1.46659V6.16182H22.5273V11.0725H18.4085C18.0992 11.0725 17.8025 11.1954 17.5838 11.4141C17.3651 11.6328 17.2422 11.9295 17.2422 12.2388V13.8962C17.2422 14.2055 17.3651 14.5021 17.5838 14.7209C17.8025 14.9396 18.0992 15.0625 18.4085 15.0625H22.5273V20.7957H16.6713C16.6399 20.7957 16.6088 20.8019 16.5797 20.8139C16.5507 20.826 16.5243 20.8436 16.5021 20.8658C16.4798 20.888 16.4622 20.9144 16.4502 20.9435C16.4381 20.9725 16.4319 21.0037 16.4319 21.0351C16.4319 21.0662 16.4382 21.0971 16.4503 21.1258C16.4624 21.1545 16.4801 21.1805 16.5024 21.2022C16.5247 21.224 16.5512 21.241 16.5802 21.2524C16.6092 21.2637 16.6402 21.2692 16.6713 21.2684H22.7667C22.8286 21.2684 22.8879 21.2438 22.9317 21.2C22.9754 21.1563 23 21.097 23 21.0351V5.92242C23 5.89179 22.994 5.86146 22.9822 5.83316C22.9705 5.80486 22.9533 5.77914 22.9317 5.75748C22.91 5.73582 22.8843 5.71864 22.856 5.70692C22.8277 5.6952 22.7974 5.68916 22.7667 5.68916ZM18.4085 14.5775C18.225 14.5759 18.0495 14.5023 17.9198 14.3726C17.7901 14.2429 17.7165 14.0674 17.7149 13.8839V12.2265C17.7165 12.0431 17.7901 11.8676 17.9198 11.7378C18.0495 11.6081 18.225 11.5345 18.4085 11.5329H22.5273V14.6021L18.4085 14.5775Z" fill="currentColor"/>
<path d="M11.5153 13.5156C10.5987 13.5156 9.70269 13.7874 8.94056 14.2967C8.17842 14.8059 7.58441 15.5297 7.23364 16.3766C6.88287 17.2234 6.79109 18.1552 6.96991 19.0542C7.14873 19.9532 7.59012 20.779 8.23827 21.4272C8.88641 22.0753 9.71219 22.5167 10.6112 22.6955C11.5102 22.8743 12.442 22.7826 13.2889 22.4318C14.1357 22.081 14.8595 21.487 15.3688 20.7249C15.878 19.9627 16.1498 19.0667 16.1498 18.1501C16.1498 17.5415 16.0299 16.9388 15.797 16.3766C15.5641 15.8143 15.2227 15.3034 14.7924 14.873C14.362 14.4427 13.8511 14.1013 13.2889 13.8684C12.7266 13.6355 12.1239 13.5156 11.5153 13.5156ZM11.5153 22.3119C10.6927 22.3095 9.8893 22.0633 9.20651 21.6046C8.52372 21.1458 7.9922 20.4949 7.67908 19.7343C7.36596 18.9736 7.28529 18.1372 7.44726 17.3307C7.60923 16.5242 8.00657 15.7837 8.5891 15.2029C9.17162 14.6221 9.91321 14.227 10.7202 14.0674C11.5272 13.9078 12.3633 13.9909 13.1231 14.3063C13.8828 14.6216 14.5321 15.1551 14.9889 15.8392C15.4456 16.5233 15.6894 17.3275 15.6894 18.1501C15.6894 18.6977 15.5814 19.2399 15.3715 19.7456C15.1615 20.2513 14.8539 20.7107 14.4661 21.0973C14.0784 21.4839 13.6181 21.7902 13.1118 21.9986C12.6054 22.2071 12.0629 22.3135 11.5153 22.3119Z" fill="currentColor"/>
<path d="M12.4114 15.707H11.7975V15.2159C11.7885 15.1598 11.7597 15.1087 11.7164 15.0718C11.6731 15.035 11.6181 15.0147 11.5612 15.0147C11.5043 15.0147 11.4493 15.035 11.406 15.0718C11.3627 15.1087 11.334 15.1598 11.3249 15.2159V15.707H10.7786C10.6867 15.7054 10.5953 15.7219 10.5098 15.7555C10.4243 15.7892 10.3462 15.8394 10.2801 15.9032C10.214 15.9671 10.1611 16.0433 10.1245 16.1276C10.0878 16.2119 10.0681 16.3026 10.0665 16.3945V17.8125C10.0649 17.9064 10.0821 17.9998 10.1173 18.0869C10.1525 18.174 10.2049 18.2532 10.2714 18.3197C10.3378 18.3861 10.417 18.4385 10.5041 18.4737C10.5913 18.5089 10.6846 18.5262 10.7786 18.5245H12.4359C12.4655 18.522 12.4952 18.5255 12.5233 18.5347C12.5515 18.5439 12.5775 18.5587 12.5999 18.5781C12.6222 18.5976 12.6404 18.6214 12.6533 18.648C12.6663 18.6746 12.6738 18.7036 12.6753 18.7332V20.2985C12.6738 20.3283 12.6663 20.3576 12.6534 20.3845C12.6405 20.4115 12.6225 20.4356 12.6002 20.4556C12.578 20.4756 12.552 20.4909 12.5238 20.5008C12.4956 20.5108 12.4658 20.515 12.4359 20.5133H10.7786C10.7187 20.5151 10.6605 20.4938 10.6159 20.4538C10.5713 20.4138 10.5439 20.3582 10.5392 20.2985V19.7338C10.5392 19.6719 10.5146 19.6126 10.4709 19.5688C10.4271 19.5251 10.3678 19.5005 10.3059 19.5005C10.2435 19.5005 10.1835 19.5249 10.1388 19.5684C10.094 19.612 10.0681 19.6713 10.0665 19.7338V20.2985C10.0713 20.483 10.1489 20.6582 10.2823 20.7858C10.4156 20.9134 10.594 20.9832 10.7786 20.9799H11.3924V21.4648C11.3869 21.499 11.3888 21.534 11.3982 21.5674C11.4075 21.6008 11.424 21.6318 11.4464 21.6582C11.4689 21.6846 11.4969 21.7058 11.5283 21.7203C11.5598 21.7349 11.5941 21.7424 11.6287 21.7424C11.6634 21.7424 11.6977 21.7349 11.7291 21.7203C11.7606 21.7058 11.7885 21.6846 11.811 21.6582C11.8335 21.6318 11.85 21.6008 11.8593 21.5674C11.8686 21.534 11.8706 21.499 11.8651 21.4648V20.9799H12.4789C12.5708 20.9815 12.6621 20.965 12.7476 20.9313C12.8332 20.8976 12.9112 20.8475 12.9773 20.7836C13.0435 20.7198 13.0964 20.6435 13.133 20.5592C13.1697 20.4749 13.1893 20.3843 13.1909 20.2924V18.7087C13.1861 18.5241 13.1086 18.349 12.9752 18.2214C12.8418 18.0938 12.6635 18.024 12.4789 18.0273H10.7786C10.7187 18.0291 10.6605 18.0077 10.6159 17.9677C10.5713 17.9277 10.5439 17.8722 10.5392 17.8125V16.3945C10.5439 16.3348 10.5713 16.2792 10.6159 16.2392C10.6605 16.1992 10.7187 16.1779 10.7786 16.1797H12.4359C12.4658 16.178 12.4956 16.1822 12.5238 16.1921C12.552 16.2021 12.578 16.2174 12.6002 16.2374C12.6225 16.2573 12.6405 16.2815 12.6534 16.3085C12.6663 16.3354 12.6738 16.3647 12.6753 16.3945V16.9592C12.6844 17.0154 12.7132 17.0664 12.7565 17.1033C12.7998 17.1402 12.8548 17.1604 12.9117 17.1604C12.9685 17.1604 13.0235 17.1402 13.0668 17.1033C13.1101 17.0664 13.1389 17.0154 13.148 16.9592V16.3945C13.1465 16.3005 13.126 16.2077 13.0878 16.1217C13.0496 16.0358 12.9945 15.9584 12.9258 15.8942C12.857 15.83 12.776 15.7804 12.6876 15.7482C12.5993 15.7161 12.5053 15.702 12.4114 15.707Z" fill="currentColor"/>
<path d="M20.1207 12.1406C19.9398 12.1406 19.7629 12.1942 19.6125 12.2947C19.4621 12.3952 19.3449 12.5381 19.2757 12.7052C19.2065 12.8723 19.1883 13.0562 19.2236 13.2336C19.2589 13.4111 19.346 13.574 19.4739 13.7019C19.6019 13.8299 19.7648 13.917 19.9422 13.9523C20.1197 13.9875 20.3036 13.9694 20.4707 13.9002C20.6378 13.831 20.7806 13.7138 20.8811 13.5633C20.9816 13.4129 21.0353 13.2361 21.0353 13.0552C21.0353 12.8126 20.9389 12.58 20.7674 12.4085C20.5959 12.237 20.3632 12.1406 20.1207 12.1406ZM20.1207 13.4972C20.0333 13.4972 19.9478 13.4713 19.8751 13.4227C19.8025 13.3741 19.7458 13.3051 19.7124 13.2243C19.6789 13.1436 19.6701 13.0547 19.6872 12.969C19.7043 12.8833 19.7463 12.8045 19.8082 12.7427C19.87 12.6809 19.9487 12.6388 20.0344 12.6217C20.1202 12.6047 20.209 12.6134 20.2898 12.6469C20.3706 12.6803 20.4396 12.737 20.4882 12.8097C20.5367 12.8824 20.5626 12.9678 20.5626 13.0552C20.5626 13.1724 20.5161 13.2848 20.4332 13.3677C20.3503 13.4506 20.2379 13.4972 20.1207 13.4972Z" fill="currentColor"/>
</svg>
