<svg width="24" height="24" viewBox="0 0 24 24" fill="none" xmlns="http://www.w3.org/2000/svg">
<path d="M13.9087 10.5799H12.2285H11.3633V14.1598H12.2285H13.9087H14.9119L15.8084 12.3668H17.5952V14.1598H19.3883V12.3668H21.1752V14.1598H22.962V10.5799H13.9087Z" fill="#C9C2EA"/>
<path d="M9.74036 7.0188H3.00685C2.1412 7.0188 1.43945 7.72054 1.43945 8.58619V15.3197C1.43945 16.1854 2.1412 16.8871 3.00685 16.8871H9.74036C10.606 16.8871 11.3078 16.1854 11.3078 15.3197V8.58619C11.3078 7.72054 10.606 7.0188 9.74036 7.0188Z" fill="#C9C2EA"/>
<path d="M22.7617 10.1849H11.3511V8.80564C11.3511 8.32675 11.1608 7.86748 10.8222 7.52886C10.4836 7.19024 10.0243 7 9.54542 7H2.81191C2.33244 7 1.87252 7.19003 1.53291 7.52848C1.19329 7.86692 1.00166 8.32618 1 8.80564V15.5454C1.00166 16.0249 1.19329 16.4841 1.53291 16.8226C1.87252 17.161 2.33244 17.3511 2.81191 17.3511H9.54542C10.0243 17.3511 10.4836 17.1608 10.8222 16.8222C11.1608 16.4836 11.3511 16.0243 11.3511 15.5454V14.2225H14.7304C14.7755 14.223 14.8199 14.211 14.8587 14.1877C14.8974 14.1645 14.9289 14.131 14.9498 14.0909L15.7774 12.4294H17.1755V13.978C17.1746 14.0104 17.1804 14.0426 17.1923 14.0726C17.2043 14.1027 17.2223 14.13 17.2452 14.1528C17.2681 14.1757 17.2954 14.1937 17.3254 14.2057C17.3555 14.2177 17.3877 14.2234 17.42 14.2225H19.2068C19.2386 14.2226 19.2701 14.2162 19.2995 14.2038C19.3288 14.1915 19.3553 14.1734 19.3775 14.1506C19.3998 14.1278 19.4172 14.1008 19.4288 14.0711C19.4404 14.0415 19.4459 14.0098 19.4451 13.978V12.4294H20.7554V13.978C20.7546 14.0098 20.7601 14.0415 20.7717 14.0711C20.7833 14.1008 20.8007 14.1278 20.8229 14.1506C20.8451 14.1734 20.8717 14.1915 20.901 14.2038C20.9303 14.2162 20.9618 14.2226 20.9937 14.2225H22.7617C22.7935 14.2226 22.825 14.2162 22.8543 14.2038C22.8836 14.1915 22.9102 14.1734 22.9324 14.1506C22.9546 14.1278 22.972 14.1008 22.9836 14.0711C22.9952 14.0415 23.0008 14.0098 22.9999 13.978V10.3981C22.9937 10.3394 22.9659 10.285 22.9219 10.2456C22.8778 10.2062 22.8207 10.1846 22.7617 10.1849ZM10.8495 15.5454C10.8478 15.8968 10.7071 16.2333 10.458 16.4812C10.2089 16.7291 9.87177 16.8683 9.52034 16.8683H2.81191C2.46048 16.8683 2.12335 16.7291 1.87427 16.4812C1.62518 16.2333 1.48441 15.8968 1.48276 15.5454V8.80564C1.48441 8.45421 1.62518 8.11775 1.87427 7.86984C2.12335 7.62193 2.46048 7.48275 2.81191 7.48276H9.54542C9.89249 7.4893 10.2232 7.63137 10.4669 7.87857C10.7106 8.12578 10.8479 8.45851 10.8495 8.80564V15.5454ZM22.5172 13.7398H21.2382V12.1912C21.2382 12.1264 21.2124 12.0642 21.1666 12.0183C21.1207 11.9725 21.0585 11.9467 20.9937 11.9467H19.2068C19.1425 11.9483 19.0812 11.9746 19.0357 12.0201C18.9902 12.0656 18.9639 12.1269 18.9623 12.1912V13.7398H17.6582V12.1912C17.6583 12.1274 17.6334 12.0662 17.5889 12.0205C17.5443 11.9748 17.4838 11.9483 17.42 11.9467H15.6269C15.5822 11.948 15.5386 11.9615 15.501 11.9858C15.4634 12.0101 15.4332 12.0443 15.4137 12.0846L14.6112 13.7398H11.4764V10.6426H22.5422L22.5172 13.7398Z" fill="currentColor"/>
</svg>
