<svg width="24" height="24" viewBox="0 0 24 24" fill="none" xmlns="http://www.w3.org/2000/svg">
<path d="M22.8567 10.3273L22.7804 20.7641H21.9448H21.8702L5.49002 20.867L1.375 8.83729L17.1728 3.28754L19.6008 10.3273H22.8567Z" fill="white"/>
<path d="M9.65997 13.8591H7.6709V15.8482H9.65997V13.8591Z" fill="#7866CB"/>
<path d="M4.38669 13.5379C4.83702 13.5379 5.20208 13.1728 5.20208 12.7225C5.20208 12.2722 4.83702 11.9071 4.38669 11.9071C3.93635 11.9071 3.57129 12.2722 3.57129 12.7225C3.57129 13.1728 3.93635 13.5379 4.38669 13.5379Z" fill="#7866CB"/>
<path d="M16.747 9.03479C17.1974 9.03479 17.5624 8.66972 17.5624 8.21939C17.5624 7.76906 17.1974 7.40399 16.747 7.40399C16.2967 7.40399 15.9316 7.76906 15.9316 8.21939C15.9316 8.66972 16.2967 9.03479 16.747 9.03479Z" fill="#7866CB"/>
<path d="M4.38668 13.6244C4.24395 13.6275 4.1024 13.5979 3.97281 13.538C3.8108 13.4612 3.67534 13.3379 3.58372 13.1838C3.4921 13.0298 3.44848 12.8519 3.45842 12.6729C3.46836 12.4939 3.53142 12.3219 3.63955 12.1789C3.74767 12.036 3.89596 11.9284 4.06547 11.8701C4.17747 11.83 4.29634 11.8127 4.41512 11.819C4.53391 11.8254 4.65024 11.8554 4.75732 11.9072C4.86449 11.9585 4.96022 12.0309 5.03876 12.12C5.11731 12.2092 5.17706 12.3133 5.21444 12.4261C5.29356 12.6513 5.28011 12.8988 5.17705 13.1142C5.07399 13.3296 4.88973 13.4953 4.66466 13.575C4.57533 13.6066 4.48142 13.6233 4.38668 13.6244ZM4.24461 12.3149C4.1373 12.3525 4.04935 12.4313 4.00012 12.5338C3.95088 12.6364 3.94439 12.7542 3.98207 12.8616C4.01976 12.9689 4.09852 13.0568 4.20105 13.106C4.30357 13.1553 4.42145 13.1618 4.52876 13.1241C4.63533 13.0862 4.72282 13.0081 4.77248 12.9065C4.82213 12.8049 4.82999 12.6878 4.79438 12.5805C4.77608 12.5263 4.74691 12.4765 4.70868 12.434C4.67044 12.3915 4.62393 12.3573 4.572 12.3334C4.46954 12.2845 4.35194 12.2778 4.24461 12.3149Z" fill="currentColor"/>
<path d="M16.7456 9.12123C16.6104 9.12142 16.4771 9.08967 16.3565 9.02857C16.2488 8.97863 16.1522 8.90749 16.0726 8.8194C15.993 8.73131 15.932 8.62807 15.8932 8.51586C15.8531 8.40386 15.8357 8.28499 15.8421 8.16621C15.8485 8.04742 15.8784 7.93109 15.9302 7.82401C16.0354 7.60724 16.2219 7.44074 16.4491 7.36072C16.676 7.2788 16.9262 7.29038 17.1446 7.3929C17.3629 7.49543 17.5316 7.6805 17.6135 7.9074C17.6955 8.13431 17.6839 8.38446 17.5814 8.60283C17.4788 8.8212 17.2938 8.9899 17.0669 9.07181C16.9634 9.10635 16.8547 9.12306 16.7456 9.12123ZM16.7456 7.78695C16.6987 7.77809 16.6505 7.77809 16.6036 7.78695C16.4979 7.82693 16.4101 7.90369 16.3565 8.00315C16.3335 8.05466 16.3216 8.11044 16.3216 8.16685C16.3216 8.22326 16.3335 8.27904 16.3565 8.33054C16.3734 8.38447 16.4014 8.43428 16.4386 8.47681C16.4758 8.51935 16.5215 8.55368 16.5727 8.57763C16.6776 8.62055 16.7952 8.62055 16.9001 8.57763C17.0058 8.53765 17.0935 8.46089 17.1472 8.36143C17.1901 8.25652 17.1901 8.13895 17.1472 8.03404C17.1083 7.92568 17.0285 7.83694 16.9248 7.78695C16.8659 7.77302 16.8045 7.77302 16.7456 7.78695Z" fill="currentColor"/>
<path d="M8.72838 19.5297H7.84504C7.78854 19.5206 7.73714 19.4916 7.70005 19.4481C7.66295 19.4045 7.64258 19.3491 7.64258 19.2919C7.64258 19.2347 7.66295 19.1793 7.70005 19.1357C7.73714 19.0922 7.78854 19.0632 7.84504 19.0541H8.72838C8.78488 19.0632 8.83628 19.0922 8.87337 19.1357C8.91047 19.1793 8.93084 19.2347 8.93084 19.2919C8.93084 19.3491 8.91047 19.4045 8.87337 19.4481C8.83628 19.4916 8.78488 19.5206 8.72838 19.5297Z" fill="currentColor"/>
<path d="M11.1551 18.5168H7.84411C7.78185 18.5168 7.72215 18.492 7.67813 18.448C7.63411 18.404 7.60938 18.3443 7.60938 18.282C7.60938 18.2198 7.63411 18.1601 7.67813 18.1161C7.72215 18.072 7.78185 18.0473 7.84411 18.0473H11.1551C11.2174 18.0473 11.2771 18.072 11.3211 18.1161C11.3651 18.1601 11.3899 18.2198 11.3899 18.282C11.3899 18.3443 11.3651 18.404 11.3211 18.448C11.2771 18.492 11.2174 18.5168 11.1551 18.5168Z" fill="currentColor"/>
<path d="M13.2752 19.5299H10.1495C10.115 19.5355 10.0798 19.5335 10.0462 19.5241C10.0126 19.5147 9.98143 19.4981 9.95486 19.4755C9.9283 19.4529 9.90696 19.4248 9.89233 19.3931C9.8777 19.3614 9.87012 19.327 9.87012 19.2921C9.87012 19.2572 9.8777 19.2227 9.89233 19.191C9.90696 19.1594 9.9283 19.1312 9.95486 19.1086C9.98143 19.086 10.0126 19.0694 10.0462 19.06C10.0798 19.0506 10.115 19.0487 10.1495 19.0542H13.2999C13.3343 19.0487 13.3696 19.0506 13.4032 19.06C13.4368 19.0694 13.4679 19.086 13.4945 19.1086C13.5211 19.1312 13.5424 19.1594 13.557 19.191C13.5717 19.2227 13.5792 19.2572 13.5792 19.2921C13.5792 19.327 13.5717 19.3614 13.557 19.3931C13.5424 19.4248 13.5211 19.4529 13.4945 19.4755C13.4679 19.4981 13.4368 19.5147 13.4032 19.5241C13.3696 19.5335 13.3343 19.5355 13.2999 19.5299H13.2752Z" fill="currentColor"/>
<path d="M22.7947 10.023H14.6963C14.6601 9.81358 14.6085 9.60711 14.5419 9.40528C14.2533 8.60015 13.707 7.91276 12.9879 7.44971C12.2688 6.98666 11.417 6.77382 10.5646 6.84421C9.71218 6.9146 8.90682 7.26428 8.2734 7.83901C7.63999 8.41375 7.21391 9.18144 7.06125 10.023H5.95552C5.92417 10.023 5.89313 10.0293 5.86424 10.0414C5.83535 10.0536 5.80919 10.0715 5.78731 10.0939C5.76543 10.1164 5.74827 10.143 5.73685 10.1722C5.72542 10.2014 5.71996 10.2326 5.72078 10.2639V20.7652C5.72078 20.8275 5.74552 20.8872 5.78954 20.9312C5.83356 20.9752 5.89326 21 5.95552 21H22.7947C22.8575 21 22.9179 20.9755 22.9629 20.9316C23.0079 20.8878 23.034 20.8281 23.0356 20.7652V10.2639C23.0356 10.2 23.0102 10.1387 22.965 10.0936C22.9199 10.0484 22.8586 10.023 22.7947 10.023ZM9.74217 7.46562C10.5943 7.17536 11.5265 7.23315 12.3362 7.62644C13.1459 8.01972 13.7676 8.71671 14.0662 9.56589C14.1168 9.71557 14.1581 9.86823 14.1898 10.023H9.80394L9.65569 9.52882C9.64607 9.50505 9.64607 9.47847 9.65569 9.4547C9.6708 9.4234 9.69733 9.39909 9.72982 9.38675L10.3475 9.17672L10.9653 8.96052C10.9957 8.94986 11.029 8.95092 11.0587 8.96348C11.0884 8.97604 11.1123 8.99921 11.1259 9.02847L11.268 9.43617C11.2783 9.46551 11.2944 9.49249 11.3153 9.51556C11.3361 9.53863 11.3614 9.55732 11.3896 9.57054C11.4177 9.58376 11.4482 9.59125 11.4793 9.59257C11.5104 9.59389 11.5415 9.58902 11.5706 9.57824C11.6 9.56789 11.627 9.5518 11.65 9.53093C11.6731 9.51005 11.6918 9.48479 11.705 9.45663C11.7182 9.42846 11.7257 9.39795 11.727 9.36687C11.7284 9.33578 11.7235 9.30474 11.7127 9.27556L11.5706 8.86786C11.5407 8.79237 11.4961 8.72353 11.4395 8.66528C11.383 8.60702 11.3154 8.5605 11.2409 8.52837C11.1663 8.49624 11.0861 8.47913 11.0049 8.47803C10.9237 8.47692 10.843 8.49184 10.7676 8.52193L10.3908 8.65166L10.2858 8.34897C10.2754 8.31963 10.2593 8.29264 10.2385 8.26957C10.2176 8.24651 10.1923 8.22782 10.1642 8.2146C10.136 8.20138 10.1055 8.19389 10.0744 8.19257C10.0433 8.19124 10.0123 8.19611 9.98308 8.20689C9.9237 8.22794 9.87493 8.27141 9.84722 8.32799C9.8195 8.38457 9.81506 8.44976 9.83483 8.50958L9.93984 8.81226L9.56303 8.94199C9.41199 8.99611 9.28793 9.10688 9.21711 9.25085C9.16188 9.39396 9.16188 9.5525 9.21711 9.69561L9.33447 10.023H7.54307C7.65526 9.44217 7.91716 8.90069 8.30286 8.45215C8.68856 8.00361 9.1847 7.66355 9.74217 7.46562ZM22.56 20.5181H6.19643V10.4987H22.56V20.5181Z" fill="currentColor"/>
<path d="M4.21887 17.652C4.16554 17.6575 4.11194 17.6445 4.06698 17.6153C4.02203 17.5861 3.98843 17.5424 3.97178 17.4914L0.988173 8.87415C0.977393 8.84496 0.972522 8.81392 0.973845 8.78284C0.975168 8.75175 0.982657 8.72124 0.995877 8.69308C1.0091 8.66491 1.02778 8.63966 1.05085 8.61878C1.07392 8.5979 1.10091 8.58182 1.13025 8.57146L17.0243 3.01194C17.0537 2.99971 17.0852 2.99341 17.117 2.99341C17.1488 2.99341 17.1803 2.99971 17.2096 3.01194C17.2378 3.02486 17.2628 3.04368 17.2831 3.06713C17.3033 3.09058 17.3183 3.1181 17.327 3.14784L19.3161 8.83708C19.3262 8.86629 19.3305 8.8972 19.3287 8.92806C19.3269 8.95892 19.319 8.98913 19.3055 9.01695C19.2921 9.04477 19.2732 9.06966 19.2501 9.0902C19.227 9.11075 19.2001 9.12654 19.1709 9.13668C19.1417 9.14682 19.1108 9.15111 19.0799 9.1493C19.0491 9.1475 19.0189 9.13963 18.991 9.12615C18.9632 9.11267 18.9383 9.09384 18.9178 9.07074C18.8972 9.04764 18.8814 9.02072 18.8713 8.99152L16.944 3.54318L1.50088 8.9421L4.44743 17.3308C4.46721 17.3906 4.46276 17.4558 4.43505 17.5124C4.40734 17.569 4.35856 17.6124 4.29918 17.6335C4.27407 17.6454 4.24667 17.6517 4.21887 17.652Z" fill="currentColor"/>
<path d="M9.56113 16.083H7.57205C7.54071 16.0838 7.50952 16.0783 7.48032 16.0669C7.45113 16.0555 7.42452 16.0383 7.40206 16.0165C7.3796 15.9946 7.36176 15.9684 7.34958 15.9395C7.3374 15.9106 7.33113 15.8796 7.33114 15.8482V13.853C7.33029 13.8211 7.33594 13.7894 7.34774 13.7598C7.35955 13.7302 7.37727 13.7033 7.39981 13.6808C7.42235 13.6582 7.44925 13.6405 7.47886 13.6287C7.50847 13.6169 7.54018 13.6112 7.57205 13.6121H9.56113C9.59248 13.6121 9.62351 13.6183 9.6524 13.6305C9.68129 13.6427 9.70745 13.6605 9.72933 13.683C9.75121 13.7055 9.76837 13.7321 9.7798 13.7613C9.79122 13.7905 9.79669 13.8217 9.79586 13.853V15.8421C9.79669 15.8734 9.79122 15.9046 9.7798 15.9338C9.76837 15.963 9.75121 15.9896 9.72933 16.0121C9.70745 16.0345 9.68129 16.0524 9.6524 16.0645C9.62351 16.0767 9.59248 16.083 9.56113 16.083ZM7.80679 15.6073H9.32021V14.0939H7.80679V15.6073Z" fill="currentColor"/>
</svg>
