<svg width="24" height="24" viewBox="0 0 24 24" fill="none" xmlns="http://www.w3.org/2000/svg">
<path d="M12.0002 20.3521C16.5992 20.3521 20.3275 16.6238 20.3275 12.0248C20.3275 7.42569 16.5992 3.69742 12.0002 3.69742C7.40113 3.69742 3.67285 7.42569 3.67285 12.0248C3.67285 16.6238 7.40113 20.3521 12.0002 20.3521Z" fill="#C9C2EA"/>
<path d="M20.6128 10.5399C20.6083 10.5089 20.5976 10.4791 20.5814 10.4522C20.5652 10.4254 20.5438 10.402 20.5184 10.3836C20.493 10.3651 20.4642 10.3519 20.4337 10.3448C20.4031 10.3376 20.3715 10.3367 20.3405 10.342C20.3095 10.3465 20.2797 10.3571 20.2528 10.3733C20.226 10.3895 20.2026 10.411 20.1842 10.4363C20.1657 10.4617 20.1526 10.4905 20.1454 10.521C20.1383 10.5516 20.1373 10.5833 20.1426 10.6142C20.2202 11.0804 20.2595 11.5521 20.2601 12.0247C20.2561 13.8958 19.6173 15.7101 18.4483 17.171C17.2793 18.6319 15.6493 19.6529 13.8247 20.0672C12 20.4814 10.0889 20.2644 8.40365 19.4515C6.71842 18.6386 5.35885 17.278 4.54726 15.5921C3.73567 13.9063 3.52008 11.9949 3.93575 10.1706C4.35141 8.34635 5.37372 6.71706 6.83553 5.5492C8.29734 4.38133 10.1121 3.74399 11.9832 3.74138C13.8542 3.73878 15.6708 4.37107 17.1358 5.53487L16.1583 6.51856C16.1276 6.54838 16.1055 6.58605 16.0946 6.62749C16.0837 6.66892 16.0844 6.71255 16.0965 6.75365C16.1093 6.79468 16.1326 6.83166 16.164 6.86095C16.1955 6.89024 16.234 6.91083 16.2759 6.92069L18.8062 7.44657H18.8557C18.8872 7.44671 18.9184 7.44017 18.9472 7.42737C18.976 7.41457 19.0018 7.39581 19.0228 7.37232C19.0502 7.344 19.0706 7.30968 19.0824 7.27209C19.0942 7.23451 19.0971 7.19469 19.0908 7.15579L18.5588 4.6316C18.5478 4.59477 18.5281 4.56117 18.5011 4.53376C18.4742 4.50634 18.441 4.48594 18.4044 4.47434C18.3677 4.46274 18.3288 4.4603 18.291 4.46722C18.2532 4.47414 18.2177 4.49022 18.1876 4.51405L17.4761 5.21934C15.8951 3.95585 13.9217 3.28586 11.8983 3.32568C9.87483 3.3655 7.92924 4.11261 6.39923 5.43732C4.86921 6.76203 3.85138 8.58069 3.52243 10.5776C3.19347 12.5745 3.57417 14.6235 4.59843 16.369C5.62268 18.1145 7.22583 19.4462 9.12956 20.1329C11.0333 20.8197 13.1174 20.8181 15.0201 20.1285C16.9228 19.4389 18.5239 18.1047 19.5455 16.3577C20.5671 14.6107 20.9447 12.5611 20.6128 10.5647V10.5399Z" fill="currentColor"/>
<path d="M12 1C9.82544 1.00001 7.69969 1.64452 5.89129 2.85213C4.08289 4.05974 2.67298 5.77624 1.83969 7.78479C1.00641 9.79334 0.787128 12.0038 1.20956 14.1369C1.632 16.27 2.67719 18.2301 4.2131 19.7694C5.749 21.3088 7.7067 22.3584 9.83886 22.7856C11.971 23.2129 14.182 22.9985 16.1924 22.1698C18.2028 21.341 19.9225 19.935 21.1341 18.1293C22.3458 16.3236 22.9951 14.1993 23 12.0248C23.0024 10.5784 22.7197 9.14567 22.1681 7.80859C21.6165 6.47152 20.8067 5.25629 19.7851 4.23239C18.7635 3.20848 17.5501 2.39598 16.2143 1.84135C14.8784 1.28671 13.4464 1.00081 12 1ZM12 22.5422C9.91983 22.5422 7.88639 21.9254 6.15681 20.7697C4.42722 19.614 3.07917 17.9714 2.28313 16.0496C1.48709 14.1278 1.27881 12.0131 1.68463 9.9729C2.09045 7.93272 3.09214 6.05869 4.56303 4.5878C6.03392 3.11691 7.90795 2.11522 9.94813 1.7094C11.9883 1.30358 14.103 1.51186 16.0248 2.3079C17.9466 3.10394 19.5892 4.45199 20.7449 6.18158C21.9006 7.91116 22.5174 9.9446 22.5174 12.0248C22.5174 14.8142 21.4093 17.4893 19.4369 19.4617C17.4645 21.4341 14.7894 22.5422 12 22.5422Z" fill="currentColor"/>
<path d="M11.7334 17.5371C11.7958 17.5371 11.8556 17.5124 11.8997 17.4683C11.9437 17.4242 11.9685 17.3644 11.9685 17.302V12.5444H16.7261C16.7606 12.55 16.7959 12.548 16.8296 12.5386C16.8632 12.5292 16.8944 12.5126 16.921 12.49C16.9476 12.4673 16.969 12.4392 16.9837 12.4074C16.9983 12.3757 17.0059 12.3412 17.0059 12.3062C17.0059 12.2713 16.9983 12.2368 16.9837 12.2051C16.969 12.1733 16.9476 12.1452 16.921 12.1225C16.8944 12.0999 16.8632 12.0833 16.8296 12.0739C16.7959 12.0645 16.7606 12.0625 16.7261 12.0681H11.9995V7.31047C11.9995 7.24753 11.9749 7.18708 11.931 7.142C11.8871 7.09693 11.8273 7.0708 11.7644 7.06918C11.7009 7.07075 11.6404 7.09668 11.5955 7.14159C11.5506 7.1865 11.5246 7.24697 11.5231 7.31047V12.0681H6.74073C6.70624 12.0625 6.67094 12.0645 6.63729 12.0739C6.60363 12.0833 6.57242 12.0999 6.54581 12.1225C6.51921 12.1452 6.49784 12.1733 6.48318 12.2051C6.46853 12.2368 6.46094 12.2713 6.46094 12.3062C6.46094 12.3412 6.46853 12.3757 6.48318 12.4074C6.49784 12.4392 6.51921 12.4673 6.54581 12.49C6.57242 12.5126 6.60363 12.5292 6.63729 12.5386C6.67094 12.548 6.70624 12.55 6.74073 12.5444H11.4921V17.302C11.4938 17.3649 11.5199 17.4247 11.565 17.4687C11.61 17.5126 11.6705 17.5371 11.7334 17.5371Z" fill="currentColor"/>
</svg>
