<svg width="24" height="24" viewBox="0 0 24 24" fill="none" xmlns="http://www.w3.org/2000/svg">
<path d="M14.7617 15.5888H9.18164V22.7649H14.7617V15.5888Z" fill="#C9C2EA"/>
<path d="M7.98648 2.4368V5.22681L4.39844 8.81485V2.4368H7.98648Z" fill="#C9C2EA"/>
<path d="M22.901 11.8338L12.1369 1.06966C12.115 1.04759 12.089 1.03007 12.0604 1.01811C12.0317 1.00616 12.0009 1 11.9699 1C11.9388 1 11.9081 1.00616 11.8794 1.01811C11.8507 1.03007 11.8247 1.04759 11.8028 1.06966L8.22099 4.65151V2.43683C8.22101 2.3739 8.19644 2.31345 8.15253 2.26838C8.10861 2.22331 8.04882 2.19718 7.98591 2.19556H4.39788C4.33497 2.19718 4.27518 2.22331 4.23126 2.26838C4.18734 2.31345 4.16278 2.3739 4.1628 2.43683V8.71589L1.06966 11.809C1.04759 11.8309 1.03007 11.8569 1.01811 11.8856C1.00616 11.9142 1 11.945 1 11.9761C1 12.0071 1.00616 12.0379 1.01811 12.0665C1.03007 12.0952 1.04759 12.1212 1.06966 12.1431L3.06164 14.1351C3.10685 14.18 3.16801 14.2053 3.23176 14.2053C3.29552 14.2053 3.35668 14.18 3.40189 14.1351L4.19373 13.3494V22.7587C4.1929 22.7901 4.19837 22.8214 4.20982 22.8506C4.22126 22.8798 4.23844 22.9065 4.26036 22.929C4.28227 22.9515 4.30846 22.9693 4.33739 22.9815C4.36633 22.9937 4.39741 23 4.42881 23H19.5419C19.6059 23 19.6672 22.9746 19.7125 22.9293C19.7577 22.8841 19.7831 22.8227 19.7831 22.7587V13.3742L20.5688 14.1598C20.5897 14.1835 20.6154 14.2025 20.6442 14.2155C20.673 14.2285 20.7042 14.2352 20.7358 14.2352C20.7674 14.2352 20.7987 14.2285 20.8275 14.2155C20.8563 14.2025 20.882 14.1835 20.9029 14.1598L22.901 12.1678C22.9441 12.1229 22.9682 12.0631 22.9682 12.0008C22.9682 11.9385 22.9441 11.8787 22.901 11.8338ZM4.63295 2.67191H7.72609V5.14642L4.63295 8.23955V2.67191ZM14.5248 22.5175H9.42113V15.8239H14.5248V22.5175ZM19.3068 22.5175H14.9764V15.5888C14.9764 15.5259 14.9519 15.4655 14.9079 15.4204C14.864 15.3753 14.8042 15.3492 14.7413 15.3476H9.17368C9.11077 15.3492 9.05098 15.3753 9.00706 15.4204C8.96315 15.4655 8.93858 15.5259 8.9386 15.5888V22.5175H4.60821V12.8978L11.9699 5.5609L19.3068 12.8978V22.5175ZM20.7358 13.6525L19.7089 12.6194L12.1369 5.05981C12.115 5.03774 12.089 5.02022 12.0604 5.00826C12.0317 4.9963 12.0009 4.99015 11.9699 4.99015C11.9388 4.99015 11.9081 4.9963 11.8794 5.00826C11.8507 5.02022 11.8247 5.03774 11.8028 5.05981L3.20392 13.6587L1.546 12.0008L11.9699 1.57694L22.3937 12.0008L20.7358 13.6525Z" fill="currentColor"/>
</svg>
