<svg width="24" height="24" viewBox="0 0 24 24" fill="none" xmlns="http://www.w3.org/2000/svg">
<path d="M20.2625 4.78827C20.252 4.74677 20.2309 4.70874 20.2012 4.67794L16.6152 1.06133C16.582 1.03159 16.542 1.01053 16.4987 1.00003H4.23906C4.17671 1.00001 4.11681 1.02435 4.07215 1.06787C4.02749 1.11139 4.0016 1.17063 4 1.23296V22.761C4 22.8244 4.02519 22.8852 4.07002 22.93C4.11485 22.9748 4.17566 23 4.23906 23H20.0357C20.0668 23 20.0976 22.9938 20.1262 22.9817C20.1549 22.9696 20.1809 22.9519 20.2026 22.9297C20.2243 22.9074 20.2413 22.881 20.2527 22.852C20.264 22.823 20.2694 22.7921 20.2686 22.761V4.81892C20.2696 4.80833 20.2674 4.79768 20.2625 4.78827ZM17.1975 4.58599H16.7072V1.79691L19.4962 4.58599H17.1975ZM4.47813 22.528V1.4659H16.2106V4.81892C16.2106 4.88128 16.235 4.94117 16.2785 4.98583C16.322 5.0305 16.3812 5.05639 16.4436 5.05799H19.8027V22.528H4.47813Z" fill="currentColor"/>
<path d="M4.22852 22.7525V1.26581L16.4317 1.2374L19.969 4.81733V22.7525H4.22852Z" fill="white"/>
<path d="M17.4477 13.5295H6.65918V20.0394H17.4477V13.5295Z" fill="#7866CB"/>
<path d="M6.55554 4.46954H9.92083C9.955 4.47507 9.98997 4.4731 10.0233 4.46378C10.0567 4.45447 10.0876 4.43802 10.1139 4.41558C10.1403 4.39313 10.1615 4.36523 10.176 4.3338C10.1905 4.30237 10.198 4.26816 10.198 4.23354C10.198 4.19892 10.1905 4.16471 10.176 4.13328C10.1615 4.10185 10.1403 4.07395 10.1139 4.0515C10.0876 4.02906 10.0567 4.01261 10.0233 4.0033C9.98997 3.99398 9.955 3.99202 9.92083 3.99754H6.55554C6.52136 3.99202 6.48639 3.99398 6.45305 4.0033C6.4197 4.01261 6.38878 4.02906 6.36242 4.0515C6.33605 4.07395 6.31488 4.10185 6.30036 4.13328C6.28584 4.16471 6.27832 4.19892 6.27832 4.23354C6.27832 4.26816 6.28584 4.30237 6.30036 4.3338C6.31488 4.36523 6.33605 4.39313 6.36242 4.41558C6.38878 4.43802 6.4197 4.45447 6.45305 4.46378C6.48639 4.4731 6.52136 4.47507 6.55554 4.46954Z" fill="currentColor"/>
<path d="M12.7896 6.37591C12.8238 6.38144 12.8587 6.37947 12.8921 6.37016C12.9254 6.36084 12.9564 6.34439 12.9827 6.32195C13.0091 6.2995 13.0303 6.2716 13.0448 6.24017C13.0593 6.20874 13.0668 6.17453 13.0668 6.13991C13.0668 6.10529 13.0593 6.07108 13.0448 6.03965C13.0303 6.00822 13.0091 5.98032 12.9827 5.95788C12.9564 5.93543 12.9254 5.91899 12.8921 5.90967C12.8587 5.90035 12.8238 5.89839 12.7896 5.90391H6.55554C6.52136 5.89839 6.48639 5.90035 6.45305 5.90967C6.4197 5.91899 6.38878 5.93543 6.36242 5.95788C6.33605 5.98032 6.31488 6.00822 6.30036 6.03965C6.28584 6.07108 6.27832 6.10529 6.27832 6.13991C6.27832 6.17453 6.28584 6.20874 6.30036 6.24017C6.31488 6.2716 6.33605 6.2995 6.36242 6.32195C6.38878 6.34439 6.4197 6.36084 6.45305 6.37016C6.48639 6.37947 6.52136 6.38144 6.55554 6.37591H12.7896Z" fill="currentColor"/>
<path d="M8.80574 9.73507V11.5372C8.80493 11.5683 8.81035 11.5993 8.82168 11.6283C8.83302 11.6572 8.85005 11.6836 8.87176 11.7059C8.89348 11.7282 8.91943 11.7459 8.9481 11.758C8.97677 11.7701 9.00757 11.7763 9.03868 11.7763H15.2421C15.2732 11.7763 15.304 11.7701 15.3327 11.758C15.3613 11.7459 15.3873 11.7282 15.409 11.7059C15.4307 11.6836 15.4477 11.6572 15.4591 11.6283C15.4704 11.5993 15.4758 11.5683 15.475 11.5372V9.73507C15.475 9.67329 15.4505 9.61404 15.4068 9.57036C15.3631 9.52668 15.3039 9.50214 15.2421 9.50214H9.03868C8.9769 9.50214 8.91765 9.52668 8.87397 9.57036C8.83029 9.61404 8.80574 9.67329 8.80574 9.73507ZM9.27774 9.97413H15.003V11.3043H9.27774V9.97413Z" fill="currentColor"/>
<path d="M17.5352 13.2904H6.74669C6.71557 13.2904 6.68478 13.2966 6.65611 13.3087C6.62744 13.3208 6.60148 13.3385 6.57977 13.3608C6.55806 13.383 6.54103 13.4094 6.52969 13.4384C6.51835 13.4674 6.51293 13.4983 6.51375 13.5294V20.0393C6.51375 20.1011 6.53829 20.1604 6.58198 20.204C6.62566 20.2477 6.68491 20.2723 6.74669 20.2723H17.5352C17.597 20.2723 17.6562 20.2477 17.6999 20.204C17.7436 20.1604 17.7681 20.1011 17.7681 20.0393V13.5294C17.769 13.4983 17.7635 13.4674 17.7522 13.4384C17.7409 13.4094 17.7238 13.383 17.7021 13.3608C17.6804 13.3385 17.6545 13.3208 17.6258 13.3087C17.5971 13.2966 17.5663 13.2904 17.5352 13.2904ZM6.98575 15.6013H9.81774V19.8003H6.98575V15.6013ZM17.2961 19.8003H10.302V15.6013H16.1315C16.1933 15.6013 16.2525 15.5768 16.2962 15.5331C16.3399 15.4894 16.3644 15.4302 16.3644 15.3684C16.3644 15.3066 16.3399 15.2474 16.2962 15.2037C16.2525 15.16 16.1933 15.1355 16.1315 15.1355H6.98575V13.7624H17.2961V19.8003Z" fill="currentColor"/>
</svg>
