<svg width="24" height="24" viewBox="0 0 24 24" fill="none" xmlns="http://www.w3.org/2000/svg">
<path d="M6.02816 13.7288C7.08572 13.7288 7.94304 12.8715 7.94304 11.814C7.94304 10.7564 7.08572 9.89908 6.02816 9.89908C4.9706 9.89908 4.11328 10.7564 4.11328 11.814C4.11328 12.8715 4.9706 13.7288 6.02816 13.7288Z" fill="#C9C2EA"/>
<path d="M22.7575 6.91485H20.8489C20.8173 6.91402 20.7859 6.91952 20.7566 6.93102C20.7272 6.94252 20.7004 6.95979 20.6778 6.98181C20.6552 7.00383 20.6372 7.03016 20.625 7.05924C20.6127 7.08831 20.6064 7.11955 20.6064 7.1511V8.10854C20.6156 8.1654 20.6447 8.21713 20.6886 8.25447C20.7324 8.29181 20.7882 8.31231 20.8458 8.31231C20.9034 8.31231 20.9591 8.29181 21.0029 8.25447C21.0468 8.21713 21.0759 8.1654 21.0851 8.10854V7.39357H22.5213V8.82351H14.1281C13.4282 7.42846 12.278 6.31042 10.8637 5.65037C9.44934 4.99031 7.85363 4.82687 6.33485 5.1865C4.81606 5.54613 3.46308 6.40778 2.4949 7.63198C1.52672 8.85619 1 10.3713 1 11.9321C1 13.4929 1.52672 15.008 2.4949 16.2322C3.46308 17.4564 4.81606 18.318 6.33485 18.6777C7.85363 19.0373 9.44934 18.8739 10.8637 18.2138C12.278 17.5537 13.4282 16.4357 14.1281 15.0407H16.0679C16.1306 15.0404 16.1907 15.0159 16.2358 14.9723L17.0191 14.1827L17.8087 14.9723C17.8537 15.0159 17.9139 15.0404 17.9766 15.0407H18.934C18.9788 15.0411 19.0228 15.0292 19.0612 15.0061C19.0996 14.9831 19.1309 14.9498 19.1516 14.9101L19.5619 14.0832H20.2209L20.6313 14.9101C20.6519 14.9498 20.6832 14.9831 20.7216 15.0061C20.76 15.0292 20.8041 15.0411 20.8489 15.0407H22.5213V16.4706H21.0851V15.7556C21.0759 15.6988 21.0468 15.647 21.0029 15.6097C20.9591 15.5724 20.9034 15.5519 20.8458 15.5519C20.7882 15.5519 20.7324 15.5724 20.6886 15.6097C20.6447 15.647 20.6156 15.6988 20.6064 15.7556V16.7131C20.6064 16.7446 20.6127 16.7759 20.625 16.8049C20.6372 16.834 20.6552 16.8603 20.6778 16.8824C20.7004 16.9044 20.7272 16.9216 20.7566 16.9331C20.7859 16.9446 20.8173 16.9501 20.8489 16.9493H22.7575C22.8208 16.9493 22.8815 16.9246 22.9268 16.8805C22.9721 16.8364 22.9984 16.7763 23 16.7131V7.1511C22.9984 7.08788 22.9721 7.02779 22.9268 6.98366C22.8815 6.93952 22.8208 6.91483 22.7575 6.91485ZM20.9919 14.5619L20.5815 13.7351C20.5619 13.6958 20.5317 13.6628 20.4944 13.6397C20.4571 13.6167 20.414 13.6045 20.3702 13.6045H19.4127C19.3679 13.604 19.3239 13.616 19.2855 13.639C19.2471 13.6621 19.2158 13.6953 19.1951 13.7351L18.7848 14.5619H18.076L17.1932 13.6729C17.1478 13.6277 17.0863 13.6023 17.0222 13.6023C16.9582 13.6023 16.8967 13.6277 16.8513 13.6729L15.9684 14.5619H13.9789C13.9333 14.5613 13.8885 14.5739 13.8499 14.5981C13.8113 14.6224 13.7805 14.6573 13.7613 14.6987C13.1332 16.0224 12.0734 17.0929 10.7561 17.7343C9.43878 18.3757 7.94244 18.5497 6.51311 18.2278C5.08377 17.9058 3.80653 17.1071 2.89138 15.9629C1.97624 14.8188 1.47768 13.3972 1.47768 11.9321C1.47768 10.4669 1.97624 9.04541 2.89138 7.90123C3.80653 6.75705 5.08377 5.95833 6.51311 5.6364C7.94244 5.31448 9.43878 5.48851 10.7561 6.12988C12.0734 6.77125 13.1332 7.84179 13.7613 9.16546C13.7805 9.20683 13.8113 9.24175 13.8499 9.26602C13.8885 9.29029 13.9333 9.30287 13.9789 9.30223H22.5213V14.5619H20.9919Z" fill="currentColor"/>
<path d="M6.02711 14.0832C5.60165 14.0832 5.18575 13.9571 4.832 13.7207C4.47825 13.4843 4.20254 13.1484 4.03972 12.7553C3.87691 12.3622 3.83431 11.9297 3.91731 11.5124C4.00031 11.0952 4.20519 10.7119 4.50603 10.411C4.80687 10.1102 5.19016 9.90531 5.60744 9.82231C6.02472 9.73931 6.45724 9.78191 6.85031 9.94472C7.24338 10.1075 7.57934 10.3833 7.81571 10.737C8.05207 11.0908 8.17824 11.5067 8.17824 11.9321C8.17824 12.5026 7.9516 13.0498 7.54819 13.4532C7.14477 13.8566 6.59762 14.0832 6.02711 14.0832ZM6.02711 10.2597C5.69634 10.2597 5.37299 10.3578 5.09797 10.5415C4.82294 10.7253 4.60858 10.9865 4.482 11.2921C4.35542 11.5977 4.3223 11.934 4.38683 12.2584C4.45136 12.5828 4.61064 12.8808 4.84453 13.1147C5.07843 13.3486 5.37642 13.5079 5.70084 13.5724C6.02525 13.6369 6.36152 13.6038 6.66711 13.4772C6.9727 13.3506 7.2339 13.1363 7.41766 12.8612C7.60143 12.5862 7.69952 12.2629 7.69952 11.9321C7.69952 11.4886 7.52332 11.0632 7.20968 10.7495C6.89604 10.4359 6.47066 10.2597 6.02711 10.2597Z" fill="currentColor"/>
</svg>
