<svg width="24" height="24" viewBox="0 0 24 24" fill="none" xmlns="http://www.w3.org/2000/svg">
<path d="M15.1304 1.608V22.4107L2.83105 22.4448V1.608H15.1304Z" fill="white"/>
<path d="M16.7563 16.2684C19.5142 16.2684 21.7499 14.0327 21.7499 11.2749C21.7499 8.51698 19.5142 6.28128 16.7563 6.28128C13.9984 6.28128 11.7627 8.51698 11.7627 11.2749C11.7627 14.0327 13.9984 16.2684 16.7563 16.2684Z" fill="#7866CB"/>
<path d="M15.1078 17.087C15.048 17.087 14.9907 17.1107 14.9484 17.153C14.9062 17.1953 14.8824 17.2526 14.8824 17.3123V19.7083H3.01525V1.79785H14.8765V4.94701C14.8765 5.00678 14.9002 5.0641 14.9425 5.10636C14.9848 5.14863 15.0421 5.17237 15.1019 5.17237C15.1622 5.17239 15.2201 5.14884 15.2633 5.10674C15.3066 5.06463 15.3316 5.00732 15.3332 4.94701V1.56655C15.3347 1.53569 15.3301 1.50482 15.3196 1.47576C15.3091 1.44671 15.2928 1.42006 15.2718 1.3974C15.2508 1.37473 15.2255 1.3565 15.1973 1.34379C15.1691 1.33108 15.1387 1.32415 15.1078 1.3234H2.78396C2.75135 1.3207 2.71854 1.32514 2.68781 1.33641C2.65709 1.34768 2.62919 1.3655 2.60605 1.38864C2.58291 1.41178 2.56508 1.43968 2.55382 1.47041C2.54255 1.50113 2.53811 1.53394 2.5408 1.56655V22.4245C2.5408 22.4843 2.56455 22.5416 2.60681 22.5839C2.64908 22.6262 2.7064 22.6499 2.76617 22.6499H15.1078C15.1681 22.6499 15.2261 22.6264 15.2693 22.5843C15.3125 22.5422 15.3375 22.4849 15.3391 22.4245V17.3361C15.3415 17.3042 15.3374 17.2722 15.3269 17.2421C15.3163 17.2119 15.2997 17.1843 15.278 17.1609C15.2562 17.1375 15.2299 17.1188 15.2006 17.1061C15.1713 17.0934 15.1397 17.0869 15.1078 17.087ZM3.01525 22.1932V20.1768H14.8765V22.1932H3.01525Z" fill="currentColor"/>
<path d="M9.60348 20.8943H8.28689C8.22658 20.8959 8.16926 20.9209 8.12716 20.9642C8.08506 21.0074 8.0615 21.0653 8.06152 21.1256C8.06152 21.1854 8.08527 21.2427 8.12753 21.285C8.16979 21.3273 8.22712 21.351 8.28689 21.351H9.60348C9.66381 21.351 9.72176 21.3275 9.76497 21.2854C9.80818 21.2433 9.83323 21.186 9.83478 21.1256C9.83328 21.0648 9.80842 21.0068 9.76537 20.9638C9.72231 20.9207 9.66435 20.8959 9.60348 20.8943Z" fill="currentColor"/>
<path d="M7.8309 3.48811C7.76956 3.48811 7.71073 3.51248 7.66735 3.55585C7.62398 3.59923 7.59961 3.65806 7.59961 3.7194C7.5996 3.7495 7.60562 3.7793 7.61731 3.80704C7.62901 3.83477 7.64614 3.85989 7.6677 3.88089C7.68926 3.9019 7.71481 3.91837 7.74284 3.92934C7.77087 3.94031 7.80081 3.94556 7.8309 3.94477H10.0667C10.0984 3.94494 10.1298 3.93843 10.1588 3.92565C10.1879 3.91287 10.2138 3.89411 10.2351 3.87061C10.2564 3.8471 10.2725 3.81937 10.2823 3.78922C10.2921 3.75908 10.2954 3.72721 10.2921 3.69568C10.2921 3.63535 10.2686 3.5774 10.2265 3.53419C10.1844 3.49098 10.1271 3.46593 10.0667 3.46439L7.8309 3.48811Z" fill="currentColor"/>
<path d="M16.7757 6.06781C15.7423 6.06781 14.7321 6.37424 13.8729 6.94836C13.0136 7.52248 12.344 8.33849 11.9485 9.29321C11.553 10.2479 11.4496 11.2985 11.6512 12.312C11.8528 13.3255 12.3504 14.2565 13.0811 14.9872C13.8118 15.7179 14.7428 16.2156 15.7563 16.4172C16.7699 16.6188 17.8204 16.5153 18.7751 16.1198C19.7299 15.7244 20.5459 15.0547 21.12 14.1955C21.6941 13.3362 22.0005 12.3261 22.0005 11.2927C21.999 9.90744 21.448 8.57939 20.4685 7.59987C19.489 6.62036 18.1609 6.06938 16.7757 6.06781ZM16.7757 16.055C15.8373 16.055 14.92 15.7767 14.1398 15.2554C13.3595 14.7341 12.7514 13.9931 12.3923 13.1261C12.0332 12.2592 11.9393 11.3052 12.1223 10.3849C12.3054 9.46453 12.7573 8.61914 13.4208 7.95561C14.0843 7.29208 14.9297 6.84021 15.8501 6.65715C16.7704 6.47408 17.7244 6.56804 18.5913 6.92714C19.4582 7.28624 20.1992 7.89435 20.7206 8.67458C21.2419 9.45481 21.5202 10.3721 21.5202 11.3105C21.5155 12.5657 21.0135 13.7679 20.1243 14.6538C19.235 15.5398 18.0309 16.0372 16.7757 16.0372V16.055Z" fill="currentColor"/>
<g clip-path="url(#clip0_1_4440)">
<path d="M14.6143 11.2715H16.2078C16.7848 11.2715 17.2526 11.7392 17.2526 12.3162V12.3586C17.2526 12.9356 16.7848 13.4033 16.2078 13.4033H14.6143V9.18204H15.6801C16.2571 9.18204 16.7249 9.64981 16.7249 10.2268C16.7248 10.8038 16.2571 11.2715 15.6801 11.2715H14.6143Z" stroke="currentColor" stroke-width="0.5" stroke-linecap="round" stroke-linejoin="round"/>
<path d="M19.6728 10.765H18.7031C18.3644 10.765 18.0898 11.0396 18.0898 11.3783C18.0898 11.6423 18.2588 11.8767 18.5092 11.9602L19.2535 12.2082C19.5039 12.2917 19.6728 12.5261 19.6728 12.7901C19.6728 13.1288 19.3983 13.4034 19.0595 13.4034H18.0898" stroke="currentColor" stroke-width="0.5" stroke-linecap="round" stroke-linejoin="round"/>
</g>
<defs>
<clipPath id="clip0_1_4440">
<rect width="5.83733" height="5" fill="white" transform="translate(14.2246 8.79269)"/>
</clipPath>
</defs>
</svg>
