<svg width="24" height="24" viewBox="0 0 24 24" fill="none" xmlns="http://www.w3.org/2000/svg">
<path d="M17.1576 13.9908H18.7303C18.9421 13.9908 19.1453 13.9066 19.2951 13.7568C19.4448 13.6071 19.529 13.4039 19.529 13.1921V12.3934C19.529 12.1816 19.4448 11.9785 19.2951 11.8287C19.1453 11.6789 18.9421 11.5948 18.7303 11.5948H17.133C16.8124 11.5947 16.5044 11.7199 16.2749 11.9437C16.0453 12.1676 15.9123 12.4723 15.9043 12.7928C15.9124 13.1176 16.0487 13.426 16.2836 13.6505C16.5185 13.875 16.8327 13.9974 17.1576 13.9908Z" fill="#C9C2EA"/>
<path d="M6.78742 11.5948H5.21467C5.00286 11.5948 4.79972 11.6789 4.64994 11.8287C4.50016 11.9785 4.41602 12.1816 4.41602 12.3934V13.2044C4.41924 13.4141 4.50481 13.6141 4.65424 13.7612C4.80367 13.9083 5.00497 13.9908 5.21467 13.9908H6.81199C7.13251 13.9827 7.4372 13.8498 7.66103 13.6202C7.88485 13.3906 8.01008 13.0827 8.00998 12.7621C7.99426 12.448 7.85874 12.1519 7.63131 11.9348C7.40388 11.7177 7.10186 11.596 6.78742 11.5948Z" fill="#C9C2EA"/>
<path d="M4.05346 8.90393L5.38661 5.1748C5.58081 4.6336 5.93787 4.16584 6.40871 3.83581C6.87955 3.50578 7.44106 3.32969 8.01604 3.33174H16.0456C16.6204 3.33058 17.1815 3.50703 17.6522 3.83693C18.1228 4.16684 18.4801 4.6341 18.6751 5.1748L20.0082 8.90393L19.8239 9.29711C19.3518 8.95576 18.7778 8.78466 18.1959 8.81177C17.0962 8.81177 5.61392 8.84249 5.61392 8.84249C5.04835 8.83361 4.49273 8.99175 4.0166 9.29711L4.05346 8.90393Z" fill="#C9C2EA"/>
<path d="M15.75 12.8296C15.7492 13.0181 15.7856 13.2049 15.8572 13.3793C15.9288 13.5537 16.0341 13.7122 16.1671 13.8458C16.3001 13.9794 16.4582 14.0854 16.6322 14.1577C16.8063 14.23 16.993 14.2672 17.1815 14.2672H18.7788C18.9167 14.2664 19.0531 14.2382 19.18 14.1841C19.3068 14.1301 19.4217 14.0512 19.5178 13.9523C19.6139 13.8534 19.6893 13.7363 19.7396 13.6078C19.7899 13.4794 19.8142 13.3423 19.8109 13.2044V12.4365C19.8109 12.1621 19.7023 11.899 19.509 11.7045C19.3156 11.5099 19.0531 11.3998 18.7788 11.3982H17.1815C16.9935 11.3982 16.8073 11.4352 16.6337 11.5072C16.46 11.5791 16.3022 11.6845 16.1693 11.8175C16.0364 11.9504 15.9309 12.1082 15.859 12.2818C15.787 12.4555 15.75 12.6417 15.75 12.8296ZM19.344 12.4365V13.2044C19.344 13.3532 19.2853 13.4961 19.1806 13.6019C19.0759 13.7077 18.9338 13.768 18.7849 13.7696H17.1876C16.9459 13.7503 16.7203 13.6406 16.5558 13.4624C16.3913 13.2842 16.3 13.0506 16.3 12.8081C16.3 12.5656 16.3913 12.332 16.5558 12.1539C16.7203 11.9757 16.9459 11.866 17.1876 11.8467H18.7849C18.8607 11.8474 18.9356 11.8634 19.0051 11.8937C19.0746 11.924 19.1373 11.968 19.1895 12.023C19.2417 12.078 19.2822 12.143 19.3088 12.214C19.3353 12.2851 19.3473 12.3607 19.344 12.4365Z" fill="currentColor"/>
<path d="M6.81234 11.3982H5.21502C4.94072 11.3998 4.67822 11.5099 4.48483 11.7045C4.29145 11.899 4.1829 12.1621 4.18291 12.4365V13.2044C4.17964 13.3423 4.20388 13.4794 4.25421 13.6078C4.30454 13.7363 4.37994 13.8534 4.47603 13.9523C4.57212 14.0512 4.68695 14.1301 4.81384 14.1841C4.94072 14.2382 5.0771 14.2664 5.21502 14.2672H6.81234C7.17657 14.2434 7.51809 14.0819 7.76762 13.8155C8.01715 13.5491 8.156 13.1977 8.156 12.8327C8.156 12.4677 8.01715 12.1164 7.76762 11.85C7.51809 11.5835 7.17657 11.422 6.81234 11.3982ZM6.81234 13.7942H5.21502C5.1392 13.7934 5.06431 13.7774 4.9948 13.7471C4.92529 13.7168 4.86259 13.6729 4.81043 13.6178C4.75827 13.5628 4.71771 13.4978 4.69117 13.4268C4.66463 13.3558 4.65266 13.2801 4.65596 13.2044V12.4365C4.65595 12.2876 4.71466 12.1448 4.81933 12.0389C4.924 11.9331 5.06619 11.8729 5.21502 11.8712H6.81234C7.07059 11.8712 7.31827 11.9738 7.50088 12.1564C7.6835 12.3391 7.78609 12.5867 7.78609 12.845C7.78609 13.1033 7.6835 13.3509 7.50088 13.5335C7.31827 13.7162 7.07059 13.8187 6.81234 13.8187V13.7942Z" fill="currentColor"/>
<path d="M14.3876 13.3949H9.60175C9.54556 13.4039 9.49444 13.4327 9.45755 13.4761C9.42065 13.5194 9.40039 13.5745 9.40039 13.6314C9.40039 13.6883 9.42065 13.7434 9.45755 13.7867C9.49444 13.83 9.54556 13.8588 9.60175 13.8679H14.3876C14.4218 13.8734 14.4569 13.8715 14.4903 13.8621C14.5237 13.8528 14.5547 13.8363 14.5811 13.8138C14.6075 13.7913 14.6288 13.7634 14.6433 13.7319C14.6579 13.7004 14.6654 13.6661 14.6654 13.6314C14.6654 13.5967 14.6579 13.5624 14.6433 13.5309C14.6288 13.4994 14.6075 13.4714 14.5811 13.4489C14.5547 13.4264 14.5237 13.41 14.4903 13.4006C14.4569 13.3913 14.4218 13.3893 14.3876 13.3949Z" fill="currentColor"/>
<path d="M14.3876 11.7975H9.60175C9.54556 11.8066 9.49444 11.8354 9.45755 11.8787C9.42065 11.9221 9.40039 11.9771 9.40039 12.0341C9.40039 12.091 9.42065 12.146 9.45755 12.1894C9.49444 12.2327 9.54556 12.2615 9.60175 12.2706H14.3876C14.4218 12.2761 14.4569 12.2742 14.4903 12.2648C14.5237 12.2555 14.5547 12.239 14.5811 12.2165C14.6075 12.194 14.6288 12.166 14.6433 12.1345C14.6579 12.103 14.6654 12.0688 14.6654 12.0341C14.6654 11.9994 14.6579 11.9651 14.6433 11.9336C14.6288 11.9021 14.6075 11.8741 14.5811 11.8516C14.5547 11.8291 14.5237 11.8126 14.4903 11.8033C14.4569 11.794 14.4218 11.792 14.3876 11.7975Z" fill="currentColor"/>
<path d="M21.802 6.21307C21.4761 6.21307 21.1636 6.34252 20.9332 6.57295C20.7027 6.80337 20.5733 7.1159 20.5733 7.44177V8.33873L20.217 8.7012L18.9022 5.01508C18.6878 4.42956 18.3002 3.92318 17.791 3.56325C17.2818 3.20331 16.6752 3.00685 16.0517 3H7.97905C7.35205 3.00296 6.74135 3.20006 6.23091 3.56419C5.72046 3.92832 5.33533 4.44161 5.12845 5.03351L3.81374 8.71963L3.45741 8.35716V7.44792C3.45741 7.12204 3.32796 6.80952 3.09753 6.57909C2.86711 6.34866 2.55458 6.21921 2.22871 6.21921C1.90283 6.21921 1.59031 6.34866 1.35988 6.57909C1.12945 6.80952 1 7.12204 1 7.44792V7.94554C1 8.14107 1.07767 8.32858 1.21593 8.46684C1.35418 8.60509 1.5417 8.68277 1.73722 8.68277H3.11952L3.66015 9.21725C3.20512 9.53346 2.83337 9.95508 2.57662 10.4461C2.31986 10.9372 2.18574 11.483 2.1857 12.0371V15.625C2.18649 15.722 2.19678 15.8187 2.21642 15.9137C2.19781 15.9477 2.18729 15.9855 2.1857 16.0243V19.2189C2.1857 19.4927 2.29444 19.7552 2.488 19.9487C2.68156 20.1423 2.94408 20.251 3.21781 20.251H4.81513C5.08566 20.2462 5.34347 20.1353 5.53306 19.9423C5.72265 19.7493 5.82886 19.4895 5.82881 19.2189V17.4557H18.1159V19.2189C18.1175 19.4932 18.2276 19.7557 18.4221 19.9491C18.6167 20.1425 18.8798 20.251 19.1541 20.251H20.7515C20.8883 20.2527 21.0241 20.2272 21.1511 20.1761C21.2781 20.1251 21.3938 20.0494 21.4914 19.9535C21.589 19.8576 21.6667 19.7433 21.72 19.6172C21.7733 19.4911 21.8012 19.3558 21.802 19.2189V16.0243C21.8102 15.9879 21.8102 15.9501 21.802 15.9137C21.8114 15.8177 21.8114 15.721 21.802 15.625V12.0371C21.802 11.483 21.6678 10.9372 21.4111 10.4461C21.1543 9.95508 20.7826 9.53346 20.3275 9.21725L20.8682 8.68277H22.2628C22.3596 8.68277 22.4554 8.6637 22.5449 8.62665C22.6343 8.5896 22.7156 8.5353 22.7841 8.46684C22.8525 8.39838 22.9068 8.31711 22.9439 8.22766C22.9809 8.13822 23 8.04235 23 7.94554V7.44792C23.0017 7.12623 22.8772 6.81671 22.6532 6.58582C22.4292 6.35494 22.1236 6.2211 21.802 6.21307ZM5.57079 5.21781C5.7439 4.71603 6.0686 4.2804 6.50001 3.97115C6.93143 3.6619 7.44825 3.49428 7.97905 3.49148H16.0148C16.5454 3.49518 17.0618 3.66314 17.493 3.97227C17.9243 4.2814 18.2492 4.71652 18.4231 5.21781L19.7439 8.90393C19.314 8.71569 18.8494 8.61943 18.38 8.62133H5.61379C5.14444 8.61943 4.67988 8.71569 4.24993 8.90393L5.57079 5.21781ZM1.46076 7.94554V7.44792C1.46076 7.24587 1.54103 7.05211 1.68389 6.90924C1.82675 6.76638 2.02052 6.68612 2.22256 6.68612C2.4246 6.68612 2.61837 6.76638 2.76123 6.90924C2.9041 7.05211 2.98436 7.24587 2.98436 7.44792V8.20971H1.75565C1.71847 8.21407 1.68079 8.21047 1.6451 8.19916C1.60942 8.18784 1.57655 8.16908 1.54866 8.1441C1.52078 8.11912 1.49852 8.0885 1.48337 8.05427C1.46822 8.02004 1.46051 7.98298 1.46076 7.94554ZM5.37419 19.2189C5.37419 19.3672 5.31529 19.5094 5.21045 19.6142C5.1056 19.7191 4.9634 19.778 4.81513 19.778H3.21781C3.06954 19.778 2.92734 19.7191 2.8225 19.6142C2.71765 19.5094 2.65875 19.3672 2.65875 19.2189V16.8414C2.82982 17.0327 3.03895 17.1861 3.27275 17.2919C3.50655 17.3977 3.75986 17.4535 4.01647 17.4557H5.37419V19.2189ZM21.3474 19.2189C21.3474 19.3672 21.2885 19.5094 21.1836 19.6142C21.0788 19.7191 20.9366 19.778 20.7883 19.778H19.191C19.0422 19.778 18.8993 19.7193 18.7935 19.6146C18.6877 19.5099 18.6274 19.3678 18.6258 19.2189V17.4557H19.9589C20.2155 17.4535 20.4689 17.3977 20.7027 17.2919C20.9365 17.1861 21.1456 17.0327 21.3167 16.8414L21.3474 19.2189ZM21.3474 12.0371V15.625C21.3474 15.8059 21.3113 15.985 21.2412 16.1517C21.171 16.3185 21.0683 16.4695 20.9389 16.596C20.8096 16.7225 20.6562 16.8219 20.488 16.8883C20.3197 16.9547 20.1398 16.9868 19.9589 16.9827H3.98576C3.62567 16.9827 3.28032 16.8396 3.0257 16.585C2.77108 16.3304 2.62804 15.985 2.62804 15.625V12.0371C2.62804 11.2534 2.93937 10.5018 3.49355 9.94761C4.04772 9.39343 4.79935 9.0821 5.58307 9.0821H18.38C19.1638 9.0821 19.9154 9.39343 20.4696 9.94761C21.0238 10.5018 21.3351 11.2534 21.3351 12.0371H21.3474ZM22.5454 7.94554C22.5454 8.0156 22.5175 8.0828 22.468 8.13234C22.4184 8.18188 22.3513 8.20971 22.2812 8.20971H21.0525V7.44792C21.0525 7.24587 21.1327 7.05211 21.2756 6.90924C21.4185 6.76638 21.6122 6.68612 21.8143 6.68612C22.0163 6.68612 22.2101 6.76638 22.353 6.90924C22.4958 7.05211 22.5761 7.24587 22.5761 7.44792L22.5454 7.94554Z" fill="currentColor"/>
</svg>
