<svg width="24" height="24" viewBox="0 0 24 24" fill="none" xmlns="http://www.w3.org/2000/svg">
<path d="M19.9122 13.5217H9.24219V19.9628H19.9122V13.5217Z" fill="#C9C2EA"/>
<path d="M2.75977 19.8405L3.60921 21.3928H3.8781L4.72754 19.8405V6.62833H2.75977V19.8405Z" fill="#C9C2EA"/>
<path d="M22.7485 4.7799C22.7438 4.73075 22.7216 4.68483 22.6859 4.6502L19.0464 1.05559C19.0121 1.02741 18.9712 1.00828 18.9274 1H6.49919C6.43439 1 6.37225 1.02538 6.32644 1.07055C6.28062 1.11572 6.25488 1.17699 6.25488 1.24088V22.7591C6.25488 22.823 6.28062 22.8843 6.32644 22.9294C6.37225 22.9746 6.43439 23 6.49919 23H22.5168C22.5486 23 22.58 22.9937 22.6093 22.9816C22.6386 22.9694 22.6651 22.9515 22.6873 22.9291C22.7095 22.9066 22.7269 22.88 22.7385 22.8508C22.7501 22.8216 22.7556 22.7905 22.7548 22.7591V4.84784C22.7548 4.84784 22.7485 4.79225 22.7485 4.7799ZM19.6164 4.58226H19.1216V1.80292L21.9342 4.58226H19.6164ZM6.73723 22.5244V1.46322H18.6392V4.81696C18.6384 4.84829 18.6439 4.87948 18.6555 4.90867C18.6671 4.93786 18.6845 4.96447 18.7067 4.98692C18.7289 5.00937 18.7554 5.02722 18.7847 5.0394C18.814 5.05157 18.8455 5.05784 18.8773 5.05783H22.2787V22.5244H6.73723Z" fill="currentColor"/>
<path d="M12.2856 4.48945H8.95509C8.92101 4.49496 8.88615 4.493 8.8529 4.48371C8.81966 4.47442 8.78883 4.45803 8.76255 4.43565C8.73627 4.41328 8.71516 4.38546 8.70068 4.35413C8.68621 4.32279 8.67871 4.28869 8.67871 4.25417C8.67871 4.21966 8.68621 4.18555 8.70068 4.15422C8.71516 4.12288 8.73627 4.09507 8.76255 4.07269C8.78883 4.05032 8.81966 4.03392 8.8529 4.02463C8.88615 4.01534 8.92101 4.01338 8.95509 4.01889H12.2856C12.3197 4.01338 12.3546 4.01534 12.3878 4.02463C12.4211 4.03392 12.4519 4.05032 12.4782 4.07269C12.5045 4.09507 12.5256 4.12288 12.54 4.15422C12.5545 4.18555 12.562 4.21966 12.562 4.25417C12.562 4.28869 12.5545 4.32279 12.54 4.35413C12.5256 4.38546 12.5045 4.41328 12.4782 4.43565C12.4519 4.45803 12.4211 4.47442 12.3878 4.48371C12.3546 4.493 12.3197 4.49496 12.2856 4.48945Z" fill="currentColor"/>
<path d="M15.1289 6.37775H8.95672C8.92392 6.38028 8.89094 6.37599 8.85988 6.36515C8.82881 6.35432 8.80033 6.33716 8.77622 6.31477C8.7521 6.29238 8.73289 6.26525 8.71978 6.23507C8.70668 6.20489 8.69996 6.17232 8.70006 6.13942C8.69715 6.10525 8.70184 6.07086 8.7138 6.03872C8.72576 6.00658 8.74469 5.97749 8.76923 5.95353C8.79376 5.92958 8.8233 5.91135 8.85572 5.90017C8.88814 5.88899 8.92263 5.88513 8.95672 5.88886H15.1289C15.1594 5.88886 15.1896 5.89487 15.2178 5.90654C15.246 5.91821 15.2716 5.93531 15.2932 5.95688C15.3147 5.97844 15.3318 6.00404 15.3435 6.03222C15.3552 6.06039 15.3612 6.09059 15.3612 6.12108C15.3637 6.15338 15.3596 6.18585 15.3491 6.2165C15.3386 6.24716 15.322 6.27536 15.3003 6.29938C15.2785 6.3234 15.2521 6.34274 15.2227 6.35621C15.1932 6.36969 15.1613 6.37702 15.1289 6.37775Z" fill="currentColor"/>
<path d="M3.74322 22.7922C3.71221 22.793 3.68135 22.7876 3.65247 22.7763C3.62359 22.765 3.59726 22.748 3.57505 22.7264C3.55283 22.7047 3.53518 22.6789 3.52313 22.6503C3.51108 22.6217 3.50487 22.591 3.50488 22.56V21.625C3.51392 21.5691 3.54256 21.5182 3.58567 21.4815C3.62878 21.4448 3.68354 21.4247 3.74016 21.4247C3.79678 21.4247 3.85154 21.4448 3.89465 21.4815C3.93776 21.5182 3.9664 21.5691 3.97544 21.625V22.56C3.97544 22.6216 3.95097 22.6806 3.90742 22.7242C3.86387 22.7677 3.80481 22.7922 3.74322 22.7922Z" fill="currentColor"/>
<path d="M4.72778 6.62835H2.76C2.72899 6.62753 2.69814 6.63293 2.66925 6.64424C2.64037 6.65554 2.61404 6.67252 2.59183 6.69416C2.56961 6.71581 2.55196 6.74169 2.53991 6.77027C2.52786 6.79885 2.52166 6.82955 2.52167 6.86057V8.18668H1.23833C1.17617 8.18666 1.11646 8.21093 1.07193 8.25431C1.02741 8.29769 1.00159 8.35676 1 8.4189V10.7778C1.00159 10.8399 1.02741 10.899 1.07193 10.9424C1.11646 10.9858 1.17617 11.01 1.23833 11.01C1.29992 11.01 1.35899 10.9855 1.40254 10.942C1.44609 10.8984 1.47056 10.8394 1.47056 10.7778V8.65112H2.47889H2.52167V20.0728C2.51258 20.111 2.51258 20.1507 2.52167 20.1889L3.37111 21.7411C3.39223 21.7777 3.42247 21.8082 3.45889 21.8296C3.4953 21.8511 3.53665 21.8627 3.57889 21.8633H3.84778C3.88938 21.8635 3.93022 21.8522 3.96581 21.8306C4.00139 21.809 4.03033 21.7781 4.04944 21.7411L4.92944 20.1889C4.9412 20.1511 4.9412 20.1106 4.92944 20.0728V6.86057C4.92994 6.80392 4.90971 6.74905 4.87257 6.70628C4.83542 6.66352 4.78393 6.6358 4.72778 6.62835ZM4.48944 20.0178L3.74389 21.3806L2.99222 20.0178V7.11112H4.48944V20.0178Z" fill="currentColor"/>
<path d="M17.5485 11.7189H11.4374C11.4064 11.7189 11.3757 11.7127 11.3471 11.7007C11.3185 11.6886 11.2926 11.6709 11.271 11.6487C11.2493 11.6265 11.2324 11.6002 11.2211 11.5713C11.2097 11.5424 11.2043 11.5116 11.2052 11.4806V9.69612C11.2052 9.66562 11.2112 9.63543 11.2228 9.60725C11.2345 9.57908 11.2516 9.55348 11.2732 9.53191C11.2947 9.51035 11.3203 9.49324 11.3485 9.48157C11.3767 9.4699 11.4069 9.4639 11.4374 9.4639H17.5485C17.579 9.4639 17.6092 9.4699 17.6374 9.48157C17.6655 9.49324 17.6911 9.51035 17.7127 9.53191C17.7343 9.55348 17.7514 9.57908 17.763 9.60725C17.7747 9.63543 17.7807 9.66562 17.7807 9.69612V11.4806C17.7815 11.5116 17.7761 11.5424 17.7648 11.5713C17.7535 11.6002 17.7365 11.6265 17.7149 11.6487C17.6933 11.6709 17.6674 11.6886 17.6388 11.7007C17.6102 11.7127 17.5795 11.7189 17.5485 11.7189ZM11.6513 11.2483H17.3163V9.93445H11.6513V11.2483Z" fill="currentColor"/>
<path d="M19.8146 13.2223H9.14458C9.08242 13.2222 9.02271 13.2465 8.97818 13.2899C8.93366 13.3333 8.90784 13.3923 8.90625 13.4545V19.8895C8.9078 19.9522 8.93341 20.0119 8.97777 20.0563C9.02214 20.1006 9.08186 20.1263 9.14458 20.1278H19.8146C19.8459 20.1278 19.8769 20.1216 19.9058 20.1097C19.9347 20.0977 19.961 20.0801 19.9831 20.058C20.0052 20.0359 20.0228 20.0096 20.0348 19.9807C20.0468 19.9518 20.0529 19.9208 20.0529 19.8895V13.4484C20.0521 13.4179 20.0453 13.3878 20.0329 13.3599C20.0205 13.3321 20.0027 13.3069 19.9806 13.2859C19.9585 13.2649 19.9324 13.2485 19.9039 13.2376C19.8754 13.2266 19.8451 13.2214 19.8146 13.2223ZM9.37681 15.5078H12.1757V19.6328H9.37681V15.5078ZM19.5824 19.6573H12.6462V15.5078H18.4151C18.4773 15.5062 18.5363 15.4804 18.5797 15.4359C18.6231 15.3914 18.6474 15.3316 18.6474 15.2695C18.6427 15.2111 18.6162 15.1567 18.5732 15.117C18.5301 15.0773 18.4737 15.0554 18.4151 15.0556H9.37681V13.6806H19.5824V19.6573Z" fill="currentColor"/>
</svg>
