<svg width="24" height="24" viewBox="0 0 24 24" fill="none" xmlns="http://www.w3.org/2000/svg">
<rect x="2.02539" y="13.6587" width="8.29733" height="8.34119" fill="white"/>
<rect x="2.02539" y="1.99335" width="8.29733" height="8.34119" fill="white"/>
<rect x="13.5459" y="1.99335" width="8.29733" height="8.34119" fill="white"/>
<path d="M15.942 13.6716H13.6484V15.9651H15.942V13.6716Z" fill="#7866CB"/>
<path d="M21.983 13.6716H19.6895V15.9651H21.983V13.6716Z" fill="#7866CB"/>
<path d="M18.9791 16.6918H16.6855V18.9853H18.9791V16.6918Z" fill="#7866CB"/>
<path d="M15.942 19.7062H13.6484V21.9997H15.942V19.7062Z" fill="#7866CB"/>
<path d="M21.9821 19.7062H19.6885V21.9997H21.9821V19.7062Z" fill="#7866CB"/>
<path fill-rule="evenodd" clip-rule="evenodd" d="M1.75 1.74988H10.5785V10.578H1.75V1.74988ZM2.25 2.24986V10.078H10.0785V2.24986H2.25Z" fill="currentColor"/>
<path fill-rule="evenodd" clip-rule="evenodd" d="M3.67383 3.67426H8.65882V8.65905H3.67383V3.67426ZM4.17383 4.17423V8.15907H8.15882V4.17423H4.17383Z" fill="currentColor"/>
<path fill-rule="evenodd" clip-rule="evenodd" d="M1.75 13.4217H10.5785V22.2498H1.75V13.4217ZM2.25 13.9217V21.7498H10.0785V13.9217H2.25Z" fill="currentColor"/>
<path fill-rule="evenodd" clip-rule="evenodd" d="M3.67383 15.3461H8.65882V20.3309H3.67383V15.3461ZM4.17383 15.8461V19.8309H8.15882V15.8461H4.17383Z" fill="currentColor"/>
<path fill-rule="evenodd" clip-rule="evenodd" d="M13.4219 1.74985H22.2503V10.578H13.4219V1.74985ZM13.9219 2.24983V10.078H21.7503V2.24983H13.9219Z" fill="currentColor"/>
<path fill-rule="evenodd" clip-rule="evenodd" d="M15.3398 3.67429H20.3248V8.65908H15.3398V3.67429ZM15.8398 4.17426V8.1591H19.8248V4.17426H15.8398Z" fill="currentColor"/>
<path fill-rule="evenodd" clip-rule="evenodd" d="M13.3984 13.4217H16.192V16.2152H13.3984V13.4217ZM13.8984 13.9217V15.7152H15.692V13.9217H13.8984Z" fill="currentColor"/>
<path fill-rule="evenodd" clip-rule="evenodd" d="M19.4395 13.4217H22.233V16.2152H19.4395V13.4217ZM19.9395 13.9217V15.7152H21.733V13.9217H19.9395Z" fill="currentColor"/>
<path fill-rule="evenodd" clip-rule="evenodd" d="M16.4355 16.4418H19.2291V19.2353H16.4355V16.4418ZM16.9355 16.9418V18.7353H18.7291V16.9418H16.9355Z" fill="currentColor"/>
<path fill-rule="evenodd" clip-rule="evenodd" d="M13.3984 19.4563H16.192V22.2498H13.3984V19.4563ZM13.8984 19.9563V21.7498H15.692V19.9563H13.8984Z" fill="currentColor"/>
<path fill-rule="evenodd" clip-rule="evenodd" d="M19.4395 19.4563H22.233V22.2498H19.4395V19.4563ZM19.9395 19.9563V21.7498H21.733V19.9563H19.9395Z" fill="currentColor"/>
</svg>
