<svg width="24" height="24" viewBox="0 0 24 24" fill="none" xmlns="http://www.w3.org/2000/svg">
<path fill-rule="evenodd" clip-rule="evenodd" d="M9.37446 17.949H3.35712C2.27228 17.949 1.39285 18.8284 1.39285 19.9133V22.6069H11.3387V19.9133C11.3387 18.8284 10.4593 17.949 9.37446 17.949ZM3.35712 17.5562C2.05532 17.5562 1 18.6115 1 19.9133V22.9997H11.7316V19.9133C11.7316 18.6115 10.6763 17.5562 9.37446 17.5562H3.35712Z" fill="currentColor"/>
<path fill-rule="evenodd" clip-rule="evenodd" d="M6.42206 16.3887C7.40253 16.3887 8.19735 15.5939 8.19735 14.6134C8.19735 13.6329 7.40253 12.8381 6.42206 12.8381C5.44159 12.8381 4.64676 13.6329 4.64676 14.6134C4.64676 15.5939 5.44159 16.3887 6.42206 16.3887ZM6.42206 16.7816C7.61949 16.7816 8.59021 15.8108 8.59021 14.6134C8.59021 13.416 7.61949 12.4453 6.42206 12.4453C5.22462 12.4453 4.25391 13.416 4.25391 14.6134C4.25391 15.8108 5.22462 16.7816 6.42206 16.7816Z" fill="currentColor"/>
<path fill-rule="evenodd" clip-rule="evenodd" d="M20.643 17.949H14.6257C13.5408 17.949 12.6614 18.8284 12.6614 19.9133V22.6069H22.6073V19.9133C22.6073 18.8284 21.7278 17.949 20.643 17.949ZM14.6257 17.5562C13.3239 17.5562 12.2686 18.6115 12.2686 19.9133V22.9997H23.0001V19.9133C23.0001 18.6115 21.9448 17.5562 20.643 17.5562H14.6257Z" fill="currentColor"/>
<path fill-rule="evenodd" clip-rule="evenodd" d="M17.6906 16.3887C18.6711 16.3887 19.4659 15.5939 19.4659 14.6134C19.4659 13.6329 18.6711 12.8381 17.6906 12.8381C16.7101 12.8381 15.9153 13.6329 15.9153 14.6134C15.9153 15.5939 16.7101 16.3887 17.6906 16.3887ZM17.6906 16.7816C18.888 16.7816 19.8588 15.8108 19.8588 14.6134C19.8588 13.416 18.888 12.4453 17.6906 12.4453C16.4932 12.4453 15.5225 13.416 15.5225 14.6134C15.5225 15.8108 16.4932 16.7816 17.6906 16.7816Z" fill="currentColor"/>
<path d="M13.0163 16.2201C12.6058 16.2147 12.2758 15.8767 12.2812 15.4662L12.2946 14.444H13.4107L12.0156 12.1421L10.6205 14.444H11.758L11.7446 15.4581C11.7419 15.6567 11.6615 15.8418 11.5193 15.9813C11.3771 16.1208 11.1893 16.2013 10.9907 16.1933L9.77001 16.1798L9.76465 16.7164L10.9854 16.7298C10.9907 16.7298 10.9961 16.7298 11.0015 16.7298C11.3368 16.7298 11.6561 16.6011 11.8949 16.365C11.9351 16.3247 11.97 16.2791 12.0049 16.2362C12.2356 16.5447 12.5978 16.7486 13.011 16.754L14.2317 16.7674L14.237 16.2308L13.0163 16.2201Z" fill="currentColor"/>
<path d="M18.3397 7.93264H13.2932V8.13922C13.2932 8.85287 12.7137 9.43237 12 9.43237C11.2864 9.43237 10.7069 8.85287 10.7069 8.13922V7.93264H5.66034C5.15596 7.93264 4.69718 7.72874 4.36719 7.39606V12.8289C4.85279 12.2682 5.56912 11.9114 6.36863 11.9114C7.79593 11.9114 8.95762 13.0462 9.01128 14.4574H9.98517L12.0161 11.1092L14.0444 14.4574H14.9915C15.0451 13.0436 16.2095 11.9114 17.6341 11.9114C18.4336 11.9114 19.1473 12.2682 19.6355 12.8289V7.39606C19.3029 7.72605 18.8441 7.93264 18.3397 7.93264Z" fill="#C9C2EA"/>
<path fill-rule="evenodd" clip-rule="evenodd" d="M14.0444 14.4574H14.9915C15.0451 13.0436 16.2095 11.9114 17.6341 11.9114C18.2398 11.9114 18.7962 12.1162 19.2427 12.4593C19.3856 12.569 19.5172 12.693 19.6355 12.8289V7.39606C19.5189 7.51173 19.3868 7.61224 19.2427 7.694C18.9756 7.8455 18.6673 7.93264 18.3397 7.93264H13.2932V8.13922C13.2932 8.85287 12.7137 9.43237 12 9.43237C11.2864 9.43237 10.7069 8.85287 10.7069 8.13922V7.93264H5.66034C5.33356 7.93264 5.02592 7.84705 4.76004 7.6963C4.61554 7.61437 4.48338 7.5132 4.36719 7.39606V12.8289C4.48521 12.6926 4.61687 12.5684 4.76004 12.4584C5.20592 12.1158 5.76344 11.9114 6.36863 11.9114C7.79593 11.9114 8.95762 13.0462 9.01128 14.4574H9.98517L12.0161 11.1092L14.0444 14.4574ZM9.76399 14.0646L12.0163 10.3513L14.2657 14.0646H14.6368C14.8734 12.6217 16.1263 11.5185 17.6341 11.5185C18.2261 11.5185 18.7766 11.6889 19.2427 11.9813V8.13356C18.9666 8.25653 18.661 8.32549 18.3397 8.32549H13.6758C13.583 9.16858 12.8677 9.82523 12 9.82523C11.1324 9.82523 10.417 9.16858 10.3242 8.32549H5.66034C5.34071 8.32549 5.03572 8.2579 4.76004 8.13563V11.9805C5.22624 11.6884 5.77752 11.5185 6.36863 11.5185C7.87922 11.5185 9.12947 12.6241 9.36586 14.0646H9.76399Z" fill="currentColor"/>
<path fill-rule="evenodd" clip-rule="evenodd" d="M5.9386 3.15405C5.07073 3.15405 4.36719 3.8576 4.36719 4.72546V5.8246C4.36719 6.69246 5.07073 7.39601 5.9386 7.39601H11.2453V8.14926C11.2453 8.56153 11.5795 8.89575 11.9918 8.89575C12.4183 8.89575 12.7641 8.54996 12.7641 8.12341V7.39601H18.0614C18.9293 7.39601 19.6329 6.69246 19.6329 5.8246V4.72546C19.6329 3.8576 18.9293 3.15405 18.0614 3.15405H5.9386Z" fill="#C9C2EA"/>
<path fill-rule="evenodd" clip-rule="evenodd" d="M11.6381 7.00316V8.14926C11.6381 8.34457 11.7965 8.50289 11.9918 8.50289C12.2013 8.50289 12.3712 8.333 12.3712 8.12341V7.00316H18.0614C18.7123 7.00316 19.24 6.4755 19.24 5.8246V4.72546C19.24 4.07456 18.7123 3.54691 18.0614 3.54691H5.9386C5.2877 3.54691 4.76004 4.07456 4.76004 4.72546V5.8246C4.76004 6.4755 5.2877 7.00316 5.9386 7.00316H11.6381ZM5.9386 7.39601C5.07073 7.39601 4.36719 6.69246 4.36719 5.8246V4.72546C4.36719 3.8576 5.07073 3.15405 5.9386 3.15405H18.0614C18.9293 3.15405 19.6329 3.8576 19.6329 4.72546V5.8246C19.6329 6.69246 18.9293 7.39601 18.0614 7.39601H12.7641V8.12341C12.7641 8.54996 12.4183 8.89575 11.9918 8.89575C11.5795 8.89575 11.2453 8.56153 11.2453 8.14926V7.39601H5.9386Z" fill="currentColor"/>
<path fill-rule="evenodd" clip-rule="evenodd" d="M10.48 1C10.0461 1 9.69434 1.35177 9.69434 1.7857V3.33881H10.439V2.11257H13.5349V3.33881H14.2001V1.78571C14.2001 1.35177 13.8483 1 13.4144 1H10.48Z" fill="currentColor"/>
</svg>
