<svg width="24" height="24" viewBox="0 0 24 24" fill="none" xmlns="http://www.w3.org/2000/svg">
<path d="M11.8955 2.04401C9.03726 2.049 6.29778 3.18794 4.27846 5.2108C2.25914 7.23366 1.125 9.97512 1.125 12.8334C1.56524 12.3075 2.11543 11.8846 2.73682 11.5945C3.3582 11.3043 4.03566 11.1539 4.72146 11.1539C5.40725 11.1539 6.08471 11.3043 6.70609 11.5945C7.32748 11.8846 7.87767 12.3075 8.31791 12.8334C8.75875 12.3074 9.3095 11.8844 9.9314 11.5942C10.5533 11.304 11.2312 11.1536 11.9175 11.1536C12.6038 11.1536 13.2817 11.304 13.9036 11.5942C14.5255 11.8844 15.0763 12.3074 15.5171 12.8334C15.9574 12.3075 16.5075 11.8846 17.1289 11.5945C17.7503 11.3043 18.4278 11.1539 19.1136 11.1539C19.7994 11.1539 20.4768 11.3043 21.0982 11.5945C21.7196 11.8846 22.2698 12.3075 22.71 12.8334C22.71 11.4144 22.4301 10.0093 21.8863 8.69864C21.3425 7.38798 20.5456 6.19745 19.541 5.19523C18.5365 4.19302 17.3441 3.3988 16.0321 2.85807C14.7202 2.31733 13.3145 2.0407 11.8955 2.04401Z" fill="#C9C2EA"/>
<path d="M12.0283 2C9.10552 2.00332 6.30331 3.16544 4.23601 5.23156C2.1687 7.29769 1.00499 10.0992 1 13.022C1.00051 13.0711 1.01576 13.119 1.04379 13.1594C1.07182 13.1997 1.11132 13.2307 1.15719 13.2484H1.23893C1.27335 13.2483 1.30738 13.241 1.3388 13.2269C1.37021 13.2128 1.39831 13.1923 1.42126 13.1666C1.83845 12.6663 2.36051 12.2638 2.95049 11.9875C3.54046 11.7113 4.18394 11.5681 4.83538 11.5681C5.48682 11.5681 6.1303 11.7113 6.72028 11.9875C7.31026 12.2638 7.83231 12.6663 8.2495 13.1666L8.30609 13.1981C8.30609 13.1981 8.30609 13.2295 8.3501 13.2358H8.51986C8.51986 13.2358 8.51986 13.2358 8.56387 13.1981L8.62046 13.1666C9.00995 12.7035 9.48942 12.3243 10.0298 12.0519C10.5702 11.7795 11.1602 11.6197 11.7642 11.5822V20.8248C11.7642 21.2367 11.6006 21.6317 11.3094 21.923C11.0181 22.2142 10.6231 22.3778 10.2112 22.3778C9.79932 22.3778 9.4043 22.2142 9.11306 21.923C8.82181 21.6317 8.65819 21.2367 8.65819 20.8248C8.65819 20.7598 8.63235 20.6974 8.58637 20.6514C8.54038 20.6054 8.47801 20.5796 8.41297 20.5796C8.34844 20.5812 8.28699 20.6075 8.24135 20.6532C8.1957 20.6988 8.16936 20.7603 8.16776 20.8248C8.15233 21.1031 8.19382 21.3816 8.2897 21.6434C8.38558 21.9051 8.53383 22.1445 8.72539 22.347C8.91695 22.5494 9.14779 22.7107 9.4038 22.8209C9.65981 22.9312 9.93562 22.988 10.2143 22.988C10.4931 22.988 10.7689 22.9312 11.0249 22.8209C11.2809 22.7107 11.5117 22.5494 11.7033 22.347C11.8949 22.1445 12.0431 21.9051 12.139 21.6434C12.2349 21.3816 12.2764 21.1031 12.2609 20.8248V11.6073C12.8647 11.6456 13.4546 11.8057 13.9948 12.078C14.5351 12.3503 15.0147 12.7292 15.4047 13.1918C15.4303 13.2204 15.4627 13.242 15.499 13.2546H15.5682H15.6499C15.6499 13.2546 15.6813 13.2546 15.6939 13.2169L15.7505 13.1855C16.1671 12.6853 16.6886 12.2828 17.2781 12.0066C17.8675 11.7304 18.5105 11.5872 19.1615 11.5872C19.8124 11.5872 20.4554 11.7304 21.0449 12.0066C21.6344 12.2828 22.1559 12.6853 22.5724 13.1855C22.6221 13.2365 22.6899 13.2659 22.7611 13.2672H22.8428C22.8887 13.2496 22.9282 13.2186 22.9562 13.1782C22.9842 13.1379 22.9995 13.09 23 13.0409C22.9984 10.1251 21.8441 7.32819 19.7889 5.25996C17.7336 3.19173 14.944 2.01991 12.0283 2ZM4.83538 11.1358C3.60463 11.124 2.41388 11.5725 1.49671 12.3933C1.65272 9.92393 2.66909 7.58734 4.36914 5.78964C6.0692 3.99195 8.34545 2.84682 10.8022 2.5533C10.7079 2.64133 10.6199 2.74193 10.5256 2.84881C10.5282 2.85912 10.5282 2.86994 10.5256 2.88025C10.4269 3.00329 10.3345 3.13131 10.2489 3.26379C10.2159 3.30968 10.1865 3.35802 10.1609 3.4084C10.0855 3.52158 10.0163 3.64104 9.94713 3.76679L9.86539 3.93027C9.78365 4.08745 9.70191 4.25722 9.62646 4.43955L9.59503 4.50243C9.51538 4.70363 9.43365 4.91321 9.34981 5.13118C9.34981 5.18777 9.3058 5.25064 9.28694 5.31352C9.23035 5.48957 9.17376 5.66562 9.12346 5.84796C9.12346 5.92341 9.07945 5.99257 9.0543 6.07431C8.99771 6.26922 8.94741 6.47671 8.89711 6.70306C8.88539 6.7583 8.8707 6.81287 8.8531 6.86653C8.79651 7.1369 8.73364 7.41355 8.68334 7.69648C8.68334 7.75936 8.68334 7.82223 8.6519 7.88511C8.60789 8.11146 8.57016 8.3441 8.53872 8.57674C8.53872 8.67105 8.50729 8.75907 8.49471 8.85339C8.49471 9.08602 8.43812 9.31237 8.40669 9.5513C8.40669 9.63304 8.40669 9.71478 8.40669 9.79651C8.37525 10.1172 8.34381 10.4253 8.31866 10.7711C8.32164 10.8129 8.32164 10.855 8.31866 10.8968C8.31866 11.1798 8.31866 11.4753 8.27465 11.7708C8.27465 11.8714 8.27465 11.9783 8.27465 12.0852C8.27465 12.1921 8.27465 12.3241 8.27465 12.4436C7.33895 11.5817 6.10729 11.1134 4.83538 11.1358ZM12.0597 11.1358H12.0031C10.7751 11.1286 9.58791 11.5766 8.67076 12.3933C8.67076 12.3052 8.67076 12.2109 8.67076 12.1229V11.5759C8.67076 11.3873 8.67076 11.2049 8.67076 11.0226C8.67076 10.8402 8.67076 10.6705 8.70849 10.5007C8.74621 10.331 8.70849 10.1486 8.7525 9.97256C8.79651 9.79651 8.7525 9.63932 8.8028 9.47585C8.8531 9.31237 8.84681 9.14261 8.86568 8.97914C8.88454 8.81566 8.90969 8.66476 8.93484 8.51386L9.01029 8.0423C9.01029 7.89768 9.06688 7.74678 9.09203 7.60846L9.18634 7.16833C9.18634 7.03001 9.24293 6.89797 9.27436 6.76593C9.3058 6.63389 9.34353 6.48928 9.38125 6.35724C9.41898 6.22521 9.44413 6.10574 9.48185 5.98628C9.51958 5.86682 9.5573 5.74107 9.60131 5.61532C9.64533 5.48957 9.67048 5.38897 9.7082 5.28208C9.74593 5.17519 9.79623 5.05573 9.83395 4.94255C9.87168 4.82938 9.91569 4.74135 9.95341 4.64704C9.99114 4.55273 10.0477 4.43955 10.0917 4.34524C10.1358 4.25093 10.1735 4.1629 10.2175 4.08117C10.2615 3.99943 10.3118 3.90512 10.3621 3.82338C10.4124 3.74164 10.4438 3.66619 10.4879 3.59703L10.645 3.37696C10.6891 3.32038 10.7268 3.25121 10.7708 3.20091C10.8242 3.13725 10.8809 3.07639 10.9406 3.01858C10.9775 2.9682 11.0197 2.92183 11.0663 2.88025C11.1219 2.83031 11.1807 2.7841 11.2424 2.74193L11.3618 2.64761C11.4264 2.61106 11.4936 2.57953 11.563 2.5533C11.5948 2.53486 11.6285 2.5201 11.6636 2.50929C11.8571 2.44221 12.0675 2.44221 12.2609 2.50929C12.2956 2.52129 12.3292 2.53601 12.3615 2.5533C12.4309 2.57953 12.4982 2.61106 12.5627 2.64761L12.6822 2.74193C12.7439 2.7841 12.8027 2.83031 12.8582 2.88025C12.9049 2.92183 12.947 2.9682 12.984 3.01858C13.0433 3.07488 13.0979 3.13586 13.1475 3.20091C13.1915 3.25121 13.2355 3.32038 13.2795 3.37696L13.4367 3.59703C13.4807 3.66619 13.5184 3.74793 13.5624 3.82338C13.6065 3.89883 13.663 3.99314 13.7071 4.08117C13.7511 4.16919 13.7888 4.25722 13.8328 4.34524C13.8768 4.43327 13.9271 4.54015 13.9711 4.64704C14.0151 4.75393 14.0466 4.84195 14.0906 4.94255C14.1346 5.04316 14.1723 5.16262 14.2163 5.28208C14.2604 5.40154 14.2918 5.50214 14.3232 5.61532C14.3547 5.72849 14.405 5.86053 14.4427 5.98628C14.4804 6.11203 14.5119 6.23149 14.5433 6.35724C14.5747 6.48299 14.6125 6.62761 14.6502 6.76593C14.6879 6.90426 14.7131 7.03001 14.7382 7.16833L14.8325 7.60846C14.8325 7.74678 14.8828 7.89768 14.9143 8.0423C14.9457 8.18691 14.9646 8.35039 14.9897 8.51386C15.0149 8.67734 15.0337 8.82195 15.0589 8.97914C15.084 9.13632 15.1029 9.30609 15.1217 9.47585C15.1406 9.64561 15.1532 9.8028 15.172 9.97256C15.1909 10.1423 15.2035 10.3247 15.2161 10.5007L15.2538 11.0226C15.2538 11.2049 15.2538 11.3873 15.2852 11.5759V12.1229V12.3933C14.3968 11.5989 13.2513 11.1523 12.0597 11.1358ZM19.2275 11.1358C17.979 11.1378 16.7774 11.6117 15.8637 12.4624C15.8637 12.343 15.8637 12.2235 15.8637 12.104C15.8637 11.9846 15.8637 11.8903 15.8637 11.7897C15.8637 11.4941 15.8637 11.1986 15.8197 10.9157C15.8167 10.8738 15.8167 10.8318 15.8197 10.7899C15.8197 10.4567 15.7631 10.1612 15.7316 9.81537C15.7316 9.73364 15.7316 9.6519 15.7316 9.57016C15.7316 9.33124 15.675 9.10489 15.6436 8.87225C15.6436 8.77794 15.6436 8.68991 15.5996 8.5956C15.5682 8.36296 15.5304 8.13032 15.4864 7.90397C15.4864 7.8411 15.4864 7.77822 15.455 7.71535C15.3984 7.43241 15.3418 7.15576 15.2789 6.8854L15.2412 6.72192C15.1909 6.51443 15.1406 6.30694 15.084 6.09317C15.084 6.01143 15.04 5.94227 15.0149 5.86682C14.9646 5.68448 14.908 5.50843 14.8514 5.33238C14.8514 5.26951 14.8074 5.20663 14.7885 5.15004C14.7047 4.92369 14.6229 4.71411 14.5433 4.52129L14.5119 4.45842C14.4364 4.27608 14.3547 4.10632 14.2729 3.94913C14.2729 3.89254 14.2163 3.84224 14.1912 3.78565C14.166 3.72907 14.0529 3.54044 13.9774 3.42726C13.9518 3.37688 13.9224 3.32854 13.8894 3.28265C13.8038 3.15017 13.7114 3.02215 13.6127 2.89911C13.6101 2.8888 13.6101 2.87799 13.6127 2.86768C13.5184 2.76079 13.4304 2.66019 13.3361 2.57216C15.7762 2.88134 18.0324 4.03089 19.7169 5.82321C21.4014 7.61553 22.4088 9.93866 22.5662 12.3933C21.649 11.5725 20.4582 11.124 19.2275 11.1358Z" fill="currentColor"/>
</svg>
