<svg width="24" height="24" viewBox="0 0 24 24" fill="none" xmlns="http://www.w3.org/2000/svg">
<path d="M11.8728 10.5015C13.8801 10.5015 15.5073 8.87429 15.5073 6.86701C15.5073 4.85973 13.8801 3.23251 11.8728 3.23251C9.8655 3.23251 8.23828 4.85973 8.23828 6.86701C8.23828 8.87429 9.8655 10.5015 11.8728 10.5015Z" fill="#C9C2EA"/>
<path d="M11.2842 12.1658H13.0403C14.1648 12.1658 15.2434 12.6125 16.0386 13.4077C16.8338 14.2029 17.2805 15.2815 17.2805 16.4061V17.9357H7.04395V16.4061C7.04395 15.2815 7.49068 14.2029 8.28588 13.4077C9.08109 12.6125 10.1596 12.1658 11.2842 12.1658Z" fill="#C9C2EA"/>
<path d="M17.7835 7.76032H19.4295C19.7037 7.76032 19.9667 7.86927 20.1607 8.06319C20.3546 8.25711 20.4635 8.52013 20.4635 8.79438V18.2355C20.4726 18.2915 20.5013 18.3424 20.5444 18.3791C20.5876 18.4159 20.6424 18.4361 20.6991 18.4361C20.7558 18.4361 20.8106 18.4159 20.8538 18.3791C20.8969 18.3424 20.9256 18.2915 20.9347 18.2355V8.79438C20.9347 8.39518 20.7761 8.01233 20.4938 7.73005C20.2115 7.44777 19.8287 7.28918 19.4295 7.28918H17.7835C17.7276 7.29823 17.6767 7.32691 17.6399 7.37007C17.6032 7.41323 17.583 7.46807 17.583 7.52475C17.583 7.58144 17.6032 7.63627 17.6399 7.67944C17.6767 7.7226 17.7276 7.75128 17.7835 7.76032Z" fill="currentColor"/>
<path d="M3.27671 18.468C3.33838 18.468 3.39752 18.4435 3.44112 18.3999C3.48473 18.3563 3.50922 18.2972 3.50922 18.2355V8.79438C3.51084 8.51957 3.62114 8.25657 3.81604 8.06282C4.01094 7.86907 4.27459 7.76032 4.5494 7.76032H6.09743C6.15339 7.75128 6.2043 7.7226 6.24104 7.67944C6.27779 7.63627 6.29797 7.58144 6.29797 7.52475C6.29797 7.46807 6.27779 7.41323 6.24104 7.37007C6.2043 7.32691 6.15339 7.29823 6.09743 7.28918H4.5494C4.14963 7.28918 3.76615 7.44757 3.4829 7.72967C3.19965 8.01178 3.0397 8.39462 3.03809 8.79438V18.2355C3.03968 18.2977 3.06553 18.3569 3.11011 18.4003C3.15469 18.4437 3.21447 18.468 3.27671 18.468Z" fill="currentColor"/>
<path d="M22.9238 19.7713C22.9029 19.7423 22.8753 19.7187 22.8433 19.7027C22.8114 19.6867 22.776 19.6788 22.7402 19.6795H13.8987C13.8652 19.6796 13.8321 19.6867 13.8015 19.7004C13.771 19.7141 13.7436 19.7341 13.7213 19.7591L13.4888 20.0344H10.4906L10.2581 19.7713C10.2353 19.7469 10.2079 19.7273 10.1774 19.7136C10.1469 19.7 10.1141 19.6925 10.0807 19.6918H1.23305C1.19747 19.692 1.16242 19.7004 1.1306 19.7163C1.09878 19.7322 1.07103 19.7552 1.04949 19.7835C1.0278 19.8107 1.01266 19.8425 1.00523 19.8764C0.997802 19.9104 0.998292 19.9456 1.00666 19.9793C1.00666 20.0528 1.43497 21.8149 2.84227 21.8149H21.1616C22.5628 21.8149 22.9972 20.0222 22.9972 19.9793C23.0032 19.9413 22.9996 19.9024 22.9867 19.8661C22.9739 19.8297 22.9523 19.7972 22.9238 19.7713ZM21.1616 21.3866H2.83615C2.09579 21.3866 1.71031 20.6096 1.55123 20.1629H9.97053L10.203 20.4382C10.2254 20.4632 10.2527 20.4832 10.2833 20.4969C10.3139 20.5106 10.347 20.5177 10.3805 20.5178H13.5928C13.6263 20.5177 13.6594 20.5106 13.69 20.4969C13.7206 20.4832 13.7479 20.4632 13.7702 20.4382L14.0089 20.1629H22.4221C22.2691 20.6096 21.8836 21.3866 21.1616 21.3866Z" fill="currentColor"/>
<path d="M11.9832 10.734C12.748 10.734 13.4957 10.5072 14.1316 10.0823C14.7675 9.6574 15.2632 9.05345 15.5559 8.34685C15.8486 7.64025 15.9251 6.86272 15.7759 6.11259C15.6267 5.36247 15.2584 4.67343 14.7176 4.13262C14.1768 3.59181 13.4878 3.22351 12.7376 3.07431C11.9875 2.9251 11.21 3.00168 10.5034 3.29436C9.79678 3.58704 9.19283 4.08269 8.76792 4.71862C8.34301 5.35454 8.11621 6.10219 8.11621 6.86701C8.11783 7.89211 8.52576 8.87476 9.25062 9.59961C9.97547 10.3245 10.9581 10.7324 11.9832 10.734ZM11.9832 3.47114C12.6549 3.47114 13.3114 3.6703 13.8699 4.04345C14.4283 4.41659 14.8636 4.94695 15.1206 5.56747C15.3776 6.18798 15.4449 6.87078 15.3138 7.52951C15.1828 8.18825 14.8594 8.79333 14.3845 9.26825C13.9095 9.74317 13.3045 10.0666 12.6457 10.1976C11.987 10.3287 11.3042 10.2614 10.6837 10.0044C10.0632 9.74736 9.5328 9.3121 9.15966 8.75365C8.78651 8.19521 8.58735 7.53865 8.58735 6.86701C8.58897 5.96687 8.94726 5.10405 9.58376 4.46755C10.2203 3.83106 11.0831 3.47276 11.9832 3.47114Z" fill="currentColor"/>
<path d="M6.87535 18.1682H17.1058C17.1675 18.1682 17.2266 18.1437 17.2702 18.1001C17.3138 18.0565 17.3383 17.9974 17.3383 17.9357V16.406C17.3367 15.2203 16.8649 14.0836 16.0265 13.2451C15.188 12.4067 14.0513 11.9349 12.8655 11.9333H11.1095C9.92372 11.9349 8.787 12.4067 7.94855 13.2451C7.11009 14.0836 6.63834 15.2203 6.63672 16.406V17.9357C6.63671 17.9668 6.64292 17.9975 6.65498 18.0261C6.66705 18.0547 6.68473 18.0807 6.70697 18.1023C6.72921 18.124 6.75557 18.141 6.78449 18.1523C6.81341 18.1636 6.8443 18.169 6.87535 18.1682ZM7.0895 16.406C7.09759 15.3463 7.52507 14.3329 8.27844 13.5876C9.03181 12.8422 10.0497 12.4256 11.1095 12.4289H12.8655C13.9247 12.4256 14.942 12.8424 15.6944 13.588C16.4468 14.3335 16.8729 15.3469 16.8794 16.406V17.7032H7.0895V16.406Z" fill="currentColor"/>
</svg>
