<svg width="24" height="24" viewBox="0 0 24 24" fill="none" xmlns="http://www.w3.org/2000/svg">
<path d="M16.6648 16.4174C19.5096 16.4174 21.8159 14.1111 21.8159 11.2663C21.8159 8.4214 19.5096 6.11517 16.6648 6.11517C13.8199 6.11517 11.5137 8.4214 11.5137 11.2663C11.5137 14.1111 13.8199 16.4174 16.6648 16.4174Z" fill="#C9C2EA"/>
<path d="M14.9642 17.2616C14.9025 17.2616 14.8434 17.2861 14.7998 17.3297C14.7562 17.3733 14.7317 17.4324 14.7317 17.4941V19.9656H2.4902V1.4902H14.7256V4.7387C14.7256 4.80035 14.7501 4.85948 14.7937 4.90308C14.8373 4.94668 14.8964 4.97117 14.9581 4.97117C15.0203 4.97119 15.0801 4.94689 15.1246 4.90347C15.1692 4.86004 15.1951 4.80091 15.1966 4.7387V1.25161C15.1983 1.21978 15.1935 1.18793 15.1827 1.15796C15.1718 1.12799 15.155 1.10051 15.1334 1.07712C15.1117 1.05374 15.0856 1.03494 15.0565 1.02183C15.0274 1.00872 14.996 1.00156 14.9642 1.00079H2.25161C2.21797 0.99801 2.18413 1.00259 2.15243 1.01421C2.12074 1.02583 2.09196 1.04422 2.06809 1.06809C2.04422 1.09196 2.02583 1.12074 2.01421 1.15243C2.00259 1.18413 1.99801 1.21797 2.00079 1.25161V22.7675C2.00079 22.8292 2.02528 22.8883 2.06888 22.9319C2.11248 22.9755 2.17161 23 2.23326 23H14.9642C15.0264 23 15.0862 22.9757 15.1308 22.9323C15.1753 22.8889 15.2012 22.8297 15.2028 22.7675V17.5186C15.2053 17.4857 15.201 17.4527 15.1902 17.4216C15.1793 17.3905 15.1621 17.362 15.1397 17.3378C15.1173 17.3137 15.0901 17.2945 15.0599 17.2814C15.0297 17.2682 14.9971 17.2615 14.9642 17.2616ZM2.4902 22.5289V20.4489H14.7256V22.5289H2.4902Z" fill="currentColor"/>
<path d="M9.28591 21.1891H7.92778C7.86557 21.1907 7.80645 21.2166 7.76302 21.2612C7.71959 21.3057 7.69529 21.3655 7.69531 21.4277C7.69531 21.4894 7.7198 21.5485 7.7634 21.5921C7.807 21.6357 7.86613 21.6602 7.92778 21.6602H9.28591C9.34814 21.6602 9.40792 21.6359 9.45249 21.5925C9.49707 21.5491 9.52291 21.4899 9.5245 21.4277C9.52295 21.3649 9.49732 21.3052 9.4529 21.2607C9.40849 21.2163 9.3487 21.1907 9.28591 21.1891Z" fill="currentColor"/>
<path d="M7.45734 3.23376C7.39406 3.23376 7.33338 3.2589 7.28863 3.30364C7.24389 3.34839 7.21875 3.40907 7.21875 3.47235C7.21874 3.5034 7.22495 3.53414 7.23701 3.56275C7.24908 3.59136 7.26675 3.61727 7.28899 3.63893C7.31123 3.6606 7.33758 3.6776 7.3665 3.68891C7.39541 3.70023 7.4263 3.70564 7.45734 3.70482H9.76371C9.79641 3.705 9.82878 3.69828 9.85871 3.6851C9.88864 3.67192 9.91545 3.65257 9.93739 3.62832C9.95933 3.60407 9.9759 3.57547 9.98604 3.54437C9.99617 3.51328 9.99962 3.4804 9.99618 3.44788C9.9962 3.38565 9.97191 3.32587 9.92848 3.2813C9.88505 3.23673 9.82592 3.21089 9.76371 3.20929L7.45734 3.23376Z" fill="currentColor"/>
<path d="M16.6846 5.89496C15.6186 5.89496 14.5766 6.21106 13.6903 6.80328C12.8039 7.39551 12.1131 8.23726 11.7052 9.2221C11.2973 10.2069 11.1905 11.2906 11.3985 12.3361C11.6064 13.3816 12.1198 14.342 12.8735 15.0957C13.6273 15.8495 14.5876 16.3628 15.6331 16.5708C16.6786 16.7787 17.7623 16.672 18.7472 16.2641C19.732 15.8561 20.5737 15.1653 21.166 14.279C21.7582 13.3927 22.0743 12.3506 22.0743 11.2846C22.0727 9.85571 21.5043 8.48576 20.4939 7.47535C19.4835 6.46494 18.1135 5.89658 16.6846 5.89496ZM16.6846 16.1971C15.7166 16.1971 14.7704 15.9101 13.9656 15.3723C13.1607 14.8346 12.5334 14.0702 12.163 13.1759C11.7926 12.2816 11.6957 11.2976 11.8845 10.3482C12.0733 9.39882 12.5395 8.52677 13.2239 7.84231C13.9084 7.15785 14.7804 6.69173 15.7298 6.50288C16.6792 6.31404 17.6632 6.41096 18.5575 6.78139C19.4518 7.15182 20.2162 7.77911 20.7539 8.58395C21.2917 9.38879 21.5788 10.335 21.5788 11.303C21.5739 12.5978 21.0561 13.838 20.1388 14.7518C19.2215 15.6657 17.9794 16.1788 16.6846 16.1788V16.1971Z" fill="currentColor"/>
<path d="M17.5465 8.50109H16.9042V7.96885C16.8951 7.9129 16.8665 7.862 16.8233 7.82526C16.7802 7.78852 16.7253 7.76834 16.6687 7.76834C16.612 7.76834 16.5571 7.78852 16.514 7.82526C16.4708 7.862 16.4422 7.9129 16.4331 7.96885V8.50109H15.7908C15.5987 8.49945 15.4138 8.57375 15.2763 8.70781C15.1388 8.84188 15.0599 9.02484 15.0566 9.21686V10.7157C15.0661 10.9028 15.148 11.079 15.285 11.2068C15.422 11.3347 15.6034 11.4043 15.7908 11.4009H17.5465C17.6121 11.3975 17.6763 11.42 17.7255 11.4634C17.7747 11.5069 17.8049 11.5679 17.8096 11.6333V13.2912C17.808 13.3242 17.8 13.3565 17.7859 13.3863C17.7718 13.4162 17.752 13.4429 17.7276 13.4651C17.7031 13.4873 17.6746 13.5044 17.6435 13.5155C17.6124 13.5266 17.5795 13.5315 17.5465 13.5298H15.7908C15.7236 13.5332 15.6578 13.5101 15.6075 13.4655C15.5571 13.4209 15.5263 13.3583 15.5216 13.2912V12.6795C15.5216 12.6178 15.4971 12.5587 15.4535 12.5151C15.4099 12.4715 15.3508 12.447 15.2891 12.447C15.2275 12.447 15.1683 12.4715 15.1247 12.5151C15.0811 12.5587 15.0566 12.6178 15.0566 12.6795V13.2912C15.0582 13.386 15.0785 13.4796 15.1162 13.5666C15.154 13.6536 15.2085 13.7322 15.2767 13.7981C15.3449 13.864 15.4254 13.9159 15.5136 13.9507C15.6018 13.9854 15.696 14.0025 15.7908 14.0009H16.4331V14.5331C16.4422 14.5891 16.4708 14.64 16.514 14.6767C16.5571 14.7135 16.612 14.7336 16.6687 14.7336C16.7253 14.7336 16.7802 14.7135 16.8233 14.6767C16.8665 14.64 16.8951 14.5891 16.9042 14.5331V14.0009H17.5465C17.6413 14.0025 17.7355 13.9854 17.8237 13.9507C17.9119 13.9159 17.9924 13.864 18.0606 13.7981C18.1288 13.7322 18.1833 13.6536 18.2211 13.5666C18.2588 13.4796 18.2791 13.386 18.2807 13.2912V11.6578C18.2758 11.4674 18.196 11.2866 18.0585 11.1549C17.921 11.0231 17.737 10.951 17.5465 10.9543H15.7908C15.7236 10.9576 15.6578 10.9346 15.6075 10.8899C15.5571 10.8453 15.5263 10.7828 15.5216 10.7157V9.21686C15.5232 9.1831 15.5314 9.14999 15.5457 9.11941C15.5601 9.08884 15.5804 9.0614 15.6054 9.03867C15.6304 9.01594 15.6597 8.99836 15.6915 8.98695C15.7233 8.97553 15.757 8.9705 15.7908 8.97215H17.5465C17.58 8.97051 17.6134 8.97558 17.6449 8.98706C17.6763 8.99855 17.7052 9.01622 17.7297 9.03902C17.7542 9.06183 17.7739 9.08931 17.7876 9.11986C17.8014 9.1504 17.8088 9.18338 17.8096 9.21686V9.82863C17.8186 9.88458 17.8473 9.93548 17.8905 9.97222C17.9336 10.009 17.9885 10.0291 18.0451 10.0291C18.1018 10.0291 18.1566 10.009 18.1998 9.97222C18.2429 9.93548 18.2716 9.88458 18.2807 9.82863V9.21686C18.2774 9.02484 18.1985 8.84188 18.061 8.70781C17.9235 8.57375 17.7386 8.49945 17.5465 8.50109Z" fill="currentColor"/>
</svg>
