<svg width="24" height="24" viewBox="0 0 24 24" fill="none" xmlns="http://www.w3.org/2000/svg">
<path d="M14.9854 20.5755C16.6476 20.5755 17.9951 19.2269 17.9951 17.5634C17.9951 15.8998 16.6476 14.5512 14.9854 14.5512C13.3231 14.5512 11.9756 15.8998 11.9756 17.5634C11.9756 19.2269 13.3231 20.5755 14.9854 20.5755Z" fill="#C9C2EA"/>
<path d="M8.91708 18.3899C8.74019 18.3923 8.56657 18.3421 8.41823 18.2457C8.26989 18.1492 8.15352 18.0108 8.08386 17.8481C8.01421 17.6853 7.99442 17.5055 8.02699 17.3315C8.05957 17.1575 8.14305 16.9971 8.26684 16.8706C8.39063 16.7441 8.54917 16.6573 8.72234 16.6211C8.89551 16.5849 9.07551 16.601 9.23953 16.6674C9.40354 16.7337 9.54418 16.8473 9.6436 16.9938C9.74303 17.1402 9.79676 17.3129 9.79799 17.4899C9.79804 17.7255 9.70582 17.9516 9.54112 18.1199C9.37643 18.2882 9.15238 18.3851 8.91708 18.3899ZM8.91708 17.0675C8.804 17.0691 8.696 17.1147 8.61603 17.1948C8.53606 17.2748 8.49044 17.3829 8.48886 17.496C8.49047 17.6086 8.53629 17.7161 8.61642 17.7951C8.69656 17.8742 8.80456 17.9185 8.91708 17.9185C9.02903 17.9185 9.13639 17.874 9.21555 17.7947C9.29471 17.7155 9.33918 17.6081 9.33918 17.496C9.33919 17.3834 9.29492 17.2753 9.21593 17.1951C9.13694 17.1149 9.02959 17.0691 8.91708 17.0675Z" fill="currentColor"/>
<path d="M20.889 18.3899C20.7119 18.3935 20.5377 18.3444 20.3886 18.2487C20.2394 18.1529 20.1221 18.015 20.0515 17.8524C19.9809 17.6898 19.9602 17.5098 19.9921 17.3354C20.024 17.161 20.107 17 20.2305 16.8729C20.354 16.7459 20.5125 16.6584 20.6858 16.6217C20.8592 16.585 21.0395 16.6007 21.2039 16.6669C21.3682 16.733 21.5092 16.8466 21.6089 16.9931C21.7087 17.1397 21.7626 17.3126 21.7638 17.4899C21.7639 17.7244 21.6725 17.9497 21.5091 18.1178C21.3457 18.2859 21.1232 18.3835 20.889 18.3899ZM20.889 17.0675C20.7759 17.069 20.6679 17.1147 20.588 17.1947C20.508 17.2748 20.4624 17.3829 20.4608 17.496C20.4624 17.6086 20.5082 17.7161 20.5884 17.7951C20.6685 17.8742 20.7765 17.9185 20.889 17.9185C21.001 17.9185 21.1083 17.874 21.1875 17.7947C21.2666 17.7155 21.3111 17.6081 21.3111 17.496C21.3111 17.3834 21.2669 17.2753 21.1879 17.1951C21.1089 17.1149 21.0015 17.0691 20.889 17.0675Z" fill="currentColor"/>
<path d="M14.9295 20.7408C14.2887 20.7396 13.6627 20.5485 13.1305 20.1914C12.5982 19.8344 12.1836 19.3276 11.939 18.7349C11.6944 18.1423 11.6307 17.4903 11.756 16.8615C11.8813 16.2326 12.1899 15.655 12.643 15.2016C13.0961 14.7482 13.6732 14.4392 14.3016 14.3138C14.9299 14.1884 15.5813 14.2522 16.1735 14.497C16.7657 14.7419 17.2722 15.1568 17.6289 15.6895C17.9856 16.2221 18.1766 16.8487 18.1778 17.4899C18.1778 17.9168 18.0938 18.3396 17.9306 18.734C17.7673 19.1284 17.5281 19.4868 17.2264 19.7887C16.9248 20.0905 16.5667 20.33 16.1726 20.4934C15.7785 20.6568 15.3561 20.7408 14.9295 20.7408ZM14.9295 14.7226C14.3814 14.7238 13.846 14.8877 13.3909 15.1934C12.9359 15.4992 12.5816 15.9331 12.373 16.4403C12.1644 16.9476 12.1107 17.5053 12.2189 18.0431C12.327 18.5808 12.592 19.0744 12.9804 19.4614C13.3688 19.8484 13.8632 20.1115 14.401 20.2173C14.9388 20.3231 15.4958 20.267 16.0017 20.056C16.5077 19.8449 16.9397 19.4885 17.2432 19.0317C17.5467 18.575 17.708 18.0384 17.7068 17.4899C17.706 17.1257 17.6335 16.7652 17.4935 16.429C17.3535 16.0928 17.1487 15.7876 16.8908 15.5306C16.6329 15.2736 16.327 15.07 15.9904 14.9314C15.6539 14.7927 15.2934 14.7218 14.9295 14.7226Z" fill="currentColor"/>
<path d="M15.7555 16.8777C15.787 16.8785 15.8184 16.8729 15.8478 16.8612C15.8771 16.8495 15.9037 16.832 15.926 16.8096C15.9484 16.7873 15.9659 16.7606 15.9776 16.7313C15.9893 16.7019 15.9949 16.6705 15.994 16.6389V16.2655C15.9908 16.1253 15.9325 15.992 15.8317 15.8946C15.7309 15.7971 15.5958 15.7434 15.4557 15.7451H15.1682V15.5185C15.1591 15.4625 15.1305 15.4116 15.0873 15.3748C15.0442 15.3381 14.9893 15.3179 14.9327 15.3179C14.876 15.3179 14.8212 15.3381 14.778 15.3748C14.7349 15.4116 14.7062 15.4625 14.6972 15.5185V15.7451H14.4219C14.3528 15.7442 14.2842 15.7571 14.2201 15.7828C14.1559 15.8085 14.0975 15.8466 14.0481 15.8949C13.9986 15.9433 13.9592 16.0008 13.932 16.0644C13.9048 16.128 13.8904 16.1963 13.8896 16.2655V17.1654C13.8904 17.2346 13.9048 17.3029 13.932 17.3665C13.9592 17.43 13.9986 17.4876 14.0481 17.536C14.0975 17.5843 14.1559 17.6224 14.2201 17.6481C14.2842 17.6738 14.3528 17.6866 14.4219 17.6858H15.4741C15.5108 17.6858 15.5414 17.6858 15.5414 17.7348V18.7144C15.5414 18.7144 15.5108 18.7634 15.4741 18.7634H14.4219C14.4146 18.7642 14.4073 18.7636 14.4003 18.7616C14.3933 18.7596 14.3867 18.7562 14.3811 18.7517C14.3754 18.7471 14.3706 18.7415 14.3671 18.7351C14.3636 18.7287 14.3615 18.7216 14.3607 18.7144V18.3532C14.3516 18.2972 14.323 18.2462 14.2798 18.2095C14.2367 18.1727 14.1818 18.1525 14.1252 18.1525C14.0685 18.1525 14.0137 18.1727 13.9705 18.2095C13.9274 18.2462 13.8987 18.2972 13.8896 18.3532V18.7144C13.8904 18.7835 13.9048 18.8518 13.932 18.9154C13.9592 18.979 13.9986 19.0366 14.0481 19.0849C14.0975 19.1332 14.1559 19.1713 14.2201 19.1971C14.2842 19.2228 14.3528 19.2356 14.4219 19.2348H14.7155V19.4552C14.71 19.4893 14.7119 19.5242 14.7212 19.5576C14.7305 19.5909 14.747 19.6217 14.7694 19.6481C14.7918 19.6744 14.8196 19.6955 14.851 19.7101C14.8823 19.7246 14.9165 19.7321 14.951 19.7321C14.9856 19.7321 15.0197 19.7246 15.0511 19.7101C15.0825 19.6955 15.1103 19.6744 15.1327 19.6481C15.1551 19.6217 15.1715 19.5909 15.1808 19.5576C15.1901 19.5242 15.1921 19.4893 15.1865 19.4552V19.2348H15.4741C15.6142 19.2364 15.7493 19.1827 15.8501 19.0853C15.9509 18.9879 16.0092 18.8546 16.0124 18.7144V17.7348C16.0092 17.5946 15.9509 17.4613 15.8501 17.3639C15.7493 17.2665 15.6142 17.2128 15.4741 17.2144H14.4219C14.4146 17.2153 14.4073 17.2147 14.4003 17.2127C14.3933 17.2107 14.3867 17.2073 14.3811 17.2027C14.3754 17.1982 14.3706 17.1925 14.3671 17.1861C14.3636 17.1797 14.3615 17.1727 14.3607 17.1654V16.2655C14.3636 16.2514 14.3712 16.2388 14.3824 16.2299C14.3936 16.2209 14.4076 16.2162 14.4219 16.2165H15.4741C15.5108 16.2165 15.5414 16.2165 15.5414 16.2655V16.6205C15.538 16.6516 15.5409 16.683 15.5499 16.7129C15.559 16.7428 15.5739 16.7706 15.5939 16.7946C15.6139 16.8186 15.6385 16.8383 15.6662 16.8526C15.694 16.8669 15.7243 16.8754 15.7555 16.8777Z" fill="currentColor"/>
<path d="M22.7419 7.59621C22.6069 7.45385 22.4418 7.34363 22.2586 7.27369C22.0755 7.20376 21.8789 7.17589 21.6835 7.19214H20.1297V6.10849L18.4902 7.42479L20.1297 8.73497V7.69417H21.6835C21.8096 7.68121 21.937 7.69525 22.0573 7.73536C22.1775 7.77547 22.2878 7.84074 22.3809 7.92682C22.4895 8.08406 22.5353 8.27624 22.5094 8.46558V10.1431C22.5086 10.1742 22.514 10.2051 22.5253 10.234C22.5366 10.2629 22.5536 10.2893 22.5753 10.3116C22.5969 10.3338 22.6229 10.3515 22.6515 10.3636C22.6801 10.3757 22.7108 10.3819 22.7419 10.3819C22.7737 10.3827 22.8054 10.3771 22.835 10.3655C22.8647 10.3538 22.8917 10.3364 22.9145 10.3141C22.9373 10.2919 22.9555 10.2653 22.9678 10.2359C22.9802 10.2065 22.9866 10.175 22.9866 10.1431V8.49007C23.0111 8.33224 23.0019 8.171 22.9597 8.01695C22.9176 7.8629 22.8433 7.71951 22.7419 7.59621Z" fill="currentColor"/>
<path d="M3.86372 17.643H2.30989C2.18381 17.656 2.05641 17.6419 1.93617 17.6018C1.81593 17.5617 1.7056 17.4964 1.6125 17.4103C1.50546 17.2548 1.4597 17.065 1.48404 16.8777V15.1818C1.48955 15.1477 1.48759 15.1128 1.47829 15.0795C1.46899 15.0461 1.45258 15.0153 1.43018 14.9889C1.40778 14.9626 1.37994 14.9415 1.34857 14.927C1.31721 14.9124 1.28307 14.9049 1.24851 14.9049C1.21396 14.9049 1.17982 14.9124 1.14846 14.927C1.11709 14.9415 1.08924 14.9626 1.06685 14.9889C1.04445 15.0153 1.02803 15.0461 1.01874 15.0795C1.00944 15.1128 1.00748 15.1477 1.01299 15.1818V16.8348C0.98946 16.9889 0.99796 17.1462 1.03796 17.2969C1.07796 17.4475 1.1486 17.5883 1.24546 17.7103C1.3819 17.8517 1.54852 17.9604 1.73284 18.0282C1.91717 18.0961 2.11443 18.1214 2.30989 18.1022H3.86372V19.1858L5.5032 17.8756L3.86372 16.5716V17.643Z" fill="currentColor"/>
<path d="M13.8546 12.5186H1.52182V6.58607H1.38724V4.4555H1.52182V2.44738H2.13357L1.57688 1.98209H1.28324C1.22159 1.98209 1.16246 2.0066 1.11887 2.05023C1.07527 2.09386 1.05078 2.15303 1.05078 2.21473V12.7574C1.05078 12.8191 1.07527 12.8782 1.11887 12.9219C1.16246 12.9655 1.22159 12.99 1.28324 12.99H14.4235L13.8546 12.5186Z" fill="currentColor"/>
<path d="M6.95377 6.58607L4.47009 4.45551H1.52148V6.58607H6.95377Z" fill="currentColor"/>
<path d="M1.52228 4.45551H1.3877V6.58607H1.52228V4.45551Z" fill="currentColor"/>
<path d="M22.6634 11.9798H17.0598V2.18411C17.0582 2.12185 17.0324 2.06268 16.9878 2.01922C16.9433 1.97575 16.8835 1.95144 16.8213 1.95146H3.03866L1.96811 1.0576C1.94492 1.03728 1.91792 1.02178 1.88868 1.012C1.85944 1.00222 1.82856 0.998357 1.79782 1.00064C1.76707 1.00291 1.73709 1.01129 1.70962 1.02527C1.68214 1.03926 1.65772 1.05857 1.63777 1.08209C1.59331 1.12683 1.56836 1.18736 1.56836 1.25045C1.56836 1.31355 1.59331 1.37408 1.63777 1.41882L16.1728 13.8961C16.2184 13.9314 16.2742 13.9508 16.3319 13.9512C16.3654 13.9511 16.3985 13.944 16.429 13.9303C16.4596 13.9166 16.4869 13.8966 16.5093 13.8716C16.5311 13.85 16.5484 13.8242 16.5602 13.7959C16.5721 13.7675 16.5782 13.7371 16.5782 13.7063C16.5782 13.6756 16.5721 13.6451 16.5602 13.6168C16.5484 13.5884 16.5311 13.5626 16.5093 13.541L15.8975 12.99H16.8702C16.9324 12.99 16.9922 12.9657 17.0368 12.9222C17.0813 12.8788 17.1072 12.8196 17.1088 12.7574V12.4574H22.4799V22.5286H7.36369V12.892C7.36921 12.8579 7.36725 12.823 7.35795 12.7897C7.34865 12.7564 7.33224 12.7255 7.30984 12.6992C7.28744 12.6728 7.2596 12.6517 7.22823 12.6372C7.19686 12.6227 7.16272 12.6152 7.12817 12.6152C7.09362 12.6152 7.05948 12.6227 7.02811 12.6372C6.99675 12.6517 6.9689 12.6728 6.9465 12.6992C6.92411 12.7255 6.90769 12.7564 6.89839 12.7897C6.88909 12.823 6.88713 12.8579 6.89265 12.892V22.7674C6.89265 22.8291 6.91714 22.8882 6.96074 22.9319C7.00433 22.9755 7.06346 23 7.12511 23H22.6634C22.7256 23 22.7854 22.9757 22.83 22.9322C22.8746 22.8888 22.9004 22.8296 22.902 22.7674V12.2247C22.902 12.1608 22.8771 12.0994 22.8325 12.0537C22.7879 12.0079 22.7272 11.9814 22.6634 11.9798ZM3.58923 2.44737H16.5888V4.45549H5.91386L3.58923 2.44737ZM16.5888 12.5186H15.298L8.39754 6.58606H16.5888V12.5186Z" fill="currentColor"/>
</svg>
