<svg width="24" height="24" viewBox="0 0 24 24" fill="none" xmlns="http://www.w3.org/2000/svg">
<path d="M19.3028 7.7199C20.0492 7.7199 20.6544 7.11476 20.6544 6.3683C20.6544 5.62183 20.0492 5.01669 19.3028 5.01669C18.5563 5.01669 17.9512 5.62183 17.9512 6.3683C17.9512 7.11476 18.5563 7.7199 19.3028 7.7199Z" fill="#C9C2EA"/>
<path d="M17.9512 11.4194C17.0162 11.4211 16.0981 11.1702 15.294 10.6933C14.4898 10.2164 13.8293 9.53108 13.3824 8.70983H12.0816C11.8967 8.70788 11.7196 8.63522 11.5866 8.50677L10.4381 7.35188H9.20704L8.05849 8.50677C7.92783 8.63482 7.75282 8.70755 7.56988 8.70983H6.21194C6.03661 8.71248 5.86671 8.64905 5.73602 8.53215L4.86033 7.66916L3.99734 8.53215C3.86579 8.66045 3.68931 8.73226 3.50556 8.73226C3.32181 8.73226 3.14533 8.66045 3.01378 8.53215L1.2053 6.72367C1.14026 6.65935 1.08862 6.58276 1.05338 6.49835C1.01815 6.41393 1 6.32337 1 6.23189C1 6.14042 1.01815 6.04985 1.05338 5.96544C1.08862 5.88102 1.14026 5.80444 1.2053 5.74011L3.01378 3.93163C3.14369 3.80244 3.31918 3.72951 3.50239 3.72857H13.3824C13.821 2.91871 14.4665 2.23961 15.2531 1.76047C16.0397 1.28133 16.9392 1.01928 17.8601 1.00102C18.7809 0.982765 19.6901 1.20895 20.4951 1.65653C21.3 2.10411 21.9719 2.75709 22.4423 3.54892C22.9127 4.34075 23.1648 5.24314 23.1728 6.16412C23.1809 7.0851 22.9447 7.99176 22.4882 8.7917C22.0317 9.59164 21.3713 10.2563 20.5743 10.7179C19.7773 11.1795 18.8722 11.4215 17.9512 11.4194ZM9.10551 6.88866H10.5396C10.5719 6.88851 10.6039 6.89522 10.6334 6.90834C10.663 6.92147 10.6894 6.94071 10.7109 6.9648L11.9356 8.18315C11.974 8.22268 12.0265 8.24548 12.0816 8.2466H13.5284C13.5741 8.24613 13.619 8.25834 13.6582 8.28186C13.6974 8.30538 13.7294 8.3393 13.7504 8.37986C14.2328 9.32564 15.0196 10.0815 15.9839 10.5257C16.9482 10.9699 18.034 11.0765 19.0663 10.8285C20.0986 10.5804 21.0174 9.99207 21.6746 9.15823C22.3318 8.32439 22.6892 7.29359 22.6892 6.23189C22.6892 5.17019 22.3318 4.13939 21.6746 3.30555C21.0174 2.47171 20.0986 1.88337 19.0663 1.63531C18.034 1.38724 16.9482 1.49389 15.9839 1.93809C15.0196 2.38227 14.2328 3.13814 13.7504 4.08392C13.7294 4.12448 13.6974 4.1584 13.6582 4.18193C13.619 4.20545 13.5741 4.21765 13.5284 4.21718H3.50239C3.44743 4.21896 3.39522 4.24166 3.35644 4.28064L1.5543 6.08277C1.53473 6.10171 1.51916 6.12438 1.50853 6.14946C1.4979 6.17453 1.49243 6.20149 1.49243 6.22872C1.49243 6.25595 1.4979 6.28291 1.50853 6.30798C1.51916 6.33305 1.53473 6.35573 1.5543 6.37467L3.35644 8.18315C3.37537 8.20272 3.39805 8.21829 3.42313 8.22892C3.4482 8.23955 3.47515 8.24503 3.50239 8.24503C3.52962 8.24503 3.55658 8.23955 3.58165 8.22892C3.60672 8.21829 3.6294 8.20272 3.64833 8.18315L4.68266 7.14882C4.73049 7.10557 4.79268 7.08162 4.85716 7.08162C4.92165 7.08162 4.98384 7.10557 5.03166 7.14882L6.06599 8.18315C6.10439 8.22268 6.15683 8.24548 6.21194 8.2466H7.56988C7.62444 8.24309 7.67605 8.22065 7.71583 8.18315L8.90879 6.97749C8.93172 6.94762 8.96168 6.92388 8.996 6.90838C9.03032 6.89288 9.06794 6.8861 9.10551 6.88866Z" fill="currentColor"/>
<path d="M19.3032 7.8278C18.9869 7.8278 18.6777 7.73401 18.4148 7.5583C18.1518 7.38259 17.9469 7.13285 17.8258 6.84066C17.7048 6.54847 17.6731 6.22694 17.7348 5.91675C17.7965 5.60656 17.9488 5.32163 18.1725 5.098C18.3961 4.87436 18.681 4.72207 18.9912 4.66037C19.3014 4.59866 19.6229 4.63033 19.9151 4.75136C20.2073 4.87239 20.4571 5.07735 20.6328 5.34032C20.8085 5.60328 20.9023 5.91245 20.9023 6.22872C20.9023 6.65282 20.7338 7.05955 20.4339 7.35944C20.134 7.65932 19.7273 7.8278 19.3032 7.8278ZM19.3032 5.12459C19.0833 5.1246 18.8683 5.18989 18.6856 5.31219C18.5028 5.43449 18.3605 5.6083 18.2766 5.81158C18.1928 6.01487 18.1712 6.23847 18.2145 6.45405C18.2579 6.66963 18.3643 6.86749 18.5202 7.02253C18.6762 7.17758 18.8746 7.28284 19.0905 7.32497C19.3063 7.36709 19.5298 7.3442 19.7326 7.25917C19.9354 7.17415 20.1083 7.03083 20.2296 6.84738C20.3509 6.66393 20.4149 6.44861 20.4137 6.22872C20.412 5.9353 20.2942 5.65448 20.0862 5.4476C19.8781 5.24071 19.5966 5.12459 19.3032 5.12459Z" fill="currentColor"/>
<path d="M23.1106 16.7687C23.0287 16.5219 22.858 16.3144 22.6317 16.1866C22.4053 16.0587 22.1395 16.0197 21.8859 16.077L16.0987 17.6824C15.954 17.7211 15.804 17.7361 15.6546 17.7268L11.4475 17.2763C11.219 17.2446 10.9525 17.1494 10.9525 16.8448C10.9584 16.7334 11.005 16.628 11.0833 16.5485C11.1616 16.469 11.2663 16.4209 11.3777 16.4133L15.6672 15.9564C15.969 15.9455 16.2555 15.8212 16.4696 15.6083C16.6837 15.3954 16.8096 15.1095 16.8221 14.8079C16.825 14.6533 16.7959 14.4998 16.7367 14.357C16.6775 14.2141 16.5895 14.0851 16.4781 13.9778C16.3667 13.8706 16.2344 13.7876 16.0894 13.7338C15.9444 13.6801 15.7899 13.6569 15.6355 13.6657H10.4258C9.53219 13.6938 8.65971 13.9446 7.88761 14.3954L4.78463 15.9818L4.71483 15.7851C4.67576 15.6704 4.61412 15.5647 4.53354 15.4742C4.45297 15.3837 4.35508 15.3103 4.24567 15.2583C4.13625 15.2062 4.01752 15.1766 3.89648 15.1712C3.77544 15.1658 3.65453 15.1846 3.54091 15.2267L1.72608 15.9184C1.6144 15.96 1.51203 16.0232 1.4248 16.1045C1.33757 16.1857 1.26719 16.2833 1.21769 16.3917C1.16819 16.5001 1.14054 16.6173 1.13631 16.7364C1.13209 16.8555 1.15137 16.9743 1.19305 17.0859L3.16017 22.4035C3.22382 22.578 3.33948 22.7288 3.49154 22.8354C3.6436 22.9421 3.82473 22.9995 4.01048 23C4.11669 22.9996 4.22198 22.9802 4.32141 22.9429L6.13623 22.3083C6.24791 22.2667 6.35029 22.2034 6.43752 22.1222C6.52475 22.041 6.59512 21.9434 6.64462 21.835C6.69412 21.7265 6.72177 21.6094 6.726 21.4903C6.73023 21.3712 6.71095 21.2524 6.66926 21.1407L6.43448 20.5062H15.3182C16.321 20.5079 17.3138 20.3072 18.2372 19.916L22.5649 18.0758C22.804 17.9671 22.9932 17.7719 23.0944 17.5294C23.1957 17.287 23.2014 17.0152 23.1106 16.7687ZM5.9776 21.8451L4.15642 22.486C4.10477 22.5053 4.04981 22.5142 3.99471 22.5122C3.93961 22.5101 3.88545 22.4973 3.83534 22.4743C3.78523 22.4513 3.74015 22.4186 3.70269 22.3782C3.66523 22.3377 3.63613 22.2903 3.61705 22.2385L1.64993 16.9146C1.63133 16.8609 1.62385 16.804 1.62794 16.7473C1.63203 16.6907 1.64761 16.6354 1.67373 16.585C1.69985 16.5345 1.73596 16.4899 1.77987 16.4538C1.82378 16.4178 1.87456 16.391 1.92914 16.3752L3.73762 15.7407C3.78927 15.7214 3.84423 15.7125 3.89933 15.7145C3.95443 15.7165 4.00859 15.7294 4.0587 15.7524C4.10881 15.7754 4.15389 15.8081 4.19135 15.8485C4.22881 15.889 4.25791 15.9364 4.27699 15.9882L5.85703 20.3031L6.20604 21.255C6.22847 21.3073 6.24 21.3636 6.23993 21.4205C6.23986 21.4775 6.22818 21.5338 6.20562 21.586C6.18305 21.6383 6.15006 21.6854 6.10868 21.7245C6.06729 21.7636 6.01837 21.7938 5.9649 21.8134L5.9776 21.8451ZM22.3618 17.5936L18.0341 19.4274C17.174 19.7963 16.2478 19.9863 15.3119 19.9859H6.2568L4.94962 16.445L8.12239 14.8269C8.82518 14.4097 9.62171 14.1762 10.4385 14.1479H15.6672C15.7558 14.139 15.8451 14.1489 15.9296 14.1767C16.0141 14.2046 16.0917 14.25 16.1576 14.3098C16.2234 14.3696 16.2759 14.4426 16.3117 14.5241C16.3474 14.6055 16.3657 14.6935 16.3653 14.7825C16.3653 15.1379 16.0924 15.379 15.6355 15.4171L11.3523 15.8803C11.1231 15.9032 10.91 16.0084 10.7525 16.1764C10.595 16.3444 10.5037 16.5639 10.4956 16.794C10.4905 16.9181 10.5103 17.042 10.5537 17.1583C10.5971 17.2747 10.6633 17.3812 10.7484 17.4716C10.8335 17.562 10.9358 17.6345 11.0493 17.6849C11.1628 17.7353 11.2852 17.7625 11.4094 17.7649L15.6165 18.2218C15.8301 18.2365 16.0446 18.215 16.251 18.1583L22.0255 16.5593C22.1578 16.535 22.2943 16.5588 22.4107 16.6262C22.527 16.6937 22.6154 16.8004 22.66 16.9273C22.6999 17.0556 22.6917 17.1941 22.6368 17.3168C22.5819 17.4394 22.4841 17.5379 22.3618 17.5936Z" fill="currentColor"/>
</svg>
