<svg width="24" height="24" viewBox="0 0 24 24" fill="none" xmlns="http://www.w3.org/2000/svg">
<path d="M16.2299 13.7942H13.7686V16.2555H16.2299V13.7942Z" fill="#C9C2EA"/>
<path d="M22.7113 13.7942H20.25V16.2555H22.7113V13.7942Z" fill="#C9C2EA"/>
<path d="M19.4887 17.0353H17.0273V19.4966H19.4887V17.0353Z" fill="#C9C2EA"/>
<path d="M16.2299 20.2704H13.7686V22.7317H16.2299V20.2704Z" fill="#C9C2EA"/>
<path d="M22.7113 20.2704H20.25V22.7317H22.7113V20.2704Z" fill="#C9C2EA"/>
<path fill-rule="evenodd" clip-rule="evenodd" d="M1 1H10.4741V10.4741H1V1ZM1.53656 1.53656V9.93751H9.93749V1.53656H1.53656Z" fill="currentColor"/>
<path fill-rule="evenodd" clip-rule="evenodd" d="M3.06445 3.06531H8.41398V8.41485H3.06445V3.06531ZM3.60102 3.60187V7.87828H7.87742V3.60187H3.60102Z" fill="currentColor"/>
<path fill-rule="evenodd" clip-rule="evenodd" d="M1 13.5259H10.4741V23H1V13.5259ZM1.53656 14.0625V22.4635H9.93749V14.0625H1.53656Z" fill="currentColor"/>
<path fill-rule="evenodd" clip-rule="evenodd" d="M3.06445 15.5912H8.41398V20.9408H3.06445V15.5912ZM3.60102 16.1278V20.4042H7.87742V16.1278H3.60102Z" fill="currentColor"/>
<path fill-rule="evenodd" clip-rule="evenodd" d="M13.5254 1H22.9994V10.4741H13.5254V1ZM14.062 1.53656V9.93751H22.4629V1.53656H14.062Z" fill="currentColor"/>
<path fill-rule="evenodd" clip-rule="evenodd" d="M15.584 3.06531H20.9335V8.41485H15.584V3.06531ZM16.1205 3.60187V7.87828H20.397V3.60187H16.1205Z" fill="currentColor"/>
<path fill-rule="evenodd" clip-rule="evenodd" d="M13.5 13.5259H16.4979V16.5238H13.5V13.5259ZM14.0366 14.0624V15.9872H15.9613V14.0624H14.0366Z" fill="currentColor"/>
<path fill-rule="evenodd" clip-rule="evenodd" d="M19.9834 13.5259H22.9813V16.5238H19.9834V13.5259ZM20.52 14.0624V15.9872H22.4447V14.0624H20.52Z" fill="currentColor"/>
<path fill-rule="evenodd" clip-rule="evenodd" d="M16.7598 16.767H19.7576V19.7649H16.7598V16.767ZM17.2963 17.3036V19.2283H19.2211V17.3036H17.2963Z" fill="currentColor"/>
<path fill-rule="evenodd" clip-rule="evenodd" d="M13.5 20.0021H16.4979V23H13.5V20.0021ZM14.0366 20.5386V22.4634H15.9613V20.5386H14.0366Z" fill="currentColor"/>
<path fill-rule="evenodd" clip-rule="evenodd" d="M19.9834 20.0021H22.9813V23H19.9834V20.0021ZM20.52 20.5386V22.4634H22.4447V20.5386H20.52Z" fill="currentColor"/>
</svg>
