<svg width="24" height="24" viewBox="0 0 24 24" fill="none" xmlns="http://www.w3.org/2000/svg">
<path d="M11.9883 21.4374C14.5535 21.4374 16.6329 19.358 16.6329 16.7928C16.6329 14.2277 14.5535 12.1483 11.9883 12.1483C9.4232 12.1483 7.34375 14.2277 7.34375 16.7928C7.34375 19.358 9.4232 21.4374 11.9883 21.4374Z" fill="#C9C2EA"/>
<path d="M22.6541 10.3447H17.8119C17.7497 10.3447 17.69 10.3695 17.646 10.4135C17.6019 10.4575 17.5772 10.5172 17.5772 10.5794C17.5772 10.6423 17.6017 10.7026 17.6456 10.7476C17.6894 10.7926 17.7491 10.8187 17.8119 10.8203H22.4009V22.5553H1.47558V10.8203H6.29927C6.36208 10.8187 6.42177 10.7926 6.46562 10.7476C6.50946 10.7026 6.53399 10.6423 6.53397 10.5794C6.53397 10.5486 6.5279 10.5181 6.51611 10.4896C6.50431 10.4611 6.48702 10.4353 6.46523 10.4135C6.44344 10.3917 6.41756 10.3744 6.38909 10.3626C6.36061 10.3508 6.33009 10.3447 6.29927 10.3447H1.2347C1.20388 10.3447 1.17336 10.3508 1.14488 10.3626C1.11641 10.3744 1.09054 10.3917 1.06874 10.4135C1.04695 10.4353 1.02966 10.4611 1.01787 10.4896C1.00607 10.5181 1 10.5486 1 10.5794V22.7591C0.999979 22.8219 1.02451 22.8823 1.06835 22.9273C1.1122 22.9723 1.17189 22.9984 1.2347 23H22.6541C22.7169 22.9984 22.7766 22.9723 22.8205 22.9273C22.8643 22.8823 22.8889 22.8219 22.8888 22.7591V10.5794C22.8888 10.5172 22.8641 10.4575 22.8201 10.4135C22.7761 10.3695 22.7164 10.3447 22.6541 10.3447Z" fill="currentColor"/>
<path d="M3.15041 16.552C3.14919 16.7672 3.2119 16.978 3.3306 17.1575C3.44929 17.3371 3.61863 17.4774 3.81715 17.5606C4.01567 17.6439 4.23443 17.6663 4.4457 17.625C4.65696 17.5838 4.85123 17.4807 5.00387 17.329C5.15652 17.1772 5.26066 16.9835 5.30311 16.7725C5.34555 16.5615 5.32439 16.3426 5.2423 16.1436C5.16021 15.9446 5.02089 15.7745 4.842 15.6547C4.6631 15.535 4.45269 15.4711 4.23744 15.4711C3.95021 15.4711 3.67465 15.5848 3.47097 15.7873C3.26729 15.9898 3.15204 16.2647 3.15041 16.552ZM4.84889 16.552C4.84889 16.6741 4.81267 16.7935 4.7448 16.8951C4.67694 16.9967 4.58048 17.0758 4.46762 17.1226C4.35476 17.1693 4.23058 17.1815 4.11077 17.1577C3.99096 17.1339 3.88091 17.0751 3.79453 16.9887C3.70815 16.9023 3.64933 16.7923 3.6255 16.6724C3.60167 16.5526 3.6139 16.4285 3.66065 16.3156C3.70739 16.2027 3.78656 16.1063 3.88812 16.0384C3.98969 15.9705 4.10911 15.9343 4.23126 15.9343C4.39507 15.9343 4.55216 15.9994 4.66799 16.1152C4.78382 16.2311 4.84889 16.3881 4.84889 16.552Z" fill="currentColor"/>
<path d="M20.7336 16.3543C20.7336 16.1393 20.6699 15.9291 20.5504 15.7504C20.431 15.5716 20.2612 15.4323 20.0626 15.35C19.864 15.2677 19.6454 15.2462 19.4345 15.2882C19.2237 15.3301 19.03 15.4336 18.878 15.5857C18.7259 15.7377 18.6224 15.9314 18.5805 16.1422C18.5385 16.3531 18.56 16.5717 18.6423 16.7703C18.7246 16.9689 18.8639 17.1387 19.0427 17.2581C19.2214 17.3776 19.4316 17.4413 19.6466 17.4413C19.9349 17.4413 20.2114 17.3268 20.4152 17.1229C20.6191 16.9191 20.7336 16.6426 20.7336 16.3543ZM19.0351 16.3543C19.0351 16.1905 19.1002 16.0334 19.216 15.9176C19.3319 15.8017 19.489 15.7367 19.6528 15.7367C19.8166 15.7367 19.9737 15.8017 20.0895 15.9176C20.2053 16.0334 20.2704 16.1905 20.2704 16.3543C20.2704 16.5181 20.2053 16.6752 20.0895 16.791C19.9737 16.9069 19.8166 16.9719 19.6528 16.9719C19.489 16.9719 19.3319 16.9069 19.216 16.791C19.1002 16.6752 19.0351 16.5181 19.0351 16.3543Z" fill="currentColor"/>
<path d="M11.7542 13.7479V14.2173H11.1798C11.089 14.2157 10.9987 14.2319 10.9142 14.2652C10.8296 14.2985 10.7524 14.348 10.6871 14.4111C10.6217 14.4742 10.5694 14.5496 10.5331 14.6329C10.4968 14.7162 10.4774 14.8058 10.4757 14.8967V16.2802C10.4774 16.371 10.4968 16.4607 10.5331 16.544C10.5694 16.6273 10.6217 16.7026 10.6871 16.7657C10.7524 16.8288 10.8296 16.8784 10.9142 16.9117C10.9987 16.9449 11.089 16.9612 11.1798 16.9596H12.798C12.8261 16.957 12.8544 16.9602 12.8813 16.9688C12.9081 16.9775 12.9329 16.9914 12.9542 17.0099C12.9756 17.0283 12.993 17.0509 13.0054 17.0762C13.0178 17.1015 13.025 17.1291 13.0266 17.1572V18.6889C13.025 18.7173 13.0178 18.7452 13.0055 18.7708C12.9931 18.7964 12.9758 18.8194 12.9546 18.8383C12.9334 18.8572 12.9086 18.8718 12.8818 18.8811C12.8549 18.8905 12.8264 18.8944 12.798 18.8928H11.1798C11.1514 18.8944 11.123 18.8905 11.0961 18.8811C11.0693 18.8718 11.0445 18.8572 11.0233 18.8383C11.002 18.8194 10.9848 18.7964 10.9724 18.7708C10.9601 18.7452 10.9529 18.7173 10.9513 18.6889V18.1392C10.9569 18.1048 10.9549 18.0696 10.9455 18.036C10.9361 18.0024 10.9196 17.9712 10.8969 17.9447C10.8743 17.9181 10.8462 17.8968 10.8146 17.8821C10.7829 17.8675 10.7484 17.8599 10.7135 17.8599C10.6786 17.8599 10.6442 17.8675 10.6125 17.8821C10.5808 17.8968 10.5527 17.9181 10.5301 17.9447C10.5075 17.9712 10.4909 18.0024 10.4815 18.036C10.4722 18.0696 10.4702 18.1048 10.4757 18.1392V18.6889C10.4774 18.7798 10.4968 18.8694 10.5331 18.9527C10.5694 19.036 10.6217 19.1114 10.6871 19.1745C10.7524 19.2376 10.8296 19.2872 10.9142 19.3204C10.9987 19.3537 11.089 19.37 11.1798 19.3683H11.7542V19.8377C11.7542 19.9 11.779 19.9597 11.823 20.0037C11.867 20.0477 11.9267 20.0724 11.9889 20.0724C12.0518 20.0725 12.1121 20.0479 12.1571 20.0041C12.2021 19.9602 12.2282 19.9005 12.2298 19.8377V19.3683H12.798C12.8889 19.37 12.9792 19.3537 13.0637 19.3204C13.1483 19.2872 13.2254 19.2376 13.2908 19.1745C13.3562 19.1114 13.4085 19.036 13.4448 18.9527C13.481 18.8694 13.5005 18.7798 13.5021 18.6889V17.1572C13.4973 16.9748 13.4206 16.8017 13.2887 16.6757C13.1568 16.5496 12.9805 16.4807 12.798 16.484H11.1798C11.1514 16.4857 11.123 16.4817 11.0961 16.4724C11.0693 16.463 11.0445 16.4485 11.0233 16.4295C11.002 16.4106 10.9848 16.3877 10.9724 16.362C10.9601 16.3364 10.9529 16.3086 10.9513 16.2802V14.8967C10.9529 14.8683 10.9601 14.8405 10.9724 14.8148C10.9848 14.7892 11.002 14.7663 11.0233 14.7473C11.0445 14.7284 11.0693 14.7138 11.0961 14.7045C11.123 14.6952 11.1514 14.6912 11.1798 14.6929H12.798C12.8264 14.6912 12.8549 14.6952 12.8818 14.7045C12.9086 14.7138 12.9334 14.7284 12.9546 14.7473C12.9758 14.7663 12.9931 14.7892 13.0055 14.8148C13.0178 14.8405 13.025 14.8683 13.0266 14.8967V15.4464C13.0357 15.5029 13.0646 15.5543 13.1082 15.5913C13.1518 15.6284 13.2071 15.6488 13.2643 15.6488C13.3216 15.6488 13.3769 15.6284 13.4205 15.5913C13.4641 15.5543 13.493 15.5029 13.5021 15.4464V14.8967C13.5005 14.8058 13.481 14.7162 13.4448 14.6329C13.4085 14.5496 13.3562 14.4742 13.2908 14.4111C13.2254 14.348 13.1483 14.2985 13.0637 14.2652C12.9792 14.2319 12.8889 14.2157 12.798 14.2173H12.2298V13.7479C12.2298 13.7163 12.2236 13.6849 12.2115 13.6557C12.1994 13.6265 12.1816 13.5999 12.1593 13.5776C12.1369 13.5552 12.1103 13.5375 12.0811 13.5254C12.0519 13.5132 12.0206 13.507 11.9889 13.507C11.9576 13.507 11.9266 13.5133 11.8977 13.5255C11.8688 13.5376 11.8426 13.5555 11.8208 13.5779C11.7989 13.6004 11.7817 13.627 11.7703 13.6562C11.7589 13.6854 11.7534 13.7166 11.7542 13.7479Z" fill="currentColor"/>
<path d="M7.36816 16.7928C7.36824 17.5933 7.57631 18.3801 7.97199 19.0759C8.36767 19.7718 8.93736 20.3529 9.62525 20.7623C10.3131 21.1717 11.0956 21.3954 11.8959 21.4113C12.6963 21.4273 13.487 21.235 14.1907 20.8534C14.8943 20.4717 15.4867 19.9138 15.9099 19.2342C16.333 18.5547 16.5722 17.7769 16.6042 16.977C16.6362 16.1772 16.4598 15.3827 16.0923 14.6715C15.7249 13.9604 15.1789 13.3569 14.508 12.9203V5.92252H15.8235C15.8687 5.9224 15.9129 5.9096 15.9511 5.88558C15.9893 5.86155 16.02 5.82727 16.0397 5.78664C16.0587 5.74537 16.0653 5.69948 16.0587 5.65453C16.0521 5.60958 16.0327 5.5675 16.0026 5.53341L12.2042 1.08647C12.1816 1.05935 12.1532 1.03754 12.1212 1.0226C12.0892 1.00765 12.0543 0.99994 12.0189 1C11.9852 1.00079 11.952 1.0083 11.9213 1.02209C11.8905 1.03587 11.8628 1.05566 11.8398 1.08029L7.97344 5.52106C7.94356 5.55647 7.92424 5.59957 7.91769 5.64544C7.91113 5.69131 7.91761 5.7381 7.93638 5.78046C7.95606 5.82109 7.98676 5.85538 8.02499 5.8794C8.06321 5.90343 8.10741 5.91622 8.15256 5.91634H9.46811V12.9203C8.82333 13.3399 8.29355 13.9139 7.92684 14.5901C7.56012 15.2664 7.36809 16.0235 7.36816 16.7928ZM16.1385 16.7928C16.1385 17.6137 15.8951 18.4162 15.439 19.0987C14.983 19.7812 14.3348 20.3132 13.5764 20.6274C12.818 20.9415 11.9834 21.0237 11.1783 20.8635C10.3732 20.7034 9.63367 20.3081 9.05321 19.7276C8.47276 19.1472 8.07746 18.4076 7.91731 17.6025C7.75717 16.7974 7.83936 15.9629 8.1535 15.2045C8.46764 14.4461 8.99962 13.7979 9.68216 13.3418C10.3647 12.8858 11.1672 12.6423 11.988 12.6423C13.0883 12.644 14.1431 13.0818 14.9211 13.8598C15.6991 14.6378 16.1369 15.6925 16.1385 16.7928ZM9.86957 5.5087C9.82485 5.46535 9.76509 5.441 9.70281 5.44077H8.67754L12.0189 1.5991L15.3047 5.42841H14.2733C14.2104 5.42839 14.1501 5.45292 14.1051 5.49677C14.0601 5.54061 14.034 5.6003 14.0324 5.66311V12.6547C13.3987 12.3339 12.6983 12.1668 11.988 12.1668C11.2778 12.1668 10.5774 12.3339 9.94368 12.6547V5.67547C9.94383 5.64401 9.9373 5.61288 9.92452 5.58413C9.91175 5.55538 9.89302 5.52968 9.86957 5.5087Z" fill="currentColor"/>
</svg>
