<svg width="24" height="24" viewBox="0 0 24 24" fill="none" xmlns="http://www.w3.org/2000/svg">
<path d="M14.2409 10.2188L9.22146 6.32645H7.09668L10.2253 10.2188H14.2409Z" fill="#C9C2EA"/>
<path d="M18.2815 9.88621H14.3769L9.44985 6.04929C9.407 6.0177 9.35527 6.00046 9.30204 6.00002H7.16494C7.11976 5.99939 7.07537 6.01185 7.03712 6.03589C6.99887 6.05993 6.9684 6.09454 6.94938 6.13552C6.92722 6.1739 6.91555 6.21745 6.91555 6.26177C6.91555 6.3061 6.92722 6.34964 6.94938 6.38803L9.78858 9.88621H7.07256L3.17405 6.46193C3.13167 6.42377 3.07709 6.40194 3.02008 6.40034H1.24019C1.19924 6.40097 1.15912 6.41206 1.12366 6.43256C1.08819 6.45306 1.05856 6.48228 1.03758 6.51746C1.01659 6.55264 1.00495 6.5926 1.00377 6.63355C1.00258 6.67449 1.01188 6.71506 1.03079 6.75139L2.76141 9.88621H1.24019C1.17754 9.88619 1.11736 9.91065 1.07249 9.95437C1.02762 9.99809 1.00161 10.0576 1 10.1202V11.9186C1.0005 11.9667 1.01544 12.0136 1.04289 12.0531C1.07035 12.0927 1.10905 12.1231 1.15397 12.1403C1.35105 12.2142 5.97629 13.988 7.3805 13.988H10.3429L6.96786 18.373C6.94024 18.4083 6.92277 18.4505 6.91735 18.495C6.91192 18.5395 6.91874 18.5846 6.93706 18.6255C6.95754 18.6649 6.98852 18.6978 7.02657 18.7206C7.06462 18.7435 7.10825 18.7553 7.15262 18.7549H9.27124C9.32447 18.7544 9.37621 18.7372 9.41905 18.7056L15.4978 13.9941H20.8374C21.712 13.9941 22.9992 13.5014 22.9992 12.4483C22.9992 11.3951 20.665 9.88621 18.2815 9.88621ZM7.68844 6.49273H9.23429L13.607 9.88621H10.3983L7.68844 6.49273ZM20.8374 13.5199H15.4115C15.3604 13.5212 15.3108 13.5384 15.2699 13.5692L9.19118 18.2806H7.63301L11.0142 13.8956C11.0482 13.8538 11.0668 13.8016 11.0668 13.7478C11.0668 13.6939 11.0482 13.6417 11.0142 13.6C10.992 13.5712 10.9628 13.5487 10.9293 13.5347C10.8958 13.5206 10.8593 13.5155 10.8233 13.5199H7.3805C6.19801 13.5199 2.2995 12.0664 1.47423 11.7338V10.3789H3.13094C3.17237 10.3804 3.21337 10.3702 3.2493 10.3495C3.28522 10.3288 3.31463 10.2985 3.33418 10.2619C3.35534 10.2265 3.36652 10.1861 3.36652 10.1449C3.36652 10.1037 3.35534 10.0632 3.33418 10.0279L1.64051 6.87457H2.9277L6.82005 10.3173C6.86432 10.3564 6.92114 10.3782 6.98018 10.3789H18.2815C20.3878 10.3789 22.5249 11.7092 22.5249 12.4483C22.5249 13.1873 21.5272 13.5199 20.8374 13.5199Z" fill="currentColor"/>
</svg>
