<svg width="24" height="24" viewBox="0 0 24 24" fill="none" xmlns="http://www.w3.org/2000/svg">
<path d="M17.7343 11.6963C20.5949 11.6963 22.9138 9.37731 22.9138 6.51671C22.9138 3.6561 20.5949 1.33713 17.7343 1.33713C14.8737 1.33713 12.5547 3.6561 12.5547 6.51671C12.5547 9.37731 14.8737 11.6963 17.7343 11.6963Z" fill="#C9C2EA"/>
<path d="M18.5248 13.192C18.5266 14.1086 18.3796 15.0195 18.0896 15.889H13.8417C13.9569 14.9987 14.0143 14.1019 14.0133 13.2042C14.0133 12.7567 14.0133 12.3093 13.9704 11.8802C13.7926 11.7637 13.621 11.635 13.4616 11.5063C13.5107 12.058 13.5413 12.6219 13.5413 13.2042C13.5342 14.1031 13.4625 15.0004 13.3268 15.889H6.67608C6.42274 14.1081 6.42274 12.3003 6.67608 10.5194H12.4441C12.3215 10.3662 12.2051 10.2129 12.0947 10.0474H6.74351C7.27679 6.93968 8.55177 4.67783 9.99837 4.67783C10.3963 4.69066 10.7767 4.84497 11.0711 5.11303C11.1247 4.84209 11.1923 4.57408 11.2733 4.31005C10.8515 4.24417 10.4253 4.20935 9.99837 4.20584C7.61185 4.20584 5.32308 5.15388 3.63556 6.8414C1.94804 8.52892 1 10.8177 1 13.2042C1 15.5907 1.94804 17.8795 3.63556 19.567C5.32308 21.2545 7.61185 22.2026 9.99837 22.2026C11.1809 22.2018 12.3516 21.9681 13.4438 21.5148C14.5359 21.0615 15.5281 20.3976 16.3637 19.5609C17.1993 18.7242 17.8619 17.7311 18.3137 16.6383C18.7654 15.5455 18.9975 14.3744 18.9967 13.192C18.9967 13.0632 18.9967 12.9406 18.9967 12.8119C18.8435 12.8426 18.6903 12.8671 18.5309 12.8855C18.5186 12.9897 18.5248 13.0939 18.5248 13.192ZM8.54564 4.80042C7.47907 5.71987 6.65157 7.62007 6.25927 10.0352H2.09108C2.63208 8.68514 3.50895 7.49568 4.63854 6.57956C5.76813 5.66344 7.113 5.05104 8.54564 4.80042ZM1.47812 13.192C1.47961 12.2791 1.62864 11.3725 1.91945 10.5072H6.21023C5.9814 12.2897 5.9814 14.0942 6.21023 15.8768H1.91945C1.62864 15.0114 1.47961 14.1048 1.47812 13.192ZM2.09108 16.3487H6.25927C6.65157 18.77 7.4852 20.6395 8.54564 21.5835C7.11258 21.334 5.76719 20.722 4.63742 19.8057C3.50765 18.8895 2.63108 17.6994 2.09108 16.3487ZM10.0045 21.7183C8.5579 21.7183 7.28292 19.4626 6.74964 16.3487H13.2594C12.7261 19.4626 11.4511 21.7183 10.0045 21.7183ZM11.4572 21.5835C12.5238 20.6702 13.3513 18.77 13.7436 16.3487H17.9118C17.3718 17.6994 16.4952 18.8895 15.3655 19.8057C14.2357 20.722 12.8903 21.334 11.4572 21.5835Z" fill="currentColor"/>
<path d="M17.5879 11.8373C16.5159 11.8385 15.4677 11.5217 14.5758 10.9271C13.6839 10.3324 12.9884 9.48653 12.5773 8.49651C12.1663 7.50649 12.0581 6.41679 12.2665 5.36528C12.4748 4.31376 12.9904 3.34768 13.748 2.58925C14.5056 1.83083 15.4711 1.31415 16.5223 1.10457C17.5736 0.894993 18.6634 1.00194 19.6539 1.41188C20.6444 1.82183 21.4911 2.51634 22.0867 3.40757C22.6824 4.29879 23.0004 5.34667 23.0004 6.41864C22.9971 7.85369 22.426 9.22914 21.4119 10.2445C20.3977 11.2598 19.0229 11.8324 17.5879 11.8373ZM17.5879 1.47811C16.609 1.4769 15.6518 1.76614 14.8373 2.30922C14.0229 2.8523 13.388 3.6248 13.0128 4.52893C12.6376 5.43306 12.5392 6.42818 12.7298 7.3883C12.9205 8.34843 13.3917 9.2304 14.0839 9.92257C14.7761 10.6147 15.6581 11.086 16.6182 11.2767C17.5783 11.4673 18.5734 11.3689 19.4776 10.9937C20.3817 10.6185 21.1542 9.98357 21.6973 9.16915C22.2404 8.35474 22.5296 7.39751 22.5284 6.41864C22.5251 5.10932 22.0036 3.85456 21.0778 2.92874C20.1519 2.00291 18.8972 1.48135 17.5879 1.47811Z" fill="currentColor"/>
<path d="M18.8191 5.35821C18.8815 5.35661 18.9407 5.33072 18.9842 5.28606C19.0277 5.2414 19.0521 5.18151 19.0521 5.11915V4.592C19.0513 4.50345 19.033 4.41593 18.9984 4.33443C18.9638 4.25293 18.9134 4.17905 18.8502 4.11701C18.7871 4.05497 18.7123 4.00598 18.6302 3.97284C18.548 3.9397 18.4602 3.92306 18.3717 3.92386H17.82V3.4764C17.82 3.41462 17.7955 3.35537 17.7518 3.31169C17.7081 3.26801 17.6488 3.24347 17.5871 3.24347C17.5247 3.24345 17.4648 3.26779 17.4202 3.31131C17.3755 3.35482 17.3496 3.41406 17.348 3.4764V3.92386H16.8025C16.7139 3.92306 16.6261 3.9397 16.544 3.97284C16.4618 4.00598 16.3871 4.05497 16.3239 4.11701C16.2607 4.17905 16.2104 4.25293 16.1757 4.33443C16.1411 4.41593 16.1229 4.50345 16.1221 4.592V5.92827C16.1237 6.01601 16.1425 6.10259 16.1776 6.18304C16.2126 6.26349 16.2632 6.33625 16.3264 6.39716C16.3896 6.45806 16.4641 6.50592 16.5458 6.53801C16.6275 6.57009 16.7147 6.58577 16.8025 6.58414H18.3717C18.4243 6.58245 18.4755 6.60136 18.5144 6.63684C18.5534 6.67233 18.5769 6.72159 18.5801 6.77417V8.25142C18.5769 8.30399 18.5534 8.35325 18.5144 8.38874C18.4755 8.42422 18.4243 8.44313 18.3717 8.44144H16.8025C16.7759 8.4431 16.7493 8.43949 16.7241 8.43083C16.6989 8.42218 16.6757 8.40863 16.6557 8.39098C16.6358 8.37332 16.6196 8.35191 16.6079 8.32796C16.5963 8.30401 16.5895 8.278 16.5879 8.25142V7.71814C16.5879 7.65636 16.5634 7.59711 16.5197 7.55343C16.476 7.50975 16.4168 7.48521 16.355 7.48521C16.2932 7.48521 16.234 7.50975 16.1903 7.55343C16.1466 7.59711 16.1221 7.65636 16.1221 7.71814V8.25142C16.1229 8.33968 16.1411 8.42692 16.1758 8.50808C16.2105 8.58924 16.261 8.66272 16.3243 8.72427C16.3875 8.78583 16.4623 8.83423 16.5444 8.8667C16.6265 8.89917 16.7142 8.91505 16.8025 8.91342H17.348V9.36089C17.3496 9.42322 17.3755 9.48247 17.4202 9.52598C17.4648 9.5695 17.5247 9.59384 17.5871 9.59382C17.6488 9.59382 17.7081 9.56928 17.7518 9.5256C17.7955 9.48191 17.82 9.42267 17.82 9.36089V8.91342H18.3717C18.4599 8.91505 18.5476 8.89917 18.6297 8.8667C18.7118 8.83423 18.7866 8.78583 18.8499 8.72427C18.9131 8.66272 18.9636 8.58924 18.9983 8.50808C19.033 8.42692 19.0513 8.33968 19.0521 8.25142V6.77417C19.0505 6.68642 19.0316 6.59985 18.9965 6.5194C18.9615 6.43894 18.9109 6.36619 18.8477 6.30528C18.7845 6.24437 18.71 6.19651 18.6283 6.16443C18.5466 6.13234 18.4594 6.11666 18.3717 6.11829H16.8025C16.7759 6.11995 16.7493 6.11635 16.7241 6.10769C16.6989 6.09903 16.6757 6.08548 16.6557 6.06783C16.6358 6.05017 16.6196 6.02876 16.6079 6.00481C16.5963 5.98086 16.5895 5.95485 16.5879 5.92827V4.592C16.5911 4.5378 16.6153 4.48698 16.6554 4.45035C16.6954 4.41371 16.7482 4.39416 16.8025 4.39585H18.3717C18.3982 4.39503 18.4247 4.39946 18.4496 4.40888C18.4744 4.41829 18.4972 4.43252 18.5165 4.45073C18.5359 4.46895 18.5514 4.4908 18.5624 4.51504C18.5733 4.53928 18.5793 4.56543 18.5801 4.592V5.11915C18.5801 5.18255 18.6053 5.24336 18.6501 5.28819C18.6949 5.33302 18.7557 5.35821 18.8191 5.35821Z" fill="currentColor"/>
</svg>
