<svg width="24" height="24" viewBox="0 0 24 24" fill="none" xmlns="http://www.w3.org/2000/svg">
<path d="M11.9983 20.6663C16.7846 20.6663 20.6646 16.7863 20.6646 12C20.6646 7.21374 16.7846 3.33371 11.9983 3.33371C7.21206 3.33371 3.33203 7.21374 3.33203 12C3.33203 16.7863 7.21206 20.6663 11.9983 20.6663Z" fill="#C9C2EA"/>
<path d="M20.6158 10.5391C20.6106 10.508 20.5992 10.4782 20.5823 10.4516C20.5653 10.425 20.5432 10.402 20.5172 10.3841C20.4912 10.3662 20.4619 10.3537 20.431 10.3474C20.4001 10.341 20.3682 10.341 20.3372 10.3472C20.3064 10.3517 20.2767 10.3624 20.2501 10.3787C20.2235 10.395 20.2005 10.4165 20.1826 10.442C20.1646 10.4675 20.152 10.4964 20.1456 10.527C20.1392 10.5575 20.1391 10.589 20.1453 10.6196C20.2198 11.076 20.2571 11.5376 20.2568 12C20.2535 13.8724 19.6144 15.6882 18.4442 17.1499C17.2741 18.6116 15.6422 19.6326 13.816 20.0457C11.9897 20.4588 10.0773 20.2394 8.39197 19.4235C6.70667 18.6077 5.3484 17.2437 4.53962 15.5549C3.73085 13.8662 3.51953 11.9529 3.94028 10.1284C4.36102 8.30388 5.3889 6.67633 6.85553 5.51234C8.32215 4.34835 10.1406 3.71692 12.013 3.72148C13.8854 3.72604 15.7007 4.36632 17.1617 5.53745L16.1527 6.5155C16.1245 6.54821 16.1047 6.58727 16.095 6.62933C16.0853 6.67139 16.086 6.71517 16.097 6.75692C16.1096 6.79744 16.1329 6.8338 16.1645 6.86214C16.1961 6.89047 16.2348 6.90973 16.2765 6.91786L18.8083 7.45022H18.8578C18.9202 7.44998 18.9801 7.42558 19.0249 7.38213C19.053 7.35441 19.0735 7.3199 19.0844 7.28194C19.0952 7.24398 19.0961 7.20386 19.0868 7.16547L18.5607 4.63368C18.552 4.59127 18.5318 4.55208 18.5023 4.52041C18.4728 4.48874 18.4352 4.46581 18.3935 4.45416C18.3523 4.44273 18.3089 4.44245 18.2675 4.45332C18.2262 4.4642 18.1885 4.48585 18.1583 4.51606L17.4774 5.19079C15.9351 3.94877 14.0165 3.26769 12.0363 3.25923C10.0561 3.25078 8.13183 3.91546 6.57899 5.14427C5.02616 6.37307 3.93696 8.09307 3.49003 10.0222C3.0431 11.9513 3.26495 13.975 4.11921 15.7615C4.97347 17.548 6.40943 18.9912 8.19161 19.8544C9.97378 20.7176 11.9964 20.9496 13.9277 20.5123C15.8591 20.0751 17.5845 18.9945 18.8211 17.4478C20.0576 15.9012 20.7319 13.9802 20.7334 12C20.7345 11.5107 20.6952 11.022 20.6158 10.5391Z" fill="currentColor"/>
<path d="M12 1C9.82441 1 7.69767 1.64514 5.88873 2.85383C4.07979 4.06253 2.66989 5.78049 1.83733 7.79048C1.00477 9.80047 0.78693 12.0122 1.21137 14.146C1.6358 16.2798 2.68345 18.2398 4.22183 19.7782C5.76021 21.3165 7.72022 22.3642 9.85401 22.7886C11.9878 23.2131 14.1995 22.9952 16.2095 22.1627C18.2195 21.3301 19.9375 19.9202 21.1462 18.1113C22.3549 16.3023 23 14.1756 23 12C22.9967 9.08362 21.8367 6.28763 19.7746 4.22544C17.7124 2.16325 14.9164 1.00328 12 1ZM12 22.5233C9.91868 22.5233 7.8841 21.9062 6.15354 20.7498C4.42299 19.5935 3.07418 17.95 2.27769 16.0271C1.48121 14.1042 1.27281 11.9883 1.67885 9.94699C2.0849 7.90566 3.08715 6.03058 4.55887 4.55886C6.03059 3.08715 7.90567 2.0849 9.947 1.67885C11.9883 1.2728 14.1042 1.4812 16.0271 2.27769C17.95 3.07418 19.5935 4.42298 20.7498 6.15354C21.9062 7.88409 22.5234 9.91868 22.5234 12C22.5234 14.791 21.4146 17.4676 19.4411 19.4411C17.4676 21.4146 14.791 22.5233 12 22.5233Z" fill="currentColor"/>
<path d="M14.1642 10.2358C14.1961 10.2367 14.2279 10.231 14.2575 10.2192C14.2872 10.2073 14.3142 10.1896 14.3368 10.167C14.3594 10.1444 14.3771 10.1174 14.3889 10.0878C14.4008 10.0581 14.4064 10.0263 14.4056 9.99439V9.04729C14.4032 8.91234 14.3742 8.77919 14.3203 8.65544C14.2664 8.53169 14.1887 8.41977 14.0915 8.32607C13.9944 8.23237 13.8797 8.15873 13.7541 8.10935C13.6285 8.05997 13.4944 8.03582 13.3594 8.03828H12.1957V7.04785C12.1941 6.9849 12.1679 6.92507 12.1228 6.88113C12.0777 6.83718 12.0172 6.8126 11.9543 6.81262C11.8919 6.81262 11.832 6.83741 11.7879 6.88152C11.7438 6.92563 11.719 6.98546 11.719 7.04785V8.03828H10.5491C10.2797 8.03824 10.0211 8.14395 9.82896 8.33266C9.63677 8.52137 9.52637 8.77799 9.5215 9.04729V11.4491C9.52471 11.5832 9.55433 11.7154 9.60864 11.8381C9.66296 11.9608 9.74093 12.0716 9.83808 12.1642C9.93523 12.2567 10.0497 12.3292 10.1748 12.3775C10.3 12.4258 10.4335 12.449 10.5676 12.4457H13.3594C13.431 12.4424 13.5025 12.4532 13.5699 12.4775C13.6372 12.5019 13.6991 12.5393 13.752 12.5876C13.8049 12.6359 13.8478 12.6941 13.8781 12.759C13.9085 12.8239 13.9257 12.8941 13.9289 12.9657V15.6275C13.9257 15.699 13.9085 15.7693 13.8781 15.8341C13.8478 15.899 13.8049 15.9573 13.752 16.0056C13.6991 16.0539 13.6372 16.0913 13.5699 16.1156C13.5025 16.14 13.431 16.1508 13.3594 16.1475H10.5491C10.4775 16.1508 10.406 16.14 10.3386 16.1156C10.2713 16.0913 10.2094 16.0539 10.1565 16.0056C10.1036 15.9573 10.0607 15.899 10.0304 15.8341C10 15.7693 9.98275 15.699 9.97958 15.6275V14.668C9.9804 14.6366 9.97493 14.6053 9.96348 14.5761C9.95203 14.5468 9.93483 14.5202 9.91291 14.4976C9.89098 14.4751 9.86477 14.4573 9.83582 14.4451C9.80687 14.4328 9.77577 14.4266 9.74435 14.4266C9.68032 14.4266 9.61891 14.452 9.57364 14.4973C9.52836 14.5426 9.50293 14.604 9.50293 14.668V15.6275C9.50614 15.7616 9.53575 15.8938 9.59007 16.0165C9.64439 16.1392 9.72236 16.25 9.81951 16.3425C9.91666 16.4351 10.0311 16.5076 10.1563 16.5559C10.2815 16.6042 10.4149 16.6274 10.5491 16.6241H11.719V17.6145C11.719 17.6769 11.7438 17.7368 11.7879 17.7809C11.832 17.825 11.8919 17.8498 11.9543 17.8498C12.0172 17.8498 12.0777 17.8252 12.1228 17.7813C12.1679 17.7373 12.1941 17.6775 12.1957 17.6145V16.6241H13.3594C13.4936 16.6274 13.627 16.6042 13.7522 16.5559C13.8774 16.5076 13.9918 16.4351 14.089 16.3425C14.1861 16.25 14.2641 16.1392 14.3184 16.0165C14.3727 15.8938 14.4024 15.7616 14.4056 15.6275V12.9657C14.3912 12.7002 14.2738 12.4509 14.0785 12.2705C13.8831 12.0902 13.6252 11.9932 13.3594 12H10.5491C10.4775 12.0033 10.406 11.9925 10.3386 11.9682C10.2713 11.9438 10.2094 11.9064 10.1565 11.8581C10.1036 11.8098 10.0607 11.7516 10.0304 11.6867C10 11.6218 9.98275 11.5516 9.97958 11.48V9.04729C9.98197 8.97492 9.99861 8.90375 10.0285 8.83782C10.0585 8.77189 10.1011 8.71251 10.154 8.66307C10.2069 8.61362 10.269 8.57509 10.3368 8.54967C10.4046 8.52426 10.4767 8.51245 10.5491 8.51493H13.3594C13.4318 8.51245 13.5039 8.52426 13.5717 8.54967C13.6395 8.57509 13.7016 8.61362 13.7545 8.66307C13.8074 8.71251 13.85 8.77189 13.88 8.83782C13.9099 8.90375 13.9265 8.97492 13.9289 9.04729V9.99439C13.9281 10.0258 13.9336 10.0571 13.945 10.0863C13.9565 10.1156 13.9737 10.1422 13.9956 10.1647C14.0175 10.1872 14.0437 10.2051 14.0727 10.2173C14.1016 10.2295 14.1327 10.2358 14.1642 10.2358Z" fill="currentColor"/>
</svg>
