<svg width="24" height="24" viewBox="0 0 24 24" fill="none" xmlns="http://www.w3.org/2000/svg">
<mask id="mask0_1_4376" style="mask-type:luminance" maskUnits="userSpaceOnUse" x="0" y="1" width="23" height="22">
<path d="M22.999 1H0.999023V23H22.999V1Z" fill="white"/>
</mask>
<g mask="url(#mask0_1_4376)">
<path d="M14.008 19.6128L1.84099 19.7007C1.35979 19.6066 1.23022 19.0628 1.22559 18.8026V3.85279C1.30992 3.0248 1.75905 2.91102 1.97308 2.95763H5.98845V1.31323H7.17677V2.95763H13.7221V1.2749H14.9104V2.95763H18.838C19.4088 2.95763 19.6037 3.27692 19.6297 3.43657L19.5417 14.0221C19.9881 14.1427 21.0333 14.5812 21.6432 15.371C22.4056 16.3582 22.7379 17.6386 22.6891 18.7431C22.6402 19.8476 22.171 20.7664 21.1252 21.8122C20.2885 22.6489 18.2157 22.6821 17.2839 22.5941C15.376 22.3283 14.305 20.4958 14.008 19.6128Z" fill="white"/>
<path fill-rule="evenodd" clip-rule="evenodd" d="M14.6295 3.22677V1.52778H13.9861V3.22677H6.88965V1.52778H6.24623V3.22677H1.75413C1.62795 3.22677 1.52681 3.32792 1.52681 3.4541V19.1226C1.52681 19.2488 1.62795 19.3499 1.75413 19.3499H19.1216C19.2478 19.3499 19.3489 19.2488 19.3489 19.1226V3.4541C19.3489 3.32792 19.2478 3.22677 19.1216 3.22677H14.6295ZM18.7055 18.7065H2.17023V8.68399H18.7055V18.7065ZM18.7055 8.13497H2.17023V3.8702H6.24623V5.19164H6.88965V3.8702H13.9861V5.19164H14.6295V3.8702H18.7055V8.13497ZM19.1216 2.69899C19.5393 2.69899 19.8767 3.03643 19.8767 3.4541V19.1226C19.8767 19.5403 19.5393 19.8776 19.1216 19.8776H1.75413C1.33646 19.8776 0.999023 19.5403 0.999023 19.1226V3.4541C0.999023 3.03643 1.33646 2.69899 1.75413 2.69899H5.71844V1.18878C5.71844 1.08495 5.80339 1 5.90722 1H7.22863C7.33246 1 7.41746 1.08495 7.41746 1.18878V2.69899H13.4583V1.18878C13.4583 1.08495 13.5432 1 13.6471 1H14.9685C15.0723 1 15.1573 1.08495 15.1573 1.18878V2.69899H19.1216ZM18.1777 18.1787V9.21181H2.69802V18.1787H18.1777ZM18.1777 7.60721V4.39798H15.1573V5.53064C15.1573 5.63447 15.0723 5.71942 14.9685 5.71942H13.6471C13.5432 5.71942 13.4583 5.63447 13.4583 5.53064V4.39798H7.41746V5.53064C7.41746 5.63447 7.33246 5.71942 7.22863 5.71942H5.90722C5.80339 5.71942 5.71844 5.63447 5.71844 5.53064V4.39798H2.69802V7.60721H18.1777Z" fill="currentColor"/>
<path d="M4.13184 10.3487H6.84591V13.0627H4.13184V10.3487Z" fill="#7866CB"/>
<path fill-rule="evenodd" clip-rule="evenodd" d="M6.31812 10.8764H4.65962V12.5349H6.31812V10.8764ZM4.13184 10.3487V13.0627H6.84591V10.3487H4.13184Z" fill="currentColor"/>
<path fill-rule="evenodd" clip-rule="evenodd" d="M10.3747 10.8771H8.71623V12.5356H10.3747V10.8771ZM8.18848 10.3493V13.0634H10.9025V10.3493H8.18848Z" fill="currentColor"/>
<path fill-rule="evenodd" clip-rule="evenodd" d="M14.7038 10.8771H13.0453V12.5356H14.7038V10.8771ZM12.5176 10.3493V13.0634H15.2316V10.3493H12.5176Z" fill="currentColor"/>
<path fill-rule="evenodd" clip-rule="evenodd" d="M6.31812 14.518H4.65962V16.1765H6.31812V14.518ZM4.13184 13.9903V16.7043H6.84591V13.9903H4.13184Z" fill="currentColor"/>
<path fill-rule="evenodd" clip-rule="evenodd" d="M10.3747 14.518H8.71623V16.1765H10.3747V14.518ZM8.18848 13.9903V16.7043H10.9025V13.9903H8.18848Z" fill="currentColor"/>
<path fill-rule="evenodd" clip-rule="evenodd" d="M4.77944 11.0777C4.88249 10.9746 5.04958 10.9746 5.15264 11.0777L5.98502 11.9101C6.08808 12.0132 6.08808 12.1802 5.98502 12.2833C5.88197 12.3863 5.71488 12.3863 5.61182 12.2833L4.77944 11.4509C4.67638 11.3478 4.67638 11.1808 4.77944 11.0777Z" fill="currentColor"/>
<path fill-rule="evenodd" clip-rule="evenodd" d="M7.92688 9.96763C8.02998 10.0707 8.02998 10.2377 7.92688 10.3408L5.98467 12.2831C5.88162 12.3861 5.71453 12.3861 5.61147 12.2831C5.50842 12.18 5.50842 12.0129 5.61147 11.9099L7.55368 9.96763C7.65677 9.86459 7.82385 9.86459 7.92688 9.96763Z" fill="currentColor"/>
<path d="M18.2899 23C15.6942 23 13.5811 20.8868 13.5811 18.2911C13.5811 15.6954 15.6942 13.5822 18.2899 13.5822C20.8856 13.5822 22.9988 15.6954 22.9988 18.2911C22.9988 20.8868 20.8856 23 18.2899 23Z" fill="#7866CB"/>
<path fill-rule="evenodd" clip-rule="evenodd" d="M14.1088 18.2911C14.1088 20.5953 15.9857 22.4722 18.2899 22.4722C20.5942 22.4722 22.471 20.5953 22.471 18.2911C22.471 15.9869 20.5942 14.11 18.2899 14.11C15.9857 14.11 14.1088 15.9869 14.1088 18.2911ZM13.5811 18.2911C13.5811 20.8868 15.6942 23 18.2899 23C20.8856 23 22.9988 20.8868 22.9988 18.2911C22.9988 15.6954 20.8856 13.5822 18.2899 13.5822C15.6942 13.5822 13.5811 15.6954 13.5811 18.2911Z" fill="currentColor"/>
<path fill-rule="evenodd" clip-rule="evenodd" d="M17.8938 15.4082C18.0395 15.4082 18.1576 15.5264 18.1576 15.6721V19.0631C18.1576 19.2089 18.0395 19.327 17.8938 19.327C17.748 19.327 17.6299 19.2089 17.6299 19.0631V15.6721C17.6299 15.5264 17.748 15.4082 17.8938 15.4082Z" fill="currentColor"/>
<path fill-rule="evenodd" clip-rule="evenodd" d="M17.6533 19.0631C17.6533 18.9173 17.7714 18.7992 17.9172 18.7992H21.3081C21.4539 18.7992 21.5721 18.9173 21.5721 19.0631C21.5721 19.2088 21.4539 19.327 21.3081 19.327H17.9172C17.7714 19.327 17.6533 19.2088 17.6533 19.0631Z" fill="currentColor"/>
</g>
</svg>
