<svg width="24" height="24" viewBox="0 0 24 24" fill="none" xmlns="http://www.w3.org/2000/svg">
<path d="M4.66602 4.6474H7.11043V7.07929H4.66602V4.6474Z" fill="white"/>
<path d="M1 10.7276V1H10.7776V10.7276H1ZM3.44441 3.43189V8.29567H8.33323V3.43189H3.44441Z" fill="white"/>
<path d="M13.2227 13.1585H16.8893V15.5904H13.2227V13.1585Z" fill="white"/>
<path d="M16.8893 15.5904H19.3337V13.1585H23.0003V16.8063H19.3337V18.0223H20.5559V19.2382H23.0003V22.8861H20.5559V20.4542H18.1115V22.8861H13.2227V18.0223H15.6671V20.4542H16.8893V15.5904Z" fill="white"/>
<path d="M19.3331 4.6474H16.8887V7.07929H19.3331V4.6474Z" fill="white"/>
<path d="M13.2227 1V10.7276H23.0003V1H13.2227ZM20.5559 3.43189V8.29567H15.6671V3.43189H20.5559Z" fill="white"/>
<path d="M4.66602 16.8079H7.11043V19.2398H4.66602V16.8079Z" fill="white"/>
<path d="M1 22.8861V13.1585H10.7776V22.8861H1ZM3.44441 15.5904V20.4542H8.33323V15.5904H3.44441Z" fill="white"/>
</svg>
