<svg width="24" height="24" viewBox="0 0 24 24" fill="none" xmlns="http://www.w3.org/2000/svg">
<path d="M17.66 11.5615C20.5207 11.5615 22.8396 9.24249 22.8396 6.38188C22.8396 3.52128 20.5207 1.2023 17.66 1.2023C14.7994 1.2023 12.4805 3.52128 12.4805 6.38188C12.4805 9.24249 14.7994 11.5615 17.66 11.5615Z" fill="#C9C2EA"/>
<path d="M18.5248 13.192C18.5266 14.1086 18.3796 15.0195 18.0896 15.889H13.8417C13.9569 14.9987 14.0143 14.1019 14.0133 13.2042C14.0133 12.7567 14.0133 12.3093 13.9704 11.8802C13.7926 11.7637 13.621 11.635 13.4616 11.5063C13.5107 12.058 13.5413 12.6219 13.5413 13.2042C13.5342 14.1031 13.4625 15.0004 13.3268 15.889H6.67608C6.42274 14.1081 6.42274 12.3003 6.67608 10.5194H12.4441C12.3215 10.3662 12.2051 10.2129 12.0947 10.0474H6.74351C7.27679 6.93968 8.55177 4.67783 9.99837 4.67783C10.3963 4.69066 10.7767 4.84497 11.0711 5.11303C11.1247 4.84209 11.1923 4.57408 11.2733 4.31005C10.8515 4.24417 10.4253 4.20935 9.99837 4.20584C7.61186 4.20584 5.32308 5.15388 3.63556 6.8414C1.94804 8.52893 1 10.8177 1 13.2042C1 15.5907 1.94804 17.8795 3.63556 19.567C5.32308 21.2545 7.61186 22.2026 9.99837 22.2026C11.1809 22.2018 12.3516 21.9681 13.4438 21.5148C14.5359 21.0615 15.5281 20.3976 16.3637 19.5609C17.1993 18.7242 17.8619 17.7311 18.3137 16.6383C18.7654 15.5455 18.9976 14.3744 18.9967 13.192C18.9967 13.0632 18.9967 12.9406 18.9967 12.8119C18.8435 12.8426 18.6903 12.8671 18.5309 12.8855C18.5186 12.9897 18.5248 13.0939 18.5248 13.192ZM8.54564 4.80042C7.47907 5.71987 6.65157 7.62007 6.25927 10.0352H2.09108C2.63208 8.68514 3.50895 7.49568 4.63854 6.57956C5.76813 5.66344 7.113 5.05104 8.54564 4.80042ZM1.47812 13.192C1.47961 12.2791 1.62864 11.3725 1.91945 10.5072H6.21023C5.9814 12.2897 5.9814 14.0942 6.21023 15.8768H1.91945C1.62864 15.0114 1.47961 14.1048 1.47812 13.192ZM2.09108 16.3487H6.25927C6.65157 18.77 7.4852 20.6395 8.54564 21.5835C7.11258 21.334 5.76719 20.722 4.63742 19.8057C3.50765 18.8895 2.63108 17.6994 2.09108 16.3487ZM10.0045 21.7183C8.5579 21.7183 7.28292 19.4626 6.74964 16.3487H13.2594C12.7261 19.4626 11.4511 21.7183 10.0045 21.7183ZM11.4572 21.5835C12.5238 20.6702 13.3513 18.77 13.7436 16.3487H17.9118C17.3718 17.6994 16.4952 18.8895 15.3655 19.8057C14.2357 20.722 12.8903 21.334 11.4572 21.5835Z" fill="currentColor"/>
<path d="M17.5879 11.8373C16.5159 11.8385 15.4676 11.5217 14.5758 10.9271C13.6839 10.3324 12.9884 9.48653 12.5773 8.49651C12.1663 7.50649 12.0581 6.41679 12.2665 5.36528C12.4748 4.31376 12.9904 3.34768 13.748 2.58925C14.5056 1.83083 15.4711 1.31415 16.5223 1.10457C17.5736 0.894993 18.6634 1.00194 19.6539 1.41188C20.6444 1.82183 21.4911 2.51634 22.0867 3.40757C22.6824 4.29879 23.0004 5.34667 23.0004 6.41864C22.9971 7.8537 22.426 9.22914 21.4119 10.2445C20.3977 11.2598 19.0229 11.8324 17.5879 11.8373ZM17.5879 1.47811C16.609 1.4769 15.6518 1.76614 14.8373 2.30922C14.0229 2.8523 13.388 3.6248 13.0128 4.52893C12.6376 5.43306 12.5392 6.42818 12.7298 7.3883C12.9205 8.34843 13.3917 9.2304 14.0839 9.92257C14.7761 10.6147 15.6581 11.086 16.6182 11.2767C17.5783 11.4673 18.5734 11.3689 19.4776 10.9937C20.3817 10.6185 21.1542 9.98357 21.6973 9.16916C22.2404 8.35474 22.5296 7.39751 22.5284 6.41864C22.5251 5.10932 22.0036 3.85456 21.0778 2.92874C20.1519 2.00291 18.8972 1.48135 17.5879 1.47811Z" fill="currentColor"/>
<path d="M17.5203 6.60867C17.1879 6.60867 16.8629 6.51001 16.5866 6.32519C16.3103 6.14036 16.095 5.87769 15.9681 5.57044C15.8411 5.26319 15.8082 4.92518 15.8735 4.59922C15.9388 4.27325 16.0994 3.974 16.3349 3.73936C16.5704 3.50472 16.8703 3.34524 17.1965 3.28113C17.5227 3.21702 17.8605 3.25116 18.1673 3.37922C18.4741 3.50728 18.736 3.7235 18.9198 4.0005C19.1036 4.27751 19.2011 4.60283 19.1999 4.93527C19.1999 5.15554 19.1564 5.37364 19.0719 5.57707C18.9874 5.7805 18.8636 5.96524 18.7076 6.12071C18.5515 6.27618 18.3663 6.39932 18.1626 6.48305C17.9589 6.56679 17.7406 6.60948 17.5203 6.60867ZM17.5203 3.72772C17.2779 3.72772 17.0409 3.79962 16.8392 3.93433C16.6376 4.06903 16.4805 4.2605 16.3877 4.48451C16.2949 4.70852 16.2707 4.95502 16.318 5.19282C16.3653 5.43063 16.482 5.64907 16.6535 5.82052C16.8249 5.99197 17.0434 6.10873 17.2812 6.15604C17.519 6.20334 17.7655 6.17906 17.9895 6.08627C18.2135 5.99348 18.405 5.83635 18.5397 5.63475C18.6744 5.43314 18.7463 5.19612 18.7463 4.95366C18.7463 4.62852 18.6171 4.3167 18.3872 4.08679C18.1573 3.85688 17.8455 3.72772 17.5203 3.72772Z" fill="currentColor"/>
<path d="M19.6892 9.50186H15.6314C15.5696 9.50186 15.5103 9.47732 15.4667 9.43364C15.423 9.38996 15.3984 9.33071 15.3984 9.26893V9.01149C15.3984 8.71446 15.4569 8.42033 15.5706 8.14591C15.6843 7.87149 15.8509 7.62215 16.0609 7.41212C16.271 7.20208 16.5203 7.03548 16.7947 6.92181C17.0691 6.80814 17.3633 6.74963 17.6603 6.74963C17.9573 6.74963 18.2514 6.80814 18.5259 6.92181C18.8003 7.03548 19.0496 7.20208 19.2597 7.41212C19.4697 7.62215 19.6363 7.87149 19.75 8.14591C19.8636 8.42033 19.9221 8.71446 19.9221 9.01149V9.26893C19.9221 9.33071 19.8976 9.38996 19.8539 9.43364C19.8102 9.47732 19.751 9.50186 19.6892 9.50186ZM15.8704 9.02988H19.4563C19.4706 8.78561 19.4348 8.54099 19.3512 8.31105C19.2675 8.0811 19.1378 7.87067 18.9699 7.69267C18.802 7.51467 18.5995 7.37286 18.3748 7.27593C18.1501 7.179 17.908 7.129 17.6634 7.129C17.4187 7.129 17.1766 7.179 16.9519 7.27593C16.7272 7.37286 16.5247 7.51467 16.3568 7.69267C16.1889 7.87067 16.0592 8.0811 15.9756 8.31105C15.8919 8.54099 15.8561 8.78561 15.8704 9.02988Z" fill="currentColor"/>
</svg>
