<svg width="24" height="24" viewBox="0 0 24 24" fill="none" xmlns="http://www.w3.org/2000/svg">
<path d="M14.9815 18.7017C15.2525 18.1813 15.4332 17.5979 15.4332 16.9514C15.4332 14.9645 13.8975 13.3403 11.9853 13.3403C10.0731 13.3403 8.53736 14.9487 8.53736 16.9514C8.53736 17.519 8.67287 18.0394 8.89872 18.5125L7.30273 22.3443L9.0794 21.5874L9.68166 23.6373L11.1271 20.4205C11.4131 20.4993 11.6992 20.5466 12.0003 20.5466C12.2864 20.5466 12.5574 20.4993 12.8285 20.4363L14.1534 23.5585L14.6955 21.5874L16.4571 22.2497L14.9815 18.7017Z" fill="#C9C2EA"/>
<path d="M23 17.0449H15.3535C15.2845 17.464 15.161 17.8545 14.9678 18.2158L16.375 21.4248C16.4162 21.5258 16.3891 21.6555 16.3203 21.7422C16.2513 21.8289 16.127 21.8576 16.0166 21.7998L14.5811 21.1357L14.208 22.7539C14.1804 22.8695 14.084 22.9562 13.9736 22.9707H13.9463C13.836 22.9707 13.7387 22.9135 13.6973 22.8125L12.4141 20.0371C12.2899 20.0516 12.1517 20.0801 12.0137 20.0801C11.7792 20.0801 11.5586 20.0511 11.3379 20.0078L10.0674 22.8262C10.026 22.9418 9.92974 23 9.81934 23H9.79199C9.68158 22.9855 9.58424 22.8988 9.55664 22.7832L9.15723 21.1494L7.70801 21.8291C7.61147 21.8869 7.48711 21.858 7.4043 21.7715C7.32149 21.6848 7.29343 21.5541 7.34863 21.4385L8.92188 18.0127C8.79778 17.7237 8.71533 17.4055 8.66016 17.0732H1V1H23V17.0449ZM8.17676 20.9912L9.23926 20.499C9.32207 20.4557 9.4056 20.4557 9.47461 20.499C9.55735 20.5424 9.61218 20.6008 9.62598 20.6875L9.91602 21.8721L10.8135 19.8633C10.1924 19.6176 9.65402 19.1838 9.26758 18.6201L8.17676 20.9912ZM14.6357 18.7939C14.2079 19.3286 13.6418 19.7332 12.9795 19.9355L13.8633 21.8438L14.1396 20.6729C14.1672 20.5863 14.2221 20.5287 14.291 20.4854C14.36 20.4565 14.4564 20.4565 14.5254 20.4854L15.6025 20.9912L14.6357 18.7939ZM12.0273 13.5322C10.4541 13.5324 9.1709 14.8767 9.1709 16.5244C9.17095 18.1721 10.4541 19.5165 12.0273 19.5166C13.6007 19.5166 14.8847 18.1722 14.8848 16.5244C14.8848 14.8766 13.6007 13.5322 12.0273 13.5322ZM12.0283 14.4287C13.1323 14.4289 14.0293 15.3682 14.0293 16.5244C14.0292 17.6806 13.1322 18.6199 12.0283 18.6201C10.9242 18.6201 10.0264 17.6807 10.0264 16.5244C10.0264 15.368 10.9242 14.4287 12.0283 14.4287ZM12.0283 15.0068C11.2278 15.0068 10.5791 15.686 10.5791 16.5244C10.5792 17.3627 11.2279 18.042 12.0283 18.042C12.8286 18.0418 13.4775 17.3626 13.4775 16.5244C13.4775 15.6862 12.8286 15.0071 12.0283 15.0068ZM1.55176 16.4951H8.60449C8.63224 14.5439 10.1506 12.9542 12.0137 12.9541C13.8768 12.9541 15.4089 14.5439 15.4229 16.4951H22.4482V1.57812H1.55176V16.4951ZM21.6201 15.6279H18.625V15.3389C18.6251 13.7634 19.8532 12.4912 21.3438 12.4912H21.6201V15.6279ZM2.65625 12.4766C4.16053 12.4766 5.37483 13.7488 5.375 15.3242V15.6133H2.38086V12.4766H2.65625ZM21.0674 13.084C20.1014 13.2286 19.3283 14.0236 19.2041 15.0498H21.0674V13.084ZM2.93262 15.0352H4.7959C4.68538 14.0091 3.91239 13.1995 2.93262 13.0693V15.0352ZM15.9463 11.2051C16.098 11.2052 16.2217 11.3352 16.2217 11.4941C16.2217 11.653 16.098 11.7831 15.9463 11.7832H8.0791C7.92729 11.7832 7.80275 11.6531 7.80273 11.4941C7.80273 11.3351 7.92728 11.2051 8.0791 11.2051H15.9463ZM17.4531 9.4707C17.6049 9.47082 17.7285 9.60083 17.7285 9.75977C17.7284 9.9186 17.6048 10.0487 17.4531 10.0488H6.56348C6.41173 10.0488 6.28723 9.91867 6.28711 9.75977C6.28711 9.60076 6.41166 9.4707 6.56348 9.4707H17.4531ZM11.9727 2.87891C12.0969 2.87891 12.1943 2.98028 12.1943 3.11035V3.48633H12.6084C12.6773 3.47201 12.7466 3.48579 12.8154 3.51465C12.8981 3.54355 12.9527 3.58777 13.0078 3.64551C13.063 3.68887 13.1051 3.76073 13.1465 3.83301C13.1741 3.90528 13.1875 3.99218 13.1875 4.06445V4.5127C13.1874 4.64269 13.0909 4.74414 12.9668 4.74414C12.8427 4.74413 12.7462 4.64268 12.7461 4.5127V4.06445C12.7461 4.05012 12.7459 4.03582 12.7324 4.02148C12.7324 4.00703 12.7188 3.99199 12.7188 3.97754C12.705 3.96309 12.7043 3.96366 12.6768 3.94922C12.6494 3.93487 12.6358 3.93457 12.6221 3.93457H11.3662C11.3386 3.93457 11.3243 3.93476 11.3105 3.94922C11.2969 3.96333 11.2832 3.96341 11.2695 3.97754C11.2557 3.99199 11.255 4.00703 11.2412 4.02148C11.2278 4.0358 11.2275 4.05014 11.2275 4.06445V5.23535C11.2413 5.24981 11.2557 5.26367 11.2695 5.26367C11.2833 5.27811 11.2968 5.29293 11.3105 5.29297C11.3242 5.30727 11.3379 5.30762 11.3516 5.30762H12.6084C12.6773 5.30768 12.7466 5.32174 12.8154 5.35059C12.8843 5.37948 12.9527 5.42352 13.0078 5.4668C13.063 5.52462 13.1051 5.59667 13.1465 5.66895C13.174 5.74117 13.1875 5.81373 13.1875 5.90039V7.14355C13.1875 7.22994 13.1739 7.30201 13.1465 7.37402C13.1051 7.4463 13.063 7.50468 13.0078 7.5625C12.9528 7.62008 12.8842 7.66351 12.8154 7.69238C12.7464 7.70684 12.6766 7.72168 12.5938 7.72168H12.1943V8.08301C12.1942 8.213 12.0968 8.31445 11.9727 8.31445C11.8487 8.31422 11.7521 8.21285 11.752 8.08301V7.73633H11.3379C11.2827 7.73627 11.2134 7.72124 11.1445 7.69238C11.0758 7.66351 11.0072 7.62008 10.9521 7.5625C10.897 7.50472 10.8548 7.43258 10.8271 7.36035C10.7996 7.28812 10.7861 7.20115 10.7861 7.12891V6.68066C10.7861 6.55063 10.8827 6.44929 11.0068 6.44922C11.131 6.44922 11.2275 6.55058 11.2275 6.68066V7.18652C11.2413 7.20097 11.2421 7.21504 11.2559 7.22949C11.2697 7.24395 11.2831 7.25879 11.2969 7.25879C11.3242 7.27308 11.3379 7.27344 11.3516 7.27344H12.6084C12.6357 7.27329 12.6494 7.25885 12.6631 7.25879C12.6767 7.2445 12.6905 7.24414 12.7041 7.24414C12.7179 7.22972 12.7323 7.21559 12.7324 7.20117C12.7461 7.17247 12.7461 7.1579 12.7461 7.14355V5.90039C12.7461 5.87172 12.7459 5.85711 12.7324 5.84277C12.7324 5.82936 12.7205 5.81535 12.7188 5.81348C12.7049 5.79902 12.6906 5.78418 12.6768 5.78418C12.6496 5.76999 12.6357 5.77051 12.6221 5.77051H11.3662C11.2972 5.77051 11.2135 5.77012 11.1445 5.74121C11.0758 5.71236 11.0072 5.66888 10.9521 5.61133C10.8969 5.56796 10.8548 5.49512 10.8271 5.42285C10.7996 5.3507 10.7861 5.27798 10.7861 5.19141V4.06445C10.7861 3.99219 10.7996 3.90527 10.8271 3.83301C10.8548 3.76073 10.8969 3.68887 10.9521 3.64551C11.0073 3.58777 11.0756 3.54355 11.1445 3.51465C11.2135 3.48574 11.2834 3.47168 11.3662 3.47168H11.7383V3.11035C11.7383 2.98042 11.8486 2.87914 11.9727 2.87891ZM5.375 2.82129C5.37499 4.39684 4.14683 5.66895 2.65625 5.66895H2.38086V2.53223H5.375V2.82129ZM21.6201 5.6543H21.3438C19.8532 5.6543 18.625 4.38238 18.625 2.82129V2.53223H21.6201V5.6543ZM2.93262 5.07617C3.89861 4.94601 4.68543 4.13669 4.7959 3.125H2.93262V5.07617ZM19.2041 3.11035C19.3283 4.12209 20.1014 4.93132 21.0674 5.06152V3.11035H19.2041Z" fill="currentColor"/>
</svg>
