<svg width="24" height="24" viewBox="0 0 24 24" fill="none" xmlns="http://www.w3.org/2000/svg">
<path d="M11.9943 18.0191C15.3517 18.0191 18.0735 15.301 18.0735 11.9481C18.0735 8.59516 15.3517 5.87708 11.9943 5.87708C8.6368 5.87708 5.91504 8.59516 5.91504 11.9481C5.91504 15.301 8.6368 18.0191 11.9943 18.0191Z" fill="#C9C2EA"/>
<path d="M13.0089 9.27292H12.3973V8.75377C12.3882 8.69791 12.3596 8.64709 12.3164 8.61041C12.2733 8.57373 12.2185 8.55359 12.1618 8.55359C12.1052 8.55359 12.0503 8.57373 12.0072 8.61041C11.9641 8.64709 11.9354 8.69791 11.9264 8.75377V9.27292H11.3148C11.2208 9.2713 11.1274 9.28819 11.04 9.32261C10.9525 9.35704 10.8728 9.40832 10.8052 9.47355C10.7376 9.53877 10.6835 9.61666 10.6461 9.70275C10.6086 9.78884 10.5886 9.88145 10.587 9.9753V11.4411C10.5918 11.6296 10.671 11.8085 10.8073 11.9389C10.9436 12.0694 11.126 12.1407 11.3148 12.1374H13.0333C13.0655 12.1358 13.0976 12.1405 13.1279 12.1512C13.1582 12.162 13.1861 12.1787 13.21 12.2002C13.2338 12.2218 13.2532 12.2478 13.267 12.2769C13.2807 12.3059 13.2886 12.3374 13.2902 12.3695V13.988C13.2887 14.0199 13.2807 14.0511 13.2669 14.0798C13.2531 14.1085 13.2336 14.1342 13.2096 14.1553C13.1857 14.1763 13.1577 14.1924 13.1274 14.2025C13.0972 14.2126 13.0652 14.2165 13.0333 14.214H11.2903C11.2585 14.2165 11.2265 14.2126 11.1962 14.2025C11.1659 14.1924 11.138 14.1763 11.114 14.1553C11.09 14.1342 11.0706 14.1085 11.0567 14.0798C11.0429 14.0511 11.035 14.0199 11.0334 13.988V13.3773C11.0334 13.3157 11.0089 13.2567 10.9654 13.2131C10.9218 13.1696 10.8627 13.1452 10.801 13.1452C10.7388 13.1451 10.679 13.1694 10.6345 13.2128C10.5899 13.2561 10.5641 13.3152 10.5625 13.3773V13.988C10.5673 14.1765 10.6465 14.3554 10.7828 14.4858C10.9191 14.6162 11.1015 14.6876 11.2903 14.6843H11.9019V15.2034C11.9109 15.2593 11.9396 15.3101 11.9827 15.3468C12.0259 15.3835 12.0807 15.4036 12.1374 15.4036C12.194 15.4036 12.2488 15.3835 12.292 15.3468C12.3351 15.3101 12.3638 15.2593 12.3728 15.2034V14.6843H12.9844C13.0781 14.6867 13.1713 14.6706 13.2587 14.6369C13.3461 14.6031 13.426 14.5524 13.4936 14.4877C13.5613 14.4229 13.6155 14.3454 13.653 14.2597C13.6905 14.1739 13.7106 14.0816 13.7122 13.988V12.3695C13.7106 12.2757 13.6905 12.183 13.6531 12.0969C13.6156 12.0109 13.5616 11.933 13.494 11.8677C13.4264 11.8025 13.3466 11.7512 13.2592 11.7168C13.1718 11.6824 13.0784 11.6655 12.9844 11.6671H11.2903C11.2264 11.6705 11.1637 11.6487 11.1157 11.6065C11.0677 11.5642 11.0381 11.5049 11.0334 11.4411V9.9753C11.0366 9.90995 11.0653 9.84845 11.1133 9.80393C11.1613 9.75941 11.2248 9.73543 11.2903 9.7371H13.0089C13.0744 9.73543 13.1379 9.75941 13.1859 9.80393C13.2339 9.84845 13.2626 9.90995 13.2657 9.9753V10.5861C13.2748 10.6419 13.3034 10.6927 13.3466 10.7294C13.3897 10.7661 13.4445 10.7862 13.5012 10.7862C13.5579 10.7862 13.6127 10.7661 13.6558 10.7294C13.699 10.6927 13.7276 10.6419 13.7367 10.5861V9.9753C13.7351 9.88145 13.715 9.78884 13.6775 9.70275C13.6401 9.61666 13.586 9.53877 13.5185 9.47355C13.4509 9.40832 13.3711 9.35704 13.2837 9.32261C13.1962 9.28819 13.1028 9.2713 13.0089 9.27292Z" fill="currentColor"/>
<path d="M19.3334 16.0341C18.608 16.037 17.9066 16.2942 17.3518 16.7609L16.8014 16.2112C17.8011 15.1161 18.3815 13.7037 18.4405 12.2229H19.3456C19.4054 12.6846 19.639 13.1063 19.9989 13.4022C20.3588 13.6982 20.818 13.8462 21.2832 13.8163C21.7484 13.7864 22.1848 13.5807 22.5037 13.2411C22.8225 12.9014 23 12.4533 23 11.9878C23 11.5222 22.8225 11.0741 22.5037 10.7345C22.1848 10.3949 21.7484 10.1892 21.2832 10.1593C20.818 10.1293 20.3588 10.2774 19.9989 10.5733C19.639 10.8693 19.4054 11.2909 19.3456 11.7526H18.4588C18.4092 10.2346 17.8119 8.78563 16.7769 7.67273L17.3579 7.0925C17.9052 7.57167 18.6056 7.84021 19.3334 7.84985C19.9527 7.84985 20.5581 7.66645 21.0731 7.32284C21.588 6.97922 21.9894 6.49083 22.2264 5.91943C22.4634 5.34802 22.5254 4.71926 22.4046 4.11266C22.2837 3.50606 21.9855 2.94886 21.5476 2.51153C21.1097 2.07419 20.5517 1.77636 19.9443 1.6557C19.3369 1.53504 18.7072 1.59697 18.1351 1.83365C17.5629 2.07034 17.0738 2.47115 16.7298 2.9854C16.3857 3.49965 16.202 4.10425 16.202 4.72273C16.2041 5.48503 16.4871 6.21989 16.9971 6.78712L16.4283 7.36124C15.2845 6.29164 13.7813 5.68814 12.2144 5.66942V4.64944C12.6768 4.58969 13.099 4.35643 13.3954 3.99704C13.6917 3.63765 13.8399 3.17908 13.81 2.71448C13.78 2.24988 13.574 1.8141 13.234 1.49566C12.8939 1.17722 12.4452 1 11.979 1C11.5128 1 11.0641 1.17722 10.724 1.49566C10.3839 1.8141 10.178 2.24988 10.148 2.71448C10.118 3.17908 10.2663 3.63765 10.5626 3.99704C10.859 4.35643 11.2812 4.58969 11.7435 4.64944V5.68774C10.1891 5.78092 8.72454 6.4469 7.63362 7.55668L7.02203 6.94592C7.40638 6.59248 7.69587 6.14845 7.86403 5.65444C8.03218 5.16043 8.07363 4.6322 7.98458 4.11806C7.89553 3.60392 7.67883 3.12028 7.35429 2.71137C7.02975 2.30246 6.60774 1.98133 6.12684 1.77735C5.64594 1.57337 5.1215 1.49305 4.60149 1.54373C4.08148 1.59442 3.58249 1.77449 3.15016 2.06748C2.71783 2.36047 2.36596 2.75703 2.12672 3.22088C1.88747 3.68474 1.7685 4.2011 1.78068 4.72273C1.78337 5.28985 1.94075 5.84551 2.2359 6.33002C2.53105 6.81453 2.95281 7.20957 3.45588 7.4727C3.95895 7.73582 4.5243 7.85708 5.09119 7.82346C5.65808 7.78983 6.20508 7.60258 6.67342 7.28184L7.28501 7.8926C6.39516 8.98491 5.89964 10.3447 5.87835 11.7526H4.65516C4.59682 11.2902 4.36421 10.8674 4.00466 10.5702C3.64512 10.273 3.18569 10.1238 2.71988 10.153C2.25407 10.1822 1.81691 10.3875 1.49739 10.7273C1.17787 11.067 1 11.5156 1 11.9817C1 12.4478 1.17787 12.8963 1.49739 13.2361C1.81691 13.5758 2.25407 13.7812 2.71988 13.8104C3.18569 13.8396 3.64512 13.6904 4.00466 13.3932C4.36421 13.096 4.59682 12.6732 4.65516 12.2107H5.87835C5.92759 13.5938 6.43527 14.9214 7.32171 15.9852L6.71011 16.596C6.03026 16.1106 5.18843 15.9073 4.3616 16.0289C3.53476 16.1504 2.78732 16.5874 2.27642 17.2479C1.76551 17.9084 1.53093 18.741 1.62198 19.5707C1.71304 20.4003 2.12264 21.1624 2.76468 21.6967C3.40672 22.231 4.23119 22.4959 5.06476 22.4358C5.89833 22.3756 6.67609 21.995 7.23451 21.3741C7.79294 20.7531 8.08854 19.9401 8.05918 19.106C8.02982 18.2719 7.67778 17.4817 7.07707 16.9014L7.6275 16.3517C8.72037 17.4906 10.2035 18.1755 11.7802 18.2695V19.3506C11.3179 19.4103 10.8957 19.6436 10.5993 20.003C10.303 20.3624 10.1547 20.8209 10.1847 21.2855C10.2147 21.7501 10.4206 22.1859 10.7607 22.5043C11.1008 22.8228 11.5495 23 12.0157 23C12.4819 23 12.9306 22.8228 13.2707 22.5043C13.6107 22.1859 13.8167 21.7501 13.8467 21.2855C13.8766 20.8209 13.7284 20.3624 13.432 20.003C13.1357 19.6436 12.7135 19.4103 12.2511 19.3506V18.2817C13.8467 18.2659 15.3767 17.6459 16.5323 16.5471L17.0705 17.0846C16.5958 17.6207 16.3204 18.3036 16.2906 19.0186C16.2608 19.7336 16.4784 20.437 16.9069 21.0106C17.3353 21.5842 17.9485 21.993 18.6433 22.1682C19.338 22.3434 20.072 22.2744 20.7218 21.9728C21.3716 21.6711 21.8976 21.1552 22.2113 20.5118C22.525 19.8684 22.6074 19.1368 22.4444 18.4399C22.2815 17.743 21.8833 17.1234 21.3167 16.6853C20.7501 16.2472 20.0498 16.0172 19.3334 16.0341ZM2.25161 4.72273C2.25161 4.19726 2.40764 3.68359 2.69997 3.24668C2.9923 2.80976 3.4078 2.46923 3.89393 2.26814C4.38006 2.06705 4.91498 2.01444 5.43106 2.11695C5.94713 2.21947 6.42117 2.47251 6.79324 2.84407C7.16531 3.21563 7.41869 3.68904 7.52134 4.20441C7.62399 4.71979 7.57131 5.25398 7.36995 5.73946C7.16859 6.22493 6.82759 6.63987 6.39009 6.9318C5.95258 7.22374 5.43822 7.37956 4.91203 7.37956C4.20644 7.37956 3.52975 7.09965 3.03083 6.60139C2.5319 6.10314 2.25161 5.42737 2.25161 4.72273ZM7.57246 19.1612C7.57246 19.6867 7.41643 20.2004 7.1241 20.6373C6.83177 21.0742 6.41626 21.4147 5.93013 21.6158C5.44401 21.8169 4.90908 21.8695 4.39301 21.767C3.87694 21.6645 3.40289 21.4114 3.03083 21.0399C2.65876 20.6683 2.40538 20.1949 2.30273 19.6795C2.20007 19.1642 2.25276 18.63 2.45412 18.1445C2.65548 17.659 2.99647 17.2441 3.43398 16.9522C3.87148 16.6602 4.38585 16.5044 4.91203 16.5044C5.61762 16.5044 6.29431 16.7843 6.79324 17.2826C7.29217 17.7808 7.57246 18.4566 7.57246 19.1612ZM21.1682 10.6533C21.4333 10.6521 21.6929 10.7295 21.9139 10.8757C22.135 11.0219 22.3076 11.2304 22.4099 11.4747C22.5123 11.719 22.5397 11.9882 22.4887 12.248C22.4377 12.5079 22.3106 12.7468 22.1235 12.9345C21.9365 13.1221 21.6978 13.2501 21.4378 13.3022C21.1779 13.3544 20.9082 13.3282 20.6631 13.2272C20.418 13.1261 20.2085 12.9547 20.061 12.7346C19.9136 12.5145 19.8349 12.2556 19.8349 11.9908C19.8349 11.6371 19.9752 11.2979 20.225 11.0472C20.4749 10.7965 20.814 10.6549 21.1682 10.6533ZM19.3334 2.0659C19.8596 2.0659 20.3739 2.22172 20.8114 2.51366C21.2489 2.8056 21.5899 3.22054 21.7913 3.70601C21.9927 4.19148 22.0453 4.72568 21.9427 5.24105C21.84 5.75643 21.5867 6.22983 21.2146 6.60139C20.8425 6.97296 20.3685 7.226 19.8524 7.32851C19.3363 7.43103 18.8014 7.37841 18.3153 7.17732C17.8292 6.97623 17.4137 6.6357 17.1213 6.19879C16.829 5.76187 16.673 5.2482 16.673 4.72273C16.673 4.0181 16.9533 3.34232 17.4522 2.84407C17.9511 2.34582 18.6278 2.0659 19.3334 2.0659ZM10.6732 2.86601C10.6733 2.60068 10.7523 2.34136 10.9003 2.12102C11.0483 1.90068 11.2586 1.72927 11.5044 1.62859C11.7502 1.52791 12.0204 1.50252 12.2807 1.55563C12.541 1.60874 12.7797 1.73797 12.9662 1.92687C13.1528 2.11577 13.2789 2.35581 13.3285 2.61647C13.3781 2.87713 13.3489 3.14663 13.2447 3.3907C13.1405 3.63477 12.966 3.84237 12.7433 3.98712C12.5207 4.13187 12.2599 4.20722 11.9943 4.20358C11.6422 4.19877 11.3063 4.05572 11.059 3.8054C10.8118 3.55507 10.6732 3.2176 10.6732 2.86601ZM2.87543 13.3223C2.61026 13.3223 2.35107 13.2437 2.13067 13.0965C1.91028 12.9492 1.73862 12.7399 1.63742 12.4952C1.53623 12.2504 1.51007 11.9812 1.56224 11.7215C1.61442 11.4619 1.74259 11.2236 1.93052 11.0368C2.11845 10.8499 2.35768 10.723 2.6179 10.6721C2.87812 10.6212 3.14761 10.6486 3.39224 10.7507C3.63688 10.8529 3.84563 11.0253 3.99207 11.2461C4.1385 11.4668 4.21603 11.726 4.21482 11.9908C4.2132 12.3445 4.07137 12.6832 3.82036 12.9327C3.56936 13.1822 3.2296 13.3223 2.87543 13.3223ZM13.3337 21.1096C13.3373 21.3749 13.2619 21.6352 13.1169 21.8576C12.972 22.08 12.7641 22.2543 12.5197 22.3583C12.2753 22.4624 12.0054 22.4915 11.7444 22.442C11.4834 22.3924 11.243 22.2665 11.0539 22.0802C10.8647 21.8939 10.7353 21.6556 10.6821 21.3956C10.6289 21.1357 10.6544 20.8658 10.7552 20.6203C10.856 20.3749 11.0276 20.1649 11.2483 20.0171C11.4689 19.8693 11.7286 19.7903 11.9943 19.7903C12.3463 19.7903 12.6843 19.9287 12.9349 20.1756C13.1856 20.4225 13.3288 20.758 13.3337 21.1096ZM12.1533 17.8114C10.9979 17.8114 9.86849 17.4696 8.90752 16.8291C7.94656 16.1886 7.19715 15.2781 6.75391 14.2126C6.31066 13.1471 6.19346 11.9743 6.41708 10.8424C6.64071 9.71039 7.19514 8.66996 8.01039 7.85241C8.82564 7.03486 9.86515 6.47684 10.9977 6.24879C12.1303 6.02074 13.3051 6.13289 14.3739 6.57108C15.4427 7.00927 16.3575 7.75386 17.0029 8.71084C17.6483 9.66783 17.9953 10.7943 18.0001 11.9481C18.0025 12.7167 17.8531 13.4782 17.5604 14.1891C17.2678 14.9 16.8376 15.5462 16.2945 16.0908C15.7514 16.6355 15.1061 17.0678 14.3955 17.363C13.6849 17.6583 12.9229 17.8106 12.1533 17.8114ZM19.3334 21.8181C18.8072 21.8181 18.2928 21.6622 17.8553 21.3703C17.4178 21.0784 17.0768 20.6634 16.8755 20.1779C16.6741 19.6925 16.6214 19.1583 16.7241 18.6429C16.8267 18.1275 17.0801 17.6541 17.4522 17.2826C17.8242 16.911 18.2983 16.658 18.8144 16.5554C19.3304 16.4529 19.8654 16.5055 20.3515 16.7066C20.8376 16.9077 21.2531 17.2483 21.5454 17.6852C21.8378 18.1221 21.9938 18.6358 21.9938 19.1612C21.9938 19.5101 21.925 19.8556 21.7913 20.1779C21.6576 20.5003 21.4616 20.7932 21.2146 21.0399C20.9675 21.2866 20.6743 21.4823 20.3515 21.6158C20.0287 21.7493 19.6828 21.8181 19.3334 21.8181Z" fill="currentColor"/>
</svg>
