<svg width="24" height="24" viewBox="0 0 24 24" fill="none" xmlns="http://www.w3.org/2000/svg">
<circle cx="11.9905" cy="12.0476" r="4.63115" fill="#C9C2EA"/>
<path d="M3.75667 7.94232C3.88918 7.94232 4.00955 8.00875 4.08187 8.11713L6.40804 11.7265C6.48031 11.847 6.48603 11.9974 6.41976 12.124C6.35347 12.2444 6.22136 12.323 6.08285 12.329H5.54671C5.75164 15.7514 8.55912 18.4148 12.0116 18.415C13.6626 18.415 15.242 17.788 16.4471 16.6552C16.6038 16.5108 16.8504 16.5172 16.995 16.6738C17.1393 16.8304 17.1337 17.077 16.9774 17.2216C15.6277 18.487 13.8614 19.1865 12.0116 19.1865C8.01684 19.1863 4.76361 15.9322 4.76351 11.9374C4.76351 11.7265 4.93836 11.5517 5.14925 11.5517H5.37191L3.75081 9.039L2.09945 11.5517H2.40707C2.61796 11.5517 2.79281 11.7265 2.79281 11.9374V11.9911C2.79281 17.0766 6.92615 21.2107 12.0116 21.2109C15.0665 21.2109 17.9173 19.7043 19.6346 17.1796C19.7551 17.005 19.996 16.9564 20.1707 17.0829C20.255 17.1432 20.3147 17.2277 20.3328 17.33C20.3509 17.4323 20.3333 17.5348 20.2733 17.6191C18.4054 20.3547 15.3196 21.9882 12.0116 21.9882C6.64901 21.988 2.20198 17.6675 2.02718 12.329H1.38265C1.24416 12.329 1.112 12.2504 1.04574 12.124C0.979488 11.9975 0.985091 11.847 1.06331 11.7265L3.43148 8.11713C3.50374 8.00873 3.6242 7.9424 3.75667 7.94232ZM12.0116 7.02631C14.7531 7.02631 16.9762 9.2557 16.9764 11.9911C16.9764 14.7328 14.7472 16.957 12.0116 16.957C9.27605 16.9569 7.05274 14.7267 7.04671 11.9911C7.04689 9.24974 9.27616 7.02642 12.0116 7.02631ZM12.0116 7.80365C9.70397 7.80376 7.82423 9.68358 7.82406 11.9911C7.82406 14.3049 9.70387 16.1855 12.0116 16.1796C14.3193 16.1796 16.1991 14.2989 16.1991 11.9911C16.1989 9.68352 14.3192 7.80365 12.0116 7.80365ZM12.0116 2.00092C17.4405 2.00095 21.7969 6.18296 22.0018 11.5517L22.6102 11.5576C22.7488 11.5576 22.8877 11.648 22.9539 11.7685C23.0201 11.889 23.0137 12.0396 22.9354 12.1601L20.5975 15.7275C20.5252 15.8357 20.4047 15.9023 20.2723 15.9023C20.1399 15.9022 20.0194 15.8357 19.9471 15.7275L17.6151 12.1601C17.5368 12.0396 17.5313 11.8891 17.5975 11.7626C17.6637 11.6362 17.7899 11.5576 17.9344 11.5576H18.4705C18.2476 8.15917 15.4401 5.51951 12.0116 5.51947C10.4812 5.51947 8.99868 6.06182 7.83578 7.04388C7.67312 7.18244 7.43239 7.15862 7.29378 6.99603C7.2275 6.9177 7.19694 6.82112 7.20296 6.71869C7.21505 6.6164 7.26345 6.52027 7.34164 6.45404C8.64315 5.35137 10.3003 4.74213 12.0116 4.74213C15.9824 4.74216 19.2365 7.97249 19.2606 11.9433C19.2605 12.0457 19.2176 12.1484 19.1453 12.2206C19.0672 12.2926 18.9711 12.3348 18.869 12.3349H18.6453L20.2664 14.8056L21.8934 12.3222L21.6102 12.3163C21.3993 12.3163 21.2303 12.1415 21.2303 11.9306C21.2301 6.88141 17.0969 2.77244 12.0116 2.7724C8.99276 2.7724 6.16064 4.25472 4.43734 6.73724C4.31678 6.91182 4.07588 6.95341 3.90121 6.83295C3.8109 6.77871 3.75619 6.68826 3.73812 6.58588C3.72021 6.48361 3.74437 6.38103 3.80453 6.29681C5.67245 3.60347 8.73974 2.00092 12.0116 2.00092ZM12.0125 8.52045C12.2233 8.52065 12.3983 8.69543 12.3983 8.90619V9.23724H12.8319C13.3017 9.23737 13.6873 9.61126 13.6873 10.0751V10.6357C13.6873 10.8465 13.5124 11.0214 13.3016 11.0214C13.0908 11.0214 12.9159 10.8465 12.9159 10.6357V10.0751C12.9158 10.0451 12.8859 10.0088 12.8319 10.0087H11.1805C11.1264 10.0088 11.0965 10.045 11.0965 10.0751V11.4853C11.0967 11.5034 11.1205 11.5458 11.1805 11.5458H12.8319C13.3017 11.546 13.6873 11.919 13.6873 12.3769V13.9316C13.6873 14.3894 13.3077 14.7625 12.8319 14.7626H12.3983V15.0947C12.3981 15.3053 12.2232 15.4802 12.0125 15.4804C11.8017 15.4804 11.6269 15.3055 11.6268 15.0947V14.7626H11.1864C10.7106 14.7625 10.3248 14.3895 10.3368 13.9257V13.3593C10.3368 13.1485 10.5117 12.9737 10.7225 12.9736C10.9334 12.9736 11.1082 13.1484 11.1082 13.3593V13.9257C11.1084 13.9439 11.1326 13.9851 11.1922 13.9853H11.9637C11.9664 13.9794 12.049 13.9735 12.1024 13.9853H12.8377C12.8977 13.9853 12.9216 13.9498 12.9217 13.9257V12.371C12.9217 12.353 12.8979 12.3105 12.8377 12.3105H11.1864C10.7166 12.3103 10.3311 11.9371 10.3309 11.4794V10.0693C10.3309 9.6054 10.7105 9.23154 11.1864 9.23138H11.6268V8.90619C11.6268 8.6953 11.8016 8.52045 12.0125 8.52045Z" fill="currentColor"/>
</svg>
