<svg width="24" height="24" viewBox="0 0 24 24" fill="none" xmlns="http://www.w3.org/2000/svg">
<path d="M17.0079 14.3335C18.6896 14.3335 20.0529 12.9702 20.0529 11.2885C20.0529 9.60674 18.6896 8.24344 17.0079 8.24344C15.3262 8.24344 13.9629 9.60674 13.9629 11.2885C13.9629 12.9702 15.3262 14.3335 17.0079 14.3335Z" fill="#C9C2EA"/>
<path d="M17.1423 7.85213C17.2998 7.85334 17.454 7.80776 17.5856 7.72115C17.7171 7.63455 17.8199 7.51083 17.881 7.3657C17.9421 7.22056 17.9587 7.06055 17.9287 6.90596C17.8988 6.75137 17.8236 6.60916 17.7126 6.49738C17.6017 6.3856 17.4601 6.30929 17.3057 6.27812C17.1514 6.24695 16.9912 6.26233 16.8456 6.32231C16.7 6.38229 16.5755 6.48416 16.4879 6.61501C16.4003 6.74585 16.3535 6.89978 16.3535 7.05725C16.3535 7.26701 16.4364 7.46827 16.5842 7.61717C16.7319 7.76606 16.9325 7.85052 17.1423 7.85213ZM17.1423 6.7393C17.1845 6.73848 17.2266 6.74611 17.2658 6.76172C17.3051 6.77734 17.3409 6.80063 17.3711 6.83023C17.4012 6.85984 17.4252 6.89517 17.4416 6.93415C17.4579 6.97312 17.4664 7.01498 17.4664 7.05725C17.4664 7.1432 17.4322 7.22563 17.3714 7.2864C17.3107 7.34717 17.2282 7.38132 17.1423 7.38132C17.1 7.38133 17.0582 7.3729 17.0192 7.35654C16.9802 7.34018 16.9449 7.31622 16.9153 7.28604C16.8857 7.25586 16.8624 7.22009 16.8468 7.1808C16.8311 7.14152 16.8235 7.09952 16.8243 7.05725C16.8243 6.97292 16.8578 6.89205 16.9175 6.83242C16.9771 6.7728 17.058 6.7393 17.1423 6.7393Z" fill="currentColor"/>
<path d="M17.2766 15.1712C17.1188 15.17 16.9643 15.2157 16.8327 15.3026C16.701 15.3895 16.5982 15.5135 16.5373 15.659C16.4763 15.8045 16.4601 15.9648 16.4906 16.1196C16.521 16.2744 16.5969 16.4166 16.7084 16.5281C16.8199 16.6396 16.9621 16.7155 17.1169 16.7459C17.2716 16.7764 17.432 16.7602 17.5775 16.6992C17.723 16.6383 17.847 16.5355 17.9339 16.4038C18.0208 16.2722 18.0665 16.1177 18.0653 15.9599C18.0637 15.7512 17.9801 15.5515 17.8325 15.404C17.685 15.2564 17.4853 15.1728 17.2766 15.1712ZM17.2766 16.284C17.234 16.284 17.1919 16.2756 17.1525 16.2593C17.1132 16.243 17.0775 16.2192 17.0474 16.1891C17.0173 16.159 16.9934 16.1233 16.9772 16.0839C16.9609 16.0446 16.9525 16.0025 16.9525 15.9599C16.9525 15.9177 16.9609 15.8758 16.9773 15.8368C16.9936 15.7978 17.0176 15.7625 17.0478 15.7329C17.0779 15.7033 17.1137 15.68 17.153 15.6644C17.1923 15.6488 17.2343 15.6412 17.2766 15.642C17.3609 15.642 17.4418 15.6755 17.5014 15.7351C17.561 15.7947 17.5945 15.8756 17.5945 15.9599C17.5953 16.0022 17.5877 16.0442 17.5721 16.0835C17.5565 16.1228 17.5332 16.1585 17.5036 16.1887C17.474 16.2189 17.4386 16.2429 17.3997 16.2592C17.3607 16.2756 17.3188 16.284 17.2766 16.284Z" fill="currentColor"/>
<path d="M17.0693 14.3641C17.6851 14.3641 18.2871 14.1814 18.799 13.8391C19.311 13.4969 19.7099 13.0104 19.9453 12.4414C20.1806 11.8723 20.2419 11.2463 20.1213 10.6424C20.0007 10.0385 19.7037 9.48394 19.2678 9.04893C18.832 8.61391 18.2769 8.31798 17.6727 8.19859C17.0686 8.07919 16.4426 8.1417 15.8741 8.37819C15.3055 8.61469 14.8198 9.01455 14.4786 9.52717C14.1373 10.0398 13.9558 10.6421 13.957 11.2579C13.9587 12.0823 14.2873 12.8723 14.8708 13.4547C15.4542 14.037 16.2449 14.3641 17.0693 14.3641ZM17.0693 8.61646C17.5928 8.61161 18.1058 8.7624 18.5434 9.04968C18.981 9.33697 19.3234 9.74779 19.5271 10.23C19.7307 10.7122 19.7866 11.2441 19.6874 11.7581C19.5883 12.2721 19.3386 12.745 18.9702 13.1169C18.6018 13.4888 18.1312 13.7428 17.6182 13.8467C17.1051 13.9506 16.5727 13.8997 16.0887 13.7006C15.6046 13.5014 15.1906 13.1628 14.8992 12.7279C14.6079 12.293 14.4523 11.7814 14.4523 11.2579C14.4523 10.5616 14.7272 9.89339 15.2173 9.39872C15.7074 8.90404 16.373 8.62291 17.0693 8.61646Z" fill="currentColor"/>
<path d="M22.7676 5.6876H21.2941V4.23846C21.2941 4.17627 21.2698 4.11652 21.2264 4.07197C21.183 4.02742 21.1239 4.00159 21.0617 4H13.0762C13.014 4.00159 12.9549 4.02742 12.9115 4.07197C12.8681 4.11652 12.8438 4.17627 12.8438 4.23846V6.12784H9.45641C8.92715 6.09772 8.3979 6.18705 7.90784 6.38921C7.41779 6.59137 6.97949 6.90118 6.62541 7.29571C6.60347 7.27233 6.57694 7.25374 6.54748 7.24111C6.51801 7.22849 6.48626 7.22209 6.4542 7.22233H1.23243C1.2014 7.22232 1.17068 7.22853 1.14208 7.24059C1.11348 7.25264 1.08759 7.27031 1.06593 7.29254C1.04428 7.31476 1.02729 7.3411 1.01598 7.37C1.00467 7.3989 0.999264 7.42978 1.00008 7.4608V17.8554C1.00008 17.917 1.02456 17.9761 1.06813 18.0197C1.11171 18.0633 1.17081 18.0878 1.23243 18.0878H6.4542C6.49484 18.0867 6.53457 18.0755 6.5698 18.0552C6.60503 18.035 6.63465 18.0062 6.65598 17.9716C7.09011 18.583 7.95836 19.1945 9.71322 19.1945H13.2291C13.2601 19.1953 13.2909 19.1899 13.3198 19.1786C13.3487 19.1673 13.3751 19.1503 13.3973 19.1286C13.4195 19.107 13.4372 19.0811 13.4493 19.0525C13.4613 19.0239 13.4675 18.9932 13.4675 18.9621V18.5341H14.5742V19.9833C14.5742 20.0449 14.5987 20.104 14.6423 20.1476C14.6859 20.1911 14.745 20.2156 14.8066 20.2156H22.7676C22.7982 20.2156 22.8284 20.2096 22.8566 20.1979C22.8848 20.1863 22.9104 20.1691 22.9319 20.1476C22.9535 20.126 22.9706 20.1004 22.9823 20.0722C22.994 20.044 23 20.0138 23 19.9833V5.91995C23 5.88944 22.994 5.85922 22.9823 5.83103C22.9706 5.80284 22.9535 5.77723 22.9319 5.75565C22.9104 5.73408 22.8848 5.71696 22.8566 5.70528C22.8284 5.69361 22.7982 5.6876 22.7676 5.6876ZM6.22185 17.6047H1.4709V7.69315H6.22185V17.6047ZM9.70711 18.6992C6.7477 18.6992 6.69267 16.8649 6.69267 16.7793V8.07225C6.80273 7.83378 7.45698 6.617 9.45641 6.617H12.8438V10.567H12.2018C12.1471 10.5677 12.0944 10.5878 12.053 10.6235C12.0116 10.6593 11.9842 10.7086 11.9756 10.7626C11.9756 10.7626 11.4803 13.2084 9.52979 13.8566C9.47101 13.8774 9.42273 13.9204 9.3953 13.9764C9.36787 14.0324 9.36347 14.097 9.38304 14.1562C9.39843 14.2024 9.42796 14.2426 9.46746 14.2711C9.50696 14.2997 9.55443 14.3151 9.60316 14.3151H9.67653C11.5659 13.7037 12.2202 11.6859 12.3791 11.0439H12.8316V18.2712C12.8309 18.3145 12.8426 18.3571 12.8653 18.394C12.8881 18.4308 12.921 18.4604 12.96 18.4791V18.6992H9.70711ZM13.3147 17.5375V4.47082H20.8232V18.0389H13.4431V17.7454C13.4418 17.7025 13.4292 17.6607 13.4067 17.6242C13.3841 17.5877 13.3524 17.5578 13.3147 17.5375ZM22.5292 19.7203H15.0206V18.4974H21.0617C21.0927 18.4975 21.1235 18.4913 21.1521 18.4792C21.1807 18.4671 21.2065 18.4495 21.2282 18.4272C21.2499 18.405 21.2668 18.3787 21.2782 18.3498C21.2895 18.3209 21.2949 18.29 21.2941 18.259V6.15841H22.517L22.5292 19.7203Z" fill="currentColor"/>
<path d="M15.3638 11.7715C15.363 11.8382 15.3754 11.9043 15.4001 11.9662C15.4249 12.0281 15.4616 12.0845 15.5081 12.1322C15.5547 12.1799 15.6102 12.2179 15.6715 12.2442C15.7327 12.2704 15.7986 12.2843 15.8652 12.2851H16.7885C16.8549 12.2843 16.9204 12.2704 16.9814 12.2441C17.0423 12.2177 17.0974 12.1796 17.1435 12.1318C17.1895 12.084 17.2257 12.0276 17.2498 11.9657C17.2738 11.9039 17.2854 11.8379 17.2838 11.7715L17.3144 10.7565L18.1765 10.7993L18.1215 11.8204H17.8157C17.7541 11.8204 17.695 11.8449 17.6515 11.8885C17.6079 11.9321 17.5834 11.9912 17.5834 12.0528C17.5834 12.1144 17.6079 12.1735 17.6515 12.2171C17.695 12.2607 17.7541 12.2851 17.8157 12.2851H18.1215C18.1881 12.2843 18.254 12.2704 18.3152 12.2442C18.3765 12.2179 18.432 12.1799 18.4786 12.1322C18.5251 12.0845 18.5618 12.0281 18.5866 11.9662C18.6113 11.9043 18.6237 11.8382 18.6229 11.7715V11.5208H18.8124C18.8465 11.5263 18.8814 11.5244 18.9146 11.5151C18.9479 11.5058 18.9788 11.4894 19.0051 11.467C19.0313 11.4446 19.0525 11.4168 19.067 11.3854C19.0814 11.3541 19.0889 11.3199 19.0889 11.2854C19.0889 11.2509 19.0814 11.2168 19.067 11.1854C19.0525 11.1541 19.0313 11.1262 19.0051 11.1038C18.9788 11.0814 18.9479 11.065 18.9146 11.0557C18.8814 11.0465 18.8465 11.0445 18.8124 11.05H18.6229V10.7993C18.6237 10.7327 18.6113 10.6665 18.5866 10.6046C18.5618 10.5427 18.5251 10.4863 18.4786 10.4387C18.432 10.391 18.3765 10.3529 18.3152 10.3267C18.254 10.3004 18.1881 10.2865 18.1215 10.2857H17.3144C17.2477 10.2865 17.1819 10.3004 17.1206 10.3267C17.0593 10.3529 17.0038 10.391 16.9573 10.4387C16.9107 10.4863 16.874 10.5427 16.8493 10.6046C16.8245 10.6665 16.8122 10.7327 16.813 10.7993V11.8204L15.8591 11.7715V10.7565H16.1893C16.2206 10.7565 16.2516 10.7503 16.2806 10.7384C16.3095 10.7264 16.3358 10.7088 16.3579 10.6867C16.3801 10.6645 16.3976 10.6382 16.4096 10.6093C16.4216 10.5804 16.4278 10.5494 16.4278 10.518C16.4278 10.487 16.4216 10.4563 16.4095 10.4277C16.3975 10.3991 16.3798 10.3732 16.3576 10.3515C16.3353 10.3299 16.309 10.3129 16.2801 10.3016C16.2512 10.2903 16.2203 10.2849 16.1893 10.2857H15.8591C15.7925 10.2865 15.7266 10.3004 15.6654 10.3267C15.6041 10.3529 15.5486 10.391 15.502 10.4387C15.4555 10.4863 15.4188 10.5427 15.394 10.6046C15.3692 10.6665 15.3569 10.7327 15.3577 10.7993V11.05H15.1682C15.1123 11.059 15.0614 11.0877 15.0247 11.1308C14.9879 11.174 14.9678 11.2288 14.9678 11.2854C14.9678 11.3421 14.9879 11.3969 15.0247 11.44C15.0614 11.4831 15.1123 11.5118 15.1682 11.5208H15.3577L15.3638 11.7715Z" fill="currentColor"/>
</svg>
