<svg width="24" height="24" viewBox="0 0 24 24" fill="none" xmlns="http://www.w3.org/2000/svg">
<path d="M14.2418 9.87138L9.22244 5.97903H7.09766L10.2263 9.87138H14.2418Z" fill="#7866CB"/>
<path d="M3.07408 6.37531C4.41403 7.52302 7.06895 9.80819 7.0494 9.8358C7.15836 9.82939 14.1616 9.83326 17.6919 9.83603C18.5364 9.82613 20.5725 10.0401 21.9609 10.9753C23.6964 12.1443 22.2307 13.4302 20.9448 13.4662C19.916 13.495 16.9132 13.4482 15.5404 13.4212L9.27274 18.2141L7.37536 18.1602L10.9093 13.4212H7.71707C6.7298 13.3149 4.06378 12.7825 1.29785 11.5032V9.83603H3.14539L1.42786 6.37531H3.07408Z" fill="white"/>
<path d="M18.2825 9.5388H14.3779L9.45082 5.70188C9.40798 5.67029 9.35625 5.65304 9.30301 5.65261H7.16592C7.12074 5.65198 7.07635 5.66444 7.0381 5.68848C6.99985 5.71252 6.96938 5.74712 6.95036 5.7881C6.9282 5.82649 6.91653 5.87003 6.91653 5.91436C6.91653 5.95868 6.9282 6.00223 6.95036 6.04061L9.78956 9.5388H7.07353L3.17503 6.11452C3.13264 6.07636 3.07806 6.05453 3.02106 6.05293H1.24117C1.20021 6.05356 1.1601 6.06465 1.12463 6.08515C1.08917 6.10564 1.05954 6.13487 1.03855 6.17005C1.01757 6.20523 1.00593 6.24519 1.00474 6.28613C1.00356 6.32708 1.01286 6.36765 1.03177 6.40398L2.76239 9.5388H1.24117C1.17852 9.53878 1.11834 9.56324 1.07347 9.60696C1.0286 9.65068 1.00258 9.71021 1.00098 9.77283V11.5712C1.00147 11.6193 1.01642 11.6662 1.04387 11.7057C1.07132 11.7453 1.11002 11.7756 1.15495 11.7929C1.35203 11.8668 5.97727 13.6405 7.38147 13.6405H10.3438L6.96884 18.0256C6.94122 18.0609 6.92375 18.1031 6.91832 18.1476C6.9129 18.1921 6.91972 18.2372 6.93804 18.2781C6.95852 18.3175 6.9895 18.3504 7.02755 18.3732C7.0656 18.3961 7.10923 18.4079 7.1536 18.4074H9.27222C9.32545 18.407 9.37719 18.3898 9.42003 18.3582L15.4987 13.6467H20.8384C21.713 13.6467 23.0001 13.154 23.0001 12.1009C23.0001 11.0477 20.666 9.5388 18.2825 9.5388ZM7.68941 6.14531H9.23527L13.608 9.5388H10.3993L7.68941 6.14531ZM20.8384 13.1725H15.4125C15.3613 13.1738 15.3118 13.191 15.2709 13.2218L9.19216 17.9332H7.63398L11.0152 13.5482C11.0492 13.5064 11.0677 13.4542 11.0677 13.4004C11.0677 13.3465 11.0492 13.2943 11.0152 13.2525C10.993 13.2238 10.9638 13.2013 10.9303 13.1873C10.8968 13.1732 10.8603 13.1681 10.8242 13.1725H7.38147C6.19899 13.1725 2.30048 11.719 1.4752 11.3864V10.0315H3.13191C3.17334 10.0329 3.21435 10.0228 3.25027 10.0021C3.2862 9.98138 3.3156 9.95104 3.33515 9.91449C3.35632 9.87912 3.36749 9.83868 3.36749 9.79747C3.36749 9.75626 3.35632 9.71582 3.33515 9.68045L1.64149 6.52716H2.92868L6.82102 9.96992C6.8653 10.009 6.92212 10.0308 6.98115 10.0315H18.2825C20.3888 10.0315 22.5259 11.3618 22.5259 12.1009C22.5259 12.8399 21.5282 13.1725 20.8384 13.1725Z" fill="currentColor"/>
</svg>
