<svg width="24" height="24" viewBox="0 0 24 24" fill="none" xmlns="http://www.w3.org/2000/svg">
<path fill-rule="evenodd" clip-rule="evenodd" d="M9.8386 13.3747C9.3903 13.374 8.94626 13.4617 8.53188 13.6328C8.1175 13.8038 7.74091 14.0549 7.42366 14.3717C7.10641 14.6884 6.85473 15.0646 6.683 15.4787C6.51128 15.8928 6.42289 16.3367 6.42289 16.785V19.4666H17.5807V16.785C17.5807 15.8805 17.2215 15.0131 16.5819 14.3736C15.9424 13.734 15.075 13.3747 14.1705 13.3747L9.8386 13.3747ZM9.83909 12.9548C9.33565 12.954 8.83698 13.0525 8.37163 13.2446C7.90622 13.4367 7.48325 13.7187 7.12694 14.0745C6.77062 14.4302 6.48794 14.8527 6.29507 15.3178C6.1022 15.7829 6.00293 16.2815 6.00293 16.785V19.6766C6.00293 19.7925 6.09694 19.8865 6.21291 19.8865H17.7907C17.9067 19.8865 18.0007 19.7925 18.0007 19.6766V16.785C18.0007 15.7692 17.5972 14.7949 16.8789 14.0766C16.1606 13.3583 15.1863 12.9548 14.1705 12.9548H9.83909Z" fill="currentColor"/>
<path d="M12.0016 12.0602C14.2661 12.0602 16.1018 10.2244 16.1018 7.95992C16.1018 5.69542 14.2661 3.85968 12.0016 3.85968C9.73711 3.85968 7.90137 5.69542 7.90137 7.95992C7.90137 10.2244 9.73711 12.0602 12.0016 12.0602Z" fill="#C9C2EA"/>
<path fill-rule="evenodd" clip-rule="evenodd" d="M12.0026 4.06968C9.85407 4.06968 8.11235 5.81141 8.11235 7.95994C8.11235 10.1085 9.85407 11.8502 12.0026 11.8502C14.1511 11.8502 15.8929 10.1085 15.8929 7.95994C15.8929 5.81141 14.1511 4.06968 12.0026 4.06968ZM7.69238 7.95994C7.69238 5.57947 9.62213 3.64972 12.0026 3.64972C14.3831 3.64972 16.3128 5.57947 16.3128 7.95994C16.3128 10.3404 14.3831 12.2702 12.0026 12.2702C9.62213 12.2702 7.69238 10.3404 7.69238 7.95994Z" fill="currentColor"/>
<path d="M1 6.73913V1H6.73913M17.2609 1H23V6.73913M23 17.2609V23H17.2609M1 17.2609V23H6.73913" stroke="currentColor" stroke-width="0.6"/>
</svg>
