<svg width="24" height="24" viewBox="0 0 24 24" fill="none" xmlns="http://www.w3.org/2000/svg">
<path d="M22.692 3H1.27867C1.20476 3 1.13388 3.02936 1.08162 3.08162C1.02936 3.13388 1 3.20476 1 3.27867V17.6227C1 17.6966 1.02936 17.7675 1.08162 17.8197C1.13388 17.872 1.20476 17.9014 1.27867 17.9014H14.8014C14.8422 17.908 14.8841 17.9056 14.924 17.8945C14.9639 17.8833 15.0009 17.8636 15.0324 17.8368C15.0639 17.8099 15.0893 17.7766 15.1066 17.739C15.124 17.7014 15.133 17.6604 15.133 17.619C15.133 17.5776 15.124 17.5367 15.1066 17.4991C15.0893 17.4615 15.0639 17.4281 15.0324 17.4012C15.0009 17.3744 14.9639 17.3547 14.924 17.3436C14.8841 17.3324 14.8422 17.3301 14.8014 17.3367H1.56467V9.16001H22.4134V17.6227C22.4134 17.6966 22.4427 17.7675 22.495 17.8197C22.5472 17.872 22.6181 17.9014 22.692 17.9014C22.7659 17.9014 22.8368 17.872 22.8891 17.8197C22.9413 17.7675 22.9707 17.6966 22.9707 17.6227V3.27867C22.9707 3.20476 22.9413 3.13388 22.8891 3.08162C22.8368 3.02936 22.7659 3 22.692 3ZM1.56467 6.19V3.56467H22.4134V6.19H1.56467Z" fill="currentColor"/>
<path d="M18.7467 21.634C20.9621 21.634 22.758 19.8381 22.758 17.6227C22.758 15.4073 20.9621 13.6113 18.7467 13.6113C16.5313 13.6113 14.7354 15.4073 14.7354 17.6227C14.7354 19.8381 16.5313 21.634 18.7467 21.634Z" fill="#C9C2EA"/>
<path d="M18.7464 21.8467C17.9102 21.8424 17.094 21.5903 16.4009 21.1224C15.7078 20.6545 15.1689 19.9917 14.8522 19.2178C14.5356 18.4438 14.4553 17.5933 14.6217 16.7738C14.788 15.9542 15.1934 15.2024 15.7868 14.6131C16.3802 14.0238 17.1348 13.6236 17.9555 13.4629C18.7762 13.3023 19.6261 13.3884 20.3978 13.7104C21.1696 14.0324 21.8286 14.5759 22.2917 15.2722C22.7548 15.9685 23.0012 16.7865 22.9998 17.6227C22.9998 18.1799 22.8896 18.7316 22.6755 19.246C22.4614 19.7604 22.1476 20.2273 21.7522 20.62C21.3569 21.0126 20.8878 21.3231 20.3719 21.5336C19.856 21.7442 19.3036 21.8506 18.7464 21.8467ZM18.7464 13.956C18.0212 13.956 17.3123 14.1711 16.7094 14.574C16.1064 14.9769 15.6364 15.5495 15.3589 16.2195C15.0814 16.8895 15.0087 17.6268 15.1502 18.338C15.2917 19.0493 15.6409 19.7026 16.1537 20.2154C16.6665 20.7282 17.3198 21.0774 18.0311 21.2189C18.7424 21.3604 19.4796 21.2878 20.1496 21.0103C20.8196 20.7328 21.3923 20.2628 21.7952 19.6598C22.1981 19.0568 22.4131 18.3479 22.4131 17.6227C22.4131 16.6502 22.0268 15.7176 21.3392 15.03C20.6515 14.3423 19.7189 13.956 18.7464 13.956Z" fill="currentColor"/>
<path d="M19.9131 16.5813C19.9811 16.5813 20.0464 16.5543 20.0945 16.5062C20.1427 16.458 20.1697 16.3928 20.1697 16.3247V15.914C20.1678 15.7435 20.0992 15.5804 19.9786 15.4598C19.858 15.3392 19.695 15.2706 19.5244 15.2687H19.0037V14.836C19.0037 14.7679 18.9767 14.7027 18.9285 14.6545C18.8804 14.6064 18.8151 14.5793 18.7471 14.5793C18.679 14.5793 18.6137 14.6064 18.5656 14.6545C18.5174 14.7027 18.4904 14.7679 18.4904 14.836V15.2687H17.9697C17.7992 15.2706 17.6361 15.3392 17.5155 15.4598C17.3949 15.5804 17.3263 15.7435 17.3244 15.914V17.1973C17.3262 17.3507 17.3825 17.4983 17.4833 17.6139C17.5841 17.7295 17.7227 17.8054 17.8744 17.828C17.9058 17.8348 17.9383 17.8348 17.9697 17.828H19.5244C19.5434 17.8289 19.562 17.8337 19.579 17.842C19.5961 17.8504 19.6113 17.8621 19.6236 17.8765C19.636 17.8909 19.6453 17.9077 19.6509 17.9259C19.6565 17.944 19.6584 17.9631 19.6564 17.982V19.3534C19.6584 19.3726 19.6566 19.3921 19.651 19.4107C19.6455 19.4293 19.6363 19.4465 19.624 19.4615C19.6118 19.4766 19.5966 19.489 19.5795 19.4981C19.5624 19.5072 19.5437 19.5129 19.5244 19.5147H17.9697C17.9504 19.5129 17.9317 19.5072 17.9146 19.4981C17.8975 19.489 17.8823 19.4766 17.8701 19.4615C17.8578 19.4465 17.8486 19.4293 17.8431 19.4107C17.8375 19.3921 17.8357 19.3726 17.8377 19.3534V18.9207C17.8377 18.8526 17.8107 18.7873 17.7625 18.7392C17.7144 18.6911 17.6491 18.664 17.5811 18.664C17.513 18.664 17.4477 18.6911 17.3996 18.7392C17.3514 18.7873 17.3244 18.8526 17.3244 18.9207V19.3534C17.3224 19.44 17.3376 19.5262 17.369 19.6071C17.4003 19.6879 17.4473 19.7617 17.5073 19.8244C17.5672 19.887 17.6389 19.9373 17.7182 19.9722C17.7976 20.0072 17.883 20.0261 17.9697 20.028H18.4904V20.38C18.4904 20.4481 18.5174 20.5134 18.5656 20.5615C18.6137 20.6096 18.679 20.6367 18.7471 20.6367C18.8151 20.6367 18.8804 20.6096 18.9285 20.5615C18.9767 20.5134 19.0037 20.4481 19.0037 20.38V20.028H19.5244C19.6111 20.0261 19.6965 20.0072 19.7759 19.9722C19.8552 19.9373 19.9269 19.887 19.9868 19.8244C20.0468 19.7617 20.0938 19.6879 20.1251 19.6071C20.1565 19.5262 20.1717 19.44 20.1697 19.3534V18.004C20.1702 17.8496 20.1159 17.7001 20.0166 17.582C19.9172 17.4638 19.7792 17.3847 19.6271 17.3587C19.5932 17.3518 19.5583 17.3518 19.5244 17.3587H17.9697C17.9341 17.3568 17.9005 17.3413 17.8759 17.3154C17.8513 17.2894 17.8377 17.2551 17.8377 17.2193V15.914C17.8377 15.879 17.8516 15.8454 17.8764 15.8207C17.9011 15.7959 17.9347 15.782 17.9697 15.782H19.5244C19.5594 15.782 19.593 15.7959 19.6177 15.8207C19.6425 15.8454 19.6564 15.879 19.6564 15.914V16.3247C19.6564 16.3928 19.6834 16.458 19.7316 16.5062C19.7797 16.5543 19.845 16.5813 19.9131 16.5813Z" fill="currentColor"/>
</svg>
