<svg width="24" height="24" viewBox="0 0 24 24" fill="none" xmlns="http://www.w3.org/2000/svg">
<g clip-path="url(#clip0_1_2055)">
<mask id="mask0_1_2055" style="mask-type:luminance" maskUnits="userSpaceOnUse" x="0" y="0" width="24" height="24">
<path d="M24 0H0V24H24V0Z" fill="white"/>
</mask>
<g mask="url(#mask0_1_2055)">
<path fill-rule="evenodd" clip-rule="evenodd" d="M10.2852 4.25683V1H10.7982V4.25683C10.7982 4.90433 11.3244 5.42924 11.9736 5.42924H16.2043V5.94097H11.9736C11.0411 5.94097 10.2852 5.18696 10.2852 4.25683Z" fill="currentColor"/>
<path fill-rule="evenodd" clip-rule="evenodd" d="M2.74512 3.81559C2.74512 3.67428 2.85996 3.55972 3.00164 3.55972H8.91326C9.05496 3.55972 9.16976 3.67428 9.16976 3.81559C9.16976 3.95691 9.05496 4.07147 8.91326 4.07147H3.00164C2.85996 4.07147 2.74512 3.95691 2.74512 3.81559Z" fill="currentColor"/>
<path fill-rule="evenodd" clip-rule="evenodd" d="M2.74512 5.56358C2.74512 5.42227 2.85996 5.30771 3.00164 5.30771H8.91326C9.05496 5.30771 9.16976 5.42227 9.16976 5.56358C9.16976 5.70489 9.05496 5.81945 8.91326 5.81945H3.00164C2.85996 5.81945 2.74512 5.70489 2.74512 5.56358Z" fill="currentColor"/>
<path fill-rule="evenodd" clip-rule="evenodd" d="M2.74512 7.31115C2.74512 7.16982 2.85996 7.05527 3.00164 7.05527H8.91326C9.05496 7.05527 9.16976 7.16982 9.16976 7.31115C9.16976 7.45242 9.05496 7.56699 8.91326 7.56699H3.00164C2.85996 7.56699 2.74512 7.45242 2.74512 7.31115Z" fill="currentColor"/>
<path fill-rule="evenodd" clip-rule="evenodd" d="M2.60254 9.3492C2.60254 9.20786 2.71739 9.09329 2.85906 9.09329H7.39338C7.53502 9.09329 7.64988 9.20786 7.64988 9.3492C7.64988 9.49048 7.53502 9.60505 7.39338 9.60505H2.85906C2.71739 9.60505 2.60254 9.49048 2.60254 9.3492Z" fill="currentColor"/>
<path fill-rule="evenodd" clip-rule="evenodd" d="M2.60254 11.0158C2.60254 10.8744 2.71739 10.7599 2.85906 10.7599H6.20013C6.3418 10.7599 6.45665 10.8744 6.45665 11.0158C6.45665 11.157 6.3418 11.2716 6.20013 11.2716H2.85906C2.71739 11.2716 2.60254 11.157 2.60254 11.0158Z" fill="currentColor"/>
<path fill-rule="evenodd" clip-rule="evenodd" d="M2.60254 12.9201C2.60254 12.7788 2.71739 12.6643 2.85906 12.6643H5.24554C5.38721 12.6643 5.50205 12.7788 5.50205 12.9201C5.50205 13.0615 5.38721 13.176 5.24554 13.176H2.85906C2.71739 13.176 2.60254 13.0615 2.60254 12.9201Z" fill="currentColor"/>
<path fill-rule="evenodd" clip-rule="evenodd" d="M2.60254 14.5862C2.60254 14.4449 2.71739 14.3304 2.85906 14.3304H4.76824C4.90991 14.3304 5.02476 14.4449 5.02476 14.5862C5.02476 14.7275 4.90991 14.8421 4.76824 14.8421H2.85906C2.71739 14.8421 2.60254 14.7275 2.60254 14.5862Z" fill="currentColor"/>
<path fill-rule="evenodd" clip-rule="evenodd" d="M2.60254 16.2529C2.60254 16.1116 2.71739 15.997 2.85906 15.997H4.76824C4.90991 15.997 5.02476 16.1116 5.02476 16.2529C5.02476 16.3942 4.90991 16.5088 4.76824 16.5088H2.85906C2.71739 16.5088 2.60254 16.3942 2.60254 16.2529Z" fill="currentColor"/>
<path d="M16.375 5.43945V8.54492C16.2111 8.39712 16.0389 8.26287 15.8623 8.13867V5.68457L10.6592 1.51172H1.5127V18.9365H15.8623V16.9521C16.0389 16.8279 16.2111 16.6937 16.375 16.5459V19.4482H1V1H10.8398L16.375 5.43945Z" fill="currentColor"/>
<path fill-rule="evenodd" clip-rule="evenodd" d="M16.2056 15.9871C18.1109 14.0866 18.1109 11.0051 16.2056 9.10455C14.3002 7.20397 11.2109 7.20397 9.30556 9.10455C7.40017 11.0051 7.40017 14.0866 9.30556 15.9871C11.2109 17.8877 14.3002 17.8877 16.2056 15.9871ZM16.5754 16.356C18.6851 14.2517 18.6851 10.84 16.5754 8.73565C14.4658 6.63137 11.0454 6.63137 8.93573 8.73565C6.82611 10.84 6.82611 14.2517 8.93573 16.356C11.0454 18.4604 14.4658 18.4604 16.5754 16.356Z" fill="currentColor"/>
<path d="M14.9777 13.7548V14.3433H10.54V13.7548C10.54 13.3454 10.8735 13.0128 11.3609 12.7825C11.8226 12.5522 12.3869 12.4243 12.7717 12.4243C13.1565 12.4243 13.7208 12.5522 14.1826 12.7825C14.6443 13.0128 14.9777 13.3454 14.9777 13.7548Z" fill="#C9C2EA"/>
<path d="M13.9072 10.7865C13.9328 11.0168 13.8559 11.2471 13.7276 11.4518C13.5994 11.6565 13.4198 11.81 13.2146 11.8612C13.0093 11.9635 12.7528 11.9891 12.522 11.9379C12.3168 11.9124 12.1116 11.81 11.932 11.6309C11.7781 11.4774 11.6755 11.2727 11.6242 11.0424C11.5728 10.8121 11.6242 10.5818 11.7011 10.3772C11.8037 10.1724 11.9576 9.99336 12.1372 9.8654C12.3681 9.73745 12.5733 9.68628 12.8041 9.68628C13.0863 9.68628 13.3685 9.83979 13.5481 10.0189C13.7789 10.2236 13.8815 10.4795 13.9072 10.7865Z" fill="#C9C2EA"/>
<path fill-rule="evenodd" clip-rule="evenodd" d="M12.7704 12.6805C12.429 12.6805 11.9037 12.7976 11.4743 13.0117L11.4719 13.0129L11.4694 13.014C11.0065 13.2328 10.7953 13.5004 10.7953 13.7551V14.0877H14.7199V13.7551C14.7199 13.4977 14.5053 13.2305 14.0666 13.0117C13.6372 12.7976 13.1119 12.6805 12.7704 12.6805ZM11.2473 12.5527C11.741 12.3071 12.343 12.1687 12.7704 12.1687C13.1985 12.1687 13.8019 12.3075 14.296 12.5539C14.7807 12.7957 15.233 13.1937 15.233 13.7551V14.5995H10.2822V13.7551C10.2822 13.1919 10.7364 12.7947 11.2473 12.5527Z" fill="currentColor"/>
<path fill-rule="evenodd" clip-rule="evenodd" d="M12.2764 10.0823C12.1395 10.1827 12.02 10.3217 11.9382 10.4802C11.8719 10.6605 11.8414 10.831 11.8763 10.9872C11.919 11.1793 12.0018 11.3373 12.1151 11.4503C12.2599 11.5949 12.4143 11.6668 12.5555 11.6844L12.5675 11.6859L12.5793 11.6885C12.758 11.7281 12.9537 11.7064 13.1015 11.6327L13.1267 11.6201L13.154 11.6133C13.2765 11.5828 13.4072 11.4834 13.5117 11.3165C13.6206 11.1427 13.6712 10.9702 13.6539 10.8152L13.6535 10.8116L13.6532 10.8081C13.6317 10.5509 13.5503 10.3621 13.3793 10.2105L13.3736 10.2055L13.3683 10.2002C13.2228 10.055 13.0023 9.94248 12.8058 9.94248C12.6245 9.94248 12.4651 9.97996 12.2764 10.0823ZM12.0143 9.6421C12.2816 9.49394 12.5295 9.43079 12.8058 9.43079C13.1706 9.43079 13.5118 9.62208 13.7257 9.83302C14.0115 10.0892 14.1341 10.409 14.1642 10.7622C14.197 11.0664 14.0938 11.3531 13.9468 11.5878C13.7998 11.8224 13.5811 12.0245 13.3061 12.1024C13.0522 12.2214 12.7508 12.2481 12.4797 12.1906C12.2148 12.1546 11.9632 12.0226 11.7522 11.8121C11.5577 11.6181 11.4352 11.3668 11.3754 11.0983C11.3084 10.7976 11.3783 10.512 11.4626 10.2876L11.4673 10.2751L11.4734 10.2631C11.5944 10.0215 11.7757 9.81002 11.9898 9.65755L12.0016 9.64909L12.0143 9.6421Z" fill="currentColor"/>
<path d="M16.0029 16.6486L16.5025 16.1503L17.7515 17.3962L17.2519 17.8945L16.0029 16.6486Z" fill="currentColor"/>
<path fill-rule="evenodd" clip-rule="evenodd" d="M18.5023 17.3726L17.2294 18.6421L20.5006 21.9051L21.7734 20.6355L18.5023 17.3726ZM16.5039 18.6421L20.5006 22.6288L22.4989 20.6355L18.5023 16.6488L16.5039 18.6421Z" fill="currentColor"/>
</g>
</g>
<defs>
<clipPath id="clip0_1_2055">
<rect width="24" height="24" fill="white"/>
</clipPath>
</defs>
</svg>
