<svg width="24" height="24" viewBox="0 0 24 24" fill="none" xmlns="http://www.w3.org/2000/svg">
<path d="M9.6728 13.8251H7.69531V15.8026H9.6728V13.8251Z" fill="#C9C2EA"/>
<path d="M4.43076 13.5057C4.87847 13.5057 5.24141 13.1428 5.24141 12.6951C5.24141 12.2474 4.87847 11.8845 4.43076 11.8845C3.98306 11.8845 3.62012 12.2474 3.62012 12.6951C3.62012 13.1428 3.98306 13.5057 4.43076 13.5057Z" fill="#C9C2EA"/>
<path d="M16.7188 9.02882C17.1666 9.02882 17.5295 8.66588 17.5295 8.21818C17.5295 7.77047 17.1666 7.40753 16.7188 7.40753C16.2711 7.40753 15.9082 7.77047 15.9082 8.21818C15.9082 8.66588 16.2711 9.02882 16.7188 9.02882Z" fill="#C9C2EA"/>
<path fill-rule="evenodd" clip-rule="evenodd" d="M4.42959 12.3002C4.21146 12.3002 4.03463 12.477 4.03463 12.6952C4.03463 12.9133 4.21146 13.0901 4.42959 13.0901C4.64773 13.0901 4.82456 12.9133 4.82456 12.6952C4.82456 12.477 4.64773 12.3002 4.42959 12.3002ZM3.49805 12.6952C3.49805 12.1807 3.91512 11.7636 4.42959 11.7636C4.94407 11.7636 5.36114 12.1807 5.36114 12.6952C5.36114 13.2096 4.94407 13.6267 4.42959 13.6267C3.91512 13.6267 3.49805 13.2096 3.49805 12.6952Z" fill="currentColor"/>
<path fill-rule="evenodd" clip-rule="evenodd" d="M16.7187 7.82314C16.5005 7.82314 16.3237 7.99998 16.3237 8.21811C16.3237 8.43624 16.5005 8.61307 16.7187 8.61307C16.9368 8.61307 17.1136 8.43624 17.1136 8.21811C17.1136 7.99998 16.9368 7.82314 16.7187 7.82314ZM15.7871 8.21811C15.7871 7.70363 16.2042 7.28656 16.7187 7.28656C17.2331 7.28656 17.6502 7.70363 17.6502 8.21811C17.6502 8.73259 17.2331 9.14965 16.7187 9.14965C16.2042 9.14965 15.7871 8.73259 15.7871 8.21811Z" fill="currentColor"/>
<path fill-rule="evenodd" clip-rule="evenodd" d="M14.0483 9.57197C13.4338 7.8196 11.5168 6.89312 9.76586 7.5071L9.76545 7.50724C8.54317 7.93362 7.71824 9.00263 7.54762 10.2026C7.52676 10.3493 7.39093 10.4514 7.24423 10.4305C7.09753 10.4096 6.99552 10.2738 7.01638 10.1271C7.21423 8.73557 8.17018 7.49552 9.58852 7.00067C11.6203 6.28838 13.8421 7.3636 14.5544 9.39369C14.6541 9.67302 14.7133 9.9507 14.746 10.2253C14.7635 10.3724 14.6584 10.5059 14.5113 10.5234C14.3641 10.5409 14.2307 10.4358 14.2131 10.2887C14.1844 10.0477 14.1332 9.80972 14.0488 9.57343L14.0483 9.57197L14.0483 9.57197Z" fill="currentColor"/>
<path fill-rule="evenodd" clip-rule="evenodd" d="M11.5749 8.86153C11.5749 8.86137 11.575 8.8617 11.5749 8.86153L11.7159 9.26603C11.7647 9.40595 11.6908 9.55891 11.5508 9.60767C11.4109 9.65643 11.258 9.58253 11.2092 9.44261L11.068 9.03728C11.0633 9.0237 11.0505 9.00665 11.0274 8.99594C11.0046 8.98536 10.98 8.98445 10.9592 8.99209L10.9552 8.99356L9.75851 9.41083C9.70045 9.43168 9.68386 9.48122 9.69625 9.52019L9.892 10.083C9.94068 10.2229 9.86669 10.3758 9.72674 10.4245C9.58679 10.4732 9.43387 10.3992 9.3852 10.2592L9.18753 9.69096C9.07778 9.36172 9.25784 9.01912 9.57958 8.90495L9.58096 8.90446L10.7768 8.48747C11.0965 8.37166 11.463 8.53769 11.5749 8.86153Z" fill="currentColor"/>
<path fill-rule="evenodd" clip-rule="evenodd" d="M9.99743 8.17394C10.1372 8.12462 10.2904 8.19792 10.3397 8.33764L10.524 8.85965C10.5733 8.99937 10.5 9.15262 10.3603 9.20194C10.2205 9.25125 10.0673 9.17796 10.018 9.03823L9.83373 8.51623C9.78441 8.3765 9.85771 8.22325 9.99743 8.17394Z" fill="currentColor"/>
<path fill-rule="evenodd" clip-rule="evenodd" d="M7.60254 19.2294C7.60254 19.0812 7.72266 18.9611 7.87083 18.9611H8.74289C8.89106 18.9611 9.01118 19.0812 9.01118 19.2294C9.01118 19.3776 8.89106 19.4977 8.74289 19.4977H7.87083C7.72266 19.4977 7.60254 19.3776 7.60254 19.2294Z" fill="currentColor"/>
<path fill-rule="evenodd" clip-rule="evenodd" d="M7.60254 18.2223C7.60254 18.0741 7.72266 17.954 7.87083 17.954H11.1564C11.3046 17.954 11.4247 18.0741 11.4247 18.2223C11.4247 18.3704 11.3046 18.4906 11.1564 18.4906H7.87083C7.72266 18.4906 7.60254 18.3704 7.60254 18.2223Z" fill="currentColor"/>
<path fill-rule="evenodd" clip-rule="evenodd" d="M9.8623 19.2294C9.8623 19.0812 9.98242 18.9611 10.1306 18.9611H13.2688C13.4169 18.9611 13.5371 19.0812 13.5371 19.2294C13.5371 19.3776 13.4169 19.4977 13.2688 19.4977H10.1306C9.98242 19.4977 9.8623 19.3776 9.8623 19.2294Z" fill="currentColor"/>
<path fill-rule="evenodd" clip-rule="evenodd" d="M5.72266 10.2509C5.72266 10.1027 5.84277 9.9826 5.99095 9.9826H22.732C22.8802 9.9826 23.0003 10.1027 23.0003 10.2509V20.6849C23.0003 20.833 22.8802 20.9532 22.732 20.9532H5.99095C5.84277 20.9532 5.72266 20.833 5.72266 20.6849V10.2509ZM6.25924 10.5192V20.4166H22.4637V10.5192H6.25924Z" fill="currentColor"/>
<path fill-rule="evenodd" clip-rule="evenodd" d="M17.1925 3.02667C17.2566 3.05763 17.3058 3.11282 17.3293 3.18008L19.3006 8.84231C19.3493 8.98224 19.2754 9.13518 19.1354 9.1839C18.9955 9.23261 18.8426 9.15867 18.7938 9.01873L16.9108 3.61022L1.6102 8.96009L4.51845 17.2677C4.56741 17.4075 4.49372 17.5606 4.35387 17.6095C4.21402 17.6585 4.06096 17.5848 4.012 17.445L1.01507 8.88406C0.991552 8.81688 0.995691 8.74312 1.02658 8.67899C1.05746 8.61487 1.11256 8.56565 1.17974 8.54216L16.9873 3.01503C17.0546 2.99153 17.1284 2.99572 17.1925 3.02667Z" fill="currentColor"/>
<path fill-rule="evenodd" clip-rule="evenodd" d="M7.32617 13.8251C7.32617 13.6769 7.44629 13.5568 7.59446 13.5568H9.57195C9.72012 13.5568 9.84024 13.6769 9.84024 13.8251V15.8026C9.84024 15.9508 9.72012 16.0709 9.57195 16.0709H7.59446C7.44629 16.0709 7.32617 15.9508 7.32617 15.8026V13.8251ZM7.86276 14.0934V15.5343H9.30365V14.0934H7.86276Z" fill="currentColor"/>
</svg>
