<svg width="24" height="24" viewBox="0 0 24 24" fill="none" xmlns="http://www.w3.org/2000/svg">
<path d="M4.04297 13.6187L1.25488 14.0981L2.20589 20.2205L4.96577 19.7629L4.80599 18.5646C7.38914 18.705 12.7864 18.9887 13.7102 19.0003C14.6341 19.012 15.4751 18.7292 15.7801 18.5864C17.775 17.2815 21.8882 14.5874 22.3821 14.2504C22.8759 13.9134 22.7912 13.4176 22.6871 13.2118C22.5975 13.0206 22.3646 12.5843 22.1497 12.3694C21.9347 12.1544 21.4936 12.2459 21.2999 12.3185L14.8432 14.6862V14.1851C14.8723 13.6912 14.3954 13.5145 14.1533 13.4878L11.2844 13.3282C10.5146 12.5221 9.14191 12.2969 8.76424 12.3042C8.38657 12.3114 7.83459 12.3768 6.73064 12.7036C5.62669 13.0305 4.67526 14.2433 4.54453 14.3886C4.43994 14.5048 4.27822 14.6694 4.21043 14.7372L4.04297 13.6187Z" fill="white"/>
<path d="M22.8346 12.9365L22.5443 12.4671C22.4109 12.2501 22.2049 12.0875 21.9628 12.0083C21.7207 11.9291 21.4584 11.9385 21.2226 12.0347L16.5102 13.9741C16.4512 13.9986 16.4044 14.0456 16.3801 14.1047C16.3558 14.1638 16.3559 14.2301 16.3805 14.289C16.405 14.348 16.452 14.3948 16.5111 14.4191C16.5702 14.4434 16.6365 14.4433 16.6955 14.4187L21.4017 12.4794C21.5326 12.4293 21.6768 12.4252 21.8103 12.4679C21.9439 12.5105 22.059 12.5974 22.1367 12.7141L22.4331 13.1897C22.5107 13.3233 22.5353 13.4812 22.5021 13.6321C22.469 13.7831 22.3804 13.9161 22.254 14.0049L15.9049 18.2294C15.3311 18.6069 14.6515 18.7909 13.9656 18.7544L5.01014 18.2974L4.46664 14.7831C4.50533 14.7853 4.54393 14.7773 4.5786 14.76C4.61327 14.7427 4.6428 14.7166 4.66427 14.6843C5.10223 14.0558 5.67609 13.5341 6.34327 13.1577C7.01045 12.7814 7.75381 12.5601 8.5182 12.5103C8.99622 12.4563 9.48025 12.5148 9.93168 12.681C10.3831 12.8472 10.7895 13.1165 11.1184 13.4676C11.1379 13.4936 11.163 13.5149 11.1919 13.5299C11.2207 13.5449 11.2526 13.5531 11.2851 13.5541L14.2312 13.7147C14.3401 13.7207 14.4422 13.7696 14.5153 13.8505C14.5518 13.8903 14.58 13.9371 14.598 13.988C14.616 14.039 14.6236 14.093 14.6203 14.147L14.5647 15.1413C14.5586 15.2503 14.5098 15.3524 14.4288 15.4255C14.3889 15.4615 14.342 15.4889 14.2909 15.5059C14.2399 15.5229 14.1859 15.5292 14.1323 15.5243L10.5316 15.3328C10.4698 15.331 10.4096 15.3531 10.3636 15.3945C10.3176 15.4359 10.2893 15.4935 10.2846 15.5552C10.2827 15.6177 10.3046 15.6786 10.3459 15.7256C10.3871 15.7726 10.4447 15.8021 10.5069 15.8084L14.1076 15.9998H14.157C14.3744 16.0001 14.5839 15.9185 14.7438 15.7713C14.8321 15.6935 14.9039 15.5988 14.9548 15.4927C15.0057 15.3865 15.0348 15.2713 15.0402 15.1537L15.0835 14.1717C15.0917 13.9437 15.0096 13.7217 14.855 13.5541C14.7781 13.4646 14.6836 13.3921 14.5772 13.3411C14.4709 13.29 14.3552 13.2616 14.2373 13.2576L11.3963 13.1032C11.0194 12.7183 10.5602 12.4239 10.0531 12.242C9.54607 12.0602 9.00438 11.9956 8.46879 12.0533C7.66521 12.1086 6.88297 12.3364 6.1753 12.7211C5.46764 13.1058 4.85116 13.6385 4.36782 14.2829L4.27517 13.5417C4.27099 13.511 4.26063 13.4816 4.2447 13.455C4.22878 13.4285 4.20763 13.4054 4.18253 13.3873C4.13013 13.3515 4.0664 13.3361 4.00342 13.3441L1.19327 13.7764C1.13141 13.787 1.07615 13.8214 1.03923 13.8721C1.00232 13.9229 0.986676 13.986 0.995628 14.0482L1.94676 20.2243C1.95768 20.2854 1.99065 20.3404 2.0394 20.3787C2.08102 20.4078 2.13073 20.4229 2.18145 20.422H2.21851L5.02867 19.9896C5.05871 19.9824 5.08703 19.9693 5.11199 19.9511C5.13696 19.9329 5.15808 19.9099 5.17415 19.8835C5.19021 19.8571 5.20091 19.8278 5.20562 19.7973C5.21033 19.7667 5.20897 19.7355 5.2016 19.7055L5.08425 18.7915L13.9409 19.2423H14.1385C14.8595 19.2379 15.5635 19.0233 16.1643 18.6247L22.4949 14.4002C22.7328 14.2501 22.9019 14.0122 22.9655 13.7381C23.0291 13.4641 22.982 13.176 22.8346 12.9365ZM2.37909 19.9032L1.4959 14.2149L3.84284 13.8505L4.71986 19.5388L2.37909 19.9032Z" fill="currentColor"/>
<path d="M15.27 11.9112C17.5042 11.9112 19.3154 10.1001 19.3154 7.86586C19.3154 5.63165 17.5042 3.82047 15.27 3.82047C13.0358 3.82047 11.2246 5.63165 11.2246 7.86586C11.2246 10.1001 13.0358 11.9112 15.27 11.9112Z" fill="#7866CB"/>
<path d="M15.2697 12.1521C16.1174 12.1521 16.9461 11.9007 17.651 11.4297C18.3559 10.9587 18.9052 10.2893 19.2297 9.50611C19.5541 8.72289 19.639 7.86107 19.4736 7.02962C19.3082 6.19816 18.9 5.43442 18.3005 4.83498C17.7011 4.23553 16.9373 3.82731 16.1059 3.66192C15.2744 3.49653 14.4126 3.58142 13.6294 3.90583C12.8462 4.23025 12.1767 4.77963 11.7058 5.4845C11.2348 6.18938 10.9834 7.01808 10.9834 7.86582C10.9834 9.00261 11.435 10.0928 12.2388 10.8967C13.0426 11.7005 14.1329 12.1521 15.2697 12.1521ZM15.2697 4.05513C16.0233 4.05513 16.7601 4.27862 17.3868 4.69734C18.0134 5.11607 18.5019 5.71122 18.7903 6.40753C19.0787 7.10385 19.1542 7.87005 19.0071 8.60925C18.8601 9.34846 18.4972 10.0275 17.9642 10.5604C17.4313 11.0933 16.7523 11.4563 16.0131 11.6033C15.2739 11.7503 14.5077 11.6749 13.8114 11.3864C13.1151 11.098 12.5199 10.6096 12.1012 9.98293C11.6825 9.35627 11.459 8.61951 11.459 7.86582C11.4606 6.85567 11.8626 5.88735 12.5769 5.17306C13.2912 4.45877 14.2595 4.05676 15.2697 4.05513Z" fill="currentColor"/>
<g clip-path="url(#clip0_1_4338)">
<path d="M12.7402 7.84461H14.3338C14.9108 7.84461 15.3785 8.31235 15.3785 8.88934V8.93173C15.3785 9.50871 14.9108 9.97645 14.3338 9.97645H12.7402V5.75516H13.8061C14.3831 5.75516 14.8509 6.22293 14.8508 6.79993C14.8508 7.3769 14.3831 7.84461 13.8061 7.84461H12.7402Z" stroke="currentColor" stroke-width="0.5" stroke-linecap="round" stroke-linejoin="round"/>
<path d="M17.7988 7.33817H16.8291C16.4904 7.33817 16.2158 7.61274 16.2158 7.95145C16.2158 8.21543 16.3847 8.4498 16.6352 8.53327L17.3795 8.78137C17.6299 8.86484 17.7988 9.09921 17.7988 9.36318C17.7988 9.70189 17.5242 9.97647 17.1855 9.97647H16.2158" stroke="currentColor" stroke-width="0.5" stroke-linecap="round" stroke-linejoin="round"/>
</g>
<defs>
<clipPath id="clip0_1_4338">
<rect width="5.83733" height="5" fill="white" transform="translate(12.3506 5.36581)"/>
</clipPath>
</defs>
</svg>
