<svg width="24" height="24" viewBox="0 0 24 24" fill="none" xmlns="http://www.w3.org/2000/svg">
<path d="M11.8942 6.24632C11.5528 6.24632 11.2191 6.34755 10.9353 6.53722C10.6514 6.72689 10.4302 6.99647 10.2995 7.31187C10.1689 7.62727 10.1347 7.97433 10.2013 8.30916C10.2679 8.64399 10.4323 8.95155 10.6737 9.19295C10.9151 9.43435 11.2227 9.59874 11.5575 9.66535C11.8923 9.73195 12.2394 9.69776 12.5548 9.56712C12.8702 9.43648 13.1398 9.21524 13.3294 8.93138C13.5191 8.64753 13.6203 8.31381 13.6203 7.97242C13.6245 7.74459 13.5827 7.51825 13.4975 7.30694C13.4122 7.09562 13.2852 6.90366 13.1241 6.74253C12.963 6.58141 12.771 6.45442 12.5597 6.36916C12.3484 6.2839 12.1221 6.24212 11.8942 6.24632ZM9.59277 10.8492V12H10.7497V16.6029H9.59277V17.7536H14.1957V16.6029H13.045V11.4246C13.0495 11.3479 13.0377 11.2711 13.0103 11.1992C12.983 11.1274 12.9408 11.0621 12.8864 11.0078C12.8321 10.9534 12.7668 10.9112 12.695 10.8839C12.6232 10.8565 12.5463 10.8447 12.4696 10.8492H9.59277Z" fill="#C9C2EA"/>
<path d="M14.2882 17.9888H9.68529C9.62294 17.9888 9.56314 17.964 9.51905 17.9199C9.47496 17.8758 9.4502 17.816 9.4502 17.7537V16.6029C9.45017 16.54 9.47474 16.4795 9.51866 16.4345C9.56258 16.3894 9.62238 16.3633 9.68529 16.3616H10.6009V12.2351H9.68529C9.62294 12.2351 9.56314 12.2103 9.51905 12.1662C9.47496 12.1222 9.4502 12.0624 9.4502 12V10.8493C9.45017 10.7863 9.47474 10.7259 9.51866 10.6808C9.56258 10.6357 9.62238 10.6096 9.68529 10.608H12.5621C12.6703 10.6036 12.7781 10.6217 12.8789 10.6613C12.9796 10.7008 13.071 10.7609 13.1473 10.8378C13.2235 10.9146 13.2829 11.0064 13.3217 11.1075C13.3605 11.2085 13.3778 11.3165 13.3726 11.4246V16.374H14.2882C14.3511 16.3756 14.4109 16.4018 14.4548 16.4468C14.4988 16.4919 14.5233 16.5524 14.5233 16.6153V17.7537C14.5233 17.816 14.4985 17.8758 14.4545 17.9199C14.4104 17.964 14.3506 17.9888 14.2882 17.9888ZM9.95751 17.5186H14.0841V16.838H13.1375C13.0745 16.838 13.0141 16.8135 12.969 16.7696C12.9239 16.7256 12.8978 16.6658 12.8962 16.6029V11.4246C12.9021 11.3791 12.8976 11.3328 12.883 11.2893C12.8684 11.2457 12.8441 11.2061 12.8119 11.1733C12.7797 11.1405 12.7405 11.1155 12.6972 11.1001C12.654 11.0847 12.6078 11.0793 12.5621 11.0844H9.92657V11.7649H10.836C10.8984 11.7649 10.9582 11.7897 11.0023 11.8338C11.0463 11.8779 11.0711 11.9377 11.0711 12V16.6029C11.0711 16.6653 11.0463 16.7251 11.0023 16.7692C10.9582 16.8133 10.8984 16.838 10.836 16.838H9.92657L9.95751 17.5186ZM11.9868 9.93982C11.5976 9.93982 11.2173 9.82444 10.8937 9.60826C10.5702 9.39208 10.318 9.08482 10.1691 8.72533C10.0202 8.36584 9.98126 7.97026 10.0572 7.58863C10.1331 7.20699 10.3205 6.85644 10.5956 6.5813C10.8707 6.30616 11.2213 6.11878 11.6029 6.04287C11.9846 5.96696 12.3801 6.00592 12.7396 6.15482C13.0991 6.30373 13.4064 6.55589 13.6226 6.87943C13.8387 7.20296 13.9541 7.58333 13.9541 7.97245C13.9575 8.23173 13.9088 8.48905 13.8111 8.72924C13.7135 8.96944 13.5687 9.18765 13.3853 9.371C13.202 9.55435 12.9837 9.69915 12.7436 9.79684C12.5034 9.89453 12.246 9.94315 11.9868 9.93982ZM11.9868 6.48763C11.6916 6.48763 11.4031 6.57524 11.1578 6.73935C10.9124 6.90346 10.7213 7.13668 10.6087 7.40949C10.496 7.68229 10.4668 7.9824 10.5249 8.27179C10.5829 8.56119 10.7255 8.82685 10.9347 9.03512C11.1438 9.24339 11.4101 9.3849 11.6997 9.44173C11.9893 9.49856 12.2893 9.46815 12.5616 9.35435C12.834 9.24055 13.0664 9.04849 13.2295 8.80248C13.3926 8.55647 13.479 8.2676 13.4778 7.97245C13.482 7.77577 13.4463 7.58027 13.3728 7.3978C13.2993 7.21532 13.1895 7.04966 13.0501 6.91085C12.9107 6.77203 12.7446 6.66295 12.5618 6.5902C12.3791 6.51746 12.1834 6.48256 11.9868 6.48763Z" fill="currentColor"/>
<path d="M11.9867 23C9.59261 22.9971 7.26479 22.2132 5.35661 20.7673C3.44842 19.3214 2.06407 17.2924 1.41368 14.9883C0.763288 12.6842 0.882367 10.2308 1.75284 8.00055C2.62332 5.77027 4.19766 3.88488 6.2369 2.63056C8.27614 1.37623 10.6689 0.821456 13.0521 1.05044C15.4352 1.27943 17.6786 2.27967 19.4417 3.89934C21.2048 5.51902 22.3913 7.66969 22.8212 10.0249C23.2511 12.3801 22.9008 14.8113 21.8236 16.9494C20.9032 18.7684 19.4967 20.2968 17.7603 21.3649C16.0238 22.4329 14.0254 22.9989 11.9867 23ZM11.9867 1.48257C10.0329 1.48218 8.11749 2.02607 6.4554 3.05326C4.79331 4.08045 3.45022 5.55033 2.57672 7.29809C1.64571 9.15913 1.28768 11.2545 1.54795 13.3191C1.80822 15.3837 2.67509 17.3247 4.03886 18.8964C5.40263 20.4682 7.202 21.6 9.20927 22.1488C11.2165 22.6975 13.3415 22.6385 15.3152 21.9792C17.2896 21.3216 19.0247 20.0931 20.3006 18.4491C21.5766 16.8051 22.3362 14.8196 22.4832 12.7437C22.6303 10.6678 22.1582 8.59501 21.1267 6.78756C20.0952 4.98011 18.5507 3.51929 16.6886 2.58999C15.2296 1.85802 13.6191 1.47871 11.9867 1.48257Z" fill="currentColor"/>
<path d="M11.9872 20.7295C9.91417 20.728 7.90934 19.989 6.33148 18.6445C4.75362 17.3 3.70571 15.4379 3.37529 13.3914C3.04488 11.3449 3.45353 9.24764 4.5281 7.47491C5.60268 5.70218 7.27304 4.36972 9.24025 3.71598C10.4403 3.31719 11.7127 3.18388 12.9693 3.32529C14.2259 3.46669 15.4369 3.87943 16.5183 4.53495C17.5997 5.19047 18.5257 6.07311 19.2324 7.1218C19.9391 8.1705 20.4095 9.36021 20.611 10.6086C20.8126 11.857 20.7405 13.1343 20.3998 14.3521C20.059 15.5699 19.4578 16.6992 18.6376 17.6617C17.8175 18.6242 16.798 19.3971 15.6497 19.9268C14.5014 20.4565 13.2517 20.7303 11.9872 20.7295ZM11.9872 3.74073C11.0976 3.74202 10.214 3.88614 9.37017 4.16761C7.4168 4.82366 5.78185 6.1908 4.79041 7.99721C3.79896 9.80361 3.52363 11.917 4.01916 13.9171C4.51469 15.9172 5.74478 17.6576 7.46486 18.7923C9.18494 19.9269 11.269 20.3726 13.3027 20.0409C15.3365 19.7092 17.1709 18.6242 18.4412 17.0018C19.7115 15.3794 20.3248 13.3383 20.159 11.2844C19.9933 9.23044 19.0606 7.31412 17.5465 5.91643C16.0324 4.51873 14.0477 3.74202 11.9872 3.74073Z" fill="currentColor"/>
</svg>
