<svg width="24" height="24" viewBox="0 0 24 24" fill="none" xmlns="http://www.w3.org/2000/svg">
<path d="M20.3823 22.8705H4.23535L5.31469 7.80292H19.3091L20.3823 22.8705Z" fill="#C9C2EA"/>
<path d="M19.5429 7.67956C19.5397 7.61849 19.5128 7.56108 19.4679 7.51959C19.4229 7.47811 19.3635 7.45583 19.3024 7.45753H16.8353V5.53939C16.8353 4.33547 16.3571 3.18086 15.5058 2.32956C14.6545 1.47826 13.4999 1 12.296 1C11.092 1 9.93742 1.47826 9.08612 2.32956C8.23482 3.18086 7.75656 4.33547 7.75656 5.53939V7.45753H5.2895C5.22837 7.45583 5.16899 7.47811 5.12405 7.51959C5.07911 7.56108 5.05216 7.61849 5.04897 7.67956L4.00047 22.7471C3.99847 22.7795 4.00289 22.812 4.01348 22.8427C4.02406 22.8734 4.0406 22.9017 4.06214 22.926C4.10842 22.9714 4.17004 22.9978 4.23484 23H20.3817C20.4465 22.9978 20.5082 22.9714 20.5544 22.926C20.576 22.9017 20.5925 22.8734 20.6031 22.8427C20.6137 22.812 20.6181 22.7795 20.6161 22.7471L19.5429 7.67956ZM8.23764 5.53939C8.23764 4.45979 8.66651 3.4244 9.42991 2.66101C10.1933 1.89761 11.2287 1.46874 12.3083 1.46874C13.3879 1.46874 14.4233 1.89761 15.1867 2.66101C15.9501 3.4244 16.3789 4.45979 16.3789 5.53939V7.45753H8.23764V5.53939ZM4.48771 22.5251L5.52387 7.93244H7.75656V9.30782C7.75656 9.36998 7.78126 9.42959 7.82521 9.47355C7.86916 9.5175 7.92878 9.54219 7.99093 9.54219C8.05309 9.54219 8.11271 9.5175 8.15666 9.47355C8.20061 9.42959 8.22531 9.36998 8.22531 9.30782V7.93244H16.3789V9.30782C16.3789 9.36998 16.4036 9.42959 16.4476 9.47355C16.4915 9.5175 16.5511 9.54219 16.6133 9.54219C16.6755 9.54219 16.7351 9.5175 16.779 9.47355C16.823 9.42959 16.8477 9.36998 16.8477 9.30782V7.93244H19.0927L20.1412 22.5251H4.48771Z" fill="currentColor"/>
</svg>
