<svg width="24" height="24" viewBox="0 0 24 24" fill="none" xmlns="http://www.w3.org/2000/svg">
<rect x="1.20312" y="6.17734" width="21.6074" height="12.3716" fill="white"/>
<path fill-rule="evenodd" clip-rule="evenodd" d="M22.4763 6.52372H1.52372V18.2131H22.4763V6.52372ZM1 6V18.7368H23V6H1Z" fill="currentColor"/>
<path fill-rule="evenodd" clip-rule="evenodd" d="M5.57638 12.842C5.6553 12.8446 5.73392 12.8312 5.80758 12.8028C5.88124 12.7743 5.94843 12.7313 6.00515 12.6764C6.06188 12.6215 6.10698 12.5557 6.13778 12.483C6.16859 12.4103 6.18446 12.3322 6.18446 12.2532C6.18446 12.1742 6.16859 12.0961 6.13778 12.0234C6.10698 11.9507 6.06188 11.8849 6.00515 11.83C5.94843 11.7751 5.88124 11.7321 5.80758 11.7037C5.73392 11.6752 5.6553 11.6619 5.57638 11.6644C5.4235 11.6693 5.27853 11.7335 5.17213 11.8434C5.06573 11.9533 5.00624 12.1002 5.00624 12.2532C5.00624 12.4062 5.06573 12.5531 5.17213 12.663C5.27853 12.7729 5.4235 12.8371 5.57638 12.842ZM5.57638 13.3657C5.87136 13.3657 6.15425 13.2486 6.36284 13.04C6.57142 12.8314 6.6886 12.5485 6.6886 12.2535C6.6886 11.9585 6.57142 11.6756 6.36284 11.467C6.15425 11.2585 5.87136 11.1413 5.57638 11.1413C5.2814 11.1413 4.9985 11.2585 4.78992 11.467C4.58133 11.6756 4.46415 11.9585 4.46415 12.2535C4.46415 12.5485 4.58133 12.8314 4.78992 13.04C4.9985 13.2486 5.2814 13.3657 5.57638 13.3657ZM19.198 12.6391C19.3542 12.6391 19.504 12.5771 19.6144 12.4667C19.7248 12.3562 19.7868 12.2065 19.7868 12.0503C19.7868 11.8942 19.7248 11.7444 19.6144 11.634C19.504 11.5235 19.3542 11.4615 19.198 11.4615C19.0419 11.4615 18.8921 11.5235 18.7817 11.634C18.6713 11.7444 18.6092 11.8942 18.6092 12.0503C18.6092 12.2065 18.6713 12.3562 18.7817 12.4667C18.8921 12.5771 19.0419 12.6391 19.198 12.6391ZM19.198 13.1628C19.493 13.1628 19.7759 13.0457 19.9845 12.8371C20.1931 12.6285 20.3103 12.3456 20.3103 12.0506C20.3103 11.7556 20.1931 11.4727 19.9845 11.2642C19.7759 11.0556 19.493 10.9384 19.198 10.9384C18.9031 10.9384 18.6202 11.0556 18.4116 11.2642C18.203 11.4727 18.0858 11.7556 18.0858 12.0506C18.0858 12.3456 18.203 12.6285 18.4116 12.8371C18.6202 13.0457 18.9031 13.1628 19.198 13.1628ZM2.66138 9.99851C2.48756 10.0191 2.31268 10.0293 2.13765 10.0291V7.19656H4.96954C5.06304 8.07045 4.70554 9.75407 2.66138 9.99851ZM4.44399 7.7209H2.66138V9.47112C3.42771 9.36479 3.85488 9.02623 4.10115 8.66934C4.29019 8.38549 4.40823 8.06006 4.44399 7.7209ZM4.87421 16.9652C4.89377 17.129 4.90477 17.3031 4.90477 17.4889H2.07227V14.6576C2.94615 14.5635 4.62977 14.9204 4.87421 16.9652ZM2.5966 15.1826V16.9652H4.34682C4.24049 16.1988 3.90193 15.7717 3.54504 15.5254C3.26118 15.3364 2.93575 15.2183 2.5966 15.1826ZM19.1559 7.59623C19.1355 7.42261 19.1255 7.24793 19.1259 7.07312H21.9572V9.9044C21.0833 9.9979 19.4003 9.6404 19.1559 7.59623ZM21.4341 9.37884V7.59684H19.6839C19.7896 8.36256 20.1282 8.79034 20.485 9.03601C20.769 9.22538 21.0947 9.34302 21.4341 9.37884ZM21.2777 14.8208C21.4414 14.8012 21.6156 14.7902 21.8014 14.7902V17.6221H18.9701C18.876 16.7482 19.2335 15.0652 21.2777 14.8208ZM19.4957 17.0984H21.2777V15.3482C20.5119 15.4545 20.0842 15.7931 19.8385 16.15C19.6492 16.4337 19.5316 16.7592 19.4957 17.0984Z" fill="currentColor"/>
<path d="M16.66 12.369C16.66 13.6047 16.1692 14.7897 15.2954 15.6635C14.4216 16.5372 13.2366 17.0281 12.0009 17.0281C10.7652 17.0281 9.58017 16.5372 8.70642 15.6635C7.83267 14.7897 7.3418 13.6047 7.3418 12.369C7.3418 11.1333 7.83267 9.94824 8.70642 9.07449C9.58017 8.20074 10.7652 7.70987 12.0009 7.70987C13.2366 7.70987 14.4216 8.20074 15.2954 9.07449C16.1692 9.94824 16.66 11.1333 16.66 12.369Z" fill="#7866CB"/>
<path fill-rule="evenodd" clip-rule="evenodd" d="M12.0009 16.505C13.0977 16.505 14.1495 16.0693 14.9251 15.2938C15.7006 14.5182 16.1363 13.4664 16.1363 12.3696C16.1363 11.2728 15.7006 10.221 14.9251 9.44543C14.1495 8.66989 13.0977 8.2342 12.0009 8.2342C10.9041 8.2342 9.85228 8.66989 9.07675 9.44543C8.30121 10.221 7.86552 11.2728 7.86552 12.3696C7.86552 13.4664 8.30121 14.5182 9.07675 15.2938C9.85228 16.0693 10.9041 16.505 12.0009 16.505ZM12.0009 17.0287C13.2366 17.0287 14.4216 16.5378 15.2954 15.6641C16.1692 14.7903 16.66 13.6053 16.66 12.3696C16.66 11.1339 16.1692 9.94886 15.2954 9.0751C14.4216 8.20135 13.2366 7.71048 12.0009 7.71048C10.7652 7.71048 9.58017 8.20135 8.70642 9.0751C7.83267 9.94886 7.3418 11.1339 7.3418 12.3696C7.3418 13.6053 7.83267 14.7903 8.70642 15.6641C9.58017 16.5378 10.7652 17.0287 12.0009 17.0287Z" fill="currentColor"/>
<path d="M10.7061 11.9967C10.7402 11.9968 10.7741 12.0032 10.8057 12.0163C10.8374 12.0294 10.8663 12.0496 10.8906 12.0739C10.9148 12.0982 10.9342 12.1272 10.9473 12.1588C10.9603 12.1905 10.9668 12.2243 10.9668 12.2585C10.9668 12.2928 10.9604 12.3273 10.9473 12.359C10.9341 12.3907 10.9149 12.4198 10.8906 12.444L9.83789 13.4958H13.2285C13.3736 13.4959 13.4911 13.6134 13.4912 13.7585C13.4912 13.9036 13.3736 14.0219 13.2285 14.0221H9.83691L10.8223 15.0075C10.8711 15.0565 10.8984 15.1229 10.8984 15.192C10.8984 15.2612 10.8711 15.3276 10.8223 15.3766C10.7732 15.4256 10.706 15.4538 10.6367 15.4538C10.5675 15.4537 10.5011 15.4255 10.4521 15.3766L8.83398 13.7594L10.5205 12.0729C10.5448 12.0487 10.5737 12.0294 10.6055 12.0163C10.6372 12.0031 10.6717 11.9967 10.7061 11.9967Z" fill="currentColor"/>
<path d="M13.2939 9.46838C13.2598 9.46845 13.2259 9.47487 13.1943 9.48792C13.1626 9.50109 13.1337 9.52122 13.1094 9.54553C13.0852 9.56982 13.0658 9.5988 13.0527 9.63049C13.0397 9.66211 13.0332 9.6959 13.0332 9.7301C13.0332 9.76446 13.0396 9.79895 13.0527 9.83069C13.0659 9.86233 13.0851 9.89143 13.1094 9.91565L14.1621 10.9674H10.7715C10.6264 10.9676 10.5089 11.085 10.5088 11.2301C10.5088 11.3753 10.6264 11.4936 10.7715 11.4938H14.1631L13.1777 12.4791C13.1289 12.5281 13.1016 12.5945 13.1016 12.6637C13.1016 12.7329 13.1289 12.7993 13.1777 12.8483C13.2268 12.8973 13.294 12.9254 13.3633 12.9254C13.4325 12.9253 13.4989 12.8972 13.5479 12.8483L15.166 11.2311L13.4795 9.54456C13.4552 9.52032 13.4263 9.50102 13.3945 9.48792C13.3628 9.47479 13.3283 9.46836 13.2939 9.46838Z" fill="currentColor"/>
</svg>
