<svg width="24" height="24" viewBox="0 0 24 24" fill="none" xmlns="http://www.w3.org/2000/svg">
<path d="M17.2994 11.0037C17.2994 11.9896 17.0071 12.9533 16.4594 13.7731C15.9116 14.5928 15.1331 15.2317 14.2223 15.609C13.3115 15.9862 12.3092 16.0849 11.3423 15.8926C10.3754 15.7003 9.48718 15.2255 8.79006 14.5284C8.09294 13.8313 7.61819 12.9431 7.42586 11.9762C7.23352 11.0092 7.33224 10.007 7.70952 9.09616C8.08679 8.18533 8.72569 7.40683 9.54542 6.85911C10.3651 6.31139 11.3289 6.01904 12.3148 6.01904C13.6368 6.01904 14.9046 6.54421 15.8394 7.47902C16.7743 8.41383 17.2994 9.6817 17.2994 11.0037Z" fill="#C9C2EA"/>
<path d="M22.7675 2.00073H1.25084C1.21881 1.99819 1.18661 2.00232 1.15626 2.01286C1.12591 2.0234 1.09807 2.04011 1.07451 2.06195C1.05094 2.08379 1.03216 2.11028 1.01935 2.13975C1.00654 2.16921 0.99998 2.20101 1.00008 2.23314V19.8293C0.999264 19.8604 1.00467 19.8913 1.01599 19.9202C1.0273 19.9491 1.04429 19.9754 1.06595 19.9976C1.08762 20.0199 1.11351 20.0375 1.14212 20.0496C1.17072 20.0617 1.20145 20.0679 1.23249 20.0679H3.29364V21.2055C3.29524 21.2677 3.32107 21.3268 3.36563 21.3702C3.41019 21.4136 3.46996 21.4379 3.53217 21.4379H5.80738C5.83842 21.4387 5.8693 21.4333 5.89821 21.422C5.92711 21.4107 5.95346 21.3937 5.97569 21.372C5.99793 21.3504 6.0156 21.3245 6.02766 21.2959C6.03972 21.2672 6.04593 21.2365 6.04592 21.2055V20.0679H17.9724V21.2055C17.9724 21.2365 17.9786 21.2672 17.9907 21.2959C18.0028 21.3245 18.0204 21.3504 18.0427 21.372C18.0649 21.3937 18.0912 21.4107 18.1201 21.422C18.149 21.4333 18.1799 21.4387 18.211 21.4379H20.4862C20.5484 21.4379 20.6082 21.4136 20.6527 21.3702C20.6973 21.3268 20.7231 21.2677 20.7247 21.2055V20.0679H22.7675C22.7985 20.0679 22.8293 20.0617 22.8579 20.0496C22.8865 20.0375 22.9124 20.0199 22.934 19.9976C22.9557 19.9754 22.9727 19.9491 22.984 19.9202C22.9953 19.8913 23.0007 19.8604 22.9999 19.8293V2.23314C22.9999 2.20262 22.9939 2.1724 22.9822 2.1442C22.9705 2.116 22.9534 2.09038 22.9318 2.0688C22.9103 2.04722 22.8846 2.0301 22.8564 2.01842C22.8282 2.00674 22.798 2.00073 22.7675 2.00073ZM5.57497 20.9608H3.74012V20.0679H5.57497V20.9608ZM20.2538 20.9608H18.4189V20.0679H20.2538V20.9608ZM22.529 19.5908H1.48937V2.46555H22.529V19.5908Z" fill="currentColor"/>
<path d="M3.53248 17.7865H21.0981C21.1291 17.7874 21.16 17.782 21.1889 17.7706C21.2178 17.7593 21.2442 17.7423 21.2664 17.7207C21.2886 17.699 21.3063 17.6731 21.3184 17.6445C21.3304 17.6159 21.3366 17.5852 21.3366 17.5541C21.3366 17.4909 21.3115 17.4302 21.2668 17.3855C21.222 17.3407 21.1614 17.3156 21.0981 17.3156H3.76489V4.74689H20.4865C20.5206 4.7524 20.5555 4.75045 20.5887 4.74115C20.622 4.73185 20.6529 4.71544 20.6792 4.69305C20.7055 4.67065 20.7266 4.64282 20.7411 4.61146C20.7556 4.5801 20.7631 4.54596 20.7631 4.51142C20.7631 4.47687 20.7556 4.44274 20.7411 4.41138C20.7266 4.38002 20.7055 4.35218 20.6792 4.32979C20.6529 4.3074 20.622 4.29098 20.5887 4.28169C20.5555 4.27239 20.5206 4.27043 20.4865 4.27595H3.53248C3.46921 4.27595 3.40854 4.30108 3.36381 4.34581C3.31908 4.39054 3.29395 4.45121 3.29395 4.51448V17.5541C3.29554 17.6163 3.32137 17.6754 3.36594 17.7189C3.4105 17.7623 3.47026 17.7866 3.53248 17.7865Z" fill="currentColor"/>
<path d="M19.4954 6.45943V8.66125C19.4954 8.72289 19.5199 8.78201 19.5635 8.82559C19.6071 8.86918 19.6662 8.89367 19.7279 8.89367H20.2661C20.2627 8.91391 20.2627 8.93458 20.2661 8.95483V13.2361H19.7401C19.6784 13.2361 19.6193 13.2606 19.5757 13.3042C19.5322 13.3478 19.5077 13.4069 19.5077 13.4686V15.6459C19.5069 15.6769 19.5123 15.7078 19.5236 15.7367C19.5349 15.7656 19.5519 15.792 19.5735 15.8142C19.5952 15.8365 19.6211 15.8541 19.6497 15.8662C19.6783 15.8782 19.709 15.8845 19.7401 15.8844H21.2447C21.2757 15.8845 21.3064 15.8782 21.335 15.8662C21.3636 15.8541 21.3895 15.8365 21.4112 15.8142C21.4329 15.792 21.4499 15.7656 21.4612 15.7367C21.4725 15.7078 21.4779 15.6769 21.4771 15.6459V13.4257C21.4771 13.3641 21.4526 13.305 21.409 13.2614C21.3654 13.2178 21.3063 13.1933 21.2447 13.1933H20.7248V8.91201C20.7248 8.91201 20.7248 8.8692 20.7248 8.85085H21.2569C21.3185 8.85085 21.3777 8.82637 21.4212 8.78278C21.4648 8.73919 21.4893 8.68008 21.4893 8.61844V6.45943C21.4911 6.42684 21.486 6.39424 21.4743 6.36376C21.4626 6.33328 21.4447 6.3056 21.4216 6.28252C21.3985 6.25944 21.3708 6.24148 21.3403 6.22981C21.3099 6.21814 21.2773 6.21302 21.2447 6.21479H19.7279C19.6963 6.21474 19.665 6.22114 19.636 6.23357C19.607 6.24601 19.5808 6.26423 19.559 6.28713C19.5373 6.31002 19.5204 6.33711 19.5095 6.36673C19.4986 6.39636 19.4938 6.4279 19.4954 6.45943ZM21.0122 15.389H19.9603V13.6643H21.0061L21.0122 15.389ZM19.9603 6.69796H21.0061V8.40437H19.9603V6.69796Z" fill="currentColor"/>
<path d="M11.1706 9.76827C10.9078 10.0308 10.7289 10.3654 10.6563 10.7296C10.5837 11.0939 10.6208 11.4715 10.7629 11.8147C10.905 12.1579 11.1456 12.4512 11.4545 12.6576C11.7633 12.864 12.1264 12.9741 12.4978 12.9741C12.8692 12.9741 13.2323 12.864 13.5411 12.6576C13.8499 12.4512 14.0906 12.1579 14.2326 11.8147C14.3747 11.4715 14.4118 11.0939 14.3393 10.7296C14.2667 10.3654 14.0877 10.0308 13.825 9.76827C13.4676 9.42657 12.9922 9.23587 12.4978 9.23587C12.0033 9.23587 11.5279 9.42657 11.1706 9.76827ZM13.4947 12.0924C13.2262 12.3489 12.8691 12.492 12.4978 12.492C12.1264 12.492 11.7694 12.3489 11.5008 12.0924C11.2386 11.8268 11.0916 11.4687 11.0916 11.0955C11.0916 10.7223 11.2386 10.3641 11.5008 10.0985C11.6317 9.96778 11.7872 9.86425 11.9583 9.79391C12.1294 9.72358 12.3128 9.68784 12.4978 9.68876C12.8709 9.68957 13.2289 9.8367 13.4947 10.0985C13.7569 10.3641 13.9039 10.7223 13.9039 11.0955C13.9039 11.4687 13.7569 11.8268 13.4947 12.0924Z" fill="currentColor"/>
<path d="M7.28125 11.1077C7.28125 12.1395 7.58723 13.1482 8.16049 14.0061C8.73375 14.8641 9.54855 15.5328 10.5018 15.9276C11.4551 16.3225 12.5041 16.4258 13.5161 16.2245C14.5282 16.0232 15.4578 15.5263 16.1874 14.7967C16.917 14.0671 17.4139 13.1375 17.6152 12.1255C17.8165 11.1135 17.7132 10.0645 17.3183 9.11119C16.9234 8.15789 16.2547 7.34309 15.3968 6.76983C14.5388 6.19657 13.5302 5.89059 12.4983 5.89059C11.1157 5.89383 9.79056 6.44452 8.81287 7.42221C7.83517 8.39991 7.28448 9.72502 7.28125 11.1077ZM15.2995 8.28813C15.3217 8.31123 15.3483 8.32963 15.3777 8.34224C15.4071 8.35485 15.4388 8.36141 15.4708 8.36152C15.5333 8.35966 15.5926 8.33331 15.6359 8.28813L16.0029 7.92116C16.74 8.72746 17.1727 9.76575 17.2261 10.8569H16.694C16.6312 10.8585 16.5715 10.8841 16.5271 10.9285C16.4827 10.9729 16.457 11.0327 16.4555 11.0954C16.4571 11.1576 16.4829 11.2168 16.5275 11.2602C16.572 11.3036 16.6318 11.3279 16.694 11.3279H17.2322C17.1784 12.4244 16.7462 13.4684 16.009 14.282L15.6237 13.8967C15.5781 13.8574 15.5193 13.8368 15.4592 13.8391C15.3991 13.8413 15.342 13.8662 15.2994 13.9088C15.2569 13.9513 15.232 14.0084 15.2297 14.0685C15.2275 14.1287 15.2481 14.1874 15.2873 14.233L15.6726 14.6184C14.8599 15.3568 13.8154 15.7893 12.7185 15.8416V15.2911C12.7185 15.2289 12.6942 15.1692 12.6508 15.1246C12.6074 15.08 12.5483 15.0542 12.4861 15.0526C12.4233 15.0542 12.3636 15.0798 12.3192 15.1242C12.2748 15.1686 12.2491 15.2284 12.2476 15.2911V15.8416C11.1527 15.7884 10.1105 15.3559 9.29958 14.6184L9.67879 14.233C9.72323 14.1883 9.74818 14.1279 9.74818 14.0648C9.74818 14.0018 9.72323 13.9413 9.67879 13.8967C9.65718 13.8748 9.63145 13.8575 9.60311 13.8457C9.57477 13.8339 9.54436 13.8278 9.51365 13.8278C9.48294 13.8278 9.45253 13.8339 9.42419 13.8457C9.39584 13.8575 9.37012 13.8748 9.34851 13.8967L8.96319 14.282C8.22343 13.47 7.79073 12.4251 7.73996 11.3279H8.27207C8.30259 11.3279 8.33281 11.3219 8.36101 11.3102C8.38921 11.2985 8.41483 11.2814 8.43641 11.2598C8.45799 11.2382 8.47511 11.2126 8.48679 11.1844C8.49847 11.1562 8.50448 11.126 8.50448 11.0954C8.5045 11.0332 8.48021 10.9735 8.43679 10.9289C8.39338 10.8843 8.33426 10.8585 8.27207 10.8569H7.73996C7.79744 9.76666 8.22952 8.72967 8.96319 7.92116L9.33016 8.28813C9.35083 8.31156 9.37624 8.33032 9.40471 8.34318C9.43318 8.35603 9.46406 8.36268 9.4953 8.36268C9.52654 8.36268 9.55742 8.35603 9.58589 8.34318C9.61436 8.33032 9.63977 8.31156 9.66044 8.28813C9.68226 8.26652 9.69958 8.2408 9.7114 8.21246C9.72322 8.18411 9.72931 8.1537 9.72931 8.12299C9.72931 8.09228 9.72322 8.06188 9.7114 8.03353C9.69958 8.00519 9.68226 7.97947 9.66044 7.95786L9.29347 7.59089C10.1014 6.85635 11.1387 6.42414 12.2292 6.36766V6.88753C12.2308 6.94973 12.2567 7.00884 12.3012 7.05226C12.3458 7.09567 12.4055 7.11996 12.4678 7.11994C12.5294 7.11994 12.5885 7.09546 12.6321 7.05187C12.6757 7.00828 12.7002 6.94917 12.7002 6.88753V6.37377C13.7928 6.42886 14.8325 6.86117 15.642 7.597L15.269 7.96397C15.2306 8.01124 15.2123 8.07168 15.218 8.1323C15.2237 8.19292 15.253 8.24887 15.2995 8.28813Z" fill="currentColor"/>
</svg>
