<svg width="24" height="24" viewBox="0 0 24 24" fill="none" xmlns="http://www.w3.org/2000/svg">
<path d="M11.5267 1.0004C10.2856 0.995836 9.05651 1.24432 7.91462 1.73066C7.8327 1.75858 7.76005 1.80852 7.70464 1.87501C7.64923 1.9415 7.61321 2.02196 7.60053 2.10758C7.5853 2.19323 7.59583 2.28148 7.63077 2.36115C7.66572 2.44082 7.72351 2.50834 7.79684 2.55516C7.87119 2.60102 7.95683 2.62531 8.04418 2.62531C8.13154 2.62531 8.21718 2.60102 8.29153 2.55516C9.31257 2.11436 10.4146 1.89234 11.5267 1.90341C13.1287 1.88114 14.7117 2.25328 16.136 2.98704C16.2353 3.01196 16.34 3.00329 16.4339 2.96239C16.5277 2.92149 16.6054 2.85066 16.6547 2.76095C16.7041 2.67125 16.7223 2.56774 16.7066 2.46658C16.6909 2.36542 16.6421 2.27231 16.5679 2.2018C15.01 1.39771 13.2797 0.985348 11.5267 1.0004ZM6.50906 2.52375C6.43759 2.53621 6.37022 2.56585 6.31275 2.61012C5.17396 3.43314 4.17901 4.4387 3.36813 5.58615C3.02262 6.05729 2.73994 6.48917 2.50437 6.81897C2.36248 7.04584 2.19948 7.2588 2.01753 7.45501C1.96004 7.48814 1.91033 7.53323 1.87178 7.58723C1.83323 7.64123 1.80673 7.70288 1.79407 7.76802C1.78141 7.83315 1.78289 7.90024 1.7984 7.96475C1.81392 8.02926 1.84311 8.08969 1.884 8.14194C1.92489 8.19419 1.97653 8.23705 2.03543 8.26762C2.09432 8.29818 2.15909 8.31574 2.22535 8.31911C2.29162 8.32247 2.35784 8.31156 2.41952 8.28712C2.4812 8.26267 2.53692 8.22526 2.58289 8.17742C2.84638 7.93641 3.07381 7.65873 3.25819 7.35293C3.50161 7.00743 3.7843 6.5677 4.1141 6.13582C4.85853 5.07141 5.7739 4.13746 6.82315 3.3718C6.90697 3.31573 6.97021 3.23384 7.00327 3.13856C7.03632 3.04329 7.03739 2.93982 7.0063 2.84389C6.97521 2.74795 6.91366 2.66478 6.831 2.607C6.74835 2.54922 6.6491 2.51999 6.54832 2.52375H6.50906ZM11.8015 3.30898C11.7411 3.31763 11.6831 3.33812 11.6306 3.36927C11.5782 3.40042 11.5324 3.44162 11.496 3.4905C11.4595 3.53938 11.433 3.59498 11.4181 3.65411C11.4031 3.71325 11.4 3.77475 11.4089 3.83509C11.4165 3.89591 11.4364 3.95456 11.4672 4.00753C11.4981 4.0605 11.5393 4.1067 11.5884 4.14336C11.6375 4.18002 11.6935 4.20638 11.7531 4.22088C11.8127 4.23537 11.8745 4.23769 11.935 4.2277C16.6071 4.50253 18.5859 7.10165 19.4183 10.0541C20.0571 12.5076 20.0571 15.0839 19.4183 17.5374C19.3837 17.6529 19.3955 17.7774 19.4512 17.8844C19.507 17.9914 19.6022 18.0724 19.7168 18.1102C19.8313 18.148 19.9561 18.1397 20.0646 18.087C20.173 18.0343 20.2567 17.9413 20.2977 17.8279C21.0086 15.2001 21.0086 12.4307 20.2977 9.80285C19.3869 6.61481 16.9841 3.59952 11.9743 3.30898H11.7858H11.8015ZM18.0834 3.30898C17.9936 3.32422 17.9104 3.36604 17.8446 3.42903C17.7788 3.49202 17.7335 3.57329 17.7143 3.66234C17.6945 3.75266 17.7027 3.84687 17.7378 3.93243C17.7729 4.01799 17.8332 4.09085 17.9106 4.14133C21.507 6.62266 22.0724 12.2449 22.0724 12.2449C22.0807 12.3678 22.1375 12.4823 22.2303 12.5633C22.323 12.6443 22.4442 12.6851 22.5671 12.6768C22.6899 12.6685 22.8045 12.6117 22.8855 12.5189C22.9664 12.4261 23.0073 12.305 22.9989 12.1821C22.9989 12.1821 22.4885 6.2379 18.4053 3.41891C18.3589 3.38049 18.3046 3.35282 18.2462 3.33789C18.1878 3.32296 18.1268 3.32113 18.0677 3.33254L18.0834 3.30898ZM10.074 3.45032C6.89382 4.07851 5.36262 6.26931 4.16906 8.12246C4.13552 8.17281 4.11235 8.22934 4.1009 8.28876C4.08946 8.34817 4.08996 8.40926 4.10239 8.46848C4.11481 8.52769 4.13892 8.58383 4.17328 8.63363C4.20765 8.68342 4.2516 8.72587 4.30255 8.75849C4.40079 8.82627 4.52109 8.85423 4.63914 8.83674C4.7572 8.81925 4.86422 8.75761 4.93859 8.66427C6.11644 6.82682 7.39637 4.94226 10.2389 4.3769C10.3396 4.34311 10.4254 4.27516 10.4813 4.18482C10.5372 4.09448 10.5598 3.98743 10.5451 3.8822C10.5313 3.76491 10.4732 3.65732 10.3828 3.58143C10.2923 3.50553 10.1762 3.46706 10.0583 3.47388L10.074 3.45032ZM12.0057 5.60186C10.6398 5.56854 9.30651 6.02223 8.24442 6.88179C8.19662 6.91865 8.15663 6.96464 8.12677 7.01708C8.0969 7.06953 8.07776 7.12739 8.07046 7.18731C8.06315 7.24722 8.06782 7.30798 8.08421 7.36607C8.10059 7.42416 8.12836 7.47842 8.16589 7.52568C8.20403 7.57314 8.25114 7.61262 8.30454 7.64187C8.35795 7.67111 8.41659 7.68954 8.47712 7.6961C8.53765 7.70267 8.59888 7.69724 8.65731 7.68012C8.71574 7.663 8.77022 7.63454 8.81764 7.59635C9.71456 6.86277 10.8477 6.48042 12.0057 6.52058C12.3954 6.51774 12.7845 6.55192 13.1678 6.62266C13.2429 6.63241 13.3191 6.62394 13.3902 6.59797C13.4613 6.572 13.5251 6.5293 13.5761 6.47347C13.6293 6.41024 13.6651 6.33436 13.6803 6.25318C13.6954 6.17201 13.6893 6.0883 13.6625 6.01018C13.6332 5.93279 13.5834 5.86485 13.5183 5.81367C13.4533 5.76248 13.3756 5.72997 13.2935 5.71964C12.8686 5.64213 12.4376 5.60271 12.0057 5.60186ZM14.8796 6.26145H14.8404C14.7474 6.28095 14.6631 6.3295 14.5996 6.40008C14.5361 6.47066 14.4967 6.55961 14.487 6.65407C14.4752 6.74893 14.493 6.84513 14.538 6.92948C14.5829 7.01383 14.6529 7.0822 14.7383 7.12521C16.7563 8.15386 17.9892 10.3918 17.9892 13.4071C17.9794 14.3269 17.8874 15.2441 17.7143 16.1475C17.6941 16.21 17.6873 16.2761 17.6945 16.3414C17.7018 16.4067 17.7228 16.4697 17.7562 16.5263C17.7897 16.5828 17.8348 16.6316 17.8885 16.6694C17.9423 16.7072 18.0034 16.7331 18.068 16.7455C18.1325 16.7578 18.1989 16.7563 18.2628 16.741C18.3267 16.7257 18.3866 16.697 18.4386 16.6568C18.4905 16.6166 18.5333 16.5658 18.5642 16.5078C18.595 16.4498 18.6131 16.3858 18.6173 16.3203C18.8014 15.3599 18.8987 14.3849 18.9079 13.4071C18.9079 10.1326 17.518 7.50997 15.1545 6.33998C15.0697 6.27268 14.9643 6.23664 14.8561 6.2379L14.8796 6.26145ZM12.0057 7.90259C10.9768 7.87532 9.97271 8.22116 9.17885 8.87628C8.52128 9.49438 7.98819 10.2327 7.60838 11.0514C7.57852 11.1041 7.55969 11.1624 7.55303 11.2227C7.54637 11.2829 7.55203 11.3439 7.56965 11.4019C7.58727 11.4599 7.6165 11.5138 7.65555 11.5601C7.6946 11.6065 7.74267 11.6445 7.79684 11.6717C7.90551 11.7281 8.03185 11.7399 8.1491 11.7047C8.26636 11.6695 8.36531 11.5901 8.42502 11.4832C8.75942 10.767 9.22863 10.1218 9.80703 9.58299C10.4259 9.046 11.2262 8.76518 12.0449 8.79776C12.8515 8.76728 13.6388 9.04847 14.2436 9.58299C14.8035 10.0897 15.2114 10.7422 15.4214 11.4675C15.443 11.5477 15.4857 11.6206 15.5451 11.6787C15.6045 11.7367 15.6784 11.7777 15.7591 11.7973C15.8399 11.82 15.9254 11.8195 16.006 11.7959C16.0865 11.7723 16.1588 11.7266 16.2145 11.6639C16.2697 11.6002 16.3069 11.5229 16.3221 11.4401C16.3372 11.3572 16.3299 11.2718 16.3009 11.1927C16.0338 10.3085 15.5317 9.51332 14.8482 8.89198C14.0562 8.22111 13.0431 7.86849 12.0057 7.90259ZM7.1608 8.16172C7.10055 8.17307 7.04315 8.19626 6.99193 8.22996C6.9407 8.26366 6.89668 8.30719 6.86241 8.35802C5.94369 9.59869 5.29194 10.9807 4.50671 11.9701C4.2201 12.4611 3.79815 12.8593 3.29128 13.1169C2.78441 13.3745 2.21408 13.4807 1.64847 13.4228C1.58518 13.411 1.52014 13.4125 1.45747 13.4272C1.39481 13.442 1.3359 13.4696 1.28451 13.5084C1.23313 13.5471 1.19038 13.5962 1.15901 13.6524C1.12763 13.7086 1.10832 13.7708 1.10229 13.8348C1.09626 13.8989 1.10366 13.9636 1.12401 14.0247C1.14436 14.0857 1.17721 14.1419 1.22047 14.1896C1.26373 14.2372 1.31645 14.2754 1.37527 14.3015C1.43409 14.3277 1.49772 14.3413 1.56209 14.3415C2.28004 14.3908 2.99817 14.2481 3.64266 13.9279C4.28715 13.6077 4.83474 13.1217 5.22913 12.5198C6.07718 11.4126 6.72892 10.0384 7.58482 8.89984C7.63834 8.8335 7.67252 8.75368 7.68361 8.66918C7.69469 8.58467 7.68225 8.49874 7.64764 8.42084C7.61043 8.34331 7.55271 8.27745 7.48073 8.23039C7.40875 8.18333 7.32527 8.15686 7.23932 8.15386H7.13724L7.1608 8.16172ZM3.48591 9.4495H3.41524C3.29991 9.47272 3.19835 9.54042 3.13256 9.63795C2.71867 10.3026 2.10997 10.8236 1.38934 11.1299C1.29599 11.1447 1.20955 11.1882 1.14201 11.2543C1.07448 11.3204 1.02919 11.4059 1.01243 11.499C0.992453 11.5819 0.996625 11.6689 1.02445 11.7496C1.05228 11.8303 1.10259 11.9014 1.16947 11.9544C1.23602 12.0108 1.31784 12.0462 1.40453 12.056C1.49123 12.0657 1.57887 12.0495 1.65632 12.0094C2.55492 11.6469 3.31994 11.0163 3.84712 10.2033C3.90272 10.1331 3.93676 10.0482 3.94512 9.95903C3.95349 9.86983 3.93581 9.78013 3.89423 9.70077C3.85489 9.62618 3.79625 9.56351 3.72442 9.51931C3.6526 9.47511 3.57023 9.451 3.48591 9.4495ZM11.2047 9.91279C11.1498 9.92279 11.0969 9.94134 11.0477 9.96775C10.3005 10.4893 9.77427 11.2702 9.57146 12.1586C9.32329 12.9727 9.02968 13.7723 8.692 14.5535C7.78898 16.2967 6.06932 18.0164 3.70578 18.0164C3.62334 18.013 3.54158 18.0325 3.46952 18.0727C3.39746 18.1129 3.33791 18.1722 3.29745 18.2441C3.25746 18.3149 3.23683 18.3951 3.23764 18.4764C3.23844 18.5578 3.26066 18.6375 3.30204 18.7075C3.34343 18.7776 3.40253 18.8355 3.47341 18.8754C3.54428 18.9154 3.62442 18.936 3.70578 18.9351C6.50905 18.9351 8.50355 16.9249 9.50864 15.0089C9.87556 14.1859 10.1852 13.3384 10.4352 12.4726C10.5996 11.8072 10.9741 11.2124 11.5031 10.7765C11.5979 10.724 11.6712 10.6399 11.7104 10.5389C11.7496 10.4379 11.7521 10.3264 11.7176 10.2237C11.6831 10.121 11.6136 10.0336 11.5214 9.97684C11.4291 9.92004 11.3198 9.89738 11.2126 9.91279H11.2047ZM12.7752 9.99916C12.6832 10.0157 12.5984 10.0596 12.5319 10.1252C12.4653 10.1908 12.4202 10.275 12.4024 10.3667C12.3845 10.4584 12.3948 10.5534 12.432 10.6392C12.4691 10.7249 12.5312 10.7974 12.6103 10.8472C12.884 11.1322 13.0909 11.4745 13.2158 11.8494C13.3408 12.2243 13.3807 12.6222 13.3327 13.0145C13.2473 14.3915 12.9424 15.7461 12.4297 17.027C11.793 18.8211 10.6603 20.3976 9.16314 21.5735C9.06223 21.6433 8.99315 21.7504 8.97107 21.8711C8.94899 21.9918 8.9757 22.1163 9.04536 22.2174C9.11664 22.3188 9.22504 22.3881 9.34704 22.4101C9.46904 22.4322 9.59482 22.4052 9.6971 22.3352C11.3438 21.0538 12.5869 19.3256 13.2778 17.3568C13.8413 15.9735 14.1704 14.5059 14.2514 13.0145C14.2514 11.8288 13.9923 10.6588 13.1129 10.0855C13.0197 10.0185 12.9052 9.98776 12.7909 9.99916H12.7752ZM11.88 12.0408C11.7758 12.0571 11.6805 12.109 11.6103 12.1878C11.5401 12.2665 11.4995 12.3672 11.4953 12.4726C11.3734 13.6099 11.0713 14.7205 10.6001 15.7628C10.5543 15.8371 10.53 15.9228 10.53 16.0101C10.53 16.0975 10.5543 16.1831 10.6001 16.2575C10.6515 16.328 10.7208 16.3834 10.801 16.418C10.8811 16.4525 10.969 16.4649 11.0556 16.4538C11.1407 16.4424 11.2208 16.4067 11.2863 16.351C11.3517 16.2953 11.3997 16.2219 11.4246 16.1397C11.9552 14.995 12.2998 13.773 12.4454 12.5198C12.4495 12.451 12.4383 12.3822 12.4125 12.3184C12.3867 12.2545 12.347 12.1973 12.2962 12.1507C12.2447 12.1043 12.1832 12.0703 12.1166 12.0512C12.0499 12.0322 11.9797 12.0286 11.9115 12.0408H11.88ZM6.98019 12.5198C6.91263 12.5334 6.84913 12.5625 6.79465 12.6047C6.74017 12.6469 6.69618 12.7012 6.6661 12.7632C6.28431 13.5623 5.75095 14.2797 5.09564 14.8755C4.30611 15.4825 3.3263 15.7887 2.33162 15.7392C2.25018 15.7355 2.16935 15.7549 2.09849 15.7952C2.02762 15.8355 1.9696 15.895 1.93115 15.9669C1.88889 16.0368 1.86654 16.1169 1.86654 16.1986C1.86654 16.2802 1.88889 16.3603 1.93115 16.4302C1.97163 16.5003 2.03008 16.5584 2.10047 16.5984C2.17086 16.6385 2.25065 16.659 2.33162 16.6579C3.52827 16.6909 4.69933 16.3079 5.6453 15.5743C6.41195 14.9225 7.03724 14.1209 7.48274 13.2186C7.5288 13.1458 7.55325 13.0614 7.55325 12.9752C7.55325 12.889 7.5288 12.8046 7.48274 12.7318C7.4352 12.6592 7.36758 12.602 7.28811 12.5671C7.20865 12.5323 7.12077 12.5213 7.03516 12.5355L6.98019 12.5198ZM16.081 12.9595H16.0261C15.9209 12.9817 15.8269 13.0403 15.7608 13.1251C15.6947 13.2099 15.6607 13.3153 15.6649 13.4228C15.6028 16.4039 14.6361 19.2957 12.893 21.7148C12.8542 21.7623 12.8254 21.8171 12.8083 21.876C12.7913 21.9348 12.7862 21.9966 12.7936 22.0574C12.8009 22.1183 12.8204 22.177 12.851 22.2301C12.8816 22.2833 12.9226 22.3297 12.9715 22.3666C13.0194 22.4043 13.0743 22.4322 13.133 22.4487C13.1917 22.4652 13.2531 22.47 13.3137 22.4627C13.3742 22.4554 13.4328 22.4362 13.4859 22.4062C13.539 22.3763 13.5857 22.3361 13.6233 22.288C15.4923 19.7046 16.5254 16.6109 16.5836 13.4228C16.5864 13.3572 16.5752 13.2918 16.5509 13.2309C16.5265 13.17 16.4895 13.115 16.4422 13.0694C16.3939 13.0248 16.3369 12.9906 16.2747 12.969C16.2126 12.9474 16.1466 12.9388 16.081 12.9438V12.9595ZM10.1761 17.0191C10.1076 17.0271 10.0417 17.0503 9.98329 17.087C9.92488 17.1236 9.87539 17.1729 9.83844 17.2311C8.95578 18.6023 7.6846 19.6794 6.18711 20.325C6.07701 20.3734 5.99005 20.4627 5.94462 20.5741C5.89919 20.6855 5.89886 20.8101 5.94369 20.9217C5.99223 21.0338 6.08242 21.1227 6.19522 21.1696C6.30802 21.2165 6.43462 21.2177 6.54832 21.173C8.20702 20.4488 9.61609 19.2527 10.6001 17.7337C10.646 17.6593 10.6703 17.5737 10.6703 17.4864C10.6703 17.399 10.646 17.3134 10.6001 17.239C10.5588 17.1638 10.4971 17.1017 10.4221 17.0601C10.3471 17.0184 10.2618 16.9988 10.1761 17.0034V17.0191ZM17.6358 17.7337C17.5439 17.7491 17.4589 17.7917 17.3916 17.8562C17.3244 17.9206 17.2781 18.0038 17.2589 18.0949C16.8977 19.4612 16.5365 20.4506 16.5365 20.4506C16.5053 20.5283 16.4954 20.613 16.5079 20.6958C16.5203 20.7786 16.5546 20.8566 16.6071 20.9217C16.66 20.9845 16.7285 21.0321 16.8058 21.0597C16.883 21.0873 16.9662 21.0939 17.0469 21.0788C17.1296 21.0655 17.2068 21.0289 17.2694 20.9733C17.332 20.9176 17.3774 20.8453 17.4002 20.7647C17.4002 20.7647 17.7771 19.7753 18.1855 18.3619C18.2059 18.2902 18.2087 18.2147 18.1937 18.1418C18.1787 18.0688 18.1463 18.0005 18.0993 17.9427C18.0523 17.8849 17.992 17.8393 17.9237 17.8098C17.8553 17.7802 17.7808 17.7676 17.7065 17.773L17.6358 17.7337Z" fill="#C9C2EA"/>
</svg>
