<svg width="24" height="24" viewBox="0 0 24 24" fill="none" xmlns="http://www.w3.org/2000/svg">
<path d="M14.7298 13.9096H3.61772C3.49942 13.9097 3.38231 13.8859 3.27347 13.8395C3.16463 13.7932 3.06629 13.7253 2.98438 13.6399C2.90248 13.5545 2.8387 13.4535 2.79689 13.3428C2.75508 13.2321 2.7361 13.1141 2.7411 12.9959V2.90866C2.73248 2.71482 2.78841 2.5236 2.90012 2.36496C3.01184 2.20633 3.17303 2.08923 3.35844 2.03204C3.44901 2.00812 3.54262 1.99772 3.63624 2.00117H19.2425C19.3674 1.99473 19.4922 2.0149 19.6088 2.06035C19.7253 2.10579 19.8308 2.17547 19.9183 2.26477C20.0059 2.35408 20.0735 2.46096 20.1166 2.57835C20.1597 2.69574 20.1774 2.82095 20.1685 2.9457V12.3909H19.687V2.9457C19.6945 2.88469 19.6884 2.82276 19.669 2.76443C19.6496 2.70609 19.6175 2.65281 19.5749 2.60847C19.5323 2.56412 19.4804 2.52982 19.4229 2.50807C19.3654 2.48631 19.3038 2.47764 19.2425 2.48269H3.64859C3.59753 2.47369 3.5453 2.47369 3.49425 2.48269C3.40575 2.50655 3.32809 2.55999 3.27418 2.63412C3.22027 2.70824 3.19336 2.79859 3.19793 2.89014V12.9959C3.19215 13.0533 3.19919 13.1112 3.21856 13.1655C3.23792 13.2199 3.26911 13.2692 3.30988 13.3099C3.35065 13.3507 3.39998 13.3819 3.45428 13.4013C3.50859 13.4206 3.56653 13.4277 3.62389 13.4219H14.736L14.7298 13.9096Z" fill="currentColor"/>
<path d="M13.3775 16.7987H2.08643C1.75307 16.7987 1.16042 16.6382 1.01844 15.564C0.980206 15.3708 1.00174 15.1706 1.08017 14.9899C1.11317 14.8963 1.17538 14.8158 1.25763 14.7602C1.33989 14.7046 1.43783 14.6769 1.537 14.6813H3.56186L8.66107 14.7492C8.77277 14.7475 8.88139 14.7858 8.96739 14.8571C9.0534 14.9284 9.11115 15.028 9.13024 15.1381C9.17346 15.2862 9.20432 15.2862 9.25988 15.2862H13.3775V15.7739H9.25371C9.10929 15.7769 8.96841 15.729 8.85562 15.6388C8.74282 15.5486 8.66523 15.4216 8.63637 15.2801L6.8214 15.2122L3.52482 15.1751H1.50613C1.46533 15.2813 1.45465 15.3966 1.47527 15.5085C1.58639 16.3172 1.95062 16.3172 2.0926 16.3172H13.3775V16.7987Z" fill="currentColor"/>
<path d="M18.3606 22.4659C17.49 22.4659 16.639 22.2077 15.9152 21.7241C15.1914 21.2404 14.6272 20.553 14.294 19.7487C13.9609 18.9444 13.8737 18.0594 14.0436 17.2056C14.2134 16.3517 14.6326 15.5674 15.2482 14.9519C15.8638 14.3363 16.6481 13.9171 17.5019 13.7472C18.3557 13.5774 19.2407 13.6646 20.045 13.9977C20.8493 14.3309 21.5367 14.895 22.0204 15.6189C22.5041 16.3427 22.7622 17.1937 22.7622 18.0643C22.7606 19.2312 22.2963 20.3498 21.4712 21.1749C20.6461 22 19.5275 22.4642 18.3606 22.4659Z" fill="#C9C2EA"/>
<path d="M18.3582 22.6572C17.4398 22.6572 16.542 22.3848 15.7784 21.8744C15.0148 21.364 14.4198 20.6386 14.0686 19.79C13.7174 18.9414 13.6258 18.0076 13.8055 17.1069C13.9851 16.2062 14.4279 15.379 15.0777 14.73C15.7276 14.081 16.5554 13.6394 17.4563 13.4609C18.3572 13.2825 19.2909 13.3753 20.139 13.7277C20.9872 14.08 21.7118 14.676 22.2212 15.4402C22.7306 16.2044 23.0018 17.1026 23.0006 18.021C22.9989 19.2512 22.5091 20.4304 21.6387 21.2997C20.7682 22.169 19.5884 22.6572 18.3582 22.6572ZM18.3582 13.8602C17.5342 13.8553 16.7273 14.0952 16.0399 14.5494C15.3524 15.0036 14.8152 15.6517 14.4965 16.4116C14.1778 17.1714 14.0919 18.0088 14.2496 18.8175C14.4074 19.6263 14.8017 20.37 15.3826 20.9544C15.9635 21.5387 16.7048 21.9375 17.5126 22.1C18.3204 22.2626 19.1583 22.1817 19.92 21.8675C20.6818 21.5533 21.3331 21.02 21.7914 20.3352C22.2497 19.6505 22.4943 18.845 22.4943 18.021C22.4944 16.9218 22.0594 15.8672 21.2844 15.0876C20.5094 14.308 19.4574 13.8667 18.3582 13.8602Z" fill="currentColor"/>
<path d="M17.8661 21.4535C17.8213 21.4628 17.7751 21.4628 17.7303 21.4535L16.5389 20.9719C16.4523 20.9345 16.3807 20.8693 16.3351 20.7867C16.2901 20.7083 16.2747 20.6163 16.2919 20.5274L16.4586 19.8113C16.3624 19.7171 16.2755 19.6137 16.1993 19.5027H15.4894C15.3945 19.5038 15.3023 19.4708 15.2297 19.4096C15.1572 19.3484 15.1091 19.2631 15.0943 19.1693L14.8967 17.9346C14.8813 17.8403 14.901 17.7436 14.9523 17.663C15.0015 17.5816 15.0781 17.5203 15.1684 17.4902L15.8598 17.2679C15.8747 17.2024 15.8954 17.1384 15.9215 17.0765C15.9434 17.0128 15.9702 16.9509 16.0018 16.8913L15.6375 16.274C15.5882 16.1919 15.5705 16.0946 15.5875 16.0004C15.6045 15.9061 15.6552 15.8213 15.7301 15.7616L16.7179 14.9652C16.7952 14.9094 16.888 14.8792 16.9833 14.8788C17.077 14.885 17.1659 14.9219 17.2364 14.9838L17.7612 15.4776C17.8968 15.4438 18.0353 15.4232 18.1748 15.4159L18.5205 14.7986C18.5683 14.7166 18.6431 14.6539 18.7321 14.6212C18.8211 14.5886 18.9188 14.588 19.0082 14.6195L20.1935 15.0764C20.2794 15.1113 20.3511 15.1742 20.397 15.2548C20.4429 15.3354 20.4604 15.4291 20.4466 15.5208L20.2799 16.237C20.3755 16.3324 20.4604 16.4379 20.533 16.5518H21.243C21.3396 16.5502 21.4337 16.583 21.5084 16.6444C21.5778 16.7084 21.6253 16.7927 21.6442 16.8852L21.8356 18.1198C21.8529 18.2134 21.8353 18.31 21.7862 18.3915C21.737 18.4729 21.6604 18.5341 21.5701 18.5643L20.8787 18.7742C20.8787 18.8359 20.8355 18.9039 20.8108 18.9656C20.8108 19.0273 20.7614 19.0829 20.7306 19.1446L21.101 19.762C21.1484 19.8463 21.1638 19.945 21.1442 20.0398C21.1254 20.132 21.0752 20.2149 21.0022 20.2743L20.0268 21.0707C19.9518 21.1264 19.861 21.1567 19.7675 21.1571C19.6717 21.1523 19.5804 21.1154 19.5082 21.0522L18.9835 20.5583C18.8541 20.5929 18.7219 20.6156 18.5884 20.6262L18.2427 21.2436C18.1926 21.3256 18.1166 21.3886 18.0266 21.4226C17.9763 21.4453 17.9213 21.4559 17.8661 21.4535ZM16.7796 20.5645L17.8291 20.9534L18.1439 20.3855C18.1825 20.3172 18.2377 20.2599 18.3044 20.2188C18.3689 20.1759 18.4433 20.1504 18.5205 20.1447C18.6308 20.1378 18.7403 20.1213 18.8477 20.0953C18.9244 20.0737 19.0056 20.0737 19.0823 20.0953C19.1588 20.1137 19.2291 20.152 19.286 20.2064L19.7737 20.6571L20.6441 19.9472L20.175 19.157L20.2429 19.0335C20.2906 18.9556 20.3299 18.8728 20.3602 18.7866L20.4157 18.6322C20.4361 18.5551 20.4766 18.4848 20.533 18.4285C20.5897 18.3711 20.6597 18.3287 20.7367 18.305L21.3541 18.1137L21.1689 17.0086H20.5207C20.4432 17.0085 20.3669 16.9894 20.2984 16.9531C20.2299 16.9153 20.1708 16.8626 20.1256 16.7987C20.0646 16.7071 19.9965 16.6204 19.9219 16.5395C19.8677 16.4814 19.8276 16.4117 19.8046 16.3357C19.786 16.2586 19.786 16.1782 19.8046 16.1011L19.9527 15.4838L18.8971 15.0949L18.5822 15.6567C18.5461 15.7247 18.4929 15.7821 18.4279 15.8233C18.3612 15.8662 18.2848 15.8917 18.2057 15.8974C18.0953 15.9069 17.9858 15.9255 17.8785 15.953C17.8035 15.9715 17.7251 15.9715 17.6501 15.953C17.5721 15.9336 17.5 15.8954 17.4402 15.8419L16.9401 15.3789L16.0759 16.095L16.4092 16.6444C16.4475 16.7124 16.4687 16.7887 16.4709 16.8666C16.476 16.9479 16.4589 17.0289 16.4216 17.1012L16.3598 17.2494C16.3406 17.2999 16.3241 17.3514 16.3104 17.4037C16.2878 17.4812 16.2452 17.5515 16.187 17.6074C16.1315 17.6632 16.0639 17.7055 15.9894 17.7309L15.3721 17.9223L15.5635 19.0273H16.1808C16.2603 19.0187 16.3404 19.036 16.4092 19.0767C16.48 19.1163 16.5411 19.1712 16.5882 19.2372C16.6483 19.3295 16.7165 19.4163 16.792 19.4965C16.8455 19.5516 16.8837 19.6197 16.9031 19.694C16.9217 19.7711 16.9217 19.8515 16.9031 19.9286L16.7796 20.5645ZM18.3723 19.2063C18.1551 19.2087 17.9415 19.151 17.755 19.0397C17.5469 18.9116 17.3815 18.7247 17.2797 18.5026C17.1796 18.2779 17.1516 18.0277 17.1994 17.7865C17.2519 17.5514 17.3721 17.3368 17.5451 17.1691C17.7185 17.0008 17.9374 16.887 18.1748 16.8419C18.4179 16.8061 18.6661 16.8471 18.8847 16.9592C19.1299 17.0831 19.325 17.2875 19.4374 17.5381C19.5498 17.7888 19.5726 18.0704 19.5021 18.3359C19.4359 18.5769 19.2981 18.7922 19.107 18.9532C18.9177 19.1088 18.6847 19.2016 18.4403 19.2187L18.3723 19.2063ZM18.3723 17.3111H18.2674C18.1235 17.3352 17.9902 17.4018 17.8846 17.5025C17.7807 17.6024 17.7096 17.7316 17.6809 17.8729C17.6509 18.0165 17.6683 18.1659 17.7303 18.2989C17.7893 18.4309 17.8859 18.5425 18.0081 18.6199C18.1354 18.693 18.2813 18.7273 18.4279 18.7187C18.5611 18.7012 18.687 18.6478 18.7921 18.5643C18.9039 18.4719 18.9839 18.3466 19.0205 18.2063C19.0728 18.0521 19.0728 17.8851 19.0205 17.7309C18.9542 17.5832 18.8385 17.4631 18.6934 17.3914C18.5913 17.3355 18.4763 17.3078 18.36 17.3111H18.3723Z" fill="currentColor"/>
</svg>
