<svg width="24" height="25" viewBox="0 0 24 25" fill="none" xmlns="http://www.w3.org/2000/svg">
<path d="M12.2179 10.5087C12.081 10.3913 11.9051 10.3262 11.7161 10.3262C11.4945 10.3262 11.286 10.4239 11.1361 10.5869L7.97527 14.2625C7.70155 14.5818 7.73414 15.0641 8.05348 15.3378C8.19034 15.4551 8.3663 15.5203 8.54878 15.5203C8.77036 15.5203 8.9789 15.4225 9.1288 15.2531L12.2896 11.5775C12.5698 11.2646 12.5372 10.7824 12.2179 10.5087Z" fill="#C2E843"/>
<path d="M8.70501 10.5869C8.55512 10.463 8.36612 10.3979 8.17712 10.4044C7.96858 10.4109 7.76655 10.5086 7.62969 10.6716L5.15319 13.6694C5.15319 13.6694 4.96419 13.8324 4.73609 13.8324C4.50799 13.8324 4.319 13.6694 4.319 13.6694L1.8425 10.6716C1.70564 10.5086 1.50361 10.4109 1.29506 10.4044C1.10607 10.3979 0.91707 10.463 0.767177 10.5869C0.447838 10.8606 0.408736 11.3428 0.682454 11.6622L3.22412 14.6405C3.25671 14.6796 3.95404 15.4942 4.60575 15.5268C4.65137 15.5268 4.69047 15.5268 4.73609 15.5268C4.78171 15.5268 4.82082 15.5268 4.86643 15.5268C5.51815 15.4942 6.21548 14.6796 6.24806 14.647L8.78973 11.6687C9.06345 11.3428 9.02435 10.8606 8.70501 10.5869Z" fill="#C2E843"/>
<path d="M23.3168 14.2691L20.7751 11.2907C20.749 11.2516 20.0517 10.437 19.3935 10.4044C19.3479 10.4044 19.3088 10.4044 19.2631 10.4044C19.224 10.4044 19.1784 10.4044 19.1328 10.4044C18.4811 10.437 17.7838 11.2516 17.7512 11.2842L16.5129 12.7375L16.5064 12.7441L15.6852 13.7151C15.6136 13.7607 15.4767 13.8324 15.3333 13.8324C15.1052 13.8324 14.9162 13.6695 14.9162 13.6695L13.8083 12.2879C13.6715 12.1249 13.4759 12.0272 13.2609 12.0207C13.0654 12.0141 12.8764 12.0728 12.733 12.2031C12.4137 12.4769 12.3746 12.9591 12.6483 13.2785L13.8279 14.6471C13.8605 14.6796 14.5578 15.5008 15.2095 15.5269C15.2551 15.5269 15.2942 15.5269 15.3398 15.5269C15.3855 15.5269 15.4246 15.5269 15.4702 15.5269C15.8221 15.5073 16.1089 15.4682 16.7215 14.8165C17.0017 14.5167 18.8526 12.2683 18.8526 12.2683C18.8526 12.2683 19.0416 12.1054 19.2697 12.1054C19.4978 12.1054 19.6933 12.2683 19.6933 12.2683L22.1698 15.2597C22.3066 15.4226 22.5021 15.5203 22.7172 15.5269C22.9127 15.5334 23.1017 15.4682 23.2451 15.3444C23.5514 15.0707 23.5905 14.5884 23.3168 14.2691Z" fill="#C2E843"/>
<path d="M19.6343 13.324L19.5952 13.3175H18.9435L18.9109 13.324C18.546 13.3892 18.3048 13.715 18.37 14.0539C18.4026 14.2038 18.4873 14.3342 18.6111 14.4254C18.7089 14.4971 18.8262 14.5362 18.924 14.5492H18.9435H19.6083H19.6213C19.719 14.5297 19.8298 14.4971 19.9276 14.4254C20.0514 14.3342 20.1361 14.1973 20.1687 14.0539C20.2404 13.715 19.9993 13.3827 19.6343 13.324Z" fill="#C2E843"/>
</svg>
