<svg width="24" height="24" viewBox="0 0 24 24" fill="none" xmlns="http://www.w3.org/2000/svg">
<path d="M5.71289 3.0307C4.40794 3.80523 3.75835 5.08657 3.59668 5.63043V12.8528C4.40067 20.3306 9.57351 22.4251 12.0594 22.5376C18.2557 21.9638 20.1993 15.7962 20.3965 12.7841V5.63043C19.7152 3.38929 15.466 1.82946 12.5435 1.52466C9.62108 1.21987 7.34408 2.06253 5.71289 3.0307Z" fill="white"/>
<path d="M12 1.47637L11.9843 1.72588L12 1.72687L12.0157 1.72588L12 1.47637ZM20.4316 5.6463H20.6816V5.58973L20.6573 5.53867L20.4316 5.6463ZM20.4316 12.5672L20.6816 12.5797V12.5672H20.4316ZM12 22.5389L11.9718 22.7873L12 22.7905L12.0282 22.7873L12 22.5389ZM3.56934 12.5672H3.31902L3.31965 12.5797L3.56934 12.5672ZM3.56934 5.6463L3.34369 5.53867L3.31934 5.58973V5.6463H3.56934ZM12 1.47637L12.0157 1.72588C13.0282 1.66228 14.6654 1.78893 16.258 2.37776C17.8487 2.96589 19.3722 4.00572 20.206 5.75392L20.4316 5.6463L20.6573 5.53867C19.7499 3.63632 18.1 2.52572 16.4314 1.90879C14.7647 1.29256 13.0566 1.15951 11.9843 1.22687L12 1.47637ZM20.4316 5.6463H20.1816V12.5672H20.4316H20.6816V5.6463H20.4316ZM20.4316 12.5672L20.182 12.5547C20.1081 14.031 19.6054 16.2986 18.3417 18.2799C17.0829 20.2535 15.0742 21.9379 11.9718 22.2905L12 22.5389L12.0282 22.7873C15.3079 22.4146 17.4395 20.6243 18.7632 18.5488C20.082 16.4811 20.604 14.1256 20.6813 12.5797L20.4316 12.5672ZM12 22.5389L12.0282 22.2905C8.92595 21.9378 6.91749 20.2534 5.65894 18.2799C4.39543 16.2986 3.89285 14.031 3.81902 12.5547L3.56934 12.5672L3.31965 12.5797C3.39696 14.1255 3.91879 16.4811 5.23737 18.5487C6.56091 20.6241 8.69221 22.4145 11.9718 22.7873L12 22.5389ZM3.56934 12.5672H3.81934V5.6463H3.56934H3.31934V12.5672H3.56934ZM3.56934 5.6463L3.79498 5.75393C4.6288 4.00583 6.15202 2.96601 7.74246 2.37787C9.33482 1.78902 10.9717 1.66232 11.9843 1.72588L12 1.47637L12.0157 1.22687C10.9433 1.15955 9.2355 1.29266 7.56904 1.90891C5.90067 2.52587 4.25102 3.63645 3.34369 5.53867L3.56934 5.6463Z" fill="currentColor"/>
<circle cx="11.9995" cy="12" r="5.6733" fill="#7866CB"/>
<circle cx="11.9995" cy="12" r="5.6733" stroke="currentColor" stroke-width="0.5"/>
<g clip-path="url(#clip0_1_4492)">
<path d="M8.8418 11.9735H10.8318C11.5524 11.9735 12.1365 12.5576 12.1365 13.2782V13.3311C12.1365 14.0516 11.5524 14.6358 10.8318 14.6358H8.8418V9.36426H10.1728C10.8934 9.36426 11.4775 9.9484 11.4775 10.669C11.4774 11.3895 10.8934 11.9735 10.1728 11.9735H8.8418Z" stroke="currentColor" stroke-width="0.5" stroke-linecap="round" stroke-linejoin="round"/>
<path d="M15.1585 11.3411H13.9475C13.5245 11.3411 13.1816 11.684 13.1816 12.107C13.1816 12.4366 13.3926 12.7293 13.7053 12.8335L14.6348 13.1433C14.9475 13.2476 15.1585 13.5403 15.1585 13.8699C15.1585 14.2929 14.8156 14.6358 14.3926 14.6358H13.1816" stroke="currentColor" stroke-width="0.5" stroke-linecap="round" stroke-linejoin="round"/>
</g>
<defs>
<clipPath id="clip0_1_4492">
<rect width="7.28957" height="6.24393" fill="white" transform="translate(8.35449 8.87802)"/>
</clipPath>
</defs>
</svg>
