<svg width="24" height="24" viewBox="0 0 24 24" fill="none" xmlns="http://www.w3.org/2000/svg">
<path d="M18.4755 17.5962L21.2014 16.8333L19.4372 10.5328L16.7628 11.282C16.5553 11.3112 16.0427 11.3798 15.6227 11.3798C15.4907 11.3798 15.1872 11.2923 14.8649 11.2015C14.0797 10.9786 13.0065 10.6717 12.0173 10.8294C11.6161 10.8929 11.2269 11.0232 10.8515 11.198C9.91199 10.8277 9.00335 11.0214 8.1993 11.1929C7.58039 11.3266 6.99407 11.45 6.49003 11.2957L3.76755 10.5328L2 16.8556L4.72591 17.6185L4.89906 17.003C5.21108 17.2173 5.44081 17.591 5.71855 18.0471C6.08886 18.654 6.55004 19.41 7.40553 20.0529L11.1052 22.7617C11.3127 22.9177 11.5595 23 11.815 23C11.8716 23 11.9281 22.9966 11.9847 22.988C12.2984 22.9434 12.5762 22.7788 12.7648 22.5268C12.9002 22.3468 12.9722 22.1394 12.9911 21.9302C13.1848 22.0382 13.3991 22.0982 13.6203 22.0982C13.682 22.0982 13.7437 22.0931 13.8071 22.0845C14.15 22.0348 14.4535 21.8565 14.6626 21.5788C14.8546 21.3216 14.9386 21.0096 14.9129 20.6924C14.9849 20.7044 15.0552 20.7113 15.1272 20.7113C15.5215 20.7113 15.9124 20.5313 16.1679 20.1918C16.3667 19.9278 16.4422 19.6123 16.4164 19.3055C16.4885 19.3175 16.5605 19.3243 16.6325 19.3243C17.0268 19.3243 17.4177 19.146 17.6731 18.8066C18.0108 18.3574 18.0074 17.7608 17.7125 17.3133C17.8668 17.2019 18.0846 17.0424 18.28 16.9001L18.4755 17.5962ZM17.2051 18.4517C16.9685 18.7654 16.521 18.8288 16.2073 18.594L15.909 18.3711C15.9073 18.3694 15.9056 18.3677 15.9038 18.366L14.3094 17.2362L13.9717 17.7145L15.5592 18.8391C15.8747 19.0757 15.9381 19.5232 15.7015 19.8386C15.465 20.1524 15.0175 20.2175 14.7038 19.9809L14.4054 19.7581C14.4037 19.7563 14.402 19.7546 14.4003 19.7529L12.8059 18.6231L12.4682 19.1014L14.0557 20.2261C14.2083 20.341 14.3077 20.5073 14.3334 20.6958C14.3609 20.8844 14.3129 21.0713 14.198 21.2239C14.0831 21.3765 13.9168 21.4759 13.7283 21.5016C13.5397 21.5273 13.3528 21.481 13.2002 21.3662L12.5316 20.8656V20.8673C12.5282 20.8656 12.5265 20.8621 12.5247 20.8604L11.3007 20.0084L10.9663 20.4884L12.1819 21.3336C12.4459 21.5325 12.5007 21.9096 12.3019 22.1737C12.2059 22.3022 12.0653 22.3845 11.9076 22.4068C11.7481 22.4291 11.5904 22.388 11.4601 22.2902L7.76041 19.5815C6.9975 19.0089 6.58604 18.3351 6.2243 17.7419C5.88142 17.1779 5.57797 16.6893 5.06707 16.4201L6.34259 11.8615C6.56375 11.9266 6.78834 11.9541 7.01635 11.9541C7.45181 11.9541 7.89585 11.8581 8.32959 11.7655C8.91935 11.6386 9.52282 11.5118 10.128 11.6043C9.2828 12.1427 8.50275 12.8696 7.77927 13.5468C7.25637 14.0439 7.1998 14.7091 7.63354 15.2423C8.13243 15.8561 9.19879 16.1115 10.1177 15.4755C10.6218 15.1274 11.6693 14.4417 11.9538 14.2548H12.5727L17.0662 17.4522C17.3765 17.6888 17.4417 18.1362 17.2051 18.4517ZM17.2874 16.895L12.7545 13.6702H11.7738L11.7001 13.7182C11.6864 13.7268 10.3663 14.5874 9.77655 14.9954C9.07021 15.484 8.35874 15.2183 8.07929 14.8737C7.96785 14.7366 7.75184 14.3714 8.17187 13.9737C9.34452 12.8781 10.6715 11.6369 12.1081 11.4089C12.9688 11.2717 13.9717 11.5581 14.7038 11.7655C15.1118 11.8821 15.4084 11.9661 15.621 11.9661C16.0976 11.9661 16.6582 11.8906 16.8673 11.8598L18.1086 16.2967C17.8548 16.4835 17.4794 16.7561 17.2874 16.895Z" fill="currentColor"/>
<mask id="path-2-inside-1_1_2502" fill="white">
<path d="M16.9053 2.92041C17.734 2.92041 18.4062 3.59262 18.4062 4.42139V5.20166C18.4062 6.03037 17.734 6.70166 16.9053 6.70166H12.2832V7.35107C12.283 7.73115 11.9749 8.03955 11.5947 8.03955C11.2272 8.03949 10.9297 7.74104 10.9297 7.37354V6.70166H6.29785C5.46913 6.70166 4.79695 6.03037 4.79688 5.20166V4.42139C4.79688 3.59262 5.46908 2.92041 6.29785 2.92041H16.9053Z"/>
</mask>
<path d="M16.9053 2.92041C17.734 2.92041 18.4062 3.59262 18.4062 4.42139V5.20166C18.4062 6.03037 17.734 6.70166 16.9053 6.70166H12.2832V7.35107C12.283 7.73115 11.9749 8.03955 11.5947 8.03955C11.2272 8.03949 10.9297 7.74104 10.9297 7.37354V6.70166H6.29785C5.46913 6.70166 4.79695 6.03037 4.79688 5.20166V4.42139C4.79688 3.59262 5.46908 2.92041 6.29785 2.92041H16.9053Z" fill="#C9C2EA"/>
<path d="M18.4062 5.20166L18.7814 5.20169V5.20166H18.4062ZM12.2832 6.70166V6.32651H11.908V6.70166H12.2832ZM12.2832 7.35107L12.6584 7.3513V7.35107H12.2832ZM11.5947 8.03955L11.5947 8.4147H11.5947V8.03955ZM10.9297 7.37354H11.3048H10.9297ZM10.9297 6.70166H11.3048V6.32651H10.9297V6.70166ZM4.79688 5.20166H4.42172V5.20169L4.79688 5.20166ZM16.9053 2.92041V3.29556C17.5268 3.29556 18.0311 3.79981 18.0311 4.42139H18.4062H18.7814C18.7814 3.38543 17.9412 2.54526 16.9053 2.54526V2.92041ZM18.4062 4.42139H18.0311V5.20166H18.4062H18.7814V4.42139H18.4062ZM18.4062 5.20166L18.0311 5.20163C18.031 5.82288 17.5271 6.32651 16.9053 6.32651V6.70166V7.07681C17.9409 7.07681 18.7813 6.23785 18.7814 5.20169L18.4062 5.20166ZM16.9053 6.70166V6.32651H12.2832V6.70166V7.07681H16.9053V6.70166ZM12.2832 6.70166H11.908V7.35107H12.2832H12.6584V6.70166H12.2832ZM12.2832 7.35107L11.908 7.35085C11.9079 7.52413 11.7674 7.6644 11.5947 7.6644V8.03955V8.4147C12.1823 8.4147 12.658 7.93816 12.6584 7.3513L12.2832 7.35107ZM11.5947 8.03955L11.5948 7.6644C11.4351 7.66437 11.3048 7.5345 11.3048 7.37354H10.9297H10.5545C10.5545 7.94758 11.0194 8.41461 11.5947 8.4147L11.5947 8.03955ZM10.9297 7.37354H11.3048V6.70166H10.9297H10.5545V7.37354H10.9297ZM10.9297 6.70166V6.32651H6.29785V6.70166V7.07681H10.9297V6.70166ZM6.29785 6.70166V6.32651C5.67603 6.32651 5.17208 5.82288 5.17203 5.20163L4.79688 5.20166L4.42172 5.20169C4.42181 6.23785 5.26222 7.07681 6.29785 7.07681V6.70166ZM4.79688 5.20166H5.17203V4.42139H4.79688H4.42172V5.20166H4.79688ZM4.79688 4.42139H5.17203C5.17203 3.79981 5.67628 3.29556 6.29785 3.29556V2.92041V2.54526C5.26189 2.54526 4.42172 3.38543 4.42172 4.42139H4.79688ZM6.29785 2.92041V3.29556H16.9053V2.92041V2.54526H6.29785V2.92041Z" fill="currentColor" mask="url(#path-2-inside-1_1_2502)"/>
<path d="M12.8105 1C13.2248 1.00001 13.5604 1.33576 13.5605 1.75V3.08496H12.9678V1.99219H10.207V3.08496H9.54395V1.75C9.54411 1.33586 9.87981 1.00017 10.2939 1H12.8105Z" fill="currentColor"/>
<path d="M4.99805 6.94147C5.14971 7.18104 5.4162 7.34086 5.7207 7.34088H10.4746C10.4683 7.38888 10.4639 7.43766 10.4639 7.48737C10.4639 8.10756 10.9667 8.61041 11.5869 8.61041C12.207 8.61029 12.71 8.10749 12.71 7.48737C12.71 7.43768 12.7055 7.38886 12.6992 7.34088H17.4746C17.779 7.34088 18.0456 7.18092 18.1973 6.94147H18.2041V10.2032H4.99121V6.94147H4.99805Z" fill="#C9C2EA"/>
<path d="M4.99805 6.94147L5.1791 6.82685L5.11601 6.72718H4.99805V6.94147ZM5.7207 7.34088L5.72069 7.55517H5.7207V7.34088ZM10.4746 7.34088L10.6871 7.3686L10.7187 7.1266H10.4746V7.34088ZM10.4639 7.48737L10.2496 7.48736V7.48737H10.4639ZM11.5869 8.61041V8.8247H11.587L11.5869 8.61041ZM12.71 7.48737H12.9242V7.48736L12.71 7.48737ZM12.6992 7.34088V7.1266H12.4552L12.4867 7.36859L12.6992 7.34088ZM18.1973 6.94147V6.72718H18.0794L18.0162 6.82679L18.1973 6.94147ZM18.2041 6.94147H18.4184V6.72718H18.2041V6.94147ZM18.2041 10.2032V10.4175H18.4184V10.2032H18.2041ZM4.99121 10.2032H4.77693V10.4175H4.99121V10.2032ZM4.99121 6.94147V6.72718H4.77693V6.94147H4.99121ZM4.99805 6.94147L4.81699 7.05609C5.00594 7.35455 5.33909 7.55514 5.72069 7.55517L5.7207 7.34088L5.72072 7.1266C5.4933 7.12658 5.29348 7.00752 5.1791 6.82685L4.99805 6.94147ZM5.7207 7.34088V7.55517H10.4746V7.34088V7.1266H5.7207V7.34088ZM10.4746 7.34088L10.2621 7.31316C10.2552 7.36632 10.2496 7.42505 10.2496 7.48736L10.4639 7.48737L10.6782 7.48737C10.6782 7.45026 10.6815 7.41145 10.6871 7.3686L10.4746 7.34088ZM10.4639 7.48737H10.2496C10.2496 8.22591 10.8484 8.8247 11.5869 8.8247V8.61041V8.39613C11.0851 8.39613 10.6782 7.98921 10.6782 7.48737H10.4639ZM11.5869 8.61041L11.587 8.8247C12.3253 8.82456 12.9242 8.22587 12.9242 7.48737H12.71H12.4957C12.4957 7.9891 12.0887 8.39603 11.5869 8.39613L11.5869 8.61041ZM12.71 7.48737L12.9242 7.48736C12.9242 7.42507 12.9186 7.36629 12.9117 7.31317L12.6992 7.34088L12.4867 7.36859C12.4923 7.41143 12.4957 7.45029 12.4957 7.48737L12.71 7.48737ZM12.6992 7.34088V7.55517H17.4746V7.34088V7.1266H12.6992V7.34088ZM17.4746 7.34088V7.55517C17.8562 7.55517 18.1893 7.35438 18.3783 7.05614L18.1973 6.94147L18.0162 6.82679C17.9018 7.00745 17.7019 7.1266 17.4746 7.1266V7.34088ZM18.1973 6.94147V7.15575H18.2041V6.94147V6.72718H18.1973V6.94147ZM18.2041 6.94147H17.9898V10.2032H18.2041H18.4184V6.94147H18.2041ZM18.2041 10.2032V9.9889H4.99121V10.2032V10.4175H18.2041V10.2032ZM4.99121 10.2032H5.2055V6.94147H4.99121H4.77693V10.2032H4.99121ZM4.99121 6.94147V7.15575H4.99805V6.94147V6.72718H4.99121V6.94147Z" fill="currentColor"/>
</svg>
