<svg width="24" height="24" viewBox="0 0 24 24" fill="none" xmlns="http://www.w3.org/2000/svg">
<path d="M15.2452 11.931C17.4642 11.931 19.2629 10.0052 19.2629 7.62966C19.2629 5.25409 17.4642 3.32831 15.2452 3.32831C13.0263 3.32831 11.2275 5.25409 11.2275 7.62966C11.2275 10.0052 13.0263 11.931 15.2452 11.931Z" fill="#C9C2EA"/>
<path d="M15.2463 12.266C12.8602 12.266 10.9219 10.1908 10.9219 7.63627C10.9219 5.08172 12.8602 3 15.2463 3C17.6324 3 19.5707 5.07516 19.5707 7.6297C19.5707 10.1842 17.6262 12.2594 15.2463 12.2594V12.266ZM15.2463 3.65669C13.1975 3.65669 11.5353 5.44291 11.5353 7.6297C11.5353 9.81649 13.2037 11.6027 15.2463 11.6027C17.2889 11.6027 18.9573 9.81649 18.9573 7.6297C18.9573 5.44291 17.2889 3.65669 15.2463 3.65669Z" fill="currentColor"/>
<path d="M22.8215 12.9358L22.5271 12.4301C22.2327 11.9179 21.6438 11.7143 21.1286 11.9442L16.4545 14.0062C16.3012 14.0719 16.2215 14.2689 16.2889 14.433C16.3564 14.5972 16.5343 14.6826 16.6876 14.6103L21.3617 12.5483C21.6009 12.4433 21.8708 12.5352 22.0057 12.7716L22.3001 13.2773C22.4535 13.5399 22.3799 13.8748 22.1468 14.0456L15.835 18.5374C15.283 18.9314 14.6144 19.1218 13.958 19.0824L5.11911 18.5965L4.59773 14.9978C4.6652 14.9781 4.73267 14.9321 4.77561 14.8665C5.56688 13.5793 7.04515 12.6862 8.54795 12.5943C9.61525 12.5221 10.5169 12.8767 11.069 13.5859C11.1242 13.6581 11.2039 13.6975 11.2898 13.7041L14.2157 13.8748C14.3997 13.888 14.5469 14.0587 14.5346 14.2557L14.4794 15.313C14.4794 15.4115 14.4365 15.4969 14.369 15.5626C14.3015 15.6282 14.2157 15.6545 14.1237 15.6545L10.5476 15.4444C10.3636 15.4312 10.2348 15.5757 10.2225 15.753C10.2102 15.9303 10.3452 16.0879 10.5108 16.101L14.0869 16.3112C14.0869 16.3112 14.1237 16.3112 14.1359 16.3112C14.6389 16.3112 15.056 15.8909 15.0867 15.3524L15.1419 14.2951C15.1726 13.7369 14.7677 13.2576 14.2463 13.2247L11.4493 13.0605C10.7623 12.2659 9.71953 11.8719 8.51115 11.9442C6.95314 12.0427 5.41967 12.9161 4.48732 14.2032L4.40144 13.6122C4.37691 13.4349 4.21742 13.3101 4.05181 13.3364L1.26089 13.796C1.09527 13.8223 0.978728 13.9931 1.00326 14.1704L1.94788 20.7176C1.96015 20.803 2.00309 20.8818 2.07056 20.9343C2.12577 20.9737 2.18711 21 2.24844 21C2.26685 21 2.27911 21 2.29752 21L5.08844 20.5403C5.16818 20.5272 5.24178 20.4812 5.29086 20.409C5.33993 20.3367 5.35833 20.2514 5.34606 20.166L5.21725 19.2729L13.9274 19.7457C13.9949 19.7457 14.0623 19.7457 14.1237 19.7457C14.8475 19.7457 15.5713 19.5159 16.1785 19.0824L22.4903 14.5972C23.0055 14.2295 23.1528 13.5005 22.8277 12.9358H22.8215ZM2.50607 20.2908L1.65346 14.3871L3.83712 14.0259L4.68973 19.9296L2.49993 20.2908H2.50607Z" fill="currentColor"/>
<path d="M16.0751 10.6242H14.4189C14.2472 10.6242 14.1122 10.4798 14.1122 10.2959V8.85116H12.7627C12.591 8.85116 12.4561 8.70669 12.4561 8.52282V6.74974C12.4561 6.56586 12.591 6.42139 12.7627 6.42139H14.1122V4.97666C14.1122 4.79279 14.2472 4.64832 14.4189 4.64832H16.0751C16.2468 4.64832 16.3817 4.79279 16.3817 4.97666V6.42139H17.7312C17.903 6.42139 18.0379 6.56586 18.0379 6.74974V8.52282C18.0379 8.70669 17.903 8.85116 17.7312 8.85116H16.3817V10.2959C16.3817 10.4798 16.2468 10.6242 16.0751 10.6242ZM14.7256 9.96754H15.7684V8.52282C15.7684 8.33894 15.9033 8.19447 16.0751 8.19447H17.4245V7.07809H16.0751C15.9033 7.07809 15.7684 6.93361 15.7684 6.74974V5.30501H14.7256V6.74974C14.7256 6.93361 14.5906 7.07809 14.4189 7.07809H13.0694V8.19447H14.4189C14.5906 8.19447 14.7256 8.33894 14.7256 8.52282V9.96754Z" fill="currentColor"/>
</svg>
