<svg width="24" height="24" viewBox="0 0 24 24" fill="none" xmlns="http://www.w3.org/2000/svg">
<mask id="mask0_1_2088" style="mask-type:luminance" maskUnits="userSpaceOnUse" x="1" y="1" width="22" height="22">
<path d="M23 1H1V23H23V1Z" fill="white"/>
</mask>
<g mask="url(#mask0_1_2088)">
<path fill-rule="evenodd" clip-rule="evenodd" d="M14.6305 3.22677V1.52778H13.987V3.22677H6.89063V1.52778H6.2472V3.22677H1.75511C1.62893 3.22677 1.52778 3.32792 1.52778 3.4541V19.1226C1.52778 19.2488 1.62893 19.3499 1.75511 19.3499H19.1226C19.2488 19.3499 19.3499 19.2488 19.3499 19.1226V3.4541C19.3499 3.32792 19.2488 3.22677 19.1226 3.22677H14.6305ZM18.7065 18.7065H2.17121V8.68399H18.7065V18.7065ZM18.7065 8.13497H2.17121V3.8702H6.2472V5.19164H6.89063V3.8702H13.987V5.19164H14.6305V3.8702H18.7065V8.13497ZM19.1226 2.69899C19.5403 2.69899 19.8776 3.03643 19.8776 3.4541V19.1226C19.8776 19.5403 19.5403 19.8776 19.1226 19.8776H1.75511C1.33744 19.8776 1 19.5403 1 19.1226V3.4541C1 3.03643 1.33744 2.69899 1.75511 2.69899H5.71942V1.18878C5.71942 1.08495 5.80437 1 5.90819 1H7.22961C7.33343 1 7.41844 1.08495 7.41844 1.18878V2.69899H13.4593V1.18878C13.4593 1.08495 13.5442 1 13.648 1H14.9694C15.0733 1 15.1583 1.08495 15.1583 1.18878V2.69899H19.1226ZM18.1787 18.1787V9.21181H2.69899V18.1787H18.1787ZM18.1787 7.60721V4.39798H15.1583V5.53064C15.1583 5.63447 15.0733 5.71942 14.9694 5.71942H13.648C13.5442 5.71942 13.4593 5.63447 13.4593 5.53064V4.39798H7.41844V5.53064C7.41844 5.63447 7.33343 5.71942 7.22961 5.71942H5.90819C5.80437 5.71942 5.71942 5.63447 5.71942 5.53064V4.39798H2.69899V7.60721H18.1787Z" fill="currentColor"/>
<path d="M4.13281 10.3487H6.84689V13.0627H4.13281V10.3487Z" fill="#C9C2EA"/>
<path fill-rule="evenodd" clip-rule="evenodd" d="M6.3191 10.8764H4.6606V12.5349H6.3191V10.8764ZM4.13281 10.3487V13.0627H6.84689V10.3487H4.13281Z" fill="currentColor"/>
<path fill-rule="evenodd" clip-rule="evenodd" d="M10.3757 10.8771H8.71721V12.5356H10.3757V10.8771ZM8.18945 10.3493V13.0634H10.9035V10.3493H8.18945Z" fill="currentColor"/>
<path fill-rule="evenodd" clip-rule="evenodd" d="M14.7038 10.8771H13.0453V12.5356H14.7038V10.8771ZM12.5176 10.3493V13.0634H15.2316V10.3493H12.5176Z" fill="currentColor"/>
<path fill-rule="evenodd" clip-rule="evenodd" d="M6.3191 14.518H4.6606V16.1765H6.3191V14.518ZM4.13281 13.9903V16.7043H6.84689V13.9903H4.13281Z" fill="currentColor"/>
<path fill-rule="evenodd" clip-rule="evenodd" d="M10.3757 14.518H8.71721V16.1765H10.3757V14.518ZM8.18945 13.9903V16.7043H10.9035V13.9903H8.18945Z" fill="currentColor"/>
<path fill-rule="evenodd" clip-rule="evenodd" d="M4.78042 11.0777C4.88347 10.9746 5.05056 10.9746 5.15362 11.0777L5.986 11.9101C6.08905 12.0132 6.08905 12.1802 5.986 12.2833C5.88294 12.3863 5.71585 12.3863 5.6128 12.2833L4.78042 11.4509C4.67736 11.3478 4.67736 11.1808 4.78042 11.0777Z" fill="currentColor"/>
<path fill-rule="evenodd" clip-rule="evenodd" d="M7.92786 9.96763C8.03095 10.0707 8.03095 10.2377 7.92786 10.3408L5.98564 12.2831C5.88259 12.3861 5.7155 12.3861 5.61245 12.2831C5.50939 12.18 5.50939 12.0129 5.61245 11.9099L7.55465 9.96763C7.65775 9.86459 7.82483 9.86459 7.92786 9.96763Z" fill="currentColor"/>
<path d="M18.2909 23C15.6952 23 13.582 20.8868 13.582 18.2911C13.582 15.6954 15.6952 13.5822 18.2909 13.5822C20.8866 13.5822 22.9998 15.6954 22.9998 18.2911C22.9998 20.8868 20.8866 23 18.2909 23Z" fill="#C9C2EA"/>
<path fill-rule="evenodd" clip-rule="evenodd" d="M14.1098 18.2911C14.1098 20.5953 15.9867 22.4722 18.2909 22.4722C20.5951 22.4722 22.472 20.5953 22.472 18.2911C22.472 15.9869 20.5951 14.11 18.2909 14.11C15.9867 14.11 14.1098 15.9869 14.1098 18.2911ZM13.582 18.2911C13.582 20.8868 15.6952 23 18.2909 23C20.8866 23 22.9998 20.8868 22.9998 18.2911C22.9998 15.6954 20.8866 13.5822 18.2909 13.5822C15.6952 13.5822 13.582 15.6954 13.582 18.2911Z" fill="currentColor"/>
<path fill-rule="evenodd" clip-rule="evenodd" d="M17.8947 15.4082C18.0405 15.4082 18.1586 15.5264 18.1586 15.6721V19.0631C18.1586 19.2089 18.0405 19.327 17.8947 19.327C17.749 19.327 17.6309 19.2089 17.6309 19.0631V15.6721C17.6309 15.5264 17.749 15.4082 17.8947 15.4082Z" fill="currentColor"/>
<path fill-rule="evenodd" clip-rule="evenodd" d="M17.6543 19.0631C17.6543 18.9173 17.7724 18.7992 17.9182 18.7992H21.3091C21.4549 18.7992 21.573 18.9173 21.573 19.0631C21.573 19.2088 21.4549 19.3269 21.3091 19.3269H17.9182C17.7724 19.3269 17.6543 19.2088 17.6543 19.0631Z" fill="currentColor"/>
</g>
</svg>
