<svg width="24" height="24" viewBox="0 0 24 24" fill="none" xmlns="http://www.w3.org/2000/svg">
<path d="M18.7957 10.9488H4.70985C4.31781 10.9488 4 11.271 4 11.6684V22.2804C4 22.6778 4.31781 23 4.70985 23H18.7957C19.1878 23 19.5056 22.6778 19.5056 22.2804V11.6684C19.5056 11.271 19.1878 10.9488 18.7957 10.9488Z" stroke="currentColor" stroke-width="0.77" stroke-linecap="round" stroke-linejoin="round"/>
<path d="M6.58496 10.9551V6.2372C6.58496 4.84821 7.12928 3.5161 8.09819 2.53394C9.06709 1.55177 10.3812 1 11.7514 1C13.1217 1 14.4358 1.55177 15.4047 2.53394C16.3736 3.5161 16.9179 4.84821 16.9179 6.2372V10.9551" stroke="currentColor" stroke-width="0.77" stroke-linecap="round" stroke-linejoin="round"/>
<path d="M11.2599 13.6269C10.8598 13.7262 10.4982 13.9447 10.2217 14.2542C9.94529 14.5638 9.76666 14.9502 9.70887 15.3636C9.65108 15.777 9.71678 16.1985 9.89751 16.5737C10.0782 16.9489 10.3657 17.2607 10.7228 17.4687V19.3458C10.7261 19.6208 10.8361 19.8834 11.0291 20.0767C11.2221 20.2699 11.4824 20.3783 11.7537 20.3783C11.889 20.3783 12.0231 20.3512 12.1481 20.2987C12.2732 20.2462 12.3868 20.1692 12.4826 20.0722C12.5783 19.9752 12.6542 19.86 12.706 19.7332C12.7578 19.6064 12.7845 19.4706 12.7845 19.3333V17.4562C13.0988 17.2752 13.3602 17.0132 13.5423 16.6967C13.7245 16.3802 13.8208 16.0205 13.8215 15.6542C13.8191 15.3374 13.7461 15.0253 13.608 14.7411C13.4699 14.4569 13.2702 14.2081 13.0239 14.0131C12.7775 13.8182 12.4909 13.6822 12.1855 13.6153C11.88 13.5484 11.5636 13.5524 11.2599 13.6269Z" fill="#C9C2EA" stroke="currentColor" stroke-width="0.77" stroke-linecap="round" stroke-linejoin="round"/>
</svg>
