<svg width="24" height="24" viewBox="0 0 24 24" fill="none" xmlns="http://www.w3.org/2000/svg">
<path d="M10.4173 10.4356H1V1H10.4173V10.4356ZM1.45834 9.96508H9.94674V1.47056H1.45834V9.96508Z" fill="currentColor"/>
<path d="M8.33376 8.3638H3.05371V3.07153H8.33376V8.3638ZM3.50594 7.89935H7.8632V3.54209H3.52427L3.50594 7.89935Z" fill="currentColor"/>
<path d="M10.4173 22.9992H1V13.5636H10.4173V22.9992ZM1.45834 22.5287H9.94674V14.0342H1.45834V22.5287Z" fill="currentColor"/>
<path d="M8.33376 20.9274H3.05371V15.6657H8.33376V20.9274ZM3.50594 20.4568H7.8632V16.0996H3.52427L3.50594 20.4568Z" fill="currentColor"/>
<path d="M22.9999 10.4356H13.5459V1H22.9999V10.4356ZM14.0165 9.96508H22.511V1.47056H14.0165V9.96508Z" fill="currentColor"/>
<path d="M20.9087 8.3638H15.6104V3.07153H20.9087V8.3638ZM16.0809 7.89935H20.4382V3.54209H16.0809V7.89935Z" fill="currentColor"/>
<path d="M18.2268 22.7425C20.7041 22.7425 22.7124 20.7343 22.7124 18.2569C22.7124 15.7796 20.7041 13.7713 18.2268 13.7713C15.7495 13.7713 13.7412 15.7796 13.7412 18.2569C13.7412 20.7343 15.7495 22.7425 18.2268 22.7425Z" fill="#C9C2EA"/>
<path d="M18.2269 22.9993C17.2923 22.9993 16.3787 22.722 15.6017 22.2027C14.8248 21.6834 14.2193 20.9452 13.8619 20.0817C13.5046 19.2181 13.4114 18.268 13.5941 17.3515C13.7769 16.435 14.2274 15.5932 14.8887 14.9328C15.55 14.2724 16.3923 13.823 17.309 13.6414C18.2258 13.4598 19.1758 13.5543 20.0389 13.9127C20.9019 14.2712 21.6393 14.8776 22.1576 15.6553C22.676 16.4329 22.952 17.3469 22.9508 18.2814C22.9508 18.9015 22.8286 19.5155 22.5911 20.0883C22.3536 20.6611 22.0055 21.1814 21.5668 21.6196C21.1281 22.0578 20.6073 22.4052 20.0342 22.6419C19.4611 22.8786 18.8469 23.0001 18.2269 22.9993ZM18.2269 14.0281C17.3808 14.0281 16.5537 14.279 15.8502 14.749C15.1467 15.2191 14.5984 15.8872 14.2747 16.6688C13.9509 17.4505 13.8662 18.3106 14.0312 19.1404C14.1963 19.9703 14.6037 20.7325 15.202 21.3308C15.8002 21.929 16.5625 22.3364 17.3923 22.5015C18.2221 22.6666 19.0822 22.5818 19.8639 22.2581C20.6456 21.9343 21.3137 21.386 21.7837 20.6825C22.2538 19.979 22.5047 19.152 22.5047 18.3059C22.5079 17.7421 22.3996 17.1832 22.1861 16.6613C21.9725 16.1395 21.658 15.665 21.2604 15.2652C20.8629 14.8654 20.3902 14.5481 19.8696 14.3316C19.349 14.1151 18.7907 14.0036 18.2269 14.0036V14.0281Z" fill="currentColor"/>
<path d="M19.6252 17.273C19.6874 17.273 19.7471 17.2487 19.7916 17.2053C19.8361 17.1619 19.8619 17.1029 19.8635 17.0407V16.4663C19.862 16.3732 19.842 16.2813 19.8049 16.1959C19.7678 16.1105 19.7143 16.0333 19.6473 15.9686C19.5803 15.9039 19.5013 15.853 19.4147 15.8189C19.328 15.7847 19.2355 15.768 19.1424 15.7696H18.5313V15.2685C18.5368 15.2344 18.5349 15.1996 18.5256 15.1663C18.5163 15.1331 18.4999 15.1022 18.4775 15.076C18.4551 15.0497 18.4273 15.0286 18.396 15.0141C18.3647 14.9996 18.3305 14.9921 18.296 14.9921C18.2615 14.9921 18.2274 14.9996 18.1961 15.0141C18.1647 15.0286 18.1369 15.0497 18.1145 15.076C18.0922 15.1022 18.0758 15.1331 18.0665 15.1663C18.0572 15.1996 18.0552 15.2344 18.0607 15.2685V15.7696H17.4496C17.3565 15.768 17.264 15.7847 17.1774 15.8189C17.0908 15.853 17.0117 15.9039 16.9448 15.9686C16.8778 16.0333 16.8242 16.1105 16.7871 16.1959C16.75 16.2813 16.7301 16.3732 16.7285 16.4663V17.9146C16.7333 18.1016 16.8118 18.2791 16.9469 18.4084C17.0819 18.5378 17.2627 18.6085 17.4496 18.6052H19.1424C19.2047 18.6018 19.2657 18.623 19.3126 18.6641C19.3594 18.7052 19.3883 18.7631 19.393 18.8252V20.4263C19.3883 20.4885 19.3594 20.5463 19.3126 20.5874C19.2657 20.6286 19.2047 20.6497 19.1424 20.6463H17.4496C17.3874 20.6497 17.3263 20.6286 17.2795 20.5874C17.2326 20.5463 17.2038 20.4885 17.1991 20.4263V19.8458C17.1991 19.7842 17.1746 19.7251 17.1311 19.6816C17.0875 19.638 17.0284 19.6135 16.9669 19.6135C16.9047 19.6135 16.845 19.6378 16.8004 19.6812C16.7559 19.7246 16.7301 19.7836 16.7285 19.8458V20.4263C16.7333 20.6133 16.8118 20.7908 16.9469 20.9201C17.0819 21.0494 17.2627 21.1202 17.4496 21.1169H18.0607V21.618C18.0552 21.6521 18.0572 21.6869 18.0665 21.7202C18.0758 21.7534 18.0922 21.7843 18.1145 21.8105C18.1369 21.8368 18.1647 21.8579 18.1961 21.8724C18.2274 21.8869 18.2615 21.8944 18.296 21.8944C18.3305 21.8944 18.3647 21.8869 18.396 21.8724C18.4273 21.8579 18.4551 21.8368 18.4775 21.8105C18.4999 21.7843 18.5163 21.7534 18.5256 21.7202C18.5349 21.6869 18.5368 21.6521 18.5313 21.618V21.1169H19.1424C19.3294 21.1202 19.5101 21.0494 19.6452 20.9201C19.7803 20.7908 19.8587 20.6133 19.8635 20.4263V18.8252C19.8644 18.7306 19.8462 18.6367 19.8102 18.5492C19.7742 18.4617 19.721 18.3822 19.6538 18.3156C19.5866 18.249 19.5067 18.1964 19.4189 18.1612C19.3311 18.1259 19.2371 18.1086 19.1424 18.1102H17.4496C17.3874 18.1136 17.3263 18.0924 17.2795 18.0513C17.2326 18.0102 17.2038 17.9523 17.1991 17.8902V16.4663C17.2038 16.4036 17.2324 16.3452 17.2791 16.3031C17.3257 16.2609 17.3868 16.2384 17.4496 16.2402H19.1424C19.2052 16.2384 19.2663 16.2609 19.313 16.3031C19.3596 16.3452 19.3883 16.4036 19.393 16.4663V17.0407C19.393 17.1023 19.4174 17.1614 19.461 17.2049C19.5046 17.2485 19.5636 17.273 19.6252 17.273Z" fill="currentColor"/>
</svg>
