<svg width="24" height="24" viewBox="0 0 24 24" fill="none" xmlns="http://www.w3.org/2000/svg">
<path d="M14.7344 7.64153C14.7344 8.1836 14.5737 8.7135 14.2725 9.16421C13.9714 9.61492 13.5433 9.96621 13.0425 10.1737C12.5417 10.3811 11.9906 10.4354 11.459 10.3296C10.9273 10.2239 10.439 9.96283 10.0557 9.57953C9.67238 9.19623 9.41135 8.70788 9.30559 8.17623C9.19984 7.64457 9.25412 7.0935 9.46156 6.5927C9.669 6.09189 10.0203 5.66384 10.471 5.36269C10.9217 5.06153 11.4516 4.90079 11.9937 4.90079C12.7206 4.90079 13.4177 5.18954 13.9317 5.70353C14.4457 6.21752 14.7344 6.91464 14.7344 7.64153Z" fill="#C9C2EA"/>
<path d="M22.7526 22.9706H1.2346C1.19368 22.9702 1.15351 22.9595 1.11785 22.9395C1.08218 22.9194 1.05218 22.8906 1.03064 22.8558C1.01055 22.8198 1 22.7792 1 22.7379C1 22.6966 1.01055 22.6561 1.03064 22.62L4.3769 15.6662C4.39809 15.6254 4.43016 15.5913 4.46953 15.5677C4.50891 15.5441 4.55407 15.5318 4.59999 15.5323H7.95899C8.02323 15.5323 8.08484 15.5578 8.13026 15.6032C8.17568 15.6487 8.2012 15.7103 8.2012 15.7745C8.2012 15.8387 8.17568 15.9003 8.13026 15.9458C8.08484 15.9912 8.02323 16.0167 7.95899 16.0167H4.77208L1.62978 22.4798H22.3575L19.2343 16.0167H16.0474C15.9831 16.0167 15.9215 15.9912 15.8761 15.9458C15.8307 15.9003 15.8052 15.8387 15.8052 15.7745C15.8052 15.7103 15.8307 15.6487 15.8761 15.6032C15.9215 15.5578 15.9831 15.5323 16.0474 15.5323H19.3873C19.4332 15.5318 19.4783 15.5441 19.5177 15.5677C19.5571 15.5913 19.5892 15.6254 19.6103 15.6662L22.9694 22.62C22.9895 22.6561 23 22.6966 23 22.7379C23 22.7792 22.9895 22.8198 22.9694 22.8558C22.9467 22.8925 22.9147 22.9225 22.8766 22.9426C22.8385 22.9628 22.7957 22.9724 22.7526 22.9706Z" fill="currentColor"/>
<path d="M11.9933 19.6626C11.9546 19.6626 11.9165 19.6533 11.8821 19.6356C11.8477 19.6178 11.8181 19.5921 11.7957 19.5606C11.5407 19.21 5.54297 10.8858 5.54297 7.45031C5.54297 5.73958 6.22255 4.09892 7.43222 2.88925C8.64189 1.67958 10.2826 1 11.9933 1C13.704 1 15.3447 1.67958 16.5543 2.88925C17.764 4.09892 18.4436 5.73958 18.4436 7.45031C18.4436 10.9177 12.4458 19.2419 12.1909 19.5925C12.1653 19.6182 12.1343 19.6379 12.1001 19.65C12.0659 19.6621 12.0294 19.6664 11.9933 19.6626ZM11.9933 1.45892C10.4132 1.4606 8.89839 2.08902 7.78112 3.20628C6.66386 4.32355 6.03544 5.8384 6.03375 7.41845C6.03375 10.3823 10.9352 17.4955 11.9933 18.9806C13.0513 17.4827 17.9528 10.3695 17.9528 7.4057C17.9494 5.82734 17.3201 4.31479 16.2028 3.19991C15.0855 2.08504 13.5716 1.45891 11.9933 1.45892Z" fill="currentColor"/>
<path d="M11.9923 10.497C11.401 10.497 10.8231 10.3217 10.3315 9.9932C9.83988 9.66473 9.45673 9.19786 9.23048 8.65163C9.00422 8.10541 8.94503 7.50435 9.06037 6.92448C9.17571 6.34461 9.46042 5.81196 9.87848 5.3939C10.2965 4.97583 10.8292 4.69113 11.4091 4.57578C11.9889 4.46044 12.59 4.51964 13.1362 4.74589C13.6824 4.97215 14.1493 5.3553 14.4778 5.84689C14.8063 6.33848 14.9816 6.91644 14.9816 7.50767C14.9816 8.30049 14.6666 9.06083 14.106 9.62144C13.5454 10.182 12.7851 10.497 11.9923 10.497ZM11.9923 5.0155C11.4978 5.0155 11.0145 5.1622 10.6035 5.43703C10.1925 5.71185 9.87222 6.10245 9.6833 6.55937C9.49438 7.01629 9.44528 7.51899 9.5422 8.00383C9.63913 8.48867 9.87772 8.93386 10.2278 9.28303C10.5779 9.6322 11.0236 9.86966 11.5087 9.96535C11.9938 10.061 12.4964 10.0106 12.9528 9.82056C13.4093 9.63047 13.799 9.30924 14.0728 8.89752C14.3466 8.48579 14.4921 8.0021 14.4908 7.50767C14.4874 6.84664 14.2229 6.21373 13.7549 5.7469C13.2869 5.28008 12.6533 5.01717 11.9923 5.0155Z" fill="currentColor"/>
</svg>
