<svg width="24" height="24" viewBox="0 0 24 24" fill="none" xmlns="http://www.w3.org/2000/svg">
<path d="M22.7979 18.887V17.457L21.8934 17.3348C21.8059 16.9461 21.6507 16.5759 21.4351 16.2409L21.9912 15.5076L20.9768 14.4993L20.2374 15.0554C19.9026 14.8518 19.5374 14.7033 19.1557 14.6154L19.0335 13.6926H17.5974L17.4996 14.6337C17.1275 14.7249 16.7726 14.8756 16.4485 15.0798L15.6663 14.4993L14.6519 15.5076L15.263 16.2898C15.0681 16.6093 14.9258 16.958 14.8413 17.3225L13.833 17.457V18.887L14.8047 19.0214C14.8902 19.3876 15.0325 19.7381 15.2263 20.0603L14.6152 20.8364L15.6663 21.8508L16.4302 21.2397C16.7543 21.4439 17.1092 21.5946 17.4813 21.6858L17.6096 22.633H19.0457L19.1679 21.7041C19.5497 21.6162 19.9148 21.4677 20.2496 21.2641L20.989 21.8264L22.0034 20.8119L21.4473 20.0847C21.6608 19.7486 21.8157 19.3787 21.9057 18.9908L22.7979 18.887Z" fill="#C9C2EA"/>
<path d="M10.4354 10.4354H1V1H10.4354V10.4354ZM1.47055 9.96486H9.96486V1.47055H1.47055V9.96486Z" fill="currentColor"/>
<path d="M8.36954 8.36377H3.07129V3.07162H8.36954V8.36377ZM3.54184 7.89933H7.89899V3.54217H3.54184V7.89933Z" fill="currentColor"/>
<path d="M10.4354 22.9997H1V13.5643H10.4354V22.9997ZM1.47055 22.5291H9.96486V14.0348H1.47055V22.5291Z" fill="currentColor"/>
<path d="M8.36954 20.928H3.07129V15.6664H8.36954V20.928ZM3.54184 20.4575H7.89899V16.1003H3.54184V20.4575Z" fill="currentColor"/>
<path d="M22.9999 10.4354H13.5645V1H22.9999V10.4354ZM14.035 9.96486H22.5293V1.47055H14.035V9.96486Z" fill="currentColor"/>
<path d="M20.9291 8.36377H15.6309V3.07162H20.9291V8.36377ZM16.1014 7.89933H20.4586V3.54217H16.1014V7.89933Z" fill="currentColor"/>
<path d="M18.973 22.9997H17.5369C17.4803 23.0002 17.4254 22.9799 17.3826 22.9428C17.3398 22.9056 17.3121 22.8542 17.3047 22.798L17.1947 22.0097C16.9093 21.9254 16.6345 21.8085 16.3758 21.6614L15.7341 22.1441C15.6914 22.1828 15.6359 22.2042 15.5783 22.2042C15.5207 22.2042 15.4652 22.1828 15.4225 22.1441L14.4081 21.1297C14.3711 21.0874 14.3507 21.0331 14.3507 20.9769C14.3507 20.9207 14.3711 20.8665 14.4081 20.8241L14.903 20.1703C14.7545 19.9058 14.6376 19.6248 14.5547 19.3331L13.742 19.2231C13.6857 19.2146 13.6342 19.1867 13.5963 19.1443C13.5583 19.102 13.5364 19.0477 13.5342 18.9908V17.5364C13.5352 17.4792 13.5567 17.4243 13.5949 17.3816C13.633 17.339 13.6852 17.3115 13.742 17.3042L14.5547 17.1942C14.6328 16.9133 14.7436 16.6426 14.8847 16.3875L14.3897 15.7337C14.3523 15.6904 14.3317 15.6351 14.3317 15.5778C14.3317 15.5206 14.3523 15.4653 14.3897 15.422L15.4042 14.4076C15.4485 14.3724 15.5034 14.3532 15.56 14.3532C15.6166 14.3532 15.6715 14.3724 15.7158 14.4076L16.3575 14.8965C16.6162 14.7493 16.8909 14.6325 17.1763 14.5481L17.2863 13.7598C17.2937 13.7031 17.3212 13.6509 17.3638 13.6127C17.4064 13.5746 17.4614 13.553 17.5186 13.552H18.9547C19.0115 13.5542 19.0658 13.5762 19.1082 13.6141C19.1505 13.652 19.1784 13.7036 19.1869 13.7598L19.3335 14.5054C19.6284 14.5907 19.9131 14.7074 20.183 14.8537L20.7941 14.3892C20.8364 14.3523 20.8907 14.3319 20.9468 14.3319C21.003 14.3319 21.0573 14.3523 21.0996 14.3892L22.114 15.4037C22.1503 15.4475 22.1702 15.5026 22.1702 15.5595C22.1702 15.6164 22.1503 15.6715 22.114 15.7153L21.6557 16.3264C21.8085 16.601 21.9295 16.8922 22.0163 17.1942L22.7618 17.2981C22.818 17.3055 22.8695 17.3333 22.9066 17.376C22.9437 17.4188 22.964 17.4737 22.9635 17.5303V18.9664C22.9627 19.0227 22.942 19.0769 22.9051 19.1194C22.8682 19.1619 22.8174 19.19 22.7618 19.1986L22.0224 19.3331C21.9367 19.6355 21.8157 19.9267 21.6618 20.2008L22.1202 20.8119C22.1571 20.8542 22.1775 20.9085 22.1775 20.9647C22.1775 21.0209 22.1571 21.0752 22.1202 21.1175L21.1057 22.1319C21.064 22.1701 21.0095 22.1913 20.953 22.1913C20.8964 22.1913 20.8419 22.1701 20.8002 22.1319L20.1891 21.6675C19.9216 21.8187 19.6363 21.9357 19.3396 22.0158L19.2358 22.7858C19.2327 22.8171 19.2235 22.8476 19.2086 22.8754C19.1937 22.9031 19.1734 22.9277 19.149 22.9475C19.1246 22.9674 19.0964 22.9823 19.0662 22.9912C19.036 23.0002 19.0043 23.003 18.973 22.9997ZM17.7508 22.5291H18.7713L18.863 21.7775C18.8687 21.7296 18.8896 21.6848 18.9226 21.6496C18.9555 21.6144 18.9989 21.5907 19.0463 21.5819C19.4023 21.4978 19.7427 21.3575 20.0546 21.1664C20.0933 21.1398 20.1391 21.1256 20.186 21.1256C20.2329 21.1256 20.2787 21.1398 20.3174 21.1664L20.8918 21.6002L21.6191 20.873L21.1913 20.3108C21.1634 20.2715 21.1484 20.2246 21.1484 20.1764C21.1484 20.1282 21.1634 20.0812 21.1913 20.0419C21.3884 19.7273 21.5329 19.3826 21.6191 19.0214C21.6281 18.9747 21.6521 18.9322 21.6873 18.9002C21.7226 18.8683 21.7672 18.8486 21.8146 18.8442L22.5113 18.7464V17.7442L21.7779 17.6464C21.7309 17.6411 21.6867 17.6211 21.6516 17.5893C21.6165 17.5575 21.5923 17.5155 21.5824 17.4692C21.4963 17.1061 21.3518 16.7593 21.1546 16.4425C21.1263 16.4046 21.1111 16.3585 21.1111 16.3112C21.1111 16.2638 21.1263 16.2177 21.1546 16.1798L21.5824 15.6114L20.8552 14.8903L20.2807 15.3242C20.2421 15.3508 20.1963 15.365 20.1494 15.365C20.1025 15.365 20.0566 15.3508 20.018 15.3242C19.7058 15.135 19.3654 14.9968 19.0097 14.9148C18.9626 14.9051 18.9198 14.8812 18.8869 14.8461C18.8541 14.8111 18.8329 14.7668 18.8263 14.7192L18.7285 13.992H17.7447L17.6408 14.7376C17.6331 14.7837 17.6122 14.8267 17.5808 14.8613C17.5494 14.896 17.5087 14.9209 17.4636 14.9331C17.1173 15.0179 16.7871 15.1583 16.4858 15.3487C16.4456 15.3742 16.399 15.3878 16.3514 15.3878C16.3037 15.3878 16.2571 15.3742 16.2169 15.3487L15.6058 14.8903L14.8847 15.6114L15.3492 16.2225C15.3749 16.2615 15.3886 16.3072 15.3886 16.3539C15.3886 16.4007 15.3749 16.4463 15.3492 16.4853C15.1657 16.7837 15.0316 17.1097 14.9519 17.4509C14.942 17.4972 14.9178 17.5392 14.8827 17.571C14.8476 17.6028 14.8034 17.6227 14.7564 17.6281L13.9864 17.7381V18.7586L14.7564 18.8625C14.8025 18.8702 14.8455 18.891 14.8801 18.9225C14.9148 18.9539 14.9397 18.9946 14.9519 19.0397C15.0314 19.3828 15.1656 19.7109 15.3492 20.0114C15.3742 20.0506 15.3875 20.0962 15.3875 20.1428C15.3875 20.1893 15.3742 20.2349 15.3492 20.2742L14.8847 20.8853L15.6058 21.6125L16.2169 21.1541C16.2562 21.1262 16.3032 21.1113 16.3514 21.1113C16.3995 21.1113 16.4465 21.1262 16.4858 21.1541C16.7871 21.3446 17.1173 21.4849 17.4636 21.5697C17.5095 21.5804 17.551 21.6049 17.5827 21.6398C17.6143 21.6748 17.6346 21.7185 17.6408 21.7652L17.7508 22.5291Z" fill="currentColor"/>
<path d="M18.2503 20.8914C17.7282 20.8914 17.2178 20.7365 16.7836 20.4465C16.3495 20.1564 16.0111 19.7441 15.8113 19.2617C15.6115 18.7793 15.5592 18.2485 15.6611 17.7364C15.7629 17.2243 16.0144 16.7539 16.3836 16.3847C16.7528 16.0155 17.2232 15.764 17.7353 15.6622C18.2474 15.5603 18.7782 15.6126 19.2606 15.8124C19.743 16.0122 20.1553 16.3506 20.4454 16.7847C20.7354 17.2189 20.8903 17.7293 20.8903 18.2514C20.8887 18.9511 20.61 19.6216 20.1153 20.1164C19.6205 20.6111 18.95 20.8898 18.2503 20.8914ZM18.2503 16.082C17.8212 16.082 17.4018 16.2092 17.0451 16.4476C16.6883 16.686 16.4102 17.0248 16.246 17.4212C16.0818 17.8176 16.0389 18.2538 16.1226 18.6746C16.2063 19.0955 16.4129 19.482 16.7163 19.7854C17.0197 20.0888 17.4063 20.2954 17.8271 20.3791C18.2479 20.4628 18.6841 20.4199 19.0805 20.2557C19.4769 20.0915 19.8157 19.8134 20.0541 19.4567C20.2925 19.0999 20.4197 18.6805 20.4197 18.2514C20.4181 17.6765 20.189 17.1257 19.7825 16.7192C19.376 16.3127 18.8252 16.0836 18.2503 16.082Z" fill="currentColor"/>
</svg>
