<svg width="24" height="24" viewBox="0 0 24 24" fill="none" xmlns="http://www.w3.org/2000/svg">
<path d="M11.9149 13.936C13.5469 13.936 14.8699 13.076 14.8699 12.015C14.8699 10.9541 13.5469 10.094 11.9149 10.094C10.2829 10.094 8.95996 10.9541 8.95996 12.015C8.95996 13.076 10.2829 13.936 11.9149 13.936Z" fill="#C9C2EA"/>
<path d="M3.63704 8.03226C3.69925 8.03067 3.75838 8.00483 3.80181 7.96025C3.84524 7.91568 3.86954 7.8559 3.86952 7.79366V4.8693H20.137V7.79366C20.137 7.85532 20.1615 7.91445 20.2051 7.95805C20.2487 8.00165 20.3079 8.02615 20.3695 8.02615C20.4312 8.02615 20.4903 8.00165 20.5339 7.95805C20.5775 7.91445 20.602 7.85532 20.602 7.79366V4.63682C20.5989 4.57673 20.5733 4.52002 20.5302 4.47804C20.487 4.43606 20.4297 4.41193 20.3695 4.41046H3.63704C3.57424 4.41201 3.51445 4.43765 3.47004 4.48206C3.42562 4.52648 3.39999 4.58627 3.39844 4.64906V7.79366C3.39999 7.85646 3.42562 7.91625 3.47004 7.96066C3.51445 8.00508 3.57424 8.03071 3.63704 8.03226Z" fill="currentColor"/>
<path d="M11.9999 9.86151C10.2441 9.86151 8.8125 10.8281 8.8125 12.015C8.8125 13.2019 10.2441 14.1991 11.9999 14.1991C13.7558 14.1991 15.1935 13.2325 15.1935 12.0395C15.1935 10.8465 13.7558 9.86151 11.9999 9.86151ZM11.9999 13.7036C10.501 13.7036 9.28358 12.9449 9.28358 12.015C9.28358 11.0851 10.5072 10.3265 11.9999 10.3265C13.4927 10.3265 14.7224 11.0851 14.7224 12.015C14.7224 12.9449 13.4988 13.7036 11.9999 13.7036Z" fill="currentColor"/>
<path d="M22.7675 2H1.2386C1.17581 2.00155 1.11602 2.02719 1.0716 2.0716C1.02719 2.11602 1.00155 2.17581 1 2.2386V10.1919C1.00155 10.2547 1.02719 10.3145 1.0716 10.3589C1.11602 10.4033 1.17581 10.4289 1.2386 10.4305H5.83927H5.90044V21.7976C5.89963 21.8286 5.90504 21.8595 5.91635 21.8884C5.92767 21.9173 5.94467 21.9437 5.96634 21.9659C5.98801 21.9882 6.01391 22.0058 6.04252 22.0179C6.07114 22.03 6.10187 22.0362 6.13293 22.0362H17.8671C17.9304 22.0362 17.991 22.011 18.0358 21.9663C18.0805 21.9215 18.1057 21.8608 18.1057 21.7976V10.4305H22.7675C22.8297 10.4289 22.8889 10.403 22.9323 10.3585C22.9757 10.3139 23 10.2541 23 10.1919V2.2386C23 2.17636 22.9757 2.11658 22.9323 2.07201C22.8889 2.02744 22.8297 2.0016 22.7675 2ZM6.37152 21.5406V6.85762H10.599C10.599 6.85762 10.599 6.85762 10.599 6.89433C10.599 7.26914 10.7479 7.6286 11.0129 7.89364C11.278 8.15867 11.6374 8.30756 12.0122 8.30756C12.387 8.30756 12.7465 8.15867 13.0115 7.89364C13.2766 7.6286 13.4255 7.26914 13.4255 6.89433C13.4255 6.89433 13.4255 6.89433 13.4255 6.85762H17.6468V21.5406H6.37152ZM11.0578 6.85762H12.9544C12.9544 6.85762 12.9544 6.85762 12.9544 6.89433C12.9544 7.1442 12.8551 7.38384 12.6784 7.56053C12.5018 7.73722 12.2621 7.83648 12.0122 7.83648C11.7624 7.83648 11.5227 7.73722 11.346 7.56053C11.1693 7.38384 11.0701 7.1442 11.0701 6.89433L11.0578 6.85762ZM22.5289 9.94716H18.1057V6.85762H18.5951C18.6568 6.85762 18.7159 6.83313 18.7595 6.78953C18.8031 6.74593 18.8276 6.6868 18.8276 6.62514C18.8276 6.56348 18.8031 6.50435 18.7595 6.46075C18.7159 6.41715 18.6568 6.39266 18.5951 6.39266H5.40489C5.34324 6.39266 5.2841 6.41715 5.24051 6.46075C5.19691 6.50435 5.17241 6.56348 5.17241 6.62514C5.17241 6.6868 5.19691 6.74593 5.24051 6.78953C5.2841 6.83313 5.34324 6.85762 5.40489 6.85762H5.90044V9.9594H5.83927H1.47108V2.47108H22.5289V9.94716Z" fill="currentColor"/>
<path d="M12.006 16.1569C11.7265 16.1569 11.4533 16.2397 11.2209 16.395C10.9885 16.5503 10.8073 16.771 10.7004 17.0293C10.5934 17.2875 10.5654 17.5717 10.6199 17.8458C10.6745 18.1199 10.8091 18.3718 11.0067 18.5694C11.2043 18.7671 11.4562 18.9016 11.7303 18.9562C12.0044 19.0107 12.2886 18.9827 12.5468 18.8758C12.8051 18.7688 13.0258 18.5877 13.1811 18.3552C13.3364 18.1228 13.4192 17.8496 13.4192 17.5701C13.4176 17.1958 13.2682 16.8373 13.0035 16.5726C12.7389 16.3079 12.3803 16.1585 12.006 16.1569ZM12.006 18.5123C11.8197 18.5123 11.6375 18.457 11.4826 18.3535C11.3276 18.2499 11.2069 18.1028 11.1356 17.9306C11.0643 17.7585 11.0456 17.5691 11.082 17.3863C11.1183 17.2035 11.208 17.0357 11.3398 16.9039C11.4716 16.7721 11.6394 16.6824 11.8222 16.646C12.005 16.6097 12.1944 16.6283 12.3666 16.6997C12.5387 16.771 12.6859 16.8917 12.7894 17.0467C12.8929 17.2016 12.9482 17.3838 12.9482 17.5701C12.9482 17.82 12.8489 18.0596 12.6722 18.2363C12.4955 18.413 12.2559 18.5123 12.006 18.5123Z" fill="currentColor"/>
</svg>
