<svg width="24" height="24" viewBox="0 0 24 24" fill="none" xmlns="http://www.w3.org/2000/svg">
<path d="M17.725 9.40322C17.725 7.9044 17.1296 6.46697 16.0698 5.40715C15.0099 4.34733 13.5725 3.75192 12.0737 3.75192C10.5749 3.75192 9.13746 4.34733 8.07763 5.40715C7.01781 6.46697 6.42241 7.9044 6.42241 9.40322V12.9894C6.33454 15.1334 5.414 17.1586 3.85645 18.6345V19.6609H20.291V18.6345C18.7334 17.1586 17.8129 15.1334 17.725 12.9894V9.40322Z" fill="#C9C2EA"/>
<path d="M11.9879 22.4061C10.7513 22.4061 9.7002 21.6085 9.7002 20.6254C9.7002 20.5946 9.70627 20.564 9.71808 20.5355C9.72989 20.507 9.74719 20.4811 9.76901 20.4593C9.79083 20.4375 9.81673 20.4202 9.84524 20.4084C9.87374 20.3966 9.9043 20.3905 9.93515 20.3905H14.0407C14.0715 20.3905 14.1021 20.3966 14.1306 20.4084C14.1591 20.4202 14.185 20.4375 14.2068 20.4593C14.2286 20.4811 14.2459 20.507 14.2578 20.5355C14.2696 20.564 14.2756 20.5946 14.2756 20.6254C14.2756 21.5962 13.2245 22.4061 11.9879 22.4061ZM10.201 20.8666C10.3476 21.2104 10.5997 21.4988 10.9209 21.69C11.2421 21.8811 11.6158 21.9652 11.9879 21.9301C12.3592 21.9648 12.7319 21.8805 13.0521 21.6893C13.3722 21.4981 13.6232 21.2099 13.7686 20.8666H10.201Z" fill="currentColor"/>
<path d="M20.3667 18.4057C18.8582 16.9755 17.9703 15.011 17.8935 12.9337V9.34137C17.8915 7.82389 17.3029 6.36592 16.2509 5.27236C15.1988 4.17879 13.7646 3.5343 12.2484 3.47367V2.16287C12.2494 2.1293 12.2433 2.09589 12.2304 2.0649C12.2174 2.03391 12.198 2.00604 12.1734 1.98319C12.1488 1.96034 12.1196 1.94303 12.0877 1.93243C12.0558 1.92182 12.0221 1.91818 11.9887 1.92173C11.957 1.92173 11.9257 1.92797 11.8964 1.94008C11.8671 1.9522 11.8406 1.96996 11.8182 1.99236C11.7958 2.01475 11.778 2.04133 11.7659 2.07059C11.7538 2.09984 11.7475 2.1312 11.7475 2.16287V3.47367C10.2324 3.53586 8.79978 4.18102 7.74901 5.27443C6.69824 6.36783 6.11053 7.82492 6.10861 9.34137V12.9399C6.03177 15.0172 5.14388 16.9817 3.6354 18.4119C3.59161 18.4589 3.5673 18.5208 3.56738 18.585V19.6114C3.56738 19.6737 3.59214 19.7335 3.6362 19.7775C3.68026 19.8216 3.74002 19.8464 3.80234 19.8464H20.1936C20.2249 19.8472 20.2562 19.8417 20.2854 19.8303C20.3146 19.8188 20.3412 19.8017 20.3637 19.7798C20.3862 19.7579 20.4041 19.7317 20.4163 19.7028C20.4284 19.6738 20.4347 19.6428 20.4347 19.6114V18.5788C20.4348 18.5146 20.4105 18.4527 20.3667 18.4057ZM19.9586 19.3641H4.01874V18.6716C5.58376 17.1652 6.50357 15.1106 6.58471 12.9399V9.34137C6.58471 8.63171 6.72448 7.929 6.99606 7.27336C7.26763 6.61772 7.66569 6.02199 8.16749 5.52019C8.6693 5.01838 9.26503 4.62033 9.92067 4.34875C10.5763 4.07718 11.279 3.9374 11.9887 3.9374C12.6983 3.9374 13.4011 4.07718 14.0567 4.34875C14.7123 4.62033 15.3081 5.01838 15.8099 5.52019C16.3117 6.02199 16.7097 6.61772 16.9813 7.27336C17.2529 7.929 17.3927 8.63171 17.3927 9.34137V12.9399C17.4722 15.1127 18.3921 17.1699 19.9586 18.6778V19.3641Z" fill="currentColor"/>
<path d="M19.7844 8.03679C19.7434 8.03526 19.7033 8.0247 19.6669 8.00587C19.6122 7.97362 19.5725 7.92114 19.5563 7.85979C19.5401 7.79845 19.5487 7.7332 19.5803 7.67817C19.7663 7.35552 19.8867 6.99935 19.9349 6.63008C19.983 6.2608 19.9578 5.88566 19.8607 5.52613C19.7636 5.16661 19.5966 4.82976 19.3692 4.53486C19.1418 4.23997 18.8584 3.99283 18.5354 3.80759C18.4819 3.77426 18.4432 3.72179 18.4271 3.6609C18.4111 3.6 18.4188 3.53526 18.4488 3.47989C18.4648 3.45115 18.4864 3.42599 18.5125 3.40592C18.5385 3.38586 18.5683 3.37133 18.6002 3.36323C18.632 3.35512 18.6652 3.35361 18.6976 3.35878C18.7301 3.36396 18.7612 3.37571 18.7889 3.39333C19.2886 3.68754 19.703 4.10682 19.9914 4.60987C20.2798 5.11292 20.4322 5.6824 20.4336 6.26225C20.442 6.84047 20.3015 7.41112 20.0255 7.91931C19.9998 7.95898 19.9638 7.99089 19.9213 8.01159C19.8788 8.03229 19.8314 8.041 19.7844 8.03679Z" fill="currentColor"/>
<path d="M22.1408 9.06934C22.1064 9.07852 22.0702 9.07852 22.0357 9.06934C21.9795 9.04026 21.937 8.99026 21.9173 8.93011C21.8977 8.86996 21.9024 8.80449 21.9306 8.74783C22.3351 7.98611 22.5474 7.13708 22.5489 6.27461C22.5502 5.27926 22.2759 4.30299 21.7564 3.45395C21.2369 2.6049 20.4926 1.91623 19.6058 1.46421C19.5742 1.45223 19.5455 1.43375 19.5215 1.40997C19.4975 1.38618 19.4788 1.35763 19.4666 1.32615C19.4544 1.29468 19.4489 1.26098 19.4505 1.22725C19.4521 1.19351 19.4608 1.16049 19.4759 1.13032C19.505 1.07412 19.555 1.0316 19.6152 1.01194C19.6753 0.992274 19.7408 0.997042 19.7975 1.02521C20.7624 1.51787 21.5722 2.26779 22.1375 3.19204C22.7027 4.11629 23.0013 5.17886 23.0003 6.26225C23.0116 7.19131 22.7996 8.10949 22.382 8.9395C22.3604 8.98364 22.3255 9.0199 22.2823 9.04319C22.239 9.06648 22.1896 9.07563 22.1408 9.06934Z" fill="currentColor"/>
<path d="M4.19121 8.03679C4.14929 8.03564 4.10827 8.02435 4.07166 8.00389C4.03505 7.98344 4.00394 7.95442 3.98099 7.91931C3.69426 7.41404 3.54304 6.84322 3.54199 6.26226C3.54341 5.68241 3.69582 5.11293 3.98421 4.60988C4.27259 4.10682 4.68702 3.68755 5.18668 3.39333C5.24171 3.36175 5.30696 3.35312 5.3683 3.36933C5.42965 3.38553 5.48213 3.42525 5.51438 3.47989C5.54439 3.53527 5.55215 3.60001 5.53606 3.6609C5.51998 3.7218 5.48126 3.77426 5.42782 3.80759C5.10476 3.99284 4.82141 4.23998 4.594 4.53487C4.36658 4.82976 4.19956 5.16661 4.1025 5.52614C4.00544 5.88567 3.98024 6.26081 4.02836 6.63008C4.07647 6.99936 4.19694 7.35552 4.38289 7.67818C4.41447 7.7332 4.42309 7.79846 4.40689 7.8598C4.39069 7.92114 4.35096 7.97363 4.29632 8.00588C4.26368 8.02305 4.22795 8.03356 4.19121 8.03679Z" fill="currentColor"/>
<path d="M1.83514 9.06934C1.79045 9.07053 1.74636 9.05894 1.70802 9.03594C1.66969 9.01295 1.63872 8.97949 1.61873 8.9395C1.20116 8.10949 0.989104 7.19131 1.00043 6.26225C0.997066 5.18142 1.29198 4.12063 1.85271 3.19663C2.41343 2.27263 3.21823 1.52125 4.17851 1.02521C4.23518 0.997042 4.30064 0.992274 4.36079 1.01194C4.42094 1.0316 4.47095 1.07412 4.50003 1.13032C4.5282 1.18699 4.53297 1.25246 4.51331 1.31261C4.49364 1.37275 4.45112 1.42276 4.39492 1.45184C3.51274 1.90724 2.77343 2.59738 2.25848 3.44617C1.74353 4.29497 1.47294 5.26946 1.47652 6.26225C1.47804 7.12471 1.69029 7.97375 2.09483 8.73546C2.123 8.79213 2.12777 8.85759 2.1081 8.91774C2.08844 8.97789 2.04592 9.0279 1.98972 9.05698C1.94183 9.08128 1.88629 9.08573 1.83514 9.06934Z" fill="currentColor"/>
</svg>
