<svg width="24" height="24" viewBox="0 0 24 24" fill="none" xmlns="http://www.w3.org/2000/svg">
<path d="M18.3815 9.2835L17.9703 9.70102L13.0099 4.74071L13.4275 4.32943L11.7699 2.67184L6.80957 7.63215L8.46716 9.2835L8.87844 8.87222L13.8387 13.8325L13.4275 14.2438L15.0788 15.8952L20.0391 10.9411L18.3815 9.2835Z" fill="#C9C2EA"/>
<path d="M13.2964 13.8699L13.0534 14.1192C13.0312 14.1412 13.0135 14.1674 13.0015 14.1963C12.9894 14.2252 12.9832 14.2561 12.9832 14.2874C12.9832 14.3187 12.9894 14.3497 13.0015 14.3786C13.0135 14.4074 13.0312 14.4337 13.0534 14.4557L14.711 16.107C14.7563 16.1504 14.8165 16.1747 14.8793 16.1747C14.942 16.1747 15.0023 16.1504 15.0475 16.107L20.0327 11.1218C20.055 11.0998 20.0726 11.0736 20.0847 11.0447C20.0967 11.0158 20.1029 10.9848 20.1029 10.9535C20.1029 10.9223 20.0967 10.8913 20.0847 10.8624C20.0726 10.8335 20.055 10.8073 20.0327 10.7853L18.3565 9.1464C18.3109 9.10112 18.2493 9.0757 18.1851 9.0757C18.1209 9.0757 18.0593 9.10112 18.0137 9.1464L17.7707 9.38943L13.1531 4.76564L13.3961 4.52261C13.4184 4.50059 13.436 4.47438 13.4481 4.4455C13.4601 4.41662 13.4663 4.38564 13.4663 4.35435C13.4663 4.32306 13.4601 4.29208 13.4481 4.26321C13.436 4.23433 13.4184 4.20812 13.3961 4.1861L11.7448 2.53475C11.7224 2.51092 11.6954 2.49198 11.6654 2.47911C11.6353 2.46624 11.603 2.45972 11.5703 2.45997C11.5386 2.45982 11.5072 2.46641 11.4782 2.4793C11.4492 2.49219 11.4232 2.51109 11.4021 2.53475L6.41683 7.51997C6.37154 7.56551 6.34613 7.62712 6.34613 7.69134C6.34613 7.75556 6.37154 7.81717 6.41683 7.86271L8.09934 9.50783C8.1446 9.55125 8.20488 9.57549 8.26759 9.57549C8.33031 9.57549 8.39059 9.55125 8.43585 9.50783L8.67888 9.2648L9.99373 10.5797L7.68183 12.8916L1.07017 19.4783C1.04794 19.5003 1.03029 19.5265 1.01825 19.5554C1.0062 19.5843 1 19.6153 1 19.6465C1 19.6778 1.0062 19.7088 1.01825 19.7377C1.03029 19.7666 1.04794 19.7928 1.07017 19.8148L2.72153 21.4661C2.74411 21.4897 2.77119 21.5084 2.80117 21.5213C2.83114 21.5341 2.8634 21.5408 2.89601 21.5409C2.92769 21.5407 2.95898 21.5339 2.98792 21.5211C3.01687 21.5082 3.04286 21.4895 3.06426 21.4661L9.67592 14.8545L12.0003 12.5488L13.2964 13.8699ZM18.182 9.66362L19.4781 10.966L14.8606 15.5898L13.5457 14.275L18.182 9.66362ZM8.26136 8.97192L6.95274 7.63837L11.5703 3.01457L12.8852 4.32943L12.6234 4.59738L8.51062 8.72889L8.26136 8.97192ZM12.8042 5.10837L17.4279 9.72594L13.6329 13.5209L12.1498 12.0378L9.03407 8.92207L12.8042 5.10837ZM2.89601 20.9614L1.58116 19.6465L7.85008 13.3714L9.16494 14.6862L2.89601 20.9614ZM9.50767 14.3497L8.19282 13.0349L10.3302 10.8912L11.6451 12.2061L9.50767 14.3497Z" fill="currentColor"/>
<path d="M22.7625 21.0611H21.834V20.7246C21.8323 20.1968 21.6215 19.6912 21.2477 19.3186C20.874 18.946 20.3677 18.7367 19.8399 18.7367H13.9947C13.7331 18.7359 13.474 18.7867 13.2321 18.8863C12.9902 18.9858 12.7703 19.1321 12.5851 19.3168C12.3998 19.5014 12.2528 19.7208 12.1525 19.9624C12.0523 20.204 12.0006 20.463 12.0006 20.7246V21.0736H11.0721C11.0087 21.0735 10.9479 21.0983 10.9024 21.1425C10.857 21.1868 10.8307 21.247 10.8291 21.3104C10.8307 21.3743 10.8568 21.4352 10.902 21.4805C10.9473 21.5257 11.0082 21.5518 11.0721 21.5534H22.7625C22.8259 21.5518 22.8861 21.5254 22.9303 21.48C22.9746 21.4346 22.9993 21.3737 22.9993 21.3104C23.001 21.2782 22.9961 21.2461 22.985 21.2159C22.9738 21.1857 22.9567 21.1581 22.9345 21.1348C22.9123 21.1115 22.8857 21.0929 22.8561 21.0802C22.8265 21.0676 22.7947 21.0611 22.7625 21.0611ZM12.4805 20.7246C12.4805 20.323 12.64 19.9378 12.924 19.6538C13.208 19.3699 13.5931 19.2103 13.9947 19.2103H19.8399C20.2404 19.212 20.624 19.3722 20.9066 19.656C21.1893 19.9398 21.3479 20.3241 21.3479 20.7246V21.0736H12.4805V20.7246Z" fill="currentColor"/>
</svg>
