<svg width="24" height="24" viewBox="0 0 24 24" fill="none" xmlns="http://www.w3.org/2000/svg">
<path d="M20.0544 3.66696C20.0544 4.43327 19.7499 5.16819 19.2081 5.71005C18.6662 6.25191 17.9313 6.55633 17.165 6.55633H11.127V17.126H17.165C17.9313 17.126 18.6662 17.4304 19.2081 17.9722C19.7499 18.5141 20.0544 19.249 20.0544 20.0153V3.66696Z" fill="#C9C2EA"/>
<path d="M22.0431 2.00002H20.5058C20.3788 1.99921 20.2529 2.02352 20.1353 2.07155C20.0177 2.11959 19.9108 2.1904 19.8207 2.27992C19.7306 2.36943 19.6592 2.47588 19.6104 2.59314C19.5616 2.71039 19.5365 2.83614 19.5365 2.96314V3.58053C19.5365 4.27479 19.2607 4.94062 18.7698 5.43153C18.2788 5.92245 17.613 6.19824 16.9187 6.19824H6.81214C5.33848 6.13193 3.89882 6.65374 2.80989 7.64889C1.72096 8.64404 1.07194 10.031 1.00563 11.5047C0.939314 12.9783 1.46113 14.418 2.45628 15.5069C3.45143 16.5959 4.83839 17.2449 6.31206 17.3112L6.76275 21.4045C6.76275 21.7319 6.89284 22.046 7.12441 22.2776C7.35597 22.5091 7.67004 22.6392 7.99752 22.6392H9.92377C10.2513 22.6392 10.5653 22.5091 10.7969 22.2776C11.0284 22.046 11.1585 21.7319 11.1585 21.4045V17.3297H16.9249C17.6181 17.3313 18.2824 17.6079 18.7719 18.0986C19.2615 18.5893 19.5365 19.2542 19.5365 19.9474V20.6945C19.5365 20.9505 19.6377 21.1961 19.8182 21.3777C19.9986 21.5593 20.2436 21.6621 20.4996 21.6638H22.0369C22.2929 21.6621 22.5378 21.5593 22.7183 21.3777C22.8987 21.1961 23 20.9505 23 20.6945V2.96314C23 2.70877 22.8994 2.46473 22.7201 2.28429C22.5408 2.10384 22.2974 2.00165 22.0431 2.00002ZM1.78662 11.7609C1.79314 10.4318 2.3253 9.15919 3.26689 8.22107C4.20847 7.28296 5.48299 6.75551 6.81214 6.75389H10.6152V16.7864H6.81214C5.47979 16.7848 4.20248 16.2548 3.26037 15.3127C2.31825 14.3706 1.78826 13.0932 1.78662 11.7609ZM10.6152 21.3921C10.6152 21.5755 10.5424 21.7514 10.4127 21.8811C10.283 22.0107 10.1072 22.0836 9.92377 22.0836H7.99752C7.90456 22.082 7.81284 22.062 7.72765 22.0247C7.64246 21.9875 7.5655 21.9337 7.5012 21.8666C7.43691 21.7994 7.38656 21.7202 7.35307 21.6334C7.31957 21.5467 7.30359 21.4542 7.30605 21.3612L6.85536 17.3297H10.6152V21.3921ZM16.9249 16.7864H11.1585V6.75389H16.9249C17.4427 6.75016 17.9517 6.61928 18.4071 6.37276C18.8624 6.12623 19.2503 5.77161 19.5365 5.34008V18.1755C19.2478 17.7482 18.8589 17.3981 18.4036 17.1559C17.9483 16.9138 17.4406 16.7869 16.9249 16.7864ZM22.4814 20.6945C22.4814 20.8074 22.4365 20.9158 22.3566 20.9957C22.2767 21.0756 22.1684 21.1205 22.0554 21.1205H20.5058C20.3939 21.1188 20.2871 21.0732 20.2085 20.9935C20.13 20.9138 20.0859 20.8064 20.0859 20.6945V2.96314C20.0859 2.85122 20.13 2.74379 20.2085 2.66408C20.2871 2.58436 20.3939 2.53877 20.5058 2.53715H22.0431C22.156 2.53715 22.2644 2.58203 22.3443 2.66192C22.4242 2.74181 22.469 2.85016 22.469 2.96314L22.4814 20.6945Z" fill="currentColor"/>
</svg>
