<svg width="24" height="24" viewBox="0 0 24 24" fill="none" xmlns="http://www.w3.org/2000/svg">
<path d="M22.692 3H1.27867C1.20476 3 1.13388 3.02936 1.08162 3.08162C1.02936 3.13388 1 3.20476 1 3.27867V17.6227C1 17.6966 1.02936 17.7675 1.08162 17.8197C1.13388 17.872 1.20476 17.9014 1.27867 17.9014H14.8013C14.8422 17.908 14.8841 17.9056 14.924 17.8945C14.9639 17.8833 15.0009 17.8636 15.0324 17.8368C15.0639 17.8099 15.0893 17.7766 15.1066 17.739C15.124 17.7014 15.133 17.6604 15.133 17.619C15.133 17.5776 15.124 17.5367 15.1066 17.4991C15.0893 17.4615 15.0639 17.4281 15.0324 17.4012C15.0009 17.3744 14.9639 17.3547 14.924 17.3436C14.8841 17.3324 14.8422 17.3301 14.8013 17.3367H1.56467V9.16001H22.4134V17.4173C22.4134 17.4913 22.4427 17.5621 22.495 17.6144C22.5472 17.6667 22.6181 17.696 22.692 17.696C22.7659 17.696 22.8368 17.6667 22.8891 17.6144C22.9413 17.5621 22.9707 17.4913 22.9707 17.4173V3.27867C22.9707 3.20476 22.9413 3.13388 22.8891 3.08162C22.8368 3.02936 22.7659 3 22.692 3ZM1.56467 6.19V3.56467H22.4134V6.19H1.56467Z" fill="currentColor"/>
<path d="M18.7471 21.59C20.926 21.59 22.6924 19.8237 22.6924 17.6447C22.6924 15.4658 20.926 13.6994 18.7471 13.6994C16.5681 13.6994 14.8018 15.4658 14.8018 17.6447C14.8018 19.8237 16.5681 21.59 18.7471 21.59Z" fill="#C9C2EA"/>
<path d="M18.7464 21.876C17.9095 21.8716 17.0928 21.6192 16.3993 21.1507C15.7059 20.6821 15.1671 20.0184 14.8508 19.2436C14.5346 18.4688 14.4552 17.6176 14.6228 16.7977C14.7903 15.9777 15.1972 15.2259 15.792 14.6372C16.3869 14.0485 17.1429 13.6495 17.9645 13.4905C18.7862 13.3315 19.6365 13.4197 20.408 13.7439C21.1795 14.0682 21.8375 14.614 22.2988 15.3122C22.7602 16.0105 23.0041 16.8298 22.9997 17.6667C22.9969 18.2223 22.8845 18.772 22.6692 19.2843C22.4539 19.7965 22.1398 20.2614 21.7449 20.6523C21.3499 21.0431 20.8818 21.3524 20.3673 21.5624C19.8529 21.7723 19.3021 21.8789 18.7464 21.876ZM18.7464 14C18.0212 14 17.3123 14.215 16.7093 14.6179C16.1063 15.0208 15.6364 15.5935 15.3588 16.2635C15.0813 16.9335 15.0087 17.6707 15.1502 18.382C15.2917 19.0933 15.6409 19.7466 16.1537 20.2594C16.6665 20.7722 17.3198 21.1214 18.0311 21.2629C18.7423 21.4044 19.4796 21.3318 20.1496 21.0542C20.8196 20.7767 21.3922 20.3067 21.7951 19.7038C22.198 19.1008 22.4131 18.3919 22.4131 17.6667C22.4131 16.6942 22.0268 15.7616 21.3391 15.0739C20.6515 14.3863 19.7189 14 18.7464 14Z" fill="currentColor"/>
<path d="M19.9789 17.1607H17.9916V16.4274C17.9916 16.2261 18.0715 16.033 18.2139 15.8907C18.3562 15.7483 18.5493 15.6684 18.7506 15.6684C18.9519 15.6684 19.1449 15.7483 19.2873 15.8907C19.4296 16.033 19.5096 16.2261 19.5096 16.4274V16.684C19.5033 16.7209 19.5051 16.7586 19.5149 16.7947C19.5247 16.8307 19.5423 16.8642 19.5664 16.8928C19.5905 16.9213 19.6205 16.9443 19.6544 16.96C19.6883 16.9758 19.7252 16.9839 19.7626 16.9839C19.7999 16.9839 19.8368 16.9758 19.8707 16.96C19.9046 16.9443 19.9347 16.9213 19.9588 16.8928C19.9828 16.8642 20.0004 16.8307 20.0102 16.7947C20.02 16.7586 20.0219 16.7209 20.0156 16.684V16.4274C20.0156 16.0909 19.8819 15.7682 19.644 15.5303C19.4061 15.2924 19.0834 15.1587 18.7469 15.1587C18.4104 15.1587 18.0877 15.2924 17.8498 15.5303C17.6119 15.7682 17.4782 16.0909 17.4782 16.4274V17.1607C17.3271 17.17 17.1853 17.2367 17.0817 17.3471C16.9781 17.4575 16.9206 17.6033 16.9209 17.7547V19.5C16.9209 19.6583 16.9832 19.8101 17.0944 19.9227C17.2056 20.0352 17.3567 20.0994 17.5149 20.1014H19.9789C20.0579 20.1014 20.1361 20.0858 20.209 20.0556C20.282 20.0254 20.3483 19.9811 20.4041 19.9252C20.46 19.8694 20.5042 19.8031 20.5345 19.7302C20.5647 19.6572 20.5802 19.579 20.5802 19.5V17.762C20.5802 17.6831 20.5647 17.6049 20.5345 17.5319C20.5042 17.459 20.46 17.3927 20.4041 17.3368C20.3483 17.281 20.282 17.2367 20.209 17.2065C20.1361 17.1762 20.0579 17.1607 19.9789 17.1607ZM20.0669 19.5074C20.0669 19.5307 20.0576 19.5531 20.0411 19.5696C20.0246 19.5861 20.0022 19.5954 19.9789 19.5954H17.5149C17.4916 19.5954 17.4692 19.5861 17.4527 19.5696C17.4362 19.5531 17.4269 19.5307 17.4269 19.5074V17.762C17.4269 17.7387 17.4362 17.7163 17.4527 17.6998C17.4692 17.6833 17.4916 17.674 17.5149 17.674H19.9789C20.0022 17.674 20.0246 17.6833 20.0411 17.6998C20.0576 17.7163 20.0669 17.7387 20.0669 17.762V19.5074Z" fill="currentColor"/>
</svg>
