<svg width="24" height="24" viewBox="0 0 24 24" fill="none" xmlns="http://www.w3.org/2000/svg">
<path d="M18.2494 22.7346C20.7268 22.7346 22.7351 20.7269 22.7351 18.2502C22.7351 15.7736 20.7268 13.7659 18.2494 13.7659C15.772 13.7659 13.7637 15.7736 13.7637 18.2502C13.7637 20.7269 15.772 22.7346 18.2494 22.7346Z" fill="#C9C2EA"/>
<path fill-rule="evenodd" clip-rule="evenodd" d="M1 1H10.4359V10.4332H1V1ZM1.47057 1.47057V9.96265H9.96533V1.47057H1.47057Z" fill="currentColor"/>
<path fill-rule="evenodd" clip-rule="evenodd" d="M3.07129 3.07117H8.36981V8.36825H3.07129V3.07117ZM3.54186 3.54173V7.89768H7.89924V3.54173H3.54186Z" fill="currentColor"/>
<path fill-rule="evenodd" clip-rule="evenodd" d="M1 13.5612H10.4359V22.9944H1V13.5612ZM1.47057 14.0317V22.5238H9.96533V14.0317H1.47057Z" fill="currentColor"/>
<path fill-rule="evenodd" clip-rule="evenodd" d="M3.07129 15.6323H8.36981V20.9293H3.07129V15.6323ZM3.54186 16.1028V20.4588H7.89924V16.1028H3.54186Z" fill="currentColor"/>
<path fill-rule="evenodd" clip-rule="evenodd" d="M13.5645 1H23.0003V10.4332H13.5645V1ZM14.035 1.47057V9.96265H22.5298V1.47057H14.035Z" fill="currentColor"/>
<path fill-rule="evenodd" clip-rule="evenodd" d="M15.6289 3.07117H20.9274V8.36825H15.6289V3.07117ZM16.0995 3.54173V7.89768H20.4569V3.54173H16.0995Z" fill="currentColor"/>
<path fill-rule="evenodd" clip-rule="evenodd" d="M18.2493 14.0012C15.9018 14.0012 13.9989 15.9037 13.9989 18.2503C13.9989 20.5969 15.9018 22.4994 18.2493 22.4994C20.5968 22.4994 22.4998 20.5969 22.4998 18.2503C22.4998 15.9037 20.5968 14.0012 18.2493 14.0012ZM13.5283 18.2503C13.5283 15.6436 15.6421 13.5306 18.2493 13.5306C20.8566 13.5306 22.9703 15.6436 22.9703 18.2503C22.9703 20.857 20.8566 22.97 18.2493 22.97C15.6421 22.97 13.5283 20.857 13.5283 18.2503Z" fill="currentColor"/>
<path fill-rule="evenodd" clip-rule="evenodd" d="M16.7539 16.4666C16.7539 16.0721 17.0812 15.767 17.472 15.767H19.1648C19.5556 15.767 19.8829 16.0721 19.8829 16.4666V17.0348C19.8829 17.1647 19.7776 17.27 19.6476 17.27C19.5177 17.27 19.4123 17.1647 19.4123 17.0348V16.4666C19.4123 16.3478 19.3118 16.2375 19.1648 16.2375H17.472C17.325 16.2375 17.2245 16.3478 17.2245 16.4666V17.9084C17.2245 18.0191 17.3229 18.1313 17.472 18.1313H19.1648C19.5514 18.1313 19.8829 18.4264 19.8829 18.8248V20.4255C19.8829 20.8159 19.5535 21.119 19.1648 21.119H17.472C17.0854 21.119 16.7539 20.824 16.7539 20.4255V19.8451C16.7539 19.7152 16.8592 19.6098 16.9892 19.6098C17.1191 19.6098 17.2245 19.7152 17.2245 19.8451V20.4255C17.2245 20.5403 17.3208 20.6485 17.472 20.6485H19.1648C19.3139 20.6485 19.4123 20.5362 19.4123 20.4255V18.8248C19.4123 18.7101 19.316 18.6019 19.1648 18.6019H17.472C17.0833 18.6019 16.7539 18.2987 16.7539 17.9084V16.4666Z" fill="currentColor"/>
<path fill-rule="evenodd" clip-rule="evenodd" d="M18.3154 15.0275C18.4453 15.0275 18.5506 15.1328 18.5506 15.2627V16.0022C18.5506 16.1321 18.4453 16.2375 18.3154 16.2375C18.1854 16.2375 18.0801 16.1321 18.0801 16.0022V15.2627C18.0801 15.1328 18.1854 15.0275 18.3154 15.0275Z" fill="currentColor"/>
<path fill-rule="evenodd" clip-rule="evenodd" d="M18.3154 20.6422C18.4453 20.6422 18.5506 20.7475 18.5506 20.8774V21.6169C18.5506 21.7468 18.4453 21.8522 18.3154 21.8522C18.1854 21.8522 18.0801 21.7468 18.0801 21.6169V20.8774C18.0801 20.7475 18.1854 20.6422 18.3154 20.6422Z" fill="currentColor"/>
</svg>
