<svg width="24" height="24" viewBox="0 0 24 24" fill="none" xmlns="http://www.w3.org/2000/svg">
<path d="M12.6295 1.17739C12.5055 1.17572 12.3824 1.19848 12.2673 1.24438C12.1521 1.29027 12.0471 1.35841 11.9583 1.44489C11.8694 1.53137 11.7985 1.63451 11.7495 1.7484C11.7006 1.8623 11.6745 1.98472 11.6729 2.10869C11.6745 2.23237 11.7006 2.3545 11.7496 2.46805C11.7987 2.58159 11.8697 2.68431 11.9586 2.77029C12.0476 2.85627 12.1526 2.9238 12.2678 2.969C12.3829 3.0142 12.5058 3.03617 12.6295 3.03366C13.7428 3.03198 14.8456 3.25015 15.8744 3.67563C16.9032 4.10111 17.838 4.72554 18.6249 5.51309C19.4119 6.30064 20.0356 7.23582 20.4603 8.26498C20.885 9.29414 21.1024 10.397 21.0999 11.5104C21.0999 11.7624 21.2 12.0041 21.3782 12.1823C21.5564 12.3606 21.7981 12.4607 22.0502 12.4607C22.3022 12.4607 22.5439 12.3606 22.7221 12.1823C22.9004 12.0041 23.0005 11.7624 23.0005 11.5104C22.9904 8.76641 21.8933 6.13826 19.9495 4.20153C18.0056 2.26481 15.3735 1.17737 12.6295 1.17739Z" fill="#C9C2EA"/>
<path d="M12.6274 4.92158C12.3754 4.91738 12.132 5.01347 11.9508 5.18872C11.7696 5.36396 11.6655 5.60401 11.6613 5.85605C11.6571 6.10808 11.7532 6.35147 11.9284 6.53265C12.1036 6.71384 12.3437 6.81799 12.5957 6.82219H12.6274C13.246 6.82052 13.8589 6.94113 14.4307 7.1771C15.0026 7.41306 15.5222 7.75973 15.9596 8.19716C16.397 8.6346 16.7437 9.15418 16.9797 9.72603C17.2156 10.2979 17.3363 10.9107 17.3346 11.5294C17.3346 11.7814 17.4347 12.0231 17.6129 12.2013C17.7911 12.3795 18.0329 12.4797 18.2849 12.4797C18.5369 12.4797 18.7786 12.3795 18.9569 12.2013C19.1351 12.0231 19.2352 11.7814 19.2352 11.5294C19.236 10.6614 19.0657 9.80176 18.7339 8.99969C18.4021 8.19762 17.9154 7.46885 17.3017 6.8551C16.6879 6.24134 15.9592 5.75465 15.1571 5.42287C14.355 5.09109 13.4954 4.92075 12.6274 4.92158Z" fill="#C9C2EA"/>
<path d="M12.6274 8.68479C12.3754 8.68059 12.132 8.77669 11.9508 8.95193C11.7696 9.12718 11.6655 9.36722 11.6613 9.61926C11.6571 9.8713 11.7532 10.1147 11.9284 10.2959C12.1036 10.4771 12.3437 10.5812 12.5957 10.5854H12.6274C12.7516 10.5837 12.8748 10.607 12.9897 10.6539C13.1047 10.7008 13.209 10.7703 13.2965 10.8584C13.384 10.9465 13.4529 11.0513 13.499 11.1666C13.5452 11.2819 13.5676 11.4052 13.565 11.5294C13.5667 11.6539 13.593 11.7768 13.6423 11.8912C13.6917 12.0055 13.7632 12.1089 13.8527 12.1954C13.9422 12.282 14.048 12.35 14.1639 12.3955C14.2798 12.4411 14.4035 12.4632 14.528 12.4607C14.6514 12.4632 14.774 12.4412 14.8888 12.3959C15.0036 12.3506 15.1082 12.283 15.1966 12.1969C15.285 12.1109 15.3555 12.0081 15.4038 11.8946C15.4522 11.7811 15.4775 11.6591 15.4783 11.5357C15.4808 11.1606 15.4088 10.7888 15.2665 10.4417C15.1241 10.0947 14.9142 9.77941 14.6489 9.51418C14.3837 9.24894 14.0684 9.03904 13.7214 8.89666C13.3744 8.75428 13.0025 8.68227 12.6274 8.68479Z" fill="#C9C2EA"/>
<path d="M12.546 1C12.294 1 12.0523 1.10012 11.874 1.27834C11.6958 1.45656 11.5957 1.69827 11.5957 1.95031C11.5957 2.20234 11.6958 2.44406 11.874 2.62227C12.0523 2.80049 12.294 2.90061 12.546 2.90061C13.6578 2.89811 14.7591 3.11482 15.787 3.53835C16.8149 3.96187 17.7493 4.5839 18.5366 5.36885C19.3239 6.1538 19.9487 7.08627 20.3753 8.11291C20.8019 9.13956 21.0219 10.2402 21.0227 11.352C21.0185 11.604 21.1146 11.8474 21.2899 12.0286C21.4651 12.2098 21.7052 12.3139 21.9572 12.3181C22.2092 12.3223 22.4526 12.2262 22.6338 12.051C22.815 11.8757 22.9191 11.6357 22.9233 11.3837V11.352C22.9183 8.60363 21.8226 5.96965 19.8768 4.02863C17.931 2.08762 15.2944 0.998318 12.546 1Z" stroke="currentColor" stroke-width="0.77" stroke-linecap="round" stroke-linejoin="round"/>
<path d="M16.6957 22.895C16.3146 22.8944 15.9345 22.854 15.5617 22.7746C13.2113 22.2805 10.4047 20.3735 6.96461 16.9398C3.52451 13.506 1.6239 10.6804 1.12974 8.34267C0.933744 7.52466 0.960218 6.66911 1.20642 5.86479C1.45261 5.06047 1.90957 4.33668 2.52986 3.76854C3.02719 3.24558 3.65818 2.86873 4.35444 2.67885C4.49683 2.64086 4.64477 2.62799 4.79158 2.64084C5.00881 2.65991 5.21829 2.73086 5.4024 2.84772C5.58651 2.96458 5.73987 3.12394 5.84959 3.31239L8.42808 7.74715C8.55119 7.95646 8.61611 8.19487 8.61611 8.4377C8.61611 8.68053 8.55119 8.91895 8.42808 9.12826L7.37641 10.8832C7.28684 11.0327 7.24438 11.2057 7.25455 11.3798C7.26472 11.5538 7.32705 11.7207 7.43343 11.8588C8.10477 12.7258 8.82612 13.5529 9.59379 14.3359C10.3787 15.1039 11.208 15.8253 12.0773 16.4963C12.2136 16.6038 12.3796 16.6669 12.553 16.6771C12.7263 16.6873 12.8986 16.6441 13.0466 16.5533L14.8078 15.508C15.015 15.3853 15.2513 15.3206 15.492 15.3206C15.7328 15.3206 15.9691 15.3853 16.1762 15.508L20.611 18.0928C20.8633 18.2391 21.0614 18.4633 21.1756 18.7317C21.2899 19.0001 21.314 19.2983 21.2445 19.5816C21.0548 20.2798 20.678 20.9128 20.1548 21.4125C19.7098 21.8825 19.1734 22.2564 18.5785 22.5114C17.9837 22.7663 17.3429 22.8969 16.6957 22.895ZM4.65854 3.12866C4.58704 3.11938 4.51464 3.11938 4.44314 3.12866C3.8398 3.30624 3.29791 3.64849 2.8783 4.11698C2.31155 4.62389 1.894 5.27594 1.6707 6.00278C1.4474 6.72962 1.42684 7.50363 1.61123 8.2413C2.07371 10.465 3.99332 13.2716 7.31306 16.5913C10.6328 19.911 13.4394 21.8307 15.6567 22.2931C16.3955 22.4752 17.1698 22.4536 17.8972 22.2304C18.6246 22.0073 19.2778 21.5911 19.7874 21.0261C20.2521 20.595 20.5859 20.0417 20.7504 19.4296C20.7962 19.2493 20.7821 19.059 20.71 18.8875C20.638 18.716 20.5121 18.5727 20.3512 18.4793L15.9165 15.8881C15.7828 15.8102 15.6309 15.7691 15.4762 15.7691C15.3215 15.7691 15.1695 15.8102 15.0359 15.8881L13.281 16.9334C13.0486 17.0752 12.7786 17.1427 12.5069 17.1268C12.2352 17.111 11.9748 17.0125 11.7605 16.8447C10.8742 16.159 10.0281 15.4229 9.22634 14.64C8.44516 13.8367 7.70913 12.9907 7.02163 12.1059C6.85382 11.8916 6.75541 11.6312 6.73956 11.3595C6.72371 11.0878 6.79117 10.8177 6.93293 10.5854L8.00361 8.84316C8.08281 8.70995 8.12461 8.55784 8.12461 8.40286C8.12461 8.24788 8.08281 8.09576 8.00361 7.96255L5.41878 3.52779C5.34987 3.40716 5.25281 3.30499 5.13588 3.22997C5.01895 3.15496 4.88561 3.10934 4.74723 3.09699H4.68388L4.65854 3.12866Z" fill="currentColor"/>
<path d="M18.1968 12.581C17.8831 12.5744 17.5847 12.4442 17.3665 12.2188C17.1482 11.9935 17.0277 11.6911 17.0311 11.3773C17.0228 10.2037 16.5529 9.08053 15.723 8.25065C14.8931 7.42076 13.77 6.95087 12.5963 6.94257C12.4359 6.94283 12.277 6.91102 12.1291 6.84901C11.9811 6.787 11.847 6.69603 11.7347 6.58145C11.6121 6.46804 11.5152 6.32958 11.4507 6.17546C11.3862 6.02134 11.3556 5.85515 11.3609 5.68817C11.3659 5.37727 11.493 5.08079 11.7146 4.86271C11.9362 4.64463 12.2347 4.52242 12.5457 4.52246C14.357 4.52414 16.0938 5.24401 17.3753 6.52425C18.6567 7.80449 19.3782 9.54062 19.3815 11.352C19.3823 11.5134 19.3507 11.6734 19.2887 11.8225C19.2267 11.9715 19.1355 12.1067 19.0204 12.2199C18.8044 12.4444 18.5083 12.5743 18.1968 12.581ZM12.533 5.01028C12.3482 5.01028 12.1709 5.08371 12.0402 5.2144C11.9095 5.34509 11.8361 5.52235 11.8361 5.70717C11.8361 5.892 11.9095 6.06926 12.0402 6.19995C12.1709 6.33064 12.3482 6.40406 12.533 6.40406C13.8481 6.40238 15.1102 6.92233 16.0425 7.84988C16.9748 8.77743 17.5012 10.0369 17.5063 11.352C17.5028 11.5374 17.5728 11.7167 17.701 11.8508C17.8291 11.9849 18.0051 12.0629 18.1905 12.0679C18.3744 12.0593 18.5503 11.9903 18.691 11.8715C18.8221 11.7401 18.897 11.5629 18.9 11.3773C18.9 10.5454 18.7362 9.72153 18.4178 8.95289C18.0994 8.18425 17.6327 7.48584 17.0444 6.89755C16.4562 6.30925 15.7578 5.84259 14.9891 5.52421C14.2205 5.20583 13.3966 5.04196 12.5647 5.04196L12.533 5.01028Z" fill="currentColor"/>
<path d="M14.4268 12.581C14.2696 12.5769 14.1147 12.5419 13.9709 12.4779C13.8272 12.4139 13.6976 12.3222 13.5893 12.208C13.481 12.0939 13.3963 11.9595 13.34 11.8127C13.2837 11.6658 13.2569 11.5092 13.2611 11.352C13.2628 11.26 13.246 11.1686 13.2116 11.0833C13.1772 10.9979 13.1259 10.9204 13.0608 10.8554C12.9958 10.7903 12.9183 10.739 12.8329 10.7046C12.7476 10.6702 12.6562 10.6534 12.5642 10.6551C12.4057 10.6585 12.2482 10.6299 12.101 10.571C11.9539 10.5122 11.8201 10.4242 11.7077 10.3124C11.5953 10.2006 11.5066 10.0673 11.447 9.92043C11.3873 9.77357 11.3579 9.61618 11.3605 9.45769C11.3655 9.1462 11.4923 8.84906 11.7137 8.62996C11.9352 8.41087 12.2337 8.28726 12.5452 8.28564C13.3579 8.28732 14.1369 8.61091 14.7116 9.1856C15.2863 9.76028 15.6099 10.5392 15.6115 11.352C15.6149 11.5106 15.5869 11.6683 15.5291 11.816C15.4713 11.9638 15.3848 12.0986 15.2747 12.2128C15.1646 12.327 15.0331 12.4184 14.8875 12.4816C14.742 12.5448 14.5854 12.5786 14.4268 12.581ZM12.5262 8.7798C12.343 8.78142 12.1676 8.8545 12.0375 8.98348C11.9073 9.11246 11.8326 9.28715 11.8293 9.47036C11.8289 9.65418 11.8992 9.83112 12.0257 9.96452C12.09 10.0306 12.1668 10.0831 12.2517 10.119C12.3365 10.1549 12.4277 10.1735 12.5199 10.1736C12.6773 10.1702 12.8338 10.1984 12.9801 10.2565C13.1264 10.3146 13.2596 10.4014 13.3718 10.5118C13.484 10.6223 13.573 10.7541 13.6334 10.8995C13.6938 11.0448 13.7245 11.2009 13.7236 11.3583C13.7219 11.4506 13.7385 11.5424 13.7723 11.6284C13.806 11.7144 13.8565 11.7928 13.9206 11.8593C13.9847 11.9258 14.0613 11.979 14.146 12.0158C14.2307 12.0527 14.3218 12.0725 14.4142 12.0742C14.595 12.0604 14.7674 11.9919 14.9083 11.8778C14.9818 11.8155 15.0421 11.7391 15.0856 11.6532C15.1291 11.5672 15.155 11.4734 15.1617 11.3773C15.1626 11.0344 15.0953 10.6946 14.9639 10.3779C14.8325 10.0611 14.6395 9.77357 14.3961 9.53195C14.1527 9.29033 13.8638 9.09943 13.5461 8.97032C13.2284 8.8412 12.8882 8.77645 12.5452 8.7798H12.5262Z" fill="currentColor"/>
</svg>
