<svg width="24" height="24" viewBox="0 0 24 24" fill="none" xmlns="http://www.w3.org/2000/svg">
<path d="M17.1897 5.62179L11.5041 1.04337C11.4654 1.02253 11.4236 1.00789 11.3803 1H1.26632C1.19823 1.00139 1.13312 1.02824 1.08383 1.07525C1.03454 1.12227 1.00463 1.18604 1 1.25401V20.3236C0.999982 20.3948 1.02784 20.4632 1.07762 20.5142C1.12739 20.5651 1.19512 20.5945 1.26632 20.5962H17.0225C17.0948 20.5962 17.1641 20.5674 17.2152 20.5163C17.2663 20.4652 17.295 20.3959 17.295 20.3236V5.83244C17.2953 5.79152 17.2859 5.75112 17.2676 5.71452C17.2493 5.67792 17.2226 5.64615 17.1897 5.62179ZM16.4156 5.68994H12.619C12.2904 5.68994 11.9754 5.5594 11.7431 5.32702C11.5108 5.09465 11.3803 4.77948 11.3803 4.45086V1.64433L16.4156 5.68994ZM1.53883 20.0448V1.52661H10.829V4.44466C10.829 4.67979 10.8753 4.91262 10.9653 5.12985C11.0552 5.34708 11.1871 5.54446 11.3533 5.71072C11.689 6.0465 12.1442 6.23514 12.619 6.23514H16.7376V20.0448H1.53883Z" fill="currentColor"/>
<path d="M9.38601 4.25245H3.11822C3.08243 4.25245 3.04699 4.24541 3.01393 4.23171C2.98087 4.21802 2.95083 4.19794 2.92552 4.17264C2.90022 4.14733 2.88014 4.11729 2.86645 4.08423C2.85275 4.05116 2.8457 4.01573 2.8457 3.97994C2.8457 3.90767 2.87441 3.83835 2.92552 3.78725C2.97663 3.73614 3.04594 3.70743 3.11822 3.70743H9.38601C9.45829 3.70743 9.5276 3.73614 9.57871 3.78725C9.62982 3.83835 9.65853 3.90767 9.65853 3.97994C9.65853 4.01573 9.65148 4.05116 9.63778 4.08423C9.62409 4.11729 9.60402 4.14733 9.57871 4.17264C9.5534 4.19794 9.52336 4.21802 9.4903 4.23171C9.45724 4.24541 9.4218 4.25245 9.38601 4.25245Z" fill="currentColor"/>
<path d="M9.38601 6.89168H3.11822C3.04594 6.89168 2.97663 6.86296 2.92552 6.81186C2.87441 6.76075 2.8457 6.69144 2.8457 6.61916C2.8457 6.54689 2.87441 6.47757 2.92552 6.42647C2.97663 6.37536 3.04594 6.34665 3.11822 6.34665H9.38601C9.45829 6.34665 9.5276 6.37536 9.57871 6.42647C9.62982 6.47757 9.65853 6.54689 9.65853 6.61916C9.65853 6.69144 9.62982 6.76075 9.57871 6.81186C9.5276 6.86296 9.45829 6.89168 9.38601 6.89168Z" fill="currentColor"/>
<path d="M9.38601 9.51231H3.11822C3.04594 9.51231 2.97663 9.4836 2.92552 9.43249C2.87441 9.38139 2.8457 9.31207 2.8457 9.2398C2.8457 9.16752 2.87441 9.09821 2.92552 9.0471C2.97663 8.996 3.04594 8.96729 3.11822 8.96729H9.38601C9.45829 8.96729 9.5276 8.996 9.57871 9.0471C9.62982 9.09821 9.65853 9.16752 9.65853 9.2398C9.65853 9.31207 9.62982 9.38139 9.57871 9.43249C9.5276 9.4836 9.45829 9.51231 9.38601 9.51231Z" fill="currentColor"/>
<path d="M8.06179 12.1826H2.97076C2.89848 12.1826 2.82917 12.1539 2.77806 12.1028C2.72695 12.0517 2.69824 11.9824 2.69824 11.9101C2.69824 11.8378 2.72695 11.7685 2.77806 11.7174C2.82917 11.6663 2.89848 11.6376 2.97076 11.6376H8.06179C8.13407 11.6376 8.20338 11.6663 8.25449 11.7174C8.30559 11.7685 8.33431 11.8378 8.33431 11.9101C8.33431 11.9824 8.30559 12.0517 8.25449 12.1028C8.20338 12.1539 8.13407 12.1826 8.06179 12.1826Z" fill="currentColor"/>
<path d="M8.06174 14.8218H2.97071C2.9319 14.8277 2.89228 14.8252 2.85455 14.8143C2.81683 14.8035 2.78188 14.7846 2.75212 14.7591C2.72235 14.7335 2.69846 14.7018 2.68208 14.6661C2.66571 14.6304 2.65723 14.5916 2.65723 14.5524C2.65723 14.5131 2.66571 14.4744 2.68208 14.4387C2.69846 14.403 2.72235 14.3713 2.75212 14.3457C2.78188 14.3201 2.81683 14.3013 2.85455 14.2905C2.89228 14.2796 2.9319 14.2771 2.97071 14.283H8.06174C8.10055 14.2771 8.14017 14.2796 8.1779 14.2905C8.21562 14.3013 8.25056 14.3201 8.28033 14.3457C8.3101 14.3713 8.33399 14.403 8.35037 14.4387C8.36674 14.4744 8.37522 14.5131 8.37522 14.5524C8.37522 14.5916 8.36674 14.6304 8.35037 14.6661C8.33399 14.7018 8.3101 14.7335 8.28033 14.7591C8.25056 14.7846 8.21562 14.8035 8.1779 14.8143C8.14017 14.8252 8.10055 14.8277 8.06174 14.8218Z" fill="currentColor"/>
<path d="M8.19224 17.4673H2.97114C2.93616 17.4665 2.90169 17.4588 2.86968 17.4447C2.83768 17.4305 2.80877 17.4102 2.78461 17.3849C2.76046 17.3596 2.74152 17.3298 2.72889 17.2972C2.71626 17.2645 2.71019 17.2297 2.71101 17.1948C2.71696 17.1289 2.74662 17.0675 2.79448 17.022C2.84233 16.9764 2.90511 16.9498 2.97114 16.947H8.19224C8.22803 16.947 8.26346 16.9541 8.29653 16.9678C8.32959 16.9815 8.35963 17.0015 8.38493 17.0268C8.41024 17.0521 8.43031 17.0822 8.44401 17.1152C8.4577 17.1483 8.46475 17.1837 8.46475 17.2195C8.45855 17.2874 8.42713 17.3505 8.37668 17.3964C8.32623 17.4423 8.26042 17.4676 8.19224 17.4673Z" fill="currentColor"/>
<path d="M14.0815 18.2295C16.7256 18.2295 18.8691 16.0854 18.8691 13.4404C18.8691 10.7955 16.7256 8.65137 14.0815 8.65137C11.4374 8.65137 9.29395 10.7955 9.29395 13.4404C9.29395 16.0854 11.4374 18.2295 14.0815 18.2295Z" fill="#C9C2EA"/>
<path d="M17.3792 16.9049L16.915 17.3692L18.0754 18.5299L18.5396 18.0656L17.3792 16.9049Z" fill="currentColor"/>
<path d="M14.0735 18.5083C13.0722 18.509 12.0931 18.2125 11.2603 17.6564C10.4276 17.1003 9.77843 16.3095 9.39515 15.3841C9.01186 14.4588 8.91165 13.4405 9.1072 12.4581C9.30274 11.4758 9.78525 10.5736 10.4936 9.86566C11.085 9.28495 11.8099 8.85841 12.6046 8.62352C13.3993 8.38862 14.2395 8.35256 15.0514 8.51851C15.8633 8.68445 16.622 9.04731 17.2609 9.57522C17.8998 10.1031 18.3993 10.7799 18.7156 11.5461C19.0318 12.3123 19.1551 13.1445 19.0746 13.9695C18.9941 14.7945 18.7122 15.5871 18.2538 16.2777C17.7954 16.9682 17.1745 17.5356 16.4456 17.93C15.7167 18.3243 14.9021 18.5335 14.0735 18.5393V18.5083ZM10.89 10.256C10.259 10.8866 9.82908 11.6902 9.65471 12.5652C9.48035 13.4403 9.56936 14.3474 9.91048 15.1718C10.2516 15.9962 10.8295 16.7009 11.5711 17.1967C12.3127 17.6925 13.1846 17.9572 14.0766 17.9572C14.9685 17.9572 15.8405 17.6925 16.5821 17.1967C17.3236 16.7009 17.9015 15.9962 18.2427 15.1718C18.5838 14.3474 18.6728 13.4403 18.4984 12.5652C18.3241 11.6902 17.8942 10.8866 17.2631 10.256C16.4169 9.41268 15.2711 8.93919 14.0766 8.93919C12.8821 8.93919 11.7363 9.41268 10.89 10.256Z" fill="currentColor"/>
<path d="M21.098 23L17.3262 19.227L19.2338 17.3188L22.9994 21.0918L21.098 23ZM18.0942 19.227L21.098 22.2256L22.2314 21.0918L19.2338 18.0932L18.0942 19.227Z" fill="currentColor"/>
<path d="M13.3496 16.1664C13.1017 16.1651 12.864 16.0673 12.6869 15.8938L11.5287 14.729C11.4403 14.6428 11.37 14.5397 11.3222 14.4258C11.2743 14.312 11.2498 14.1897 11.25 14.0661C11.2503 13.8161 11.3481 13.5761 11.5225 13.397C11.61 13.3086 11.7142 13.2384 11.829 13.1905C11.9439 13.1426 12.067 13.118 12.1914 13.118C12.3158 13.118 12.439 13.1426 12.5538 13.1905C12.6686 13.2384 12.7728 13.3086 12.8603 13.397L13.3496 13.8865L15.2943 11.9473C15.4268 11.8176 15.5943 11.7297 15.7762 11.6943C15.9581 11.6589 16.1464 11.6776 16.3178 11.7481C16.4892 11.8187 16.6361 11.938 16.7404 12.0912C16.8447 12.2444 16.9018 12.4248 16.9046 12.6102C16.9049 12.7337 16.8804 12.856 16.8325 12.9699C16.7846 13.0838 16.7144 13.1869 16.6259 13.2731L14.0185 15.8938C13.8395 16.0683 13.5995 16.1661 13.3496 16.1664ZM12.1914 13.5953C12.1299 13.5953 12.069 13.6075 12.0122 13.6312C11.9554 13.655 11.904 13.6897 11.8607 13.7335C11.8175 13.7774 11.7834 13.8293 11.7605 13.8864C11.7375 13.9435 11.7261 14.0046 11.7269 14.0661C11.727 14.1893 11.776 14.3074 11.8632 14.3945L13.0213 15.553C13.111 15.6375 13.2295 15.6846 13.3527 15.6846C13.4759 15.6846 13.5944 15.6375 13.684 15.553L16.2915 12.9448C16.3786 12.8577 16.4276 12.7396 16.4277 12.6164C16.4266 12.4916 16.3779 12.3719 16.2915 12.2818C16.2026 12.1959 16.0838 12.1479 15.9601 12.1479C15.8365 12.1479 15.7177 12.1959 15.6288 12.2818L13.523 14.3945C13.4777 14.4395 13.4165 14.4648 13.3527 14.4648C13.2889 14.4648 13.2276 14.4395 13.1824 14.3945L12.5259 13.7316C12.4358 13.6451 12.3162 13.5964 12.1914 13.5953Z" fill="currentColor"/>
</svg>
