<svg width="24" height="24" viewBox="0 0 24 24" fill="none" xmlns="http://www.w3.org/2000/svg">
<path d="M3.37305 19.5816H17.6461L17.7059 6.48916L12.4899 2.3493H3.37305V19.5816Z" fill="white"/>
<circle cx="14.6388" cy="13.3444" r="4.60561" fill="white"/>
<rect x="18.2891" y="18.5995" width="1.95411" height="4.31433" transform="rotate(-46.0916 18.2891 18.5995)" fill="white"/>
<path d="M17.7174 6.21537L12.5472 2.05325C12.5119 2.0343 12.4739 2.021 12.4345 2.01382H3.2373C3.17538 2.01509 3.11617 2.03949 3.07135 2.08223C3.02652 2.12497 2.99933 2.18295 2.99512 2.24474V19.5803C2.9951 19.6451 3.02043 19.7073 3.0657 19.7536C3.11096 19.7999 3.17255 19.8267 3.2373 19.8281H17.5654C17.6311 19.8281 17.6941 19.802 17.7406 19.7556C17.7871 19.7091 17.8132 19.6461 17.8132 19.5803V6.40686C17.8134 6.36966 17.8048 6.33294 17.7882 6.29966C17.7716 6.26639 17.7473 6.23751 17.7174 6.21537ZM17.0134 6.27732H13.5609C13.2622 6.27732 12.9757 6.15865 12.7644 5.9474C12.5532 5.73616 12.4345 5.44965 12.4345 5.1509V2.59956L17.0134 6.27732ZM3.48511 19.3269V2.49255H11.9333V5.14527C11.9333 5.35902 11.9754 5.57068 12.0572 5.76816C12.139 5.96563 12.2588 6.14507 12.41 6.29621C12.7152 6.60146 13.1292 6.77295 13.5609 6.77295H17.3063V19.3269H3.48511Z" fill="currentColor"/>
<path d="M10.6213 4.97078H4.92164C4.8891 4.97078 4.85687 4.96437 4.82681 4.95192C4.79674 4.93947 4.76942 4.92121 4.74641 4.8982C4.7234 4.87519 4.70515 4.84787 4.69269 4.8178C4.68024 4.78774 4.67383 4.75551 4.67383 4.72297C4.67383 4.65725 4.69994 4.59421 4.74641 4.54774C4.79288 4.50127 4.85592 4.47516 4.92164 4.47516H10.6213C10.687 4.47516 10.7501 4.50127 10.7966 4.54774C10.843 4.59421 10.8691 4.65725 10.8691 4.72297C10.8691 4.75551 10.8627 4.78774 10.8503 4.8178C10.8378 4.84787 10.8196 4.87519 10.7966 4.8982C10.7735 4.92121 10.7462 4.93947 10.7162 4.95192C10.6861 4.96437 10.6539 4.97078 10.6213 4.97078Z" fill="currentColor"/>
<path d="M10.6213 7.37001H4.92164C4.85592 7.37001 4.79288 7.34391 4.74641 7.29743C4.69994 7.25096 4.67383 7.18793 4.67383 7.1222C4.67383 7.05648 4.69994 6.99345 4.74641 6.94697C4.79288 6.9005 4.85592 6.87439 4.92164 6.87439H10.6213C10.687 6.87439 10.7501 6.9005 10.7966 6.94697C10.843 6.99345 10.8691 7.05648 10.8691 7.1222C10.8691 7.18793 10.843 7.25096 10.7966 7.29743C10.7501 7.34391 10.687 7.37001 10.6213 7.37001Z" fill="currentColor"/>
<path d="M10.6213 9.7524H4.92164C4.85592 9.7524 4.79288 9.72629 4.74641 9.67982C4.69994 9.63334 4.67383 9.57031 4.67383 9.50459C4.67383 9.43886 4.69994 9.37583 4.74641 9.32936C4.79288 9.28288 4.85592 9.25677 4.92164 9.25677H10.6213C10.687 9.25677 10.7501 9.28288 10.7966 9.32936C10.843 9.37583 10.8691 9.43886 10.8691 9.50459C10.8691 9.57031 10.843 9.63334 10.7966 9.67982C10.7501 9.72629 10.687 9.7524 10.6213 9.7524Z" fill="currentColor"/>
<path d="M9.41646 12.1798H4.78687C4.72115 12.1798 4.65812 12.1537 4.61165 12.1072C4.56517 12.0608 4.53906 11.9977 4.53906 11.932C4.53906 11.8663 4.56517 11.8033 4.61165 11.7568C4.65812 11.7103 4.72115 11.6842 4.78687 11.6842H9.41646C9.48218 11.6842 9.54521 11.7103 9.59169 11.7568C9.63816 11.8033 9.66427 11.8663 9.66427 11.932C9.66427 11.9977 9.63816 12.0608 9.59169 12.1072C9.54521 12.1537 9.48218 12.1798 9.41646 12.1798Z" fill="currentColor"/>
<path d="M9.4166 14.579H4.78702C4.75173 14.5844 4.7157 14.582 4.68139 14.5722C4.64709 14.5623 4.61531 14.5452 4.58824 14.5219C4.56117 14.4987 4.53945 14.4698 4.52456 14.4374C4.50966 14.405 4.50195 14.3697 4.50195 14.334C4.50195 14.2983 4.50966 14.263 4.52456 14.2306C4.53945 14.1982 4.56117 14.1693 4.58824 14.1461C4.61531 14.1228 4.64709 14.1056 4.68139 14.0958C4.7157 14.086 4.75173 14.0836 4.78702 14.089H9.4166C9.45189 14.0836 9.48792 14.086 9.52223 14.0958C9.55653 14.1056 9.58831 14.1228 9.61538 14.1461C9.64245 14.1693 9.66417 14.1982 9.67906 14.2306C9.69396 14.263 9.70167 14.2983 9.70167 14.334C9.70167 14.3697 9.69396 14.405 9.67906 14.4374C9.66417 14.4698 9.64245 14.4987 9.61538 14.5219C9.58831 14.5452 9.55653 14.5623 9.52223 14.5722C9.48792 14.582 9.45189 14.5844 9.4166 14.579Z" fill="currentColor"/>
<path d="M9.53525 16.984H4.7874C4.75559 16.9832 4.72424 16.9762 4.69514 16.9634C4.66603 16.9505 4.63975 16.9321 4.61778 16.9091C4.59581 16.8861 4.57859 16.8589 4.56711 16.8293C4.55563 16.7996 4.5501 16.768 4.55085 16.7361C4.55626 16.6763 4.58323 16.6205 4.62675 16.579C4.67026 16.5376 4.72736 16.5134 4.7874 16.5109H9.53525C9.5678 16.5109 9.60002 16.5173 9.63009 16.5297C9.66015 16.5422 9.68747 16.5604 9.71048 16.5834C9.7335 16.6065 9.75175 16.6338 9.7642 16.6638C9.77666 16.6939 9.78307 16.7261 9.78307 16.7587C9.77743 16.8204 9.74885 16.8778 9.70298 16.9195C9.6571 16.9612 9.59726 16.9842 9.53525 16.984Z" fill="currentColor"/>
<path d="M14.8907 17.6767C17.2952 17.6767 19.2443 15.7275 19.2443 13.3231C19.2443 10.9187 17.2952 8.96948 14.8907 8.96948C12.4863 8.96948 10.5371 10.9187 10.5371 13.3231C10.5371 15.7275 12.4863 17.6767 14.8907 17.6767Z" fill="#7866CB"/>
<path d="M17.8899 16.4725L17.4678 16.8947L18.5231 17.95L18.9453 17.5279L17.8899 16.4725Z" fill="currentColor"/>
<path d="M14.884 17.9302C13.9735 17.9308 13.0832 17.6613 12.3259 17.1558C11.5686 16.6502 10.9783 15.9313 10.6297 15.0901C10.2812 14.2489 10.1901 13.3232 10.3679 12.4302C10.5457 11.5371 10.9845 10.7169 11.6287 10.0734C12.1664 9.54551 12.8256 9.15776 13.5483 8.94422C14.271 8.73069 15.035 8.69791 15.7733 8.84876C16.5116 8.99961 17.2016 9.32948 17.7826 9.80939C18.3636 10.2893 18.8178 10.9045 19.1054 11.6011C19.3929 12.2976 19.505 13.0541 19.4318 13.8041C19.3586 14.5541 19.1023 15.2746 18.6855 15.9024C18.2686 16.5302 17.704 17.046 17.0411 17.4045C16.3783 17.7629 15.6376 17.9531 14.884 17.9584V17.9302ZM11.9891 10.4282C11.4153 11.0015 11.0243 11.7321 10.8658 12.5275C10.7072 13.323 10.7882 14.1476 11.0984 14.8971C11.4086 15.6466 11.9341 16.2872 12.6085 16.7379C13.2828 17.1886 14.0757 17.4292 14.8868 17.4292C15.698 17.4292 16.4909 17.1886 17.1652 16.7379C17.8396 16.2872 18.3651 15.6466 18.6753 14.8971C18.9855 14.1476 19.0665 13.323 18.9079 12.5275C18.7494 11.7321 18.3584 11.0015 17.7846 10.4282C17.015 9.66163 15.9731 9.23119 14.8868 9.23119C13.8006 9.23119 12.7587 9.66163 11.9891 10.4282Z" fill="currentColor"/>
<path d="M21.2717 22.0135L17.8418 18.5836L19.5765 16.8489L23.0008 20.2788L21.2717 22.0135ZM18.5402 18.5836L21.2717 21.3095L22.3024 20.2788L19.5765 17.5529L18.5402 18.5836Z" fill="currentColor"/>
<path d="M14.2257 15.8012C14.0002 15.8001 13.7841 15.7112 13.6231 15.5534L12.5699 14.4946C12.4894 14.4162 12.4256 14.3225 12.382 14.219C12.3385 14.1155 12.3162 14.0043 12.3164 13.892C12.3167 13.6647 12.4056 13.4465 12.5642 13.2837C12.6438 13.2033 12.7386 13.1395 12.843 13.096C12.9474 13.0524 13.0594 13.03 13.1725 13.03C13.2856 13.03 13.3976 13.0524 13.502 13.096C13.6064 13.1395 13.7012 13.2033 13.7808 13.2837L14.2257 13.7286L15.9942 11.9658C16.1146 11.8479 16.267 11.7679 16.4324 11.7358C16.5978 11.7036 16.769 11.7206 16.9248 11.7848C17.0807 11.8489 17.2143 11.9573 17.3091 12.0966C17.404 12.2359 17.4559 12.3999 17.4585 12.5684C17.4587 12.6807 17.4364 12.7919 17.3929 12.8954C17.3494 12.9989 17.2855 13.0927 17.2051 13.1711L14.834 15.5534C14.6712 15.7121 14.453 15.801 14.2257 15.8012ZM13.1725 13.4639C13.1165 13.4639 13.0611 13.475 13.0095 13.4966C12.9579 13.5182 12.9111 13.5498 12.8718 13.5896C12.8325 13.6294 12.8015 13.6767 12.7806 13.7286C12.7597 13.7805 12.7493 13.836 12.7501 13.892C12.7502 14.004 12.7947 14.1113 12.874 14.1905L13.9272 15.2437C14.0087 15.3205 14.1165 15.3633 14.2285 15.3633C14.3405 15.3633 14.4483 15.3205 14.5298 15.2437L16.9009 12.8726C16.9802 12.7934 17.0247 12.686 17.0248 12.5741C17.0238 12.4606 16.9795 12.3518 16.9009 12.2699C16.8201 12.1918 16.712 12.1481 16.5996 12.1481C16.4872 12.1481 16.3792 12.1918 16.2983 12.2699L14.3834 14.1905C14.3422 14.2314 14.2865 14.2544 14.2285 14.2544C14.1705 14.2544 14.1148 14.2314 14.0736 14.1905L13.4766 13.5878C13.3948 13.5093 13.286 13.4649 13.1725 13.4639Z" fill="currentColor"/>
</svg>
