<svg width="24" height="24" viewBox="0 0 24 24" fill="none" xmlns="http://www.w3.org/2000/svg">
<path fill-rule="evenodd" clip-rule="evenodd" d="M7.44792 6.12504C5.17797 6.12504 3.33781 7.96392 3.33781 10.2323C3.33781 12.5007 5.17797 14.3396 7.44792 14.3396C9.71787 14.3396 11.558 12.5007 11.558 10.2323C11.558 7.96392 9.71787 6.12504 7.44792 6.12504ZM2.80289 10.2323C2.80289 7.66869 4.88254 5.59048 7.44792 5.59048C10.0133 5.59048 12.0929 7.66869 12.0929 10.2323C12.0929 12.7959 10.0133 14.8741 7.44792 14.8741C4.88254 14.8741 2.80289 12.7959 2.80289 10.2323Z" fill="currentColor"/>
<path fill-rule="evenodd" clip-rule="evenodd" d="M5.13831 16.0526C4.66538 16.0518 4.19694 16.1443 3.75979 16.3246C3.32264 16.5049 2.92536 16.7696 2.59068 17.1035C2.256 17.4375 1.99048 17.834 1.80933 18.2706C1.62817 18.7071 1.53492 19.1751 1.53492 19.6477V22.4654H13.3609V19.6477C13.3609 18.6942 12.9819 17.7798 12.3072 17.1056C11.6325 16.4313 10.7174 16.0526 9.76328 16.0526H5.13831ZM5.13894 15.518C4.59577 15.5172 4.05775 15.6234 3.55567 15.8305C3.05353 16.0376 2.59718 16.3417 2.21273 16.7253C1.82829 17.1088 1.5233 17.5644 1.3152 18.0658C1.10711 18.5673 0.999999 19.1048 1 19.6477V22.7327C1 22.8803 1.11975 23 1.26746 23H13.6284C13.7761 23 13.8958 22.8803 13.8958 22.7327V19.6477C13.8958 18.5525 13.4604 17.5021 12.6854 16.7276C11.9104 15.9531 10.8593 15.518 9.76328 15.518H5.13894Z" fill="currentColor"/>
<path d="M18.25 10.2261C17.3634 10.2261 16.4968 9.96341 15.7597 9.47121C15.0225 8.979 14.448 8.27941 14.1087 7.4609C13.7694 6.6424 13.6807 5.74173 13.8536 4.87281C14.0266 4.00389 14.4535 3.20573 15.0804 2.57927C15.7073 1.95281 16.506 1.52619 17.3755 1.35335C18.245 1.18051 19.1463 1.26922 19.9654 1.60825C20.7845 1.94729 21.4846 2.52143 21.9771 3.25807C22.4696 3.99471 22.7325 4.86076 22.7325 5.7467C22.7309 6.93422 22.2581 8.07263 21.4178 8.91233C20.5775 9.75203 19.4383 10.2245 18.25 10.2261Z" fill="#C9C2EA"/>
<path fill-rule="evenodd" clip-rule="evenodd" d="M20.5859 2.89145C20.6838 2.93937 20.761 3.02137 20.8029 3.12219C20.8458 3.22561 20.8484 3.34133 20.8102 3.44657L20.8095 3.44841L20.5798 4.06743L20.5777 4.07241C20.5689 4.09333 20.5667 4.11626 20.5711 4.13823L20.7827 4.48147L21.4643 4.56187C21.5211 4.56408 21.577 4.57691 21.6291 4.59973C21.6873 4.62521 21.7395 4.6626 21.7824 4.70951C21.8253 4.7564 21.8578 4.81176 21.8779 4.872C21.8963 4.92705 21.904 4.98506 21.9006 5.04288L21.9076 6.29502C21.9135 6.35199 21.9081 6.40968 21.8916 6.46473C21.8726 6.52812 21.8394 6.58634 21.7946 6.63496C21.7497 6.68359 21.6943 6.72136 21.6326 6.7454C21.5838 6.76441 21.5321 6.77442 21.48 6.77508L20.8108 6.88831L20.602 7.24974L20.6281 7.30832C20.6546 7.3673 20.6905 7.44767 20.7278 7.53297C20.7974 7.69222 20.8865 7.90158 20.9131 8.0008L20.915 8.00799L20.9166 8.01527C20.9388 8.1216 20.9211 8.23238 20.8667 8.32645C20.8184 8.41002 20.7443 8.47519 20.6559 8.51247L19.5328 9.18178L19.5276 9.18454C19.4273 9.23858 19.3101 9.25238 19.1999 9.22313C19.0959 9.19553 19.0056 9.13158 18.945 9.04324L18.5156 8.50748L18.5121 8.50767C18.4834 8.50911 18.4436 8.51099 18.3984 8.51274C18.31 8.51618 18.1948 8.51942 18.1049 8.51724L18.1015 8.51716L18.0963 8.5255L17.6699 9.09644C17.6396 9.14506 17.6 9.18731 17.5532 9.22068C17.5003 9.25841 17.4397 9.28384 17.3757 9.2951C17.3117 9.30636 17.246 9.30317 17.1834 9.28575C17.1324 9.27158 17.0846 9.24827 17.0421 9.21706L15.9276 8.61065C15.8457 8.56678 15.7791 8.50405 15.7368 8.42344C15.6951 8.34409 15.6863 8.2654 15.6896 8.20319C15.6928 8.1423 15.7078 8.09173 15.7202 8.05844C15.7262 8.04246 15.7322 8.02889 15.7373 8.01822L15.964 7.40736L15.969 7.39679C15.9702 7.39439 15.9712 7.39194 15.972 7.38944L15.7629 7.02055L15.7603 7.02051L15.0473 6.94848C14.9444 6.94011 14.8482 6.89443 14.7767 6.81995C14.7044 6.74471 14.6626 6.64545 14.6593 6.54129L14.6572 6.49026L14.6518 6.35099C14.6474 6.23508 14.6416 6.07871 14.6363 5.91711C14.626 5.60636 14.6157 5.24211 14.6235 5.14089L14.6243 5.13141L14.6257 5.12202C14.6421 5.01231 14.6971 4.912 14.7807 4.83905C14.8584 4.77127 14.9562 4.7312 15.0587 4.72472L15.723 4.61877L15.9321 4.25679L15.938 4.24856L15.6154 3.54522L15.6125 3.53783C15.5724 3.43458 15.572 3.32013 15.6113 3.21658C15.6499 3.11509 15.724 3.03111 15.8197 2.98015L15.9671 2.89656C16.0589 2.84442 16.183 2.77378 16.3122 2.6997C16.576 2.54853 16.8466 2.3915 16.922 2.34174C17.0739 2.24147 17.2312 2.22957 17.3632 2.28326C17.4212 2.30682 17.464 2.33898 17.4923 2.36478C17.5067 2.37791 17.5183 2.39022 17.5271 2.40041C17.5311 2.40512 17.5347 2.40946 17.5377 2.41332L18.0254 3.00082L18.416 2.98907C18.4188 2.989 18.4215 2.98825 18.4239 2.98687C18.4263 2.98549 18.4284 2.98354 18.4298 2.98119L18.4367 2.9702L18.4562 2.94476L18.4882 2.903C18.5152 2.86766 18.5525 2.81881 18.5934 2.76474C18.6761 2.65558 18.7713 2.52856 18.8287 2.44775C18.9502 2.2766 19.1193 2.22861 19.2564 2.23768C19.3182 2.24177 19.3696 2.25671 19.4046 2.26973C19.4226 2.27642 19.4377 2.2831 19.4492 2.28867C19.455 2.29148 19.46 2.29404 19.4642 2.29626L19.4668 2.29768L20.5859 2.89145ZM19.2449 2.78516C19.1822 2.87215 19.094 2.98964 19.0199 3.08737C18.9784 3.14224 18.9406 3.19175 18.9133 3.22753L18.8808 3.26995L18.8754 3.27695C18.8279 3.34863 18.7641 3.40826 18.6893 3.451C18.6103 3.4961 18.5214 3.52098 18.4305 3.52343L18.0145 3.53594C17.9236 3.53894 17.833 3.51646 17.7543 3.47101C17.6847 3.43089 17.6263 3.3743 17.5841 3.30643L17.1754 2.81411C17.0548 2.88908 16.8028 3.03478 16.5783 3.16342C16.4483 3.23793 16.3236 3.30892 16.2315 3.36127L16.1426 3.4117L16.4404 4.06102L16.4446 4.07304C16.4726 4.15343 16.4809 4.23935 16.4687 4.32359C16.4573 4.4028 16.4281 4.47834 16.3835 4.54463L16.1661 4.92097C16.1284 4.98273 16.0771 5.03503 16.016 5.07392C15.9571 5.11147 15.8906 5.13552 15.8214 5.1444L15.1554 5.25063C15.1553 5.37624 15.1621 5.63385 15.1709 5.89939C15.1762 6.05984 15.182 6.21527 15.1864 6.33065L15.19 6.42562L15.7933 6.48656C15.8771 6.48999 15.959 6.51367 16.0318 6.55567C16.1085 6.59993 16.1726 6.66306 16.218 6.73906L16.2212 6.74431L16.4971 7.23115L16.5043 7.28083C16.5208 7.39399 16.5046 7.5094 16.458 7.61362L16.2489 8.17683L17.273 8.73405L17.6553 8.22235C17.7045 8.14742 17.772 8.08609 17.8515 8.04414C17.934 8.00057 18.0265 7.97946 18.1198 7.98289C18.1915 7.98454 18.2913 7.98195 18.3776 7.97859C18.4203 7.97694 18.458 7.97516 18.4851 7.97379L18.5169 7.97213L18.5252 7.97167L18.5273 7.97155L18.5488 7.97031L18.5696 7.97237C18.6441 7.97971 18.7161 8.00285 18.7809 8.04023C18.8433 8.07622 18.8975 8.1246 18.9404 8.18237L19.3364 8.67642L20.369 8.06105C20.3393 7.98409 20.2907 7.86844 20.2376 7.74684C20.2014 7.66395 20.1663 7.58551 20.1403 7.52771L20.1091 7.45881L20.1018 7.44286C20.065 7.37409 20.0478 7.29633 20.0525 7.21821C20.0571 7.14145 20.0826 7.06755 20.1261 7.00439L20.3597 6.60006C20.3933 6.53233 20.4444 6.47439 20.5077 6.43263C20.5688 6.39232 20.6391 6.36839 20.7118 6.3629L21.3724 6.25112L21.3659 5.08852L20.719 5.01222C20.6463 5.00509 20.5759 4.98252 20.5126 4.94599C20.448 4.90871 20.3923 4.8578 20.3494 4.79681L20.3448 4.79021L20.0842 4.36773L20.0751 4.34334C20.018 4.19092 20.0205 4.0227 20.0817 3.87208L20.2811 3.33495L19.2449 2.78516Z" fill="currentColor"/>
<path fill-rule="evenodd" clip-rule="evenodd" d="M18.25 4.80436C17.7292 4.80436 17.307 5.22626 17.307 5.7467C17.307 6.26714 17.7292 6.68904 18.25 6.68904C18.7708 6.68904 19.193 6.26714 19.193 5.7467C19.193 5.22626 18.7708 4.80436 18.25 4.80436ZM16.7721 5.7467C16.7721 4.93103 17.4338 4.2698 18.25 4.2698C19.0662 4.2698 19.7279 4.93103 19.7279 5.7467C19.7279 6.56237 19.0662 7.2236 18.25 7.2236C17.4338 7.2236 16.7721 6.56237 16.7721 5.7467Z" fill="currentColor"/>
<path fill-rule="evenodd" clip-rule="evenodd" d="M19.863 1.85519C19.0928 1.53638 18.2453 1.45296 17.4277 1.61549C16.61 1.77802 15.859 2.17919 15.2695 2.76826C14.68 3.35734 14.2786 4.10788 14.1159 4.92495C13.9533 5.74203 14.0368 6.58895 14.3558 7.35862C14.6748 8.12829 15.2151 8.78614 15.9082 9.24898C16.6013 9.71174 17.4161 9.95878 18.2496 9.95885C19.3672 9.95732 20.4385 9.51301 21.2287 8.72334C22.0189 7.93367 22.4635 6.86309 22.4651 5.74634C22.465 4.91338 22.2178 4.09914 21.7547 3.40656C21.2916 2.71387 20.6332 2.17399 19.863 1.85519ZM17.3233 1.09121C18.2447 0.908056 19.1998 1.00206 20.0678 1.36132C20.9357 1.72059 21.6775 2.32899 22.1995 3.10958C22.7214 3.89017 23 4.80789 23 5.7467C22.9983 7.00498 22.4973 8.21159 21.607 9.10132C20.7166 9.99106 19.5095 10.4917 18.2504 10.4934C17.3109 10.4934 16.3922 10.215 15.6111 9.69344C14.8299 9.17187 14.2211 8.43053 13.8616 7.56319C13.5021 6.69584 13.408 5.74144 13.5913 4.82067C13.7746 3.8999 14.227 3.05412 14.8913 2.39028C15.5556 1.72644 16.4019 1.27436 17.3233 1.09121Z" fill="currentColor"/>
</svg>
