<svg width="24" height="24" viewBox="0 0 24 24" fill="none" xmlns="http://www.w3.org/2000/svg">
<path d="M17.4477 13.5294H6.65918V20.0393H17.4477V13.5294Z" fill="#C9C2EA"/>
<path d="M20.2625 4.78824C20.252 4.74674 20.2309 4.7087 20.2012 4.6779L16.6152 1.0613C16.582 1.03156 16.542 1.0105 16.4987 1H4.23906C4.17671 0.99998 4.11681 1.02432 4.07215 1.06784C4.02749 1.11136 4.0016 1.1706 4 1.23293V22.7609C4 22.8243 4.02519 22.8851 4.07002 22.93C4.11485 22.9748 4.17566 23 4.23906 23H20.0357C20.0668 23 20.0976 22.9938 20.1262 22.9817C20.1549 22.9696 20.1809 22.9519 20.2026 22.9296C20.2243 22.9073 20.2413 22.8809 20.2527 22.852C20.264 22.823 20.2694 22.792 20.2686 22.7609V4.81889C20.2696 4.8083 20.2674 4.79765 20.2625 4.78824ZM17.1975 4.58596H16.7072V1.79688L19.4962 4.58596H17.1975ZM4.47813 22.528V1.46587H16.2106V4.81889C16.2106 4.88125 16.235 4.94114 16.2785 4.9858C16.322 5.03047 16.3812 5.05636 16.4436 5.05795H19.8027V22.528H4.47813Z" fill="currentColor"/>
<path d="M6.55554 4.46951H9.92083C9.955 4.47503 9.98997 4.47307 10.0233 4.46375C10.0567 4.45444 10.0876 4.43799 10.1139 4.41554C10.1403 4.3931 10.1615 4.3652 10.176 4.33377C10.1905 4.30234 10.198 4.26813 10.198 4.23351C10.198 4.19889 10.1905 4.16468 10.176 4.13325C10.1615 4.10182 10.1403 4.07392 10.1139 4.05147C10.0876 4.02903 10.0567 4.01258 10.0233 4.00327C9.98997 3.99395 9.955 3.99198 9.92083 3.99751H6.55554C6.52136 3.99198 6.48639 3.99395 6.45305 4.00327C6.4197 4.01258 6.38878 4.02903 6.36242 4.05147C6.33605 4.07392 6.31488 4.10182 6.30036 4.13325C6.28584 4.16468 6.27832 4.19889 6.27832 4.23351C6.27832 4.26813 6.28584 4.30234 6.30036 4.33377C6.31488 4.3652 6.33605 4.3931 6.36242 4.41554C6.38878 4.43799 6.4197 4.45444 6.45305 4.46375C6.48639 4.47307 6.52136 4.47503 6.55554 4.46951Z" fill="currentColor"/>
<path d="M12.7896 6.37588C12.8238 6.38141 12.8587 6.37944 12.8921 6.37013C12.9254 6.36081 12.9564 6.34436 12.9827 6.32192C13.0091 6.29947 13.0303 6.27157 13.0448 6.24014C13.0593 6.20871 13.0668 6.1745 13.0668 6.13988C13.0668 6.10526 13.0593 6.07105 13.0448 6.03962C13.0303 6.00819 13.0091 5.98029 12.9827 5.95785C12.9564 5.9354 12.9254 5.91895 12.8921 5.90964C12.8587 5.90032 12.8238 5.89836 12.7896 5.90388H6.55554C6.52136 5.89836 6.48639 5.90032 6.45305 5.90964C6.4197 5.91895 6.38878 5.9354 6.36242 5.95785C6.33605 5.98029 6.31488 6.00819 6.30036 6.03962C6.28584 6.07105 6.27832 6.10526 6.27832 6.13988C6.27832 6.1745 6.28584 6.20871 6.30036 6.24014C6.31488 6.27157 6.33605 6.29947 6.36242 6.32192C6.38878 6.34436 6.4197 6.36081 6.45305 6.37013C6.48639 6.37944 6.52136 6.38141 6.55554 6.37588H12.7896Z" fill="currentColor"/>
<path d="M8.80574 9.73504V11.5372C8.80493 11.5683 8.81035 11.5993 8.82168 11.6282C8.83302 11.6572 8.85005 11.6836 8.87176 11.7059C8.89348 11.7282 8.91943 11.7459 8.9481 11.758C8.97677 11.7701 9.00757 11.7763 9.03868 11.7763H15.2421C15.2732 11.7763 15.304 11.7701 15.3327 11.758C15.3613 11.7459 15.3873 11.7282 15.409 11.7059C15.4307 11.6836 15.4477 11.6572 15.4591 11.6282C15.4704 11.5993 15.4758 11.5683 15.475 11.5372V9.73504C15.475 9.67326 15.4505 9.61401 15.4068 9.57033C15.3631 9.52665 15.3039 9.50211 15.2421 9.50211H9.03868C8.9769 9.50211 8.91765 9.52665 8.87397 9.57033C8.83029 9.61401 8.80574 9.67326 8.80574 9.73504ZM9.27774 9.9741H15.003V11.3043H9.27774V9.9741Z" fill="currentColor"/>
<path d="M17.5352 13.2903H6.74669C6.71557 13.2903 6.68478 13.2966 6.65611 13.3086C6.62744 13.3207 6.60148 13.3384 6.57977 13.3607C6.55806 13.383 6.54103 13.4094 6.52969 13.4384C6.51835 13.4674 6.51293 13.4983 6.51375 13.5294V20.0393C6.51375 20.1011 6.53829 20.1603 6.58198 20.204C6.62566 20.2477 6.68491 20.2722 6.74669 20.2722H17.5352C17.597 20.2722 17.6562 20.2477 17.6999 20.204C17.7436 20.1603 17.7681 20.1011 17.7681 20.0393V13.5294C17.769 13.4983 17.7635 13.4674 17.7522 13.4384C17.7409 13.4094 17.7238 13.383 17.7021 13.3607C17.6804 13.3384 17.6545 13.3207 17.6258 13.3086C17.5971 13.2966 17.5663 13.2903 17.5352 13.2903ZM6.98575 15.6013H9.81774V19.8002H6.98575V15.6013ZM17.2961 19.8002H10.302V15.6013H16.1315C16.1933 15.6013 16.2525 15.5768 16.2962 15.5331C16.3399 15.4894 16.3644 15.4301 16.3644 15.3684C16.3644 15.3066 16.3399 15.2473 16.2962 15.2037C16.2525 15.16 16.1933 15.1354 16.1315 15.1354H6.98575V13.7623H17.2961V19.8002Z" fill="currentColor"/>
</svg>
