<svg width="24" height="24" viewBox="0 0 24 24" fill="none" xmlns="http://www.w3.org/2000/svg">
<path d="M9.94029 20.2823C9.07381 21.0273 8.03526 21.5814 6.89225 21.8769C3.61683 21.0273 1.18945 18.0412 1.18945 14.4949V10.4437C4.99336 7.39602 8.57605 7.30367 12.595 10.4437V14.4949C12.595 16.8098 11.5626 18.8847 9.94029 20.2823Z" fill="#C9C2EA"/>
<path d="M6.00066 17.2469C5.92077 17.2469 5.84089 17.2161 5.78558 17.1546L3.87441 15.2398C3.7515 15.1167 3.7515 14.9258 3.87441 14.8027C3.99731 14.6795 4.18781 14.6795 4.31072 14.8027L6.00066 16.4958L9.60178 12.8879C9.72468 12.7647 9.91519 12.7647 10.0381 12.8879C10.161 13.011 10.161 13.2019 10.0381 13.325L6.21575 17.1484C6.15429 17.21 6.07441 17.2408 6.00066 17.2408V17.2469Z" fill="currentColor"/>
<path d="M16.6693 16.0402C16.9089 16.0402 17.0994 15.8493 17.0994 15.6092C17.0994 15.3691 16.9089 15.1782 16.6693 15.1782C16.4297 15.1782 16.2393 15.3691 16.2393 15.6092C16.2393 15.8493 16.4297 16.0402 16.6693 16.0402Z" fill="currentColor"/>
<path d="M22.6989 6.22618H16.9531V5.53046C16.9531 4.13286 15.8162 3 14.4274 3H11.4838C10.0888 3 8.9581 4.13901 8.9581 5.53046V6.22618H3.2C3.02793 6.22618 2.89274 6.36163 2.89274 6.53402V8.92903C2.30279 9.2615 1.71285 9.6617 1.11676 10.1358C1.04302 10.1912 1 10.2835 1 10.3759V14.384C1 17.9673 3.41508 21.0949 6.88101 21.9877C6.90559 21.9938 6.93017 22 6.95475 22C6.97933 22 7.00391 22 7.02849 21.9877C8.12235 21.7045 9.1486 21.175 10.0274 20.4546H21.6726C21.8447 20.4546 21.9799 20.3192 21.9799 20.1468V14.2362H22.6927C22.8648 14.2362 23 14.1008 23 13.9284V6.53402C23 6.36163 22.8648 6.22618 22.6927 6.22618H22.6989ZM9.56034 5.53046C9.56034 4.47148 10.4207 3.61568 11.4715 3.61568H14.4151C15.4721 3.61568 16.3263 4.47764 16.3263 5.53046V6.22618H9.55419V5.53046H9.56034ZM6.95475 21.3782C3.80838 20.5285 1.61453 17.6656 1.61453 14.3901V10.5298C5.25251 7.66688 8.55866 7.66688 12.295 10.5298V13.9038C12.295 13.9038 12.295 13.9222 12.295 13.9284C12.295 13.9345 12.295 13.9469 12.295 13.953V14.3901C12.295 16.5019 11.3732 18.5091 9.76927 19.8882C8.95196 20.5901 7.98101 21.1011 6.95475 21.3782ZM21.3654 19.8451H10.7034C12.1106 18.3859 12.9095 16.4404 12.9095 14.3901V14.2362H15.0235V16.3603C15.0235 17.0437 15.5765 17.5979 16.2587 17.5979H17.076C17.7581 17.5979 18.3112 17.0437 18.3112 16.3603V14.2362H21.3654V19.839V19.8451ZM15.638 14.2424H17.7028V16.3665C17.7028 16.7113 17.4201 16.9883 17.0821 16.9883H16.2648C15.9207 16.9883 15.6441 16.7051 15.6441 16.3665V14.2424H15.638ZM22.3855 13.6267H12.9034V10.382C12.9034 10.2897 12.8603 10.1973 12.7866 10.1419C9.57877 7.6361 6.57374 7.13124 3.50112 8.61504V6.84802H22.3855V13.6267Z" fill="currentColor"/>
</svg>
