<svg width="24" height="24" viewBox="0 0 24 24" fill="none" xmlns="http://www.w3.org/2000/svg">
<g clip-path="url(#clip0_1_2039)">
<mask id="mask0_1_2039" style="mask-type:luminance" maskUnits="userSpaceOnUse" x="0" y="0" width="24" height="24">
<path d="M0 0H24V24H0V0Z" fill="white"/>
</mask>
<g mask="url(#mask0_1_2039)">
<path d="M14.7797 12.0512C14.7797 14.239 13.1828 15.9941 11.2401 15.9941C9.27662 15.9941 7.70117 14.2146 7.70117 12.0506C7.70117 9.88668 9.29801 8.10712 11.2401 8.10712C13.1828 8.08268 14.7797 9.86284 14.7797 12.0512Z" fill="white"/>
<path d="M11.2404 15.9941C10.1947 15.9933 9.19217 15.5776 8.45279 14.8382C7.71342 14.0988 7.29768 13.0963 7.29688 12.0506C7.29752 11.0049 7.71319 10.0021 8.45258 9.26264C9.19197 8.52313 10.1946 8.10732 11.2404 8.10651C12.2862 8.10715 13.289 8.5229 14.0286 9.26243C14.7681 10.0019 15.1838 11.0048 15.1845 12.0506C15.1837 13.0964 14.7679 14.099 14.0284 14.8384C13.2888 15.5778 12.2861 15.9935 11.2404 15.9941ZM11.2404 8.55995C10.3147 8.56028 9.42702 8.92814 8.77246 9.5827C8.1179 10.2373 7.75003 11.1249 7.74971 12.0506C7.74793 12.5095 7.83701 12.9642 8.0118 13.3885C8.18659 13.8128 8.44364 14.1984 8.76814 14.5229C9.09263 14.8474 9.47814 15.1044 9.90245 15.2792C10.3268 15.454 10.7815 15.5431 11.2404 15.5413C11.6993 15.5431 12.154 15.454 12.5783 15.2792C13.0026 15.1044 13.3881 14.8474 13.7126 14.5229C14.0371 14.1984 14.2942 13.8128 14.469 13.3885C14.6437 12.9642 14.7328 12.5095 14.731 12.0506C14.7307 11.1249 14.3629 10.2373 13.7083 9.5827C13.0537 8.92814 12.1661 8.56028 11.2404 8.55995Z" fill="currentColor"/>
<path fill-rule="evenodd" clip-rule="evenodd" d="M22.4763 6.52372H1.52372V18.2131H22.4763V6.52372ZM1 6V18.7368H23V6H1Z" fill="currentColor"/>
<path fill-rule="evenodd" clip-rule="evenodd" d="M5.57638 12.842C5.6553 12.8446 5.73392 12.8312 5.80758 12.8028C5.88124 12.7743 5.94843 12.7313 6.00515 12.6764C6.06188 12.6215 6.10698 12.5557 6.13778 12.483C6.16859 12.4103 6.18446 12.3322 6.18446 12.2532C6.18446 12.1742 6.16859 12.0961 6.13778 12.0234C6.10698 11.9507 6.06188 11.8849 6.00515 11.83C5.94843 11.7751 5.88124 11.7321 5.80758 11.7037C5.73392 11.6752 5.6553 11.6619 5.57638 11.6644C5.4235 11.6693 5.27853 11.7335 5.17213 11.8434C5.06573 11.9533 5.00624 12.1002 5.00624 12.2532C5.00624 12.4062 5.06573 12.5531 5.17213 12.663C5.27853 12.7729 5.4235 12.8371 5.57638 12.842ZM5.57638 13.3657C5.87136 13.3657 6.15425 13.2486 6.36284 13.04C6.57142 12.8314 6.6886 12.5485 6.6886 12.2535C6.6886 11.9585 6.57142 11.6756 6.36284 11.467C6.15425 11.2585 5.87136 11.1413 5.57638 11.1413C5.2814 11.1413 4.9985 11.2585 4.78992 11.467C4.58133 11.6756 4.46415 11.9585 4.46415 12.2535C4.46415 12.5485 4.58133 12.8314 4.78992 13.04C4.9985 13.2486 5.2814 13.3657 5.57638 13.3657ZM19.198 12.6391C19.3542 12.6391 19.504 12.5771 19.6144 12.4667C19.7248 12.3562 19.7868 12.2065 19.7868 12.0503C19.7868 11.8942 19.7248 11.7444 19.6144 11.634C19.504 11.5235 19.3542 11.4615 19.198 11.4615C19.0419 11.4615 18.8921 11.5235 18.7817 11.634C18.6713 11.7444 18.6092 11.8942 18.6092 12.0503C18.6092 12.2065 18.6713 12.3562 18.7817 12.4667C18.8921 12.5771 19.0419 12.6391 19.198 12.6391ZM19.198 13.1628C19.493 13.1628 19.7759 13.0457 19.9845 12.8371C20.1931 12.6285 20.3103 12.3456 20.3103 12.0506C20.3103 11.7556 20.1931 11.4727 19.9845 11.2642C19.7759 11.0556 19.493 10.9384 19.198 10.9384C18.9031 10.9384 18.6202 11.0556 18.4116 11.2642C18.203 11.4727 18.0858 11.7556 18.0858 12.0506C18.0858 12.3456 18.203 12.6285 18.4116 12.8371C18.6202 13.0457 18.9031 13.1628 19.198 13.1628ZM2.66138 9.99851C2.48756 10.0191 2.31268 10.0293 2.13765 10.0291V7.19656H4.96954C5.06304 8.07045 4.70554 9.75345 2.66138 9.9979V9.99851ZM4.44399 7.7209H2.66138V9.47112C3.42771 9.36479 3.85488 9.02623 4.10115 8.66934C4.29019 8.38549 4.40823 8.06006 4.44399 7.7209ZM4.87421 16.9652C4.89377 17.129 4.90477 17.3031 4.90477 17.4889H2.07227V14.6576C2.94615 14.5635 4.62977 14.9204 4.87421 16.9652ZM2.5966 15.1826V16.9652H4.34682C4.24049 16.1988 3.90193 15.7717 3.54504 15.5254C3.26118 15.3364 2.93575 15.2183 2.5966 15.1826ZM19.1559 7.59623C19.1355 7.42261 19.1255 7.24793 19.1259 7.07312H21.9572V9.9044C21.0833 9.9979 19.4003 9.64101 19.1559 7.59684V7.59623ZM21.4341 9.37884V7.59684H19.6839C19.7896 8.36256 20.1282 8.79034 20.485 9.03601C20.769 9.22538 21.0947 9.34302 21.4341 9.37884ZM21.2777 14.8208C21.4414 14.8012 21.6156 14.7902 21.8014 14.7902V17.6221H18.9701C18.876 16.7482 19.2335 15.0652 21.2777 14.8208ZM19.4957 17.0984H21.2777V15.3482C20.5119 15.4545 20.0842 15.7931 19.8385 16.15C19.6492 16.4337 19.5316 16.7592 19.4957 17.0984Z" fill="currentColor"/>
<path d="M16.66 12.369C16.66 13.6047 16.1692 14.7897 15.2954 15.6635C14.4216 16.5372 13.2366 17.0281 12.0009 17.0281C10.7652 17.0281 9.58017 16.5372 8.70642 15.6635C7.83267 14.7897 7.3418 13.6047 7.3418 12.369C7.3418 11.1333 7.83267 9.94824 8.70642 9.07449C9.58017 8.20074 10.7652 7.70987 12.0009 7.70987C13.2366 7.70987 14.4216 8.20074 15.2954 9.07449C16.1692 9.94824 16.66 11.1333 16.66 12.369Z" fill="#C9C2EA"/>
<path fill-rule="evenodd" clip-rule="evenodd" d="M12.0009 16.505C13.0977 16.505 14.1495 16.0693 14.9251 15.2938C15.7006 14.5182 16.1363 13.4664 16.1363 12.3696C16.1363 11.2728 15.7006 10.221 14.9251 9.44543C14.1495 8.66989 13.0977 8.2342 12.0009 8.2342C10.9041 8.2342 9.85228 8.66989 9.07675 9.44543C8.30121 10.221 7.86552 11.2728 7.86552 12.3696C7.86552 13.4664 8.30121 14.5182 9.07675 15.2938C9.85228 16.0693 10.9041 16.505 12.0009 16.505ZM12.0009 17.0287C13.2366 17.0287 14.4216 16.5378 15.2954 15.6641C16.1692 14.7903 16.66 13.6053 16.66 12.3696C16.66 11.1339 16.1692 9.94886 15.2954 9.0751C14.4216 8.20135 13.2366 7.71048 12.0009 7.71048C10.7652 7.71048 9.58017 8.20135 8.70642 9.0751C7.83267 9.94886 7.3418 11.1339 7.3418 12.3696C7.3418 13.6053 7.83267 14.7903 8.70642 15.6641C9.58017 16.5378 10.7652 17.0287 12.0009 17.0287Z" fill="currentColor"/>
<path fill-rule="evenodd" clip-rule="evenodd" d="M10.5088 11.2305C10.5088 11.0863 10.6255 10.9689 10.7703 10.9689H14.7273C14.7967 10.9689 14.8633 10.9965 14.9125 11.0456C14.9616 11.0947 14.9892 11.1613 14.9892 11.2308C14.9892 11.3002 14.9616 11.3668 14.9125 11.416C14.8633 11.4651 14.7967 11.4927 14.7273 11.4927H10.7703C10.7359 11.4927 10.7019 11.4859 10.6701 11.4727C10.6383 11.4595 10.6095 11.4402 10.5852 11.4158C10.5609 11.3915 10.5416 11.3626 10.5285 11.3308C10.5154 11.299 10.5087 11.2649 10.5088 11.2305Z" fill="currentColor"/>
<path fill-rule="evenodd" clip-rule="evenodd" d="M13.1777 9.6129C13.2267 9.5639 13.2932 9.53638 13.3625 9.53638C13.4319 9.53638 13.4983 9.5639 13.5474 9.6129L15.1656 11.2311L13.4789 12.9178C13.4298 12.9668 13.3631 12.9943 13.2936 12.9942C13.2242 12.9941 13.1576 12.9664 13.1086 12.9172C13.0596 12.868 13.0321 12.8013 13.0322 12.7319C13.0323 12.6624 13.06 12.5959 13.1092 12.5468L14.4249 11.2311L13.1777 9.98323C13.1287 9.93419 13.1011 9.8677 13.1011 9.79837C13.1011 9.72904 13.1287 9.66255 13.1777 9.61351V9.6129ZM13.4918 13.7587C13.4918 13.828 13.4642 13.8946 13.4152 13.9436C13.3661 13.9927 13.2996 14.0202 13.2302 14.0202H9.27327C9.20391 14.0202 9.13738 13.9927 9.08833 13.9436C9.03928 13.8946 9.01172 13.828 9.01172 13.7587C9.01172 13.6893 9.03928 13.6228 9.08833 13.5737C9.13738 13.5247 9.20391 13.4971 9.27327 13.4971H13.2302C13.3751 13.4971 13.4918 13.6145 13.4918 13.7587Z" fill="currentColor"/>
<path fill-rule="evenodd" clip-rule="evenodd" d="M10.8219 15.3769C10.7729 15.4259 10.7064 15.4534 10.6371 15.4534C10.5677 15.4534 10.5013 15.4259 10.4522 15.3769L8.83398 13.7593L10.5207 12.0732C10.545 12.0489 10.5738 12.0297 10.6056 12.0166C10.6373 12.0034 10.6714 11.9967 10.7057 11.9967C10.7401 11.9968 10.7741 12.0036 10.8058 12.0167C10.8376 12.0299 10.8664 12.0492 10.8907 12.0735C10.915 12.0978 10.9342 12.1267 10.9473 12.1585C10.9604 12.1902 10.9672 12.2242 10.9672 12.2586C10.9671 12.293 10.9603 12.327 10.9472 12.3587C10.934 12.3904 10.9147 12.4193 10.8904 12.4436L9.57465 13.7593L10.8219 15.0072C10.8709 15.0562 10.8985 15.1227 10.8985 15.192C10.8985 15.2613 10.8709 15.3278 10.8219 15.3769Z" fill="currentColor"/>
</g>
</g>
<defs>
<clipPath id="clip0_1_2039">
<rect width="24" height="24" fill="white"/>
</clipPath>
</defs>
</svg>
