<svg width="24" height="24" viewBox="0 0 24 24" fill="none" xmlns="http://www.w3.org/2000/svg">
<path d="M15.2759 12.3317C17.5101 12.3317 19.3213 10.5205 19.3213 8.28627C19.3213 6.05206 17.5101 4.24088 15.2759 4.24088C13.0417 4.24088 11.2305 6.05206 11.2305 8.28627C11.2305 10.5205 13.0417 12.3317 15.2759 12.3317Z" fill="#C9C2EA"/>
<path d="M15.2765 12.5725C16.1242 12.5725 16.9529 12.3211 17.6578 11.8502C18.3627 11.3792 18.9121 10.7098 19.2365 9.92655C19.5609 9.14333 19.6458 8.28151 19.4804 7.45006C19.315 6.6186 18.9068 5.85486 18.3073 5.25542C17.7079 4.65597 16.9442 4.24775 16.1127 4.08236C15.2813 3.91697 14.4194 4.00186 13.6362 4.32627C12.853 4.65069 12.1836 5.20007 11.7126 5.90494C11.2416 6.60982 10.9902 7.43852 10.9902 8.28626C10.9902 9.42305 11.4418 10.5133 12.2457 11.3171C13.0495 12.1209 14.1397 12.5725 15.2765 12.5725ZM15.2765 4.47557C16.0302 4.47557 16.7669 4.69906 17.3936 5.11779C18.0203 5.53651 18.5087 6.13166 18.7971 6.82797C19.0855 7.52429 19.161 8.29049 19.014 9.02969C18.8669 9.7689 18.504 10.4479 17.9711 10.9808C17.4381 11.5138 16.7591 11.8767 16.0199 12.0237C15.2807 12.1708 14.5145 12.0953 13.8182 11.8069C13.1219 11.5185 12.5267 11.03 12.108 10.4034C11.6893 9.77671 11.4658 9.03995 11.4658 8.28626C11.4674 7.27611 11.8694 6.30779 12.5837 5.5935C13.298 4.87921 14.2663 4.4772 15.2765 4.47557Z" fill="currentColor"/>
<path d="M22.8414 13.3569L22.5511 12.8875C22.4178 12.6705 22.2117 12.508 21.9696 12.4288C21.7276 12.3496 21.4652 12.359 21.2294 12.4552L16.517 14.3945C16.458 14.4191 16.4112 14.4661 16.3869 14.5252C16.3626 14.5842 16.3627 14.6505 16.3873 14.7095C16.4119 14.7685 16.4589 14.8153 16.5179 14.8396C16.577 14.8639 16.6433 14.8638 16.7023 14.8392L21.4085 12.8999C21.5395 12.8498 21.6836 12.8457 21.8172 12.8884C21.9507 12.931 22.0658 13.0178 22.1435 13.1346L22.44 13.6101C22.5175 13.7438 22.5421 13.9017 22.509 14.0526C22.4758 14.2035 22.3873 14.3366 22.2608 14.4254L15.9117 18.6499C15.3379 19.0274 14.6583 19.2114 13.9724 19.1749L5.01697 18.7178L4.47347 15.2036C4.51217 15.2058 4.55077 15.1978 4.58544 15.1805C4.6201 15.1631 4.64964 15.1371 4.67111 15.1048C5.10906 14.4763 5.68292 13.9545 6.3501 13.5782C7.01728 13.2018 7.76065 12.9806 8.52504 12.9308C9.00306 12.8768 9.48708 12.9352 9.93852 13.1014C10.39 13.2676 10.7963 13.537 11.1252 13.8881C11.1447 13.9141 11.1698 13.9354 11.1987 13.9504C11.2276 13.9653 11.2595 13.9736 11.292 13.9745L14.238 14.1351C14.3469 14.1412 14.449 14.19 14.5221 14.271C14.5587 14.3108 14.5868 14.3576 14.6048 14.4085C14.6229 14.4595 14.6305 14.5135 14.6271 14.5675L14.5715 15.5618C14.5654 15.6707 14.5166 15.7728 14.4356 15.8459C14.3957 15.882 14.3488 15.9094 14.2978 15.9264C14.2467 15.9434 14.1927 15.9497 14.1392 15.9447L10.5385 15.7533C10.4766 15.7515 10.4165 15.7736 10.3705 15.815C10.3245 15.8564 10.2962 15.9139 10.2914 15.9756C10.2895 16.0381 10.3115 16.099 10.3527 16.146C10.394 16.193 10.4515 16.2226 10.5138 16.2288L14.1145 16.4203H14.1639C14.3812 16.4206 14.5907 16.339 14.7506 16.1918C14.8389 16.114 14.9107 16.0192 14.9616 15.9131C15.0126 15.807 15.0416 15.6917 15.0471 15.5742L15.0903 14.5922C15.0986 14.3642 15.0164 14.1422 14.8618 13.9745C14.785 13.8851 14.6904 13.8126 14.5841 13.7615C14.4778 13.7105 14.362 13.6821 14.2442 13.6781L11.4031 13.5237C11.0263 13.1388 10.567 12.8444 10.06 12.6625C9.55291 12.4806 9.01122 12.4161 8.47563 12.4737C7.67204 12.5291 6.8898 12.7568 6.18214 13.1416C5.47447 13.5263 4.858 14.059 4.37465 14.7033L4.28201 13.9622C4.27783 13.9315 4.26746 13.902 4.25154 13.8755C4.23561 13.8489 4.21446 13.8259 4.18937 13.8078C4.13697 13.7719 4.07324 13.7566 4.01026 13.7646L1.2001 14.1969C1.13825 14.2075 1.08298 14.2419 1.04607 14.2926C1.00916 14.3434 0.993512 14.4065 1.00246 14.4686L1.95359 20.6448C1.96451 20.7059 1.99748 20.7608 2.04624 20.7992C2.08785 20.8282 2.13757 20.8434 2.18829 20.8424H2.22535L5.0355 20.4101C5.06555 20.4029 5.09386 20.3898 5.11883 20.3716C5.14379 20.3533 5.16491 20.3304 5.18098 20.304C5.19705 20.2776 5.20775 20.2483 5.21246 20.2177C5.21717 20.1872 5.2158 20.156 5.20844 20.126L5.09109 19.2119L13.9477 19.6628H14.1454C14.8663 19.6584 15.5703 19.4437 16.1711 19.0452L22.5017 14.8207C22.7396 14.6705 22.9087 14.4326 22.9723 14.1586C23.0359 13.8846 22.9889 13.5965 22.8414 13.3569ZM2.38593 20.3236L1.50273 14.6354L3.84968 14.271L4.72669 19.9593L2.38593 20.3236Z" fill="currentColor"/>
<path d="M14.5726 10.8988H15.0914V11.3249C15.0906 11.3563 15.0961 11.3875 15.1075 11.4167C15.1189 11.4458 15.1361 11.4725 15.1579 11.4949C15.1798 11.5174 15.206 11.5352 15.2348 11.5474C15.2637 11.5596 15.2948 11.5658 15.3261 11.5658C15.39 11.5658 15.4513 11.5404 15.4964 11.4953C15.5416 11.4501 15.567 11.3888 15.567 11.3249V10.8988H16.092C16.1793 10.9004 16.266 10.8847 16.3472 10.8526C16.4284 10.8206 16.5025 10.7727 16.5651 10.7118C16.6277 10.6509 16.6776 10.5783 16.7119 10.498C16.7463 10.4177 16.7644 10.3314 16.7652 10.2441V8.80506C16.7635 8.71828 16.7449 8.63265 16.7102 8.55309C16.6755 8.47353 16.6254 8.40158 16.5629 8.34136C16.5004 8.28113 16.4266 8.23382 16.3458 8.20211C16.265 8.17041 16.1787 8.15493 16.092 8.15657H14.5726C14.5229 8.15827 14.4744 8.14053 14.4375 8.10709C14.4006 8.07365 14.3782 8.02715 14.375 7.97746V6.67429C14.3782 6.62459 14.4006 6.57809 14.4375 6.54465C14.4744 6.51122 14.5229 6.49347 14.5726 6.49518H16.1043C16.1309 6.49079 16.1581 6.49208 16.1842 6.49894C16.2102 6.5058 16.2346 6.51808 16.2555 6.53499C16.2765 6.5519 16.2937 6.57304 16.306 6.59705C16.3182 6.62105 16.3253 6.64737 16.3266 6.67429V7.19308C16.3358 7.24957 16.3647 7.30096 16.4083 7.33805C16.4519 7.37514 16.5072 7.39551 16.5644 7.39551C16.6217 7.39551 16.677 7.37514 16.7206 7.33805C16.7641 7.30096 16.7931 7.24957 16.8022 7.19308V6.67429C16.799 6.49845 16.7264 6.33102 16.6003 6.20841C16.4743 6.08581 16.3049 6.01795 16.129 6.01961H15.604V5.62434C15.604 5.56045 15.5787 5.49919 15.5335 5.45402C15.4883 5.40884 15.427 5.38347 15.3632 5.38347C15.3289 5.37795 15.2938 5.38013 15.2604 5.38983C15.227 5.39953 15.1963 5.41651 15.1703 5.43955C15.1443 5.4626 15.1237 5.49113 15.1101 5.52308C15.0964 5.55504 15.0901 5.58962 15.0914 5.62434V6.05049H14.5603C14.3917 6.0517 14.2298 6.11671 14.1072 6.23244C13.9846 6.34817 13.9103 6.50604 13.8994 6.67429V7.97746C13.9027 8.15329 13.9752 8.32072 14.1013 8.44333C14.2274 8.56593 14.3968 8.63379 14.5726 8.63213H16.1043C16.1287 8.63045 16.1531 8.6336 16.1762 8.64139C16.1993 8.64919 16.2207 8.66147 16.2391 8.67754C16.2574 8.69361 16.2724 8.71314 16.2832 8.73503C16.294 8.75691 16.3004 8.78071 16.3019 8.80506V10.2441C16.2988 10.2938 16.2763 10.3403 16.2394 10.3737C16.2025 10.4072 16.1541 10.4249 16.1043 10.4232H14.5726C14.5229 10.4249 14.4744 10.4072 14.4375 10.3737C14.4006 10.3403 14.3782 10.2938 14.375 10.2441V9.72531C14.3658 9.66883 14.3369 9.61744 14.2933 9.58035C14.2498 9.54326 14.1944 9.52289 14.1372 9.52289C14.08 9.52289 14.0246 9.54326 13.9811 9.58035C13.9375 9.61744 13.9085 9.66883 13.8994 9.72531V10.2441C13.9002 10.3314 13.9183 10.4177 13.9527 10.498C13.987 10.5783 14.0369 10.6509 14.0995 10.7118C14.1621 10.7727 14.2361 10.8206 14.3174 10.8526C14.3986 10.8847 14.4853 10.9004 14.5726 10.8988Z" fill="currentColor"/>
</svg>
