<svg width="24" height="25" viewBox="0 0 24 25" fill="none" xmlns="http://www.w3.org/2000/svg">
<path d="M20.9678 16.0136C21.7574 16.0136 22.2332 15.7056 22.2332 15.038V15.0124C22.2332 14.4077 21.8268 14.0341 20.9112 14.0341H18.8536V16.0136H20.9678ZM20.4919 12.3852C21.2815 12.3852 21.7779 12.0999 21.7779 11.4352V11.4096C21.7779 10.8191 21.3612 10.4853 20.6076 10.4853H18.8459V12.3879H20.4919V12.3852ZM16.4668 8.74805H20.8726C21.801 8.74805 22.5315 9.03332 22.9944 9.54394C23.1766 9.74294 23.32 9.98125 23.4155 10.2443C23.5111 10.5073 23.5569 10.7893 23.55 11.0728V11.0987C23.5602 11.5022 23.4648 11.9003 23.2754 12.245C23.086 12.5897 22.8106 12.8662 22.4826 13.0412C23.4214 13.4406 24.0001 14.0453 24.0001 15.252V15.2776C24.0001 16.9236 22.7939 17.748 20.9626 17.748H17.1046V10.0289C17.1046 8.97347 16.4668 8.95614 16.4668 8.95614V8.74805Z" fill="#2BB461"/>
<path d="M15.9919 9.7393C15.9919 9.7393 16.0407 8.76251 15.1748 8.76251H14.2317C14.2317 8.76251 14.2317 13.1484 14.2317 14.9712L10.8218 9.88727C10.6158 9.54186 10.3367 9.25755 10.0089 9.059C9.68109 8.86044 9.31448 8.75366 8.94093 8.74805H7.59961V8.97027C7.59961 8.97027 8.38843 9.25516 8.38843 10.5453V17.748H9.57561C10.1872 17.748 10.1538 16.811 10.1538 16.811V12.0233L13.281 16.5148C13.281 16.5148 13.9825 17.7422 15.0463 17.7422H15.9996V17.5801V9.73346L15.9919 9.7393Z" fill="#2BB461"/>
<path d="M4.53665 16.0136C5.33296 16.0136 5.81286 15.7056 5.81286 15.038V15.0124C5.81286 14.4077 5.403 14.0341 4.47959 14.0341H2.40451V16.0136H4.53665ZM4.05682 12.3852C4.85313 12.3852 5.35375 12.0999 5.35375 11.4352V11.4096C5.35375 10.8191 4.93353 10.4853 4.17353 10.4853H2.39672V12.3879H4.05682V12.3852ZM0 8.74805H4.4433C5.37968 8.74805 6.11634 9.03332 6.58323 9.54394C6.76695 9.74294 6.91145 9.98125 7.00783 10.2443C7.10422 10.5073 7.1504 10.7893 7.14348 11.0728V11.0987C7.15306 11.5021 7.05661 11.8999 6.86567 12.2445C6.67473 12.5891 6.39744 12.8657 6.06706 13.0412C7.01381 13.4406 7.6 14.0453 7.6 15.252V15.2776C7.6 16.9236 6.38347 17.748 4.53665 17.748H0.645867V10.0289C0.645867 8.97347 0.00259639 8.95614 0.00259639 8.95614L0 8.74805Z" fill="#2BB461"/>
</svg>
