<svg width="24" height="24" viewBox="0 0 24 24" fill="none" xmlns="http://www.w3.org/2000/svg">
<path d="M10.8584 2.39999C13.4549 2.39999 15.4023 2.71972 16.7006 3.46575C18.107 4.21178 18.7562 5.49069 18.7562 7.30247C18.7562 8.36823 18.4316 9.32741 17.9988 10.0734C17.7535 10.4379 17.4349 10.7488 17.0628 10.9871C16.6906 11.2254 16.2727 11.386 15.8351 11.4589C16.4535 11.6012 17.0402 11.8541 17.5661 12.205C17.9988 12.5247 18.4316 13.0576 18.7562 13.5904C19.0947 14.3624 19.243 15.2024 19.1889 16.0417C19.2272 16.8116 19.0806 17.5796 18.761 18.2833C18.4414 18.987 17.9579 19.6065 17.3497 20.0916C15.8096 21.1751 13.9372 21.7021 12.0485 21.5836H4.7998V2.39999H10.8584ZM11.2911 9.96687C12.4812 9.96687 13.3467 9.86029 13.7795 9.43399C14.3204 9.11426 14.5368 8.47481 14.5368 7.83535C14.5368 7.08932 14.2122 6.55645 13.6713 6.23672C13.1303 5.91699 12.2648 5.70384 11.0748 5.70384H8.91098V9.96687H11.2911ZM8.91098 13.1641V18.3863H11.6157C12.8058 18.3863 13.7795 18.0666 14.2122 17.6403C14.7532 17.1074 14.9696 16.5746 14.9696 15.722C14.9825 15.3998 14.921 15.079 14.7898 14.7836C14.6586 14.4883 14.4612 14.226 14.2122 14.0167C13.6713 13.5904 12.8058 13.3773 11.5075 13.3773H8.80279L8.91098 13.1641Z" fill="#686868"/>
</svg>
