<svg width="24" height="25" viewBox="0 0 24 25" fill="none" xmlns="http://www.w3.org/2000/svg">
<path d="M1 12.4237V9.44812H2.44725C2.81392 9.45116 3.08443 9.52104 3.25879 9.65776C3.43307 9.79457 3.52028 9.99217 3.52028 10.2506C3.52028 10.419 3.4707 10.564 3.3715 10.6857C3.27232 10.8074 3.1205 10.8848 2.91614 10.9179V10.9224C3.14453 10.9525 3.31515 11.0314 3.42786 11.1591C3.54058 11.2869 3.59693 11.4409 3.59693 11.6212C3.59693 11.8767 3.50676 12.0743 3.32642 12.2141C3.14607 12.3538 2.87556 12.4237 2.51488 12.4237H1ZM1.74842 10.6654H2.31198C2.58849 10.6654 2.72678 10.5572 2.72678 10.3408C2.72678 10.1244 2.58849 10.0162 2.31198 10.0162H1.74842V10.6654ZM1.74842 11.8782H2.38413C2.52537 11.8782 2.63055 11.8497 2.69973 11.7925C2.76884 11.7355 2.80342 11.6528 2.80342 11.5446C2.80342 11.4394 2.76884 11.359 2.69973 11.3034C2.63055 11.2478 2.52537 11.22 2.38413 11.22H1.74842V11.8782Z" fill="#7866CB"/>
<path d="M5.03499 10.1244C5.2724 10.1244 5.48056 10.1702 5.65943 10.2619C5.83822 10.3536 5.97799 10.4873 6.07873 10.6632C6.17939 10.839 6.22976 11.0502 6.22976 11.2966C6.22976 11.5431 6.17939 11.7542 6.07873 11.93C5.97799 12.1059 5.83822 12.2396 5.65943 12.3313C5.48056 12.423 5.2724 12.4688 5.03499 12.4688C4.8035 12.4688 4.59766 12.423 4.41732 12.3313C4.23697 12.2396 4.09643 12.1059 3.99576 11.93C3.89503 11.7542 3.84473 11.5431 3.84473 11.2966C3.84473 11.0502 3.89503 10.839 3.99576 10.6632C4.09643 10.4873 4.23697 10.3536 4.41732 10.2619C4.59766 10.1702 4.8035 10.1244 5.03499 10.1244ZM5.03499 10.6699C4.94777 10.6699 4.87268 10.691 4.80956 10.733C4.74645 10.7752 4.69833 10.8428 4.66528 10.9359C4.63217 11.0291 4.6157 11.1494 4.6157 11.2966C4.6157 11.4439 4.63217 11.5634 4.66528 11.655C4.69833 11.7467 4.74645 11.8144 4.80956 11.8579C4.87268 11.9015 4.94777 11.9233 5.03499 11.9233C5.12516 11.9233 5.20181 11.9015 5.26492 11.8579C5.32804 11.8144 5.3761 11.7467 5.4092 11.655C5.44223 11.5634 5.4588 11.4439 5.4588 11.2966C5.4588 11.1494 5.44223 11.0291 5.4092 10.9359C5.3761 10.8428 5.32804 10.7752 5.26492 10.733C5.20181 10.691 5.12516 10.6699 5.03499 10.6699Z" fill="#7866CB"/>
<path d="M7.30161 9.21375V11.6573C7.30161 11.7565 7.31809 11.8272 7.3512 11.8692C7.38424 11.9114 7.43982 11.9324 7.51801 11.9324C7.56311 11.9324 7.60065 11.9294 7.63073 11.9234C7.66074 11.9174 7.69682 11.9083 7.73894 11.8963L7.68934 12.3562C7.63524 12.3893 7.56459 12.4163 7.47744 12.4373C7.39022 12.4583 7.30457 12.4689 7.22045 12.4689C6.97995 12.4689 6.80567 12.4133 6.69746 12.3021C6.58926 12.1909 6.53516 12.009 6.53516 11.7565V9.21375H7.30161Z" fill="#7866CB"/>
<path d="M8.29597 9.90797C8.13964 9.90797 8.02615 9.87867 7.95557 9.82006C7.8849 9.76144 7.84961 9.66903 7.84961 9.54279C7.84961 9.41359 7.8849 9.31961 7.95557 9.26101C8.02615 9.2024 8.13964 9.1731 8.29597 9.1731C8.44925 9.1731 8.56196 9.2024 8.6341 9.26101C8.70624 9.31961 8.74231 9.41359 8.74231 9.54279C8.74231 9.66903 8.70624 9.76144 8.6341 9.82006C8.56196 9.87867 8.44925 9.90797 8.29597 9.90797ZM8.67919 10.1695V12.4237H7.91274V10.1695H8.67919Z" fill="#7866CB"/>
<path d="M10.6452 10.1694H11.4387L10.6272 12.4237H9.71194L8.90039 10.1694H9.70743L10.1718 11.8872L10.6452 10.1694Z" fill="#7866CB"/>
<path d="M12.0928 9.90797C11.9365 9.90797 11.823 9.87867 11.7524 9.82006C11.6818 9.76144 11.6465 9.66903 11.6465 9.54279C11.6465 9.41359 11.6818 9.31961 11.7524 9.26101C11.823 9.2024 11.9365 9.1731 12.0928 9.1731C12.2461 9.1731 12.3588 9.2024 12.431 9.26101C12.5031 9.31961 12.5392 9.41359 12.5392 9.54279C12.5392 9.66903 12.5031 9.76144 12.431 9.82006C12.3588 9.87867 12.2461 9.90797 12.0928 9.90797ZM12.4761 10.1695V12.4237H11.7096V10.1695H12.4761Z" fill="#7866CB"/>
<path d="M14.2783 10.9945C14.2783 10.8894 14.249 10.8059 14.1904 10.7443C14.1318 10.6827 14.0529 10.6519 13.9537 10.6519C13.8545 10.6519 13.7695 10.6767 13.6989 10.7263C13.6283 10.7759 13.5795 10.8638 13.5524 10.99L12.9032 10.8367C12.9452 10.6203 13.0565 10.4475 13.2368 10.3183C13.4172 10.1891 13.6711 10.1244 13.9988 10.1244C14.2181 10.1244 14.4052 10.1567 14.5601 10.2213C14.7149 10.286 14.8336 10.3822 14.9163 10.5099C14.9989 10.6376 15.0402 10.7947 15.0402 10.981V11.8061C15.0402 11.9233 15.0928 11.9819 15.198 11.9819C15.2521 11.9819 15.2957 11.9759 15.3288 11.9638L15.2837 12.4012C15.1935 12.4432 15.0838 12.4643 14.9546 12.4643C14.8374 12.4643 14.7337 12.4455 14.6435 12.4079C14.5533 12.3704 14.4827 12.3133 14.4316 12.2366C14.3804 12.16 14.3549 12.063 14.3549 11.9458V11.9188L14.4406 11.8872C14.4406 12.0165 14.4023 12.1247 14.3256 12.2118C14.249 12.299 14.1498 12.3636 14.0281 12.4057C13.9063 12.4477 13.7793 12.4688 13.6471 12.4688C13.4938 12.4688 13.36 12.4447 13.2458 12.3967C13.1316 12.3486 13.0437 12.2787 12.9821 12.187C12.9204 12.0954 12.8896 11.9819 12.8896 11.8466C12.8896 11.6843 12.9385 11.5498 13.0362 11.4431C13.1338 11.3365 13.2879 11.2621 13.4983 11.22L14.3504 11.0441L14.3459 11.4499L13.9131 11.54C13.8229 11.5581 13.756 11.5844 13.7125 11.619C13.6689 11.6535 13.6471 11.7054 13.6471 11.7745C13.6471 11.8406 13.6711 11.8902 13.7192 11.9233C13.7673 11.9564 13.8244 11.9729 13.8906 11.9729C13.9416 11.9729 13.9904 11.9654 14.0371 11.9503C14.0836 11.9353 14.125 11.912 14.1611 11.8804C14.1971 11.8489 14.2257 11.8091 14.2467 11.761C14.2677 11.7129 14.2783 11.6558 14.2783 11.5896V10.9945Z" fill="#7866CB"/>
<path d="M15.5869 12.4237V10.1695H16.2722L16.3128 10.9449L16.2271 10.8593C16.2571 10.697 16.3105 10.5617 16.3872 10.4535C16.4638 10.3453 16.56 10.2634 16.6757 10.2078C16.7914 10.1522 16.9214 10.1244 17.0657 10.1244C17.222 10.1244 17.358 10.1545 17.4737 10.2146C17.5894 10.2747 17.6804 10.3633 17.7465 10.4806C17.8126 10.5978 17.8457 10.7451 17.8457 10.9224V12.4237H17.0793V11.1253C17.0793 10.969 17.0492 10.8608 16.9891 10.8007C16.9289 10.7406 16.8523 10.7105 16.7591 10.7105C16.687 10.7105 16.6194 10.7278 16.5562 10.7623C16.4931 10.7969 16.4435 10.8518 16.4075 10.9269C16.3714 11.0021 16.3534 11.1027 16.3534 11.229V12.4237H15.5869Z" fill="#7866CB"/>
<path d="M21.9402 12.4688C21.7147 12.4688 21.5051 12.432 21.3112 12.3583C21.1174 12.2847 20.9573 12.1788 20.8311 12.0405L21.1917 11.6167C21.2668 11.7129 21.3668 11.7933 21.4916 11.8579C21.6163 11.9226 21.7553 11.9548 21.9086 11.9548C22.0018 11.9548 22.0784 11.9413 22.1386 11.9142C22.1986 11.8872 22.2287 11.8452 22.2287 11.788C22.2287 11.746 22.2137 11.7121 22.1836 11.6866C22.1536 11.6611 22.0935 11.6392 22.0033 11.6212L21.6877 11.5581C21.4051 11.501 21.2045 11.4161 21.0858 11.3034C20.967 11.1906 20.9077 11.0426 20.9077 10.8593C20.9077 10.7361 20.9452 10.6181 21.0204 10.5054C21.0955 10.3926 21.2113 10.301 21.3676 10.2303C21.5238 10.1597 21.7238 10.1244 21.9672 10.1244C22.1956 10.1244 22.397 10.1575 22.5714 10.2236C22.7457 10.2897 22.8839 10.3859 22.9862 10.5121L22.621 10.9269C22.5488 10.8367 22.4556 10.7661 22.3414 10.715C22.2272 10.6639 22.113 10.6384 21.9988 10.6384C21.9266 10.6384 21.8658 10.6451 21.8162 10.6586C21.7666 10.6722 21.7297 10.691 21.7057 10.715C21.6816 10.7391 21.6697 10.7691 21.6697 10.8052C21.6697 10.8443 21.6884 10.8781 21.726 10.9066C21.7636 10.9352 21.8334 10.96 21.9357 10.981L22.3459 11.0622C22.5774 11.1043 22.7442 11.1809 22.8464 11.2921C22.9485 11.4033 22.9997 11.5371 22.9997 11.6933C22.9997 11.8406 22.9606 11.9729 22.8825 12.0901C22.8043 12.2073 22.687 12.2997 22.5308 12.3674C22.3745 12.435 22.1776 12.4688 21.9402 12.4688Z" fill="#7866CB"/>
<path d="M18.0406 10.9433C18.0146 10.5339 18.3297 10.1925 18.6635 10.1052C18.8694 10.0514 19.0845 10.0528 19.283 10.1563C19.347 10.1897 19.4018 10.1886 19.4691 10.1594C19.9574 9.94685 20.5026 10.1395 20.6849 10.6794C20.7765 10.9508 20.7211 11.2225 20.5807 11.4703C20.4416 11.7159 20.2683 11.9348 20.0378 12.1045C19.947 12.1714 19.8621 12.2463 19.7718 12.3139C19.7082 12.3616 19.6361 12.3983 19.5747 12.4484C19.4243 12.5713 19.2823 12.5267 19.1474 12.4284C18.8789 12.2329 18.6126 12.0337 18.396 11.7787C18.2412 11.5964 18.1245 11.3905 18.057 11.1609C18.037 11.0927 18.0453 11.0161 18.0406 10.9433ZM18.9045 10.5247C18.8412 10.5386 18.7712 10.5398 18.7159 10.5689C18.519 10.6722 18.4408 10.9314 18.5302 11.1352C18.6922 11.5042 18.9932 11.7448 19.3037 11.9767C19.3584 12.0176 19.4174 12.0166 19.4746 11.9696C19.5956 11.8702 19.7262 11.7813 19.8396 11.6742C20.0306 11.4936 20.1985 11.2986 20.2656 11.0291C20.3131 10.8381 20.1422 10.5306 19.8999 10.532C19.7587 10.5328 19.6484 10.5734 19.5398 10.6576C19.3959 10.7691 19.3397 10.7618 19.2053 10.6453C19.1196 10.5711 19.0253 10.5211 18.9045 10.5247Z" fill="white"/>
<path d="M7.12414 14.5895C7.08086 14.6276 7.0448 14.6533 7.01629 14.6855C6.89777 14.8191 6.76289 14.9271 6.58767 14.9858C6.34886 15.0656 6.16978 14.9486 6.16632 14.7013C6.16543 14.6383 6.17524 14.5752 6.18239 14.4831C6.13984 14.5195 6.11321 14.5379 6.09207 14.5611C6.01224 14.6486 5.94163 14.7456 5.85325 14.8237C5.77646 14.8915 5.68545 14.9491 5.59152 14.9922C5.45454 15.055 5.29906 14.9764 5.25174 14.8369C5.19577 14.6718 5.25739 14.5144 5.28141 14.3544C5.2873 14.3152 5.29597 14.2763 5.3072 14.217C5.07896 14.3552 4.87348 14.4797 4.67568 14.5995C4.72767 14.7077 4.78663 14.8024 4.81985 14.9049C4.91925 15.2118 4.84762 15.5016 4.69933 15.777C4.61481 15.9339 4.52451 16.0904 4.3624 16.1869C4.25705 16.2496 4.14786 16.2904 4.02285 16.2261C3.94945 16.1883 3.89418 16.1348 3.88453 16.0589C3.86905 15.9373 3.86066 15.813 3.86712 15.6907C3.88756 15.3034 4.03029 14.9446 4.1517 14.5812C4.1584 14.5611 4.16262 14.5399 4.16523 14.519C4.16643 14.5094 4.1609 14.499 4.15364 14.4697C4.12386 14.4954 4.10187 14.5135 4.08077 14.5326C4.01432 14.5928 3.95434 14.6618 3.8808 14.712C3.68662 14.8446 3.43658 14.7264 3.40158 14.4943C3.3728 14.3034 3.42494 14.1279 3.50209 13.9581C3.61447 13.7108 3.76198 13.4889 4.01721 13.3577C4.20676 13.2603 4.39734 13.2835 4.56178 13.4184C4.57507 13.4293 4.59086 13.4373 4.61793 13.4546C4.66579 13.3443 4.73947 13.265 4.85697 13.2364C4.88488 13.2297 4.91347 13.2222 4.94192 13.2214C5.05292 13.2186 5.09335 13.2642 5.05713 13.3658C5.00709 13.5062 4.94602 13.6428 4.89042 13.7812C4.82153 13.9528 4.75272 14.1244 4.68555 14.2966C4.67294 14.3289 4.66821 14.3642 4.65494 14.418C4.69847 14.411 4.73259 14.4146 4.75493 14.4005C4.95608 14.2735 5.16742 14.1576 5.34979 14.0083C5.44301 13.932 5.4846 13.7948 5.54695 13.6838C5.58536 13.6154 5.61606 13.5429 5.65522 13.4749C5.74054 13.3269 5.89352 13.288 6.06005 13.381C6.05109 13.419 6.04666 13.4642 6.02999 13.5045C5.90234 13.8131 5.76702 14.1189 5.64596 14.43C5.60477 14.5359 5.55748 14.6492 5.59074 14.7667C5.65811 14.8151 5.71003 14.7901 5.74857 14.7423C5.87196 14.5893 6.00259 14.4402 6.10982 14.2768C6.28015 14.0171 6.43484 13.7477 6.59417 13.4813C6.68568 13.3283 6.83867 13.285 7.00442 13.382C6.99639 13.4162 6.99239 13.4575 6.97708 13.4943C6.85296 13.793 6.72242 14.0892 6.60324 14.3897C6.55552 14.5101 6.50253 14.635 6.54572 14.794C6.59505 14.7848 6.65424 14.7895 6.69083 14.7637C6.77545 14.7041 6.85483 14.6349 6.9261 14.5603C7.09411 14.3844 7.19685 14.169 7.30646 13.9563C7.44073 13.6958 7.61887 13.466 7.90243 13.342C8.04803 13.2784 8.19938 13.2757 8.34166 13.3606C8.43553 13.4165 8.48054 13.5094 8.46108 13.6063C8.41179 13.8516 8.29295 14.0602 8.05716 14.183C8.00519 14.2101 7.94053 14.2198 7.88056 14.2251C7.80162 14.2321 7.72153 14.2268 7.63683 14.2268C7.57153 14.3377 7.54146 14.4583 7.55542 14.5828C7.57044 14.7168 7.63601 14.7625 7.7725 14.7468C7.94738 14.7267 8.0958 14.642 8.23755 14.5474C8.53381 14.3497 8.78664 14.1038 9.03697 13.8554C9.10217 13.7907 9.10281 13.7913 9.18947 13.785C9.17647 13.825 9.17479 13.8662 9.15328 13.8912C8.82344 14.2734 8.46667 14.6258 7.99805 14.849C7.87514 14.9075 7.74498 14.9324 7.60689 14.9299C7.34334 14.9252 7.2272 14.8514 7.12414 14.5895ZM3.8015 14.601C3.84405 14.5726 3.88839 14.5538 3.91759 14.5218C4.13332 14.2855 4.32011 14.0287 4.47979 13.7532C4.50841 13.7038 4.50132 13.6613 4.46347 13.6171C4.37894 13.5183 4.30719 13.5047 4.19962 13.5772C4.16706 13.5992 4.1365 13.6257 4.11051 13.6548C3.95794 13.8256 3.84246 14.0187 3.78699 14.2384C3.75849 14.3514 3.72597 14.473 3.8015 14.601ZM4.21879 15.9958C4.29737 16.0324 4.31786 15.9648 4.33396 15.9219C4.41979 15.6931 4.51031 15.465 4.5762 15.2305C4.61385 15.0966 4.60791 14.9508 4.52157 14.8208C4.38318 14.9727 4.16411 15.8307 4.21879 15.9958ZM7.71633 14.0948C7.83171 14.1353 7.919 14.0958 7.99469 14.0237C8.13265 13.8921 8.22211 13.7397 8.21616 13.5444C8.05169 13.5266 7.75456 13.8604 7.71633 14.0948Z" fill="white"/>
<path d="M13.4339 13.3501C13.3494 13.3522 13.2987 13.3984 13.2591 13.4602C13.1744 13.5923 13.0989 13.7305 13.0092 13.8592C12.8661 14.0645 12.7175 14.2663 12.5646 14.4648C12.5142 14.5303 12.4511 14.5929 12.353 14.602C12.2768 14.502 12.3142 14.4001 12.3484 14.3127C12.4558 14.0383 12.5773 13.7691 12.6916 13.4972C12.7074 13.4596 12.713 13.4179 12.7221 13.3829C12.5876 13.2905 12.4081 13.3187 12.3318 13.4446C12.258 13.5663 12.2092 13.7034 12.1283 13.8199C11.9694 14.0485 11.8018 14.2722 11.6257 14.4885C11.5431 14.59 11.4354 14.6732 11.3325 14.7569C11.3002 14.7832 11.2463 14.7843 11.1976 14.7982C11.1665 14.6492 11.2212 14.5367 11.2572 14.4235C11.3044 14.2749 11.3653 14.1304 11.4186 13.9835C11.4561 13.8801 11.4248 13.8303 11.3139 13.8112C11.1892 13.7897 11.1131 13.8469 11.0173 13.981C10.8492 14.2163 10.668 14.4428 10.4901 14.6713C10.4679 14.6998 10.4326 14.7185 10.381 14.7596C10.3768 14.7024 10.3685 14.6723 10.3734 14.6444C10.4402 14.264 10.6356 13.9488 10.905 13.6749C10.9907 13.5876 11.0982 13.5248 11.2227 13.4959C11.326 13.4719 11.3847 13.5128 11.3915 13.6156C11.3933 13.6431 11.3961 13.6705 11.3984 13.6963C11.4959 13.7117 11.5165 13.706 11.5353 13.6343C11.5815 13.458 11.511 13.3464 11.2826 13.33C10.968 13.3075 10.6946 13.4073 10.4677 13.6212C10.2597 13.8172 10.1185 14.057 10.0199 14.3185C9.96149 14.4733 9.90589 14.6324 9.95605 14.8052C10.0052 14.9746 10.1664 15.0518 10.3287 14.9789C10.4827 14.9097 10.5877 14.7869 10.6983 14.6692C10.722 14.6439 10.7539 14.6259 10.8013 14.5898C10.8053 14.6704 10.8082 14.7228 10.8105 14.7753C10.8148 14.8777 10.8627 14.9473 10.9626 14.9872C11.098 15.0413 11.2218 15.0029 11.3391 14.9433C11.5471 14.8374 11.6938 14.663 11.8436 14.4933C11.8709 14.4624 11.8986 14.4319 11.926 14.4012C11.9337 14.4036 11.9414 14.406 11.9491 14.4084C11.9527 14.4456 11.9577 14.4827 11.9595 14.52C11.9672 14.6756 12.0727 14.7762 12.232 14.7784C12.3819 14.7805 12.4978 14.7049 12.5966 14.6093C12.7049 14.5047 12.8003 14.3875 12.9006 14.2752C12.9276 14.245 12.9519 14.2126 12.9774 14.1812C12.986 14.185 12.9946 14.1887 13.0032 14.1924C13.0005 14.2217 13.0043 14.2533 12.994 14.2798C12.8006 14.7809 12.6061 15.2821 12.2889 15.7254C12.1805 15.8768 12.0644 16.0235 11.8861 16.1065C11.6929 16.1964 11.5257 16.1446 11.4256 15.961C11.4019 15.9175 11.3816 15.8722 11.3609 15.83C11.2339 15.8143 11.145 15.8914 11.1683 15.9926C11.2078 16.1634 11.3673 16.2963 11.5457 16.3161C11.8448 16.3492 12.1044 16.2681 12.3369 16.0826C12.7713 15.7361 13.0304 15.276 13.2288 14.7786C13.3182 14.5545 13.3874 14.3225 13.46 14.0924C13.5166 13.9131 13.5699 13.7324 13.6138 13.5499C13.6481 13.4074 13.5841 13.3465 13.4339 13.3501Z" fill="white"/>
<path d="M21.7121 13.8258C21.6799 13.8601 21.6411 13.8961 21.6087 13.937C21.5376 14.0268 21.4756 14.1242 21.3992 14.2094C21.2437 14.3827 21.0841 14.5528 20.9196 14.718C20.8727 14.7652 20.8041 14.8345 20.7312 14.7737C20.6709 14.7232 20.6953 14.6414 20.723 14.5742C20.8328 14.3081 20.9475 14.0437 21.054 13.7763C21.1022 13.6552 21.1504 13.5307 21.1713 13.4035C21.1921 13.277 21.1247 13.2196 20.992 13.2217C20.8167 13.2246 20.6781 13.3137 20.561 13.427C20.4296 13.5541 20.3127 13.6955 20.1903 13.8314C20.151 13.875 20.1143 13.9207 20.0764 13.9655C20.0639 13.9435 20.0645 13.9298 20.0695 13.9178C20.1324 13.7669 20.1974 13.6168 20.2587 13.4652C20.3029 13.356 20.2785 13.3026 20.1685 13.252C20.0453 13.1954 19.9573 13.2122 19.9057 13.3096C19.8674 13.3819 19.8384 13.4588 19.8052 13.5336C19.6828 13.8093 19.5942 14.1024 19.3752 14.3282C19.2404 14.4671 19.1067 14.607 18.967 14.7412C18.9257 14.7809 18.8696 14.8216 18.8008 14.7731C18.7757 14.647 18.8304 14.5344 18.8664 14.421C18.9126 14.2757 18.9723 14.1344 19.0254 13.9911C19.0661 13.8811 19.0356 13.83 18.9188 13.8102C18.7982 13.7897 18.7193 13.8493 18.6236 13.9842C18.4604 14.2143 18.2848 14.4362 18.1115 14.6593C18.0857 14.6926 18.0435 14.7137 18.0089 14.7404C17.999 14.7355 17.9891 14.7307 17.9793 14.7258C17.9858 14.6614 17.9829 14.5944 18.0006 14.5332C18.0902 14.2241 18.2495 13.9506 18.471 13.7139C18.5673 13.611 18.6852 13.5328 18.8277 13.497C18.9356 13.4699 18.9965 13.5136 18.9998 13.6222C19.0006 13.6493 19.0035 13.6764 19.0052 13.6998C19.0943 13.7315 19.1288 13.6869 19.1495 13.6219C19.1888 13.4981 19.1275 13.3811 18.9958 13.3517C18.67 13.2791 18.3831 13.3692 18.132 13.5727C17.9173 13.7467 17.775 13.9745 17.6694 14.2223C17.5918 14.4045 17.4756 14.5546 17.3219 14.678C17.2385 14.7449 17.1757 14.7286 17.1554 14.6265C17.1387 14.5423 17.1353 14.447 17.1586 14.3654C17.2199 14.1509 17.2947 13.9397 17.3719 13.7299C17.4192 13.6017 17.4673 13.4738 17.5156 13.3461C17.5164 13.3444 17.5174 13.3429 17.5181 13.3412L18.0267 12.0233C18.0402 11.9882 18.0221 11.9491 17.9862 11.9359L17.7712 11.8567C17.7353 11.8435 17.6953 11.8612 17.6818 11.8962L17.2215 13.0513C17.1755 13.159 17.1296 13.2666 17.0837 13.3742C17.0616 13.3686 17.0494 13.3687 17.0415 13.3631C16.8222 13.2066 16.5992 13.2299 16.3779 13.3548C16.2099 13.4496 16.0927 13.5953 15.9881 13.7507C15.8186 14.0025 15.6568 14.2595 15.4783 14.505C15.4063 14.6039 15.3029 14.6833 15.205 14.7611C15.1701 14.7889 15.1093 14.7859 15.0589 14.7973C15.0083 14.6399 15.063 14.5143 15.1099 14.3949C15.2296 14.0906 15.3632 13.7916 15.4891 13.4897C15.5042 13.4534 15.506 13.4119 15.5129 13.378C15.3396 13.2865 15.1947 13.3316 15.1013 13.485C14.9121 13.7961 14.7242 14.108 14.5257 14.4134C14.4465 14.5351 14.3425 14.6419 14.2463 14.7525C14.207 14.7978 14.156 14.8112 14.0916 14.7576C14.0959 14.7092 14.0897 14.6501 14.1075 14.5988C14.1862 14.3708 14.2681 14.1437 14.3563 13.9191C14.4134 13.7736 14.4842 13.6333 14.5472 13.49C14.591 13.3904 14.5619 13.344 14.4506 13.3301C14.3235 13.3143 14.2202 13.3681 14.1571 13.4893C14.0122 13.7676 13.8679 14.0473 13.7943 14.3532C13.7565 14.5103 13.7071 14.6707 13.7612 14.8353C13.8077 14.9767 13.9618 15.0534 14.1003 14.9932C14.1854 14.9562 14.2698 14.9074 14.338 14.8464C14.4315 14.763 14.5087 14.6625 14.5942 14.5704C14.6185 14.5442 14.6474 14.5219 14.6783 14.4942C14.6783 14.5903 14.6721 14.6716 14.6796 14.7517C14.6952 14.9179 14.8026 15.0178 14.9668 15.0073C15.0474 15.0021 15.1303 14.9747 15.2047 14.9413C15.3747 14.865 15.4943 14.7296 15.6074 14.5889C15.6321 14.5581 15.6597 14.5295 15.6996 14.4844C15.7116 14.5344 15.7181 14.5576 15.7226 14.5811C15.774 14.8462 16.0202 14.9675 16.2573 14.8291C16.3834 14.7554 16.4885 14.6475 16.6024 14.5543C16.6312 14.5307 16.6576 14.5045 16.7044 14.462C16.7117 14.5229 16.7107 14.558 16.7208 14.5897C16.7443 14.6631 16.7587 14.7449 16.8027 14.8054C16.9149 14.9598 17.1611 14.9778 17.3311 14.8545C17.3908 14.8112 17.4483 14.7651 17.5228 14.7081C17.545 14.7632 17.5598 14.7968 17.5722 14.8313C17.627 14.9842 17.802 15.0501 17.9338 14.9823C18.0832 14.9055 18.1946 14.792 18.3035 14.6723C18.3273 14.6461 18.3588 14.6265 18.4086 14.5861C18.4136 14.6704 18.4176 14.7254 18.42 14.7805C18.4243 14.8788 18.4661 14.9592 18.5664 14.9813C18.648 14.9993 18.7392 15.0064 18.8203 14.9902C18.9824 14.9577 19.1038 14.8519 19.2181 14.7398C19.2559 14.7027 19.3001 14.6717 19.3414 14.638C19.3485 14.6443 19.3557 14.6506 19.3629 14.6569C19.3472 14.7286 19.3333 14.8008 19.3154 14.8719C19.2854 14.9908 19.3017 15.0334 19.3961 15.0692C19.5049 15.1103 19.6098 15.0769 19.6584 14.992C19.8126 14.7228 19.9588 14.4483 20.1289 14.1889C20.2356 14.0261 20.3774 13.8846 20.5087 13.738C20.541 13.7019 20.5851 13.6591 20.6573 13.6865C20.6505 13.7129 20.6476 13.7366 20.6386 13.758C20.5753 13.9089 20.5082 14.0583 20.4475 14.2101C20.3826 14.3721 20.321 14.5354 20.3273 14.7142C20.3334 14.8884 20.4129 14.9661 20.5881 14.9749C20.7061 14.9809 20.808 14.9484 20.9072 14.8878C21.1765 14.7233 21.3593 14.4788 21.5465 14.2389C21.6232 14.1405 21.6861 14.0319 21.7562 13.9284C21.7867 13.8835 21.7849 13.8499 21.7121 13.8258ZM16.9541 13.7205C16.9079 13.8696 16.8599 14.0187 16.7525 14.141C16.6129 14.3001 16.4768 14.4621 16.3365 14.6205C16.3024 14.6589 16.2576 14.6882 16.2155 14.7235C16.15 14.6608 16.138 14.5931 16.1461 14.527C16.1913 14.1573 16.3511 13.8412 16.6354 13.5913C16.6789 13.5531 16.7529 13.5322 16.8132 13.5313C16.9195 13.5296 16.9847 13.6215 16.9541 13.7205Z" fill="white"/>
</svg>
