<svg width="24" height="24" viewBox="0 0 24 24" fill="none" xmlns="http://www.w3.org/2000/svg">
<path d="M4.71859 23.01C4.62017 23.01 4.52175 22.9868 4.43491 22.9347C4.25544 22.8305 4.13965 22.6394 4.13965 22.431V1.58896C4.13965 1.27054 4.40017 1.01001 4.71859 1.01001H16.6912C18.6191 1.01001 20.188 2.57895 20.188 4.50684V22.431C20.188 22.6394 20.078 22.8305 19.8928 22.9347C19.7133 23.0389 19.4875 23.0331 19.308 22.9289L12.1638 18.6389L5.01965 22.9289C4.92702 22.981 4.8228 23.01 4.71859 23.01ZM12.1638 17.3826C12.268 17.3826 12.3723 17.4115 12.4591 17.4636L19.0243 21.4063V4.50105C19.0243 3.21 17.9765 2.16211 16.6854 2.16211H5.29754V21.4005L11.8628 17.4579C11.9554 17.4115 12.0596 17.3826 12.1638 17.3826Z" fill="currentColor"/>
</svg>
