<svg width="24" height="25" viewBox="0 0 24 25" fill="none" xmlns="http://www.w3.org/2000/svg">
<path d="M16.6695 1.01215H4.0311C3.71267 1.01215 3.45215 1.27267 3.45215 1.59109V19.3185C3.45215 21.3564 5.07898 23.0121 7.08214 23.0121H19.7206C20.039 23.0121 20.2995 22.7516 20.2995 22.4332C20.2995 22.1148 20.039 21.8543 19.7206 21.8543H7.08214C5.88372 21.8543 4.87635 20.9743 4.65635 19.8048H19.7206C20.039 19.8048 20.2995 19.5443 20.2995 19.2258V4.71162C20.2995 2.66794 18.6727 1.01215 16.6695 1.01215ZM19.1416 18.6469H4.61004V2.17004H16.6695C18.0358 2.17004 19.1416 3.31057 19.1416 4.71162V18.6469Z" fill="currentColor"/>
<path d="M16.3454 5.47583H7.4122C7.09378 5.47583 6.83325 5.73636 6.83325 6.05478C6.83325 6.3732 7.09378 6.63373 7.4122 6.63373H16.3454C16.6638 6.63373 16.9243 6.3732 16.9243 6.05478C16.9243 5.73636 16.6638 5.47583 16.3454 5.47583Z" fill="currentColor"/>
<path d="M14.8574 7.86694H8.89999C8.58157 7.86694 8.32104 8.12747 8.32104 8.44589C8.32104 8.76431 8.58157 9.02484 8.89999 9.02484H14.8574C15.1758 9.02484 15.4363 8.76431 15.4363 8.44589C15.4363 8.12747 15.1758 7.86694 14.8574 7.86694Z" fill="currentColor"/>
</svg>
