<svg width="24" height="25" viewBox="0 0 24 25" fill="none" xmlns="http://www.w3.org/2000/svg">
<path d="M16.6695 1.01215H4.0311C3.71267 1.01215 3.45215 1.27267 3.45215 1.59109V19.3185C3.45215 21.3564 5.07898 23.0121 7.08214 23.0121H19.7206C20.039 23.0121 20.2995 22.7516 20.2995 22.4332C20.2995 22.1148 20.039 21.8543 19.7206 21.8543H7.08214C5.88372 21.8543 4.87635 20.9743 4.65635 19.8048H19.7206C20.039 19.8048 20.2995 19.5443 20.2995 19.2258V4.71162C20.2995 2.66794 18.6727 1.01215 16.6695 1.01215ZM6.89687 2.17004H10.2316V9.44741L8.88266 8.55583C8.69161 8.42846 8.43688 8.42846 8.24004 8.55583L6.8911 9.44741V2.17004H6.89687ZM19.1416 18.6469H4.61004V2.17004H5.73898V10.5243C5.73898 10.7385 5.85477 10.9353 6.04582 11.0337C6.23687 11.1321 6.46266 11.1264 6.64214 11.0048L8.57004 9.7253L10.4979 11.0048C10.5963 11.0685 10.7064 11.1032 10.8164 11.1032C10.909 11.1032 11.0016 11.08 11.0885 11.0337C11.2737 10.9353 11.3953 10.7385 11.3953 10.5243V2.17004H16.6753C18.0416 2.17004 19.1474 3.31057 19.1474 4.71162V18.6469H19.1416Z" fill="currentColor"/>
</svg>
