<svg width="24" height="24" viewBox="0 0 24 24" fill="none" xmlns="http://www.w3.org/2000/svg">
<path d="M22.9624 6.58559C22.9566 6.56822 22.9508 6.55085 22.9392 6.53348C22.916 6.48716 22.8871 6.44083 22.8523 6.4003C22.8408 6.38872 22.835 6.37714 22.8292 6.37135C22.7887 6.33082 22.7423 6.29608 22.6902 6.26713L12.2678 1.05591C12.1057 0.974851 11.9146 0.974851 11.7525 1.05591L1.33004 6.26713C1.27793 6.29608 1.23161 6.33082 1.19108 6.37135C1.1795 6.38293 1.17371 6.39451 1.16792 6.4003C1.13318 6.44083 1.10422 6.48716 1.08106 6.53348C1.07527 6.55085 1.06369 6.56822 1.0579 6.58559C1.01737 6.64928 1 6.71876 1 6.78825V17.2107C1 17.4307 1.12159 17.6276 1.31846 17.726L11.7409 22.9372C11.8219 22.9777 11.9088 22.9951 11.9957 22.9951C12.0825 22.9951 12.1809 22.9777 12.2562 22.9372L22.6786 17.726C22.8813 17.6276 23.0029 17.4307 23.0029 17.2107V6.78825C23.0029 6.71876 22.9855 6.64928 22.9624 6.58559ZM12.0014 2.22554L21.1269 6.78825L17.2127 8.74535L8.08725 4.18264L12.0014 2.22554ZM6.79024 4.83115L15.9156 9.39385L12.0014 11.351L2.87604 6.78825L6.79024 4.83115ZM2.15805 7.72627L11.4224 12.3585V21.4839L2.15805 16.8517V7.72627ZM12.5805 21.4839V12.3585L16.6336 10.3319V13.4875C16.6336 13.806 16.8942 14.0666 17.2127 14.0666C17.5311 14.0666 17.7917 13.806 17.7917 13.4875V9.75285L21.8448 7.72627V16.8517L12.5805 21.4839Z" fill="currentColor"/>
</svg>
