<svg width="24" height="24" viewBox="0 0 24 24" fill="none" xmlns="http://www.w3.org/2000/svg">
<path d="M23.0098 12.901C23.0098 11.9455 22.5986 11.0479 21.9037 10.4399C22.0774 10.075 22.1701 9.66966 22.1701 9.25849C22.1701 8.01922 21.3767 6.97684 20.2764 6.65255C20.2822 6.58884 20.2822 6.52514 20.2822 6.46723C20.2822 4.98474 19.124 3.786 17.6994 3.75705C17.6878 3.75705 17.6763 3.75126 17.6647 3.75126C17.6589 3.75126 17.6531 3.75126 17.6473 3.75126C17.4967 3.75126 17.352 3.76284 17.2014 3.79179C16.7207 3.03896 15.9042 2.57568 15.0008 2.57568C13.8774 2.57568 12.8813 3.30535 12.5165 4.39406C12.4817 4.46934 12.4644 4.55041 12.4644 4.63728V19.1032C12.4644 19.1553 12.4701 19.2074 12.4875 19.2538C12.8639 20.6378 14.1032 21.5991 15.493 21.5991C16.7497 21.5991 17.8558 20.8347 18.348 19.6823C20.1838 19.8734 21.7821 18.3562 21.7821 16.4741C21.7821 16.1614 21.7415 15.8602 21.6547 15.5591C22.4886 14.9684 23.0098 13.9724 23.0098 12.901ZM20.9945 14.6036C20.4733 14.0419 19.7321 13.6886 18.9097 13.6886C18.4233 13.6886 17.9542 13.4801 17.6299 13.1095C17.4214 12.8663 17.0508 12.8431 16.8134 13.0574C16.5702 13.2659 16.547 13.6365 16.7613 13.8739C16.8945 14.0245 17.0392 14.1577 17.1956 14.2735C16.5065 14.7947 16.049 15.617 16.049 16.5436C16.049 16.8621 16.3096 17.1227 16.6281 17.1227C16.9466 17.1227 17.2072 16.8621 17.2072 16.5436C17.2072 15.6054 17.9716 14.841 18.9097 14.841C19.8479 14.841 20.6123 15.6054 20.6123 16.5436C20.6123 16.5494 20.6181 16.5552 20.6181 16.5609C20.566 17.8408 19.373 18.831 18.1222 18.4604C17.9716 18.4141 17.8094 18.4372 17.6705 18.5125C17.5315 18.5936 17.433 18.7268 17.3983 18.8773C17.1782 19.7981 16.3964 20.4351 15.493 20.4351C14.6476 20.4351 13.8889 19.856 13.6226 19.0105V4.72993C13.8426 4.12767 14.387 3.72809 15.0008 3.72809C15.4351 3.72809 15.8405 3.93078 16.1185 4.26665C15.4815 4.74152 15.0587 5.49435 15.0587 6.35141C15.0587 6.66992 15.3193 6.93051 15.6378 6.93051C15.9563 6.93051 16.2169 6.66992 16.2169 6.35141C16.2169 5.67966 16.6744 5.12372 17.294 4.96157C17.323 4.95578 17.3462 4.9442 17.3751 4.93841C17.4562 4.92104 17.5431 4.91525 17.6299 4.91525C17.6357 4.91525 17.6415 4.91525 17.6415 4.91525C18.458 4.91525 19.1182 5.61596 19.1182 6.47303C19.1182 6.63517 19.095 6.80311 19.0429 6.95947C18.9908 7.1332 19.0198 7.31851 19.124 7.46908C19.2282 7.61385 19.3962 7.70651 19.5757 7.7123C20.3806 7.74125 21.0061 8.42459 21.0061 9.27008C21.0061 9.63491 20.8903 9.97079 20.6702 10.2545C20.566 10.3877 20.5254 10.5557 20.5602 10.7178C20.5891 10.88 20.6934 11.0247 20.8381 11.1058C21.4636 11.4707 21.8516 12.1656 21.8516 12.9068C21.8516 13.5902 21.5215 14.2214 20.9945 14.6036Z" fill="currentColor"/>
<path d="M9.01871 2.56995C8.12111 2.56995 7.29879 3.03323 6.81814 3.78606C6.67336 3.7571 6.52279 3.74552 6.37223 3.74552C4.91869 3.74552 3.73732 4.96163 3.73732 6.4615C3.73732 6.5252 3.73733 6.5889 3.74312 6.64681C2.64283 6.9769 1.84946 8.01348 1.84946 9.25276C1.84946 9.66392 1.94211 10.0693 2.11584 10.4341C1.42092 11.0422 1.00977 11.9398 1.00977 12.8953C1.00977 13.9666 1.53095 14.9627 2.37065 15.5534C2.28378 15.8487 2.24325 16.1556 2.24325 16.4683C2.24325 18.2462 3.64467 19.6939 5.37039 19.6939C5.37618 19.6939 5.37618 19.6939 5.38197 19.6939C5.38776 19.6939 5.39355 19.6997 5.39934 19.6997C5.43408 19.6997 5.46304 19.6939 5.492 19.6881C5.5557 19.6881 5.6194 19.6823 5.6831 19.6766C6.17534 20.829 7.28142 21.5934 8.53806 21.5934C9.9279 21.5934 11.1672 20.6263 11.5436 19.248C11.5552 19.1959 11.5668 19.1496 11.5668 19.0975V4.5968C11.5668 4.49256 11.5378 4.39411 11.4857 4.30725C11.0861 3.26487 10.1132 2.56995 9.01871 2.56995ZM10.397 19.0164C10.1364 19.8561 9.37776 20.441 8.52648 20.441C7.78523 20.441 7.13085 20.0009 6.79497 19.3349C7.74469 18.8253 8.39329 17.8408 8.39329 16.6942C8.39329 15.038 7.04398 13.6887 5.38776 13.6887C5.06925 13.6887 4.80866 13.9493 4.80866 14.2678C4.80866 14.5863 5.06925 14.8469 5.38776 14.8469C6.40697 14.8469 7.23509 15.675 7.23509 16.6942C7.23509 17.5281 6.67336 18.2288 5.90895 18.4604C5.90316 18.4604 5.89737 18.4604 5.89158 18.4604C4.61756 18.8369 3.38987 17.7945 3.38987 16.4741C3.38987 16.1556 3.45936 15.8487 3.59834 15.5592C3.66204 15.4202 3.67362 15.258 3.6215 15.1132C3.56938 14.9685 3.45936 14.8527 3.32037 14.7832C2.61966 14.4531 2.16217 13.7118 2.16217 12.9011C2.16217 12.154 2.55017 11.4649 3.1756 11.1001C3.32037 11.0132 3.41882 10.8742 3.45357 10.7121C3.48252 10.5499 3.44777 10.382 3.34354 10.2488C3.12348 9.96505 3.00766 9.62917 3.00766 9.26434C3.00766 8.55205 3.45357 7.96137 4.0732 7.77605C4.54807 8.70261 5.49779 9.34541 6.60966 9.34541C7.5478 9.34541 8.31221 10.1098 8.31221 11.048C8.31221 11.3665 8.57281 11.6271 8.89131 11.6271C9.20982 11.6271 9.47041 11.3665 9.47041 11.048C9.47041 10.1156 9.01292 9.29329 8.318 8.76631C9.01292 8.24512 9.47041 7.4228 9.47041 6.48466C9.47041 6.16616 9.20982 5.90556 8.89131 5.90556C8.57281 5.90556 8.31221 6.16616 8.31221 6.48466C8.31221 7.4228 7.5478 8.18721 6.60966 8.18721C5.67152 8.18721 4.9071 7.4228 4.9071 6.48466C4.9071 6.46729 4.90132 6.45571 4.90132 6.44412C4.9129 5.59864 5.57307 4.90951 6.37802 4.90951C6.55754 4.90951 6.73127 4.94426 6.905 5.01375C7.04978 5.07166 7.20613 5.07166 7.35091 5.00796C7.49568 4.95005 7.60571 4.83423 7.66362 4.68945C7.89526 4.11035 8.42803 3.73394 9.0303 3.73394C9.64414 3.73394 10.1885 4.13352 10.4086 4.73578V19.0164H10.397Z" fill="currentColor"/>
</svg>
