<svg width="24" height="24" viewBox="0 0 24 24" fill="none" xmlns="http://www.w3.org/2000/svg">
<path d="M12.0001 5.13368C12.3185 5.13368 12.579 4.87316 12.579 4.55474V1.57895C12.579 1.26053 12.3185 1 12.0001 1C11.6817 1 11.4211 1.26053 11.4211 1.57895V4.55474C11.4211 4.87316 11.6817 5.13368 12.0001 5.13368Z" fill="currentColor"/>
<path d="M12.0001 18.8663C11.6817 18.8663 11.4211 19.1268 11.4211 19.4452V22.421C11.4211 22.7395 11.6817 23 12.0001 23C12.3185 23 12.579 22.7395 12.579 22.421V19.4452C12.579 19.121 12.3185 18.8663 12.0001 18.8663Z" fill="currentColor"/>
<path d="M22.4209 11.4211H19.4452C19.1267 11.4211 18.8662 11.6816 18.8662 12C18.8662 12.3184 19.1267 12.5789 19.4452 12.5789H22.4209C22.7394 12.5789 22.9999 12.3184 22.9999 12C22.9999 11.6816 22.7394 11.4211 22.4209 11.4211Z" fill="currentColor"/>
<path d="M5.13368 12C5.13368 11.6816 4.87316 11.4211 4.55474 11.4211H1.57895C1.26053 11.4211 1 11.6816 1 12C1 12.3184 1.26053 12.5789 1.57895 12.5789H4.55474C4.87895 12.5789 5.13368 12.3184 5.13368 12Z" fill="currentColor"/>
<path d="M17.6739 16.8516C17.4481 16.6258 17.0834 16.6258 16.8576 16.8516C16.6318 17.0774 16.6318 17.4421 16.8576 17.6679L18.9649 19.7753C19.0807 19.8853 19.2255 19.9432 19.376 19.9432C19.5265 19.9432 19.6713 19.8853 19.787 19.7753C20.0128 19.5495 20.0128 19.1848 19.787 18.959L17.6739 16.8516Z" fill="currentColor"/>
<path d="M6.32627 7.14844C6.44206 7.25844 6.5868 7.31633 6.73732 7.31633C6.88785 7.31633 7.03259 7.25844 7.14838 7.14844C7.36837 6.92265 7.36838 6.55791 7.14259 6.32633L5.03522 4.21896C4.80943 3.99317 4.44469 3.99317 4.2189 4.21896C3.99311 4.44475 3.99311 4.80949 4.2189 5.03528L6.32627 7.14844Z" fill="currentColor"/>
<path d="M17.2628 7.31631C17.4134 7.31631 17.5581 7.25842 17.6739 7.14842L19.7813 5.04105C20.0071 4.81526 20.0071 4.45052 19.7813 4.22473C19.5555 3.99894 19.1907 3.99894 18.9649 4.22473L16.8576 6.32631C16.6318 6.5521 16.6318 6.91684 16.8576 7.14263C16.9676 7.25842 17.1181 7.31631 17.2628 7.31631Z" fill="currentColor"/>
<path d="M6.32627 16.8516L4.2189 18.959C3.99311 19.1848 3.99311 19.5495 4.2189 19.7753C4.33469 19.8911 4.47943 19.9432 4.62995 19.9432C4.78048 19.9432 4.92522 19.8853 5.04101 19.7753L7.14838 17.6679C7.37416 17.4421 7.37416 17.0774 7.14838 16.8516C6.92259 16.6258 6.55206 16.6258 6.32627 16.8516Z" fill="currentColor"/>
<path d="M17.0312 15.2653L18.5191 8.93159C18.5654 8.72317 18.5017 8.50896 18.3396 8.37001C18.1833 8.23107 17.9575 8.18475 17.7606 8.25422L13.6501 9.71317L12.4228 8.40475C12.2028 8.17317 11.7975 8.17317 11.5775 8.40475L10.3501 9.71317L6.2396 8.25422C6.04275 8.18475 5.81696 8.22528 5.66065 8.37001C5.50433 8.50896 5.43486 8.72896 5.48118 8.93159L6.70854 14.1537C6.92275 15.0742 7.73328 15.7111 8.67696 15.7111H16.4638C16.7359 15.7111 16.9675 15.5258 17.0312 15.2653ZM16.0064 14.5532H8.67696C8.2717 14.5532 7.93012 14.2811 7.83749 13.8874L6.85328 9.6958L10.3212 10.9232C10.5354 10.9984 10.7785 10.9405 10.9349 10.7726L12.0001 9.6437L13.0654 10.7784C13.2217 10.9463 13.4649 11.0042 13.6791 10.929L17.147 9.70159L16.0064 14.5532Z" fill="currentColor"/>
</svg>
