<svg width="24" height="24" viewBox="0 0 24 24" fill="none" xmlns="http://www.w3.org/2000/svg">
<path d="M15.6011 13.7658L18.3627 11.0737C18.519 10.9174 18.5769 10.6916 18.5074 10.4774C18.4379 10.269 18.2584 10.1126 18.0385 10.0837L14.2232 9.5279L12.5211 6.08317C12.3242 5.68948 11.6758 5.68948 11.4848 6.08317L9.77687 9.53948L5.96161 10.0895C5.74161 10.1184 5.56213 10.2747 5.49266 10.4832C5.42319 10.6916 5.48108 10.9232 5.6374 11.0737L8.39898 13.7658L7.75055 17.5637C7.71582 17.7837 7.80266 17.9979 7.98213 18.1311C8.16161 18.2584 8.39898 18.2758 8.59003 18.1774L12 16.3826L15.41 18.1774C15.4969 18.2237 15.5895 18.2411 15.6821 18.2411C15.8037 18.2411 15.9195 18.2063 16.0237 18.1311C16.2032 18.0037 16.29 17.7837 16.2553 17.5637L15.6011 13.7658ZM14.4085 13.6616L14.9121 16.6026L12.2721 15.2132C12.1853 15.1668 12.0927 15.1495 12 15.1495C11.9074 15.1495 11.8148 15.1726 11.7279 15.2132L9.08792 16.6026L9.59161 13.6616C9.62634 13.4763 9.56266 13.2795 9.42371 13.1521L7.2874 11.0679L10.24 10.6395C10.4311 10.6105 10.5932 10.4947 10.6742 10.3211L12 7.64632L13.32 10.3211C13.4069 10.4947 13.569 10.6105 13.7542 10.6395L16.7069 11.0679L14.5706 13.1521C14.4374 13.2853 14.3737 13.4763 14.4085 13.6616Z" fill="currentColor"/>
<path d="M12.0001 5.13368C12.3185 5.13368 12.579 4.87316 12.579 4.55474V1.57895C12.579 1.26053 12.3185 1 12.0001 1C11.6817 1 11.4211 1.26053 11.4211 1.57895V4.55474C11.4211 4.87316 11.6817 5.13368 12.0001 5.13368Z" fill="currentColor"/>
<path d="M12.0001 18.8663C11.6817 18.8663 11.4211 19.1268 11.4211 19.4452V22.421C11.4211 22.7395 11.6817 23 12.0001 23C12.3185 23 12.579 22.7395 12.579 22.421V19.4452C12.579 19.121 12.3185 18.8663 12.0001 18.8663Z" fill="currentColor"/>
<path d="M22.4209 11.4211H19.4452C19.1267 11.4211 18.8662 11.6816 18.8662 12C18.8662 12.3184 19.1267 12.5789 19.4452 12.5789H22.4209C22.7394 12.5789 22.9999 12.3184 22.9999 12C22.9999 11.6816 22.7394 11.4211 22.4209 11.4211Z" fill="currentColor"/>
<path d="M5.13368 12C5.13368 11.6816 4.87316 11.4211 4.55474 11.4211H1.57895C1.26053 11.4211 1 11.6816 1 12C1 12.3184 1.26053 12.5789 1.57895 12.5789H4.55474C4.87895 12.5789 5.13368 12.3184 5.13368 12Z" fill="currentColor"/>
<path d="M17.6739 16.8516C17.4481 16.6258 17.0834 16.6258 16.8576 16.8516C16.6318 17.0774 16.6318 17.4421 16.8576 17.6679L18.9649 19.7753C19.0807 19.8853 19.2255 19.9432 19.376 19.9432C19.5265 19.9432 19.6713 19.8853 19.787 19.7753C20.0128 19.5495 20.0128 19.1848 19.787 18.959L17.6739 16.8516Z" fill="currentColor"/>
<path d="M6.32627 7.14842C6.44206 7.25842 6.5868 7.31631 6.73732 7.31631C6.88785 7.31631 7.03259 7.25842 7.14838 7.14842C7.36838 6.92263 7.36838 6.55789 7.14259 6.32631L5.03522 4.22473C4.80943 3.99894 4.44469 3.99894 4.2189 4.22473C3.99311 4.45052 3.99311 4.81526 4.2189 5.04105L6.32627 7.14842Z" fill="currentColor"/>
<path d="M17.2628 7.31631C17.4134 7.31631 17.5581 7.25842 17.6739 7.14842L19.7813 5.04105C20.007 4.81526 20.007 4.45052 19.7813 4.22473C19.5555 3.99894 19.1907 3.99894 18.9649 4.22473L16.8576 6.32631C16.6318 6.5521 16.6318 6.91684 16.8576 7.14263C16.9676 7.25842 17.1181 7.31631 17.2628 7.31631Z" fill="currentColor"/>
<path d="M6.32627 16.8516L4.2189 18.959C3.99311 19.1848 3.99311 19.5495 4.2189 19.7753C4.33469 19.8911 4.47943 19.9432 4.62996 19.9432C4.78048 19.9432 4.92522 19.8853 5.04101 19.7753L7.14838 17.6679C7.37417 17.4421 7.37417 17.0774 7.14838 16.8516C6.92259 16.6258 6.55206 16.6258 6.32627 16.8516Z" fill="currentColor"/>
</svg>
