<svg width="24" height="24" viewBox="0 0 24 24" fill="none" xmlns="http://www.w3.org/2000/svg">
<path d="M11.8701 1.1001C5.80095 1.1001 0.870117 6.03544 0.870117 12.103V22.5195C0.870117 22.8388 1.13147 23.1001 1.4509 23.1001H11.8701C17.9393 23.1001 22.8701 18.1648 22.8701 12.103C22.8701 6.04125 17.9335 1.1001 11.8701 1.1001ZM11.8701 21.9388H2.03168V12.0972C2.03168 6.67413 6.44562 2.25555 11.8701 2.25555C17.2946 2.25555 21.7086 6.66832 21.7086 12.0972C21.7086 17.5203 17.2946 21.9388 11.8701 21.9388Z" fill="currentColor"/>
<path d="M12.4556 7.32438C11.6192 7.15019 10.7713 7.35341 10.1208 7.88178C9.47034 8.41016 9.09863 9.19401 9.09863 10.0301C9.09863 10.3495 9.35998 10.6107 9.67941 10.6107C9.99884 10.6107 10.2602 10.3495 10.2602 10.0301C10.2602 9.54819 10.4751 9.08949 10.8526 8.78176C11.2359 8.46822 11.7238 8.3579 12.2174 8.46241C12.8214 8.59015 13.3093 9.07788 13.4313 9.67593C13.5765 10.3785 13.2803 11.0636 12.6704 11.4178C11.8167 11.9172 11.2824 12.8287 11.2824 13.8042C11.2824 14.1235 11.5437 14.3848 11.8632 14.3848C12.1826 14.3848 12.4439 14.1235 12.4439 13.8042C12.4439 13.241 12.7518 12.7126 13.2512 12.4223C14.285 11.8242 14.8135 10.6224 14.5696 9.44368C14.3547 8.39854 13.5068 7.54502 12.4556 7.32438Z" fill="currentColor"/>
<path d="M11.8714 16.3532C12.1569 16.3532 12.3883 16.1219 12.3883 15.8365C12.3883 15.5511 12.1569 15.3197 11.8714 15.3197C11.5859 15.3197 11.3545 15.5511 11.3545 15.8365C11.3545 16.1219 11.5859 16.3532 11.8714 16.3532Z" fill="currentColor"/>
</svg>
