<svg width="24" height="24" viewBox="0 0 24 24" fill="none" xmlns="http://www.w3.org/2000/svg">
<path d="M11.8999 1.1001C5.83074 1.1001 0.899902 6.03544 0.899902 12.103V22.5195C0.899902 22.8388 1.16125 23.1001 1.48068 23.1001H11.8999C17.9691 23.1001 22.8999 18.1648 22.8999 12.103C22.8999 6.04125 17.9691 1.1001 11.8999 1.1001ZM11.8999 21.9388H2.06147V12.0972C2.06147 6.67413 6.4754 2.25555 11.8999 2.25555C17.3244 2.25555 21.7383 6.66832 21.7383 12.0972C21.7441 17.5203 17.3302 21.9388 11.8999 21.9388Z" fill="currentColor"/>
<path d="M11.8884 7.26648C11.569 7.26648 11.3076 7.52776 11.3076 7.84711V13.845C11.3076 14.1643 11.569 14.4256 11.8884 14.4256C12.2078 14.4256 12.4692 14.1643 12.4692 13.845V7.84711C12.4692 7.52776 12.2136 7.26648 11.8884 7.26648Z" fill="currentColor"/>
<path d="M11.8997 16.3532C12.1852 16.3532 12.4166 16.1219 12.4166 15.8365C12.4166 15.5511 12.1852 15.3197 11.8997 15.3197C11.6142 15.3197 11.3828 15.5511 11.3828 15.8365C11.3828 16.1219 11.6142 16.3532 11.8997 16.3532Z" fill="currentColor"/>
</svg>
