<svg width="24" height="24" viewBox="0 0 24 24" fill="none" xmlns="http://www.w3.org/2000/svg">
<path d="M12.0458 23.0901H1.62082C1.30139 23.0901 1.04004 22.8289 1.04004 22.5096V12.0901C1.04004 6.02413 5.97668 1.09009 12.04 1.09009C18.1034 1.09009 23.04 6.02413 23.04 12.0901C23.04 18.1561 18.115 23.0901 12.0458 23.0901ZM2.2016 21.9291H12.04C17.4645 21.9291 21.8785 17.5175 21.8785 12.0959C21.8785 6.67426 17.4645 2.25684 12.04 2.25684C6.61554 2.25684 2.2016 6.66845 2.2016 12.0901V21.9291Z" fill="currentColor"/>
<path d="M15.5188 14.1216H4.57111C4.25168 14.1216 3.99033 13.8604 3.99033 13.5412C3.99033 13.2219 4.25168 12.9607 4.57111 12.9607H15.5188C15.8383 12.9607 16.0996 13.2219 16.0996 13.5412C16.0996 13.8604 15.8441 14.1216 15.5188 14.1216Z" fill="currentColor"/>
<path d="M12.8589 17.2098H4.57111C4.25168 17.2098 3.99033 16.9486 3.99033 16.6293C3.99033 16.31 4.25168 16.0488 4.57111 16.0488H12.8531C13.1725 16.0488 13.4338 16.31 13.4338 16.6293C13.4338 16.9486 13.1783 17.2098 12.8589 17.2098Z" fill="currentColor"/>
<path d="M9.52517 11.0338H4.57111C4.25168 11.0338 3.99033 10.7725 3.99033 10.4533C3.99033 10.134 4.25168 9.8728 4.57111 9.8728H9.52517C9.8446 9.8728 10.106 10.134 10.106 10.4533C10.106 10.7725 9.85041 11.0338 9.52517 11.0338Z" fill="currentColor"/>
</svg>
