<svg width="24" height="24" viewBox="0 0 24 24" fill="none" xmlns="http://www.w3.org/2000/svg">
<path d="M11.98 1.1001C5.91081 1.1001 0.97998 6.03544 0.97998 12.103V22.5195C0.97998 22.8388 1.24133 23.1001 1.56076 23.1001H11.98C18.0491 23.1001 22.98 18.1648 22.98 12.103C22.98 6.04125 18.0433 1.1001 11.98 1.1001ZM11.98 21.9388H2.13573V12.0972C2.13573 6.67413 6.54967 2.25555 11.9742 2.25555C17.3987 2.25555 21.8126 6.66832 21.8126 12.0972C21.8184 17.5203 17.4045 21.9388 11.98 21.9388Z" fill="currentColor"/>
<path d="M16.1559 7.95743C15.9294 7.73099 15.5635 7.73099 15.337 7.95743L12.0207 11.2728L8.70443 7.95743C8.47793 7.73099 8.11204 7.73099 7.88553 7.95743C7.65903 8.18388 7.65903 8.54967 7.88553 8.77611L11.2018 12.0915L7.88553 15.4069C7.65903 15.6333 7.65903 15.9991 7.88553 16.2256C8.00169 16.3417 8.14688 16.394 8.29789 16.394C8.44889 16.394 8.59408 16.3359 8.71024 16.2256L12.0265 12.9102L15.3428 16.2256C15.4589 16.3417 15.6041 16.394 15.7551 16.394C15.9061 16.394 16.0513 16.3359 16.1675 16.2256C16.394 15.9991 16.394 15.6333 16.1675 15.4069L12.8512 12.0915L16.1675 8.77611C16.3824 8.54967 16.3824 8.18388 16.1559 7.95743Z" fill="currentColor"/>
</svg>
