<svg width="24" height="24" viewBox="0 0 24 24" fill="none" xmlns="http://www.w3.org/2000/svg">
<path d="M12.0098 23.0901H1.59055C1.27112 23.0901 1.00977 22.8289 1.00977 22.5096V12.0901C1.00977 6.02413 5.94641 1.09009 12.0098 1.09009C18.0789 1.09009 23.0098 6.02413 23.0098 12.0901C23.0098 18.1561 18.0789 23.0901 12.0098 23.0901ZM2.17133 21.9291H12.0098C17.4343 21.9291 21.8482 17.5175 21.8482 12.0959C21.8482 6.67426 17.4343 2.25684 12.0098 2.25684C6.58527 2.25684 2.17133 6.66846 2.17133 12.0959V21.9291Z" fill="currentColor"/>
<path d="M6.92765 13.9069C5.96936 13.9069 5.1853 13.1233 5.1853 12.1655C5.1853 11.2077 5.96936 10.4241 6.92765 10.4241C7.88594 10.4241 8.66999 11.2077 8.66999 12.1655C8.66999 13.1233 7.89174 13.9069 6.92765 13.9069ZM6.92765 11.585C6.60822 11.585 6.34687 11.8462 6.34687 12.1655C6.34687 12.4848 6.60822 12.746 6.92765 12.746C7.24708 12.746 7.50843 12.4848 7.50843 12.1655C7.50843 11.8462 7.25288 11.585 6.92765 11.585Z" fill="currentColor"/>
<path d="M12.0097 13.9069C11.0514 13.9069 10.2673 13.1233 10.2673 12.1655C10.2673 11.2077 11.0514 10.4241 12.0097 10.4241C12.968 10.4241 13.752 11.2077 13.752 12.1655C13.752 13.1233 12.9738 13.9069 12.0097 13.9069ZM12.0097 11.585C11.6902 11.585 11.4289 11.8462 11.4289 12.1655C11.4289 12.4848 11.6902 12.746 12.0097 12.746C12.3291 12.746 12.5905 12.4848 12.5905 12.1655C12.5905 11.8462 12.3291 11.585 12.0097 11.585Z" fill="currentColor"/>
<path d="M17.0915 13.9069C16.1332 13.9069 15.3491 13.1233 15.3491 12.1655C15.3491 11.2077 16.1332 10.4241 17.0915 10.4241C18.0498 10.4241 18.8338 11.2077 18.8338 12.1655C18.8338 13.1233 18.0556 13.9069 17.0915 13.9069ZM17.0915 11.585C16.772 11.585 16.5107 11.8462 16.5107 12.1655C16.5107 12.4848 16.772 12.746 17.0915 12.746C17.4109 12.746 17.6722 12.4848 17.6722 12.1655C17.6722 11.8462 17.4109 11.585 17.0915 11.585Z" fill="currentColor"/>
</svg>
