<svg width="24" height="24" viewBox="0 0 24 24" fill="none" xmlns="http://www.w3.org/2000/svg">
<path d="M11.9399 1.1001C5.87078 1.1001 0.939941 6.03544 0.939941 12.103V22.5195C0.939941 22.8388 1.20129 23.1001 1.52072 23.1001H11.9399C18.0091 23.1001 22.9399 18.1648 22.9399 12.103C22.9399 6.04125 18.0091 1.1001 11.9399 1.1001ZM11.9399 21.9388H2.1015V12.0972C2.1015 6.67413 6.51544 2.25555 11.9399 2.25555C17.3644 2.25555 21.7784 6.66832 21.7784 12.0972C21.7842 17.5203 17.3644 21.9388 11.9399 21.9388Z" fill="currentColor"/>
<path d="M16.5685 7.99215L9.63393 14.919L7.456 12.283C7.25273 12.0391 6.88683 12.0043 6.6371 12.2075C6.38736 12.4107 6.35251 12.7765 6.56159 13.0262L9.15188 16.1616C9.37838 16.4345 9.82558 16.4287 10.0463 16.1558L17.3874 8.81664C17.6139 8.5902 17.6139 8.22441 17.3874 7.99796C17.1609 7.77152 16.795 7.76571 16.5685 7.99215Z" fill="currentColor"/>
</svg>
