<svg width="24" height="24" viewBox="0 0 24 24" fill="none" xmlns="http://www.w3.org/2000/svg">
<path d="M7.668 6.19263H5.87906V7.98157H7.668V6.19263Z" fill="currentColor"/>
<path d="M11.1937 6.19263H9.40476V7.98157H11.1937V6.19263Z" fill="currentColor"/>
<path d="M7.668 9.76474H5.87906V11.5537H7.668V9.76474Z" fill="currentColor"/>
<path d="M11.1937 9.76474H9.40476V11.5537H11.1937V9.76474Z" fill="currentColor"/>
<path d="M7.668 13.3369H5.87906V15.1258H7.668V13.3369Z" fill="currentColor"/>
<path d="M11.1937 13.3369H9.40476V15.1258H11.1937V13.3369Z" fill="currentColor"/>
<path d="M20.4453 10.0832H15.0726V1.72894C15.0726 1.41052 14.8121 1.14999 14.4937 1.14999H8.54211C8.22369 1.14999 7.96316 1.41052 7.96316 1.72894V2.75368H2.57895C2.26053 2.75368 2 3.0142 2 3.33263V19.6763C2 21.5926 3.55737 23.15 5.47368 23.15H6.62579H10.4468H14.4937H20.4453C20.7637 23.15 21.0242 22.8895 21.0242 22.571V10.6621C21.0242 10.3379 20.7637 10.0832 20.4453 10.0832ZM3.15789 19.6763V3.91157H8.53631C8.85473 3.91157 9.11526 3.65105 9.11526 3.33263V2.30789H13.909V21.9921H11.02V17.7253C11.02 17.4068 10.7595 17.1463 10.4411 17.1463H6.62C6.30158 17.1463 6.04105 17.4068 6.04105 17.7253V21.9921H5.47368C4.19421 21.9921 3.15789 20.95 3.15789 19.6763ZM7.20474 21.9921V18.3042H9.86789V21.9921H7.20474ZM19.8663 21.9921H15.0726V20.1858H17.4695C17.7879 20.1858 18.0484 19.9253 18.0484 19.6068C18.0484 19.2884 17.7879 19.0279 17.4695 19.0279H15.0726V17.1926H17.4695C17.7879 17.1926 18.0484 16.9321 18.0484 16.6137C18.0484 16.2953 17.7879 16.0347 17.4695 16.0347H15.0726V14.1995H17.4695C17.7879 14.1995 18.0484 13.9389 18.0484 13.6205C18.0484 13.3021 17.7879 13.0416 17.4695 13.0416H15.0726V11.2353H19.8663V21.9921Z" fill="currentColor"/>
</svg>
