<svg width="24" height="24" viewBox="0 0 24 24" fill="none" xmlns="http://www.w3.org/2000/svg">
<path fill-rule="evenodd" clip-rule="evenodd" d="M17.628 1.14999H11.6765C11.358 1.14999 11.0975 1.41052 11.0975 1.72894V2.75368H5.71908C5.40066 2.75368 5.14014 3.0142 5.14014 3.33263V19.6763C5.14014 21.5926 6.69751 23.15 8.61382 23.15H9.76592H13.587H17.6338C17.9522 23.15 18.2128 22.8895 18.2128 22.571V1.72894C18.207 1.41052 17.9522 1.14999 17.628 1.14999ZM10.3449 21.9921V18.3042H13.008V21.9921H10.3449ZM17.0491 21.9921H14.1601V17.7253C14.1601 17.4068 13.8996 17.1463 13.5812 17.1463H9.76014C9.44172 17.1463 9.18119 17.4068 9.18119 17.7253V21.9921H8.60803C7.32856 21.9921 6.29224 20.9558 6.29224 19.6763V3.91157H11.6707C11.9891 3.91157 12.2496 3.65105 12.2496 3.33263V2.30789H17.0433V21.9921H17.0491Z" fill="currentColor"/>
<path d="M10.8081 6.19263H9.0192V7.98157H10.8081V6.19263Z" fill="currentColor"/>
<path d="M14.3338 6.19263H12.5449V7.98157H14.3338V6.19263Z" fill="currentColor"/>
<path d="M10.8081 9.76474H9.0192V11.5537H10.8081V9.76474Z" fill="currentColor"/>
<path d="M14.3338 9.76474H12.5449V11.5537H14.3338V9.76474Z" fill="currentColor"/>
<path d="M10.8081 13.3369H9.0192V15.1258H10.8081V13.3369Z" fill="currentColor"/>
<path d="M14.3338 13.3369H12.5449V15.1258H14.3338V13.3369Z" fill="currentColor"/>
</svg>
