<svg width="24" height="24" viewBox="0 0 24 24" fill="none" xmlns="http://www.w3.org/2000/svg">
<path d="M3.2002 17C3.86285 17.0001 4.40039 17.5375 4.40039 18.2002C4.40038 18.8629 3.86284 19.4003 3.2002 19.4004C2.53746 19.4004 2.00001 18.8629 2 18.2002C2 17.5375 2.53745 17 3.2002 17ZM21.2002 19.4004H6.7998V17H21.2002V19.4004ZM3.2002 11C3.86285 11.0001 4.40039 11.5375 4.40039 12.2002C4.40038 12.8629 3.86284 13.4003 3.2002 13.4004C2.53746 13.4004 2.00001 12.8629 2 12.2002C2 11.5375 2.53745 11 3.2002 11ZM21.2002 13.4004H6.7998V11H21.2002V13.4004ZM3.2002 5C3.86285 5.00011 4.40039 5.53752 4.40039 6.2002C4.40038 6.86287 3.86284 7.40029 3.2002 7.40039C2.53746 7.40039 2.00001 6.86293 2 6.2002C2 5.53745 2.53745 5 3.2002 5ZM21.2002 7.40039H6.7998V5H21.2002V7.40039Z" fill="#686868"/>
</svg>
