<svg width="24" height="24" viewBox="0 0 24 24" fill="none" xmlns="http://www.w3.org/2000/svg">
<path d="M22.3009 6.03998H1.45883C1.14041 6.03998 0.879883 6.3005 0.879883 6.61893V14.5679C0.879883 15.6158 1.60936 16.49 2.58199 16.7273C2.81936 17.8794 3.84409 18.7537 5.06567 18.7537C6.26409 18.7537 7.26567 17.9142 7.5262 16.7968H16.2972C16.5636 17.9142 17.5594 18.7537 18.7578 18.7537C19.9562 18.7537 20.9578 17.9142 21.2183 16.7968H22.3009C22.6194 16.7968 22.8799 16.5363 22.8799 16.2179V6.61893C22.8799 6.3005 22.6194 6.03998 22.3009 6.03998ZM21.722 11.5863H19.5104L18.4104 10.7873V8.67998H21.7162V11.5863H21.722ZM5.06567 17.5958C4.30725 17.5958 3.68778 16.9763 3.68778 16.2179C3.68778 15.4595 4.30725 14.84 5.06567 14.84C5.82409 14.84 6.44357 15.4595 6.44357 16.2179C6.44357 16.9763 5.82409 17.5958 5.06567 17.5958ZM18.7578 17.5958C17.9994 17.5958 17.3799 16.9763 17.3799 16.2179C17.3799 15.4595 17.9994 14.84 18.7578 14.84C19.5162 14.84 20.1357 15.4595 20.1357 16.2179C20.1357 16.9763 19.5162 17.5958 18.7578 17.5958ZM21.2183 15.6389C20.952 14.5216 19.9562 13.6821 18.7578 13.6821C17.5594 13.6821 16.5578 14.5216 16.2972 15.6389H7.5262C7.25988 14.5216 6.26409 13.6821 5.06567 13.6821C3.90778 13.6821 2.94094 14.4637 2.63988 15.5231C2.28673 15.3495 2.03778 14.9847 2.03778 14.5621V7.19787H21.722V7.52787H17.8372C17.5188 7.52787 17.2583 7.7884 17.2583 8.10682V11.0884C17.2583 11.2737 17.3451 11.4473 17.4957 11.5573L18.9836 12.64C19.082 12.7095 19.2036 12.75 19.3251 12.75H21.722V15.6389H21.2183Z" fill="currentColor"/>
<path d="M6.88922 7.98523H4.44028C4.12185 7.98523 3.86133 8.24576 3.86133 8.56418V11.0131C3.86133 11.3315 4.12185 11.5921 4.44028 11.5921H6.88922C7.20764 11.5921 7.46817 11.3315 7.46817 11.0131V8.56418C7.46817 8.23997 7.20764 7.98523 6.88922 7.98523ZM6.31027 10.4342H5.01922V9.14312H6.31027V10.4342Z" fill="currentColor"/>
<path d="M11.3355 7.98523H8.88656C8.56814 7.98523 8.30762 8.24576 8.30762 8.56418V11.0131C8.30762 11.3315 8.56814 11.5921 8.88656 11.5921H11.3355C11.6539 11.5921 11.9145 11.3315 11.9145 11.0131V8.56418C11.9145 8.23997 11.6539 7.98523 11.3355 7.98523ZM10.7566 10.4342H9.46551V9.14312H10.7566V10.4342Z" fill="currentColor"/>
<path d="M15.7818 7.98523H13.3329C13.0144 7.98523 12.7539 8.24576 12.7539 8.56418V11.0131C12.7539 11.3315 13.0144 11.5921 13.3329 11.5921H15.7818C16.1002 11.5921 16.3607 11.3315 16.3607 11.0131V8.56418C16.3607 8.23997 16.1002 7.98523 15.7818 7.98523ZM15.2029 10.4342H13.9118V9.14312H15.2029V10.4342Z" fill="currentColor"/>
</svg>
