<svg width="24" height="24" viewBox="0 0 24 24" fill="none" xmlns="http://www.w3.org/2000/svg">
<path d="M18.0436 10.4879C17.9336 10.3431 17.7599 10.2562 17.5803 10.2562H13.6945V9.85665H15.3044C15.982 9.85665 16.6248 9.53234 17.036 8.99376C17.395 8.51889 17.5398 7.91082 17.4356 7.32012C17.3313 6.73521 16.9896 6.20821 16.4916 5.88391L13.0517 3.63114L17.7251 2.46133C18.0378 2.38604 18.2232 2.06753 18.1479 1.7606C18.0726 1.44788 17.7541 1.26256 17.4471 1.33784L5.52314 4.32029C5.21042 4.39558 5.02509 4.71409 5.10038 5.02102C5.16408 5.28163 5.40152 5.46115 5.66212 5.46115C5.70845 5.46115 5.75478 5.45536 5.80111 5.44378L11.5112 4.01336L15.843 6.85103C16.0746 7.00739 16.231 7.23904 16.2831 7.51702C16.3294 7.79499 16.2657 8.06718 16.0978 8.29303C15.9067 8.54205 15.6113 8.69262 15.2928 8.69262H13.1038H10.1271C9.8086 8.69262 9.548 8.95323 9.548 9.27174V10.2504H5.66212C5.48259 10.2504 5.30886 10.3373 5.19883 10.4821C2.28008 14.368 2.28008 19.2036 5.19883 23.0895C5.30886 23.2342 5.48259 23.3211 5.66212 23.3211H17.5746C17.7541 23.3211 17.9278 23.2342 18.0378 23.0895C20.9566 19.2094 20.9566 14.3795 18.0436 10.4879ZM19.005 17.7037H14.0883V11.4145H17.285C18.6633 13.3603 19.2308 15.5494 19.005 17.7037ZM10.2951 11.4145H12.93V22.1687H10.2951V11.4145ZM10.712 9.85665H12.5304V10.2562H10.712V9.85665ZM5.95748 11.4145H9.13682V17.7037H4.2317C4.01164 15.5494 4.57918 13.3603 5.95748 11.4145ZM4.42861 18.8619H9.13682V22.1687H5.95748C5.21621 21.1263 4.70658 20.0086 4.42861 18.8619ZM17.285 22.1687H14.0883V18.8619H18.8081C18.5359 20.0086 18.0263 21.1263 17.285 22.1687Z" fill="currentColor"/>
</svg>
