<svg width="24" height="24" viewBox="0 0 24 24" fill="none" xmlns="http://www.w3.org/2000/svg">
<path d="M17.366 12.4959C17.7618 12.4959 18.0826 12.175 18.0826 11.7793C18.0826 11.3835 17.7618 11.0627 17.366 11.0627C16.9703 11.0627 16.6494 11.3835 16.6494 11.7793C16.6494 12.175 16.9703 12.4959 17.366 12.4959Z" fill="currentColor"/>
<path d="M22.2256 11.9237L21.1333 11.4325C20.9129 10.525 20.4632 9.68918 19.8272 9.00523C20.0401 7.97722 20.0044 6.91326 19.7232 5.90181C19.6701 5.76484 19.5667 5.65325 19.4342 5.58974C19.18 5.46838 18.1686 5.17942 15.6836 6.57798C15.101 6.4113 14.5057 6.29338 13.9036 6.22545C14.1128 5.75009 14.2211 5.23645 14.2214 4.71708C14.2216 4.12096 14.0784 3.53354 13.8038 3.00442C13.5292 2.4753 13.1314 2.02 12.6438 1.67695C12.1563 1.33391 11.5934 1.11318 11.0026 1.03342C10.4119 0.953652 9.81061 1.01718 9.24956 1.21865C8.68851 1.42011 8.18417 1.75359 7.7791 2.19095C7.37403 2.6283 7.08012 3.1567 6.92219 3.73152C6.76426 4.30634 6.74694 4.91072 6.87169 5.49365C6.99644 6.07657 7.25959 6.62093 7.63894 7.08077C6.63925 7.52271 5.77162 8.21694 5.12117 9.09535C4.47072 9.97377 4.0598 11.0062 3.92871 12.0913C3.89028 11.7414 3.75989 11.4079 3.55078 11.1247C3.34168 10.8414 3.06132 10.6187 2.7382 10.4789C2.47881 10.3878 2.19658 10.3848 1.93533 10.4705C1.67408 10.5562 1.44843 10.7257 1.29341 10.9528C1.13339 11.1486 1.03395 11.3869 1.00726 11.6384C0.980574 11.8899 1.0278 12.1437 1.14315 12.3687C1.28861 12.6152 1.48322 12.829 1.71487 12.9971C1.94652 13.1651 2.21027 13.2837 2.4897 13.3454C2.40814 13.5007 2.29054 13.6343 2.14676 13.7348C2.00297 13.8354 1.83718 13.9 1.66327 13.9233C1.51 13.9233 1.36301 13.9842 1.25462 14.0926C1.14624 14.201 1.08536 14.348 1.08536 14.5012C1.08536 14.6545 1.14624 14.8015 1.25462 14.9099C1.36301 15.0183 1.51 15.0792 1.66327 15.0792C2.11682 15.0354 2.54867 14.8639 2.90873 14.5847C3.26879 14.3054 3.54231 13.9298 3.69755 13.5014H3.89404C3.99999 14.6918 4.35091 15.8473 4.92475 16.8956C5.49859 17.9438 6.28297 18.8621 7.22863 19.5927V20.3729C7.22863 20.9001 7.43808 21.4058 7.81091 21.7786C8.18374 22.1515 8.6894 22.3609 9.21667 22.3609H10.8291C10.9823 22.3609 11.1293 22.3 11.2377 22.1916C11.3461 22.0833 11.407 21.9363 11.407 21.783V20.6272C12.1863 20.6774 12.9682 20.6774 13.7475 20.6272C13.8105 21.1057 14.0449 21.5452 14.4074 21.8641C14.7698 22.1829 15.2355 22.3594 15.7182 22.3609H17.3711C17.5244 22.3609 17.6713 22.3 17.7797 22.1916C17.8881 22.0833 17.949 21.9363 17.949 21.783V19.3095C19.0569 18.6188 19.9778 17.6661 20.6305 16.5355L22.1678 15.9576C22.411 15.8672 22.621 15.7048 22.7696 15.4921C22.9183 15.2795 22.9986 15.0266 23 14.7671V13.0333C22.9885 12.7942 22.9097 12.5632 22.7727 12.3669C22.6357 12.1706 22.446 12.017 22.2256 11.9237ZM2.17185 11.8486C2.17185 11.8197 2.13139 11.7619 2.22386 11.6405C2.31632 11.5192 2.2932 11.5654 2.3221 11.5654H2.35677C2.47476 11.6325 2.57509 11.7267 2.64945 11.8403C2.72382 11.9539 2.77009 12.0835 2.78444 12.2185C2.53892 12.1736 2.31755 12.0424 2.16028 11.8486H2.17185ZM9.22822 5.54351V5.51461H9.80613V5.55507C9.79232 5.65954 9.80231 5.76579 9.83533 5.86586C9.86836 5.96594 9.92357 6.05725 9.99685 6.13299C10.1312 6.24509 10.3016 6.30464 10.4765 6.30058C10.6595 6.31288 10.8405 6.25732 10.9851 6.14454C11.0893 6.03678 11.1475 5.89277 11.1475 5.74289C11.1475 5.59301 11.0893 5.449 10.9851 5.34123C10.8172 5.20062 10.6196 5.09985 10.4072 5.0465C10.0985 4.96606 9.81328 4.81355 9.57497 4.6015C9.47806 4.50144 9.40247 4.38276 9.3528 4.25262C9.30313 4.12248 9.28041 3.98361 9.28601 3.84443C9.27157 3.57407 9.36309 3.30874 9.54114 3.10479C9.7192 2.90084 9.96974 2.77434 10.2396 2.75216V2.17424H10.8291V2.75216C11.101 2.79175 11.3473 2.93455 11.5168 3.15093C11.6972 3.40933 11.7866 3.72037 11.7711 4.03514V4.06981H11.1642V4.02936C11.1748 3.82423 11.1179 3.62128 11.0024 3.45144C10.9533 3.38332 10.8879 3.32859 10.8122 3.29225C10.7365 3.25591 10.6529 3.23912 10.569 3.2434C10.4906 3.23293 10.4109 3.24066 10.336 3.26601C10.2611 3.29135 10.1931 3.33361 10.1372 3.38952C10.0813 3.44542 10.039 3.51346 10.0137 3.58834C9.98834 3.66323 9.98061 3.74295 9.99107 3.82131C9.98737 3.89367 9.99881 3.966 10.0247 4.03368C10.0506 4.10135 10.0903 4.16287 10.1413 4.21429C10.3127 4.34962 10.5091 4.44978 10.7192 4.50903C11.0274 4.58945 11.3112 4.74423 11.5457 4.9598C11.6405 5.05848 11.714 5.17555 11.7617 5.30379C11.8094 5.43202 11.8303 5.56869 11.8231 5.70532C11.8305 5.84557 11.8087 5.98583 11.7589 6.11717C11.7092 6.24851 11.6326 6.36805 11.5341 6.46817C11.3328 6.65982 11.0715 6.77617 10.7944 6.79759V7.31771H10.2511V6.79759C9.97325 6.77028 9.71266 6.65017 9.5114 6.45662C9.40434 6.33845 9.32288 6.1994 9.27216 6.04822C9.22144 5.89705 9.20254 5.73701 9.21667 5.57818L9.22822 5.54351ZM21.8153 14.7902C21.8162 14.8134 21.8093 14.8363 21.7957 14.8552C21.782 14.874 21.7625 14.8878 21.7401 14.8942L20.0064 15.5415C19.8672 15.5934 19.7534 15.6969 19.6885 15.8304C19.0783 16.9376 18.177 17.8568 17.0821 18.4889C16.9909 18.5388 16.9149 18.6123 16.862 18.7019C16.8091 18.7914 16.7813 18.8935 16.7816 18.9974V21.2166H15.7067C15.486 21.2166 15.2743 21.129 15.1182 20.9729C14.9622 20.8168 14.8745 20.6051 14.8745 20.3844V20.1706C14.8743 20.0667 14.852 19.9641 14.8092 19.8694C14.7663 19.7748 14.7039 19.6903 14.626 19.6216C14.493 19.5014 14.3198 19.4354 14.1405 19.4366H14.0481C13.0484 19.5273 12.0426 19.5273 11.0429 19.4366C10.9385 19.4256 10.833 19.4369 10.7334 19.4698C10.6338 19.5027 10.5423 19.5564 10.465 19.6274C10.3882 19.6955 10.3269 19.7792 10.2851 19.8728C10.2432 19.9665 10.2218 20.068 10.2222 20.1706V21.2224H9.19932C8.97861 21.2224 8.76694 21.1347 8.61087 20.9787C8.4548 20.8226 8.36713 20.6109 8.36713 20.3902V19.3326C8.36672 19.2458 8.34678 19.1602 8.30876 19.0822C8.27074 19.0041 8.21562 18.9357 8.14751 18.8819C5.83584 17.0672 4.74357 14.6457 5.07299 12.2473C5.17776 11.3486 5.51697 10.4933 6.05659 9.76703C6.59621 9.04077 7.31729 8.46914 8.14751 8.10946C8.31511 8.04011 8.48271 7.98232 8.64452 7.92453C8.77167 7.99966 8.90458 8.06323 9.0375 8.1268C8.62613 8.24618 8.23609 8.4295 7.88167 8.67005C7.7589 8.76018 7.67668 8.89512 7.65288 9.04555C7.62907 9.19597 7.6656 9.34971 7.75452 9.47335C7.84466 9.59611 7.97961 9.67833 8.13004 9.70214C8.28046 9.72595 8.4342 9.68942 8.55784 9.60049C9.21541 9.20708 9.97047 9.0068 10.7366 9.02258C11.501 9.006 12.2544 9.20638 12.9096 9.60049C13.0087 9.67228 13.1281 9.71073 13.2505 9.71029C13.3713 9.70909 13.4887 9.67006 13.5862 9.59869C13.6837 9.52733 13.7563 9.42721 13.794 9.31241C13.8316 9.19761 13.8323 9.07391 13.796 8.95869C13.7597 8.84347 13.6882 8.74252 13.5915 8.67005C13.147 8.37847 12.6566 8.16357 12.1409 8.03433C12.5121 7.84843 12.8499 7.60238 13.1407 7.30616L13.5222 7.34083C14.2065 7.40331 14.8825 7.53695 15.5391 7.7396C15.6181 7.7686 15.7024 7.78001 15.7863 7.77302C15.8701 7.76603 15.9514 7.74081 16.0245 7.69914C16.8325 7.15155 17.7491 6.78488 18.7119 6.62421C18.8234 7.44646 18.7882 8.28198 18.6078 9.09192C18.5853 9.19861 18.5934 9.30949 18.6313 9.41175C18.6691 9.51402 18.7351 9.60349 18.8217 9.66984C19.4519 10.2821 19.8795 11.0727 20.0468 11.9353C20.0645 12.0259 20.1036 12.111 20.161 12.1834C20.2183 12.2558 20.2921 12.3134 20.3763 12.3514L21.7228 12.964C21.7431 12.9728 21.7605 12.9874 21.7728 13.0058C21.785 13.0242 21.7918 13.0458 21.7922 13.068L21.8153 14.7902Z" fill="currentColor"/>
</svg>
