<svg width="24" height="24" viewBox="0 0 24 24" fill="none" xmlns="http://www.w3.org/2000/svg">
<path d="M17.3877 12.2757C17.7841 12.2757 18.1054 11.9544 18.1054 11.558C18.1054 11.1616 17.7841 10.8403 17.3877 10.8403C16.9913 10.8403 16.6699 11.1616 16.6699 11.558C16.6699 11.9544 16.9913 12.2757 17.3877 12.2757Z" fill="currentColor"/>
<path d="M10.0133 3.74974C10.0133 3.50085 9.85706 3.3735 9.53292 3.3735H8.9541V4.12597H9.53292C9.85706 4.12597 10.0133 3.99863 10.0133 3.74974Z" fill="currentColor"/>
<path d="M9.6021 4.59477H8.93066V5.35881H9.6021C9.73385 5.36735 9.86456 5.33059 9.97254 5.25463C10.0113 5.21858 10.0417 5.17454 10.0616 5.12556C10.0816 5.07659 10.0907 5.02385 10.0883 4.971C10.0911 4.91898 10.0821 4.86699 10.0621 4.81889C10.042 4.7708 10.0114 4.72783 9.97254 4.69317C9.86382 4.61925 9.73317 4.58455 9.6021 4.59477Z" fill="currentColor"/>
<path d="M22.2611 11.7027L21.1671 11.2049C20.9423 10.2992 20.4923 9.46501 19.859 8.77968C20.07 7.7496 20.0323 6.68401 19.749 5.67142C19.6972 5.53524 19.5959 5.42363 19.4654 5.35885C19.2049 5.2373 18.1977 4.94789 15.7088 6.34863C15.1254 6.1817 14.5291 6.0636 13.926 5.99555C14.1477 5.48925 14.2539 4.93993 14.2368 4.38748C14.2197 3.83503 14.0797 3.29333 13.8271 2.80172C13.5745 2.31011 13.2156 1.88093 12.7764 1.54536C12.3372 1.20979 11.8288 0.976243 11.2881 0.861693C10.7474 0.747143 10.188 0.75446 9.65042 0.883115C9.11289 1.01177 8.61076 1.25853 8.18051 1.60548C7.75025 1.95243 7.40267 2.39085 7.16301 2.8889C6.92336 3.38695 6.79763 3.93213 6.79498 4.48483C6.79329 5.34913 7.09433 6.18674 7.64585 6.85221C6.64451 7.29548 5.77524 7.99085 5.12292 8.87042C4.4706 9.74999 4.05752 10.7837 3.92403 11.8706C3.88836 11.5208 3.76017 11.1868 3.55264 10.903C3.34512 10.6192 3.06574 10.3957 2.74324 10.2557C2.48344 10.1644 2.20076 10.1614 1.93911 10.2472C1.67745 10.3331 1.45145 10.5029 1.29618 10.7303C1.13698 10.9269 1.0376 11.165 1.0099 11.4164C0.982189 11.6678 1.02732 11.9219 1.1399 12.1484C1.28756 12.3948 1.48378 12.6085 1.71662 12.7767C1.94946 12.9448 2.21406 13.0639 2.49434 13.1266C2.4119 13.2816 2.29391 13.4149 2.15004 13.5155C2.00617 13.6161 1.84051 13.6812 1.66663 13.7054C1.51312 13.7054 1.36589 13.7664 1.25734 13.875C1.14879 13.9835 1.08781 14.1307 1.08781 14.2843C1.08781 14.4378 1.14879 14.585 1.25734 14.6936C1.36589 14.8021 1.51312 14.8631 1.66663 14.8631C2.12089 14.8193 2.55341 14.6475 2.91403 14.3678C3.27465 14.0882 3.54859 13.712 3.70408 13.2829H3.90088C4.01076 14.4748 4.36444 15.6313 4.93996 16.6808C5.51548 17.7303 6.30055 18.6503 7.24646 19.3837V20.1651C7.24646 20.4266 7.29796 20.6855 7.39803 20.9271C7.49809 21.1686 7.64476 21.3881 7.82965 21.573C8.01455 21.7579 8.23405 21.9046 8.47562 22.0047C8.7172 22.1047 8.97612 22.1562 9.2376 22.1562H10.8467C11.0002 22.1562 11.1475 22.0952 11.256 21.9867C11.3646 21.8781 11.4255 21.7309 11.4255 21.5774V20.4198C12.2061 20.4701 12.9892 20.4701 13.7698 20.4198C13.8328 20.8991 14.0676 21.3393 14.4306 21.6586C14.7936 21.9779 15.2601 22.1547 15.7435 22.1562H17.399C17.5525 22.1562 17.6997 22.0952 17.8083 21.9867C17.9168 21.8781 17.9778 21.7309 17.9778 21.5774V19.1C19.0862 18.4068 20.0082 17.453 20.6635 16.3217L22.2032 15.7429C22.4349 15.6491 22.634 15.4894 22.7759 15.2837C22.9179 15.078 22.9965 14.8351 23.002 14.5853V12.8488C22.9999 12.6071 22.9292 12.3711 22.798 12.1681C22.6668 11.9652 22.4806 11.8038 22.2611 11.7027ZM2.16442 11.6275C2.16442 11.6275 2.11811 11.5407 2.21651 11.4191C2.31491 11.2976 2.28597 11.3439 2.30912 11.3439H2.34964C2.46781 11.4111 2.56829 11.5054 2.64277 11.6192C2.71725 11.7329 2.76359 11.8627 2.77796 11.9979C2.53626 11.9504 2.31902 11.8193 2.16442 11.6275ZM12.3574 5.08102C12.3012 5.03534 12.2328 5.00716 12.1606 4.99998L11.7728 4.91895C11.5733 4.89064 11.3852 4.80861 11.2287 4.68163C11.1754 4.62639 11.1337 4.56109 11.1058 4.48954C11.078 4.41799 11.0647 4.34162 11.0667 4.26488C11.0685 4.14263 11.1068 4.02371 11.1767 3.92338C11.2594 3.80907 11.3714 3.71911 11.5008 3.66291C11.6715 3.59335 11.8548 3.55985 12.0391 3.56451C12.237 3.56068 12.4337 3.59609 12.6179 3.6687C12.7719 3.73244 12.9044 3.83888 12.9999 3.97547L12.6411 4.32855C12.5771 4.22959 12.4896 4.14805 12.3864 4.09123C12.2843 4.03863 12.1713 4.01086 12.0565 4.0102C11.9854 4.00059 11.9134 4.00059 11.8423 4.0102C11.7947 4.0224 11.751 4.04628 11.715 4.07966C11.6844 4.11265 11.6678 4.15622 11.6686 4.20121C11.6688 4.22428 11.6747 4.24694 11.6858 4.26715C11.697 4.28736 11.7129 4.30448 11.7323 4.31697C11.7999 4.36285 11.8771 4.39255 11.9581 4.4038L12.4038 4.49641C12.5799 4.52047 12.7439 4.59946 12.8726 4.72215C12.9623 4.827 13.0115 4.96043 13.0115 5.09838C13.0142 5.23209 12.9758 5.3634 12.9015 5.47461C12.8185 5.59102 12.7041 5.68137 12.5716 5.73509C12.4009 5.80465 12.2176 5.83815 12.0333 5.83349C11.8265 5.84544 11.6194 5.81389 11.4255 5.74088C11.2497 5.6678 11.0947 5.55249 10.9741 5.40516L11.3271 5.05208C11.399 5.15865 11.494 5.24767 11.605 5.31255C11.7341 5.38408 11.8799 5.42004 12.0275 5.41673C12.1211 5.42164 12.2144 5.40377 12.2996 5.36464C12.3315 5.35159 12.3586 5.32904 12.3772 5.30004C12.3959 5.27105 12.4051 5.23702 12.4038 5.20257C12.4048 5.18021 12.4013 5.15787 12.3933 5.13695C12.3854 5.11603 12.3731 5.09698 12.3574 5.08102ZM8.34043 2.90465H9.61384C9.8905 2.88242 10.1664 2.95599 10.3952 3.11303C10.4784 3.18394 10.544 3.27304 10.5872 3.37341C10.6304 3.47378 10.6498 3.58274 10.6441 3.69185C10.6459 3.84241 10.5969 3.98919 10.5052 4.1086C10.4017 4.23613 10.2518 4.31733 10.0885 4.33434C10.268 4.35091 10.435 4.43339 10.5573 4.56587C10.6664 4.68593 10.7245 4.84367 10.7194 5.00577C10.7242 5.11706 10.702 5.22786 10.6546 5.32867C10.6072 5.42949 10.5361 5.5173 10.4473 5.58459C10.217 5.74367 9.93929 5.81924 9.66014 5.79876H8.34043V2.90465ZM21.8443 14.5853C21.8443 14.6083 21.837 14.6308 21.8235 14.6495C21.81 14.6682 21.7909 14.6822 21.7691 14.6894L20.0326 15.3377C19.8932 15.3897 19.7792 15.4933 19.7143 15.6271C19.1002 16.7339 18.1982 17.6539 17.1038 18.2897C17.0124 18.3397 16.9363 18.4134 16.8833 18.503C16.8303 18.5927 16.8025 18.6949 16.8028 18.7991V21.0217H15.7146C15.4966 21.0172 15.289 20.9274 15.1364 20.7716C14.9838 20.6157 14.8984 20.4063 14.8985 20.1882V19.9741C14.9025 19.8652 14.8822 19.7568 14.8392 19.6566C14.7961 19.5565 14.7314 19.4672 14.6496 19.3952C14.5164 19.2749 14.3429 19.2088 14.1634 19.21H14.0708C13.0675 19.2978 12.0584 19.2978 11.0551 19.21C10.9506 19.1997 10.8452 19.2114 10.7455 19.2443C10.6458 19.2772 10.5541 19.3306 10.4763 19.401C10.4014 19.4705 10.3416 19.5546 10.3007 19.6483C10.2599 19.7419 10.2389 19.843 10.239 19.9451V20.9986H9.21445C9.10478 20.9994 8.99605 20.9783 8.89457 20.9367C8.7931 20.8951 8.70091 20.8337 8.62336 20.7562C8.54581 20.6786 8.48444 20.5864 8.44283 20.485C8.40121 20.3835 8.38018 20.2748 8.38095 20.1651V19.1058C8.38055 19.0189 8.36057 18.9332 8.32249 18.855C8.28441 18.7768 8.22921 18.7083 8.161 18.6544C5.87466 16.8369 4.75174 14.4116 5.07588 12.0095C5.18815 11.1131 5.53158 10.2614 6.07246 9.53786C6.61334 8.81433 7.33307 8.24387 8.161 7.88251C8.32885 7.81305 8.49092 7.75517 8.65878 7.69729L9.05238 7.89987C8.6435 8.025 8.25391 8.20615 7.89474 8.43818C7.83317 8.48302 7.78104 8.53956 7.74131 8.60456C7.70159 8.66955 7.67506 8.74173 7.66324 8.81698C7.63936 8.96895 7.67683 9.12418 7.7674 9.24853C7.85797 9.37287 7.99423 9.45614 8.1462 9.48002C8.29817 9.50391 8.4534 9.46644 8.57775 9.37587C9.2356 8.98008 9.99237 8.77935 10.7599 8.79705C11.5255 8.78045 12.2801 8.98114 12.9363 9.37587C13.034 9.44661 13.1514 9.48506 13.272 9.48584C13.3633 9.48608 13.4534 9.4647 13.5349 9.42346C13.6164 9.38221 13.6869 9.32227 13.7408 9.24853C13.7861 9.18737 13.8189 9.11787 13.8373 9.04402C13.8557 8.97017 13.8594 8.89341 13.8481 8.81814C13.8368 8.74287 13.8108 8.67057 13.7715 8.60537C13.7323 8.54017 13.6805 8.48335 13.6193 8.43818C13.1705 8.15013 12.6779 7.93704 12.1606 7.80726C12.5325 7.62375 12.871 7.37918 13.162 7.08374L13.544 7.11847C14.2276 7.18051 14.9028 7.31438 15.5583 7.51785C15.6391 7.54869 15.7257 7.56106 15.8118 7.55404C15.8979 7.54703 15.9814 7.52082 16.0561 7.47734C16.8653 6.92889 17.7834 6.56166 18.7476 6.40073C18.8609 7.22394 18.8275 8.06069 18.6492 8.87229C18.626 8.9786 18.6333 9.0893 18.6701 9.19168C18.707 9.29406 18.772 9.38397 18.8576 9.45111C19.4945 10.0657 19.9304 10.8588 20.1079 11.7259C20.1256 11.8166 20.1647 11.9019 20.2221 11.9744C20.2795 12.0469 20.3535 12.1046 20.4378 12.1426L21.7864 12.7562C21.8068 12.7651 21.8241 12.7796 21.8365 12.7981C21.8488 12.8165 21.8555 12.8382 21.8559 12.8604L21.8443 14.5853Z" fill="currentColor"/>
</svg>
