<svg width="24" height="25" viewBox="0 0 24 25" fill="none" xmlns="http://www.w3.org/2000/svg">
<path d="M22.4914 1.12H12.0703H1.64926C1.33084 1.12 1.07031 1.38052 1.07031 1.69894V12.12V19.5884C1.07031 21.5105 2.63347 23.0679 4.54979 23.0679H12.0703H22.4914C22.8098 23.0679 23.0703 22.8074 23.0703 22.4889V12.12V1.69894C23.0703 1.38052 22.8098 1.12 22.4914 1.12ZM21.9124 11.541H12.6493V2.27789H21.9124V11.541ZM2.22821 2.27789H11.4914V11.541H2.22821V2.27789ZM2.22821 19.5884V12.6989H11.4914V21.91H4.54979C3.27031 21.91 2.22821 20.8679 2.22821 19.5884ZM21.9124 21.91H12.6493V12.6989H21.9124V21.91Z" fill="currentColor"/>
<path d="M9.8357 6.35368H7.43886V3.93368C7.43886 3.61526 7.17833 3.35474 6.85991 3.35474C6.54149 3.35474 6.28096 3.61526 6.28096 3.93368V6.35368H3.88412C3.5657 6.35368 3.30518 6.61421 3.30518 6.93263C3.30518 7.25105 3.5657 7.51158 3.88412 7.51158H6.28096V9.88526C6.28096 10.2037 6.54149 10.4642 6.85991 10.4642C7.17833 10.4642 7.43886 10.2037 7.43886 9.88526V7.51158H9.8357C10.1541 7.51158 10.4146 7.25105 10.4146 6.93263C10.4146 6.61421 10.1541 6.35368 9.8357 6.35368Z" fill="currentColor"/>
<path d="M9.37262 14.789C9.14683 14.5632 8.78209 14.5632 8.5563 14.789L6.84262 16.5027L5.1463 14.8063C4.92052 14.5806 4.55578 14.5806 4.32999 14.8063C4.1042 15.0321 4.1042 15.3969 4.32999 15.6227L6.0263 17.319L4.34736 18.9979C4.12157 19.2237 4.12157 19.5884 4.34736 19.8142C4.46315 19.93 4.60788 19.9821 4.75841 19.9821C4.90894 19.9821 5.05367 19.9242 5.16946 19.8142L6.84841 18.1353L8.54473 19.8316C8.66052 19.9474 8.80525 19.9995 8.95578 19.9995C9.10631 19.9995 9.25104 19.9416 9.36683 19.8316C9.59262 19.6058 9.59262 19.2411 9.36683 19.0153L7.67052 17.319L9.3842 15.6053C9.59841 15.3853 9.59841 15.0148 9.37262 14.789Z" fill="currentColor"/>
<path d="M14.2992 7.48846H20.2565C20.575 7.48846 20.8355 7.22793 20.8355 6.90951C20.8355 6.59109 20.575 6.33057 20.2565 6.33057H14.2992C13.9807 6.33057 13.7202 6.59109 13.7202 6.90951C13.7202 7.22793 13.9807 7.48846 14.2992 7.48846Z" fill="currentColor"/>
<path d="M14.2992 16.3984H20.2565C20.575 16.3984 20.8355 16.1378 20.8355 15.8194C20.8355 15.501 20.575 15.2405 20.2565 15.2405H14.2992C13.9807 15.2405 13.7202 15.501 13.7202 15.8194C13.7202 16.1378 13.9807 16.3984 14.2992 16.3984Z" fill="currentColor"/>
<path d="M14.2992 19.3683H20.2565C20.575 19.3683 20.8355 19.1078 20.8355 18.7894C20.8355 18.471 20.575 18.2104 20.2565 18.2104H14.2992C13.9807 18.2104 13.7202 18.471 13.7202 18.7894C13.7202 19.1078 13.9807 19.3683 14.2992 19.3683Z" fill="currentColor"/>
</svg>
