<svg width="24" height="25" viewBox="0 0 24 25" fill="none" xmlns="http://www.w3.org/2000/svg">
<path d="M22.8321 3.06739C22.7785 3.01267 22.7145 2.96914 22.644 2.93932C22.5734 2.90949 22.4977 2.89397 22.4211 2.89365H19.6132V1.5791C19.6132 1.42551 19.5522 1.27822 19.4436 1.16961C19.335 1.06101 19.1878 1 19.0342 1H16.3421C16.1886 1 16.0413 1.06101 15.9327 1.16961C15.8242 1.27822 15.7632 1.42551 15.7632 1.5791V2.89945H8.12105C8.09027 2.89614 8.05921 2.89614 8.02842 2.89945V1.5791C8.02842 1.42551 7.96742 1.27822 7.85885 1.16961C7.75028 1.06101 7.60302 1 7.44947 1H4.75737C4.60383 1 4.45657 1.06101 4.34799 1.16961C4.23942 1.27822 4.17842 1.42551 4.17842 1.5791V2.89365H1.57895C1.4254 2.89365 1.27814 2.95467 1.16957 3.06327C1.061 3.17187 1 3.31917 1 3.47275V19.5254C1 20.4469 1.36597 21.3307 2.01742 21.9823C2.66886 22.6339 3.55241 23 4.47368 23L22.4211 22.9653C22.5746 22.9653 22.7219 22.9042 22.8304 22.7956C22.939 22.687 23 22.5397 23 22.3862V3.47275C22.9994 3.32083 22.9391 3.17525 22.8321 3.06739ZM16.9211 2.1582H18.4553V4.35299H16.9211V2.1582ZM5.34211 2.1582H6.87631V4.35299H5.34211V2.1582ZM21.8421 21.8071L4.47368 21.8418C3.8595 21.8418 3.27047 21.5978 2.83617 21.1633C2.40188 20.7289 2.15789 20.1397 2.15789 19.5254V4.05185H4.17842V4.93209C4.17842 5.08567 4.23942 5.23297 4.34799 5.34157C4.45657 5.45018 4.60383 5.51119 4.75737 5.51119H7.44947C7.60302 5.51119 7.75028 5.45018 7.85885 5.34157C7.96742 5.23297 8.02842 5.08567 8.02842 4.93209V4.03448C8.05921 4.03774 8.09026 4.03774 8.12105 4.03448H15.7632V4.93209C15.7632 5.08567 15.8242 5.23297 15.9327 5.34157C16.0413 5.45018 16.1886 5.51119 16.3421 5.51119H19.0342C19.1878 5.51119 19.335 5.45018 19.4436 5.34157C19.5522 5.23297 19.6132 5.08567 19.6132 4.93209V4.05185H21.8421V21.8071Z" fill="currentColor"/>
<path d="M19.5261 6.94153H4.47348C4.31993 6.94153 4.17267 7.00252 4.0641 7.1111C3.95553 7.21967 3.89453 7.36693 3.89453 7.52048C3.89453 7.67402 3.95553 7.82128 4.0641 7.92985C4.17267 8.03843 4.31993 8.09942 4.47348 8.09942H19.5261C19.6797 8.09942 19.8269 8.03843 19.9355 7.92985C20.0441 7.82128 20.1051 7.67402 20.1051 7.52048C20.1051 7.36693 20.0441 7.21967 19.9355 7.1111C19.8269 7.00252 19.6797 6.94153 19.5261 6.94153Z" fill="currentColor"/>
<path d="M10.8424 15.1242C10.6743 14.9655 10.4779 14.8398 10.2635 14.7535C10.0473 14.6608 9.81548 14.6097 9.58032 14.603C9.78201 14.5696 9.97731 14.5051 10.1593 14.4119C10.3547 14.31 10.5295 14.1725 10.6745 14.0065C10.8376 13.8232 10.9652 13.6111 11.0508 13.3811C11.1485 13.1081 11.1956 12.8196 11.1898 12.5298C11.1992 12.1232 11.095 11.7221 10.8887 11.3716C10.6763 11.0157 10.3587 10.7345 9.97979 10.5667C9.50276 10.3555 8.98432 10.2546 8.46295 10.2713C7.99855 10.2642 7.53697 10.3447 7.10242 10.5087C6.70873 10.651 6.35243 10.8806 6.06032 11.1805C5.78595 11.4693 5.58708 11.8214 5.48137 12.2055L6.73189 12.7267C6.83366 12.3661 7.03419 12.0412 7.31084 11.7886C7.62438 11.5512 8.01259 11.4341 8.40505 11.4585C8.78048 11.4346 9.15152 11.5501 9.44716 11.7828C9.57223 11.8997 9.66981 12.043 9.73288 12.2022C9.79595 12.3614 9.82294 12.5326 9.8119 12.7035C9.82838 12.8914 9.80548 13.0806 9.74467 13.2591C9.68386 13.4376 9.58647 13.6014 9.45874 13.7401C9.11599 13.9949 8.69141 14.1145 8.26611 14.076H8.05189H7.8319V15.2342C7.94368 15.2261 8.0559 15.2261 8.16769 15.2342H8.48031C8.77509 15.2241 9.06926 15.2673 9.34874 15.3616C9.55873 15.4312 9.7359 15.5754 9.84663 15.767C9.96044 15.9892 10.0198 16.2353 10.0198 16.4851C10.0198 16.7348 9.96044 16.9809 9.84663 17.2031C9.72166 17.4177 9.53646 17.5909 9.314 17.7012C9.05092 17.8285 8.76086 17.8901 8.46873 17.8807C8.13219 17.8914 7.79708 17.8322 7.48452 17.707C7.22785 17.6017 7.00539 17.4273 6.84189 17.2031C6.67101 16.965 6.54901 16.6954 6.48295 16.4098L5.15137 17.0352C5.35378 17.6636 5.78039 18.1954 6.34979 18.5293C6.9762 18.8947 7.69168 19.0791 8.41663 19.0621C8.95349 19.072 9.48572 18.9612 9.974 18.7378C10.4011 18.5439 10.7659 18.2351 11.0277 17.8459C11.2887 17.445 11.4238 16.975 11.4156 16.4966C11.4157 16.2463 11.3666 15.9983 11.2708 15.767C11.1819 15.5213 11.0349 15.3008 10.8424 15.1242Z" fill="currentColor"/>
<path d="M15.7514 10.3003C15.2944 10.2804 14.8392 10.3705 14.4242 10.5629C14.0092 10.7554 13.6463 11.0447 13.3662 11.4064C12.7258 12.3636 12.4204 13.506 12.4977 14.6551C12.4181 15.8027 12.7238 16.944 13.3662 17.8981C13.6602 18.2467 14.0267 18.5269 14.4402 18.7191C14.8537 18.9113 15.3042 19.0108 15.7601 19.0108C16.2161 19.0108 16.6665 18.9113 17.08 18.7191C17.4935 18.5269 17.86 18.2467 18.1541 17.8981C18.7912 16.9418 19.0944 15.8017 19.0167 14.6551C19.0957 13.5067 18.7924 12.3643 18.1541 11.4064C17.8702 11.0444 17.5042 10.7552 17.0864 10.5628C16.6686 10.3705 16.2109 10.2805 15.7514 10.3003ZM17.413 16.4272C17.309 16.8355 17.0899 17.2053 16.7819 17.4927C16.4873 17.7219 16.1247 17.8463 15.7514 17.8463C15.3782 17.8463 15.0156 17.7219 14.7209 17.4927C14.4126 17.2074 14.1968 16.8363 14.1014 16.4272C13.8236 15.2622 13.8236 14.0481 14.1014 12.8831C14.1968 12.474 14.4126 12.1028 14.7209 11.8176C15.0156 11.5884 15.3782 11.464 15.7514 11.464C16.1247 11.464 16.4873 11.5884 16.7819 11.8176C17.0899 12.105 17.309 12.4748 17.413 12.8831C17.6908 14.0481 17.6908 15.2622 17.413 16.4272Z" fill="currentColor"/>
</svg>
