<svg width="24" height="25" viewBox="0 0 24 25" fill="none" xmlns="http://www.w3.org/2000/svg">
<path d="M22.4154 3.00265H19.6083V1.68878C19.6083 1.37044 19.3478 1.10999 19.0295 1.10999H16.3439C16.0255 1.10999 15.7651 1.37044 15.7651 1.68878V3.00843H8.02657V1.68878C8.02657 1.37044 7.76611 1.10999 7.44778 1.10999H4.76217C4.44383 1.10999 4.18337 1.37044 4.18337 1.68878V3.00843H1.5788C1.26046 3.00843 1 3.26889 1 3.58723V19.6256C1 20.5517 1.35885 21.4257 2.01868 22.0797C2.67272 22.7338 3.5467 23.0926 4.47277 23.0926H4.47856L22.4212 23.0637C22.7395 23.0637 23 22.8032 23 22.4849V3.58144C22.9942 3.2631 22.7338 3.00265 22.4154 3.00265ZM16.9169 2.26758H18.4449V4.46121H16.9169V2.26758ZM5.33518 2.26758H6.8632V4.46121H5.33518V2.26758ZM21.8366 21.9119L4.47277 21.9408C4.47277 21.9408 4.47277 21.9408 4.46699 21.9408C3.84768 21.9408 3.26888 21.6977 2.83478 21.2636C2.3949 20.8295 2.15759 20.245 2.15759 19.6256V4.16024H4.17759V5.04C4.17759 5.35834 4.43805 5.6188 4.75638 5.6188H7.44199C7.76033 5.6188 8.02079 5.35834 8.02079 5.04V4.16024H15.7593V5.04C15.7593 5.35834 16.0197 5.6188 16.3381 5.6188H19.0237C19.342 5.6188 19.6025 5.35834 19.6025 5.04V4.16024H21.8366V21.9119Z" fill="currentColor"/>
<path d="M19.5095 7.04846H4.47821C4.15987 7.04846 3.89941 7.30892 3.89941 7.62726C3.89941 7.94559 4.15987 8.20605 4.47821 8.20605H19.5095C19.8279 8.20605 20.0883 7.94559 20.0883 7.62726C20.0883 7.30892 19.8336 7.04846 19.5095 7.04846Z" fill="currentColor"/>
<path d="M19.4406 10.0408H4.55975C4.24141 10.0408 3.98096 10.3012 3.98096 10.6196V19.6025C3.98096 19.9208 4.24141 20.1813 4.55975 20.1813H19.4406C19.7589 20.1813 20.0194 19.9208 20.0194 19.6025V10.6196C20.0194 10.2954 19.7589 10.0408 19.4406 10.0408ZM5.13276 14.1618H7.70261V15.9908H5.13276V14.1618ZM8.8602 14.1618H11.4185V15.9908H8.8602V14.1618ZM11.4185 13.0042H8.8602V11.1984H11.4185V13.0042ZM12.5761 11.1984H15.1806V13.0042H12.5761V11.1984ZM11.4185 17.1484V19.0237H8.8602V17.1484H11.4185ZM12.5761 17.1484H15.1806V19.0237H12.5761V17.1484ZM12.5761 15.9908V14.1618H15.1806V15.9908H12.5761ZM16.3382 14.1618H18.856V15.9908H16.3382V14.1618ZM18.8618 13.0042H16.344V11.1984H18.8618V13.0042ZM7.70261 11.1984V13.0042H5.13276V11.1984H7.70261ZM5.13276 17.1484H7.70261V19.0237H5.13276V17.1484ZM16.3382 19.0179V17.1426H18.856V19.0179H16.3382Z" fill="currentColor"/>
</svg>
