<svg width="24" height="24" viewBox="0 0 24 24" fill="none" xmlns="http://www.w3.org/2000/svg">
<path d="M12.0001 7.72485C9.26166 7.72485 7.03271 9.9538 7.03271 12.6922C7.03271 15.4306 9.26166 17.6538 12.0001 17.6538C14.7385 17.6538 16.9675 15.4249 16.9675 12.6922C16.9675 9.94801 14.7385 7.72485 12.0001 7.72485ZM12.0001 16.4959C9.89851 16.4959 8.19061 14.788 8.19061 12.6922C8.19061 10.5906 9.89851 8.88275 12.0001 8.88275C14.1017 8.88275 15.8096 10.5906 15.8096 12.6922C15.8096 14.788 14.1017 16.4959 12.0001 16.4959Z" fill="currentColor"/>
<path d="M22.4211 4.90555H17.4189L15.8442 3.58555C15.74 3.49871 15.6068 3.45239 15.4737 3.45239H8.52632C8.39316 3.45239 8.26 3.49871 8.15579 3.58555L6.58105 4.90555H1.57895C1.26053 4.90555 1 5.16608 1 5.4845V16.8898C1 18.7829 2.56316 20.3229 4.49105 20.3229H22.4211C22.7395 20.3229 23 20.0624 23 19.744V5.4845C23 5.16608 22.7395 4.90555 22.4211 4.90555ZM21.8421 19.165H4.49105C3.20579 19.165 2.15789 18.1461 2.15789 16.8898V6.06345H6.78947C6.92263 6.06345 7.05579 6.01713 7.16 5.93029L8.73474 4.61029H15.2595L16.8342 5.93029C16.9384 6.01713 17.0716 6.06345 17.2047 6.06345H21.8363V19.165H21.8421Z" fill="currentColor"/>
<path d="M18.3397 8.70355H20.5686C20.8871 8.70355 21.1476 8.44302 21.1476 8.1246C21.1476 7.80618 20.8871 7.54565 20.5686 7.54565H18.3397C18.0213 7.54565 17.7607 7.80618 17.7607 8.1246C17.7607 8.44302 18.0213 8.70355 18.3397 8.70355Z" fill="currentColor"/>
</svg>
