<svg width="22" height="23" viewBox="0 0 22 23" fill="none" xmlns="http://www.w3.org/2000/svg">
<path d="M11 0.0799866C4.93263 0.0799866 0 5.01262 0 11.08C0 17.1474 4.93263 22.08 11 22.08C17.0674 22.08 22 17.1474 22 11.08C22 5.01841 17.0674 0.0799866 11 0.0799866ZM11 20.9221C5.57526 20.9221 1.15789 16.5047 1.15789 11.08C1.15789 5.65525 5.57526 1.23788 11 1.23788C16.4247 1.23788 20.8421 5.65525 20.8421 11.08C20.8421 16.5047 16.4305 20.9221 11 20.9221Z" fill="currentColor"/>
<path d="M15.8748 6.20523C15.649 5.97944 15.2842 5.97944 15.0585 6.20523L11 10.2636L6.94162 6.20523C6.71583 5.97944 6.35109 5.97944 6.12531 6.20523C5.89952 6.43102 5.89952 6.79575 6.12531 7.02154L10.1837 11.08L6.12531 15.1384C5.89952 15.3642 5.89952 15.7289 6.12531 15.9547C6.24109 16.0705 6.38583 16.1226 6.53635 16.1226C6.68688 16.1226 6.83162 16.0647 6.94741 15.9547L11 11.9021L15.0585 15.9605C15.1742 16.0763 15.319 16.1284 15.4695 16.1284C15.62 16.1284 15.7648 16.0705 15.8806 15.9605C16.1064 15.7347 16.1064 15.37 15.8806 15.1442L11.8221 11.0858L15.8806 7.02733C16.1006 6.79576 16.1006 6.43102 15.8748 6.20523Z" fill="currentColor"/>
</svg>
