<svg width="22" height="22" viewBox="0 0 22 22" fill="none" xmlns="http://www.w3.org/2000/svg">
<path d="M0.89219 21.7776C1.04557 21.931 1.23728 22 1.43667 22C1.63606 22 1.82778 21.9233 1.98116 21.7776L11.2911 12.46L20.6087 21.7776C20.762 21.931 20.9538 22 21.1532 22C21.3525 22 21.5443 21.9233 21.6976 21.7776C21.9967 21.4785 21.9967 20.9954 21.6976 20.6963L12.38 11.3787L21.6976 2.06112C21.9967 1.76204 21.9967 1.2789 21.6976 0.979816C21.3986 0.680733 20.9154 0.680733 20.6163 0.979816L11.2911 10.2897L1.97349 0.972146C1.6744 0.673062 1.19127 0.673062 0.89219 0.972146C0.593106 1.27123 0.593106 1.75437 0.89219 2.05345L10.2098 11.371L0.89219 20.6886C0.593106 20.9877 0.593106 21.4785 0.89219 21.7776Z" fill="currentColor"/>
</svg>
