<svg width="24" height="24" viewBox="0 0 24 24" fill="none" xmlns="http://www.w3.org/2000/svg">
<path d="M20.6205 9.85107L18.5653 9.48054C17.9226 9.36475 17.3147 9.12739 16.7647 8.77423L14.7037 7.45423C14.4258 7.27475 14.1305 7.12423 13.8237 6.99686C13.1521 6.71896 12.4458 6.58002 11.7163 6.58002H8.01684C7.43789 6.58002 6.87632 6.69581 6.34947 6.92739L5.97316 7.08949C5.55632 7.26896 5.17421 7.51212 4.83842 7.81318L4.37526 8.22423C4.01632 8.54265 3.57632 8.78002 3.11316 8.9016C2.86421 8.96528 2.60368 9.00002 2.34316 9.00002H1.57895C1.26053 9.00002 1 9.26054 1 9.57896V13.6258C1 14.6737 1.72947 15.5479 2.70211 15.7853C2.93947 16.949 3.96421 17.8232 5.18579 17.8232C6.38421 17.8232 7.38579 16.9837 7.64632 15.8663H16.4174C16.6837 16.9837 17.6795 17.8232 18.8779 17.8232C20.0763 17.8232 21.0779 16.9837 21.3384 15.8663H22.4211C22.7395 15.8663 23 15.6058 23 15.2874V12.2884C23 10.9626 21.9347 9.88002 20.6205 9.85107ZM5.18579 16.6653C4.42737 16.6653 3.80789 16.0458 3.80789 15.2874C3.80789 14.529 4.42737 13.9095 5.18579 13.9095C5.94421 13.9095 6.56368 14.529 6.56368 15.2874C6.56368 16.0458 5.94421 16.6653 5.18579 16.6653ZM18.8779 16.6653C18.1195 16.6653 17.5 16.0458 17.5 15.2874C17.5 14.529 18.1195 13.9095 18.8779 13.9095C19.6363 13.9095 20.25 14.5232 20.2558 15.2758V15.2816V15.2874C20.25 16.0516 19.6363 16.6653 18.8779 16.6653ZM21.8421 14.7084H21.3384C21.0721 13.5911 20.0763 12.7516 18.8779 12.7516C17.6795 12.7516 16.6779 13.5911 16.4174 14.7084H7.64632C7.38 13.5911 6.38421 12.7516 5.18579 12.7516C4.02789 12.7516 3.06105 13.5332 2.76 14.5926C2.40684 14.419 2.15789 14.0542 2.15789 13.6374V10.1695H2.33158C2.69053 10.1695 3.04947 10.1232 3.39105 10.0363C4.03368 9.86844 4.63579 9.54423 5.13368 9.10423L5.59684 8.69317C5.84 8.47317 6.11789 8.29949 6.41895 8.16633L6.79526 8.00423C7.17737 7.83633 7.58842 7.75528 8.00526 7.75528H11.7047C12.2779 7.75528 12.8395 7.86528 13.3721 8.08528C13.6153 8.1837 13.8468 8.30528 14.0668 8.44423L16.1279 9.76423C16.8053 10.1984 17.5521 10.4879 18.3453 10.6326L20.4468 11.0148C20.4816 11.0205 20.5163 11.0263 20.5511 11.0263C21.2574 11.0263 21.8305 11.5995 21.8305 12.3058V14.7084H21.8421Z" fill="currentColor"/>
</svg>
