<svg width="24" height="24" viewBox="0 0 24 24" fill="none" xmlns="http://www.w3.org/2000/svg">
<path d="M14.0565 16.4687H4.48251C3.19826 16.4687 2.15698 15.4274 2.15698 14.1432V10.1863H20.3389V10.7764C20.3389 11.0946 20.5993 11.3549 20.9174 11.3549C21.2356 11.3549 21.4959 11.0946 21.4959 10.7764V7.06247C21.4959 5.14188 19.934 3.57996 18.0134 3.57996H1.57849C1.26032 3.57996 1 3.84028 1 4.15845V14.149C1 16.0696 2.56192 17.6315 4.48251 17.6315H14.0565C14.3747 17.6315 14.635 17.3712 14.635 17.053C14.635 16.7348 14.3747 16.4687 14.0565 16.4687ZM18.0134 4.73115C19.2977 4.73115 20.3389 5.77244 20.3389 7.05669V8.3525H2.15698V4.73115H18.0134Z" fill="currentColor"/>
<path d="M22.6242 13.287L19.5755 12.049C19.4367 11.9912 19.2805 11.9912 19.1417 12.049L16.093 13.287C15.8732 13.3737 15.7344 13.5878 15.7344 13.825V16.8678C15.7344 18.2678 16.5616 19.5057 17.8459 20.0322L19.1475 20.5586C19.2169 20.5875 19.2921 20.5991 19.3673 20.5991C19.4425 20.5991 19.5177 20.5875 19.5871 20.5586L20.8887 20.0322C22.173 19.5115 23.0002 18.2678 23.0002 16.8678V13.825C22.9829 13.5878 22.844 13.3737 22.6242 13.287ZM21.8259 16.8678C21.8259 17.7934 21.2821 18.6149 20.4375 18.9562L19.3557 19.3958L18.2739 18.9562C17.4293 18.6149 16.8856 17.7934 16.8856 16.8678V14.2126L19.3557 13.206L21.8259 14.2126V16.8678Z" fill="currentColor"/>
</svg>
