<svg width="24" height="24" viewBox="0 0 24 24" fill="none" xmlns="http://www.w3.org/2000/svg">
<path d="M14.0611 16.6289H4.48526C3.2 16.6289 2.15789 15.5868 2.15789 14.3016V10.3416H20.3542V10.8221C20.3542 11.1405 20.6147 11.401 20.9332 11.401C21.2516 11.401 21.5121 11.1405 21.5121 10.8221V7.21524C21.5121 5.29314 19.9489 3.72998 18.0268 3.72998H1.57895C1.26053 3.72998 1 3.99051 1 4.30893V14.3073C1 16.2295 2.56316 17.7926 4.48526 17.7926H14.0611C14.3795 17.7926 14.64 17.5321 14.64 17.2137C14.64 16.8952 14.3853 16.6289 14.0611 16.6289ZM18.0268 4.88208C19.3121 4.88208 20.3542 5.92419 20.3542 7.20945V8.5063H2.15789V4.88208H18.0268Z" fill="currentColor"/>
<path d="M22.4211 14.371H21.9001V14.1799C21.9001 12.8426 20.6901 11.7542 19.2022 11.7542C17.7143 11.7542 16.5043 12.8426 16.5043 14.1799V14.371H15.9311C15.6127 14.371 15.3522 14.6315 15.3522 14.9499V18.6263C15.3522 19.7494 16.2669 20.6642 17.3901 20.6642H22.4211C22.7395 20.6642 23.0001 20.4036 23.0001 20.0852V14.9499C23.0001 14.6315 22.7395 14.371 22.4211 14.371ZM17.6622 14.1799C17.6622 13.4794 18.3511 12.912 19.2022 12.912C20.0532 12.912 20.7422 13.4794 20.7422 14.1799V14.371H17.6622V14.1799ZM21.8422 19.5063H17.3901C16.9038 19.5063 16.5101 19.1126 16.5101 18.6263V15.5289H21.8422V19.5063Z" fill="currentColor"/>
<path d="M19.8099 16.7621C19.8099 16.4552 19.561 16.2063 19.2542 16.2063C18.9473 16.2063 18.6984 16.4552 18.6984 16.7621C18.6984 16.9763 18.8199 17.1558 18.9936 17.2484L18.6984 18.4237H19.8042L19.5089 17.2484C19.6942 17.1558 19.8099 16.9705 19.8099 16.7621Z" fill="currentColor"/>
</svg>
