<svg width="24" height="24" viewBox="0 0 24 24" fill="none" xmlns="http://www.w3.org/2000/svg">
<path d="M14.0668 16.4789H4.49105C3.20579 16.4789 2.16369 15.4368 2.16369 14.1515V10.1915H20.36V11.7779C20.36 12.0963 20.6205 12.3568 20.9389 12.3568C21.2574 12.3568 21.5179 12.0963 21.5179 11.7779V7.06522C21.5179 5.14311 19.9547 3.57996 18.0326 3.57996H1.57895C1.26053 3.57996 1 3.84048 1 4.1589V14.1573C1 16.0794 2.56315 17.6426 4.48526 17.6426H14.0611C14.3795 17.6426 14.64 17.3821 14.64 17.0636C14.64 16.7452 14.3853 16.4789 14.0668 16.4789ZM18.0268 4.73206C19.3121 4.73206 20.3542 5.77417 20.3542 7.05943V8.35627H2.15789V4.73206H18.0268Z" fill="currentColor"/>
<path d="M19.1846 12.9415C17.0831 12.9415 15.3694 14.6552 15.3694 16.7568C15.3694 18.8584 17.0831 20.5721 19.1846 20.5721C21.2862 20.5721 22.9999 18.8584 22.9999 16.7568C22.9999 14.6552 21.2862 12.9415 19.1846 12.9415ZM19.1846 14.0994C19.7057 14.0994 20.192 14.2557 20.6031 14.5163L16.9441 18.1752C16.6836 17.7642 16.5273 17.2778 16.5273 16.7568C16.5273 15.2921 17.7199 14.0994 19.1846 14.0994ZM19.1846 19.4142C18.6636 19.4142 18.1773 19.2578 17.7662 18.9973L21.4252 15.3384C21.6857 15.7494 21.842 16.2357 21.842 16.7568C21.842 18.2215 20.6494 19.4142 19.1846 19.4142Z" fill="currentColor"/>
</svg>
