<svg width="24" height="24" viewBox="0 0 24 24" fill="none" xmlns="http://www.w3.org/2000/svg">
<path d="M11.5287 17.8257C11.0394 17.8257 10.5568 17.638 10.1882 17.2694L1.09279 8.17403C0.536478 7.61772 0.382323 6.82681 0.677235 6.10294C0.972147 5.37906 1.6491 4.92999 2.4333 4.92999H20.624C21.4082 4.92999 22.0785 5.37906 22.3801 6.10294C22.6817 6.82681 22.5208 7.61772 21.9712 8.17403L12.8759 17.2694C12.5072 17.638 12.0179 17.8257 11.5287 17.8257ZM2.44001 6.2705C2.09148 6.2705 1.95742 6.5319 1.92391 6.61904C1.8904 6.69947 1.80326 6.98098 2.04455 7.22897L11.1399 16.3243C11.3611 16.5455 11.7163 16.5455 11.9308 16.3243L21.0262 7.22897C21.2742 6.98098 21.1803 6.69947 21.1468 6.61904C21.1133 6.53861 20.9792 6.2705 20.6307 6.2705H2.44001Z" fill="currentColor"/>
</svg>
