<svg width="24" height="24" viewBox="0 0 24 24" fill="none" xmlns="http://www.w3.org/2000/svg">
<path d="M20.6251 18.2273H2.43279C1.64852 18.2273 0.978213 17.7781 0.676571 17.0542C0.374929 16.3303 0.535805 15.5393 1.08546 14.9829L10.1816 5.88676C10.9257 5.14271 12.1322 5.14942 12.8696 5.88676L21.9658 14.9829C22.5221 15.5393 22.6763 16.3303 22.3747 17.0542C22.0864 17.7781 21.4094 18.2273 20.6251 18.2273ZM11.529 6.67103C11.3882 6.67103 11.2407 6.72466 11.1335 6.83191L2.03731 15.9281C1.78929 16.1761 1.88314 16.4576 1.91665 16.5381C1.95017 16.6185 2.08423 16.8866 2.43279 16.8866H20.6251C20.9737 16.8866 21.1078 16.6185 21.1413 16.5381C21.1748 16.4576 21.2686 16.1761 21.0206 15.9281L11.9244 6.83191C11.8172 6.73136 11.6764 6.67103 11.529 6.67103Z" fill="currentColor"/>
</svg>
