<svg width="24" height="24" viewBox="0 0 24 24" fill="none" xmlns="http://www.w3.org/2000/svg">
<path d="M22.7326 6.76088C22.4547 6.36722 22.0032 6.12986 21.5227 6.12986H4.92507L4.04511 3.8605C3.95827 3.63472 3.74407 3.48999 3.50672 3.48999H1.57892C1.26051 3.48999 1 3.7505 1 4.06891C1 4.38731 1.26051 4.64783 1.57892 4.64783H3.10726L5.16242 9.92756C5.16821 9.93914 5.174 9.94493 5.17979 9.95651L6.66182 14.0205C6.82971 14.4837 7.09601 14.8831 7.42021 15.2305C6.32605 15.352 5.46925 16.2667 5.46925 17.3956C5.46925 18.5998 6.45341 19.5839 7.65756 19.5839H8.52594C8.78066 20.5391 9.64904 21.2454 10.6795 21.2454C11.71 21.2454 12.5784 20.5391 12.8331 19.5839H14.5525C14.8072 20.5391 15.6756 21.2454 16.7061 21.2454C17.9392 21.2454 18.9465 20.2381 18.9465 19.005C18.9465 17.7719 17.9392 16.7646 16.7061 16.7646C15.6698 16.7646 14.8072 17.4709 14.5525 18.4261H12.8331C12.5784 17.4709 11.71 16.7646 10.6795 16.7646C9.64904 16.7646 8.78066 17.4709 8.52594 18.4261H7.65756C7.09022 18.4261 6.62709 17.963 6.62709 17.3956C6.62709 16.8283 7.09022 16.3651 7.65756 16.3651H10.0138H10.3437H19.508C19.7512 16.3651 19.9712 16.2146 20.0522 15.9831L22.9179 8.11555C23.0742 7.66399 23.0047 7.15454 22.7326 6.76088ZM16.7061 17.9224C17.3023 17.9224 17.7886 18.4087 17.7886 19.005C17.7886 19.6013 17.3023 20.0876 16.7061 20.0876C16.1213 20.0876 15.6466 19.6244 15.6293 19.0397C15.6293 19.0282 15.6351 19.0166 15.6351 19.005C15.6351 18.9934 15.6293 18.9818 15.6293 18.9703C15.6524 18.3856 16.1271 17.9224 16.7061 17.9224ZM10.6795 17.9224C11.2758 17.9224 11.7621 18.4087 11.7621 19.005C11.7621 19.6013 11.2758 20.0876 10.6795 20.0876C10.0948 20.0876 9.62009 19.6244 9.60273 19.0455C9.60273 19.034 9.60852 19.0224 9.60852 19.005C9.60852 18.9876 9.60273 18.9818 9.60273 18.9645C9.62009 18.3856 10.0948 17.9224 10.6795 17.9224ZM21.8179 7.72188L19.0912 15.2073H10.338H10.008C9.00065 15.2073 8.09175 14.5705 7.75019 13.6269L5.4403 7.2877H21.5227C21.6674 7.2877 21.7484 7.37453 21.789 7.42664C21.8295 7.47874 21.87 7.58294 21.8179 7.72188Z" fill="currentColor"/>
</svg>
