<svg width="24" height="24" viewBox="0 0 24 24" fill="none" xmlns="http://www.w3.org/2000/svg">
<path d="M22.6103 11.5565L22.0017 11.5505C21.7968 6.18173 17.4404 2 12.0114 2C8.73949 2 5.67249 3.60279 3.80457 6.29621C3.74432 6.38057 3.72022 6.483 3.73829 6.58544C3.75637 6.68787 3.8106 6.77825 3.90098 6.83248C4.07572 6.95299 4.31674 6.91082 4.43726 6.73607C6.16056 4.25355 8.99256 2.77127 12.0114 2.77127C17.0969 2.77127 21.2304 6.88069 21.2304 11.9301C21.2304 12.141 21.3992 12.3157 21.61 12.3157L21.8932 12.3217L20.2663 14.8043L18.6455 12.3338H18.8684C18.9709 12.3338 19.0673 12.2916 19.1456 12.2193C19.2179 12.147 19.2601 12.0446 19.2601 11.9421C19.236 7.97131 15.9822 4.74162 12.0114 4.74162C10.3001 4.74162 8.64308 5.3502 7.34157 6.45287C7.26323 6.51916 7.21503 6.61556 7.20298 6.718C7.19695 6.82043 7.22708 6.91684 7.29336 6.99517C7.43195 7.15786 7.67297 7.18196 7.83566 7.04338C8.99859 6.06121 10.4809 5.51892 12.0114 5.51892C15.4399 5.51892 18.2478 8.1581 18.4707 11.5565H17.9345C17.7899 11.5565 17.6633 11.6348 17.597 11.7614C17.5308 11.8879 17.5368 12.0386 17.6151 12.1591L19.947 15.7262C20.0193 15.8346 20.1398 15.9009 20.2724 15.9009C20.4049 15.9009 20.5254 15.8346 20.5978 15.7262L22.9357 12.1591C23.014 12.0386 23.02 11.8879 22.9537 11.7674C22.8875 11.6469 22.7489 11.5565 22.6103 11.5565Z" fill="currentColor"/>
<path d="M12.0119 16.9555C14.7475 16.9555 16.977 14.7321 16.977 11.9904C16.977 9.25484 14.7535 7.02539 12.0119 7.02539C9.27633 7.02539 7.04688 9.24881 7.04688 11.9904C7.0529 14.726 9.27633 16.9555 12.0119 16.9555ZM7.82417 11.9904C7.82417 9.68265 9.70414 7.80269 12.0119 7.80269C14.3197 7.80269 16.1997 9.68265 16.1997 11.9904C16.1997 14.2982 14.3197 16.1782 12.0119 16.1782C9.70414 16.1842 7.82417 14.3042 7.82417 11.9904Z" fill="currentColor"/>
<path d="M11.1867 14.762H11.6265V15.0934C11.6265 15.3043 11.8013 15.479 12.0122 15.479C12.2231 15.479 12.3978 15.3043 12.3978 15.0934V14.762H12.8317C13.3077 14.762 13.6873 14.3884 13.6873 13.9305V12.3759C13.6873 11.9179 13.3016 11.5444 12.8317 11.5444H11.1807C11.1204 11.5444 11.0963 11.5022 11.0963 11.4841V10.0741C11.0963 10.044 11.1264 10.0078 11.1807 10.0078H12.8317C12.8859 10.0078 12.916 10.044 12.916 10.0741V10.6345C12.916 10.8454 13.0908 11.0201 13.3016 11.0201C13.5125 11.0201 13.6873 10.8454 13.6873 10.6345V10.0741C13.6873 9.61015 13.3016 9.23657 12.8317 9.23657H12.3978V8.90517C12.3978 8.69427 12.2231 8.51953 12.0122 8.51953C11.8013 8.51953 11.6265 8.69427 11.6265 8.90517V9.23055H11.1867C10.7107 9.23055 10.3311 9.60413 10.3311 10.0681V11.4781C10.3311 11.936 10.7167 12.3096 11.1867 12.3096H12.8377C12.8979 12.3096 12.922 12.3518 12.922 12.3699V13.9244C12.922 13.9485 12.8979 13.9847 12.8377 13.9847H12.1026C12.0483 13.9726 11.964 13.9787 11.964 13.9847H11.1927C11.1325 13.9847 11.1083 13.9425 11.1083 13.9244V13.358C11.1083 13.1471 10.9336 12.9724 10.7227 12.9724C10.5118 12.9724 10.3371 13.1471 10.3371 13.358V13.9244C10.325 14.3884 10.7107 14.762 11.1867 14.762Z" fill="currentColor"/>
<path d="M19.6344 17.1786C17.9171 19.7033 15.067 21.2096 12.0121 21.2096C6.9265 21.2096 2.79297 17.0761 2.79297 11.9906V11.9363C2.79297 11.7254 2.61823 11.5507 2.40734 11.5507H2.10004L3.75104 9.03805L5.37191 11.5507H5.14896C4.93807 11.5507 4.76333 11.7254 4.76333 11.9363C4.76333 15.9313 8.01712 19.1851 12.0121 19.1851C13.8619 19.1851 15.6274 18.4861 16.9771 17.2207C17.1338 17.0761 17.1398 16.8291 16.9952 16.6724C16.8506 16.5158 16.6035 16.5097 16.4468 16.6543C15.2417 17.7871 13.663 18.4138 12.0121 18.4138C8.55942 18.4138 5.75152 15.7505 5.54665 12.328H6.08292C6.22151 12.322 6.35407 12.2436 6.42035 12.1231C6.48663 11.9966 6.4806 11.846 6.4083 11.7254L4.08244 8.11615C4.01013 8.00769 3.88962 7.94141 3.75706 7.94141C3.6245 7.94141 3.50399 8.00769 3.43168 8.11615L1.06364 11.7254C0.985313 11.846 0.979287 11.9966 1.04557 12.1231C1.11185 12.2497 1.24441 12.328 1.383 12.328H2.02773C2.20247 17.6666 6.64932 21.9869 12.0121 21.9869C15.3201 21.9869 18.4051 20.354 20.2731 17.6184C20.3333 17.5341 20.3514 17.4316 20.3333 17.3292C20.3152 17.2268 20.255 17.1424 20.1706 17.0822C19.9959 16.9556 19.7549 17.0038 19.6344 17.1786Z" fill="currentColor"/>
</svg>
