<svg width="24" height="24" viewBox="0 0 24 24" fill="none" xmlns="http://www.w3.org/2000/svg">
<path d="M19.2971 5.71997H1.37875C1.2252 5.71997 1.07795 5.78097 0.969373 5.88954C0.8608 5.99811 0.799805 6.14537 0.799805 6.29892V15.3594C0.808854 16.2779 1.17773 17.1562 1.82722 17.8057C2.47671 18.4552 3.355 18.824 4.27347 18.8331H22.2208C22.3743 18.8331 22.5216 18.7721 22.6302 18.6635C22.7387 18.5549 22.7997 18.4077 22.7997 18.2541V9.2168C22.8028 8.75624 22.7143 8.29966 22.5393 7.87363C22.3643 7.44761 22.1063 7.06063 21.7804 6.73523C21.4544 6.40983 21.067 6.15249 20.6407 5.9782C20.2144 5.8039 19.7577 5.71612 19.2971 5.71997ZM21.6418 17.7041H4.27347C3.66162 17.6966 3.07695 17.4502 2.64427 17.0176C2.21159 16.5849 1.9652 16.0002 1.95769 15.3884V6.87786H19.2971C19.914 6.87781 20.506 7.12087 20.9449 7.55435C21.3838 7.98783 21.6342 8.57681 21.6418 9.19364V17.7041Z" fill="currentColor"/>
<path d="M11.053 12.1115C11.3492 12.0687 11.6193 11.9183 11.8114 11.6888C11.9816 11.4731 12.0716 11.2051 12.0662 10.9304C12.0778 10.7279 12.0426 10.5253 11.9633 10.3386C11.884 10.1518 11.7627 9.98585 11.6088 9.85358C11.1891 9.56865 10.6845 9.43586 10.1788 9.47727H7.86304V14.8094H10.283C10.7951 14.844 11.3043 14.7076 11.7304 14.4215C11.8945 14.2958 12.0256 14.1322 12.1124 13.9446C12.1991 13.7569 12.2389 13.551 12.2283 13.3446C12.2364 13.0485 12.1308 12.7605 11.933 12.5399C11.703 12.2929 11.3893 12.1402 11.053 12.1115ZM8.9225 10.3341H10.0341C10.613 10.3341 10.9141 10.5599 10.9141 11.023C10.9141 11.4862 10.6188 11.7062 10.0341 11.7062H8.9225V10.3341ZM10.833 13.7788C10.6375 13.9167 10.4 13.9822 10.1615 13.9641H8.9225V12.563H10.1615C10.399 12.5465 10.6353 12.6097 10.833 12.7425C10.9069 12.8057 10.9652 12.885 11.0033 12.9744C11.0415 13.0638 11.0585 13.1608 11.053 13.2578C11.0577 13.3556 11.0403 13.4531 11.0022 13.5433C10.9642 13.6335 10.9063 13.714 10.833 13.7788Z" fill="currentColor"/>
<path d="M15.2967 12.4183L14.4688 12.2504C14.3216 12.2304 14.181 12.1769 14.0577 12.0941C14.0233 12.0674 13.9955 12.0332 13.9764 11.9941C13.9573 11.9549 13.9475 11.9119 13.9477 11.8683C13.9451 11.79 13.972 11.7136 14.023 11.6541C14.0941 11.5936 14.1769 11.5483 14.2662 11.521C14.3929 11.4889 14.5233 11.4733 14.654 11.4746C14.8562 11.4788 15.0545 11.5304 15.233 11.6252C15.4256 11.725 15.5876 11.875 15.7019 12.0594L16.3619 11.411C16.1883 11.1529 15.9427 10.9516 15.6556 10.832C15.3209 10.698 14.9625 10.633 14.6019 10.641C14.2629 10.6297 13.9254 10.6909 13.6119 10.8204C13.3807 10.9252 13.181 11.0889 13.033 11.2952C12.9043 11.4782 12.8356 11.6967 12.8362 11.9204C12.8309 12.0612 12.8543 12.2016 12.9051 12.333C12.9558 12.4643 13.0329 12.584 13.1314 12.6846C13.4155 12.9217 13.7606 13.0742 14.1272 13.1246L14.8393 13.2694C14.9695 13.2828 15.0926 13.3352 15.1925 13.4199C15.223 13.4476 15.2471 13.4817 15.263 13.5197C15.279 13.5577 15.2866 13.5987 15.2851 13.6399C15.2865 13.7026 15.2691 13.7643 15.235 13.8169C15.201 13.8696 15.1518 13.9108 15.094 13.9352C14.9352 14.0032 14.7631 14.0349 14.5904 14.0278C14.3219 14.0348 14.0563 13.9709 13.8204 13.8425C13.6138 13.7268 13.4373 13.5642 13.3051 13.3678L12.6625 14.0104C12.8814 14.2799 13.1639 14.4908 13.4846 14.6241C13.8372 14.7758 14.2181 14.8508 14.6019 14.8441C14.9384 14.8537 15.2733 14.7946 15.5862 14.6704C15.8193 14.5686 16.0196 14.4043 16.1651 14.1957C16.3003 13.9894 16.3708 13.7475 16.3677 13.501C16.372 13.2475 16.2811 13.0017 16.113 12.812C15.8863 12.6022 15.602 12.465 15.2967 12.4183Z" fill="currentColor"/>
</svg>
