<svg width="24" height="24" viewBox="0 0 24 24" fill="none" xmlns="http://www.w3.org/2000/svg">
<path d="M19.2972 5.71997H1.37875C1.22521 5.71997 1.07795 5.78097 0.969374 5.88954C0.8608 5.99811 0.799805 6.14537 0.799805 6.29892V15.3594C0.808854 16.2779 1.17773 17.1562 1.82723 17.8057C2.47672 18.4552 3.35501 18.8241 4.27349 18.8331H22.2209C22.3744 18.8331 22.5217 18.7721 22.6302 18.6636C22.7388 18.555 22.7998 18.4077 22.7998 18.2542V9.21681C22.7967 8.28933 22.4265 7.4008 21.7702 6.74551C21.1138 6.09022 20.2247 5.7215 19.2972 5.71997ZM21.6419 17.7042H4.27349C3.66164 17.6967 3.07696 17.4503 2.64428 17.0176C2.2116 16.5849 1.96521 16.0002 1.9577 15.3884V6.87787H19.2972C19.9141 6.87782 20.5061 7.12088 20.945 7.55436C21.3839 7.98784 21.6343 8.57682 21.6419 9.19366V17.7042Z" fill="currentColor"/>
<path d="M12.1243 11.8395C11.7898 11.7491 11.4781 11.5893 11.2095 11.3705C11.1336 11.2949 11.0738 11.2045 11.034 11.1049C10.9942 11.0054 10.9751 10.8988 10.978 10.7916C10.9646 10.5551 11.0435 10.3227 11.198 10.1432C11.291 10.0619 11.3994 9.99999 11.5167 9.96122C11.6341 9.92244 11.758 9.90753 11.8811 9.91736C12.0084 9.91077 12.1354 9.93589 12.2505 9.99045C12.3657 10.045 12.4656 10.1273 12.5411 10.23C12.7199 10.4917 12.8074 10.8051 12.7901 11.1216V11.2605H13.948V11.1158C13.976 10.5769 13.8209 10.0443 13.508 9.60473C13.2291 9.25226 12.8285 9.01683 12.3848 8.94473V7.92578H11.3948V8.94473C10.9682 9.00773 10.5749 9.2115 10.2774 9.52368C9.96305 9.87862 9.79721 10.3409 9.81428 10.8147C9.80189 11.0568 9.8403 11.2988 9.92704 11.5251C10.0138 11.7515 10.147 11.9572 10.318 12.1289C10.7184 12.4922 11.2012 12.7525 11.7248 12.8874C12.0487 12.9779 12.349 13.1379 12.6048 13.3563C12.683 13.4306 12.7446 13.5206 12.7855 13.6204C12.8264 13.7202 12.8457 13.8275 12.8422 13.9353C12.85 14.0556 12.83 14.1762 12.7838 14.2876C12.7377 14.399 12.6665 14.4983 12.5759 14.5779C12.3482 14.7534 12.0635 14.838 11.7769 14.8153C11.5032 14.826 11.2352 14.7353 11.0243 14.5605C10.915 14.4471 10.8319 14.311 10.7808 14.162C10.7298 14.0129 10.7121 13.8545 10.729 13.6979V13.5532H9.74481H9.63481L9.60007 13.6458V13.6921C9.57673 13.9659 9.61047 14.2416 9.69916 14.5017C9.78786 14.7618 9.92957 15.0006 10.1153 15.2031C10.4465 15.5204 10.8705 15.7232 11.3253 15.7821V16.6447H12.3038V15.7879C12.7613 15.7326 13.1883 15.5293 13.5195 15.2089C13.688 15.0344 13.819 14.8272 13.9046 14.6003C13.9902 14.3733 14.0286 14.1313 14.0174 13.8889C14.0296 13.6523 13.9933 13.4158 13.9106 13.1937C13.828 12.9717 13.7008 12.7689 13.5369 12.5979C13.1305 12.2399 12.6472 11.9804 12.1243 11.8395Z" fill="currentColor"/>
</svg>
