<svg width="24" height="24" viewBox="0 0 24 24" fill="none" xmlns="http://www.w3.org/2000/svg">
<path d="M11.9912 2.45459C17.2443 2.45459 21.5079 6.6774 21.5791 11.9136L22.5996 11.9624L21.4219 13.7886C20.6023 18.2541 16.6936 21.6382 11.9912 21.6382C6.70611 21.6381 2.4203 17.3639 2.40039 12.0835H1.77734L1.37598 11.7983L2.62305 9.98584C3.56609 5.67894 7.40132 2.45467 11.9912 2.45459Z" fill="white"/>
<circle cx="11.9905" cy="12.0466" r="4.63115" fill="#7866CB"/>
<path d="M3.75667 7.94128C3.88918 7.94128 4.00955 8.00771 4.08187 8.11609L6.40804 11.7255C6.48031 11.846 6.48603 11.9964 6.41976 12.1229C6.35347 12.2433 6.22136 12.322 6.08285 12.328H5.54671C5.75164 15.7503 8.55912 18.4138 12.0116 18.4139C13.6626 18.4139 15.242 17.787 16.4471 16.6542C16.6038 16.5098 16.8504 16.5161 16.995 16.6727C17.1393 16.8293 17.1337 17.076 16.9774 17.2206C15.6277 18.4859 13.8614 19.1854 12.0116 19.1854C8.01684 19.1852 4.76361 15.9311 4.76351 11.9364C4.76351 11.7255 4.93836 11.5507 5.14925 11.5507H5.37191L3.75081 9.03796L2.09945 11.5507H2.40707C2.61796 11.5507 2.79281 11.7255 2.79281 11.9364V11.9901C2.79281 17.0756 6.92615 21.2097 12.0116 21.2098C15.0665 21.2098 17.9173 19.7033 19.6346 17.1786C19.7551 17.0039 19.996 16.9554 20.1707 17.0819C20.255 17.1421 20.3147 17.2267 20.3328 17.329C20.3509 17.4313 20.3333 17.5338 20.2733 17.618C18.4054 20.3536 15.3196 21.9872 12.0116 21.9872C6.64901 21.987 2.20198 17.6665 2.02718 12.328H1.38265C1.24416 12.3279 1.112 12.2494 1.04574 12.1229C0.979488 11.9964 0.985091 11.8459 1.06331 11.7255L3.43148 8.11609C3.50374 8.00769 3.6242 7.94136 3.75667 7.94128ZM12.0116 7.02527C14.7531 7.02527 16.9762 9.25466 16.9764 11.9901C16.9764 14.7317 14.7472 16.9559 12.0116 16.9559C9.27605 16.9558 7.05274 14.7256 7.04671 11.9901C7.04689 9.24871 9.27616 7.02538 12.0116 7.02527ZM12.0116 7.80261C9.70397 7.80272 7.82423 9.68255 7.82406 11.9901C7.82406 14.3039 9.70387 16.1845 12.0116 16.1786C14.3193 16.1786 16.1991 14.2979 16.1991 11.9901C16.1989 9.68248 14.3192 7.80261 12.0116 7.80261ZM12.0116 1.99988C17.4404 2.00006 21.7969 6.18202 22.0018 11.5507L22.6102 11.5565C22.7488 11.5565 22.8877 11.647 22.9539 11.7675C23.0201 11.8879 23.0137 12.0386 22.9354 12.1591L20.5975 15.7264C20.5252 15.8347 20.4047 15.9012 20.2723 15.9012C20.1399 15.9012 20.0194 15.8347 19.9471 15.7264L17.6151 12.1591C17.5368 12.0387 17.5305 11.888 17.5965 11.7616C17.6628 11.6351 17.7898 11.5565 17.9344 11.5565H18.4705C18.2476 8.15823 15.4399 5.51862 12.0116 5.51843C10.4812 5.51843 8.99865 6.06088 7.83578 7.04285C7.67309 7.18143 7.43139 7.15768 7.29281 6.995C7.22666 6.9167 7.19694 6.81999 7.20296 6.71765C7.21506 6.61531 7.26336 6.51923 7.34164 6.453C8.64315 5.35033 10.3003 4.74109 12.0116 4.74109C15.9822 4.74128 19.2355 7.97155 19.2596 11.9423C19.2595 12.0446 19.2176 12.1474 19.1453 12.2196C19.0671 12.2918 18.9703 12.3339 18.868 12.3339H18.6453L20.2664 14.8046L21.8934 12.3212L21.6102 12.3153C21.3993 12.3153 21.2303 12.1405 21.2303 11.9296C21.2301 6.88047 17.0968 2.77156 12.0116 2.77136C8.99276 2.77136 6.16064 4.25368 4.43734 6.73621C4.31683 6.91088 4.07592 6.95236 3.90121 6.83191C3.81082 6.77768 3.7562 6.68727 3.73812 6.58484C3.7202 6.48256 3.74436 6.38001 3.80453 6.29578C5.67246 3.60252 8.7398 1.99988 12.0116 1.99988ZM12.0116 8.51941C12.2224 8.51941 12.3973 8.69426 12.3973 8.90515V9.23621H12.8319C13.3017 9.23641 13.6873 9.61027 13.6873 10.0741V10.6346C13.6873 10.8454 13.5124 11.0203 13.3016 11.0204C13.0908 11.0204 12.9159 10.8455 12.9159 10.6346V10.0741C12.9158 10.044 12.8858 10.0079 12.8319 10.0077H11.1805C11.1263 10.0077 11.0965 10.044 11.0965 10.0741V11.4843C11.0967 11.5024 11.1204 11.5448 11.1805 11.5448H12.8319C13.3017 11.545 13.6873 11.918 13.6873 12.3759V13.9305C13.6873 14.3883 13.3077 14.7614 12.8319 14.7616H12.3973V15.0936C12.3972 15.3044 12.2224 15.4794 12.0116 15.4794C11.8009 15.4791 11.6269 15.3043 11.6268 15.0936V14.7616H11.1864C10.7105 14.7615 10.3248 14.3885 10.3368 13.9247V13.3583C10.3368 13.1474 10.5116 12.9726 10.7225 12.9725C10.9334 12.9725 11.1082 13.1474 11.1082 13.3583V13.9247C11.1084 13.9429 11.1325 13.9841 11.1922 13.9843H11.9637C11.9668 13.9784 12.0492 13.9725 12.1024 13.9843H12.8377C12.8976 13.9842 12.9216 13.9488 12.9217 13.9247V12.37C12.9217 12.3519 12.8978 12.3095 12.8377 12.3094H11.1864C10.7166 12.3094 10.3311 11.9361 10.3309 11.4784V10.0682C10.3309 9.60432 10.7104 9.23043 11.1864 9.23035H11.6268V8.90515C11.6268 8.69442 11.8009 8.51966 12.0116 8.51941Z" fill="currentColor"/>
</svg>
