<svg width="24" height="24" viewBox="0 0 24 24" fill="none" xmlns="http://www.w3.org/2000/svg">
<path d="M16.9143 17.4161L15.9711 11.4619C16.6944 11.3403 17.2499 10.7096 17.2499 9.9516C17.2499 9.19358 16.7002 8.56865 15.9769 8.44135L17.221 4.73225C17.2383 4.67438 17.2441 4.6223 17.2499 4.56444C17.2499 4.55865 17.2557 4.55287 17.2557 4.54708V1.57864C17.2557 1.26039 16.9953 1 16.6771 1H15.1899C14.8717 1 14.6113 1.26039 14.6113 1.57864V2.48711H14.2815V1.57864C14.2815 1.26039 14.0211 1 13.7028 1H10.7286C10.4104 1 10.15 1.26039 10.15 1.57864V2.48711H9.82014V1.57864C9.82014 1.26039 9.55975 1 9.2415 1H7.75438C7.43613 1 7.17574 1.26039 7.17574 1.57864V4.55287C7.17574 4.55865 7.17574 4.56444 7.18153 4.57023C7.18153 4.62809 7.18731 4.68595 7.21045 4.73803L8.45453 8.44713C7.73123 8.57443 7.18153 9.19937 7.18153 9.95739C7.18153 10.7154 7.73702 11.3403 8.46032 11.4676L7.5287 17.3756H6.27884C5.96058 17.3756 5.7002 17.636 5.7002 17.9542V20.7086C5.7002 21.97 6.7244 23 7.99162 23H18.1873C18.5056 23 18.766 22.7396 18.766 22.4214V19.667C18.737 18.556 17.9558 17.6302 16.9143 17.4161ZM14.7675 8.4182H9.64653L8.54712 5.13151H15.8669L14.7675 8.4182ZM8.65127 2.15729V3.06575C8.65127 3.38401 8.91166 3.6444 9.22991 3.6444H10.717C11.0353 3.6444 11.2957 3.38401 11.2957 3.06575V2.15729H13.1126V3.06575C13.1126 3.38401 13.373 3.6444 13.6913 3.6444H15.1784C15.4966 3.6444 15.757 3.38401 15.757 3.06575V2.15729H16.0868V3.97422H8.31566V2.15729H8.65127ZM8.32146 9.9516C8.32146 9.74329 8.48926 9.57549 8.69757 9.57549H9.22991H15.1842H15.7165C15.9248 9.57549 16.0926 9.74329 16.0926 9.9516C16.0926 10.1599 15.9248 10.3277 15.7165 10.3277H8.70336C8.48926 10.3335 8.32146 10.1599 8.32146 9.9516ZM9.61182 11.4908H14.808L15.7396 17.3698H8.68599L9.61182 11.4908ZM17.5797 21.8311H7.96268C7.33775 21.8311 6.82855 21.3219 6.82855 20.697V18.5213H7.99742H16.4051H16.4398C17.0647 18.5213 17.5739 19.0305 17.5739 19.6554V21.8311H17.5797Z" fill="currentColor"/>
</svg>
