<svg width="24" height="24" viewBox="0 0 24 24" fill="none" xmlns="http://www.w3.org/2000/svg">
<path d="M17.4572 14.0245C17.1505 14.1171 16.9769 14.447 17.0695 14.7537C17.3067 15.5234 17.2836 16.1195 17.0116 16.3915C16.3403 17.0628 13.6434 16.2352 10.7728 13.3647C7.90233 10.4942 7.07474 7.79731 7.74607 7.12598C8.01229 6.85976 8.59102 6.83662 9.33759 7.05654C9.6501 7.14913 9.97419 6.96973 10.061 6.663C10.1536 6.35627 9.9742 6.02639 9.66747 5.93958C8.47528 5.58656 6.94164 5.7023 6.44971 7.05075C6.22979 7.65842 6.01566 8.27187 5.79574 8.87954C5.40799 9.97913 5.01445 11.0729 4.6267 12.1725C3.70652 14.7479 2.79212 17.329 1.87194 19.9044C1.58836 20.7031 1.30478 21.5075 1.01541 22.3061C0.940175 22.5145 0.992261 22.7518 1.14852 22.908C1.25848 23.018 1.40895 23.0759 1.55942 23.0759C1.62308 23.0759 1.68674 23.0643 1.7504 23.0411C4.32576 22.1441 6.90112 21.2471 9.47649 20.35C10.7786 19.8986 12.0808 19.4414 13.3829 18.99C14.5983 18.5675 15.8773 18.2261 17.0579 17.711C17.081 17.6994 17.1042 17.6879 17.1273 17.6821C18.4758 17.0744 18.5684 15.6912 18.1806 14.418C18.0938 14.1055 17.7697 13.9261 17.4572 14.0245ZM6.76801 9.62611C7.36411 11.1308 8.56209 12.7976 9.95105 14.1865C11.34 15.5755 13.0068 16.7735 14.5057 17.3696L2.52012 21.548L6.76801 9.62611Z" fill="currentColor"/>
<path d="M12.5028 10.5754C12.6127 10.6795 12.7574 10.7374 12.9021 10.7374C13.0526 10.7374 13.2088 10.6795 13.3188 10.558L16.6291 7.08561C16.8491 6.85411 16.8433 6.48952 16.6118 6.2696C16.3803 6.04968 16.0157 6.05546 15.7958 6.28696L12.4854 9.75936C12.2655 9.98506 12.2713 10.3554 12.5028 10.5754Z" fill="currentColor"/>
<path d="M22.9147 6.40841C22.7642 6.12484 22.4112 6.02066 22.1276 6.17692L15.0555 10.0313C14.7719 10.1818 14.6735 10.5348 14.824 10.8184C14.9282 11.0093 15.125 11.1193 15.3333 11.1193C15.4259 11.1193 15.5243 11.0961 15.6111 11.0499L22.6832 7.1897C22.961 7.03923 23.0652 6.68621 22.9147 6.40841Z" fill="currentColor"/>
<path d="M21.6123 12.3578C18.3482 10.7952 14.5575 11.8601 14.3955 11.9064C14.0888 11.9932 13.9094 12.3173 14.0019 12.624C14.0888 12.9308 14.4128 13.1102 14.7196 13.0176C14.7543 13.006 18.2441 12.0279 21.1146 13.3995C21.1956 13.44 21.2824 13.4574 21.3634 13.4574C21.5776 13.4574 21.7859 13.3359 21.8843 13.1275C22.0232 12.8382 21.9017 12.4967 21.6123 12.3578Z" fill="currentColor"/>
<path d="M10.906 10.257C10.9928 10.3033 11.0912 10.3264 11.1838 10.3264C11.3863 10.3264 11.5831 10.2165 11.6931 10.0255C11.7799 9.86925 13.817 6.11906 12.7927 1.52971C12.7232 1.21719 12.4107 1.02042 12.104 1.08987C11.7914 1.15932 11.5947 1.46605 11.6641 1.77856C12.5901 5.92808 10.6976 9.42941 10.6803 9.46414C10.524 9.7535 10.6282 10.1007 10.906 10.257Z" fill="currentColor"/>
</svg>
