<svg width="24" height="24" viewBox="0 0 24 24" fill="none" xmlns="http://www.w3.org/2000/svg">
<path d="M21.9574 7.52684C21.3321 6.22311 20.4545 5.05625 19.3752 4.09373C18.2958 3.13122 17.0363 2.39217 15.6694 1.91932C13.9632 1.33013 12.1388 1.16675 10.355 1.44339C8.57125 1.72003 6.88215 2.42831 5.43479 3.50657L5.56808 2.67819C5.59267 2.52455 5.55519 2.36744 5.4639 2.24142C5.3726 2.1154 5.23497 2.0308 5.08127 2.00621C4.92756 1.98163 4.77038 2.01909 4.64431 2.11034C4.51823 2.2016 4.43359 2.33918 4.409 2.49282L4.0265 4.89686C4.01067 4.97389 4.0107 5.05333 4.02657 5.13035C4.04245 5.20736 4.07385 5.28035 4.11885 5.34484C4.16386 5.40934 4.22152 5.464 4.28835 5.5055C4.35517 5.54699 4.42974 5.57446 4.50752 5.58622L6.46637 5.928H6.56489C6.71859 5.94106 6.87118 5.89255 6.9891 5.79315C7.10703 5.69374 7.18062 5.55159 7.19368 5.39795C7.20675 5.24432 7.15822 5.09178 7.05877 4.97391C6.95932 4.85604 6.81711 4.78248 6.66341 4.76942L5.88683 4.63619C7.19211 3.60204 8.73684 2.91298 10.3786 2.63255C12.0204 2.35212 13.7064 2.48934 15.2811 3.03155C17.748 3.89206 19.7718 5.69678 20.9076 8.04874C22.0433 10.4007 22.1979 13.1073 21.3373 15.5732C21.2875 15.7184 21.2973 15.8774 21.3647 16.0153C21.4321 16.1533 21.5515 16.2588 21.6966 16.3089C21.7557 16.332 21.8186 16.3438 21.8821 16.3436C22.0029 16.3443 22.1209 16.3073 22.2196 16.2377C22.3183 16.1681 22.3928 16.0695 22.4326 15.9555C22.9164 14.5892 23.1235 13.1405 23.0419 11.6935C22.9603 10.2465 22.5917 8.83012 21.9574 7.52684Z" fill="currentColor"/>
<path d="M20.04 19.5528C20.0246 19.4556 19.9847 19.3639 19.9241 19.2864C19.8386 19.1696 19.7125 19.089 19.5706 19.0604L17.6117 18.7244C17.458 18.6983 17.3002 18.7343 17.1731 18.8245C17.0459 18.9146 16.9598 19.0516 16.9337 19.2053C16.9075 19.3589 16.9435 19.5166 17.0337 19.6437C17.1239 19.7708 17.261 19.8569 17.4147 19.883L18.1913 20.0163C16.5193 21.3394 14.4629 22.0846 12.3311 22.1399C10.1993 22.1951 8.10702 21.5575 6.36869 20.3227C4.63037 19.0879 3.33979 17.3226 2.69082 15.2921C2.04186 13.2616 2.06955 11.0754 2.76973 9.06191C2.82045 8.91672 2.81139 8.75734 2.74455 8.61883C2.67771 8.48031 2.55856 8.37401 2.41331 8.32331C2.26806 8.27261 2.10861 8.28166 1.97004 8.34848C1.83147 8.41529 1.72512 8.53439 1.6744 8.67957C1.09605 10.3362 0.922307 12.1071 1.16768 13.8445C1.41304 15.5819 2.07041 17.2354 3.08495 18.6673C4.09949 20.0992 5.44181 21.2679 6.99997 22.0759C8.55814 22.8839 10.287 23.3079 12.0423 23.3124C14.4349 23.3083 16.7622 22.5321 18.6781 21.0995L18.539 21.9453C18.5156 22.0966 18.5531 22.2509 18.6432 22.3747C18.7333 22.4984 18.8688 22.5815 19.02 22.6057H19.1127C19.2525 22.6073 19.3881 22.5583 19.4946 22.4678C19.6011 22.3773 19.6713 22.2514 19.6923 22.1133L20.0748 19.715C20.071 19.6596 20.0593 19.6049 20.04 19.5528Z" fill="currentColor"/>
<path d="M12.0422 4.28271C10.4535 4.28271 8.90053 4.7536 7.57961 5.63584C6.25869 6.51807 5.22915 7.77202 4.6212 9.23912C4.01325 10.7062 3.85418 12.3206 4.16411 13.878C4.47404 15.4355 5.23905 16.8661 6.36241 17.989C7.48576 19.1119 8.917 19.8765 10.4751 20.1863C12.0333 20.4961 13.6483 20.3371 15.116 19.7294C16.5838 19.1217 17.8383 18.0927 18.7209 16.7723C19.6035 15.452 20.0746 13.8996 20.0746 12.3117C20.0715 10.1832 19.2243 8.14278 17.7186 6.63773C16.2129 5.13267 14.1716 4.28578 12.0422 4.28271ZM12.0422 19.182C10.6828 19.182 9.35387 18.7791 8.22356 18.0242C7.09325 17.2692 6.21227 16.1962 5.69205 14.9408C5.17182 13.6854 5.03571 12.304 5.30092 10.9713C5.56613 9.6386 6.22075 8.41442 7.182 7.45358C8.14325 6.49274 9.36797 5.8384 10.7013 5.57331C12.0346 5.30821 13.4165 5.44427 14.6725 5.96427C15.9284 6.48427 17.0019 7.36486 17.7571 8.49469C18.5124 9.62451 18.9155 10.9528 18.9155 12.3117C18.914 14.1333 18.1893 15.8799 16.9007 17.1681C15.612 18.4562 13.8646 19.1805 12.0422 19.182Z" fill="currentColor"/>
<path d="M12.3721 11.9582C11.966 11.8463 11.5886 11.6488 11.2652 11.3789C11.1631 11.2766 11.0832 11.1543 11.0303 11.0198C10.9775 10.8853 10.9529 10.7413 10.9581 10.5969C10.9394 10.4402 10.9566 10.2814 11.0082 10.1324C11.0599 9.98333 11.1447 9.84794 11.2563 9.73641C11.3679 9.62487 11.5033 9.54009 11.6524 9.48845C11.8015 9.43682 11.9604 9.41967 12.1171 9.4383C12.2852 9.43077 12.4525 9.46491 12.6042 9.53768C12.7559 9.61045 12.8872 9.7196 12.9864 9.85539C13.2022 10.1637 13.312 10.5337 13.2994 10.9097V10.9792H14.3599V10.9155C14.3797 10.3477 14.215 9.78884 13.8905 9.32244C13.5641 8.91393 13.0889 8.65146 12.5692 8.59254V7.43396H11.7288V8.59254C11.2252 8.63595 10.755 8.8627 10.4075 9.22975C10.0722 9.60899 9.89576 10.1027 9.91488 10.6085C9.90326 10.8661 9.94457 11.1235 10.0363 11.3646C10.128 11.6057 10.2681 11.8255 10.4481 12.0103C10.8908 12.4084 11.4239 12.6927 12.0012 12.8387C12.3942 12.9529 12.7579 13.1505 13.0676 13.418C13.1698 13.5184 13.2507 13.6384 13.3054 13.7708C13.3602 13.9032 13.3877 14.0452 13.3863 14.1885C13.3942 14.3474 13.3659 14.5061 13.3037 14.6525C13.2415 14.799 13.1469 14.9295 13.027 15.0342C12.7404 15.2581 12.3817 15.3694 12.0186 15.347C11.6705 15.3554 11.3311 15.2382 11.0624 15.0169C10.9252 14.8809 10.8194 14.7166 10.7523 14.5355C10.6852 14.3544 10.6585 14.1608 10.6741 13.9683V13.893H9.65988V13.9683C9.63529 14.2571 9.67102 14.5478 9.7648 14.8221C9.85858 15.0963 10.0084 15.3481 10.2046 15.5614C10.5944 15.9293 11.0965 16.1557 11.6303 16.2044V17.1718H12.4648V16.1928C12.9984 16.154 13.503 15.9355 13.8963 15.573C14.233 15.1869 14.4185 14.692 14.4185 14.1798C14.4185 13.6676 14.233 13.1727 13.8963 12.7866C13.4556 12.4015 12.9351 12.1186 12.3721 11.9582Z" fill="currentColor"/>
</svg>
