<svg width="20" height="21" viewBox="0 0 20 21" fill="none" xmlns="http://www.w3.org/2000/svg">
<path d="M5.56257 16.4496L3.75636 18.2781V8.21075H13.5773C13.8669 8.21075 14.1039 7.97294 14.1039 7.68228C14.1039 7.39162 13.8669 7.15381 13.5773 7.15381H3.2245C2.93488 7.15381 2.69791 7.39162 2.69791 7.68228V18.2728L0.891701 16.4443C0.68633 16.2382 0.354577 16.2382 0.149206 16.4443C-0.0561645 16.6504 -0.0561645 16.9834 0.149206 17.1895C0.549416 17.5964 0.954892 18.0033 1.3551 18.4103L2.23451 19.2981L2.57153 19.6416C2.71371 19.7843 2.85062 19.9851 3.0402 20.0644C3.15605 20.1172 3.29823 20.1172 3.41408 20.0644C3.60892 19.9798 3.74583 19.779 3.89328 19.631L4.24609 19.2769L5.15183 18.3627C5.54151 17.9716 5.92592 17.5806 6.3156 17.1895C6.52097 16.9834 6.52097 16.6504 6.3156 16.4443C6.11023 16.2382 5.77848 16.2382 5.5731 16.4443L5.56257 16.4496Z" fill="currentColor"/>
<path d="M19.849 3.01588C19.4593 2.61953 19.0696 2.22846 18.6747 1.83211C18.1586 1.30892 17.6583 0.754024 17.1212 0.257261C17.0686 0.209698 17.0106 0.162136 16.9422 0.135712C16.8316 0.0934345 16.7052 0.0934345 16.5946 0.135712C16.3471 0.230837 16.1049 0.574344 15.9153 0.759309L15.0991 1.58372C14.641 2.04349 14.1828 2.50855 13.7247 2.96832C13.7089 2.98417 13.6984 3.00003 13.6826 3.0106C13.4772 3.2167 13.4772 3.54964 13.6826 3.75574C13.8879 3.96185 14.225 3.96185 14.4251 3.75574L16.2313 1.92723V11.6458H6.44194C6.15231 11.6458 5.91534 11.8836 5.91534 12.1743C5.91534 12.465 6.15231 12.7028 6.44194 12.7028H16.7684C17.058 12.7028 17.295 12.465 17.295 12.1743V1.93252L19.1012 3.76103C19.2065 3.86672 19.3382 3.91957 19.4751 3.91957C19.612 3.91957 19.7436 3.86672 19.8437 3.76631C20.0491 3.56021 20.0491 3.22727 19.8437 3.02117L19.849 3.01588Z" fill="currentColor"/>
</svg>
