<svg width="24" height="24" viewBox="0 0 24 24" fill="none" xmlns="http://www.w3.org/2000/svg">
<path d="M18.2521 6.72149C18.229 6.68676 18.1942 6.6636 18.1711 6.62887C16.7067 5.06024 14.6287 4.07043 12.3135 4.07043C9.98663 4.07043 7.89132 5.0776 6.42692 6.6636C6.40955 6.68097 6.38639 6.69833 6.37482 6.72149C5.08985 8.14541 4.29688 10.0266 4.29688 12.093C4.29688 14.1595 5.08985 16.0407 6.37482 17.4588C6.40955 17.5167 6.46165 17.563 6.50795 17.6093C7.95499 19.1316 9.99241 20.0925 12.2556 20.1099H12.2614C12.2787 20.1099 12.2961 20.1099 12.3135 20.1099C12.3192 20.1099 12.3192 20.1099 12.325 20.1099C12.3366 20.1099 12.3482 20.1099 12.3656 20.1099H12.3713C14.6345 20.0925 16.6719 19.1316 18.119 17.6093C18.1711 17.5688 18.2174 17.5225 18.2521 17.4646C19.5371 16.0407 20.33 14.1595 20.33 12.093C20.33 10.0324 19.5371 8.1512 18.2521 6.72149C18.2521 6.72727 18.2521 6.72727 18.2521 6.72149ZM17.6212 16.4343C17.3144 16.2838 16.8572 16.0812 16.2783 15.8844C16.5214 15.0046 16.6835 13.9511 16.7125 12.6719H19.1435C19.0219 14.0958 18.4778 15.3924 17.6212 16.4343ZM5.47766 12.6777H7.90868C7.94341 13.9569 8.09968 15.0161 8.34278 15.8902C7.76397 16.0812 7.30671 16.2838 6.99994 16.4401C6.14329 15.3924 5.59342 14.0958 5.47766 12.6777ZM6.99994 7.75759C7.3125 7.91388 7.78713 8.12226 8.3833 8.31906C8.12863 9.1931 7.95499 10.2466 7.90868 11.52H5.47766C5.59342 10.0961 6.14329 8.79949 6.99994 7.75759ZM11.7289 7.71129C11.0748 7.7055 10.4613 7.63025 9.91138 7.52027C10.4786 6.33367 11.2079 5.74905 11.7289 5.47121V7.71129ZM11.7289 8.86895V11.52H9.0663C9.11261 10.3508 9.26889 9.39569 9.50041 8.62005C10.166 8.76476 10.9127 8.86316 11.7289 8.86895ZM11.7289 12.6777V15.3287C10.8954 15.3345 10.1313 15.4387 9.45411 15.5834C9.23995 14.8078 9.08947 13.8469 9.06053 12.6777H11.7289ZM11.7289 16.4806V18.7554C11.1963 18.5007 10.4323 17.9277 9.85929 16.6832C10.4207 16.5674 11.0516 16.4864 11.7289 16.4806ZM12.8865 16.4806C13.5637 16.4864 14.2004 16.5616 14.7676 16.6832C14.1946 17.9335 13.4248 18.5065 12.8865 18.7612V16.4806ZM12.8865 15.3229V12.6777H15.5548C15.5201 13.8527 15.3812 14.8078 15.1612 15.5834C14.4898 15.4329 13.72 15.3287 12.8865 15.3229ZM12.8865 11.52V8.86895C13.7026 8.86316 14.4551 8.76476 15.1207 8.62005C15.3465 9.39569 15.5027 10.3508 15.549 11.52H12.8865ZM12.8865 7.71129V5.47121C13.4074 5.74905 14.1367 6.33367 14.704 7.52027C14.1541 7.63025 13.5463 7.7055 12.8865 7.71129ZM14.9818 5.7722C15.6301 6.05004 16.2262 6.42628 16.753 6.87777C16.5041 6.98775 16.1973 7.1093 15.8384 7.22507C15.5838 6.64045 15.2943 6.16581 14.9818 5.7722ZM8.77689 7.22507C8.41803 7.1093 8.11127 6.98775 7.86237 6.87777C8.3891 6.42628 8.98527 6.05004 9.63355 5.7722C9.32677 6.16581 9.03736 6.64045 8.77689 7.22507ZM8.71903 16.9842C8.95055 17.5283 9.22258 17.9798 9.50041 18.3502C8.90423 18.084 8.35437 17.7309 7.86237 17.3083C8.09969 17.2099 8.3891 17.0999 8.71903 16.9842ZM15.9021 16.9842C16.2378 17.0942 16.5272 17.2099 16.7588 17.3141C16.2668 17.7367 15.7169 18.084 15.1207 18.3502C15.3985 17.9798 15.6648 17.5341 15.9021 16.9842ZM16.7125 11.52C16.6661 10.2466 16.4925 9.1931 16.2378 8.31906C16.834 8.12226 17.3086 7.91388 17.6212 7.75759C18.472 8.79949 19.0219 10.1019 19.1435 11.52H16.7125Z" fill="currentColor"/>
<path d="M22.1305 7.31188C20.8513 4.66662 18.6229 2.67543 15.8504 1.70878C12.3833 0.499025 8.52838 1.13574 5.62852 3.29478L5.76164 2.46705C5.81374 2.15449 5.59957 1.85349 5.28123 1.80719C4.96867 1.75509 4.66768 1.97505 4.62138 2.28762C4.62138 2.28762 4.23936 4.67819 4.23936 4.68977C4.21621 4.82869 4.26252 4.99655 4.34355 5.11232C4.42458 5.22808 4.56929 5.32648 4.71399 5.34964L6.67039 5.68536C6.70512 5.69115 6.73405 5.69115 6.76878 5.69115C7.04661 5.69115 7.28971 5.49435 7.33602 5.21072C7.38811 4.89815 7.17974 4.59716 6.8614 4.53927L6.08578 4.40614C8.70202 2.32235 12.2675 1.67984 15.4626 2.79699C17.9457 3.66524 19.9426 5.44225 21.0829 7.80967C22.2231 10.1771 22.3794 12.8455 21.5112 15.3287C21.407 15.6297 21.5633 15.9596 21.8701 16.0638C21.9337 16.087 21.9974 16.0985 22.0611 16.0985C22.2984 16.0985 22.5241 15.9481 22.6052 15.7107C23.5776 12.9439 23.4097 9.96293 22.1305 7.31188Z" fill="currentColor"/>
<path d="M20.2206 19.3342C20.2032 19.2358 20.1627 19.1432 20.1048 19.0679C20.018 18.958 19.8906 18.8711 19.7517 18.8422L17.7953 18.5065C17.4828 18.4544 17.1818 18.6628 17.1239 18.9811C17.0718 19.2937 17.2802 19.5947 17.5985 19.6526L18.3742 19.7857C15.7579 21.8695 12.1924 22.512 8.99157 21.3949C6.50846 20.5266 4.51153 18.7496 3.37127 16.3822C2.23101 14.0147 2.07473 11.3463 2.94295 8.86314C3.04714 8.56215 2.89086 8.23221 2.58409 8.12802C2.28311 8.02383 1.95318 8.18012 1.84899 8.4869C0.882373 11.2595 1.05023 14.2463 2.32941 16.8915C3.60859 19.5368 5.83703 21.528 8.60955 22.4946C9.78455 22.9056 11.0001 23.1024 12.2098 23.1024C14.5771 23.1024 16.9155 22.3268 18.8314 20.8913L18.6983 21.7364C18.6462 22.0489 18.8603 22.3499 19.1787 22.3962C19.2076 22.402 19.2424 22.402 19.2713 22.402C19.5491 22.402 19.798 22.1994 19.8443 21.9158L20.2263 19.5136C20.2321 19.45 20.2264 19.3921 20.2206 19.3342Z" fill="currentColor"/>
</svg>
