<svg width="24" height="24" viewBox="0 0 24 24" fill="none" xmlns="http://www.w3.org/2000/svg">
<path d="M21.9578 7.52684C21.3325 6.22311 20.4548 5.05625 19.3755 4.09373C18.2962 3.13122 17.0367 2.39217 15.6698 1.91932C13.9636 1.33013 12.1392 1.16675 10.3554 1.44339C8.57163 1.72003 6.88253 2.42831 5.43518 3.50657L5.56847 2.67819C5.59306 2.52455 5.55558 2.36744 5.46429 2.24142C5.37299 2.1154 5.23536 2.0308 5.08166 2.00621C4.92796 1.98163 4.77077 2.01909 4.6447 2.11034C4.51862 2.2016 4.43399 2.33918 4.40939 2.49282L4.0269 4.89686C4.0114 5.04566 4.04829 5.19521 4.13122 5.31975C4.21737 5.45413 4.35247 5.54971 4.50791 5.58622L6.46675 5.928H6.56527C6.71897 5.94106 6.87156 5.89255 6.98949 5.79315C7.10741 5.69374 7.181 5.55159 7.19406 5.39795C7.20713 5.24431 7.1586 5.09178 7.05915 4.97391C6.95971 4.85604 6.81749 4.78248 6.66379 4.76942L5.88721 4.63619C7.19249 3.60204 8.73721 2.91298 10.379 2.63255C12.0208 2.35212 13.7067 2.48934 15.2815 3.03155C17.7483 3.89206 19.7722 5.69678 20.9079 8.04874C22.0436 10.4007 22.1982 13.1073 21.3376 15.5732C21.2878 15.7184 21.2976 15.8774 21.365 16.0153C21.4324 16.1533 21.5518 16.2588 21.697 16.3089C21.7562 16.3315 21.819 16.3433 21.8824 16.3436C22.0032 16.3443 22.1212 16.3073 22.2199 16.2377C22.3186 16.1681 22.3931 16.0695 22.433 15.9555C22.9167 14.5892 23.1238 13.1405 23.0422 11.6935C22.9606 10.2465 22.592 8.83012 21.9578 7.52684Z" fill="currentColor"/>
<path d="M20.0399 19.5528C20.0263 19.4561 19.9884 19.3645 19.9298 19.2864C19.839 19.1726 19.7124 19.0929 19.5705 19.0604L17.6116 18.7244C17.4579 18.6983 17.3002 18.7343 17.173 18.8245C17.0458 18.9146 16.9597 19.0516 16.9336 19.2053C16.9075 19.3589 16.9435 19.5166 17.0337 19.6437C17.1239 19.7708 17.2609 19.8569 17.4146 19.883L18.1912 20.0163C16.5192 21.3394 14.4629 22.0846 12.331 22.1399C10.1992 22.1951 8.10699 21.5575 6.36867 20.3227C4.63035 19.0879 3.33978 17.3226 2.69082 15.2921C2.04185 13.2616 2.06954 11.0754 2.76972 9.06191C2.82044 8.91672 2.81139 8.75734 2.74455 8.61883C2.71145 8.55024 2.66516 8.48884 2.60833 8.43814C2.55149 8.38743 2.48522 8.34842 2.4133 8.32331C2.26805 8.27261 2.10861 8.28166 1.97004 8.34848C1.83147 8.41529 1.72512 8.53439 1.6744 8.67957C1.09605 10.3362 0.922308 12.1071 1.16768 13.8445C1.41304 15.5819 2.0704 17.2354 3.08494 18.6673C4.09948 20.0992 5.44179 21.2679 6.99995 22.0759C8.5581 22.8839 10.2869 23.3079 12.0423 23.3124C14.4349 23.3083 16.7622 22.5321 18.678 21.0995L18.5389 21.9453C18.5155 22.0966 18.553 22.2509 18.6431 22.3747C18.7333 22.4984 18.8687 22.5815 19.0199 22.6057H19.1126C19.2524 22.6073 19.388 22.5583 19.4945 22.4678C19.601 22.3773 19.6712 22.2514 19.6922 22.1133L20.0747 19.715C20.0709 19.6596 20.0592 19.6049 20.0399 19.5528Z" fill="currentColor"/>
<path d="M12.0421 20.3406C10.4535 20.3406 8.90051 19.8697 7.57959 18.9875C6.25868 18.1053 5.22915 16.8513 4.6212 15.3842C4.01325 13.9171 3.85418 12.3028 4.16411 10.7453C4.47404 9.18783 5.23905 7.75721 6.3624 6.63434C7.48574 5.51147 8.91698 4.74679 10.4751 4.43699C12.0332 4.12719 13.6483 4.28619 15.116 4.89388C16.5837 5.50158 17.8382 6.53067 18.7208 7.85102C19.6034 9.17137 20.0745 10.7237 20.0745 12.3117C20.0715 14.4401 19.2242 16.4805 17.7185 17.9856C16.2128 19.4907 14.1715 20.3375 12.0421 20.3406ZM12.0421 5.44129C10.6827 5.44129 9.35385 5.84424 8.22354 6.59916C7.09323 7.35409 6.21227 8.42709 5.69204 9.68249C5.17182 10.9379 5.03571 12.3193 5.30092 13.652C5.56612 14.9847 6.22074 16.2089 7.18198 17.1697C8.14323 18.1306 9.36794 18.7849 10.7012 19.05C12.0345 19.3151 13.4165 19.1791 14.6724 18.6591C15.9284 18.1391 17.0018 17.2585 17.7571 16.1286C18.5123 14.9988 18.9154 13.6705 18.9154 12.3117C18.9139 10.49 18.1893 8.74338 16.9006 7.45527C15.6119 6.16716 13.8646 5.44283 12.0421 5.44129Z" fill="currentColor"/>
<path d="M11.7747 12.3987C11.9089 12.324 12.0255 12.2212 12.1166 12.0975C12.2854 11.8698 12.3749 11.5931 12.3716 11.3097C12.3821 11.0992 12.3454 10.8891 12.2642 10.6946C12.183 10.5002 12.0593 10.3264 11.9022 10.1859C11.4925 9.88552 10.9888 9.74168 10.4823 9.78035H8.34961V15.104H10.5113C11.0317 15.1376 11.5483 14.9947 11.9775 14.6985C12.1524 14.5623 12.2918 14.3858 12.3836 14.184C12.4755 13.9822 12.5171 13.7613 12.5049 13.5399C12.5084 13.2319 12.3992 12.9331 12.1977 12.7C12.0813 12.5689 11.9367 12.4659 11.7747 12.3987ZM10.4185 11.9585H9.44493V10.7999H10.4185C11.1488 10.7999 11.2357 11.1359 11.2357 11.3792C11.2357 11.6225 11.1488 11.9585 10.4185 11.9585ZM11.1777 13.9802C10.9957 14.1087 10.7738 14.1682 10.5518 14.1482H9.44493V12.9143H10.5518C10.7735 12.8972 10.9944 12.9565 11.1777 13.0823C11.2416 13.1368 11.2917 13.2056 11.3239 13.2831C11.3562 13.3606 11.3696 13.4447 11.3632 13.5283C11.3701 13.6112 11.3569 13.6946 11.3246 13.7712C11.2923 13.8479 11.2419 13.9156 11.1777 13.9686V13.9802Z" fill="currentColor"/>
<path d="M15.3571 12.6826L14.4878 12.4972C14.3633 12.4866 14.2446 12.4403 14.1458 12.364C14.1239 12.343 14.1065 12.3178 14.0946 12.2899C14.0826 12.2621 14.0764 12.2321 14.0763 12.2018C14.074 12.1423 14.0948 12.0842 14.1342 12.0396C14.1897 11.9815 14.2598 11.9395 14.3371 11.9179C14.6331 11.8269 14.953 11.8539 15.2296 11.9932C15.3899 12.0799 15.518 12.216 15.5947 12.3814L15.6758 12.5551L16.4756 11.8832L16.4118 11.7789C16.2554 11.5029 16.019 11.2807 15.7338 11.1417C15.4092 10.9912 15.0541 10.9178 14.6964 10.9273C14.3823 10.9195 14.0701 10.9787 13.7807 11.1011C13.5491 11.2084 13.3494 11.3741 13.2012 11.5819C13.0648 11.7773 12.9919 12.0099 12.9926 12.2481C12.9856 12.5401 13.0939 12.8231 13.2939 13.036C13.5571 13.2737 13.8867 13.4253 14.2386 13.4704L15.0383 13.6384C15.1422 13.6525 15.2404 13.6946 15.3223 13.7601C15.3599 13.8058 15.3803 13.8631 15.3802 13.9223C15.3815 13.9679 15.3696 14.0129 15.346 14.0519C15.3224 14.091 15.288 14.1224 15.2469 14.1424C15.0987 14.2193 14.9327 14.2553 14.7659 14.2467C14.5253 14.2523 14.2874 14.1944 14.0763 14.0787C13.8955 13.9716 13.7473 13.8174 13.6474 13.6326L13.5605 13.4762L12.7607 14.1656L12.8361 14.2698C13.0379 14.5648 13.3164 14.7992 13.6416 14.9476C13.9891 15.1052 14.367 15.1843 14.7485 15.1793C15.0597 15.1868 15.3691 15.1317 15.6584 15.0171C15.9059 14.9205 16.1195 14.7533 16.2727 14.5363C16.4179 14.321 16.4928 14.066 16.4872 13.8064C16.4934 13.5445 16.4002 13.2899 16.2264 13.0939C15.9901 12.8645 15.6844 12.7198 15.3571 12.6826Z" fill="currentColor"/>
</svg>
