<svg width="22" height="23" viewBox="0 0 22 23" fill="none" xmlns="http://www.w3.org/2000/svg">
<path d="M11 0.0799866C4.93263 0.0799866 0 5.01262 0 11.08C0 17.1474 4.93263 22.08 11 22.08C17.0674 22.08 22 17.1474 22 11.08C22 5.01841 17.0674 0.0799866 11 0.0799866ZM11 20.9221C5.57526 20.9221 1.15789 16.5047 1.15789 11.08C1.15789 5.65525 5.57526 1.23788 11 1.23788C16.4247 1.23788 20.8421 5.65525 20.8421 11.08C20.8421 16.5047 16.4305 20.9221 11 20.9221Z" fill="currentColor"/>
<path d="M15.8285 6.78998L8.52218 14.0963L6.20639 11.3C6.00376 11.0568 5.63902 11.0221 5.39007 11.2247C5.14113 11.4273 5.11218 11.7921 5.31481 12.041C5.31481 12.041 8.03587 15.3237 8.03587 15.3295C8.12271 15.4337 8.26166 15.5089 8.39481 15.5263C8.55113 15.5495 8.70744 15.5031 8.83481 15.4105C8.85218 15.3989 8.86955 15.3816 8.88692 15.37L16.6448 7.61208C16.8706 7.38629 16.8706 7.02156 16.6448 6.79577C16.419 6.56998 16.0543 6.56419 15.8285 6.78998Z" fill="currentColor"/>
</svg>
