<svg width="24" height="24" viewBox="0 0 24 24" fill="none" xmlns="http://www.w3.org/2000/svg">
<path d="M20.6431 9.38985H11.3422C11.3168 9.16768 11.2762 8.9475 11.2208 8.73086H18.9263C19.0796 8.73086 19.2266 8.66996 19.3351 8.56156C19.4435 8.45315 19.5044 8.30612 19.5044 8.15281C19.5044 7.9995 19.4435 7.85247 19.3351 7.74406C19.2266 7.63565 19.0796 7.57475 18.9263 7.57475H10.7757C10.3524 6.78656 9.72761 6.12475 8.96506 5.65684C8.20251 5.18892 7.3295 4.93163 6.43506 4.91123C5.54063 4.89082 4.65679 5.10803 3.8737 5.54068C3.0906 5.97333 2.43627 6.60595 1.97746 7.37402C1.51865 8.14208 1.27178 9.01809 1.26202 9.91271C1.25226 10.8073 1.47995 11.6885 1.92189 12.4664C2.36383 13.2443 3.00419 13.8911 3.77766 14.3407C4.55113 14.7903 5.43002 15.0268 6.32468 15.0259C6.52977 15.0251 6.73454 15.0096 6.93742 14.9796V16.6502C6.93742 17.3447 7.21331 18.0108 7.70439 18.5019C8.19548 18.9929 8.86152 19.2688 9.55602 19.2688H22.6837C22.837 19.2688 22.984 19.2079 23.0924 19.0995C23.2008 18.9911 23.2617 18.8441 23.2617 18.6908V12.0084C23.2617 11.3139 22.9858 10.6479 22.4948 10.1568C22.0037 9.66573 21.3376 9.38985 20.6431 9.38985ZM2.42281 9.9679C2.42281 9.19619 2.65164 8.44179 3.08039 7.80013C3.50913 7.15847 4.11853 6.65836 4.83151 6.36304C5.54448 6.06771 6.32902 5.99045 7.08591 6.141C7.8428 6.29155 8.53805 6.66317 9.08373 7.20885C9.62942 7.75454 10.001 8.44979 10.1516 9.20668C10.3021 9.96357 10.2249 10.7481 9.92954 11.4611C9.63422 12.1741 9.13411 12.7834 8.49245 13.2122C7.85079 13.6409 7.0964 13.8698 6.32468 13.8698C5.29031 13.8683 4.29874 13.4567 3.56733 12.7253C2.83592 11.9938 2.42434 11.0023 2.42281 9.9679ZM22.1056 18.1127H9.55602C9.16814 18.1127 8.79616 17.9586 8.52189 17.6844C8.24762 17.4101 8.09353 17.0381 8.09353 16.6502V14.6964C8.96386 14.3695 9.72739 13.8093 10.3004 13.0772C10.8735 12.3451 11.2339 11.4693 11.3422 10.546H20.6431C21.031 10.546 21.403 10.7 21.6773 10.9743C21.9515 11.2486 22.1056 11.6206 22.1056 12.0084V18.1127Z" fill="currentColor"/>
<path d="M8.98322 7.89266C8.92948 7.83848 8.86553 7.79548 8.79509 7.76613C8.72465 7.73679 8.64911 7.72168 8.5728 7.72168C8.49649 7.72168 8.42093 7.73679 8.35049 7.76613C8.28005 7.79548 8.21611 7.83848 8.16237 7.89266L5.27209 10.7829L4.50328 9.86384C4.40625 9.74647 4.2668 9.67212 4.11527 9.65697C3.96374 9.64182 3.81236 9.68708 3.69401 9.78291C3.63505 9.83103 3.58617 9.89031 3.55018 9.95736C3.51419 10.0244 3.49179 10.0979 3.48427 10.1736C3.47676 10.2494 3.48426 10.3258 3.50636 10.3986C3.52846 10.4715 3.56473 10.5392 3.61307 10.598L4.76918 12.0142C4.82035 12.0758 4.88377 12.1262 4.95542 12.162C5.02706 12.1978 5.10538 12.2184 5.18538 12.2223H5.21428C5.36675 12.2201 5.5122 12.1578 5.61893 12.0489L8.9543 8.71929C9.01128 8.6674 9.05732 8.60465 9.0897 8.53471C9.12207 8.46478 9.14014 8.38908 9.14283 8.31207C9.14552 8.23505 9.13279 8.15827 9.10538 8.08625C9.07797 8.01422 9.03644 7.9484 8.98322 7.89266Z" fill="currentColor"/>
<path d="M15.4753 13.9915C15.2648 13.9302 15.0683 13.828 14.8973 13.6909C14.8514 13.6436 14.8159 13.5874 14.7931 13.5257C14.7702 13.464 14.7604 13.3982 14.7643 13.3325C14.7582 13.2604 14.7668 13.1879 14.7897 13.1194C14.8126 13.0508 14.8492 12.9876 14.8973 12.9336C15.0124 12.8345 15.1619 12.7846 15.3135 12.7949C15.3908 12.7892 15.4683 12.8038 15.5383 12.8372C15.6082 12.8707 15.6682 12.9219 15.7123 12.9857C15.8274 13.1555 15.8824 13.359 15.8684 13.5637V13.7082H16.7413V13.5637C16.7577 13.1942 16.6499 12.8299 16.4349 12.529C16.252 12.2946 15.9919 12.1327 15.7008 12.0723V11.396H14.9435V12.0781C14.6627 12.1299 14.4056 12.2695 14.2094 12.477C13.9924 12.7215 13.8785 13.0405 13.8914 13.3672C13.8843 13.5341 13.9114 13.7007 13.9711 13.8568C14.0307 14.0128 14.1217 14.1551 14.2383 14.2747C14.511 14.5193 14.8379 14.6957 15.1921 14.7892C15.4052 14.8439 15.6029 14.9467 15.7701 15.0898C15.8181 15.1351 15.8562 15.1898 15.882 15.2504C15.9079 15.3111 15.921 15.3764 15.9204 15.4424C15.9242 15.5158 15.9116 15.5891 15.8836 15.6571C15.8556 15.7251 15.8129 15.786 15.7586 15.8355C15.6142 15.9439 15.4359 15.9972 15.2557 15.9858C15.0848 15.9924 14.9177 15.9346 14.7874 15.8239C14.7201 15.7528 14.6692 15.6678 14.6383 15.575C14.6073 15.4821 14.597 15.3836 14.6082 15.2863V15.1418H13.903H13.7932L13.7585 15.2401V15.2863C13.7412 15.4752 13.7643 15.6657 13.826 15.845C13.8878 16.0244 13.987 16.1886 14.1169 16.3268C14.3337 16.5335 14.6076 16.6705 14.903 16.7199V17.2979H15.6545V16.7199C15.9518 16.6784 16.2287 16.545 16.4465 16.3384C16.5632 16.2177 16.6542 16.0744 16.7139 15.9174C16.7735 15.7604 16.8005 15.5928 16.7933 15.425C16.801 15.2608 16.7753 15.0967 16.7176 14.9426C16.66 14.7886 16.5717 14.6479 16.458 14.5291C16.1768 14.2757 15.8403 14.0916 15.4753 13.9915Z" fill="currentColor"/>
</svg>
