<svg width="24" height="24" viewBox="0 0 24 24" fill="none" xmlns="http://www.w3.org/2000/svg">
<path d="M20.6816 9.41312H11.3793C11.3513 9.18856 11.3087 8.96605 11.2518 8.74702H18.9671C19.1207 8.74702 19.268 8.68599 19.3766 8.57737C19.4853 8.46874 19.5463 8.32142 19.5463 8.1678C19.5463 8.01418 19.4853 7.86685 19.3766 7.75822C19.268 7.6496 19.1207 7.58857 18.9671 7.58857H10.8058C10.381 6.80123 9.75518 6.14051 8.99199 5.67371C8.2288 5.20691 7.35554 4.95069 6.46112 4.93114C5.56671 4.91159 4.68309 5.12941 3.90024 5.56242C3.11739 5.99543 2.46326 6.62816 2.00447 7.39619C1.54568 8.16422 1.29861 9.04012 1.28841 9.93468C1.27822 10.8293 1.50528 11.7105 1.94646 12.4888C2.38763 13.2671 3.02718 13.9146 3.79996 14.3653C4.57275 14.816 5.45117 15.0539 6.3458 15.0548C6.54915 15.0531 6.75221 15.0396 6.95398 15.0142V16.6824C6.95551 17.3778 7.23245 18.0443 7.7242 18.536C8.21594 19.0278 8.88243 19.3047 9.57786 19.3063H22.7089C22.8625 19.3063 23.0098 19.2452 23.1184 19.1366C23.2271 19.028 23.2881 18.8807 23.2881 18.727V12.037C23.2881 11.3441 23.014 10.6793 22.5257 10.1878C22.0374 9.69618 21.3745 9.41771 20.6816 9.41312ZM2.44184 9.99235C2.44184 9.21882 2.67129 8.46268 3.10116 7.8196C3.53102 7.17651 4.14198 6.6754 4.85673 6.37965C5.57149 6.0839 6.3579 6.00681 7.11648 6.15814C7.87506 6.30947 8.5717 6.68241 9.11825 7.22978C9.66481 7.77715 10.0367 8.47435 10.1869 9.23315C10.3371 9.99195 10.2589 10.7782 9.96208 11.4926C9.66527 12.2069 9.16323 12.8171 8.51952 13.246C7.8758 13.6749 7.11932 13.9032 6.3458 13.9021C5.83188 13.9021 5.323 13.8008 4.84827 13.6039C4.37353 13.4071 3.94226 13.1186 3.57913 12.7549C3.216 12.3912 2.92813 11.9596 2.73198 11.4845C2.53584 11.0095 2.43528 10.5005 2.43604 9.98656L2.44184 9.99235ZM22.1354 18.1536H9.56628C9.17762 18.1536 8.80489 17.9992 8.53007 17.7244C8.25525 17.4496 8.10085 17.0768 8.10085 16.6882V14.7304C8.97464 14.4064 9.74174 13.8469 10.3173 13.114C10.8928 12.381 11.2544 11.5031 11.3619 10.5774H20.6816C21.0702 10.5774 21.443 10.7318 21.7178 11.0066C21.9926 11.2814 22.147 11.6541 22.147 12.0428L22.1354 18.1536Z" fill="currentColor"/>
<path d="M9.00995 7.9072C8.90142 7.79932 8.75461 7.73877 8.60159 7.73877C8.44856 7.73877 8.30177 7.79932 8.19324 7.9072L5.29712 10.8033L4.53255 9.88235C4.48611 9.81831 4.42706 9.76446 4.35901 9.72411C4.29097 9.68377 4.21539 9.65779 4.13693 9.64778C4.05846 9.63776 3.97878 9.64393 3.90278 9.6659C3.82679 9.68786 3.75611 9.72515 3.69509 9.77547C3.63406 9.8258 3.58399 9.88809 3.54796 9.95851C3.51193 10.0289 3.49069 10.106 3.48558 10.1849C3.48047 10.2639 3.4916 10.343 3.51825 10.4175C3.5449 10.492 3.58651 10.5602 3.64054 10.618L4.79898 12.0371C4.85026 12.0988 4.91382 12.1492 4.98561 12.1851C5.0574 12.221 5.13586 12.2416 5.21602 12.2456H5.245C5.32163 12.2453 5.39745 12.2297 5.46804 12.1999C5.53863 12.1701 5.6026 12.1265 5.65624 12.0718L8.99257 8.73549C9.04889 8.68272 9.09409 8.61922 9.12552 8.54872C9.15695 8.47823 9.17396 8.40217 9.17558 8.325C9.1772 8.24784 9.16338 8.17114 9.13494 8.09939C9.10649 8.02764 9.064 7.96229 9.00995 7.9072Z" fill="currentColor"/>
<path d="M14.7273 14.3077C14.9308 14.2787 15.1164 14.1755 15.2486 14.0181C15.3679 13.8708 15.4315 13.6862 15.4281 13.4968C15.4366 13.3569 15.4122 13.217 15.3569 13.0882C15.3015 12.9595 15.2169 12.8455 15.1096 12.7553C14.8204 12.5593 14.4732 12.4674 14.1249 12.4947H12.5146V16.1554H14.177C14.5314 16.1808 14.8841 16.087 15.1791 15.8889C15.2909 15.8015 15.3803 15.6886 15.4397 15.5596C15.4992 15.4307 15.527 15.2894 15.5208 15.1475C15.5293 14.9357 15.4568 14.7286 15.3181 14.5683C15.1574 14.4155 14.9485 14.3234 14.7273 14.3077ZM13.2619 13.0797H14.0206C14.4261 13.0797 14.6288 13.2419 14.6288 13.5547C14.6288 13.8675 14.4261 14.0296 14.0206 14.0296H13.2619V13.0797ZM14.5767 15.4545C14.4421 15.5503 14.278 15.5954 14.1133 15.582H13.2619V14.6204H14.1133C14.277 14.6082 14.4401 14.651 14.5767 14.7421C14.6241 14.7885 14.6619 14.8439 14.6876 14.9051C14.7134 14.9662 14.7266 15.0319 14.7266 15.0983C14.7266 15.1647 14.7134 15.2304 14.6876 15.2915C14.6619 15.3527 14.6241 15.4081 14.5767 15.4545Z" fill="currentColor"/>
<path d="M17.6518 14.5392L17.0726 14.4175C16.972 14.402 16.8755 14.3666 16.7888 14.3133C16.7654 14.2944 16.7466 14.2706 16.7335 14.2435C16.7205 14.2165 16.7137 14.1869 16.7135 14.1569C16.712 14.13 16.7165 14.1031 16.7265 14.0781C16.7365 14.0531 16.7518 14.0305 16.7714 14.0121C16.8165 13.9676 16.8724 13.9357 16.9336 13.9194C17.0222 13.8946 17.1139 13.8829 17.2058 13.8846C17.3494 13.8849 17.4907 13.9207 17.6171 13.9889C17.7484 14.0584 17.86 14.16 17.9414 14.2843L18.3932 13.8383C18.2723 13.6643 18.1032 13.5295 17.9067 13.4502C17.6764 13.3594 17.4301 13.316 17.1827 13.3228C16.9489 13.3158 16.7162 13.3572 16.4992 13.4444C16.3366 13.5157 16.1964 13.6298 16.0937 13.7746C15.9928 13.9169 15.9441 14.0897 15.9557 14.2638C15.9673 14.4378 16.0386 14.6026 16.1574 14.7303C16.3545 14.8932 16.5933 14.9975 16.8467 15.0315L17.3391 15.13C17.4276 15.1437 17.5113 15.1796 17.5823 15.2342C17.623 15.2761 17.6458 15.3322 17.646 15.3906C17.6461 15.4337 17.6336 15.4759 17.6099 15.512C17.5862 15.548 17.5524 15.5763 17.5128 15.5933C17.4029 15.6393 17.2844 15.6611 17.1653 15.657C16.9798 15.6597 16.7966 15.6159 16.6324 15.5296C16.4911 15.4478 16.3703 15.3349 16.2791 15.1995L15.8389 15.6455C15.9934 15.8327 16.1926 15.9782 16.4181 16.0683C16.662 16.1703 16.9241 16.2215 17.1884 16.2189C17.4203 16.2254 17.651 16.184 17.8661 16.0973C18.033 16.0307 18.1776 15.9183 18.2832 15.7729C18.3766 15.6302 18.4251 15.4627 18.4222 15.2921C18.426 15.1176 18.3639 14.9481 18.2484 14.8172C18.0846 14.6629 17.8754 14.5654 17.6518 14.5392Z" fill="currentColor"/>
</svg>
