<svg width="24" height="25" viewBox="0 0 24 25" fill="none" xmlns="http://www.w3.org/2000/svg">
<path d="M19.8749 13.5966V6.90072C19.8749 5.03865 18.4956 3.49007 16.7087 3.2142C16.4642 1.55903 15.041 0.280029 13.3169 0.280029H1.78712C1.44229 0.280029 1.16016 0.562161 1.16016 0.906989V15.5339C1.16016 17.3647 2.58962 18.8694 4.39527 18.9885C4.79025 20.6437 6.28241 21.885 8.06298 21.885H13.2918C14.295 23.2205 15.8812 24.0919 17.6743 24.0919C20.6962 24.0919 23.1602 21.6343 23.1602 18.606C23.1476 16.3741 21.7997 14.4493 19.8749 13.5966ZM4.90937 3.16405C4.56455 3.16405 4.28241 3.44618 4.28241 3.791V17.7158C3.22285 17.5528 2.40781 16.6437 2.40781 15.5402V1.54021H13.3169C14.3263 1.54021 15.1727 2.23614 15.4172 3.17031H4.90937V3.16405ZM8.05671 20.6374C6.67113 20.6374 5.53633 19.5089 5.53633 18.117V4.42423H16.1382C17.505 4.42423 18.6147 5.53395 18.6147 6.90072V13.2205C18.3075 13.164 17.9877 13.1327 17.6617 13.1327C14.6398 13.1327 12.1758 15.5904 12.1758 18.6123C12.1758 19.3271 12.32 20.0104 12.5708 20.6374H8.05671ZM17.668 22.838C15.3357 22.838 13.436 20.9383 13.436 18.606C13.436 16.2738 15.3357 14.3803 17.668 14.3803C20.0003 14.3803 21.9 16.28 21.9 18.606C21.8937 20.9446 20.0003 22.838 17.668 22.838Z" fill="currentColor"/>
<path d="M20.5518 16.3553C20.3073 16.1107 19.9123 16.1107 19.6678 16.3553L16.5393 19.4838L15.7117 18.4807C15.4922 18.2111 15.0972 18.1734 14.8277 18.3991C14.5581 18.6248 14.5267 19.0136 14.7461 19.2832L16.0126 20.8129C16.1255 20.9509 16.2885 21.0324 16.464 21.0386C16.4766 21.0386 16.4828 21.0386 16.4954 21.0386C16.6584 21.0386 16.8214 20.976 16.9405 20.8568L20.5518 17.2455C20.7963 17.001 20.7963 16.5998 20.5518 16.3553Z" fill="currentColor"/>
<path d="M7.05372 7.33326H14.1195C14.4644 7.33326 14.7465 7.05113 14.7465 6.7063C14.7465 6.36148 14.4644 6.07935 14.1195 6.07935H7.05372C6.70889 6.07935 6.42676 6.36148 6.42676 6.7063C6.42676 7.05113 6.70889 7.33326 7.05372 7.33326Z" fill="currentColor"/>
<path d="M7.05372 9.69069H14.1195C14.4644 9.69069 14.7465 9.40855 14.7465 9.06373C14.7465 8.7189 14.4644 8.43677 14.1195 8.43677H7.05372C6.70889 8.43677 6.42676 8.7189 6.42676 9.06373C6.42676 9.40855 6.70889 9.69069 7.05372 9.69069Z" fill="currentColor"/>
<path d="M12.596 11.4275C12.596 11.0827 12.3139 10.8005 11.9691 10.8005H7.05372C6.70889 10.8005 6.42676 11.0827 6.42676 11.4275C6.42676 11.7723 6.70889 12.0545 7.05372 12.0545H11.9691C12.3202 12.0545 12.596 11.7723 12.596 11.4275Z" fill="currentColor"/>
</svg>
