<svg width="24" height="24" viewBox="0 0 24 24" fill="none" xmlns="http://www.w3.org/2000/svg">
<path d="M22.9586 9.00368V8.96322C22.9644 8.89966 22.9644 8.83031 22.9644 8.76674C22.9644 5.85999 20.6009 3.49645 17.6941 3.49645C17.3474 3.49645 17.0065 3.53113 16.6655 3.60047C15.7236 2.00552 13.9899 1 12.1291 1C10.2279 1 8.48268 2.02863 7.55229 3.66404C7.11888 3.55424 6.67969 3.49645 6.2405 3.49645C3.33375 3.49645 0.970215 5.85999 0.970215 8.76674C0.970215 10.2635 1.61167 11.6966 2.71542 12.6732C3.48979 13.4534 4.48952 13.933 5.55861 14.0601V20.388C5.55861 20.4053 5.56438 20.4169 5.56438 20.4284C5.65684 22.0869 8.90454 22.9538 12.1233 22.9538C15.3422 22.9538 18.5899 22.0869 18.6765 20.4284C18.6765 20.4111 18.6823 20.3995 18.6823 20.388V14.0659C21.0921 13.7828 22.9702 11.7313 22.9702 9.24639C22.9702 9.17704 22.9644 9.10769 22.9586 9.03835V9.00368ZM17.5266 18.8335C16.2783 18.1342 14.1922 17.7702 12.1176 17.7702C10.043 17.7702 7.95681 18.1342 6.70859 18.8335V17.146C6.74904 16.7704 8.6445 15.892 12.1176 15.892C15.5907 15.892 17.4861 16.7704 17.5266 17.146V18.8335ZM12.1176 21.8038C8.54626 21.8038 6.70859 20.7983 6.70859 20.3648C6.70859 19.9372 8.54626 18.9259 12.1176 18.9259C15.6889 18.9259 17.5266 19.9314 17.5266 20.3648C17.5266 20.7983 15.6889 21.8038 12.1176 21.8038ZM21.8087 9.11347C21.8087 9.15392 21.8144 9.20016 21.8144 9.24639C21.8144 11.2863 20.1559 12.9448 18.1044 12.9448C17.7866 12.9448 17.5266 13.2049 17.5266 13.5227V15.7013C16.261 15.0425 14.1402 14.7363 12.1176 14.7363C10.095 14.7363 7.97415 15.0483 6.70859 15.7013V13.6267C6.71437 13.5921 6.72015 13.5574 6.72015 13.5169C6.72015 13.1991 6.4601 12.9391 6.14226 12.9391C5.15408 12.9391 4.2237 12.5519 3.50134 11.8295C2.62296 11.0494 2.1202 9.92829 2.1202 8.76096C2.1202 6.48989 3.96365 4.64644 6.23473 4.64644C6.70859 4.64644 7.18245 4.73312 7.64475 4.90071C7.92792 5.00473 8.24576 4.87181 8.37289 4.59443C9.03746 3.10927 10.5111 2.14999 12.1291 2.14999C13.7067 2.14999 15.1688 3.0746 15.8449 4.50775C15.9663 4.76202 16.2552 4.89493 16.5326 4.81403C16.914 4.69845 17.307 4.64644 17.6999 4.64644C19.971 4.64644 21.8144 6.49566 21.8144 8.76096C21.8144 8.80142 21.8087 8.84187 21.8087 8.88232L21.8029 8.97478C21.8029 8.9979 21.8029 9.01523 21.8029 9.03835L21.8087 9.11347Z" fill="currentColor"/>
</svg>
