<svg width="24" height="24" viewBox="0 0 24 24" fill="none" xmlns="http://www.w3.org/2000/svg">
<path d="M21.4357 10.353H3.77825C3.46139 10.353 3.20215 10.6123 3.20215 10.9291V19.4381C3.20215 21.345 4.75186 22.8947 6.65875 22.8947H21.4357C21.7526 22.8947 22.0118 22.6355 22.0118 22.3186V10.9291C22.0118 10.6123 21.7584 10.353 21.4357 10.353ZM20.8596 13.6253H19.1313L17.9907 11.511H20.8654V13.6253H20.8596ZM8.53684 13.6253L7.39617 11.511H11.3828L12.5235 13.6253H8.53684ZM13.837 13.6253L12.6963 11.511H16.6829L17.8236 13.6253H13.837ZM6.08265 11.5052L7.22333 13.6195H4.34859V11.5052H6.08265ZM6.65875 21.7425C5.38557 21.7425 4.35435 20.7056 4.35435 19.4381V14.7775H20.8596V21.7483H6.65875V21.7425Z" fill="currentColor"/>
<path d="M3.70367 9.88066C3.76128 9.88066 3.81889 9.8749 3.87651 9.85761L21.6319 4.32129C21.8451 4.25791 21.9949 4.0678 22.0294 3.85464C22.064 3.64149 21.9488 3.43985 21.8797 3.24398C21.2171 1.44078 19.1086 0.472933 17.1729 1.07208L2.40168 5.66936C2.2519 5.71545 2.12516 5.82491 2.05602 5.96318C1.98689 6.1072 1.97537 6.26851 2.03298 6.4183L3.16214 9.50043C3.24855 9.73664 3.46747 9.88066 3.70367 9.88066ZM10.928 6.4471L7.13147 7.62811L7.47713 5.28913L11.2736 4.10813L10.928 6.4471ZM12.495 3.73366L16.2915 2.55266L15.9458 4.89163L12.1493 6.07263L12.495 3.73366ZM20.6986 3.40529L17.1671 4.50564L17.5128 2.16667H17.5186C18.786 1.76916 20.1571 2.32222 20.6986 3.40529ZM6.2558 5.67513L5.91014 8.01409L4.06086 8.59019L3.32921 6.59112L6.2558 5.67513Z" fill="currentColor"/>
</svg>
