<svg width="25" height="24" viewBox="0 0 25 24" fill="none" xmlns="http://www.w3.org/2000/svg">
<path d="M21.1203 9.11133C19.5287 9.11133 18.2402 10.4057 18.2402 11.9906C18.2402 13.5755 19.535 14.8699 21.1203 14.8699C22.7056 14.8699 24.0003 13.5755 24.0003 11.9906C24.0003 10.4057 22.7056 9.11133 21.1203 9.11133ZM21.1203 13.607C20.2297 13.607 19.5034 12.8809 19.5034 11.9906C19.5034 11.1003 20.2297 10.3742 21.1203 10.3742C22.0108 10.3742 22.7371 11.1003 22.7371 11.9906C22.7371 12.8809 22.0108 13.607 21.1203 13.607Z" fill="currentColor"/>
<path d="M18.6765 5.87222H23.2871C23.6345 5.87222 23.9187 5.58808 23.9187 5.2408V0.631421C23.9187 0.28414 23.6345 0 23.2871 0H18.6765C18.3291 0 18.0449 0.28414 18.0449 0.631421V5.2408C18.0449 5.58808 18.3291 5.87222 18.6765 5.87222ZM19.3081 1.26284H22.6555V4.60937H19.3081V1.26284Z" fill="currentColor"/>
<path d="M5.24218 9.06079H0.631588C0.284215 9.06079 0 9.34493 0 9.69221V14.3016C0 14.6489 0.284215 14.933 0.631588 14.933H5.24218C5.58956 14.933 5.87377 14.6489 5.87377 14.3016V9.69221C5.87377 9.34493 5.58956 9.06079 5.24218 9.06079ZM4.61059 13.6702H1.26318V10.3236H4.61059V13.6702Z" fill="currentColor"/>
<path d="M21.2721 18.3743C21.0448 17.9765 20.3942 17.9765 20.1732 18.3743L17.5268 23.0531C17.4194 23.2488 17.4194 23.4888 17.5268 23.6845C17.6405 23.8803 17.8489 24.0002 18.07 24.0002H23.3564C23.5837 24.0002 23.7859 23.8803 23.8995 23.6845C24.0132 23.4888 24.0132 23.2488 23.8995 23.0531L21.2532 18.3743H21.2721ZM19.1626 22.7311L20.7227 19.9655L22.2827 22.7311H19.1563H19.1626Z" fill="currentColor"/>
<path d="M13.687 4.95035C13.8133 5.07663 13.9712 5.13346 14.1354 5.13346C14.2997 5.13346 14.4575 5.07032 14.5839 4.95035L16.207 3.3276C16.2639 3.27077 16.3144 3.20131 16.346 3.11923C16.4092 2.96769 16.4092 2.79089 16.346 2.63935C16.3144 2.56358 16.2702 2.49412 16.207 2.43098L14.5839 0.808226C14.3375 0.561972 13.9396 0.561972 13.6933 0.808226C13.447 1.05448 13.447 1.45228 13.6933 1.69853L14.2365 2.24155H10.8007C10.4533 2.24155 10.1691 2.52569 10.1691 2.87297V11.3593H7.7185C7.37113 11.3593 7.08691 11.6434 7.08691 11.9907C7.08691 12.338 7.37113 12.6221 7.7185 12.6221H10.1691V21.1084C10.1691 21.4557 10.4533 21.7398 10.8007 21.7398H14.2365L13.6933 22.2829C13.447 22.5291 13.447 22.9269 13.6933 23.1732C13.8196 23.2994 13.9775 23.3563 14.1418 23.3563C14.306 23.3563 14.4639 23.2931 14.5902 23.1732L16.2134 21.5504C16.4597 21.3042 16.4597 20.9064 16.2134 20.6601L14.5902 19.0374C14.3439 18.7911 13.946 18.7911 13.6996 19.0374C13.4533 19.2836 13.4533 19.6814 13.6996 19.9277L14.2428 20.477H11.4386V12.6221H14.2428L13.6996 13.1651C13.4533 13.4114 13.4533 13.8092 13.6996 14.0554C13.826 14.1817 13.9839 14.2386 14.1481 14.2386C14.3123 14.2386 14.4702 14.1754 14.5965 14.0554L16.2197 12.4327C16.2765 12.3759 16.3271 12.3064 16.3586 12.2243C16.4218 12.0728 16.4218 11.896 16.3586 11.7444C16.3271 11.6687 16.2828 11.5992 16.2197 11.5361L14.5965 9.91332C14.3502 9.66706 13.9523 9.66706 13.706 9.91332C13.4596 10.1596 13.4596 10.5574 13.706 10.8036L14.2491 11.3466H11.4449V3.51071H14.2491L13.706 4.05373C13.4596 4.29998 13.4596 4.69778 13.706 4.94403L13.687 4.95035Z" fill="currentColor"/>
</svg>
