<svg width="23" height="23" viewBox="0 0 23 23" fill="none" xmlns="http://www.w3.org/2000/svg">
<path d="M20.3787 1.06361C20.1438 0.828813 19.7643 0.828813 19.5294 1.06361L13.3861 7.20441L11.6214 5.44043C11.3865 5.20564 11.0071 5.20564 10.7722 5.44043L8.61598 7.59573L0.99101 13.0382C0.846461 13.1405 0.75611 13.3031 0.738041 13.4777C0.719973 13.6522 0.78623 13.8268 0.91271 13.9533L3.10505 16.1447C3.21948 16.2591 3.37005 16.3193 3.53267 16.3193H5.11066V17.9087C5.11066 18.0712 5.17691 18.2217 5.28533 18.3361L9.66395 22.7129C9.77839 22.8273 9.92895 22.8875 10.0916 22.8875C10.1096 22.8875 10.1217 22.8875 10.1398 22.8875C10.3144 22.8755 10.477 22.7791 10.5794 22.6347L16.0241 15.0129L18.1803 12.8576C18.2947 12.7432 18.355 12.5927 18.355 12.4301C18.355 12.2676 18.2887 12.117 18.1803 12.0027L16.4156 10.2387L22.5589 4.09789C22.7938 3.86309 22.7938 3.48381 22.5589 3.24901L20.3787 1.06361ZM10.0193 21.3644L6.31523 17.6618V15.7233C6.31523 15.3921 6.0442 15.1212 5.71295 15.1212H3.77358L2.26183 13.6101L8.93519 8.84797L14.7834 14.6938L10.0193 21.3644ZM15.5724 13.7787L9.85066 8.0593L11.1877 6.72278L12.9524 8.48675L15.1448 10.6782L16.9095 12.4421L15.5724 13.7787ZM15.5724 9.39583L14.2353 8.0593L19.9571 2.33994L21.2941 3.67646L15.5724 9.39583Z" fill="currentColor"/>
</svg>
