<svg width="24" height="24" viewBox="0 0 24 24" fill="none" xmlns="http://www.w3.org/2000/svg">
<path d="M12 5.46948C11.6816 5.46948 11.4211 5.73001 11.4211 6.04843V11.7279L7.68107 15.2942C7.44949 15.5142 7.4437 15.879 7.6637 16.1105C7.77949 16.2321 7.93002 16.29 8.08054 16.29C8.22528 16.29 8.37002 16.2379 8.48002 16.1279L12.3995 12.3879C12.5153 12.2779 12.579 12.1274 12.579 11.9711V6.04843C12.579 5.72422 12.3184 5.46948 12 5.46948Z" fill="currentColor"/>
<path d="M12 1C5.93263 1 1 5.93263 1 12C1 18.0674 5.93263 23 12 23C18.0674 23 23 18.0674 23 12C23 5.93263 18.0674 1 12 1ZM12.5789 21.8132V20.9332C12.5789 20.6147 12.3184 20.3542 12 20.3542C11.6816 20.3542 11.4211 20.6147 11.4211 20.9332V21.8132C6.45947 21.5237 2.47632 17.5463 2.18684 12.5789H3.06684C3.38526 12.5789 3.64579 12.3184 3.64579 12C3.64579 11.6816 3.38526 11.4211 3.06684 11.4211H2.18684C2.47632 6.45368 6.45368 2.47632 11.4211 2.18684V3.06684C11.4211 3.38526 11.6816 3.64579 12 3.64579C12.3184 3.64579 12.5789 3.38526 12.5789 3.06684V2.18684C17.5405 2.47632 21.5237 6.45368 21.8132 11.4211H20.9332C20.6147 11.4211 20.3542 11.6816 20.3542 12C20.3542 12.3184 20.6147 12.5789 20.9332 12.5789H21.8132C21.5237 17.5463 17.5463 21.5237 12.5789 21.8132Z" fill="currentColor"/>
</svg>
