<svg width="24" height="24" viewBox="0 0 24 24" fill="none" xmlns="http://www.w3.org/2000/svg">
<path d="M13.8624 12.9278L12.583 14.2072V9.62778C12.583 9.30935 12.3224 9.04883 12.004 9.04883C11.6856 9.04883 11.4251 9.30935 11.4251 9.62778V14.2246L10.1398 12.9741C9.90824 12.7483 9.5435 12.7541 9.3235 12.9857C9.09771 13.2172 9.1035 13.582 9.33508 13.802L11.6046 16.0136C11.7261 16.1351 11.9056 16.193 12.0793 16.1699C12.2009 16.1525 12.3282 16.0946 12.4209 16.0078L14.6903 13.7441C14.9161 13.5183 14.9161 13.1536 14.6903 12.9278C14.4588 12.702 14.0882 12.702 13.8624 12.9278Z" fill="currentColor"/>
<path d="M17.9613 9.06615H17.035C16.9192 7.61299 16.2303 6.25825 15.1071 5.30878C13.8682 4.26089 12.2413 3.80931 10.6377 4.07562C8.4724 4.43457 6.72976 6.04404 6.19713 8.17457L5.60082 10.554H5.31134C2.93766 10.554 1.00977 12.4819 1.00977 14.8556C1.00977 17.2293 2.93766 19.1572 5.31134 19.1572H17.9671C20.7519 19.1572 23.0098 16.8935 23.0098 14.1146C23.0098 11.3356 20.7403 9.06615 17.9613 9.06615ZM17.9613 17.9993H5.30555C3.5745 17.9993 2.16187 16.5867 2.16187 14.8556C2.16187 13.1246 3.5745 11.7119 5.30555 11.7119H6.0524C6.31871 11.7119 6.55029 11.5325 6.61398 11.2719L7.3145 8.45825C7.73713 6.77352 9.10924 5.50562 10.8229 5.22194C12.085 5.01352 13.3761 5.36668 14.3545 6.19457C15.3329 7.02246 15.8945 8.23246 15.8945 9.51773V9.65089C15.8945 9.96931 16.155 10.2298 16.4734 10.2298H17.9613C20.1034 10.2298 21.8461 11.9725 21.8461 14.1146C21.8461 16.2567 20.1034 17.9993 17.9613 17.9993Z" fill="currentColor"/>
</svg>
