<svg width="24" height="24" viewBox="0 0 24 24" fill="none" xmlns="http://www.w3.org/2000/svg">
<path d="M17.9613 9.06615H17.035C16.9192 7.61299 16.2303 6.25825 15.1071 5.30878C13.8682 4.26089 12.2413 3.80931 10.6377 4.07562C8.4724 4.43457 6.72977 6.04404 6.19714 8.17457L5.60082 10.554H5.31135C2.93766 10.554 1.00977 12.4819 1.00977 14.8556C1.00977 17.2293 2.93766 19.1572 5.31135 19.1572H17.9671C20.7519 19.1572 23.0098 16.8935 23.0098 14.1146C23.0098 11.3356 20.7403 9.06615 17.9613 9.06615ZM17.9613 17.9993H5.30555C3.5745 17.9993 2.16187 16.5867 2.16187 14.8556C2.16187 13.1246 3.5745 11.7119 5.30555 11.7119H6.0524C6.31872 11.7119 6.5503 11.5325 6.61398 11.2719L7.3203 8.45247C7.74293 6.76773 9.11503 5.49983 10.8287 5.21615C12.0908 5.00773 13.3819 5.36089 14.3603 6.18878C15.3387 7.01668 15.9003 8.22668 15.9003 9.51194V9.6451C15.9003 9.96352 16.1608 10.224 16.4792 10.224H17.9671C20.1092 10.224 21.8519 11.9667 21.8519 14.1088C21.8519 16.2509 20.1034 17.9993 17.9613 17.9993Z" fill="currentColor"/>
<path d="M13.8449 10.722L10.6144 13.9525L9.65915 12.7946C9.45652 12.5456 9.09178 12.5167 8.84283 12.7193C8.59388 12.922 8.56494 13.2867 8.76758 13.5356L10.1281 15.1798C10.2207 15.2898 10.3713 15.3709 10.516 15.3825C10.6839 15.3998 10.8634 15.3362 10.9849 15.2204L14.6671 11.5383C14.8928 11.3125 14.8928 10.9477 14.6671 10.722C14.4413 10.4962 14.0707 10.4962 13.8449 10.722Z" fill="currentColor"/>
</svg>
