<svg width="24" height="24" viewBox="0 0 24 24" fill="none" xmlns="http://www.w3.org/2000/svg">
<path d="M17.9613 9.06615H17.035C16.9192 7.61299 16.2303 6.25826 15.1071 5.30878C13.8682 4.26089 12.2413 3.80931 10.6377 4.07562C8.4724 4.43457 6.72977 6.04404 6.19713 8.17457L5.60082 10.554H5.31135C2.93766 10.554 1.00977 12.4819 1.00977 14.8556C1.00977 17.2293 2.93766 19.1572 5.31135 19.1572H17.9671C20.7519 19.1572 23.0098 16.8935 23.0098 14.1146C23.0098 11.3356 20.7403 9.06615 17.9613 9.06615ZM17.9613 17.9993H5.30555C3.5745 17.9993 2.16187 16.5867 2.16187 14.8556C2.16187 13.1246 3.5745 11.7119 5.30555 11.7119H6.0524C6.31871 11.7119 6.55029 11.5325 6.61398 11.2719L7.32029 8.45247C7.74293 6.76773 9.11503 5.49983 10.8287 5.21615C12.0908 5.00773 13.3819 5.36089 14.3603 6.18878C15.3387 7.01668 15.9003 8.22668 15.9003 9.51194V9.6451C15.9003 9.96352 16.1608 10.224 16.4792 10.224H17.9671C20.1092 10.224 21.8519 11.9667 21.8519 14.1088C21.8519 16.2509 20.1034 17.9993 17.9613 17.9993Z" fill="currentColor"/>
<path d="M14.621 9.99825C14.3952 9.77246 14.0304 9.77246 13.8046 9.99825L12.0041 11.793L10.2036 9.99246C9.9778 9.76667 9.61306 9.76667 9.38727 9.99246C9.16148 10.2183 9.16148 10.583 9.38727 10.8088L11.1878 12.6093L9.38727 14.4098C9.16148 14.6356 9.16148 15.0004 9.38727 15.2261C9.50306 15.3419 9.6478 15.394 9.79832 15.394C9.94885 15.394 10.0936 15.3361 10.2094 15.2261L12.0099 13.4256L13.8104 15.2261C13.9262 15.3419 14.071 15.394 14.2215 15.394C14.372 15.394 14.5167 15.3361 14.6325 15.2261C14.8583 15.0004 14.8583 14.6356 14.6325 14.4098L12.832 12.6093L14.6325 10.8088C14.8467 10.5888 14.8467 10.224 14.621 9.99825Z" fill="currentColor"/>
</svg>
