<svg width="24" height="24" viewBox="0 0 24 24" fill="none" xmlns="http://www.w3.org/2000/svg">
<path d="M17.9618 19.161H5.30271C2.9284 19.161 1 17.2326 1 14.8583C1 12.4839 2.9284 10.5555 5.30271 10.5555H5.59226L6.18873 8.17544C6.72151 6.04435 8.46459 4.43446 10.6304 4.07541C12.2287 3.80903 13.8618 4.25493 15.1011 5.3089C16.2245 6.26441 16.9137 7.61371 17.0295 9.06725H17.956C20.7357 9.06725 23 11.3315 23 14.1112C23 16.8909 20.7415 19.161 17.9618 19.161ZM5.30271 11.7137C3.5712 11.7137 2.1582 13.1267 2.1582 14.8583C2.1582 16.5898 3.5712 18.0028 5.30271 18.0028H17.9618C20.1045 18.0028 21.8476 16.2597 21.8476 14.117C21.8476 11.9743 20.1045 10.2312 17.9618 10.2312H16.4735C16.155 10.2312 15.8944 9.97065 15.8944 9.65214V9.51316C15.8944 8.23335 15.3327 7.01724 14.354 6.18913C13.3754 5.36102 12.0898 5.00776 10.8215 5.21624C9.11319 5.50579 7.73493 6.77402 7.31219 8.4592L6.60569 11.2794C6.54198 11.5342 6.31034 11.7195 6.04396 11.7195H5.30271V11.7137Z" fill="currentColor"/>
</svg>
