<svg width="24" height="24" viewBox="0 0 24 24" fill="none" xmlns="http://www.w3.org/2000/svg">
<path d="M17.9613 9.06615H17.035C16.9192 7.61299 16.2303 6.25825 15.1071 5.30878C13.8682 4.26089 12.2413 3.80931 10.6377 4.07562C8.4724 4.43457 6.72977 6.04404 6.19713 8.17457L5.60082 10.554H5.31134C2.93766 10.554 1.00977 12.4819 1.00977 14.8556C1.00977 17.2293 2.93766 19.1572 5.31134 19.1572H17.9671C20.7461 19.1572 23.0098 16.8935 23.0098 14.1146C23.0098 11.3356 20.7403 9.06615 17.9613 9.06615ZM17.9613 17.9993H5.30556C3.5745 17.9993 2.16187 16.5867 2.16187 14.8556C2.16187 13.1246 3.5745 11.7119 5.30556 11.7119H6.0524C6.31871 11.7119 6.55029 11.5325 6.61398 11.2719L7.3145 8.45825C7.73714 6.77352 9.10924 5.50562 10.8229 5.22194C12.085 5.01352 13.3761 5.36668 14.3545 6.19457C15.3329 7.02246 15.8945 8.23246 15.8945 9.51773V9.65089C15.8945 9.96931 16.155 10.2298 16.4734 10.2298H17.9613C20.1034 10.2298 21.8461 11.9725 21.8461 14.1146C21.8461 16.2567 20.1034 17.9993 17.9613 17.9993Z" fill="currentColor"/>
<path d="M12.4093 9.21091C12.1835 8.99091 11.8188 8.99091 11.5988 9.2167L9.32932 11.4804C9.10353 11.7062 9.10353 12.0709 9.32932 12.2967C9.4451 12.4125 9.58984 12.4646 9.74037 12.4646C9.89089 12.4646 10.0356 12.4067 10.1514 12.2967L11.4251 11.023V15.6025C11.4251 15.9209 11.6856 16.1814 12.0041 16.1814C12.3225 16.1814 12.583 15.9209 12.583 15.6025V11.0057L13.8683 12.2562C14.0998 12.482 14.4646 12.4762 14.6846 12.2446C14.9104 12.013 14.9046 11.6483 14.673 11.4283L12.4093 9.21091Z" fill="currentColor"/>
</svg>
