<svg width="24" height="24" viewBox="0 0 24 24" fill="none" xmlns="http://www.w3.org/2000/svg">
<path d="M18.6578 7.52441C18.432 7.29859 18.0672 7.29859 17.8414 7.52441C17.6155 7.75022 17.6155 8.11501 17.8414 8.34083L21.9003 12.3998L17.8414 16.4587C17.6155 16.6846 17.6155 17.0493 17.8414 17.2752C17.9572 17.391 18.1019 17.4431 18.2525 17.4431C18.403 17.4431 18.5478 17.3852 18.6636 17.2752L23.1278 12.8109C23.3537 12.5851 23.3537 12.2203 23.1278 11.9945L18.6578 7.52441Z" fill="currentColor"/>
<path d="M6.74742 7.52441C6.5216 7.29859 6.15682 7.29859 5.931 7.52441L1.46673 11.9887C1.24091 12.2145 1.24091 12.5793 1.46673 12.8051L5.931 17.2694C6.04681 17.3852 6.19156 17.4373 6.34211 17.4373C6.49265 17.4373 6.63741 17.3794 6.75321 17.2694C6.97903 17.0436 6.97903 16.6788 6.75321 16.4529L2.69426 12.394L6.75321 8.33504C6.97324 8.11501 6.97324 7.75022 6.74742 7.52441Z" fill="currentColor"/>
<path d="M15.4848 4.47871C15.1895 4.35712 14.8479 4.50187 14.732 4.80297L8.7739 19.6318C8.6523 19.9271 8.79705 20.2629 9.09236 20.3845C9.16184 20.4134 9.23712 20.425 9.3066 20.425C9.53821 20.425 9.75244 20.286 9.84509 20.0602L15.8032 5.23144C15.9248 4.93614 15.7801 4.60031 15.4848 4.47871Z" fill="currentColor"/>
</svg>
