<svg width="24" height="24" viewBox="0 0 24 24" fill="none" xmlns="http://www.w3.org/2000/svg">
<path d="M20.444 21.9096H16.8027V17.1105H17.4626C19.4251 17.1105 21.0171 15.5127 21.0171 13.556C21.0171 11.5993 19.4193 10.0015 17.4626 10.0015H16.4495C15.8822 8.83213 14.6839 8.01587 13.3003 8.01587H4.0667C3.7483 8.01587 3.48779 8.27638 3.48779 8.59478V19.5651C3.48779 20.4682 3.83514 21.2902 4.39668 21.9096H2.57891C2.26051 21.9096 2 22.1702 2 22.4886C2 22.807 2.26051 23.0675 2.57891 23.0675H6.99018H16.2238H20.444C20.7624 23.0675 21.0229 22.807 21.0229 22.4886C21.0229 22.1702 20.7624 21.9096 20.444 21.9096ZM17.4626 11.1593C18.7825 11.1593 19.8593 12.2361 19.8593 13.556C19.8593 14.8759 18.7825 15.9527 17.4626 15.9527H16.8027V11.5183C16.8027 11.3967 16.7969 11.2751 16.7853 11.1593H17.4626ZM6.99018 21.9096C5.69922 21.9096 4.64561 20.856 4.64561 19.5651V9.17368H13.3003C14.5912 9.17368 15.6448 10.2273 15.6448 11.5183V21.9096H6.99018Z" fill="currentColor"/>
<path d="M6.36499 5.43964C6.36499 6.58009 6.82812 7.16479 6.88022 7.22847C6.996 7.36161 7.1523 7.43108 7.3144 7.43108C7.44176 7.43108 7.56912 7.39056 7.67911 7.30372C7.92225 7.1069 7.96856 6.74797 7.77752 6.49325C7.76595 6.48168 7.52281 6.14591 7.52281 5.43385C7.52281 5.13861 7.63859 4.94757 7.84699 4.64075C8.07277 4.29919 8.35643 3.87659 8.35643 3.23979C8.35643 2.13987 7.82384 1.35255 7.80068 1.31782C7.62122 1.05731 7.2623 0.993632 7.00179 1.17309C6.73549 1.35255 6.67181 1.71148 6.84548 1.97199C6.85127 1.97778 7.19862 2.51616 7.19862 3.23979C7.19862 3.51188 7.08284 3.69713 6.88601 3.99237C6.65444 4.34551 6.36499 4.77969 6.36499 5.43964Z" fill="currentColor"/>
<path d="M9.14954 5.43965C9.14954 6.5801 9.61266 7.17059 9.66476 7.22848C9.78054 7.36162 9.93685 7.43109 10.0989 7.43109C10.2263 7.43109 10.3537 7.39057 10.4637 7.30373C10.7068 7.10691 10.7531 6.74798 10.5621 6.49326C10.5505 6.48168 10.3074 6.14592 10.3074 5.43386C10.3074 5.13862 10.4231 4.94758 10.6315 4.64076C10.8573 4.2992 11.141 3.8766 11.141 3.2398C11.141 2.13988 10.6084 1.35257 10.5852 1.31783C10.4058 1.05732 10.0468 0.987854 9.78633 1.16731C9.52583 1.35257 9.45636 1.71149 9.63003 1.972C9.63582 1.97779 9.98316 2.51617 9.98316 3.24559C9.98316 3.51768 9.86738 3.70293 9.67055 3.99817C9.43899 4.34552 9.14954 4.7797 9.14954 5.43965Z" fill="currentColor"/>
<path d="M11.9341 5.43965C11.9341 6.5801 12.3972 7.17059 12.4493 7.22848C12.5651 7.36162 12.7214 7.43109 12.8835 7.43109C13.0108 7.43109 13.1382 7.39057 13.2482 7.30373C13.4913 7.10691 13.5377 6.74798 13.3466 6.49326C13.335 6.48168 13.0919 6.14592 13.0919 5.43386C13.0919 5.13862 13.2077 4.94758 13.4161 4.64076C13.6419 4.2992 13.9255 3.8766 13.9255 3.2398C13.9255 2.13988 13.3929 1.35257 13.3698 1.31783C13.1903 1.05732 12.8314 0.987854 12.5709 1.16731C12.3046 1.34678 12.2351 1.7057 12.4146 1.972C12.4204 1.97779 12.7677 2.51617 12.7677 3.24559C12.7677 3.51768 12.6519 3.70293 12.4551 3.99817C12.2235 4.34552 11.9341 4.7797 11.9341 5.43965Z" fill="currentColor"/>
</svg>
