<svg width="24" height="24" viewBox="0 0 24 24" fill="none" xmlns="http://www.w3.org/2000/svg">
<path d="M22.8301 15.4562C22.8289 14.2831 22.5286 13.1298 21.9576 12.1051C21.3865 11.0804 20.5636 10.2183 19.5665 9.60032C19.9865 9.46597 20.3532 9.20217 20.6141 8.84669C20.875 8.49121 21.0167 8.0623 21.0189 7.62137V7.48828C21.0174 6.93374 20.796 6.40243 20.4034 6.01085C20.0107 5.61927 19.4788 5.39938 18.9242 5.39938H17.5181C17.6658 5.11073 17.745 4.79195 17.7496 4.46777V4.32889C17.7481 3.77435 17.5267 3.24305 17.134 2.85147C16.7414 2.45989 16.2094 2.23999 15.6549 2.23999H2.92476C2.37022 2.23999 1.83831 2.45989 1.44565 2.85147C1.05298 3.24305 0.83161 3.77435 0.830078 4.32889V4.46777C0.83161 5.02231 1.05298 5.55362 1.44565 5.9452C1.83831 6.33678 2.37022 6.55667 2.92476 6.55667H4.33087C4.18059 6.84433 4.10124 7.16374 4.09941 7.48828V7.62716C4.10069 7.96311 4.18623 8.29337 4.34823 8.5877C3.93993 8.63466 3.55378 8.79815 3.23588 9.05864C2.91799 9.31913 2.68179 9.66562 2.55549 10.0567C2.42919 10.4478 2.41813 10.867 2.52362 11.2642C2.62912 11.6614 2.84673 12.0199 3.15044 12.2968C2.93023 12.4974 2.75431 12.7418 2.63394 13.0143C2.51357 13.2868 2.4514 13.5815 2.4514 13.8794C2.4514 14.1773 2.51357 14.4719 2.63394 14.7444C2.75431 15.0169 2.93023 15.2613 3.15044 15.462C2.92958 15.6616 2.75303 15.9053 2.6322 16.1774C2.51137 16.4495 2.44895 16.7439 2.44895 17.0417C2.44895 17.3394 2.51137 17.6338 2.6322 17.9059C2.75303 18.178 2.92958 18.4217 3.15044 18.6214C2.93038 18.8216 2.75446 19.0655 2.63391 19.3374C2.51336 19.6094 2.45082 19.9036 2.45028 20.2011C2.45181 20.774 2.68049 21.323 3.08618 21.7276C3.49187 22.1322 4.04144 22.3594 4.6144 22.3594H16.2451C16.2816 22.3642 16.3186 22.3642 16.3551 22.3594C18.1107 22.2503 19.7584 21.4751 20.9618 20.1921C22.1652 18.9092 22.8335 17.2152 22.8301 15.4562ZM18.9242 6.55088C19.1718 6.55088 19.4094 6.64885 19.585 6.82339C19.7607 6.99794 19.8601 7.23489 19.8616 7.4825V7.62137C19.8601 7.86898 19.7607 8.10592 19.585 8.28047C19.4094 8.45502 19.1718 8.55299 18.9242 8.55298H6.1941C5.94648 8.55299 5.70892 8.45502 5.53329 8.28047C5.35766 8.10592 5.25823 7.86898 5.2567 7.62137V7.48828C5.25823 7.24067 5.35766 7.00372 5.53329 6.82918C5.70892 6.65463 5.94648 6.55666 6.1941 6.55667H18.9242V6.55088ZM2.93634 5.3936C2.68872 5.3936 2.45117 5.29564 2.27554 5.12109C2.09991 4.94654 2.00047 4.70959 1.99894 4.46198V4.32311C2.00047 4.0755 2.09991 3.83855 2.27554 3.664C2.45117 3.48945 2.68872 3.39149 2.93634 3.39149H15.6665C15.9141 3.39149 16.1516 3.48945 16.3273 3.664C16.5029 3.83855 16.6023 4.0755 16.6039 4.32311V4.46198C16.6023 4.70959 16.5029 4.94654 16.3273 5.12109C16.1516 5.29564 15.9141 5.3936 15.6665 5.3936H2.93634ZM4.62597 9.71027H12.1136C11.3272 10.2373 10.6559 10.9184 10.1404 11.7124H4.62597C4.36048 11.7124 4.10585 11.6069 3.91812 11.4192C3.73039 11.2314 3.62492 10.9768 3.62492 10.7113C3.62492 10.4458 3.73039 10.1912 3.91812 10.0035C4.10585 9.81574 4.36048 9.71027 4.62597 9.71027ZM4.62597 12.8697H9.53865C9.27788 13.5108 9.11595 14.1878 9.05837 14.8775H4.62597C4.48772 14.8881 4.3488 14.8699 4.21789 14.8242C4.08699 14.7785 3.96694 14.7063 3.86526 14.612C3.76357 14.5178 3.68245 14.4035 3.62697 14.2765C3.57149 14.1494 3.54286 14.0122 3.54286 13.8736C3.54286 13.735 3.57149 13.5978 3.62697 13.4707C3.68245 13.3437 3.76357 13.2294 3.86526 13.1352C3.96694 13.0409 4.08699 12.9687 4.21789 12.923C4.3488 12.8773 4.48772 12.8592 4.62597 12.8697ZM3.61914 17.0359C3.61914 16.9039 3.64521 16.7733 3.69588 16.6515C3.74655 16.5296 3.82081 16.419 3.91438 16.326C4.00795 16.2329 4.11899 16.1593 4.24111 16.1094C4.36323 16.0594 4.49402 16.0341 4.62597 16.0348H9.05837C9.11661 16.7226 9.27854 17.3976 9.53865 18.0369H4.62597C4.35994 18.0369 4.10472 17.9317 3.91607 17.7441C3.72742 17.5565 3.62067 17.3019 3.61914 17.0359ZM4.62597 21.1963C4.36048 21.1963 4.10585 21.0908 3.91812 20.9031C3.73039 20.7154 3.62492 20.4608 3.62492 20.1953C3.62492 19.9298 3.73039 19.6752 3.91812 19.4874C4.10585 19.2997 4.36048 19.1942 4.62597 19.1942H10.1404C10.6615 19.9914 11.3411 20.6729 12.1368 21.1963H4.62597ZM15.9326 21.1963C14.7957 21.1975 13.684 20.8613 12.7382 20.2304C11.7924 19.5994 11.055 18.7021 10.6194 17.6519C10.1838 16.6018 10.0695 15.446 10.2911 14.3308C10.5126 13.2157 11.06 12.1914 11.8639 11.3874C12.6678 10.5835 13.6922 10.0361 14.8073 9.81461C15.9224 9.59309 17.0782 9.70736 18.1284 10.143C19.1786 10.5786 20.0759 11.3159 20.7068 12.2617C21.3378 13.2075 21.6739 14.3193 21.6728 15.4562C21.6712 16.9781 21.066 18.4372 19.9898 19.5134C18.9137 20.5895 17.4546 21.1948 15.9326 21.1963Z" fill="currentColor"/>
<path d="M17.5641 15.7745C17.1755 15.4284 16.7121 15.1769 16.2101 15.0396C15.8762 14.9454 15.5651 14.7839 15.2958 14.5651C15.2165 14.4845 15.1545 14.3885 15.1137 14.283C15.0729 14.1775 15.0541 14.0648 15.0586 13.9518C15.0437 13.7107 15.1249 13.4736 15.2843 13.2921C15.3792 13.2077 15.49 13.1433 15.6103 13.1025C15.7306 13.0618 15.8578 13.0456 15.9844 13.0549C16.1154 13.0477 16.2461 13.0736 16.3644 13.1303C16.4827 13.1869 16.5849 13.2724 16.6614 13.3789C16.8353 13.63 16.9245 13.93 16.916 14.2353V14.3742H17.9692V14.2295C17.9843 13.7248 17.8339 13.229 17.541 12.8176C17.2687 12.4686 16.8733 12.2368 16.4358 12.1696V11.1917H15.5504V12.1638C15.1246 12.2231 14.7322 12.4275 14.4394 12.7424C14.1414 13.0823 13.9841 13.5231 13.9997 13.9749C13.9895 14.206 14.0269 14.4366 14.1096 14.6526C14.1922 14.8686 14.3182 15.0653 14.4799 15.2306C14.8674 15.5815 15.3339 15.8336 15.8398 15.9655C16.1635 16.056 16.4636 16.2159 16.7193 16.4342C16.8011 16.5184 16.8652 16.6181 16.9081 16.7275C16.951 16.8368 16.9717 16.9535 16.969 17.0709C16.9663 17.1883 16.9403 17.304 16.8924 17.4113C16.8446 17.5185 16.7759 17.6152 16.6904 17.6956C16.4579 17.8705 16.1706 17.9567 15.8803 17.9386C15.6027 17.9463 15.3316 17.8539 15.1165 17.6782C15.0083 17.5687 14.9254 17.4368 14.8734 17.2919C14.8215 17.147 14.8017 16.9925 14.8156 16.8392V16.7003H13.7856V16.8392C13.7643 17.0976 13.7971 17.3576 13.8818 17.6027C13.9665 17.8477 14.1012 18.0725 14.2774 18.2627C14.6002 18.5816 15.0192 18.785 15.4694 18.8413V19.6398H16.349V18.8008C16.7986 18.7553 17.2212 18.5643 17.5525 18.2569C17.7124 18.0882 17.8368 17.8891 17.9183 17.6714C17.9999 17.4537 18.0368 17.2219 18.027 16.9896C18.0294 16.8675 18.0197 16.7454 17.9981 16.6251C17.9443 16.3037 17.7927 16.0067 17.5641 15.7745Z" fill="currentColor"/>
</svg>
