<svg width="27" height="27" viewBox="0 0 27 27" fill="none" xmlns="http://www.w3.org/2000/svg">
<path d="M13.5 2.5C11.3242 2.5 9.19719 3.14528 7.38813 4.35423C5.57906 5.56319 4.16917 7.2815 3.33677 9.29183C2.50438 11.3022 2.28688 13.5142 2.71179 15.6481C3.1367 17.7821 4.18493 19.7421 5.72389 21.2802C7.26285 22.8184 9.2234 23.8656 11.3576 24.2893C13.4918 24.7131 15.7037 24.4945 17.7136 23.661C19.7234 22.8275 21.441 21.4167 22.649 19.607C23.857 17.7973 24.5012 15.67 24.5 13.4942C24.4969 10.5783 23.3368 7.78277 21.2744 5.72147C19.212 3.66016 16.4159 2.50154 13.5 2.5ZM13.5 23.3302C11.5546 23.3302 9.65294 22.7533 8.03543 21.6725C6.41791 20.5917 5.15721 19.0555 4.41274 17.2582C3.66828 15.461 3.4735 13.4833 3.85302 11.5753C4.23254 9.66728 5.16933 7.91467 6.54492 6.53909C7.9205 5.1635 9.67311 4.22672 11.5811 3.8472C13.4891 3.46767 15.4668 3.66246 17.2641 4.40692C19.0614 5.15138 20.5975 6.41208 21.6783 8.0296C22.7591 9.64712 23.336 11.5488 23.336 13.4942C23.3329 16.1019 22.2956 18.6019 20.4517 20.4459C18.6077 22.2898 16.1077 23.3271 13.5 23.3302Z" fill="currentColor"/>
<path d="M16.1017 14.1926C15.4834 13.6435 14.7463 13.2451 13.9483 13.0286C13.3783 12.869 12.8473 12.5936 12.3885 12.2196C12.2444 12.0724 12.1319 11.8974 12.0579 11.7053C11.9838 11.5131 11.9498 11.3079 11.9578 11.1021C11.935 10.8782 11.963 10.652 12.0398 10.4404C12.1166 10.2287 12.2402 10.0372 12.4013 9.87998C12.5624 9.72277 12.7569 9.60396 12.9704 9.5324C13.1838 9.46084 13.4107 9.43837 13.634 9.46669C13.8724 9.45501 14.1101 9.50196 14.3263 9.60342C14.5424 9.70489 14.7303 9.85777 14.8737 10.0487C15.1776 10.4851 15.3345 11.007 15.3218 11.5386V11.6085H16.7128V11.5386C16.7407 10.7512 16.5097 9.9764 16.0551 9.33283C15.8309 9.04878 15.5522 8.81238 15.2354 8.63748C14.9186 8.46258 14.57 8.3527 14.2102 8.31431V6.73706H13.0869V8.30849C12.3809 8.37172 11.7215 8.68797 11.2303 9.19896C10.7679 9.72699 10.5262 10.4125 10.5551 11.1138C10.543 11.4658 10.6016 11.8167 10.7276 12.1456C10.8535 12.4745 11.0443 12.7748 11.2885 13.0286C11.9059 13.5853 12.6487 13.9846 13.4536 14.1926C14.0081 14.3471 14.5211 14.6235 14.9551 15.0016C15.1074 15.1568 15.2268 15.341 15.3062 15.5433C15.3857 15.7457 15.4236 15.9619 15.4176 16.1792C15.4116 16.3965 15.3619 16.6104 15.2715 16.808C15.181 17.0057 15.0517 17.1831 14.8911 17.3296C14.4839 17.6422 13.9776 17.7972 13.4652 17.7662C12.9718 17.7799 12.49 17.6145 12.1091 17.3005C11.9161 17.1071 11.7669 16.8746 11.6715 16.6185C11.5761 16.3625 11.5368 16.089 11.5562 15.8164V15.7408H10.1943V15.8164C10.1607 16.216 10.2101 16.6182 10.3393 16.9978C10.4685 17.3773 10.6747 17.7261 10.9451 18.0222C11.4939 18.5385 12.202 18.8525 12.953 18.9127V20.2688H14.0821V18.9127C14.8312 18.8675 15.5411 18.563 16.0901 18.0513C16.339 17.7949 16.5326 17.49 16.6587 17.1556C16.7849 16.8212 16.8409 16.4644 16.8234 16.1074C16.8239 15.9125 16.8084 15.7178 16.7768 15.5254C16.7007 15.0202 16.464 14.5529 16.1017 14.1926Z" fill="currentColor"/>
</svg>
