<svg width="24" height="24" viewBox="0 0 24 24" fill="none" xmlns="http://www.w3.org/2000/svg">
<path d="M12 22.99C9.82416 22.99 7.69719 22.3447 5.88812 21.1357C4.07906 19.9268 2.66917 18.2085 1.83677 16.1982C1.00438 14.1878 0.786884 11.9758 1.21179 9.84186C1.6367 7.70791 2.68493 5.74791 4.22389 4.20976C5.76285 2.67162 7.7234 1.62443 9.85758 1.20065C11.9918 0.776869 14.2037 0.995534 16.2136 1.82899C18.2234 2.66245 19.941 4.07325 21.149 5.88296C22.357 7.69266 23.0012 9.81997 23 11.9958C22.9969 14.9117 21.8368 17.7072 19.7744 19.7685C17.712 21.8298 14.9159 22.9884 12 22.99ZM12 2.15983C10.0546 2.15983 8.15294 2.73671 6.53542 3.8175C4.91791 4.89829 3.65721 6.43446 2.91274 8.23175C2.16828 10.029 1.9735 12.0067 2.35302 13.9147C2.73254 15.8227 3.66933 17.5753 5.04492 18.9509C6.4205 20.3265 8.1731 21.2633 10.0811 21.6428C11.9891 22.0223 13.9668 21.8275 15.7641 21.0831C17.5614 20.3386 19.0975 19.0779 20.1783 17.4604C21.2591 15.8429 21.836 13.9412 21.836 11.9958C21.8329 9.38809 20.7956 6.88806 18.9517 5.04413C17.1077 3.20019 14.6077 2.16291 12 2.15983Z" fill="currentColor"/>
<path d="M7.07043 15.5286V8.49213H9.84081C10.5 8.43722 11.1574 8.61652 11.6974 8.99847C11.8935 9.17733 12.0474 9.39751 12.1481 9.64309C12.2487 9.88868 12.2936 10.1535 12.2794 10.4186C12.2824 10.7743 12.1701 11.1214 11.9593 11.408C11.7274 11.7052 11.3896 11.9012 11.0165 11.9551C11.4323 12.0076 11.8128 12.2155 12.0815 12.5371C12.3303 12.8313 12.4646 13.2053 12.4599 13.5905C12.472 13.866 12.4187 14.1403 12.3044 14.3912C12.1901 14.6421 12.018 14.8623 11.8022 15.0339C11.2388 15.4189 10.5624 15.6033 9.88155 15.5577L7.07043 15.5286ZM8.1879 11.5419H9.7535C10.6498 11.5419 11.0979 11.1985 11.0979 10.5059C11.0979 9.81329 10.6498 9.4699 9.7535 9.4699H8.1879V11.5419ZM8.1879 14.6032H9.93393C10.2936 14.6295 10.6513 14.5308 10.9466 14.3239C11.0514 14.2234 11.1347 14.1027 11.1917 13.9692C11.2486 13.8357 11.2779 13.692 11.2779 13.5469C11.2779 13.4017 11.2486 13.2581 11.1917 13.1245C11.1347 12.991 11.0514 12.8704 10.9466 12.7699C10.6513 12.5629 10.2936 12.4642 9.93393 12.4905H8.1879V14.6032Z" fill="currentColor" stroke="currentColor" stroke-width="0.25" stroke-miterlimit="10"/>
<path d="M15.7832 15.6159C15.2825 15.6294 14.7851 15.5299 14.3281 15.3249C13.9045 15.137 13.5417 14.8347 13.2805 14.4519L14.0721 13.7709C14.2276 14.0557 14.4593 14.2915 14.7414 14.4519C15.0642 14.6336 15.4303 14.7241 15.8006 14.7138C16.0716 14.7277 16.3413 14.6673 16.5805 14.5392C16.6687 14.4947 16.7427 14.4264 16.7941 14.3421C16.8455 14.2577 16.8723 14.1607 16.8715 14.0619C16.8691 13.9299 16.8219 13.8027 16.7377 13.7011C16.5943 13.5761 16.419 13.4934 16.2313 13.4625L15.108 13.2297C14.6532 13.1626 14.2292 12.9598 13.8916 12.6476C13.7713 12.5192 13.6775 12.3682 13.6156 12.2034C13.5536 12.0386 13.5248 11.8633 13.5308 11.6873C13.5316 11.396 13.6209 11.1119 13.7869 10.8725C13.9802 10.6145 14.2396 10.4135 14.5377 10.2905C14.9049 10.1318 15.3016 10.0524 15.7017 10.0577C16.1735 10.0461 16.6416 10.1437 17.0694 10.3429C17.4327 10.5172 17.735 10.7972 17.9366 11.1461L17.1451 11.8095C17.0255 11.5402 16.8211 11.3175 16.5631 11.1752C16.3109 11.039 16.029 10.9671 15.7424 10.9656C15.5449 10.9616 15.3481 10.9911 15.1604 11.0529C15.0184 11.0975 14.8902 11.1777 14.7879 11.2857C14.704 11.3849 14.6586 11.5109 14.6599 11.6408C14.6598 11.7107 14.6743 11.78 14.7023 11.8441C14.7304 11.9082 14.7714 11.9658 14.8228 12.0132C14.9906 12.1468 15.192 12.2314 15.4049 12.2577L16.6213 12.5138C17.0275 12.5607 17.4074 12.7384 17.7038 13.0201C17.9132 13.2598 18.0253 13.5692 18.0181 13.8873C18.0231 14.2083 17.9297 14.5231 17.7504 14.7894C17.554 15.0517 17.2877 15.2534 16.9821 15.3715C16.6027 15.5317 16.1951 15.6148 15.7832 15.6159Z" fill="currentColor" stroke="currentColor" stroke-width="0.25" stroke-miterlimit="10"/>
</svg>
