<svg width="24" height="24" viewBox="0 0 24 24" fill="none" xmlns="http://www.w3.org/2000/svg">
<path d="M19.9306 9.82878C20.3665 9.70386 20.7503 9.44129 21.0248 9.08026C21.2992 8.71923 21.4495 8.27912 21.4532 7.82565V7.6867C21.4516 7.13188 21.2302 6.60029 20.8373 6.20851C20.4444 5.81673 19.9122 5.59673 19.3574 5.59673H17.9506C18.099 5.30611 18.1782 4.98514 18.1822 4.65885V4.5257C18.1806 3.97034 17.9593 3.43815 17.5666 3.04545C17.1739 2.65275 16.6418 2.43146 16.0864 2.42993H3.34974C2.79491 2.43146 2.26333 2.65295 1.87155 3.04581C1.47977 3.43868 1.25976 3.97087 1.25977 4.5257V4.67622C1.25976 5.23105 1.47977 5.76324 1.87155 6.1561C2.26333 6.54897 2.79491 6.77044 3.34974 6.77198H4.76234C4.61135 7.05955 4.53192 7.37928 4.53077 7.70407V7.84302C4.53289 8.17832 4.61633 8.5081 4.77392 8.80406C4.36589 8.85199 3.98025 9.01624 3.66298 9.27724C3.3457 9.53824 3.11017 9.88498 2.98447 10.2761C2.85877 10.6673 2.8482 11.0863 2.95402 11.4833C3.05984 11.8802 3.27759 12.2384 3.58131 12.5151C3.36033 12.7148 3.1837 12.9587 3.06281 13.2309C2.94192 13.5031 2.87945 13.7977 2.87945 14.0956C2.87945 14.3934 2.94192 14.688 3.06281 14.9602C3.1837 15.2325 3.36033 15.4763 3.58131 15.6761C3.36099 15.8768 3.18498 16.1213 3.06455 16.394C2.94412 16.6666 2.88192 16.9614 2.88192 17.2595C2.88192 17.5575 2.94412 17.8523 3.06455 18.125C3.18498 18.3976 3.36099 18.6421 3.58131 18.8429C3.36114 19.0432 3.18514 19.2872 3.06453 19.5593C2.94391 19.8314 2.88133 20.1257 2.88079 20.4234C2.88232 20.9966 3.11112 21.5459 3.51702 21.9507C3.92291 22.3555 4.47277 22.5828 5.04602 22.5828H16.399C17.8993 22.5841 19.3586 22.0932 20.553 21.1854C21.7475 20.2775 22.6111 19.0028 23.0113 17.5569C23.4116 16.111 23.3264 14.5737 22.7689 13.1808C22.2113 11.788 21.2122 10.6165 19.9248 9.84614L19.9306 9.82878ZM2.42343 4.67622V4.54307C2.42343 4.29532 2.52144 4.05764 2.69608 3.88192C2.87072 3.7062 3.10779 3.60671 3.35552 3.60518H16.0922C16.3405 3.6067 16.5781 3.706 16.7537 3.88156C16.9292 4.05711 17.0285 4.29479 17.0301 4.54307V4.67622C17.0285 4.92449 16.9292 5.16216 16.7537 5.33772C16.5781 5.51328 16.3405 5.61258 16.0922 5.6141H3.35552C3.10779 5.61257 2.87072 5.51309 2.69608 5.33737C2.52144 5.16165 2.42343 4.92396 2.42343 4.67622ZM16.0864 6.77198H19.3574C19.6051 6.77197 19.8428 6.86999 20.0186 7.04463C20.1943 7.21926 20.2938 7.45633 20.2953 7.70407V7.84302C20.2938 8.09076 20.1943 8.32782 20.0186 8.50246C19.8428 8.6771 19.6051 8.77512 19.3574 8.77511H6.62074C6.373 8.77512 6.13531 8.6771 5.95959 8.50246C5.78387 8.32782 5.68439 8.09076 5.68286 7.84302V7.70407C5.68439 7.45633 5.78387 7.21926 5.95959 7.04463C6.13531 6.86999 6.373 6.77197 6.62074 6.77198H16.0864ZM4.04446 10.9346C4.04599 10.6684 4.1528 10.4136 4.34155 10.226C4.5303 10.0383 4.78564 9.93299 5.05181 9.93299H12.7343C11.9185 10.4499 11.2204 11.1324 10.6849 11.9361H5.05181C4.91832 11.9369 4.78603 11.911 4.66269 11.8599C4.53936 11.8089 4.42747 11.7337 4.33362 11.6387C4.23977 11.5438 4.16584 11.4311 4.11618 11.3071C4.06653 11.1832 4.04215 11.0507 4.04446 10.9172V10.9346ZM4.04446 14.0956C4.04599 13.8294 4.1528 13.5747 4.34155 13.387C4.5303 13.1993 4.78564 13.094 5.05181 13.094H10.0654C9.80147 13.7331 9.63557 14.4084 9.57333 15.0971H5.05181C4.91832 15.0979 4.78603 15.072 4.66269 15.0209C4.53936 14.9699 4.42747 14.8947 4.33362 14.7997C4.23977 14.7048 4.16584 14.5921 4.11618 14.4682C4.06653 14.3443 4.04215 14.2117 4.04446 14.0782V14.0956ZM4.04446 17.2624C4.04446 16.9952 4.15059 16.739 4.33951 16.5501C4.52842 16.3611 4.78464 16.255 5.05181 16.255H9.56754C9.62126 16.9445 9.77938 17.6219 10.0365 18.2639H5.05181C4.91854 18.2639 4.7866 18.2375 4.66362 18.1862C4.54064 18.1348 4.42908 18.0596 4.33538 17.9648C4.24169 17.87 4.16773 17.7576 4.11779 17.6341C4.06785 17.5105 4.04293 17.3783 4.04446 17.245V17.2624ZM5.05181 21.4249C4.78618 21.4249 4.53144 21.3194 4.34361 21.1316C4.15578 20.9438 4.05025 20.689 4.05025 20.4234C4.05025 20.1577 4.15578 19.903 4.34361 19.7152C4.53144 19.5273 4.78618 19.4218 5.05181 19.4218H10.6328C11.1426 20.2171 11.8107 20.899 12.5954 21.4249H5.05181ZM16.4048 21.4249C15.2753 21.4261 14.1709 21.0921 13.2313 20.4653C12.2916 19.8385 11.5591 18.9471 11.1263 17.9038C10.6936 16.8605 10.58 15.7122 10.8001 14.6044C11.0202 13.4965 11.564 12.4789 12.3626 11.6802C13.1613 10.8815 14.179 10.3377 15.2868 10.1177C16.3947 9.89758 17.5429 10.0111 18.5862 10.4439C19.6295 10.8766 20.5209 11.6092 21.1477 12.5488C21.7745 13.4884 22.1085 14.5929 22.1074 15.7224C22.1012 17.2313 21.4979 18.6764 20.4293 19.7418C19.3607 20.8071 17.9138 21.406 16.4048 21.4076V21.4249Z" fill="currentColor"/>
<path d="M16.0684 15.6124C16.1696 15.5507 16.2581 15.4701 16.3289 15.375C16.4739 15.1747 16.551 14.9333 16.5489 14.6861C16.5582 14.504 16.5267 14.3221 16.4565 14.1538C16.3864 13.9855 16.2795 13.8351 16.1436 13.7135C15.7892 13.4546 15.3538 13.3314 14.9163 13.3661H13.0811V17.9455H14.9452C15.3928 17.973 15.8368 17.8508 16.2073 17.5981C16.3553 17.4813 16.4737 17.3314 16.5532 17.1605C16.6326 16.9895 16.6708 16.8023 16.6647 16.6139C16.6681 16.4102 16.6161 16.2093 16.5141 16.0329C16.4121 15.8565 16.264 15.7111 16.0858 15.6124H16.0684ZM14.8642 15.2129H14.0537V14.2403H14.8642C15.4431 14.2403 15.5415 14.5008 15.5415 14.7266C15.5415 14.9524 15.4605 15.2129 14.8642 15.2129ZM15.501 16.9497C15.3456 17.0526 15.1598 17.0995 14.9742 17.0829H14.0537V16.0813H14.9742C15.1596 16.0674 15.3445 16.1141 15.501 16.2145C15.5514 16.2604 15.591 16.317 15.6171 16.38C15.6431 16.4431 15.6549 16.5111 15.6515 16.5792C15.6553 16.6474 15.6437 16.7155 15.6176 16.7786C15.5916 16.8418 15.5517 16.8982 15.501 16.9439V16.9497Z" fill="currentColor"/>
<path d="M19.0802 15.8383L18.3392 15.6819C18.1539 15.6472 18.0844 15.6009 18.0613 15.572C18.0428 15.5576 18.028 15.5391 18.018 15.518C18.0079 15.4969 18.0029 15.4737 18.0034 15.4504C18.0009 15.4062 18.0154 15.3627 18.0439 15.3288C18.0917 15.2824 18.149 15.2468 18.2118 15.2246C18.4605 15.1513 18.7277 15.1762 18.9586 15.2941C19.0917 15.3635 19.1977 15.4757 19.2597 15.6125L19.3407 15.7804L20.0528 15.2014L19.9949 15.0972C19.8631 14.8587 19.6609 14.6667 19.416 14.5472C19.1362 14.4133 18.8287 14.3478 18.5186 14.3562C18.2497 14.3496 17.9827 14.403 17.7371 14.5125C17.5291 14.6022 17.3492 14.7462 17.216 14.9293C17.0995 15.1 17.037 15.3017 17.0365 15.5083C17.0322 15.6346 17.053 15.7606 17.0977 15.8788C17.1424 15.9971 17.2102 16.1053 17.2971 16.1972C17.5249 16.4022 17.8095 16.5334 18.1134 16.5735L18.7965 16.7182C18.8816 16.7278 18.9621 16.762 19.0281 16.8167C19.0577 16.8525 19.074 16.8975 19.0744 16.944C19.0734 16.9787 19.0632 17.0125 19.0449 17.042C19.0266 17.0715 19.0008 17.0956 18.9702 17.1119C18.8438 17.1718 18.7046 17.1997 18.5649 17.193C18.363 17.1996 18.163 17.1516 17.986 17.054C17.8348 16.9655 17.7107 16.8374 17.6271 16.6835L17.5402 16.5272L16.8281 17.1467L16.8976 17.2509C17.074 17.5018 17.3137 17.7016 17.5923 17.8298C17.8921 17.9662 18.2182 18.0354 18.5476 18.0324C18.817 18.0363 19.0845 17.9871 19.3349 17.8877C19.5467 17.8018 19.7295 17.6572 19.8618 17.4709C19.9895 17.2855 20.0563 17.0649 20.0528 16.8398C20.0586 16.6105 19.978 16.3873 19.827 16.2146C19.6267 16.0097 19.364 15.8774 19.0802 15.8383Z" fill="currentColor"/>
</svg>
