<svg width="24" height="24" viewBox="0 0 24 24" fill="none" xmlns="http://www.w3.org/2000/svg">
<path d="M9.4266 15.1197C9.4266 14.8129 9.16033 14.5524 8.84775 14.5466H2.86821C2.54984 14.5466 2.28936 14.8071 2.28936 15.1255C2.28936 15.4439 2.54984 15.7043 2.86821 15.7043H7.44694L1.16638 21.9791C0.940632 22.2048 0.940632 22.5695 1.16638 22.8011C1.28215 22.9168 1.42687 22.9689 1.57737 22.9689C1.72787 22.9689 1.87259 22.911 1.98836 22.8011L8.27469 16.5263V21.0761C8.27469 21.3945 8.53518 21.6549 8.85355 21.6549C9.17192 21.6549 9.4324 21.3945 9.4324 21.0761C9.4324 21.0703 9.43239 15.1197 9.4266 15.1197Z" fill="currentColor"/>
<path d="M20.8069 9.78263C21.1253 9.78263 21.3858 9.52215 21.3858 9.20378C21.3858 8.88541 21.1253 8.62493 20.8069 8.62493H16.1819L22.8271 1.99128C23.0529 1.76553 23.0529 1.40086 22.8271 1.16931C22.6014 0.943562 22.2367 0.943562 22.0051 1.16931L15.4062 7.76244V3.25318C15.4062 2.93481 15.1458 2.67433 14.8274 2.67433C14.509 2.67433 14.2485 2.93481 14.2485 3.25318V9.20378C14.2485 9.52215 14.509 9.78263 14.8274 9.78263H20.8069Z" fill="currentColor"/>
<path d="M9.7276 9.18067V3.20112C9.7276 2.88276 9.46712 2.62227 9.14875 2.62227C8.83038 2.62227 8.5699 2.88276 8.5699 3.20112V7.77984L1.98836 1.19251C1.76261 0.966755 1.39793 0.966755 1.16638 1.19251C0.940632 1.41826 0.940632 1.78294 1.16638 2.01448L7.74794 8.6076H3.19816C2.87979 8.6076 2.61931 8.86808 2.61931 9.18645C2.61931 9.50482 2.87979 9.76531 3.19816 9.76531H9.14875C9.45554 9.75952 9.7276 9.49325 9.7276 9.18067Z" fill="currentColor"/>
<path d="M22.827 21.9907L16.5348 15.687H21.0441C21.3625 15.687 21.623 15.4265 21.623 15.1081C21.623 14.7898 21.3625 14.5293 21.0441 14.5293H15.0935C14.7751 14.5293 14.5146 14.7898 14.5146 15.1081V21.0877C14.5146 21.4061 14.7751 21.6665 15.0935 21.6665C15.4119 21.6665 15.6724 21.4061 15.6724 21.0877V16.4627L22.0108 22.8069C22.1265 22.9226 22.2713 22.9747 22.4218 22.9747C22.5723 22.9747 22.717 22.9169 22.8327 22.8069C23.0527 22.5811 23.0527 22.2164 22.827 21.9907Z" fill="currentColor"/>
</svg>
