<svg width="24" height="24" viewBox="0 0 24 24" fill="none" xmlns="http://www.w3.org/2000/svg">
<path d="M22.005 10.937C22.196 10.5434 22.306 10.1093 22.306 9.6463C22.306 7.99095 20.9574 6.64236 19.302 6.64236C17.6467 6.64236 16.2981 7.99095 16.2981 9.6463C16.2981 10.1093 16.4139 10.5492 16.6049 10.9428C16.4254 11.0238 16.2576 11.128 16.1013 11.2554C15.9566 11.1627 15.8003 11.0875 15.6441 11.0238C15.9161 10.5145 16.0724 9.92991 16.0724 9.3106C16.0724 7.30218 14.4402 5.66998 12.4317 5.66998C10.4233 5.66998 8.79113 7.30218 8.79113 9.3106C8.79113 9.92991 8.9474 10.5087 9.21943 11.018C9.05737 11.0817 8.90688 11.1627 8.76218 11.2554C8.60591 11.128 8.43805 11.0238 8.25284 10.9428C8.44384 10.5492 8.5596 10.1151 8.5596 9.6463C8.5596 7.99095 7.21101 6.64236 5.55565 6.64236C3.9003 6.64236 2.55171 7.99095 2.55171 9.6463C2.55171 10.1093 2.66748 10.5434 2.85269 10.937C2.01344 11.3248 1.44043 12.1641 1.44043 13.1364V15.2317C1.44043 16.3603 2.36072 17.2806 3.48937 17.2806H7.24574C7.41359 17.2806 7.58143 17.2632 7.7435 17.2285C8.23547 18.1488 9.19627 18.7855 10.3133 18.7855H16.9058C17.2242 18.7855 17.473 18.5308 17.4846 18.2183V17.2632C17.5367 17.269 17.583 17.2806 17.6351 17.2806H22.8616C23.1684 17.2806 23.4115 17.0375 23.4346 16.7365L23.4404 16.7423V15.1854V14.1841V13.1306C23.4231 12.1641 22.8443 11.3248 22.005 10.937ZM5.54408 7.79995C6.56276 7.79995 7.39044 8.62762 7.39044 9.6463C7.39044 10.665 6.56276 11.4927 5.54408 11.4927C4.5254 11.4927 3.69773 10.665 3.69773 9.6463C3.69773 8.62762 4.5254 7.79995 5.54408 7.79995ZM7.37887 13.7094V15.8683C7.37887 15.9494 7.39622 16.0246 7.40201 16.1057C7.34413 16.1114 7.28626 16.123 7.22838 16.123H3.47201C2.98003 16.123 2.58066 15.7237 2.58066 15.2317V13.1364C2.58066 12.5461 3.00897 12.0309 3.57618 11.9036C4.10289 12.3666 4.78586 12.656 5.54408 12.656C6.3023 12.656 6.97949 12.3666 7.51198 11.9036C7.65668 11.9383 7.78981 11.9904 7.91135 12.0657C7.58144 12.5403 7.37887 13.1075 7.37887 13.7094ZM19.302 7.79995C20.3207 7.79995 21.1484 8.62762 21.1484 9.6463C21.1484 10.665 20.3207 11.4927 19.302 11.4927C18.2834 11.4927 17.4557 10.665 17.4557 9.6463C17.4557 8.62762 18.2834 7.79995 19.302 7.79995ZM12.426 6.82757C13.7977 6.82757 14.909 7.93886 14.909 9.3106C14.909 10.6823 13.7977 11.7936 12.426 11.7936C11.0542 11.7936 9.94293 10.6823 9.94293 9.3106C9.94293 7.93886 11.0542 6.82757 12.426 6.82757ZM16.3097 17.6279H10.296C9.32361 17.6279 8.53646 16.8407 8.53646 15.8683V13.7094C8.53646 12.876 9.14998 12.1409 9.96608 11.9846C10.6143 12.5808 11.4767 12.9454 12.4202 12.9454C13.3636 12.9454 14.2202 12.5808 14.8685 11.9904C15.6846 12.1409 16.3039 12.8644 16.3039 13.7094V15.631V16.5455V16.9565V17.6279H16.3097ZM22.2655 15.5037V16.123H17.6178C17.5657 16.123 17.5194 16.1114 17.4673 16.1057V15.631V13.7094C17.4673 13.0959 17.2705 12.5287 16.9464 12.0599C17.0679 11.9846 17.201 11.9325 17.3341 11.9036C17.8608 12.3666 18.5438 12.656 19.302 12.656C20.0545 12.656 20.7375 12.3666 21.2699 11.9036C21.8372 12.0309 22.2655 12.5461 22.2655 13.1364V14.1898V15.5037Z" fill="currentColor"/>
</svg>
