<svg width="25" height="24" viewBox="0 0 25 24" fill="none" xmlns="http://www.w3.org/2000/svg">
<path d="M21.0671 10.083C19.9147 10.083 18.9766 11.015 18.9766 12.1599C18.9766 13.3048 19.9147 14.2368 21.0671 14.2368C22.2195 14.2368 23.1576 13.3048 23.1576 12.1599C23.1576 11.015 22.2195 10.083 21.0671 10.083ZM21.0671 13.0919C20.5517 13.0919 20.1348 12.6777 20.1348 12.1656C20.1348 11.6536 20.5517 11.2394 21.0671 11.2394C21.5825 11.2394 21.9994 11.6536 21.9994 12.1656C21.9994 12.6777 21.5825 13.0919 21.0671 13.0919Z" fill="currentColor"/>
<path d="M21.0671 6.15375C22.2195 6.15375 23.1576 5.22175 23.1576 4.07687C23.1576 2.932 22.2195 2 21.0671 2C19.9147 2 18.9766 2.932 18.9766 4.07687C18.9766 5.22175 19.9147 6.15375 21.0671 6.15375ZM21.0671 3.14487C21.5825 3.14487 21.9994 3.55909 21.9994 4.07112C21.9994 4.58315 21.5825 4.99737 21.0671 4.99737C20.5517 4.99737 20.1348 4.58315 20.1348 4.07112C20.1348 3.55909 20.5517 3.14487 21.0671 3.14487Z" fill="currentColor"/>
<path d="M21.0671 18.0801C19.9147 18.0801 18.9766 19.0121 18.9766 20.157C18.9766 21.3018 19.9147 22.2338 21.0671 22.2338C22.2195 22.2338 23.1576 21.3018 23.1576 20.157C23.1576 19.0121 22.2195 18.0801 21.0671 18.0801ZM21.0671 21.089C20.5517 21.089 20.1348 20.6747 20.1348 20.1627C20.1348 19.6507 20.5517 19.2365 21.0671 19.2365C21.5825 19.2365 21.9994 19.6507 21.9994 20.1627C21.9994 20.6747 21.5825 21.089 21.0671 21.089Z" fill="currentColor"/>
<path d="M15.9827 5.72816C16.0927 5.82596 16.2317 5.87199 16.3649 5.87199C16.5271 5.87199 16.6834 5.8087 16.7992 5.67638L17.8937 4.45097C17.8937 4.45097 17.9285 4.39344 17.9458 4.36467C17.9632 4.3359 17.9806 4.31289 17.9922 4.28413C18.0443 4.14605 18.0443 3.99647 17.9922 3.8584C17.9806 3.82963 17.9632 3.80662 17.9458 3.78361C17.9285 3.75484 17.9169 3.72032 17.8879 3.69156L16.7934 2.46614C16.5792 2.23026 16.2143 2.20725 15.9769 2.41436C15.7395 2.62723 15.7163 2.98968 15.9248 3.22555L16.1622 3.49595H14.1122C13.7937 3.49595 13.5331 3.75484 13.5331 4.07126V11.5963H12.0391C11.7206 11.5963 11.46 11.8552 11.46 12.1716C11.46 12.4881 11.7206 12.747 12.0391 12.747H13.5331V20.272C13.5331 20.5885 13.7937 20.8473 14.1122 20.8473H16.0638L15.9248 21.0027C15.7105 21.2386 15.7337 21.6068 15.9769 21.8139C16.0869 21.9117 16.2259 21.9577 16.3591 21.9577C16.5213 21.9577 16.6776 21.8944 16.7934 21.7621L17.8879 20.5367C18.079 20.3181 18.079 19.9901 17.8879 19.7715L16.7934 18.5461C16.5792 18.3102 16.2143 18.2872 15.9769 18.5001C15.7395 18.7129 15.7163 19.0754 15.9306 19.3113L16.2723 19.691H14.6971V12.7412H16.168L15.9306 13.0058C15.7163 13.2417 15.7395 13.6042 15.9769 13.817C16.0869 13.9148 16.2259 13.9609 16.3591 13.9609C16.5213 13.9609 16.6776 13.8976 16.7934 13.7653L17.8879 12.5398C17.8879 12.5398 17.9227 12.4823 17.9401 12.4478C17.9574 12.419 17.9748 12.396 17.9864 12.3673C18.0385 12.2292 18.0385 12.0796 17.9864 11.9415C17.9748 11.9128 17.9574 11.8897 17.9401 11.8667C17.9227 11.838 17.9111 11.8034 17.8821 11.7747L16.7876 10.5493C16.5734 10.3134 16.2086 10.2904 15.9711 10.4975C15.7337 10.7104 15.7105 11.0728 15.919 11.3087L16.1564 11.5791H14.6855V4.64657H16.1564L15.919 4.91122C15.7047 5.14709 15.7279 5.50954 15.9653 5.72241L15.9827 5.72816Z" fill="currentColor"/>
<path d="M9.41612 10.8197C9.68829 10.3134 9.84465 9.73234 9.84465 9.11676C9.84465 7.12043 8.2116 5.49805 6.20213 5.49805C4.19267 5.49805 2.55962 7.12043 2.55962 9.11676C2.55962 9.73234 2.71597 10.3077 2.98815 10.8139C1.91103 11.2512 1.1582 12.304 1.1582 13.4891V15.6293C1.1582 17.2286 2.46696 18.5289 4.07685 18.5289H10.6728C10.9913 18.5289 11.2519 18.27 11.2519 17.9535V13.4834C11.2519 12.2695 10.499 11.2397 9.42191 10.8082L9.41612 10.8197ZM6.19634 6.65442C7.5688 6.65442 8.68067 7.75902 8.68067 9.12251C8.68067 10.486 7.56301 11.5906 6.19634 11.5906C4.82967 11.5906 3.71202 10.486 3.71202 9.12251C3.71202 7.75902 4.82388 6.65442 6.19634 6.65442ZM10.0879 17.3897H4.07106C3.09818 17.3897 2.31061 16.6073 2.31061 15.6408V13.5006C2.31061 12.6722 2.92445 11.9415 3.74097 11.7862C4.38956 12.3788 5.25242 12.7412 6.19634 12.7412C7.14027 12.7412 7.99733 12.3788 8.64592 11.792C9.46245 11.9415 10.0821 12.6607 10.0821 13.4949V17.3897H10.0879Z" fill="currentColor"/>
</svg>
