<svg width="24" height="24" viewBox="0 0 24 24" fill="none" xmlns="http://www.w3.org/2000/svg">
<path d="M23.0124 15.12V3.14947C23.0124 2.8308 22.7517 2.57007 22.433 2.57007H1.60919C1.29052 2.57007 1.02979 2.8308 1.02979 3.14947V15.1895C1.02979 17.0784 2.5652 18.608 4.44827 18.608H11.4417V19.3902H7.55388C7.23521 19.3902 6.97447 19.6509 6.97447 19.9696C6.97447 20.2883 7.23521 20.549 7.55388 20.549H16.4941C16.8128 20.549 17.0735 20.2883 17.0735 19.9696C17.0735 19.6509 16.8128 19.3902 16.4941 19.3902H12.6005V18.608H22.433C22.7517 18.608 23.0124 18.3473 23.0124 18.0286V15.2996C23.0182 15.2706 23.0298 15.2417 23.0298 15.2127C23.0298 15.1837 23.0182 15.1489 23.0124 15.12ZM21.8536 3.72888V14.6275H2.18859V3.72888H21.8536ZM4.45407 17.4492C3.41693 17.4492 2.54783 16.7423 2.2813 15.7863H21.8536V17.4492H4.45407Z" fill="currentColor"/>
<path d="M12.0211 17.1247C12.3315 17.1247 12.5831 16.873 12.5831 16.5626C12.5831 16.2522 12.3315 16.0006 12.0211 16.0006C11.7107 16.0006 11.459 16.2522 11.459 16.5626C11.459 16.873 11.7107 17.1247 12.0211 17.1247Z" fill="currentColor"/>
</svg>
