<svg width="24" height="24" viewBox="0 0 24 24" fill="none" xmlns="http://www.w3.org/2000/svg">
<path d="M21.5204 5.6288H4.87833L4.04478 3.56026C3.95795 3.33946 3.74377 3.20001 3.50644 3.20001H1.57885C1.26048 3.20001 1 3.46148 1 3.78106C1 4.10064 1.26048 4.36211 1.57885 4.36211H3.11282L5.16196 9.45211C5.16775 9.46373 5.17354 9.46954 5.17933 9.48116L6.6554 13.5485C6.82327 14.0133 7.08954 14.4143 7.4137 14.7629C6.31967 14.8849 5.46297 15.803 5.46297 16.936C5.46297 18.1446 6.44702 19.1324 7.65103 19.1324H8.51931C8.77401 20.0911 9.64229 20.8 10.6727 20.8C11.703 20.8 12.5713 20.0911 12.826 19.1324H14.5452C14.7999 20.0911 15.6682 20.8 16.6985 20.8C17.9315 20.8 18.9387 19.789 18.9387 18.5513C18.9387 17.3137 17.9315 16.3027 16.6985 16.3027C15.6624 16.3027 14.7999 17.0116 14.5452 17.9703H12.826C12.5713 17.0116 11.703 16.3027 10.6727 16.3027C9.64229 16.3027 8.77401 17.0116 8.51931 17.9703H7.65103C7.08376 17.9703 6.62067 17.5055 6.62067 16.936C6.62067 16.3666 7.08376 15.9018 7.65103 15.9018H10.007H11.1647H19.5002C19.7433 15.9018 19.9633 15.7507 20.0443 15.5183L22.9096 7.6218C23.0775 7.16858 23.008 6.65726 22.7302 6.26214C22.4581 5.86703 22.0066 5.6288 21.5204 5.6288ZM16.7101 17.4648C17.3063 17.4648 17.7925 17.9529 17.7925 18.5513C17.7925 19.1498 17.3063 19.6379 16.7101 19.6379C16.1139 19.6379 15.6276 19.1498 15.6276 18.5513C15.6276 17.9471 16.1139 17.4648 16.7101 17.4648ZM10.6842 17.4648C11.2804 17.4648 11.7667 17.9529 11.7667 18.5513C11.7667 19.1498 11.2804 19.6379 10.6842 19.6379C10.088 19.6379 9.60177 19.1498 9.60177 18.5513C9.60177 17.9471 10.088 17.4648 10.6842 17.4648ZM21.8272 7.22669L19.4654 13.7228H8.06201C7.94045 13.5485 7.83047 13.3568 7.75522 13.1534L5.4456 6.7909H21.5262C21.6709 6.7909 21.7519 6.87806 21.7924 6.93035C21.8214 6.98265 21.8735 7.08724 21.8272 7.22669Z" fill="currentColor"/>
</svg>
