<svg width="24" height="25" viewBox="0 0 24 25" fill="none" xmlns="http://www.w3.org/2000/svg">
<path d="M18.052 4.84591C18.6819 4.84591 19.1925 4.33532 19.1925 3.70549C19.1925 3.07565 18.6819 2.56506 18.052 2.56506C17.4222 2.56506 16.9116 3.07565 16.9116 3.70549C16.9116 4.33532 17.4222 4.84591 18.052 4.84591Z" fill="currentColor"/>
<path d="M9.40556 19.4154C10.0354 19.4154 10.546 18.9048 10.546 18.2749C10.546 17.6451 10.0354 17.1345 9.40556 17.1345C8.77572 17.1345 8.26514 17.6451 8.26514 18.2749C8.26514 18.9048 8.77572 19.4154 9.40556 19.4154Z" fill="currentColor"/>
<path d="M9.06826 7.8133C9.06826 7.00453 8.41077 6.34705 7.602 6.34705C6.79323 6.34705 6.13574 7.00453 6.13574 7.8133C6.13574 8.62207 6.79323 9.27956 7.602 9.27956C8.41077 9.27374 9.06826 8.62207 9.06826 7.8133Z" fill="currentColor"/>
<path d="M15.7886 7.84825C16.2076 7.84825 16.545 7.51078 16.545 7.09185C16.545 6.67292 16.2076 6.33545 15.7886 6.33545C15.3697 6.33545 15.0322 6.67292 15.0322 7.09185C15.0322 7.51078 15.3697 7.84825 15.7886 7.84825Z" fill="currentColor"/>
<path d="M11.3023 12.3168C10.8834 12.3168 10.5459 12.6542 10.5459 13.0732C10.5459 13.4921 10.8834 13.8296 11.3023 13.8296C11.7212 13.8296 12.0587 13.4921 12.0587 13.0732C12.0587 12.6542 11.7212 12.3168 11.3023 12.3168Z" fill="currentColor"/>
<path d="M17.3072 15.3132C16.8883 15.3132 16.5508 15.6507 16.5508 16.0696C16.5508 16.4886 16.8883 16.826 17.3072 16.826C17.7261 16.826 18.0636 16.4886 18.0636 16.0696C18.0636 15.6565 17.7261 15.3132 17.3072 15.3132Z" fill="currentColor"/>
<path d="M20.2979 10.8331C20.7168 10.8331 21.0543 10.4956 21.0543 10.0767C21.0543 9.65779 20.7168 9.32031 20.2979 9.32031C19.879 9.32031 19.5415 9.65779 19.5415 10.0767C19.5415 10.4898 19.879 10.8331 20.2979 10.8331Z" fill="currentColor"/>
<path d="M3.85504 12.3168C3.43611 12.3168 3.09863 12.6542 3.09863 13.0732C3.09863 13.4921 3.43611 13.8296 3.85504 13.8296C4.27397 13.8296 4.61144 13.4921 4.61144 13.0732C4.61144 12.6542 4.27397 12.3168 3.85504 12.3168Z" fill="currentColor"/>
<path d="M22.5614 14.941C22.3927 14.7257 22.1541 14.7199 21.8981 14.7141C21.2755 14.6966 20.6588 14.4522 20.1933 14.0449C19.914 13.8005 19.6929 13.498 19.5358 13.1663C19.4544 12.9976 19.3962 12.823 19.3496 12.6427C19.3089 12.4681 19.2856 12.2994 19.1576 12.1656C19.1343 12.1423 19.1052 12.119 19.0762 12.0957C18.9481 12.0085 18.791 11.9735 18.6398 12.0026C18.343 12.055 18.0696 12.0841 17.8019 12.0841C15.2592 12.0841 13.1878 10.0127 13.1878 7.47004C13.1878 7.0802 13.2402 6.67291 13.3508 6.27143C13.4322 5.96887 13.2577 5.66049 12.9609 5.5674C11.8147 5.21247 11.0466 4.16514 11.0466 2.96071C11.0466 2.68143 11.0874 2.40796 11.1688 2.14613C11.227 1.95412 11.1863 1.75047 11.0583 1.59337C10.9303 1.44209 10.7325 1.36645 10.5346 1.39555C5.10598 2.15195 1.00977 6.85328 1.00977 12.3343C1.00977 18.4321 5.96711 23.3894 12.0649 23.3894C16.9233 23.3894 21.2814 20.1311 22.6603 15.4705C22.7127 15.2843 22.6778 15.0923 22.5614 14.941ZM12.0649 22.2199C6.61296 22.2199 2.17346 17.7804 2.17346 12.3285C2.17346 7.70278 5.43763 3.69385 9.88877 2.68725C9.88295 2.77453 9.87713 2.86762 9.87713 2.9549C9.87713 4.48516 10.7557 5.84086 12.1056 6.47508C12.0474 6.80673 12.0183 7.13839 12.0183 7.46422C12.0183 10.8157 14.8927 13.5329 18.3023 13.2187C18.7503 14.5744 19.9082 15.5752 21.3105 15.8254C19.8733 19.6248 16.1669 22.2199 12.0649 22.2199Z" fill="currentColor"/>
</svg>
