<svg width="24" height="24" viewBox="0 0 24 24" fill="none" xmlns="http://www.w3.org/2000/svg">
<path d="M19.5147 4.14001H4.55475C4.23632 4.14001 3.9758 4.40054 3.9758 4.71896V7.1158H1.57895C1.26053 7.1158 1 7.37633 1 7.69475V16.6974C1 18.6195 2.56315 20.1826 4.48526 20.1826H19.4453C19.7637 20.1826 20.0242 19.9221 20.0242 19.6037V16.8132H22.4211C22.7395 16.8132 23 16.5526 23 16.2342V7.62528C23 5.70317 21.4368 4.14001 19.5147 4.14001ZM5.13369 5.29791H19.5147C20.8 5.29791 21.8421 6.34001 21.8421 7.62528V8.20423H19.0632C18.4263 7.53844 17.5347 7.1158 16.5389 7.1158H5.13369V5.29791ZM16.5389 8.27949C17.8242 8.27949 18.8663 9.32159 18.8663 10.6069V11.5795H2.15789V8.27949H16.5389ZM18.8663 19.0305H4.48526C3.19999 19.0305 2.15789 17.9884 2.15789 16.7032V13.27H18.8663V19.0305ZM20.0242 15.6553V10.6011C20.0242 10.3579 20.0011 10.1205 19.949 9.89475H21.8421V15.6553H20.0242Z" fill="currentColor"/>
</svg>
