<svg width="24" height="24" viewBox="0 0 24 24" fill="none" xmlns="http://www.w3.org/2000/svg">
<path d="M19.5022 8.58831H8.81206C8.93367 8.28718 9.02053 7.96868 9.06686 7.6328H18.7668C19.0853 7.6328 19.3459 7.3722 19.3459 7.0537C19.3459 6.73519 19.0853 6.4746 18.7668 6.4746H9.06686C8.7831 4.51145 7.09792 3 5.05949 3C2.81837 3 1 4.81837 1 7.0537C1 8.94156 2.29718 10.5225 4.04027 10.9742C4.01711 11.0379 3.99974 11.1016 3.99974 11.1653V16.4988C3.99974 18.4272 5.5691 20.0024 7.50329 20.0024H22.4209C22.7394 20.0024 23 19.7418 23 19.4233V12.0861C23 10.1577 21.4306 8.58252 19.4964 8.58252L19.5022 8.58831ZM2.1582 7.0537C2.1582 5.45538 3.46117 4.1582 5.0537 4.1582C6.64622 4.1582 7.9492 5.46117 7.9492 7.0537C7.9492 8.64622 6.64622 9.9492 5.0537 9.9492C3.46117 9.9492 2.1582 8.64622 2.1582 7.0537ZM21.8476 18.85H7.50329C6.2119 18.85 5.15794 17.796 5.15794 16.5046V11.1711C5.15794 11.1711 5.14635 11.1306 5.14635 11.1074C6.31614 11.0784 7.35851 10.5573 8.08239 9.74651H8.09397H19.4964C20.7878 9.74651 21.8418 10.8005 21.8418 12.0919V18.85H21.8476Z" fill="currentColor"/>
<path d="M19.2128 11.1769V10.5978H17.8577H13.5029H9.91824H7.79294V11.1769C7.79294 11.785 7.31229 12.2772 6.71582 12.2772H6.13672V16.7478H6.71582C7.20226 16.7478 7.61342 17.0779 7.71766 17.547L7.81611 18.0045H19.1896L19.2881 17.547C19.3923 17.0779 19.8035 16.7478 20.2899 16.7478H20.869V12.2772H20.2899C19.6992 12.2772 19.2128 11.785 19.2128 11.1769ZM13.5029 16.6147C12.2231 16.6147 11.1865 15.5781 11.1865 14.2983C11.1865 13.0184 12.2231 11.9819 13.5029 11.9819C14.7827 11.9819 15.8193 13.0184 15.8193 14.2983C15.8193 15.5781 14.7827 16.6147 13.5029 16.6147ZM18.3905 14.9121C18.0546 14.9121 17.7766 14.6399 17.7766 14.2983C17.7766 13.9566 18.0488 13.6844 18.3905 13.6844C18.7321 13.6844 19.0043 13.9566 19.0043 14.2983C19.0043 14.6399 18.7321 14.9121 18.3905 14.9121Z" fill="currentColor"/>
<path d="M7.10951 5.45539C6.94157 5.28745 6.6636 5.28745 6.49567 5.45539L4.24297 7.70809L3.6407 6.97842C3.49014 6.79311 3.21217 6.76995 3.02686 6.92051C2.84155 7.07108 2.81838 7.34905 2.96895 7.53436L3.87813 8.62886C3.95342 8.72151 4.06924 8.77942 4.19085 8.78522C4.19664 8.78522 4.20243 8.78522 4.21401 8.78522C4.32983 8.78522 4.43986 8.73889 4.52094 8.65781L7.10951 6.06924C7.27745 5.9013 7.27745 5.62333 7.10951 5.45539Z" fill="currentColor"/>
</svg>
