<svg width="24" height="24" viewBox="0 0 24 24" fill="none" xmlns="http://www.w3.org/2000/svg">
<path d="M22.6515 8.70527H15.7852V1.83896C15.7852 1.52054 15.5247 1.26001 15.2062 1.26001H1.80942C1.491 1.26001 1.23047 1.52054 1.23047 1.83896V12.3063C1.23047 14.24 2.8052 15.8147 4.73889 15.8147H8.67572V19.7516C8.67572 21.6853 10.2505 23.26 12.1841 23.26H22.6515C22.9699 23.26 23.2305 22.9995 23.2305 22.6811V9.28422C23.2305 8.9658 22.9757 8.70527 22.6515 8.70527ZM4.73889 14.6569C3.44205 14.6569 2.38836 13.6032 2.38836 12.3063V2.4179H14.6273V8.70527H9.24888C8.93045 8.70527 8.66993 8.9658 8.66993 9.28422V14.6626H4.73889V14.6569ZM14.6331 9.86317V14.6626H9.83362V9.86317H14.6331ZM22.0726 22.1021H12.1841C10.8873 22.1021 9.83362 21.0484 9.83362 19.7516V15.8147H15.212C15.5305 15.8147 15.791 15.5542 15.791 15.2358V9.85738H22.0784V22.1021H22.0726Z" fill="currentColor"/>
</svg>
