<svg width="24" height="24" viewBox="0 0 24 24" fill="none" xmlns="http://www.w3.org/2000/svg">
<path d="M19.8136 18.606H6.46886C4.85359 18.606 3.46411 17.506 3.09359 15.9312L1.00936 7.07332C0.963049 6.8649 1.02674 6.65068 1.18884 6.51174C1.34516 6.37279 1.57095 6.32647 1.76779 6.39595L9.22466 9.04175L11.5694 6.54647C11.7894 6.31489 12.1947 6.31489 12.4147 6.54647L14.7594 9.04175L22.2221 6.39595C22.4189 6.32647 22.6447 6.367 22.801 6.51174C22.9573 6.65068 23.0268 6.87069 22.9805 7.07332L20.3752 18.1602C20.3173 18.4207 20.08 18.606 19.8136 18.606ZM2.38148 7.84332L4.22253 15.6707C4.46569 16.7186 5.39201 17.4539 6.46886 17.4539H19.3563L21.6142 7.84911L14.7999 10.2633C14.5799 10.3386 14.3426 10.2807 14.1863 10.1128L11.9978 7.79122L9.81519 10.1128C9.65887 10.2807 9.41571 10.3386 9.2015 10.2633L2.38148 7.84332Z" fill="currentColor"/>
</svg>
