<svg width="24" height="24" viewBox="0 0 24 24" fill="none" xmlns="http://www.w3.org/2000/svg">
<path d="M13.5185 13.0845H10.4823C8.5431 13.0845 6.96582 14.6618 6.96582 16.5998V18.5606H17.0349V16.5998C17.0349 14.6618 15.4576 13.0845 13.5185 13.0845Z" fill="#C9C2EA"/>
<path d="M11.9995 11.6142C13.9296 11.6142 15.5001 10.0438 15.5001 8.11483C15.5001 6.18477 13.9296 4.61432 11.9995 4.61432C10.0695 4.61432 8.49902 6.18477 8.49902 8.11483C8.50016 10.0438 10.0695 11.6142 11.9995 11.6142Z" fill="#C9C2EA"/>
<path d="M15.9606 8.11481C15.9606 5.93097 14.1841 4.15454 12.0003 4.15454C9.81647 4.15454 8.04004 5.93097 8.04004 8.11481C8.04004 10.2987 9.81647 12.0751 12.0003 12.0751C14.1853 12.0739 15.9606 10.2987 15.9606 8.11481ZM8.50093 8.11481C8.50093 6.18475 10.0714 4.6143 12.0014 4.6143C13.9315 4.6143 15.502 6.18475 15.502 8.11481C15.502 10.0437 13.9315 11.6142 12.0014 11.6142C10.0702 11.6142 8.50093 10.0437 8.50093 8.11481Z" fill="currentColor"/>
<path d="M6.50586 16.5999V18.7905C6.50586 18.918 6.60828 19.0204 6.73574 19.0204H17.2646C17.392 19.0204 17.4945 18.918 17.4945 18.7905V16.5999C17.4945 14.4081 15.7101 12.6237 13.5171 12.6237H10.4821C8.28912 12.6237 6.50586 14.4081 6.50586 16.5999ZM10.4821 13.0846H13.5183C15.4574 13.0846 17.0347 14.6618 17.0347 16.5999V18.5606H6.96561V16.5999C6.96561 14.6618 8.54403 13.0846 10.4821 13.0846Z" fill="currentColor"/>
<path d="M22.8486 10.1632C22.8281 10.0381 22.7098 9.94816 22.5835 9.97434C22.5823 9.97434 22.5812 9.97547 22.5801 9.97547C22.456 9.99823 22.3741 10.1154 22.3946 10.2395C22.4913 10.8187 22.5414 11.4116 22.5414 12.0011C22.5414 17.8129 17.8129 22.5414 12.0011 22.5414C6.18932 22.5414 1.46089 17.8118 1.46089 12C1.46089 6.18818 6.18932 1.45976 12.0011 1.45976C14.4057 1.45976 16.7569 2.2905 18.6232 3.7995L17.3202 5.10252C17.261 5.16284 17.2382 5.25046 17.2621 5.33126C17.2872 5.41206 17.3532 5.47351 17.4363 5.49058L20.6432 6.15859C20.658 6.16201 20.6739 6.16315 20.6898 6.16315C20.7501 6.16315 20.8093 6.13925 20.8526 6.096C20.8901 6.05845 20.9117 6.00951 20.9174 5.9583C20.9197 5.93441 20.9208 5.91051 20.9152 5.88661L20.2471 2.6797C20.2301 2.59663 20.1686 2.53062 20.0878 2.50559C20.0082 2.48169 19.9183 2.50331 19.8591 2.56362L18.9475 3.47517C18.9384 3.46493 18.9293 3.45468 18.9179 3.44558C16.9685 1.86944 14.5127 1 12 1C5.93441 1 1 5.93441 1 12C1 18.0656 5.93441 23 12 23C18.0656 23 23 18.0656 23 12C23.0011 11.3855 22.9488 10.7675 22.8486 10.1632Z" fill="currentColor"/>
</svg>
