<svg width="24" height="24" viewBox="0 0 24 24" fill="none" xmlns="http://www.w3.org/2000/svg">
<path d="M5.71682 9.95967L5.81522 10.4169H17.1828L17.2812 9.95967C17.3854 9.49085 17.7963 9.16093 18.2825 9.16093H18.8613V4.68684H18.2825C17.6921 4.68684 17.2059 4.19486 17.2059 3.58713V3.00833H15.8226L5.79207 3.01412V3.59292C5.79207 4.20065 5.31167 4.69263 4.71551 4.69263H4.13672V9.16093H4.71551C5.20749 9.16093 5.61843 9.48506 5.71682 9.95967ZM7.22749 6.71263C7.22749 7.04833 6.95545 7.32615 6.61397 7.32615C6.27248 7.32615 6.00044 7.05412 6.00044 6.71263C6.00044 6.37114 6.27248 6.0991 6.61397 6.0991C6.95545 6.0991 7.22749 6.37114 7.22749 6.71263ZM16.384 6.0991C16.7197 6.0991 16.9976 6.37114 16.9976 6.71263C16.9976 7.05412 16.7255 7.32615 16.384 7.32615C16.0483 7.32615 15.7705 7.05412 15.7705 6.71263C15.7705 6.37114 16.0483 6.0991 16.384 6.0991ZM13.8142 6.71263C13.8142 7.99177 12.7781 9.02781 11.499 9.02781C10.2199 9.02781 9.18382 7.99177 9.18382 6.71263C9.18382 5.43349 10.2199 4.39744 11.499 4.39744C12.7781 4.39744 13.8142 5.43349 13.8142 6.71263Z" fill="currentColor"/>
<path d="M5.50171 12.4139H20.4115C20.7298 12.4139 20.9903 12.1534 20.9903 11.8351V4.50172C20.9903 2.57433 19.4218 1 17.4886 1H2.5788C2.26046 1 2 1.26046 2 1.5788V8.91214C2.00579 10.8453 3.57432 12.4139 5.50171 12.4139ZM3.16339 2.16338H17.4944C18.7851 2.16338 19.8385 3.21679 19.8385 4.5075V11.2563H5.5075C4.21679 11.2563 3.16339 10.2029 3.16339 8.91214V2.16338Z" fill="currentColor"/>
<path d="M21.7254 13.3572C20.8399 12.6338 19.5318 12.7611 18.8083 13.6466L16.4931 16.4654H12.3663C11.2029 15.5451 8.73146 14.5496 6.47994 16.4654H2.58466C2.26632 16.4654 2.00586 16.7258 2.00586 17.0442C2.00586 17.3625 2.26632 17.623 2.58466 17.623H6.69409C6.83879 17.623 6.97772 17.5709 7.08769 17.4725C9.16557 15.5625 11.3071 17.1021 11.7065 17.4262C11.7759 17.5014 11.857 17.5593 11.9553 17.5882C11.9611 17.5882 11.9727 17.594 11.9843 17.594C12.0364 17.6056 12.0827 17.623 12.1406 17.623H12.1637H16.0532C15.7986 18.5143 14.9825 19.1626 14.0159 19.1626H10.5142C10.1958 19.1626 9.93535 19.423 9.93535 19.7414C9.93535 20.0597 10.1958 20.3202 10.5142 20.3202H14.0159C15.7233 20.3202 17.124 19.0121 17.2803 17.3452L19.7112 14.3817C20.0296 13.9939 20.6084 13.936 21.0019 14.2544C21.1929 14.4107 21.3087 14.6306 21.3319 14.8737C21.355 15.1168 21.2855 15.3541 21.1293 15.5451L16.7188 20.9337C16.2442 21.5125 15.5439 21.8424 14.7972 21.8424H2.59622C2.27789 21.8424 2.01743 22.1029 2.01743 22.4212C2.01743 22.7395 2.27789 23 2.59622 23H14.7972C15.8912 23 16.9214 22.5138 17.616 21.663L22.0264 16.2744C22.3795 15.8461 22.5415 15.3078 22.4894 14.7579C22.42 14.2023 22.1537 13.7045 21.7254 13.3572Z" fill="currentColor"/>
</svg>
