<svg width="24" height="24" viewBox="0 0 24 24" fill="none" xmlns="http://www.w3.org/2000/svg">
<path d="M12.4565 1C8.56495 1 4.43018 2.24506 4.43018 4.55567V19.4443C4.43018 21.7549 8.56495 23 12.4565 23C16.348 23 20.4828 21.7549 20.4828 19.4443V4.55567C20.477 2.24506 16.3423 1 12.4565 1ZM19.3188 14.9389C19.3188 15.9408 16.7071 17.3364 12.4507 17.3364C8.19433 17.3364 5.58259 15.9408 5.58259 14.9389V11.6786C7.08246 12.7615 9.8216 13.3348 12.4507 13.3348C15.0798 13.3348 17.819 12.7615 19.3188 11.6786V14.9389ZM19.3188 9.77915C19.3188 10.781 16.7071 12.1766 12.4507 12.1766C8.19433 12.1766 5.58259 10.781 5.58259 9.77915V6.46091C7.08246 7.54383 9.8216 8.11714 12.4507 8.11714C15.0798 8.11714 17.819 7.54383 19.3188 6.46091V9.77915ZM12.4565 2.1582C16.7129 2.1582 19.3246 3.55383 19.3246 4.55567C19.3246 5.55751 16.7129 6.95315 12.4565 6.95315C8.20012 6.95315 5.58838 5.55751 5.58838 4.55567C5.58838 3.55383 8.20012 2.1582 12.4565 2.1582ZM12.4565 21.8476C8.20012 21.8476 5.58838 20.452 5.58838 19.4501V16.8442C7.08824 17.9271 9.82739 18.5004 12.4565 18.5004C15.0856 18.5004 17.8248 17.9271 19.3246 16.8442V19.4501C19.3188 20.452 16.7071 21.8476 12.4565 21.8476Z" fill="currentColor"/>
</svg>
