<svg width="24" height="24" viewBox="0 0 24 24" fill="none" xmlns="http://www.w3.org/2000/svg">
<path d="M5.6828 11.8028L7.19394 7.23464C7.7845 7.30412 8.39822 7.18832 9.08142 6.88146C9.22038 6.81777 9.3767 6.78883 9.5504 6.78883H10.0715C10.2046 6.78883 10.332 6.81198 10.4536 6.8583L14.6628 8.45629C14.7612 8.49682 14.8075 8.57209 14.8249 8.61841C14.8423 8.65894 14.8654 8.75157 14.8191 8.85C14.7612 8.97737 14.6165 9.04106 14.4833 9.00053L12.4048 8.36944C11.7447 8.1668 11.0326 8.38681 10.5984 8.93106L10.1815 9.45793C9.7762 9.96743 9.17406 10.2569 8.5256 10.2569H7.12447C6.80603 10.2569 6.54548 10.5175 6.54548 10.8359C6.54548 11.1543 6.80603 11.4149 7.12447 11.4149H8.5256C9.52724 11.4149 10.4652 10.9633 11.0847 10.1817L11.5016 9.65478C11.6347 9.48688 11.8547 9.4174 12.0632 9.48109L14.1417 10.1122C14.8249 10.3206 15.5544 10.0022 15.8613 9.35371C16.035 8.98895 16.0466 8.5663 15.9018 8.19575C15.7571 7.8252 15.4502 7.52413 15.0739 7.38518L10.8647 5.78719C10.6099 5.68876 10.3436 5.64244 10.0715 5.64244H9.5504C9.2088 5.64244 8.89036 5.70613 8.60666 5.8393C8.11452 6.0651 7.69187 6.14616 7.30974 6.09984L6.92761 6.04773L3.88796 5.02872C3.5811 4.93029 3.25687 5.09241 3.15265 5.39927L1.02779 11.8202C0.981473 11.9649 0.993052 12.127 1.06253 12.2602C1.13201 12.3992 1.25359 12.5034 1.39834 12.5497L3.08317 13.1055C3.2974 13.175 3.51741 13.2097 3.73163 13.2097C4.05007 13.2097 4.36272 13.1345 4.65221 12.9897C5.14435 12.7465 5.50911 12.3239 5.6828 11.8028ZM4.58274 11.438C4.50747 11.6638 4.34535 11.8491 4.13113 11.9591C3.91691 12.0691 3.67374 12.0865 3.44214 12.0112L2.30734 11.6349L4.06744 6.31406L6.05914 6.96831L4.58274 11.438Z" fill="currentColor"/>
<path d="M22.9714 11.8202L21.3097 6.80044C21.136 6.27935 20.7713 5.8567 20.2791 5.60774C19.787 5.35877 19.2312 5.31824 18.7101 5.49194L17.0252 6.04776C16.8805 6.09408 16.7589 6.1983 16.6894 6.33725C16.62 6.47621 16.6084 6.63253 16.6547 6.77728L18.658 12.8218C16.4057 14.7556 13.9393 16.4521 11.3223 17.8532L10.3612 18.3685C10.228 18.4495 10.0485 18.409 9.96167 18.2701C9.88061 18.1311 9.92114 17.9574 10.0601 17.8706L13.1403 16.0005C13.4124 15.8325 13.4992 15.4794 13.3371 15.2072C13.1692 14.9351 12.816 14.8483 12.5439 15.0104L9.86324 16.6373L8.38684 17.5348C8.29999 17.5869 8.21315 17.5811 8.16683 17.5695C8.12051 17.5579 8.04524 17.529 7.98734 17.4363C7.93523 17.3495 7.94102 17.2626 7.9526 17.2163C7.96418 17.1758 7.99313 17.0947 8.08577 17.0368L12.1213 14.5877C12.3934 14.4198 12.4802 14.0667 12.3181 13.7945C12.1502 13.5224 11.797 13.4356 11.5249 13.5977L7.60522 15.9773L7.11308 16.2552C6.97413 16.3363 6.80043 16.2957 6.71358 16.1568C6.66148 16.0699 6.66727 15.9831 6.67885 15.9368C6.69042 15.8962 6.71937 15.821 6.80043 15.7689L7.2752 15.4852L11.3107 13.0361C11.5828 12.8682 11.6697 12.515 11.5075 12.2429C11.3396 11.9707 10.9865 11.8839 10.7143 12.046L6.67306 14.5125C6.58621 14.5646 6.49936 14.5588 6.45304 14.5472C6.40672 14.5356 6.33146 14.5067 6.27356 14.414C6.22145 14.3272 6.22724 14.2403 6.23882 14.194C6.2504 14.1535 6.27935 14.0724 6.37198 14.0145L8.17262 12.9203C8.44474 12.7524 8.53159 12.3992 8.36947 12.1271C8.20157 11.8549 7.84839 11.7681 7.57627 11.9302L5.77563 13.0245C5.44561 13.2271 5.21402 13.5398 5.12139 13.9161C5.02875 14.2925 5.09244 14.6804 5.28929 15.0104C5.38193 15.1667 5.5093 15.2999 5.64826 15.4099C5.60773 15.4967 5.57878 15.5836 5.55562 15.6762C5.46298 16.0526 5.52667 16.4405 5.72353 16.7705C5.9667 17.17 6.37199 17.3958 6.80043 17.4479C6.82359 17.6563 6.88728 17.8648 6.99728 18.05C7.19993 18.3801 7.51258 18.6117 7.88892 18.7043C8.00471 18.7332 8.12051 18.7448 8.2363 18.7448C8.44474 18.7448 8.64738 18.6869 8.84424 18.5943C8.87897 18.6927 8.9195 18.7854 8.9774 18.878C9.24952 19.3296 9.73587 19.5786 10.2222 19.5786C10.4712 19.5786 10.7201 19.5149 10.9401 19.3817L11.8781 18.8838C14.6514 17.4016 17.251 15.601 19.6249 13.5456L22.6124 12.5555C22.9077 12.4513 23.0698 12.1213 22.9714 11.8202ZM19.7001 12.295L17.9342 6.96834L19.069 6.592C19.3006 6.51674 19.5438 6.53411 19.758 6.64411C19.9723 6.75412 20.1344 6.93939 20.2096 7.1652L21.6918 11.6349L19.7001 12.295Z" fill="currentColor"/>
</svg>
