<svg width="24" height="25" viewBox="0 0 24 25" fill="none" xmlns="http://www.w3.org/2000/svg">
<path d="M3.37303 12.4279C3.37303 12.8896 3.23716 13.2854 2.97729 13.5776C2.72797 13.8658 2.33751 14.0248 1.8956 14.0248C1.77644 14.0272 1.65729 14.0194 1.53944 14.0017L2.02026 11.4953C2.13458 11.4777 2.25023 11.4702 2.36587 11.4729C2.86055 11.4729 3.17186 11.6661 3.3018 12.0065C3.54781 11.9907 3.88485 11.9729 4.2087 11.9689C4.14405 11.6796 3.9857 11.4196 3.75821 11.2295C3.43569 10.9525 2.96014 10.8166 2.36587 10.8166C2.01234 10.8146 1.65928 10.8428 1.31057 10.9011L0.603516 14.6144C0.948442 14.6633 1.29664 14.6853 1.64497 14.6804C2.4714 14.6804 3.03006 14.528 3.47328 14.1765C3.94685 13.7985 4.25751 13.162 4.25948 12.4293C3.99566 12.3699 3.69951 12.3158 3.36182 12.2683C3.3683 12.3213 3.37204 12.3746 3.37303 12.4279Z" fill="#8C1428"/>
<path d="M4.44824 14.6585H6.7864L6.91831 13.962H5.39406L5.5695 13.0386H5.84322C5.64535 12.9015 5.3347 12.7359 4.84266 12.5829L4.44824 14.6585Z" fill="#8C1428"/>
<path d="M5.858 11.5395H7.29585L7.43172 10.843H5.17337L5.03223 11.5857C5.29795 11.6217 5.55937 11.6845 5.81249 11.773L5.858 11.5395Z" fill="#8C1428"/>
<path d="M8.0992 10.843H8.91442L8.32609 13.943H9.79165L9.65578 14.656H7.375L8.0992 10.843Z" fill="#005A28"/>
<path d="M2.9502 12.1251H2.98449C3.21798 12.1067 4.57338 12.0071 4.99485 12.1251C4.99485 12.1251 4.86293 11.7954 4.73102 11.6635C4.73102 11.6635 6.44589 11.7294 7.23737 13.0485C7.23737 13.0485 6.64376 12.7188 6.18206 12.7188C6.18206 12.7188 6.24802 13.1145 6.18206 13.3124C6.18206 13.3124 5.85228 12.4549 2.9502 12.1251Z" fill="#005A28"/>
<path d="M11.2683 13.6679L10.8152 14.6573H9.94922L11.8059 10.8417H12.8533L13.3005 14.6573H12.447L12.3678 13.6679H11.2683ZM12.3329 13.0453L12.259 12.2248C12.2419 12.015 12.2194 11.7097 12.2023 11.4775H12.1911C12.0948 11.7097 11.9873 12.0051 11.8857 12.2248L11.5065 13.0453H12.3329Z" fill="#005A28"/>
<path d="M14.4216 10.9169C14.7487 10.8459 15.0828 10.8118 15.4175 10.8153C15.7572 10.8153 16.1536 10.8714 16.4313 11.0699C16.5634 11.1584 16.6707 11.2792 16.7429 11.4209C16.8152 11.5625 16.85 11.7203 16.8442 11.8792C16.8477 12.0868 16.8024 12.2923 16.7119 12.4792C16.6214 12.6661 16.4882 12.829 16.3231 12.9549C16.0118 13.1983 15.5705 13.3058 15.1062 13.3058C14.9946 13.3059 14.883 13.2982 14.7725 13.2827L14.5119 14.6586H13.7139L14.4216 10.9169ZM14.8971 12.6205C14.9996 12.6409 15.104 12.6505 15.2084 12.6489C15.7005 12.6489 16.0237 12.3323 16.0237 11.9531C16.0237 11.585 15.7598 11.4663 15.4406 11.4663C15.33 11.4632 15.2194 11.4725 15.1108 11.494L14.8971 12.6205Z" fill="#005A28"/>
<path d="M17.6023 13.6679L17.1492 14.6573H16.2832L18.1399 10.8417H19.1873L19.6345 14.6573H18.779L18.6992 13.6679H17.6023ZM18.6662 13.0453L18.593 12.2248C18.5759 12.015 18.5528 11.7097 18.5363 11.4775H18.5251C18.4288 11.7097 18.3213 12.0051 18.219 12.2248L17.8398 13.0453H18.6662Z" fill="#005A28"/>
<path d="M19.9497 14.189L22.1626 11.5679V11.5455H20.6119L20.7478 10.843H23.3966L23.3003 11.3529L21.1238 13.9337V13.9568H22.8274L22.6955 14.6586H19.8594L19.9497 14.189Z" fill="#005A28"/>
</svg>
