<svg width="24" height="24" viewBox="0 0 24 24" fill="none" xmlns="http://www.w3.org/2000/svg">
<path d="M22.4111 12.7579C22.0522 12.1963 21.5601 11.7447 20.9522 11.4205L19.3427 9.22052C19.2616 9.11052 19.1459 9.02947 19.0127 9.00052C18.9722 8.98894 18.098 8.78052 15.9269 8.78631C15.5332 7.3042 14.1843 6.20999 12.5806 6.20999H5.9227C5.60428 6.20999 5.34375 6.47052 5.34375 6.78894C5.34375 7.10736 5.60428 7.36789 5.9227 7.36789H12.5748C13.8485 7.36789 14.8848 8.4042 14.8848 9.67789V12.2889H6.50164V12.0863C6.50164 11.7679 6.24112 11.5074 5.9227 11.5074C5.60428 11.5074 5.34375 11.7679 5.34375 12.0863V12.8679V14.0837C5.34375 14.9058 5.85901 15.6063 6.5827 15.89C6.5827 15.9305 6.57112 15.971 6.57112 16.0116C6.57112 17.0189 7.38743 17.8353 8.3948 17.8353C9.40217 17.8353 10.2185 17.0189 10.2185 16.0116V16.0058H15.1511L15.6837 16.5384C15.7937 16.6484 15.9385 16.7063 16.0948 16.7063H17.8895C17.9474 16.7063 17.9995 16.7005 18.0574 16.6831L18.509 16.55C18.7406 17.291 19.4238 17.8353 20.2401 17.8353C21.1027 17.8353 21.8264 17.2274 22.0116 16.4226H22.3011C22.6195 16.4226 22.8801 16.1621 22.8801 15.8437V14.3963C22.8801 13.8 22.718 13.2384 22.4111 12.7579ZM8.3948 16.6716C8.03007 16.6716 7.72901 16.3705 7.72901 16.0058C7.72901 15.641 8.03007 15.34 8.3948 15.34C8.75954 15.34 9.06059 15.641 9.06059 16.0058C9.06059 16.3705 8.76533 16.6716 8.3948 16.6716ZM17.8027 15.5484H16.3322L15.7995 15.0158C15.6895 14.9058 15.5448 14.8479 15.3885 14.8479H9.78428C9.44849 14.4484 8.95059 14.1879 8.3948 14.1879C7.8448 14.1879 7.35849 14.4368 7.0227 14.8189C6.71586 14.7089 6.50164 14.4253 6.50164 14.0837V13.4468H15.4638C15.7822 13.4468 16.0427 13.1863 16.0427 12.8679V9.9442C17.4148 9.94999 18.208 10.0426 18.5438 10.0947L20.0953 12.2195C20.1474 12.2947 20.2227 12.3584 20.3038 12.3989C20.7843 12.6363 21.1664 12.9721 21.4327 13.3889C21.618 13.6784 21.7164 14.0316 21.7164 14.3963V14.9637C21.3864 14.5005 20.848 14.1937 20.2343 14.1937C19.4701 14.1937 18.8216 14.6626 18.5495 15.3284L17.8027 15.5484ZM20.2401 16.6716C19.8753 16.6716 19.5743 16.3705 19.5743 16.0058C19.5743 15.641 19.8753 15.34 20.2401 15.34C20.6048 15.34 20.9059 15.641 20.9059 16.0058C20.9059 16.3705 20.6048 16.6716 20.2401 16.6716Z" fill="currentColor"/>
<path d="M6.50146 8.19577C6.50146 7.87735 6.24094 7.61682 5.92251 7.61682H1.45883C1.14041 7.61682 0.879883 7.87735 0.879883 8.19577C0.879883 8.51419 1.14041 8.77472 1.45883 8.77472H5.92251C6.24673 8.77472 6.50146 8.51419 6.50146 8.19577Z" fill="currentColor"/>
<path d="M7.98974 9.82263C7.98974 9.50421 7.72922 9.24368 7.4108 9.24368H2.94711C2.62869 9.24368 2.36816 9.50421 2.36816 9.82263C2.36816 10.1411 2.62869 10.4016 2.94711 10.4016H7.4108C7.72922 10.4016 7.98974 10.1468 7.98974 9.82263Z" fill="currentColor"/>
<path d="M8.9506 10.4016C9.26902 10.4016 9.52954 10.1411 9.52954 9.82263C9.52954 9.50421 9.26902 9.24368 8.9506 9.24368H8.83481C8.51639 9.24368 8.25586 9.50421 8.25586 9.82263C8.25586 10.1411 8.51639 10.4016 8.83481 10.4016H8.9506Z" fill="currentColor"/>
</svg>
