<svg width="24" height="24" viewBox="0 0 24 24" fill="none" xmlns="http://www.w3.org/2000/svg">
<path d="M16.5156 0C16.6536 0 16.7842 0.0599197 16.875 0.163086L18.252 1.7373C18.3284 1.82427 18.37 1.93622 18.3701 2.05176V18.917H21.332V6.97266H19.8389C19.5753 6.9725 19.3613 6.75869 19.3613 6.49512C19.3614 6.23163 19.5754 6.01773 19.8389 6.01758H21.8096C22.0732 6.01758 22.287 6.23153 22.2871 6.49512V18.917H23.374C23.6376 18.9171 23.8516 19.1309 23.8516 19.3945V22.5225C23.8515 22.786 23.6376 22.9999 23.374 23H4.48242C2.56213 23 1 21.4379 1 19.5176V19.3945C1 19.1309 1.21389 18.917 1.47754 18.917H2.56445V6.49512C2.56455 6.23153 2.77838 6.01758 3.04199 6.01758H4.67188C4.93548 6.01758 5.14932 6.23153 5.14941 6.49512C5.14941 6.75878 4.93554 6.97266 4.67188 6.97266H3.51953V18.917H6.49512V0.477539C6.49514 0.213893 6.709 0 6.97266 0H16.5156ZM1.98047 19.8721C2.15337 21.0983 3.20888 22.0449 4.48242 22.0449H22.8965V19.8721H14.8916V20.958C14.8916 21.2217 14.6777 21.4355 14.4141 21.4355H10.4375C10.1738 21.4355 9.95996 21.2217 9.95996 20.958V19.8721H1.98047ZM10.915 20.4805H13.9365V19.8721H10.915V20.4805ZM7.4502 18.917H17.415V3.36328C17.3804 3.37137 17.3475 3.38379 17.3105 3.38379H15.4521C15.1885 3.38379 14.9746 3.16992 14.9746 2.90625V1.04883C14.9746 1.01571 14.9868 0.986326 14.9932 0.955078H7.4502V18.917ZM16.1816 15.3252C16.4459 15.3252 16.6592 15.5391 16.6592 15.8027C16.6592 16.0664 16.4459 16.2803 16.1816 16.2803H8.68457C8.42092 16.2802 8.20703 16.0664 8.20703 15.8027C8.20706 15.5391 8.42094 15.3252 8.68457 15.3252H16.1816ZM16.1816 12.6787C16.4458 12.6787 16.659 12.8927 16.6592 13.1562C16.6592 13.4199 16.4459 13.6338 16.1816 13.6338H8.68457C8.42092 13.6338 8.20703 13.4199 8.20703 13.1562C8.20719 12.8927 8.42102 12.6787 8.68457 12.6787H16.1816ZM16.1816 10.0332C16.4459 10.0332 16.6592 10.2471 16.6592 10.5107C16.6591 10.7743 16.4459 10.9883 16.1816 10.9883H8.68457C8.42099 10.9883 8.20714 10.7743 8.20703 10.5107C8.20703 10.2471 8.42092 10.0332 8.68457 10.0332H16.1816ZM16.1816 7.38672C16.4458 7.38672 16.659 7.60072 16.6592 7.86426C16.6592 8.12792 16.4459 8.3418 16.1816 8.3418H8.68457C8.42092 8.34177 8.20703 8.12791 8.20703 7.86426C8.20719 7.60074 8.42102 7.38674 8.68457 7.38672H16.1816ZM16.1816 4.74219C16.4459 4.74219 16.6592 4.95606 16.6592 5.21973C16.6589 5.48319 16.4458 5.69727 16.1816 5.69727H8.68457C8.42107 5.69724 8.20727 5.48318 8.20703 5.21973C8.20703 4.95607 8.42092 4.74221 8.68457 4.74219H16.1816ZM15.9297 1.04883V2.42871H17.3105C17.3475 2.42871 17.3804 2.44211 17.415 2.4502V2.23145L16.2988 0.955078H15.9111C15.9175 0.986326 15.9297 1.01571 15.9297 1.04883Z" fill="currentColor"/>
</svg>
