<svg width="24" height="24" viewBox="0 0 24 24" fill="none" xmlns="http://www.w3.org/2000/svg">
<path d="M10.4306 11.7199C10.5466 11.8359 10.6917 11.8881 10.8425 11.8881C10.9933 11.8881 11.1383 11.8301 11.2544 11.7199L14.0446 8.92957C14.1549 8.81935 14.2129 8.67433 14.2129 8.5177C14.2129 8.36108 14.1491 8.21605 14.0446 8.10583L11.2544 5.31555C11.0281 5.08931 10.6627 5.08931 10.4364 5.31555C10.2102 5.54179 10.2102 5.90725 10.4364 6.13349L12.8148 8.5119L10.4364 10.8903C10.2044 11.1223 10.2044 11.4936 10.4306 11.7199Z" fill="currentColor"/>
<path d="M4.22345 11.8881C4.37428 11.8881 4.5193 11.8301 4.63532 11.7199C4.86156 11.4937 4.86156 11.1282 4.63532 10.902L2.25691 8.52356L4.63532 6.14515C4.86156 5.91891 4.86156 5.55345 4.63532 5.32721C4.40908 5.10097 4.04362 5.10097 3.81738 5.32721L1.0271 8.11749C0.800862 8.34373 0.800862 8.70919 1.0271 8.93543L3.81738 11.7257C3.9276 11.8301 4.07262 11.8881 4.22345 11.8881Z" fill="currentColor"/>
<path d="M5.89419 12.7872C5.9638 12.8162 6.03922 12.8278 6.10883 12.8278C6.34087 12.8278 6.5555 12.6886 6.64832 12.4624L9.63003 5.0023C9.75185 4.70645 9.60682 4.36999 9.30517 4.24817C9.00932 4.13215 8.67287 4.27138 8.55105 4.57303L5.56934 12.0331C5.45332 12.329 5.59834 12.6654 5.89419 12.7872Z" fill="currentColor"/>
<path d="M20.7736 10.3972C20.5416 10.0956 20.3095 9.79394 20.0833 9.49229C20.0311 9.42268 20.0079 9.35887 20.0079 9.34146C19.5786 5.449 17.5598 2.88496 14.0096 1.71316C11.579 0.91262 8.93956 1.22007 6.76419 2.5543C6.49155 2.72253 6.40453 3.08219 6.57276 3.35484C6.74099 3.62749 7.10065 3.7145 7.37329 3.54627C9.25282 2.39187 11.5384 2.12503 13.6442 2.82115C16.7245 3.83632 18.4764 6.0755 18.8535 9.47489C18.8883 9.79974 19.0565 10.0666 19.1493 10.1942C19.3814 10.5017 19.6134 10.8091 19.8454 11.1108C20.2457 11.6329 20.646 12.1607 21.0288 12.7002C21.0462 12.7292 21.0636 12.7989 21.0752 12.8685C21.052 12.8685 21.0172 12.8685 20.9766 12.8685C20.617 12.8685 20.2631 12.8685 19.886 12.8685H19.422C19.1029 12.8685 18.8419 13.1295 18.8419 13.4486V14.8466C18.8419 15.5369 18.8477 16.2272 18.8419 16.9118C18.8361 17.9153 18.1167 18.6289 17.1016 18.6405C16.8579 18.6405 16.6085 18.6405 16.3474 18.6405H15.9704C15.6513 18.6405 15.3903 18.9015 15.3903 19.2206V22.1153H8.44648V17.6253C8.44648 17.4048 8.44648 16.8944 7.87218 16.6101C6.59596 15.9778 5.54598 14.9974 4.82666 13.7618C4.66423 13.4834 4.31037 13.3906 4.03192 13.553C3.75348 13.7154 3.66066 14.0693 3.82309 14.3477C4.64103 15.7516 5.83023 16.8828 7.28048 17.6195V17.6253V22.6954C7.28048 23.0144 7.54153 23.2755 7.86058 23.2755H15.9762C16.2952 23.2755 16.5563 23.0144 16.5563 22.6954V19.7949C16.7477 19.7949 16.9333 19.7949 17.1248 19.7949C18.7548 19.7775 19.9963 18.536 20.0079 16.9176C20.0137 16.2272 20.0137 15.5311 20.0079 14.8408V14.0287C20.3385 14.0287 20.6576 14.0287 20.9766 14.0287C20.9824 14.0287 20.9824 14.0287 20.9882 14.0287C21.87 14.0287 22.1426 13.5878 22.2122 13.2165C22.276 12.8801 22.2296 12.3812 21.9802 12.0273C21.5915 11.4704 21.1855 10.9309 20.7736 10.3972Z" fill="currentColor"/>
</svg>
