<svg width="25" height="24" viewBox="0 0 25 24" fill="none" xmlns="http://www.w3.org/2000/svg">
<path d="M10.2705 14.1362H11.9169C12.2357 14.1362 12.4966 13.8754 12.4966 13.5565C12.4966 13.2377 12.2357 12.9768 11.9169 12.9768H10.2705C9.22125 12.9768 8.36328 13.8348 8.36328 14.8841V17.4348C8.36328 18.4841 9.22125 19.342 10.2705 19.342H11.9169C12.2357 19.342 12.4966 19.0812 12.4966 18.7623C12.4966 18.4435 12.2357 18.1826 11.9169 18.1826H10.2705C9.85893 18.1826 9.5227 17.8464 9.5227 17.4348V14.8841C9.5227 14.4725 9.85893 14.1362 10.2705 14.1362Z" fill="currentColor"/>
<path d="M16.1711 13.3304C16.0784 13.1159 15.8697 12.9768 15.6378 12.9768C15.4059 12.9768 15.1972 13.1159 15.1045 13.3304L12.8726 18.542C12.745 18.8377 12.8842 19.1739 13.1798 19.3014C13.4697 19.429 13.8175 19.2899 13.9392 18.9942L14.3566 18.0261H16.9247L17.3421 18.9942C17.4349 19.2145 17.6494 19.3478 17.8755 19.3478C17.9508 19.3478 18.032 19.3304 18.1016 19.3014C18.3972 19.1739 18.5305 18.8319 18.4088 18.542L16.1769 13.3304H16.1711ZM14.8494 16.8667L15.6378 15.029L16.4262 16.8667H14.8552H14.8494Z" fill="currentColor"/>
<path d="M21.2495 12.9654L19.4235 12.948C19.2727 12.948 19.122 13.006 19.0177 13.1161C18.9075 13.2263 18.8438 13.3712 18.8438 13.5277V18.7683C18.8438 19.0871 19.1046 19.348 19.4235 19.348H21.238C22.2872 19.348 23.1452 18.49 23.1452 17.4408V14.8784C23.1452 13.835 22.2988 12.9828 21.2553 12.9712L21.2495 12.9654ZM21.98 17.435C21.98 17.8465 21.6438 18.1828 21.2322 18.1828H19.9974V14.1074L21.238 14.119C21.6495 14.119 21.98 14.4552 21.98 14.8668V17.4292V17.435Z" fill="currentColor"/>
<path d="M19.2609 10.0841V4.44928C19.2609 2.54783 17.713 1 15.8116 1H1.57971C1.26087 1 1 1.26087 1 1.57971V19.5101C1 21.4348 2.56522 23 4.48986 23H13.2261C13.5449 23 13.8058 22.7391 13.8058 22.4203C13.8058 22.1014 13.5449 21.8406 13.2261 21.8406H4.48986C3.2087 21.8406 2.15942 20.7971 2.15942 19.5101V2.15942H15.8116C17.0754 2.15942 18.1014 3.18551 18.1014 4.44928V10.0783C18.1014 10.3971 18.3623 10.658 18.6812 10.658C19 10.658 19.2609 10.3971 19.2609 10.0783V10.0841Z" fill="currentColor"/>
<path d="M13.4234 5.39441C13.4234 5.07557 13.1625 4.8147 12.8437 4.8147H3.86975C3.55091 4.8147 3.29004 5.07557 3.29004 5.39441C3.29004 5.71325 3.55091 5.97412 3.86975 5.97412H12.8437C13.1625 5.97412 13.4234 5.71325 13.4234 5.39441Z" fill="currentColor"/>
<path d="M10.6871 8.69861C10.6871 8.37977 10.4263 8.1189 10.1074 8.1189H3.86975C3.55091 8.1189 3.29004 8.37977 3.29004 8.69861C3.29004 9.01745 3.55091 9.27832 3.86975 9.27832H10.1074C10.4263 9.27832 10.6871 9.01745 10.6871 8.69861Z" fill="currentColor"/>
</svg>
