<svg width="25" height="24" viewBox="0 0 25 24" fill="none" xmlns="http://www.w3.org/2000/svg">
<path d="M13.2178 21.7631H4.49307C3.2136 21.7631 2.16571 20.721 2.16571 19.4357V2.10784H15.7999C17.062 2.10784 18.0867 3.13258 18.0867 4.39468V8.62678C18.0867 8.9452 18.3473 9.20573 18.6657 9.20573C18.9841 9.20573 19.2446 8.9452 19.2446 8.62678V4.39468C19.2446 2.49574 17.6988 0.949951 15.7999 0.949951H1.58676C1.26834 0.949951 1.00781 1.21048 1.00781 1.5289V19.4357C1.00781 21.3578 2.57097 22.921 4.49307 22.921H13.2178C13.5362 22.921 13.7967 22.6604 13.7967 22.342C13.7967 22.0236 13.5362 21.7631 13.2178 21.7631Z" fill="currentColor"/>
<path d="M12.836 4.75928H3.87387C3.55545 4.75928 3.29492 5.0198 3.29492 5.33822C3.29492 5.65664 3.55545 5.91717 3.87387 5.91717H12.836C13.1544 5.91717 13.4149 5.65664 13.4149 5.33822C13.4149 5.0198 13.1544 4.75928 12.836 4.75928Z" fill="currentColor"/>
<path d="M13.4149 8.63827C13.4149 8.31985 13.1544 8.05933 12.836 8.05933H3.87387C3.55545 8.05933 3.29492 8.31985 3.29492 8.63827C3.29492 8.95669 3.55545 9.21722 3.87387 9.21722H12.836C13.1544 9.21722 13.4149 8.95669 13.4149 8.63827Z" fill="currentColor"/>
<path d="M3.87973 11.3538C3.56131 11.3538 3.30078 11.6143 3.30078 11.9327C3.30078 12.2511 3.56131 12.5117 3.87973 12.5117H10.1092C10.4276 12.5117 10.6881 12.2511 10.6881 11.9327C10.6881 11.6143 10.4276 11.3538 10.1092 11.3538H3.87973Z" fill="currentColor"/>
<path d="M17.9251 12.4595C16.5125 12.4595 15.3604 13.6116 15.3604 15.0242C15.3604 16.4368 16.5125 17.5889 17.9251 17.5889C19.3377 17.5889 20.4898 16.4368 20.4898 15.0242C20.4898 13.6116 19.3377 12.4595 17.9251 12.4595ZM17.9251 16.431C17.1493 16.431 16.5182 15.8 16.5182 15.0242C16.5182 14.2484 17.1493 13.6174 17.9251 13.6174C18.7009 13.6174 19.3319 14.2484 19.3319 15.0242C19.3319 15.8 18.7009 16.431 17.9251 16.431Z" fill="currentColor"/>
<path d="M22.307 12.8012C22.1565 12.6681 22.0523 12.4944 22.0117 12.2976C21.8149 11.406 21.0739 10.7402 20.1649 10.6533C19.9623 10.6302 19.777 10.5491 19.6265 10.416C18.9433 9.80808 17.9533 9.70966 17.166 10.1728C16.9923 10.277 16.7954 10.3176 16.5928 10.2944C15.6723 10.2018 14.8212 10.7055 14.4565 11.5449C14.3754 11.7244 14.2365 11.8807 14.0686 11.9791C13.2812 12.4423 12.8818 13.3512 13.0728 14.2486C13.1133 14.4454 13.096 14.6481 13.0149 14.8276C12.6444 15.667 12.8586 16.6397 13.5418 17.2475C13.6923 17.3807 13.7965 17.5544 13.837 17.7512C14.0049 18.5328 14.6012 19.1407 15.3597 19.3375V22.047C15.3597 22.3944 15.5507 22.7128 15.8518 22.8518C16.1354 22.9849 16.4597 22.9386 16.697 22.7417L17.9128 21.7344L19.1518 22.7649C19.3023 22.8865 19.4818 22.9502 19.6612 22.9502C19.777 22.9502 19.887 22.927 19.997 22.8749C20.2981 22.736 20.4891 22.4175 20.4891 22.0702V19.4996C20.877 19.2796 21.2012 18.9439 21.3923 18.5097C21.4733 18.3244 21.6065 18.1739 21.7802 18.0754C22.5675 17.6123 22.967 16.7033 22.776 15.8118C22.7354 15.6149 22.7528 15.4123 22.8339 15.227C23.1986 14.3876 22.9902 13.4207 22.307 12.807V12.8012ZM18.2833 20.536C18.0691 20.3565 17.7565 20.3565 17.5423 20.536L16.5175 21.387V19.8528C16.8533 20.0612 17.2354 20.1712 17.6233 20.1712C17.9881 20.1712 18.3528 20.0728 18.6886 19.8818C18.8623 19.7833 19.0649 19.737 19.2618 19.7544C19.2907 19.7544 19.3139 19.7544 19.337 19.7544V21.4044L18.2833 20.5302V20.536ZM21.7744 14.7581C21.5949 15.1691 21.5486 15.6149 21.647 16.0549C21.7339 16.4544 21.5544 16.8654 21.2012 17.0739C20.8133 17.2997 20.5181 17.6354 20.3328 18.0465C20.1649 18.4228 19.777 18.6544 19.3718 18.6081C18.926 18.5675 18.486 18.6602 18.0981 18.886C17.7449 19.0944 17.2991 19.0481 16.9923 18.776C16.7723 18.5791 16.5118 18.4402 16.2397 18.3475C16.1528 18.2954 16.0544 18.2549 15.9386 18.2549C15.9154 18.2549 15.8981 18.2665 15.8807 18.2665C15.8575 18.2665 15.8286 18.2549 15.8054 18.2549C15.3944 18.2144 15.0586 17.9191 14.9718 17.5139C14.8791 17.0797 14.6475 16.686 14.3175 16.3907C14.0107 16.1186 13.9123 15.6786 14.0802 15.3023C14.2597 14.8912 14.306 14.4454 14.2076 14.0054C14.1207 13.6002 14.3002 13.1949 14.6533 12.9865C15.0412 12.7607 15.3365 12.4249 15.5218 12.0139C15.6723 11.6665 16.0139 11.4465 16.3902 11.4465C16.4191 11.4465 16.4539 11.4465 16.4828 11.4465C16.9228 11.4928 17.3686 11.3944 17.7565 11.1686C18.1097 10.9602 18.5554 11.0065 18.8623 11.2786C19.1981 11.5739 19.6091 11.7591 20.0549 11.7997C20.466 11.8402 20.796 12.1354 20.8886 12.5407C20.987 12.9807 21.2128 13.3686 21.5428 13.6639C21.8496 13.936 21.9481 14.376 21.7802 14.7523L21.7744 14.7581Z" fill="currentColor"/>
</svg>
