<svg width="24" height="24" viewBox="0 0 24 24" fill="none" xmlns="http://www.w3.org/2000/svg">
<path d="M11.3729 12.5309C11.4659 12.589 11.5704 12.618 11.6749 12.618C11.7795 12.618 11.884 12.589 11.9827 12.5309C15.9145 10.1033 17.9065 7.57698 17.9065 5.02162C17.9065 3.84848 17.4303 2.86119 16.5359 2.15847C15.3918 1.2641 13.7773 1.08406 12.4183 1.70548C12.1047 1.84486 11.8608 2.00167 11.6749 2.14105C11.4891 2.00167 11.2394 1.84486 10.9316 1.70548C9.57258 1.08987 7.95806 1.26991 6.81396 2.15847C5.91958 2.85539 5.44336 3.84848 5.44336 5.02162C5.44336 7.58279 7.44118 10.1091 11.3729 12.5309ZM7.5283 3.07608C8.01033 2.69858 8.62013 2.50112 9.24154 2.50112C9.65389 2.50112 10.0662 2.58823 10.4495 2.76246C10.9722 3.00057 11.2219 3.29096 11.2219 3.29096C11.3323 3.42453 11.4949 3.50003 11.6691 3.50003C11.8259 3.49422 12.006 3.42454 12.1221 3.29677C12.1221 3.29677 12.3777 3.00638 12.9003 2.76246C13.8702 2.32108 15.0143 2.44885 15.8216 3.07608C16.4314 3.5523 16.745 4.20856 16.745 5.02162C16.745 7.08333 15.0375 9.21473 11.6749 11.3519C8.31232 9.21473 6.60488 7.08914 6.60488 5.02162C6.60488 4.21437 6.9185 3.55811 7.5283 3.07608Z" fill="currentColor"/>
<path d="M23.215 13.1117C23.1511 12.4554 22.8375 11.8688 22.3264 11.4507C21.2752 10.5911 19.7188 10.7421 18.8592 11.7933L15.8974 15.3999H10.5718C9.12567 14.2325 5.93729 12.9258 3.08575 15.5509C2.84763 15.7657 2.83602 16.1374 3.0509 16.3697C3.26578 16.6078 3.63747 16.6195 3.86978 16.4046C6.58774 13.9015 9.39282 15.94 9.89809 16.3465C10.0026 16.4743 10.1594 16.5556 10.3337 16.5556H15.4502C15.183 17.8332 14.0447 18.7973 12.6916 18.7973H8.27776C7.95834 18.7973 7.697 19.0587 7.697 19.3781C7.697 19.6975 7.95834 19.9588 8.27776 19.9588H12.6916C14.7765 19.9588 16.4897 18.3443 16.6582 16.3058L19.7536 12.5309C20.2124 11.9734 21.0313 11.8979 21.5888 12.3509C21.856 12.5715 22.0244 12.8852 22.0592 13.2278C22.0941 13.5763 21.9896 13.9131 21.7689 14.1803L16.211 20.9752C15.5837 21.736 14.6603 22.1774 13.673 22.1774H2.22041C1.90099 22.1774 1.63965 22.4387 1.63965 22.7581C1.63965 23.0775 1.90099 23.3389 2.22041 23.3389H13.673C15.0088 23.3389 16.2632 22.7465 17.1053 21.7127L22.6632 14.9236C23.0814 14.4067 23.2788 13.7679 23.215 13.1117Z" fill="currentColor"/>
</svg>
