<svg width="24" height="24" viewBox="0 0 24 24" fill="none" xmlns="http://www.w3.org/2000/svg">
<path d="M8.70376 12.9833C8.07287 12.3524 7.22783 11.9993 6.33649 11.9993C5.83873 11.9993 5.36411 12.1151 4.93001 12.3176V10.1761C4.93001 9.09376 4.05025 8.21399 2.9679 8.21399C1.88555 8.21399 1 9.09376 1 10.1819V15.5126C1 16.5949 1.48619 17.5963 2.33701 18.2619L5.19048 20.5076V21.4915C5.19048 21.8099 5.45094 22.0703 5.76927 22.0703C6.08761 22.0703 6.34807 21.8099 6.34807 21.4915V20.224C6.34807 20.0446 6.26703 19.8767 6.12812 19.7667L3.05472 17.3474C2.4875 16.9017 2.16337 16.2303 2.16337 15.5068V10.1761C2.16337 9.73043 2.52223 9.37158 2.9679 9.37158C3.41357 9.37158 3.77242 9.73043 3.77242 10.1761V13.2611C3.77242 13.3074 3.78979 13.3479 3.79558 13.3884C3.79558 13.5389 3.85346 13.6894 3.96343 13.7994L7.04841 16.8843C7.27414 17.1101 7.63877 17.1101 7.8645 16.8843C8.09023 16.6586 8.09023 16.294 7.8645 16.0682L5.24257 13.4463C6.06446 12.9775 7.17575 13.099 7.89924 13.8167L9.92502 15.6804V21.4915C9.92502 21.8099 10.1855 22.0703 10.5038 22.0703C10.8222 22.0703 11.0826 21.8099 11.0826 21.4915V15.4258C11.0826 15.2637 11.0132 15.1074 10.8974 14.9975L8.70376 12.9833Z" fill="currentColor"/>
<path d="M21.0321 8.21399C19.9498 8.21399 19.07 9.09376 19.07 10.1761V12.3234C17.8314 11.7504 16.3207 11.9588 15.3136 12.9659L13.0968 14.9975C12.9753 15.1074 12.9116 15.2637 12.9116 15.4258V21.4915C12.9116 21.8099 13.1721 22.0703 13.4904 22.0703C13.8088 22.0703 14.0692 21.8099 14.0692 21.4915V15.6804L16.1181 13.7994C16.8301 13.0874 17.9182 12.9659 18.7575 13.4463L16.1355 16.0682C15.9098 16.294 15.9098 16.6586 16.1355 16.8843C16.3612 17.1101 16.7259 17.1101 16.9516 16.8843L20.0366 13.7994C20.1466 13.6894 20.2044 13.5447 20.2044 13.3884C20.2044 13.3884 20.2044 13.3884 20.2044 13.3826C20.216 13.3421 20.2276 13.3016 20.2276 13.2553V10.1703C20.2276 9.72464 20.5864 9.36579 21.0321 9.36579C21.4778 9.36579 21.8366 9.72464 21.8366 10.1703V15.501C21.8366 16.2245 21.5125 16.8959 20.9453 17.3416L17.8719 19.7609C17.733 19.8709 17.652 20.0388 17.652 20.2182V21.4915C17.652 21.8099 17.9124 22.0703 18.2307 22.0703C18.5491 22.0703 18.8095 21.8099 18.8095 21.4915V20.5018L21.663 18.2561C22.5138 17.5905 23 16.5834 23 15.5068V10.1761C22.9942 9.09376 22.1145 8.21399 21.0321 8.21399Z" fill="currentColor"/>
<path d="M17.5711 4.88012C17.5711 3.82092 17.1428 2.92958 16.3382 2.29869C15.2964 1.48259 13.8784 1.32631 12.634 1.88775C12.3735 2.0035 12.1651 2.13663 12.0031 2.25239C11.841 2.13084 11.6269 2.0035 11.3722 1.88775C10.1336 1.32631 8.7155 1.48259 7.66789 2.29869C6.86336 2.92958 6.43506 3.82092 6.43506 4.88012C6.43506 7.16057 8.20617 9.41208 11.7021 11.5652C11.7947 11.6231 11.8989 11.652 12.0031 11.652C12.1073 11.652 12.2114 11.6231 12.3098 11.5652C15.7942 9.41787 17.5711 7.16636 17.5711 4.88012ZM11.9973 10.396C9.91362 9.0648 7.58686 7.08532 7.58686 4.8859C7.58686 4.17977 7.84731 3.63571 8.37402 3.21897C8.79075 2.89485 9.31167 2.727 9.84416 2.727C10.1972 2.727 10.5561 2.80224 10.886 2.95273C11.3317 3.15531 11.5458 3.3984 11.5458 3.3984C11.6558 3.53152 11.8178 3.60677 11.9915 3.60677C12.1478 3.60677 12.3272 3.53152 12.4429 3.40419C12.4429 3.40419 12.6629 3.15531 13.1086 2.95273C13.942 2.57651 14.9318 2.68069 15.6205 3.21897C16.153 3.63571 16.4077 4.17977 16.4077 4.8859C16.4135 7.08532 14.0809 9.0648 11.9973 10.396Z" fill="currentColor"/>
</svg>
