<svg width="24" height="24" viewBox="0 0 24 24" fill="none" xmlns="http://www.w3.org/2000/svg">
<path d="M15.656 1.25H5.77914C5.46072 1.25 5.2002 1.51053 5.2002 1.82895V19.7705C5.2002 21.6926 6.76336 23.25 8.67967 23.25H18.5565C18.8749 23.25 19.1355 22.9895 19.1355 22.6711V4.72947C19.1355 2.80737 17.5723 1.25 15.656 1.25ZM17.9776 22.0921H8.67967C7.4002 22.0921 6.35809 21.05 6.35809 19.7705V2.40789H15.656C16.9355 2.40789 17.9776 3.45 17.9776 4.72947V22.0921Z" fill="currentColor"/>
<path d="M15.8875 11.4685C15.4764 11.4685 15.1406 11.8043 15.1406 12.2154C15.1406 12.6264 15.4764 12.9622 15.8875 12.9622C16.2985 12.9622 16.6343 12.6264 16.6343 12.2154C16.6343 11.8043 16.2985 11.4685 15.8875 11.4685Z" fill="currentColor"/>
</svg>
