<svg width="23" height="14" viewBox="0 0 23 14" fill="none" xmlns="http://www.w3.org/2000/svg">
<path d="M21.7886 0.534451L10.4086 11.9144L6.6758 7.4072C6.46406 7.14706 6.08291 7.11076 5.82276 7.32856C5.56261 7.54031 5.53237 7.92145 5.74411 8.1816L7.38365 10.1599L5.62311 11.9205L1.89028 7.41326C1.67854 7.15311 1.29739 7.11681 1.03724 7.33461C0.777094 7.54636 0.746846 7.92751 0.958594 8.18765L5.11491 13.2091C5.22381 13.3422 5.38111 13.4209 5.55051 13.4269C5.56261 13.4269 5.56866 13.4269 5.58076 13.4269C5.73806 13.4269 5.89536 13.3664 6.0103 13.2515L8.15804 11.1037L9.90043 13.2091C10.0093 13.3422 10.1666 13.4209 10.336 13.4269C10.3481 13.4269 10.3542 13.4269 10.3663 13.4269C10.5236 13.4269 10.6809 13.3664 10.7958 13.2515L22.6416 1.40565C22.8776 1.1697 22.8776 0.788548 22.6416 0.5526C22.4057 0.316651 22.0245 0.298502 21.7886 0.534451Z" fill="currentColor"/>
<path d="M10.1062 9.13749L17.8562 1.38749C18.0921 1.15154 18.0921 0.770393 17.8562 0.534444C17.6202 0.298496 17.2391 0.298496 17.0031 0.534444L9.25312 8.28445C9.00507 8.5325 9.02322 8.94994 9.29547 9.17984C9.53142 9.37344 9.88836 9.35528 10.1062 9.13749Z" fill="currentColor"/>
</svg>
