<svg width="22" height="22" viewBox="0 0 22 22" fill="none" xmlns="http://www.w3.org/2000/svg">
<path d="M18.4388 13.6343C18.1204 13.6343 17.8599 13.8948 17.8599 14.2132V17.8548H5.63253C4.81043 17.8548 4.13885 17.1832 4.13885 16.3611V14.2074C4.13885 13.889 3.87833 13.6285 3.5599 13.6285C3.24148 13.6285 2.98096 13.889 2.98096 14.2074V16.3611C2.98096 17.8201 4.1678 19.0127 5.63253 19.0127H18.4331C18.7515 19.0127 19.012 18.7522 19.012 18.4337V14.2132C19.0178 13.8948 18.7573 13.6343 18.4388 13.6343Z" fill="currentColor"/>
<path d="M10.5942 15.6664C10.7042 15.7706 10.8548 15.8285 11.0053 15.8285C11.1558 15.8285 11.3005 15.7648 11.4105 15.6606L14.6006 12.4822C14.8263 12.2564 14.8263 11.8916 14.6006 11.6658C14.3748 11.44 14.01 11.44 13.7842 11.6658L11.5784 13.8543V3.56058C11.5784 3.24215 11.3179 2.98163 10.9995 2.98163C10.6811 2.98163 10.4205 3.24215 10.4205 3.56058V13.8774L8.21476 11.7295C7.98318 11.5037 7.61844 11.5095 7.39844 11.7411C7.17844 11.9727 7.17844 12.3374 7.41002 12.5574L10.5942 15.6664Z" fill="currentColor"/>
<path d="M18.5147 0H0.578947C0.260526 0 0 0.260526 0 0.578947V18.5147C0 20.4368 1.56316 22 3.48526 22H21.4211C21.7395 22 22 21.7395 22 21.4211V3.48526C22 1.56316 20.4368 0 18.5147 0ZM20.8421 20.8421H3.48526C2.2 20.8421 1.15789 19.8 1.15789 18.5147V1.15789H18.5147C19.8 1.15789 20.8421 2.2 20.8421 3.48526V20.8421Z" fill="currentColor"/>
</svg>
