<svg width="22" height="22" viewBox="0 0 22 22" fill="none" xmlns="http://www.w3.org/2000/svg">
<path d="M21.4211 14.9253C21.1026 14.9253 20.8421 15.1858 20.8421 15.5042V20.8421H3.47947C2.2 20.8421 1.15789 19.8 1.15789 18.5205V15.5042C1.15789 15.1858 0.897368 14.9253 0.578947 14.9253C0.260526 14.9253 0 15.1858 0 15.5042V18.5205C0 20.4368 1.56316 22 3.47947 22H21.4211C21.7395 22 22 21.7395 22 21.4211V15.5042C22 15.1858 21.7395 14.9253 21.4211 14.9253Z" fill="currentColor"/>
<path d="M10.5947 17.3684C10.8147 17.5826 11.191 17.5768 11.4052 17.3626L15.8689 12.9105C16.0947 12.6847 16.0947 12.32 15.8689 12.0942C15.6431 11.8684 15.2784 11.8684 15.0526 12.0942L11.5789 15.5621V0.578947C11.5789 0.260526 11.3184 0 10.9999 0C10.6815 0 10.421 0.260526 10.421 0.578947V15.5853L6.93574 12.1926C6.70416 11.9668 6.33942 11.9726 6.11942 12.2042C5.89942 12.4358 5.89942 12.8005 6.131 13.0205L10.5947 17.3684Z" fill="currentColor"/>
</svg>
