<svg width="24" height="24" viewBox="0 0 24 24" fill="none" xmlns="http://www.w3.org/2000/svg">
<path d="M23.0367 21.3032C22.7738 20.3506 22.8407 19.3371 23.2264 18.4272C23.4934 17.737 23.5226 16.9775 23.3094 16.2688L22.0227 12.0231C21.8941 11.604 21.6154 11.2471 21.2399 11.0209C20.8958 10.8118 20.4836 10.7456 20.0913 10.8365C19.6991 10.9273 19.3579 11.168 19.1408 11.5072C18.7894 11.3684 18.4015 11.3514 18.0393 11.4589C17.6771 11.5664 17.3613 11.7921 17.1425 12.1001C16.7959 11.9727 16.4175 11.9602 16.0632 12.0646C15.925 12.1125 15.7919 12.1741 15.6659 12.2484L15.1619 10.5762C15.0334 10.1571 14.7546 9.80025 14.3792 9.57405C14.1909 9.46204 13.9813 9.39049 13.7639 9.36395C13.5464 9.3374 13.3258 9.35645 13.1161 9.41987C12.9073 9.48285 12.7143 9.58941 12.5497 9.73252C12.3851 9.87562 12.2528 10.052 12.1614 10.25C11.9705 10.6458 11.9366 11.0992 12.0665 11.519L13.6676 16.7847L13.2406 16.5356C13.054 16.4224 12.8454 16.3501 12.6286 16.3235C12.4119 16.2969 12.192 16.3167 11.9835 16.3815C11.7747 16.4441 11.5813 16.5498 11.4158 16.6917C11.2504 16.8337 11.1165 17.0088 11.0229 17.2057C10.838 17.6026 10.8059 18.0537 10.9328 18.4727C11.0597 18.8917 11.3367 19.2492 11.7108 19.4768L14.7705 21.2973C15.3132 21.5896 15.7539 22.0406 16.0336 22.5899C16.0812 22.6929 16.1574 22.78 16.253 22.8409C16.3487 22.9019 16.4598 22.9342 16.5732 22.9339C16.659 22.9333 16.7437 22.9151 16.8222 22.8805C16.9646 22.8137 17.0745 22.693 17.1279 22.5451C17.1812 22.3972 17.1737 22.2342 17.1069 22.0918C16.726 21.3193 16.1176 20.6819 15.3635 20.2655L12.3097 18.4865C12.1919 18.4098 12.1052 18.2938 12.065 18.1592C12.0248 18.0245 12.0338 17.8799 12.0903 17.7512C12.1138 17.7025 12.147 17.659 12.1877 17.6233C12.2285 17.5877 12.276 17.5606 12.3275 17.5437C12.3799 17.5287 12.4348 17.5246 12.4889 17.5317C12.543 17.5389 12.595 17.5571 12.6417 17.5852L14.3732 18.6051H14.4147C14.4601 18.6281 14.5078 18.646 14.5571 18.6585H14.6282H14.6757C14.7151 18.6614 14.7548 18.6614 14.7943 18.6585H14.8535C14.8824 18.6471 14.9101 18.6332 14.9366 18.617C14.9741 18.6009 15.0099 18.5811 15.0433 18.5577C15.0794 18.5286 15.1113 18.4947 15.1382 18.4569C15.1577 18.4366 15.1756 18.4148 15.1915 18.3917C15.2135 18.3486 15.2294 18.3027 15.239 18.2553C15.239 18.2553 15.239 18.2019 15.239 18.1723C15.2417 18.1407 15.2417 18.1089 15.239 18.0774C15.2452 18.0341 15.2452 17.9902 15.239 17.9469L13.1932 11.2285C13.1541 11.0929 13.1646 10.9478 13.2229 10.8193C13.2461 10.7696 13.279 10.7252 13.3198 10.6885C13.3605 10.6518 13.4082 10.6237 13.46 10.6058C13.5128 10.5913 13.5681 10.588 13.6222 10.5962C13.6764 10.6044 13.7282 10.6238 13.7743 10.6533C13.8924 10.726 13.9791 10.8402 14.0174 10.9735L15.1026 14.5314L15.3279 15.2666C15.366 15.3927 15.4449 15.5025 15.5523 15.5787C15.6597 15.655 15.7894 15.6933 15.9209 15.6877C15.9779 15.696 16.0359 15.696 16.0929 15.6877C16.1678 15.6653 16.2375 15.6283 16.298 15.5789C16.3586 15.5295 16.4087 15.4686 16.4457 15.3997C16.4826 15.3308 16.5055 15.2553 16.5132 15.1775C16.5208 15.0997 16.513 15.0212 16.4902 14.9464L16.1047 13.6775C16.0943 13.6425 16.0921 13.6055 16.0982 13.5695C16.1044 13.5335 16.1188 13.4994 16.1403 13.4699C16.2063 13.368 16.3077 13.2941 16.4249 13.2624C16.5378 13.2206 16.6619 13.2206 16.7748 13.2624C16.8099 13.2747 16.8415 13.295 16.8673 13.3218C16.893 13.3486 16.9121 13.381 16.923 13.4166L17.3144 14.6855C17.3322 14.756 17.3668 14.8211 17.4152 14.8753L17.4627 14.9287C17.4956 14.9595 17.5313 14.9873 17.5694 15.0117L17.6406 15.0472L17.7651 15.0888H17.8422H17.8777C17.9349 15.0949 17.9926 15.0949 18.0497 15.0888C18.1246 15.0664 18.1943 15.0294 18.2548 14.98C18.3154 14.9305 18.3656 14.8696 18.4025 14.8008C18.4394 14.7319 18.4624 14.6564 18.47 14.5786C18.4776 14.5008 18.4698 14.4223 18.447 14.3475L18.0616 13.0786C18.0141 12.9244 18.1624 12.7287 18.3818 12.6575C18.6012 12.5864 18.8384 12.6575 18.8858 12.8295L19.2712 14.0985C19.2923 14.175 19.3286 14.2466 19.3778 14.3089C19.4271 14.3711 19.4884 14.4229 19.558 14.4611C19.6277 14.4992 19.7043 14.523 19.7833 14.531C19.8623 14.539 19.9421 14.531 20.0179 14.5076C20.0938 14.4841 20.1642 14.4457 20.2249 14.3945C20.2857 14.3434 20.3355 14.2806 20.3715 14.2098C20.4075 14.139 20.4289 14.0617 20.4345 13.9825C20.44 13.9033 20.4296 13.8237 20.4038 13.7486L20.0836 12.6813C20.0453 12.5677 20.0508 12.4439 20.0991 12.3342C20.1473 12.2244 20.2349 12.1367 20.3445 12.0883C20.3974 12.0741 20.4526 12.071 20.5066 12.0792C20.5607 12.0874 20.6125 12.1066 20.6588 12.1357C20.7769 12.2099 20.8651 12.3232 20.9079 12.4559L22.1946 16.7017C22.3284 17.1557 22.3096 17.641 22.1413 18.0833C21.6536 19.2402 21.5762 20.5291 21.9219 21.7361L22.165 22.5425C22.2031 22.6686 22.282 22.7784 22.3894 22.8546C22.4967 22.9308 22.6264 22.9692 22.758 22.9635C22.815 22.9719 22.8729 22.9719 22.9299 22.9635C23.0787 22.917 23.2032 22.8138 23.2765 22.6762C23.3497 22.5386 23.3658 22.3776 23.3213 22.2282L23.0367 21.3032Z" fill="currentColor"/>
<path d="M11.2187 11.7621C11.0206 11.1308 11.0715 10.4477 11.361 9.85273C11.5075 9.54421 11.7165 9.26947 11.9748 9.04593C12.233 8.82239 12.5349 8.65491 12.8612 8.55411C13.3433 8.39978 13.8616 8.39978 14.3437 8.55411C14.6017 7.08866 14.3462 5.57906 13.6203 4.28014C12.8944 2.98122 11.7426 1.97254 10.3592 1.42437C8.97591 0.876199 7.44579 0.822119 6.0272 1.27125C4.60861 1.72039 3.38843 2.64523 2.57264 3.88966C1.75684 5.13409 1.39541 6.62188 1.54934 8.10189C1.70326 9.5819 2.36313 10.9635 3.41755 12.0134C4.47197 13.0633 5.85635 13.7173 7.337 13.8649C8.81766 14.0125 10.3039 13.6447 11.5448 12.8236L11.2187 11.7621ZM9.73031 10.5406C9.35761 10.8931 8.87263 11.1031 8.36053 11.1336V12.0586H7.60744V11.1276C7.09835 11.0919 6.61694 10.8826 6.24359 10.5347C6.05591 10.3296 5.91309 10.0876 5.82426 9.82414C5.73543 9.56071 5.70254 9.28164 5.72769 9.00477H6.64681C6.62719 9.19828 6.65049 9.39374 6.71507 9.57721C6.77964 9.76068 6.88389 9.92765 7.02039 10.0662C7.27877 10.2832 7.60817 10.3973 7.94544 10.3864C8.3021 10.3983 8.65056 10.2779 8.92385 10.0484C9.13658 9.84612 9.26041 9.56772 9.2682 9.27426C9.27598 8.98081 9.16707 8.69623 8.96536 8.48295C8.66894 8.228 8.32107 8.03992 7.94544 7.93148C7.39618 7.79329 6.88919 7.52249 6.46892 7.14282C6.29932 6.9705 6.16663 6.76542 6.07895 6.5401C5.99127 6.31478 5.95044 6.07396 5.95896 5.83233C5.93915 5.35411 6.10486 4.88672 6.42148 4.52777C6.75575 4.18562 7.20196 3.97514 7.6786 3.9348V2.85557H8.44354V3.92887C8.68883 3.95458 8.92647 4.02922 9.14239 4.14839C9.35832 4.26755 9.54815 4.42883 9.70066 4.62265C10.0195 5.07372 10.1782 5.61858 10.1513 6.17033H9.22034C9.23889 5.79377 9.13486 5.42134 8.92385 5.1089C8.82691 4.97677 8.6987 4.87077 8.5507 4.8004C8.40271 4.73002 8.23956 4.69747 8.07589 4.70567C7.92431 4.68611 7.77027 4.70106 7.62528 4.74942C7.48029 4.79778 7.34811 4.87828 7.23862 4.98492C7.12913 5.09156 7.04516 5.22157 6.993 5.36524C6.94083 5.5089 6.92182 5.66249 6.93737 5.81454C6.93012 5.95485 6.95281 6.09509 7.00393 6.22596C7.05505 6.35682 7.13343 6.47531 7.23386 6.57356C7.54196 6.83113 7.90198 7.01922 8.28937 7.12503C8.83213 7.27391 9.3333 7.5458 9.75403 7.91962C9.91683 8.09298 10.0432 8.29723 10.1257 8.52029C10.2082 8.74334 10.2451 8.98067 10.2343 9.21825C10.2453 9.46142 10.2062 9.70424 10.1195 9.93169C10.0328 10.1591 9.90032 10.3664 9.73031 10.5406Z" fill="currentColor"/>
</svg>
