<svg width="24" height="24" viewBox="0 0 24 24" fill="none" xmlns="http://www.w3.org/2000/svg">
<path d="M22.9604 22.7919C23.0645 22.6878 23.1281 22.5432 23.1281 22.3871V16.4145C23.1281 16.0965 22.8679 15.8363 22.5499 15.8363C22.2319 15.8363 21.9717 16.0965 21.9717 16.4145V20.9879L12.9693 11.974L21.9486 3.00631V7.55085C21.9486 7.86885 22.2088 8.12904 22.5268 8.12904C22.8448 8.12904 23.105 7.86885 23.105 7.55085C23.105 7.55085 23.105 1.61287 23.105 1.60709C23.105 1.29487 22.839 1.0289 22.5268 1.0289H16.5541C16.2361 1.0289 15.9759 1.28909 15.9759 1.60709C15.9759 1.92509 16.2361 2.18528 16.5541 2.18528H21.1276L12.1483 11.1472L3.16907 2.15637H7.67315C7.99116 2.15637 8.25134 1.89619 8.25134 1.57819C8.25134 1.26018 7.99116 1 7.67315 1H1.72939C1.41139 1 1.15121 1.26018 1.15121 1.57819V7.55085C1.15121 7.86885 1.41139 8.12904 1.72939 8.12904C2.0474 8.12904 2.30758 7.86885 2.30758 7.55085V2.93114L11.3273 11.9682L2.29602 20.9821V16.4781C2.29602 16.1601 2.03584 15.8999 1.71784 15.8999C1.39983 15.8999 1.13965 16.1601 1.13965 16.4781V22.4218C1.13965 22.7398 1.39983 23 1.71784 23H7.6905C8.0085 23 8.26868 22.7398 8.26868 22.4218C8.26868 22.1038 8.0085 21.8436 7.6905 21.8436H3.07079L12.1425 12.7834L21.1449 21.7974H16.6004C16.2824 21.7974 16.0222 22.0576 16.0222 22.3756C16.0222 22.6936 16.2824 22.9538 16.6004 22.9538C16.6004 22.9538 22.5383 22.9538 22.5441 22.9538C22.7118 22.9653 22.8563 22.8959 22.9604 22.7919Z" fill="currentColor"/>
</svg>
