<svg width="24" height="24" viewBox="0 0 24 24" fill="none" xmlns="http://www.w3.org/2000/svg">
<path d="M18.1467 13.0963L17.1683 6.03961C17.1278 5.75595 16.8847 5.54176 16.5952 5.54176H12.3577L12.8672 2.94832L16.2421 2.22471C16.5547 2.15524 16.7515 1.84843 16.6878 1.53582C16.6184 1.22322 16.3174 1.02061 15.999 1.09008L12.2535 1.89474C12.0278 1.94105 11.8541 2.12051 11.8078 2.35206L11.1826 5.54176H6.71931C6.42987 5.54176 6.18673 5.75595 6.14621 6.03961L5.16788 13.0963C4.98264 14.4104 5.38207 15.7071 6.28514 16.7433C7.17664 17.768 8.46178 18.4105 9.86849 18.5495V19.3368L7.89446 22.1618C7.7729 22.3412 7.75553 22.5728 7.85394 22.7638C7.95235 22.9548 8.14918 23.0764 8.36916 23.0764H14.9512C15.1654 23.0764 15.368 22.9548 15.4664 22.7638C15.5648 22.5728 15.5474 22.3412 15.4259 22.1618L13.4345 19.3368V18.5495C14.847 18.4163 16.1379 17.7738 17.0294 16.7433C17.9325 15.7071 18.3319 14.4104 18.1467 13.0963ZM16.1611 15.9792C15.3622 16.8938 14.1639 17.4148 12.8556 17.4148C12.5372 17.4148 12.2767 17.6753 12.2767 17.9937V19.5104C12.2767 19.632 12.3114 19.7478 12.3809 19.8462L13.8339 21.9128H9.47484L10.9163 19.8462C10.9858 19.7478 11.0205 19.632 11.0205 19.5162V17.9995C11.0205 17.6811 10.76 17.4206 10.4416 17.4206C9.14487 17.4206 7.94657 16.8938 7.15348 15.985C6.47618 15.2035 6.17515 14.2367 6.31409 13.2584L7.22295 6.69955H16.0916L17.0004 13.2584C17.1394 14.2367 16.8384 15.2035 16.1611 15.9792Z" fill="currentColor"/>
</svg>
