<svg width="24" height="24" viewBox="0 0 24 24" fill="none" xmlns="http://www.w3.org/2000/svg">
<path d="M12.4007 23.0701C10.0941 23.0701 7.92072 22.1949 6.28637 20.6012C3.11619 17.5121 2.89595 12.3309 5.78795 8.80136L11.9371 1.2845C12.0472 1.15121 12.2094 1.07007 12.3833 1.07007C12.5572 1.07007 12.7195 1.14541 12.8296 1.2845L19.0019 8.78977C21.8881 12.3019 21.691 17.4773 18.5498 20.5664C16.9212 22.1718 14.7479 23.0643 12.4355 23.0701C12.4239 23.0701 12.4123 23.0701 12.4007 23.0701ZM12.3891 2.56533L6.68626 9.5374C4.17678 12.6091 4.35644 17.1064 7.09775 19.7724C8.51767 21.1517 10.4012 21.9167 12.4065 21.9167C12.4181 21.9167 12.4297 21.9167 12.4413 21.9167C14.4465 21.911 16.3359 21.1343 17.75 19.7434C20.4681 17.0659 20.6304 12.5801 18.1209 9.52581L12.3891 2.56533Z" fill="currentColor"/>
</svg>
