<svg width="24" height="25" viewBox="0 0 24 25" fill="none" xmlns="http://www.w3.org/2000/svg">
<path d="M22.4211 9.3579H20.6611V8.06685C20.6611 7.74843 20.4005 7.4879 20.0821 7.4879H18.1079V6.57895C18.1079 6.26053 17.8474 6 17.5289 6H14.9758C14.6574 6 14.3968 6.26053 14.3968 6.57895V10.0989H9.59737V6.57895C9.59737 6.26053 9.33685 6 9.01842 6H6.46526C6.14684 6 5.88632 6.26053 5.88632 6.57895V7.4879H3.9121C3.59368 7.4879 3.33316 7.74843 3.33316 8.06685V9.3579H1.57895C1.26053 9.3579 1 9.61842 1 9.93684V13.4916C1 13.81 1.26053 14.0705 1.57895 14.0705H3.33895V15.5121C3.33895 15.8305 3.59947 16.0911 3.91789 16.0911H5.8921V17C5.8921 17.3184 6.15263 17.5789 6.47105 17.5789H9.02421C9.34263 17.5789 9.60316 17.3184 9.60316 17V13.4916H14.4026V17C14.4026 17.3184 14.6632 17.5789 14.9816 17.5789H17.5347C17.8532 17.5789 18.1137 17.3184 18.1137 17V16.0911H20.0879C20.4063 16.0911 20.6668 15.8305 20.6668 15.5121V14.0705H22.4211C22.7395 14.0705 23 13.81 23 13.4916V9.93684C23 9.61263 22.7395 9.3579 22.4211 9.3579ZM2.15789 12.9068V10.51H3.33895V12.9068H2.15789ZM4.50263 14.9332V13.4916V9.93684V8.64579H5.8979V14.9332H4.50263ZM8.44526 16.4211H7.05V15.5121V8.06685V7.15789H8.44526V10.6779V12.9126V16.4211ZM9.60316 12.3337V11.2568H14.4026V12.3337H9.60316ZM16.95 16.4211H15.5547V12.9126V10.6779V7.15789H16.95V8.06685V15.5121V16.4211ZM19.5032 14.9332H18.1079V8.64579H19.5032V9.93684V13.4916V14.9332ZM21.8421 12.9068H20.6611V10.51H21.8421V12.9068Z" fill="currentColor"/>
</svg>
