<svg width="24" height="24" viewBox="0 0 24 24" fill="none" xmlns="http://www.w3.org/2000/svg">
<path d="M12.1735 6.02795C8.83298 6.02795 6.11768 8.74325 6.11768 12.0838C6.11768 15.4244 8.83298 18.1397 12.1735 18.1397C15.5141 18.1397 18.2294 15.4244 18.2294 12.0838C18.2294 8.74325 15.5141 6.02795 12.1735 6.02795ZM12.1735 16.9818C9.46983 16.9818 7.27559 14.7818 7.27559 12.0838C7.27559 9.3859 9.47562 7.18586 12.1735 7.18586C14.8773 7.18586 17.0715 9.3859 17.0715 12.0838C17.0715 14.7818 14.8773 16.9818 12.1735 16.9818Z" fill="currentColor"/>
<path d="M21.5298 3.52685C21.2287 3.20263 20.7771 3.09842 20.3718 3.26053C19.9492 3.42843 19.6771 3.8337 19.6771 4.29686V6.97163C18.0155 4.52844 15.2307 3 12.1738 3C10.107 3 8.15589 3.68896 6.55797 4.95108V4.08265C6.55797 3.76422 6.29744 3.50369 5.97902 3.50369C5.66059 3.50369 5.40006 3.76422 5.40006 4.08265V7.95007C5.40006 8.33218 5.11058 8.63903 4.75163 8.63903H4.35794V4.08265C4.35794 3.76422 4.09741 3.50369 3.77899 3.50369C3.46056 3.50369 3.20003 3.76422 3.20003 4.08265V8.63903H2.80634C2.44739 8.63903 2.15791 8.33218 2.15791 7.95007V4.08265C2.15791 3.76422 1.89738 3.50369 1.57896 3.50369C1.26053 3.50369 1 3.76422 1 4.08265V7.95007C1 8.8764 1.67159 9.64062 2.54002 9.77378L1.90317 19.0371C1.86843 19.5408 2.04791 20.0387 2.38949 20.4092C2.73108 20.7797 3.22319 20.9881 3.72688 20.9881C4.23057 20.9881 4.7111 20.7797 5.05269 20.415C5.39427 20.0502 5.57954 19.5581 5.55059 19.0544L5.50427 18.2439C7.2064 20.0792 9.62065 21.1734 12.1738 21.1734C15.0686 21.1734 17.7376 19.7955 19.4339 17.5491L19.3471 19.1181C19.3239 19.5986 19.4976 20.0792 19.8276 20.4323C20.1576 20.7855 20.6266 20.9824 21.1129 20.9824C21.5992 20.9824 22.0566 20.7855 22.3924 20.4323C22.7282 20.0792 22.9019 19.616 22.8787 19.1239L22.5777 12.958L22.9829 7.7648C23.1045 6.18425 22.5719 4.64423 21.5298 3.52685ZM4.2132 19.616C3.95846 19.8881 3.48951 19.8881 3.24056 19.616C3.11319 19.4771 3.0495 19.3034 3.06108 19.1123L3.70372 9.80273H3.75583C3.76741 9.80273 3.7732 9.80852 3.77899 9.80852C3.78478 9.80852 3.79635 9.80273 3.80214 9.80273H3.85425L4.39268 19.1239C4.40426 19.3034 4.34057 19.4829 4.2132 19.616ZM19.6771 12.9291C19.6597 13.0275 19.6482 13.2128 19.6424 13.5254L19.5903 14.4575C19.5497 14.8686 19.4918 15.106 19.4455 15.2391C19.4397 15.2507 19.4282 15.2565 19.4224 15.2681C18.1544 18.1455 15.306 20.0039 12.1623 20.0039C9.60328 20.0039 7.19482 18.7476 5.71849 16.6865C5.49848 16.3797 5.36532 16.0207 5.34217 15.6444L5.01216 9.77378C5.88638 9.64062 6.55797 8.88219 6.55797 7.95007V6.4911C8.05747 4.98582 10.0491 4.15791 12.1738 4.15791C15.4623 4.15791 18.3918 6.17846 19.5671 9.22377C19.6424 9.42061 19.6771 9.63483 19.6771 9.84904V12.9291ZM21.5587 19.6334C21.3271 19.8765 20.9045 19.8765 20.6729 19.6334C20.5571 19.5118 20.4992 19.3497 20.505 19.1818L20.8061 13.5312H21.4487L21.7266 19.1876C21.7324 19.3497 21.6745 19.5118 21.5587 19.6334ZM21.8308 7.67217L21.4661 12.3733H20.8408V4.48792C21.5587 5.35635 21.9177 6.50268 21.8308 7.67217Z" fill="currentColor"/>
</svg>
