<svg width="24" height="24" viewBox="0 0 24 24" fill="none" xmlns="http://www.w3.org/2000/svg">
<path d="M22.0857 4.92293L18.3363 1.17353C18.1016 0.938819 17.7224 0.938819 17.4877 1.17353L14.7855 3.87575C14.6711 3.99009 14.611 4.14055 14.611 4.30305C14.611 4.46554 14.6772 4.616 14.7855 4.73034L20.2922 10.2371C20.4066 10.3514 20.557 10.4116 20.7195 10.4116C20.882 10.4116 21.0325 10.3454 21.1468 10.2371L22.0917 9.29221C22.6755 8.70844 22.9944 7.9381 22.9944 7.11359C22.9944 6.28908 22.6695 5.5067 22.0857 4.92293ZM21.2311 8.4316L20.7135 8.94917L16.0614 4.29703L17.909 2.44941L21.2311 5.77151C21.5862 6.12659 21.7848 6.60203 21.7848 7.10155C21.7848 7.60107 21.5922 8.07652 21.2311 8.4316Z" fill="currentColor"/>
<path d="M18.7337 10.8931L7.45539 22.1232L2.27364 22.695L2.84538 17.5192L14.1237 6.28307C14.3584 6.04835 14.3584 5.6692 14.1237 5.43449C13.8889 5.19978 13.5098 5.19978 13.2691 5.43449L1.84634 16.8091C1.75005 16.9054 1.68987 17.0317 1.67181 17.1702L0.997763 23.3088C0.979708 23.4894 1.03989 23.6699 1.17229 23.8023C1.28664 23.9167 1.4371 23.9769 1.59959 23.9769C1.62367 23.9769 1.64172 23.9769 1.66579 23.9708L7.79844 23.2908C7.93686 23.2787 8.06324 23.2125 8.15953 23.1162L19.5883 11.7356C19.823 11.5009 19.823 11.1218 19.5883 10.8871C19.3475 10.6584 18.9684 10.6523 18.7337 10.8931Z" fill="currentColor"/>
<path d="M5.23475 19.7339C5.35512 19.8543 5.50557 19.9085 5.66205 19.9085C5.81251 19.9085 5.96898 19.8483 6.08935 19.7339L16.8561 9.01537C17.0908 8.78065 17.0908 8.4015 16.8561 8.16679C16.6214 7.93207 16.2422 7.93207 16.0015 8.16679L5.23475 18.8854C5.00004 19.1141 5.00004 19.4992 5.23475 19.7339Z" fill="currentColor"/>
</svg>
