<svg width="24" height="24" viewBox="0 0 24 24" fill="none" xmlns="http://www.w3.org/2000/svg">
<path d="M16.8523 17.9348H5.29785V21.058C5.29785 22.1275 6.16394 23.0002 7.23999 23.0002H18.7944V19.877C18.7944 18.8009 17.9283 17.9348 16.8523 17.9348ZM17.4822 21.6813H7.23343C6.88568 21.6813 6.60355 21.3992 6.60355 21.0515V19.2405H16.8457C17.1935 19.2405 17.4756 19.5227 17.4756 19.8704V21.6813H17.4822Z" fill="currentColor"/>
<path d="M7.04957 10.153C7.66634 9.70683 8.63085 9.10975 9.26073 9.28035C10.2384 9.5428 11.3144 8.59141 11.3144 8.59141C11.321 9.01789 11.0126 9.43126 10.6977 9.96272C10.5533 10.1989 10.7764 10.4942 11.0454 10.422L16.8325 8.8473C16.7144 7.52848 16.5569 6.71489 16.3338 6.1703C14.6541 1.7808 13.5584 3.59827 12.6923 3.05369C11.8262 2.5091 12.0099 1.23621 10.5599 1C10.7305 2.25321 10.2974 2.92246 9.56255 3.55234C9.00484 4.03131 6.46562 6.36058 5.29115 7.43663C4.95652 7.74501 4.90404 8.29615 5.16649 8.68327L6.01945 9.94304C6.26878 10.2973 6.71495 10.3958 7.04957 10.153Z" fill="currentColor"/>
<path d="M7.89587 12.7446L7.63342 12.9808C7.18725 13.3876 6.9248 14.0043 6.9248 14.6539V14.9557V15.7562V16.268H17.1145V15.7562H17.1473C17.1539 14.2143 17.1342 12.0884 16.9964 10.166L7.89587 12.7643V12.7446Z" fill="currentColor"/>
</svg>
