<svg width="24" height="25" viewBox="0 0 24 25" fill="none" xmlns="http://www.w3.org/2000/svg">
<path d="M15.654 19.8146H13.4249C13.299 20.1618 13.4478 20.4335 13.8058 20.5089C14.1149 20.575 14.4362 20.5563 14.7356 20.4548C14.8844 20.4053 15.0257 20.3358 15.1705 20.2763C15.237 20.2495 15.3039 20.2267 15.4026 20.1875C15.4013 20.2431 15.3945 20.2984 15.3823 20.3527C15.3139 20.5297 15.2365 20.7033 15.17 20.8808C15.1562 20.9194 15.1335 20.9541 15.1036 20.9822C15.0738 21.0103 15.0378 21.031 14.9985 21.0425C14.4425 21.2448 13.8713 21.2795 13.2891 21.2032C13.2484 21.1958 13.2083 21.1857 13.1691 21.1729C12.5586 21.0063 12.2764 20.5585 12.393 19.9331C12.6493 18.561 13.9149 17.7849 15.24 18.0487C15.7765 18.1558 16.0161 18.5243 15.9243 19.0673C15.8776 19.33 15.7862 19.5828 15.654 19.8146ZM14.9013 19.2195C14.9228 19.148 14.9394 19.0751 14.9508 19.0013C14.9657 18.8119 14.8705 18.6879 14.6865 18.6438C14.2705 18.5446 13.7939 18.8025 13.6362 19.2195H14.9013Z" fill="#144B91"/>
<path d="M7.68267 19.82H5.44812C5.33654 20.1756 5.49027 20.4404 5.84881 20.5088C6.15804 20.5724 6.47868 20.5517 6.77715 20.4488C6.93236 20.3938 7.08163 20.3218 7.23487 20.2599C7.29884 20.2341 7.36628 20.2152 7.48828 20.1741C7.36876 20.4637 7.27752 20.6997 7.17189 20.9283C7.13671 20.9817 7.08415 21.0213 7.02312 21.0404C6.47762 21.2422 5.91228 21.276 5.33703 21.2026C5.26339 21.1913 5.19099 21.173 5.12081 21.148C4.59515 20.9745 4.34224 20.5703 4.41167 20.0208C4.487 19.4666 4.75864 18.9579 5.17724 18.5869C5.59584 18.216 6.13361 18.0076 6.69284 17.9995C6.94079 17.9995 7.18875 18.0089 7.42629 18.0913C7.80219 18.2217 7.9822 18.4815 7.97179 18.8802C7.96732 19.2105 7.85128 19.5086 7.68267 19.82ZM6.91104 19.2185C7.04791 18.8946 6.96956 18.6903 6.69532 18.6368C6.27529 18.5554 5.83839 18.7984 5.66235 19.2185H6.91104Z" fill="#144B91"/>
<path d="M10.7798 21.1521H9.79199C10.0965 20.3472 10.4367 19.5761 10.7501 18.7643L10.3534 18.7325L10.6092 18.0953H11.0119C11.0814 17.9579 11.1399 17.832 11.2103 17.7105C11.4939 17.2017 11.9239 16.917 12.5101 16.8987C12.758 16.8902 13.006 16.9046 13.2539 16.9131C13.3102 16.9221 13.3655 16.9364 13.4191 16.9557L13.1418 17.6331C12.3216 17.5577 12.1733 17.6172 12.0315 18.0903H12.7516C12.6564 18.3279 12.574 18.5312 12.4877 18.7459H11.7632L10.7798 21.1521Z" fill="#144B91"/>
<path d="M19.5992 18.2559L19.2312 19.1198C19.1529 19.0796 19.0824 19.0608 19.0358 19.0176C18.6391 18.6536 18.1164 18.6179 17.685 18.9353C17.3215 19.2021 17.1499 19.58 17.1077 20.0144C17.0815 20.2857 17.2377 20.4741 17.5124 20.5158C17.7499 20.5593 17.9951 20.5287 18.2146 20.428C18.348 20.3635 18.4779 20.2916 18.6069 20.2182C18.6733 20.1801 18.7343 20.1399 18.8211 20.2009C18.7219 20.4335 18.6302 20.67 18.5236 20.9006C18.4921 20.9655 18.4397 21.0179 18.3748 21.0494C17.8917 21.2557 17.3555 21.3028 16.8439 21.1838C16.2602 21.0563 15.9711 20.613 16.0713 20.0228C16.234 19.0672 16.8152 18.4637 17.7078 18.1498C18.2328 17.956 18.8092 17.9526 19.3363 18.1404C19.4192 18.1696 19.498 18.2113 19.5992 18.2559Z" fill="#144B91"/>
<path d="M8.80782 21.153H7.81055L9.53134 16.9254H10.5286L8.80782 21.153Z" fill="#144B91"/>
<path d="M19.4175 7.50815C19.4794 9.18977 18.7356 10.4221 17.2851 11.2473C16.3751 11.765 15.3838 12.0432 14.3592 12.1865C12.4043 12.4603 10.4529 12.4394 8.52536 11.9664C7.49387 11.7134 6.52884 11.3083 5.73539 10.5738C4.86209 9.767 4.45942 8.70328 4.58786 7.44666C4.6801 7.66039 4.74456 7.8171 4.81449 7.97132C5.21121 8.83619 5.88465 9.42037 6.70786 9.8528C7.61289 10.3289 8.58685 10.5907 9.59206 10.7266C11.3803 10.9681 13.1705 10.9745 14.9444 10.614C15.5505 10.495 16.144 10.3193 16.7172 10.0893C17.9347 9.58848 18.9384 8.83321 19.4175 7.50815Z" fill="#FADC00"/>
<path d="M4.59151 10.733C5.01551 12.1558 5.95426 12.915 7.12708 13.4342C8.01971 13.831 8.96441 14.0487 9.93242 14.1459C11.8511 14.3378 13.7613 14.3289 15.6438 13.8369C15.8233 13.7903 16.0018 13.7377 16.1779 13.6802C17.7926 13.1486 18.641 12.4221 19.432 10.8506C19.49 11.5012 19.3745 12.1555 19.0973 12.7469C18.7249 13.5657 18.1015 14.1523 17.3338 14.5961C16.521 15.0658 15.6398 15.3479 14.7184 15.4982C12.6004 15.8453 10.4888 15.8364 8.39858 15.3103C7.38842 15.0559 6.45066 14.6393 5.68597 13.9044C4.8469 13.1025 4.46356 12.0606 4.59151 10.733Z" fill="#00783C"/>
<path d="M4.59548 4.26739C5.16181 5.78734 6.36885 6.54856 7.80995 7.02364C9.43752 7.56021 11.1206 7.65741 12.8186 7.58302C13.9324 7.53343 15.0333 7.38912 16.0995 7.03752C16.7883 6.8099 17.4385 6.51236 18.0217 6.0715C18.593 5.63907 19.0383 5.11291 19.2862 4.43203C19.3077 4.37489 19.3339 4.31965 19.3646 4.26689C19.371 4.25598 19.4023 4.25846 19.4588 4.24805C19.4831 5.69858 18.9158 6.83519 17.7435 7.66981C16.9758 8.2153 16.11 8.55302 15.196 8.73601C12.9044 9.19472 10.6108 9.20315 8.33561 8.62492C7.34727 8.37399 6.42737 7.95892 5.6845 7.23192C4.85584 6.42508 4.47002 5.44517 4.59548 4.26739Z" fill="#DC2828"/>
</svg>
