<svg width="24" height="24" viewBox="0 0 24 24" fill="none" xmlns="http://www.w3.org/2000/svg">
<path d="M12 23C5.93263 23 1 18.0674 1 12C1 5.93263 5.93263 1 12 1C18.0674 1 23 5.93263 23 12C23 18.0674 18.0674 23 12 23ZM12 2.15789C6.57526 2.15789 2.15789 6.57526 2.15789 12C2.15789 17.4247 6.57526 21.8421 12 21.8421C17.4247 21.8421 21.8421 17.4247 21.8421 12C21.8421 6.57526 17.4305 2.15789 12 2.15789Z" fill="currentColor"/>
<path d="M16.429 11.1258C17.0781 11.1258 17.6043 10.5996 17.6043 9.95053C17.6043 9.30145 17.0781 8.77527 16.429 8.77527C15.78 8.77527 15.2538 9.30145 15.2538 9.95053C15.2538 10.5996 15.78 11.1258 16.429 11.1258Z" fill="currentColor"/>
<path d="M7.51328 11.1258C8.16236 11.1258 8.68854 10.5996 8.68854 9.95053C8.68854 9.30145 8.16236 8.77527 7.51328 8.77527C6.8642 8.77527 6.33801 9.30145 6.33801 9.95053C6.33801 10.5996 6.8642 11.1258 7.51328 11.1258Z" fill="currentColor"/>
<path d="M12.0002 19.3179C8.96649 19.3179 6.49438 16.8516 6.49438 13.8179C6.49438 13.4995 6.75491 13.239 7.07333 13.239H16.927C17.2454 13.239 17.506 13.4995 17.506 13.8179C17.506 16.8516 15.0339 19.3179 12.0002 19.3179ZM7.6928 14.3968C7.97649 16.5216 9.80017 18.16 12.0002 18.16C14.2002 18.16 16.0239 16.5158 16.3075 14.3968H7.6928Z" fill="currentColor"/>
</svg>
