<svg width="24" height="24" viewBox="0 0 24 24" fill="none" xmlns="http://www.w3.org/2000/svg">
<path d="M12 1C5.92556 1 1 5.92556 1 12C1 18.0744 5.92556 23 12 23C18.0744 23 23 18.0744 23 12C23 5.92556 18.0744 1 12 1ZM6.02333 9.81833C6.02333 9.13389 6.57944 8.57778 7.26389 8.57778C7.94833 8.57778 8.50444 9.13389 8.50444 9.81833C8.50444 10.5028 7.94833 11.0589 7.26389 11.0589C6.57944 11.0589 6.02333 10.5028 6.02333 9.81833ZM16.7178 16.345H7.26389C6.92778 16.345 6.65278 16.07 6.65278 15.7339C6.65278 15.3978 6.92778 15.1228 7.26389 15.1228H16.7178C17.0539 15.1228 17.3289 15.3978 17.3289 15.7339C17.3289 16.07 17.0539 16.345 16.7178 16.345ZM16.7178 11.0589C16.0333 11.0589 15.4772 10.5028 15.4772 9.81833C15.4772 9.13389 16.0333 8.57778 16.7178 8.57778C17.4022 8.57778 17.9583 9.13389 17.9583 9.81833C17.9583 10.5028 17.4022 11.0589 16.7178 11.0589Z" fill="currentColor"/>
</svg>
