<svg width="24" height="24" viewBox="0 0 24 24" fill="none" xmlns="http://www.w3.org/2000/svg">
<path d="M12 1C5.92556 1 1 5.92556 1 12C1 18.0744 5.92556 23 12 23C18.0744 23 23 18.0744 23 12C23 5.92556 18.0744 1 12 1ZM16.675 8.57778C17.3594 8.57778 17.9156 9.13389 17.9156 9.81833C17.9156 10.5028 17.3594 11.0589 16.675 11.0589C15.9906 11.0589 15.4344 10.5028 15.4344 9.81833C15.4344 9.13389 15.9906 8.57778 16.675 8.57778ZM7.26389 8.57778C7.94833 8.57778 8.50444 9.13389 8.50444 9.81833C8.50444 10.5028 7.94833 11.0589 7.26389 11.0589C6.57944 11.0589 6.02333 10.5028 6.02333 9.81833C6.02333 9.13389 6.57944 8.57778 7.26389 8.57778ZM17.9767 14.4689C16.7483 16.5956 14.4567 17.9156 12.0061 17.9156C9.55556 17.9156 7.2639 16.5956 6.02945 14.4689C5.85834 14.1756 5.96222 13.8028 6.24944 13.6317C6.54278 13.4606 6.91555 13.5644 7.08666 13.8517C8.10111 15.5994 9.98333 16.6872 12 16.6872C14.0167 16.6872 15.905 15.5994 16.9133 13.8517C17.0844 13.5583 17.4572 13.4606 17.7506 13.6317C18.0439 13.8028 18.1417 14.1756 17.9767 14.4689Z" fill="currentColor"/>
</svg>
