<svg width="24" height="24" viewBox="0 0 24 24" fill="none" xmlns="http://www.w3.org/2000/svg">
<path d="M12 1C5.93263 1 1 5.93263 1 12C1 18.0674 5.93263 23 12 23C18.0674 23 23 18.0674 23 12C23 5.93263 18.0674 1 12 1ZM12 21.8421C6.57526 21.8421 2.15789 17.4247 2.15789 12C2.15789 6.57526 6.57526 2.15789 12 2.15789C17.4247 2.15789 21.8421 6.57526 21.8421 12C21.8421 17.4247 17.4247 21.8421 12 21.8421Z" fill="currentColor"/>
<path d="M8.70006 10.101L8.83901 10.1473C8.90269 10.1705 8.96058 10.1763 9.02427 10.1763C9.26743 10.1763 9.49322 10.0258 9.57427 9.78261C9.67848 9.48156 9.51637 9.15156 9.20953 9.04735L5.51585 7.79682C5.2148 7.69261 4.8848 7.85471 4.78058 8.16156C4.67637 8.46261 4.83848 8.79261 5.14532 8.89682L6.52322 9.36577C6.43058 9.53366 6.37269 9.72471 6.37269 9.93314C6.37269 10.5816 6.89953 11.1084 7.54795 11.1084C8.13269 11.1084 8.61901 10.6742 8.70006 10.101Z" fill="currentColor"/>
<path d="M11.9999 13.7137C9.66677 13.7137 7.76782 15.6126 7.76782 17.9458C7.76782 18.2642 8.02835 18.5247 8.34677 18.5247H15.6473C15.9657 18.5247 16.2262 18.2642 16.2262 17.9458C16.232 15.6068 14.3331 13.7137 11.9999 13.7137ZM8.98361 17.3611C9.25572 15.9426 10.5062 14.8658 11.9999 14.8658C13.4936 14.8658 14.7441 15.9426 15.0162 17.3611H8.98361Z" fill="currentColor"/>
<path d="M19.2888 8.18472C19.1904 7.88367 18.8604 7.71577 18.5593 7.81419L14.7962 9.05314C14.4951 9.15156 14.3272 9.48156 14.4256 9.78262C14.5067 10.0258 14.7325 10.1821 14.9756 10.1821C15.0335 10.1821 15.0972 10.1705 15.1551 10.1531L15.2999 10.1068C15.3809 10.6742 15.8672 11.1142 16.4578 11.1142C17.1062 11.1142 17.633 10.5874 17.633 9.93893C17.633 9.7363 17.5809 9.55104 17.4883 9.38893L18.9183 8.91998C19.2251 8.81577 19.3872 8.48577 19.2888 8.18472Z" fill="currentColor"/>
</svg>
