<svg width="24" height="24" viewBox="0 0 24 24" fill="none" xmlns="http://www.w3.org/2000/svg">
<path d="M12 23C5.93263 23 1 18.0674 1 12C1 5.93263 5.93263 1 12 1C18.0674 1 23 5.93263 23 12C23 18.0674 18.0674 23 12 23ZM12 2.15789C6.57526 2.15789 2.15789 6.57526 2.15789 12C2.15789 17.4247 6.57526 21.8421 12 21.8421C17.4247 21.8421 21.8421 17.4247 21.8421 12C21.8421 6.57526 17.4305 2.15789 12 2.15789Z" fill="currentColor"/>
<path d="M16.429 11.1258C17.0781 11.1258 17.6043 10.5996 17.6043 9.95053C17.6043 9.30145 17.0781 8.77527 16.429 8.77527C15.78 8.77527 15.2538 9.30145 15.2538 9.95053C15.2538 10.5996 15.78 11.1258 16.429 11.1258Z" fill="currentColor"/>
<path d="M7.51328 11.1258C8.16236 11.1258 8.68854 10.5996 8.68854 9.95053C8.68854 9.30145 8.16236 8.77527 7.51328 8.77527C6.8642 8.77527 6.33801 9.30145 6.33801 9.95053C6.33801 10.5996 6.8642 11.1258 7.51328 11.1258Z" fill="currentColor"/>
<path d="M11.9999 18.5363C9.67258 18.5363 7.50731 17.2858 6.34363 15.271C6.18152 14.9931 6.27994 14.64 6.55205 14.4779C6.82994 14.3158 7.18311 14.4142 7.34521 14.6921C8.30627 16.3479 10.0894 17.3784 11.9999 17.3784C13.9105 17.3784 15.6994 16.3479 16.6547 14.6921C16.8168 14.4142 17.1699 14.3216 17.4478 14.4837C17.7257 14.6458 17.8184 14.9989 17.6563 15.2768C16.4926 17.28 14.3273 18.5363 11.9999 18.5363Z" fill="currentColor"/>
</svg>
