<svg width="24" height="24" viewBox="0 0 24 24" fill="none" xmlns="http://www.w3.org/2000/svg">
<path d="M12 1C5.93263 1 1 5.93263 1 12C1 18.0674 5.93263 23 12 23C18.0674 23 23 18.0674 23 12C23 5.93263 18.0674 1 12 1ZM12 21.8421C6.57526 21.8421 2.15789 17.4247 2.15789 12C2.15789 6.57526 6.57526 2.15789 12 2.15789C17.4247 2.15789 21.8421 6.57526 21.8421 12C21.8421 17.4247 17.4305 21.8421 12 21.8421Z" fill="currentColor"/>
<path d="M16.429 11.1258C17.0775 11.1258 17.6043 10.599 17.6043 9.95053C17.6043 9.30211 17.0775 8.77527 16.429 8.77527C15.7806 8.77527 15.2538 9.30211 15.2538 9.95053C15.2538 10.599 15.7806 11.1258 16.429 11.1258Z" fill="currentColor"/>
<path d="M7.5073 11.1258C8.15572 11.1258 8.68256 10.599 8.68256 9.95053C8.68256 9.30211 8.15572 8.77527 7.5073 8.77527C6.85887 8.77527 6.33203 9.30211 6.33203 9.95053C6.33782 10.599 6.85887 11.1258 7.5073 11.1258Z" fill="currentColor"/>
<path d="M11.9999 14.3969C9.67837 14.3969 7.50731 15.6474 6.34363 17.6621C6.18152 17.94 6.27994 18.2932 6.55205 18.4553C6.82994 18.6174 7.1831 18.519 7.34521 18.2469C8.30626 16.5911 10.0894 15.5605 11.9999 15.5605C13.9105 15.5605 15.6994 16.5911 16.6547 18.2469C16.7589 18.4321 16.9557 18.5363 17.1584 18.5363C17.2568 18.5363 17.3552 18.5132 17.4478 18.4611C17.7257 18.299 17.8184 17.9458 17.6563 17.6679C16.4926 15.6532 14.3273 14.3969 11.9999 14.3969Z" fill="currentColor"/>
</svg>
