<svg width="24" height="24" viewBox="0 0 24 24" fill="none" xmlns="http://www.w3.org/2000/svg">
<path d="M12 1C5.92556 1 1 5.92556 1 12C1 18.0744 5.92556 23 12 23C18.0744 23 23 18.0744 23 12C23 5.92556 18.0744 1 12 1ZM16.675 8.57778C17.3594 8.57778 17.9156 9.13389 17.9156 9.81833C17.9156 10.5028 17.3594 11.0589 16.675 11.0589C15.9906 11.0589 15.4344 10.5028 15.4344 9.81833C15.4344 9.13389 15.9906 8.57778 16.675 8.57778ZM7.26389 8.57778C7.94833 8.57778 8.50444 9.13389 8.50444 9.81833C8.50444 10.5028 7.94833 11.0589 7.26389 11.0589C6.57944 11.0589 6.02333 10.5028 6.02333 9.81833C6.02333 9.13389 6.57944 8.57778 7.26389 8.57778ZM17.7506 17.8361C17.6528 17.8911 17.5489 17.9156 17.445 17.9156C17.2311 17.9156 17.0294 17.8056 16.9133 17.61C15.8989 15.8622 14.0167 14.7744 12 14.7744C9.98333 14.7744 8.09499 15.8622 7.08666 17.61C6.91555 17.9033 6.54278 18.0011 6.24944 17.83C5.95611 17.6589 5.85833 17.2861 6.02944 16.9928C7.25778 14.8661 9.54944 13.5461 12 13.5461C14.4506 13.5461 16.7422 14.8661 17.9705 16.9928C18.1417 17.2922 18.0439 17.665 17.7506 17.8361Z" fill="currentColor"/>
</svg>
