<svg width="24" height="24" viewBox="0 0 24 24" fill="none" xmlns="http://www.w3.org/2000/svg">
<path d="M12 1C5.92556 1 1 5.92556 1 12C1 18.0744 5.92556 23 12 23C18.0744 23 23 18.0744 23 12C23 5.92556 18.0744 1 12 1ZM6.02333 9.81833C6.02333 9.13389 6.57944 8.57778 7.26389 8.57778C7.94833 8.57778 8.50444 9.13389 8.50444 9.81833C8.50444 10.5028 7.94833 11.0589 7.26389 11.0589C6.57944 11.0589 6.02333 10.5028 6.02333 9.81833ZM12 18.5022C9.36611 18.5022 7.19056 16.5467 6.84834 14.0106C6.79945 13.6378 7.09889 13.3017 7.47778 13.3017H16.5283C16.9072 13.3017 17.2067 13.6317 17.1578 14.0106C16.8094 16.5467 14.6339 18.5022 12 18.5022ZM16.675 11.0589C15.9906 11.0589 15.4344 10.5028 15.4344 9.81833C15.4344 9.13389 15.9906 8.57778 16.675 8.57778C17.3594 8.57778 17.9156 9.13389 17.9156 9.81833C17.9156 10.5028 17.3594 11.0589 16.675 11.0589Z" fill="currentColor"/>
</svg>
