<svg width="24" height="24" viewBox="0 0 24 24" fill="none" xmlns="http://www.w3.org/2000/svg">
<path d="M12 1C5.93263 1 1 5.93263 1 12C1 18.0674 5.93263 23 12 23C18.0674 23 23 18.0674 23 12C23 5.93263 18.0674 1 12 1ZM12 21.8421C6.57526 21.8421 2.15789 17.4247 2.15789 12C2.15789 6.57526 6.57526 2.15789 12 2.15789C17.4247 2.15789 21.8421 6.57526 21.8421 12C21.8421 17.4247 17.4305 21.8421 12 21.8421Z" fill="currentColor"/>
<path d="M16.429 8.77527C15.7806 8.77527 15.2538 9.30211 15.2538 9.95053C15.2538 10.599 15.7806 11.1258 16.429 11.1258C17.0775 11.1258 17.6043 10.599 17.6043 9.95053C17.5985 9.30211 17.0775 8.77527 16.429 8.77527Z" fill="currentColor"/>
<path d="M8.68256 9.95053C8.68256 9.30211 8.15571 8.77527 7.50729 8.77527C6.85887 8.77527 6.33203 9.30211 6.33203 9.95053C6.33203 10.599 6.85887 11.1258 7.50729 11.1258C8.15571 11.1258 8.68256 10.599 8.68256 9.95053Z" fill="currentColor"/>
<path d="M16.4695 15.5026H7.51315C7.19473 15.5026 6.9342 15.7632 6.9342 16.0816C6.9342 16.4 7.19473 16.6605 7.51315 16.6605H16.4695C16.7879 16.6605 17.0484 16.4 17.0484 16.0816C17.0484 15.7632 16.7879 15.5026 16.4695 15.5026Z" fill="currentColor"/>
</svg>
