<svg width="24" height="24" viewBox="0 0 24 24" fill="none" xmlns="http://www.w3.org/2000/svg">
<path d="M12 1C5.92556 1 1 5.92556 1 12C1 18.0744 5.92556 23 12 23C18.0744 23 23 18.0744 23 12C23 5.92556 18.0744 1 12 1ZM6.67111 9.81833C6.67111 9.59833 6.73222 9.39667 6.83 9.21944L5.37556 8.72444C5.05778 8.61444 4.88667 8.27222 4.99055 7.94833C5.10055 7.63056 5.44889 7.45944 5.76667 7.56333L9.66555 8.88333C9.98333 8.99333 10.1544 9.33556 10.0506 9.65944C9.965 9.91611 9.72667 10.075 9.47 10.075C9.40278 10.075 9.34166 10.0628 9.27444 10.0444L9.12778 9.99556C9.04222 10.5944 8.52889 11.0589 7.90556 11.0589C7.22111 11.0589 6.67111 10.5028 6.67111 9.81833ZM15.1656 17.6589H8.84056C8.45556 17.6589 8.14389 17.3106 8.21722 16.9317C8.55333 15.1472 10.1239 13.8028 12 13.8028C13.8822 13.8028 15.4467 15.1472 15.7828 16.9317C15.8561 17.3106 15.5506 17.6589 15.1656 17.6589ZM18.6978 8.74278L17.1883 9.23778C17.28 9.40889 17.3411 9.61056 17.3411 9.81833C17.3411 10.5028 16.785 11.0589 16.1006 11.0589C15.4772 11.0589 14.9639 10.5944 14.8783 9.99556L14.7256 10.0444C14.6644 10.0628 14.5972 10.075 14.5361 10.075C14.2794 10.075 14.0411 9.91 13.9556 9.65333C13.8517 9.33556 14.0228 8.98722 14.3467 8.88333L18.3189 7.57556C18.6367 7.47167 18.985 7.64278 19.0889 7.96667C19.1928 8.29056 19.0156 8.63889 18.6978 8.74278Z" fill="currentColor"/>
</svg>
