<svg width="24" height="24" viewBox="0 0 24 24" fill="none" xmlns="http://www.w3.org/2000/svg">
<path fill-rule="evenodd" clip-rule="evenodd" d="M22.4211 6.12604H18.5363V2.24131C18.5363 2.06183 18.4495 1.88815 18.3105 1.78394C18.1658 1.67394 17.9805 1.6392 17.8068 1.68551C17.8068 1.68551 1.44 6.1492 1.42842 6.1492C1.19684 6.21289 1 6.46183 1 6.70499V18.6602C1 20.5939 2.57474 22.1687 4.50842 22.1687H22.4211C22.7395 22.1687 23 21.9081 23 21.5897V16.0781V12.2687V6.70499C23 6.38657 22.7395 6.12604 22.4211 6.12604ZM17.3784 6.12604H5.90369L17.3784 2.99394V6.12604ZM4.50842 21.0108C3.21158 21.0108 2.15789 19.9571 2.15789 18.6602V7.28394H21.8421V11.6897H16.8979C15.5258 11.6897 14.4142 12.8013 14.4142 14.1734C14.4142 15.5455 15.5258 16.6571 16.8979 16.6571H21.8421V21.0108H4.50842ZM21.8421 15.4992H16.8979C16.1684 15.4992 15.5721 14.9029 15.5721 14.1734C15.5721 13.4439 16.1684 12.8476 16.8979 12.8476H21.8421V15.4992Z" fill="currentColor"/>
<path d="M17.1295 14.8682C17.526 14.8682 17.8474 14.5468 17.8474 14.1503C17.8474 13.7538 17.526 13.4324 17.1295 13.4324C16.733 13.4324 16.4116 13.7538 16.4116 14.1503C16.4116 14.5468 16.733 14.8682 17.1295 14.8682Z" fill="currentColor"/>
</svg>
