<svg width="24" height="24" viewBox="0 0 24 24" fill="none" xmlns="http://www.w3.org/2000/svg">
<path d="M22.8453 9.45468C22.8453 9.45468 20.7608 7.21964 20.7492 7.21385C20.7087 7.17332 20.6623 7.13279 20.6102 7.10384L12.2723 2.63955C12.0985 2.54691 11.8959 2.54691 11.7222 2.63955L3.39 7.10384C3.33789 7.13279 3.29157 7.16753 3.23946 7.21964L1.15497 9.45468C1.03337 9.58786 0.975468 9.76736 1.00442 9.94686C1.03337 10.1264 1.14339 10.2769 1.29972 10.3638L3.07733 11.3191V16.5535C3.07733 16.7678 3.19314 16.9646 3.38421 17.0631L11.7222 21.5274C11.8264 21.5795 11.9422 21.6026 12.058 21.5911C12.1275 21.5853 12.2028 21.5621 12.2665 21.5274L20.6044 17.0631C20.7897 16.9646 20.9113 16.7678 20.9113 16.5535V11.3191L22.6889 10.3638C22.8453 10.2769 22.9553 10.1264 22.9842 9.94686C23.0248 9.76736 22.9669 9.58786 22.8453 9.45468ZM12.0001 3.80918L19.1105 7.61917L12.0001 11.4292L4.88968 7.61917L12.0001 3.80918ZM3.78374 8.33716L11.0621 12.2398L9.79403 13.5947L2.51568 9.69787L3.78374 8.33716ZM4.24117 11.9329L9.64348 14.828C9.73034 14.8744 9.82298 14.8975 9.91562 14.8975C10.072 14.8975 10.2283 14.8338 10.3383 14.7122L11.4211 13.5542V20.0509L4.24117 16.2061V11.9329ZM19.7591 16.2061L12.5791 20.0509V13.5542L13.6619 14.7122C13.8414 14.9033 14.1251 14.9496 14.3567 14.828L19.7591 11.9329V16.2061ZM14.2062 13.5947L12.9381 12.2398L20.2223 8.33716L21.4903 9.69208L14.2062 13.5947Z" fill="currentColor"/>
</svg>
