<svg width="24" height="24" viewBox="0 0 24 24" fill="none" xmlns="http://www.w3.org/2000/svg">
<path d="M15.468 18.4111H5V21.2406C5 22.2095 5.78467 23.0001 6.75954 23.0001H17.2275V20.1706C17.2275 19.1957 16.4369 18.4111 15.468 18.4111ZM16.0386 21.8053H6.75954C6.44449 21.8053 6.18887 21.5497 6.18887 21.2346V19.594H15.468C15.783 19.594 16.0386 19.8496 16.0386 20.1647V21.8053Z" fill="currentColor"/>
<path d="M7.63935 10.9746C7.6453 10.9805 7.6453 10.9924 7.6453 10.9984H14.5705C14.5764 10.9924 14.5764 10.9805 14.5764 10.9746L15.2006 9.51824C15.3492 9.17941 15.4205 8.81086 15.4205 8.44231C15.4205 6.9384 14.2019 5.71981 12.698 5.71981H11.7231V3.72845H12.6683C12.9952 3.72845 13.2627 3.46096 13.2627 3.13402C13.2627 2.80708 12.9952 2.53958 12.6683 2.53958H11.7231V1.59443C11.7231 1.2675 11.4556 1 11.1287 1C10.8017 1 10.5342 1.2675 10.5342 1.59443V2.53958H9.5891C9.26216 2.53958 8.99466 2.80708 8.99466 3.13402C8.99466 3.46096 9.26216 3.72845 9.5891 3.72845H10.5342V5.71981H9.49398C7.99007 5.71981 6.77148 6.9384 6.77148 8.44231C6.77148 8.81086 6.84876 9.17941 6.99142 9.51824L7.63935 10.9746Z" fill="currentColor"/>
<path d="M14.3687 12.5259H7.85963C7.85369 12.5972 7.85369 12.6745 7.8418 12.7459L7.1582 17.109H15.0761L14.3925 12.7459C14.3746 12.6745 14.3746 12.5972 14.3687 12.5259Z" fill="currentColor"/>
</svg>
