<svg width="24" height="25" viewBox="0 0 24 25" fill="none" xmlns="http://www.w3.org/2000/svg">
<path d="M18.0293 15.9167C18.2604 14.2975 18.492 12.6793 18.7266 11.0356H21.5158V11.1353C21.4705 11.3345 21.4251 11.5307 21.3773 11.7409H19.6704C19.6047 12.1996 19.5404 12.6454 19.4712 13.1191H21.2045C21.1651 13.3681 21.1293 13.5952 21.0929 13.8253H19.3721C19.3078 14.2736 19.2451 14.7124 19.1778 15.1841H20.9211C20.8638 15.4515 20.814 15.6821 20.7647 15.9162L18.0293 15.9167Z" fill="#001E78"/>
<path d="M8.66699 15.9167C8.76661 15.2458 8.8712 14.5754 8.96982 13.9045C9.10264 12.9957 9.23346 12.0864 9.3623 11.1766C9.36533 11.1344 9.36533 11.0922 9.3623 11.05H10.4217C10.9277 12.2295 11.4308 13.4009 11.9338 14.5729L11.9876 14.5604C12.0982 13.7869 12.2088 13.0134 12.3258 12.1976C12.5694 12.4302 12.789 12.6643 12.8702 12.9477C12.9315 13.1614 12.8473 13.4199 12.8154 13.6569C12.7253 14.3293 12.6267 15.0017 12.5365 15.6736C12.533 15.7549 12.5377 15.8363 12.5504 15.9167H11.4049C11.3865 15.8221 11.384 15.7205 11.3471 15.6333C10.9895 14.7889 10.6286 13.9458 10.2643 13.1041C10.1582 12.8551 10.0491 12.612 9.91565 12.3072C9.88427 12.4277 9.86286 12.4875 9.85389 12.5487C9.74033 13.3342 9.62428 14.1197 9.51769 14.9061C9.47187 15.2408 9.44647 15.5785 9.4121 15.9147L8.66699 15.9167Z" fill="#001E78"/>
<path d="M15.3399 15.9167C15.177 15.9048 15.0147 15.8859 14.8518 15.8819C14.6127 15.8759 14.3731 15.8819 14.1102 15.8819C14.2182 15.4934 14.4404 15.216 14.6994 14.954C14.9195 15.2822 15.4659 15.2234 15.7777 15.0885C16.3111 14.8574 16.6145 14.429 16.7624 13.8821C16.9452 13.2072 16.7599 12.618 16.2982 12.117C16.0063 11.8007 15.6308 11.6687 15.1681 11.7484L14.925 13.392C14.804 13.3148 14.7118 13.275 14.6446 13.2097C14.2725 12.8476 14.0469 12.4193 14.1047 11.8844C14.1326 11.6139 14.1789 11.345 14.2212 11.0456H14.681C15.0127 11.0456 15.3449 11.0566 15.6771 11.0456C16.4182 11.0162 16.9746 11.3475 17.383 11.9337C18.4633 13.4842 17.628 15.463 15.9266 15.8381C15.7662 15.8734 15.6024 15.8948 15.4405 15.9227L15.3399 15.9167Z" fill="#001E78"/>
<path d="M5.18066 15.9167C5.23047 15.6592 5.29323 15.4037 5.33009 15.1447C5.40778 14.6307 5.47204 14.1142 5.54426 13.6007C5.55467 13.5488 5.56865 13.4977 5.58609 13.4478L6.58223 13.6216L6.36956 15.1761H8.10085C8.05104 15.4425 8.00921 15.6806 7.96637 15.9182L5.18066 15.9167Z" fill="#001E78"/>
<path d="M6.66725 13.0473L5.66016 12.8565L5.90919 11.0635H8.67198C8.64658 11.2821 8.62218 11.4983 8.59429 11.7314H6.86598L6.66725 13.0473Z" fill="#001E78"/>
<path fill-rule="evenodd" clip-rule="evenodd" d="M2 7.65222C2 7.65222 3.07185 8.4835 4.44054 8.9472C5.80924 9.41091 6.27494 9.39248 7.27954 9.39547C8.28415 9.39846 9.77338 9.34915 11.0151 9.69431C12.2568 10.0395 12.9575 10.4469 13.5054 11.3877C14.0533 12.3286 14.0259 12.4392 14.0533 12.5333C14.0807 12.6274 14.0384 12.7589 14.1031 13.0812C14.1031 13.0812 13.2564 13.257 13.1568 13.3302C13.1568 13.3302 12.9575 12.1528 12.061 11.2383C11.1645 10.3239 9.33458 10.0958 8.12626 10.0928C6.91794 10.0898 6.57677 10.1207 5.73553 9.99315C4.89428 9.86564 3.23123 9.12103 2 7.65222Z" fill="#FFBE00"/>
<path fill-rule="evenodd" clip-rule="evenodd" d="M12.7588 15.84C12.7588 15.3768 12.8255 14.9933 13.0576 14.6446C13.2897 14.296 13.7549 13.6983 14.7013 13.6485C14.7013 13.6485 13.9791 13.3083 14.1534 12.6025C14.1534 12.6025 14.502 13.5703 15.797 13.5987C15.797 13.5987 14.756 13.7481 14.3526 14.1964C13.9492 14.6446 13.6688 14.9739 13.5557 15.2921C13.4426 15.6104 13.3888 16.482 13.6055 16.8859C13.8222 17.2899 14.0657 17.5529 14.8009 17.7327C14.5655 17.7551 14.3281 17.7267 14.1046 17.6494C13.8812 17.572 13.677 17.4476 13.5059 17.2844C12.9127 16.7256 12.7588 16.3032 12.7588 15.84Z" fill="#FFBE00"/>
<path fill-rule="evenodd" clip-rule="evenodd" d="M14.3757 13.5747C14.3757 13.5747 13.0967 13.6121 12.2839 15.1685C12.2839 15.1685 12.0846 13.3601 14.0769 13.2261C14.1624 13.3537 14.2627 13.4707 14.3757 13.5747Z" fill="#FFBE00"/>
<path fill-rule="evenodd" clip-rule="evenodd" d="M4.24121 11.719C4.24121 11.719 5.00525 12.6564 5.83503 12.9144C6.66482 13.1724 7.09963 12.9497 7.62809 13.1634C8.15654 13.3771 8.31343 13.6391 8.37519 13.8109C8.37519 13.8109 7.85272 13.4657 7.0304 13.512C6.20809 13.5584 5.38677 13.4338 4.93851 12.9144C4.49025 12.3949 4.35676 12.1907 4.24121 11.719Z" fill="#FFBE00"/>
<path d="M15.1377 17.8412L15.4091 16.5463H15.7578C15.8574 16.5463 15.9172 16.5463 15.9441 16.5508C15.9933 16.5548 16.0418 16.5657 16.088 16.5831C16.1301 16.5995 16.1691 16.6231 16.2031 16.6529C16.2383 16.6835 16.2684 16.7197 16.2922 16.7599C16.3185 16.8052 16.3379 16.854 16.35 16.9049C16.3643 16.9634 16.3711 17.0235 16.3704 17.0837C16.373 17.2122 16.3457 17.3396 16.2907 17.4557C16.2442 17.5554 16.1762 17.6435 16.0915 17.7137C16.0203 17.7672 15.9384 17.8046 15.8514 17.8233C15.7672 17.8387 15.6815 17.8452 15.5959 17.8427L15.1377 17.8412ZM15.4485 17.6326H15.5835C15.6548 17.6353 15.7263 17.6291 15.7961 17.6141C15.8412 17.6015 15.8826 17.5785 15.9172 17.5469C15.9739 17.4928 16.019 17.4278 16.0497 17.3556C16.0874 17.2667 16.1057 17.1708 16.1034 17.0742C16.108 17.0024 16.0926 16.9307 16.0591 16.867C16.0338 16.8245 15.9948 16.7918 15.9485 16.7744C15.8951 16.7613 15.8401 16.7559 15.7852 16.7584H15.6303L15.4485 17.6326Z" fill="#001E78"/>
<path d="M16.4414 17.8412L16.7124 16.5463H17.6736L17.6283 16.7629H16.9345L16.8722 17.0573H17.5436L17.4983 17.2739H16.8274L16.7457 17.6261H17.5003L17.4545 17.8427L16.4414 17.8412Z" fill="#001E78"/>
<path d="M17.6475 17.8412L17.9194 16.5462H18.3602C18.4267 16.5448 18.4933 16.5478 18.5594 16.5552C18.6164 16.5616 18.6715 16.5796 18.7213 16.608C18.7639 16.6332 18.7984 16.67 18.8209 16.7141C18.8443 16.7595 18.8563 16.8099 18.8558 16.861C18.8573 16.9283 18.8361 16.9941 18.7955 17.0478C18.7474 17.106 18.6825 17.1479 18.6097 17.1678C18.6711 17.1832 18.7259 17.2182 18.7656 17.2674C18.8023 17.3122 18.8222 17.3684 18.8219 17.4263C18.8217 17.505 18.7987 17.582 18.7557 17.648C18.7123 17.7162 18.648 17.7687 18.5724 17.7974C18.4696 17.8317 18.3614 17.8472 18.2531 17.8432L17.6475 17.8412ZM17.9583 17.6325H18.2153C18.2883 17.6365 18.3615 17.6295 18.4324 17.6116C18.4683 17.5983 18.4993 17.5743 18.5211 17.5429C18.5421 17.5138 18.5535 17.479 18.554 17.4432C18.5541 17.4229 18.5497 17.4028 18.5411 17.3843C18.5325 17.3659 18.5198 17.3496 18.5041 17.3367C18.4576 17.3045 18.4011 17.2897 18.3448 17.2948H18.0265L17.9583 17.6325ZM18.0758 17.0682H18.279C18.346 17.0712 18.4131 17.0647 18.4782 17.0488C18.5128 17.039 18.5432 17.0182 18.5649 16.9897C18.5866 16.9611 18.5985 16.9263 18.5988 16.8904C18.6 16.8607 18.5898 16.8317 18.5704 16.8092C18.5489 16.7865 18.5205 16.7715 18.4897 16.7664C18.443 16.7618 18.3961 16.7601 18.3492 16.7614H18.142L18.0758 17.0682Z" fill="#001E78"/>
<path d="M18.958 17.8412L19.2285 16.5463H20.1897L20.1449 16.7629H19.4506L19.3888 17.0573H20.0597L20.0149 17.2739H19.3435L19.2623 17.6261H20.0164L19.9706 17.8427L18.958 17.8412Z" fill="#001E78"/>
<path d="M21.2023 17.8412H20.9533L20.6047 16.9701L20.4229 17.8412H20.1738L20.4443 16.5463H20.6933L21.0445 17.4139L21.2258 16.5463H21.4748L21.2023 17.8412Z" fill="#001E78"/>
<path d="M21.4629 17.8412L21.7343 16.5463H22.0003L21.7299 17.8412H21.4629Z" fill="#001E78"/>
</svg>
