<svg width="24" height="25" viewBox="0 0 24 25" fill="none" xmlns="http://www.w3.org/2000/svg">
<path d="M16.3564 15.5764C16.5634 14.1265 16.7709 12.6766 16.981 11.2043H19.4794V11.2936C19.4388 11.472 19.3982 11.6474 19.3553 11.8356H17.826C17.7671 12.2465 17.7096 12.6458 17.6475 13.0705H19.2001C19.1648 13.2936 19.1327 13.497 19.1001 13.7031H17.5588C17.5012 14.1046 17.445 14.4972 17.3848 14.9202H18.9462C18.8949 15.1597 18.8503 15.3663 18.8061 15.5755L16.3564 15.5764Z" fill="#001E78"/>
<path d="M7.96973 15.5764C8.05895 14.9759 8.15309 14.3754 8.24098 13.7741C8.35994 12.96 8.47728 12.1455 8.59297 11.3306C8.59545 11.2929 8.59545 11.255 8.59297 11.2173H9.54189C9.99516 12.2737 10.4466 13.3255 10.8963 14.3728L10.9445 14.3621C11.0436 13.6692 11.1426 12.9764 11.2474 12.2456C11.4656 12.454 11.6628 12.6636 11.7351 12.9175C11.7899 13.1089 11.7145 13.3404 11.686 13.5528C11.6052 14.1551 11.5169 14.7573 11.4362 15.3587C11.433 15.4315 11.4372 15.5045 11.4487 15.5764H10.4226C10.406 15.4917 10.4038 15.4006 10.3712 15.323C10.0509 14.5664 9.72748 13.8112 9.40091 13.0576C9.30589 12.8345 9.20819 12.6163 9.08862 12.3438C9.06052 12.4517 9.04133 12.5053 9.0333 12.5601C8.93159 13.2637 8.82764 13.9672 8.73217 14.6712C8.69112 14.9715 8.66837 15.2735 8.63759 15.5746L7.96973 15.5764Z" fill="#001E78"/>
<path d="M13.9469 15.5765C13.8015 15.5658 13.6556 15.5493 13.5097 15.5457C13.2956 15.5403 13.081 15.5457 12.8454 15.5457C12.9422 15.1977 13.1412 14.9492 13.3732 14.7141C13.5704 15.0086 14.0598 14.9555 14.3395 14.8346C14.8169 14.628 15.0885 14.2439 15.221 13.7545C15.3848 13.15 15.2211 12.6218 14.8053 12.1734C14.5438 11.8901 14.2074 11.7719 13.793 11.8433L13.5753 13.3155C13.4669 13.2463 13.3843 13.2111 13.3241 13.1522C12.9908 12.8283 12.791 12.4446 12.8405 11.9651C12.8655 11.7228 12.907 11.4823 12.9449 11.2138H13.3567C13.6538 11.2138 13.9514 11.2236 14.2489 11.2138C14.9128 11.1875 15.4089 11.4841 15.7769 12.0088C16.7446 13.3976 15.9964 15.1705 14.4724 15.5064C14.3288 15.5377 14.182 15.5568 14.037 15.5818L13.9469 15.5765Z" fill="#001E78"/>
<path d="M4.84766 15.5764C4.89227 15.3462 4.94848 15.1173 4.98373 14.8853C5.05332 14.4245 5.11087 13.9623 5.17556 13.5023C5.18483 13.4558 5.19736 13.4101 5.21304 13.3654L6.1053 13.5206L5.9148 14.913H7.46555C7.42094 15.1521 7.38346 15.3649 7.34509 15.5777L4.84766 15.5764Z" fill="#001E78"/>
<path d="M6.17861 13.0054L5.27832 12.8349L5.50139 11.2289H7.97607C7.95331 11.4247 7.93146 11.6184 7.90647 11.8267H6.3584L6.17861 13.0054Z" fill="#001E78"/>
<path fill-rule="evenodd" clip-rule="evenodd" d="M1.99902 8.17334C1.99902 8.17334 2.95865 8.91793 4.18506 9.33328C5.41147 9.74862 5.82771 9.73212 6.728 9.73479C7.62829 9.73747 8.96133 9.69286 10.074 10.0025C11.1866 10.3121 11.8139 10.6766 12.3046 11.5193C12.7954 12.3621 12.7704 12.4611 12.7954 12.5454C12.8203 12.6297 12.7815 12.7471 12.84 13.0362C12.84 13.0362 12.0816 13.1932 11.9923 13.2592C11.9923 13.2592 11.8139 12.2041 11.0108 11.3855C10.2078 10.5668 8.56828 10.3616 7.48642 10.3594C6.40456 10.3571 6.09806 10.3839 5.345 10.2701C4.59193 10.1564 3.10141 9.48942 1.99902 8.17334Z" fill="#FFBE00"/>
<path fill-rule="evenodd" clip-rule="evenodd" d="M11.6357 15.5068C11.6357 15.0923 11.6955 14.7484 11.9034 14.4361C12.1113 14.1238 12.528 13.5884 13.3756 13.5438C13.3756 13.5438 12.7288 13.2391 12.8849 12.6069C12.8849 12.6069 13.1972 13.4742 14.3571 13.4992C14.3571 13.4992 13.4247 13.633 13.0634 14.0345C12.702 14.4361 12.4508 14.7314 12.3495 15.016C12.2483 15.3007 12.2001 16.0818 12.3942 16.4437C12.5882 16.8055 12.8064 17.041 13.4649 17.2021C13.254 17.2223 13.0413 17.1969 12.8412 17.1276C12.641 17.0583 12.4581 16.9468 12.3049 16.8006C11.7736 16.3 11.6357 15.9217 11.6357 15.5068Z" fill="#FFBE00"/>
<path fill-rule="evenodd" clip-rule="evenodd" d="M13.0848 13.4796C13.0848 13.4796 11.9391 13.5131 11.211 14.9073C11.211 14.9073 11.0326 13.2869 12.8171 13.1674C12.8936 13.2817 12.9835 13.3865 13.0848 13.4796Z" fill="#FFBE00"/>
<path fill-rule="evenodd" clip-rule="evenodd" d="M4.00684 11.8156C4.00684 11.8156 4.69075 12.6552 5.43445 12.8863C6.17815 13.1174 6.56673 12.9184 7.04052 13.1093C7.51431 13.3003 7.65395 13.5358 7.70971 13.6893C7.70971 13.6893 7.24128 13.3806 6.50516 13.4216C5.76905 13.4627 5.03293 13.3516 4.63142 12.8863C4.2299 12.4209 4.10989 12.238 4.00684 11.8156Z" fill="#FFBE00"/>
<path d="M13.7666 17.2993L14.0097 16.1394H14.322C14.4113 16.1394 14.4648 16.1394 14.4889 16.1434C14.533 16.1474 14.5764 16.1573 14.6178 16.1729C14.6555 16.1874 14.6904 16.2084 14.7209 16.2349C14.7525 16.2625 14.7794 16.2951 14.8007 16.3312C14.8242 16.3717 14.8418 16.4152 14.8529 16.4606C14.8653 16.5132 14.8713 16.5672 14.8708 16.6212C14.873 16.7362 14.8486 16.8501 14.7994 16.954C14.7578 17.0434 14.6969 17.1223 14.6209 17.1851C14.5575 17.2333 14.4842 17.2668 14.4064 17.2833C14.3307 17.2971 14.2539 17.3029 14.177 17.3007L13.7666 17.2993ZM14.045 17.1124H14.1659C14.2298 17.1147 14.2938 17.1093 14.3564 17.0964C14.3968 17.0849 14.4339 17.0641 14.4648 17.0357C14.5155 16.9874 14.5559 16.9292 14.5835 16.8648C14.6172 16.7852 14.6336 16.6992 14.6316 16.6127C14.6358 16.5484 14.6221 16.4842 14.5919 16.4272C14.5694 16.3892 14.5346 16.36 14.4933 16.3442C14.4454 16.3325 14.3959 16.3276 14.3466 16.3299H14.2078L14.045 17.1124Z" fill="#001E78"/>
<path d="M14.9346 17.2993L15.1768 16.1394H16.0379L15.9973 16.3335H15.3758L15.32 16.5976H15.9214L15.8808 16.7916H15.2799L15.2067 17.1066H15.8826L15.8416 17.3007L14.9346 17.2993Z" fill="#001E78"/>
<path d="M16.0918 16.8438C16.0925 16.7705 16.1028 16.6976 16.1226 16.627C16.1463 16.5315 16.1881 16.4414 16.2457 16.3616C16.3006 16.2868 16.3721 16.2257 16.4545 16.1831C16.5435 16.1386 16.6419 16.1162 16.7414 16.118C16.8054 16.1153 16.8694 16.1257 16.9293 16.1487C16.9891 16.1718 17.0436 16.2069 17.0893 16.2518C17.1347 16.2991 17.17 16.3551 17.193 16.4165C17.216 16.4778 17.2263 16.5433 17.2232 16.6087C17.2231 16.7328 17.1936 16.8551 17.1371 16.9656C17.0851 17.074 17.0038 17.1656 16.9024 17.2302C16.8018 17.2923 16.6856 17.3244 16.5674 17.3225C16.4713 17.3259 16.3765 17.3002 16.2952 17.2489C16.226 17.2052 16.1716 17.1416 16.1391 17.0664C16.1082 16.9963 16.0921 16.9205 16.0918 16.8438ZM16.3278 16.8394C16.3256 16.913 16.3516 16.9847 16.4005 17.0397C16.4246 17.0664 16.4543 17.0874 16.4874 17.1014C16.5206 17.1154 16.5564 17.1219 16.5924 17.1204C16.6594 17.1194 16.7244 17.0971 16.7779 17.0566C16.8434 17.0065 16.8944 16.9398 16.9256 16.8635C16.9627 16.7844 16.9825 16.6983 16.9836 16.6109C16.9881 16.5324 16.9616 16.4553 16.91 16.3959C16.886 16.3703 16.8569 16.3502 16.8245 16.3367C16.7921 16.3232 16.7572 16.3168 16.7222 16.3178C16.6646 16.3179 16.6081 16.333 16.5581 16.3616C16.5082 16.3903 16.4666 16.4315 16.4375 16.4811C16.3654 16.5866 16.3271 16.7116 16.3278 16.8394Z" fill="#001E78"/>
<path d="M17.5223 17.2994H17.2832L17.5263 16.1395H18.0421C18.1123 16.1369 18.1824 16.1462 18.2495 16.1671C18.2996 16.1858 18.3418 16.2211 18.3691 16.2671C18.4007 16.3211 18.4162 16.383 18.4137 16.4455C18.4167 16.5355 18.3847 16.6231 18.3245 16.69C18.2522 16.7602 18.1573 16.8024 18.0568 16.8091C18.0907 16.8409 18.1199 16.8774 18.1433 16.9175C18.212 17.0414 18.2716 17.1701 18.3218 17.3025H18.0653C18.0447 17.2374 18.0043 17.1352 17.9439 16.996C17.9229 16.9374 17.8869 16.8852 17.8395 16.8448C17.8026 16.8265 17.7614 16.8187 17.7204 16.822H17.6254L17.5223 17.2994ZM17.6597 16.6445H17.7864C17.8722 16.6492 17.9581 16.6414 18.0416 16.6213C18.081 16.6079 18.1154 16.5829 18.1402 16.5495C18.163 16.5199 18.1755 16.4837 18.1759 16.4464C18.1769 16.4274 18.1726 16.4085 18.1636 16.3917C18.1545 16.3749 18.141 16.361 18.1246 16.3514C18.081 16.3347 18.0342 16.3281 17.9876 16.3322H17.7244L17.6597 16.6445Z" fill="#001E78"/>
<path d="M18.6936 16.1381H18.9319L18.798 16.7689L18.7659 16.9241C18.7638 16.9364 18.7628 16.9488 18.7628 16.9612C18.7622 16.9826 18.7664 17.004 18.7751 17.0236C18.7837 17.0433 18.7966 17.0608 18.8128 17.0749C18.8544 17.1073 18.9065 17.1232 18.9591 17.1195C19.0086 17.1215 19.0577 17.1103 19.1014 17.087C19.1406 17.0651 19.1718 17.0314 19.1906 16.9906C19.2193 16.9205 19.2403 16.8475 19.2531 16.7729L19.3869 16.1381H19.6256L19.4918 16.7734C19.4729 16.8794 19.4405 16.9825 19.3954 17.0803C19.3574 17.1522 19.3001 17.212 19.2299 17.2529C19.1441 17.3001 19.0471 17.323 18.9493 17.3194C18.8154 17.3194 18.7106 17.286 18.637 17.2199C18.6017 17.1876 18.5739 17.148 18.5553 17.1039C18.5367 17.0597 18.5279 17.0121 18.5295 16.9643C18.5296 16.9407 18.5314 16.9172 18.5348 16.8938C18.5348 16.8769 18.546 16.8291 18.5625 16.7497L18.6936 16.1381Z" fill="#001E78"/>
<path d="M19.8655 17.2994H19.626L19.8691 16.1395H20.3848C20.4551 16.1369 20.5252 16.1462 20.5923 16.1671C20.6424 16.1858 20.6846 16.2211 20.7119 16.2671C20.7435 16.3211 20.759 16.383 20.7565 16.4455C20.7597 16.5355 20.7276 16.6232 20.6672 16.69C20.595 16.7602 20.5001 16.8024 20.3996 16.8091C20.4335 16.8409 20.4627 16.8774 20.4861 16.9175C20.5547 17.0414 20.6144 17.1701 20.6646 17.3025H20.408C20.3875 17.2374 20.3471 17.1352 20.2867 16.996C20.2657 16.9374 20.2297 16.8852 20.1823 16.8448C20.1455 16.8266 20.1045 16.8187 20.0636 16.822H19.9659L19.8655 17.2994ZM20.0025 16.6445H20.1292C20.2151 16.6491 20.3012 16.6413 20.3848 16.6213C20.4242 16.6078 20.4586 16.5828 20.4834 16.5495C20.506 16.5198 20.5185 16.4837 20.5191 16.4464C20.5201 16.4273 20.5157 16.4084 20.5066 16.3916C20.4975 16.3749 20.4839 16.3609 20.4674 16.3514C20.4238 16.3347 20.3769 16.3281 20.3304 16.3322H20.0672L20.0025 16.6445Z" fill="#001E78"/>
<path d="M20.8682 16.8438C20.8688 16.7705 20.8792 16.6976 20.8989 16.627C20.9227 16.5315 20.9645 16.4414 21.0221 16.3616C21.0769 16.2867 21.1484 16.2256 21.2309 16.1831C21.3197 16.1386 21.418 16.1163 21.5173 16.118C21.5814 16.1152 21.6455 16.1257 21.7054 16.1487C21.7653 16.1718 21.8199 16.2068 21.8657 16.2518C21.9111 16.2991 21.9464 16.3551 21.9694 16.4165C21.9924 16.4779 22.0027 16.5433 21.9996 16.6087C21.9995 16.7328 21.97 16.8551 21.9134 16.9656C21.8613 17.0739 21.7801 17.1655 21.6788 17.2302C21.5782 17.2923 21.4619 17.3243 21.3437 17.3225C21.2476 17.3259 21.1526 17.3002 21.0712 17.2489C21.0022 17.2049 20.9478 17.1414 20.915 17.0665C20.8845 16.9962 20.8686 16.9204 20.8682 16.8438ZM21.1042 16.8394C21.1019 16.913 21.1279 16.9847 21.1769 17.0397C21.201 17.0664 21.2307 17.0875 21.2638 17.1014C21.297 17.1154 21.3328 17.1219 21.3687 17.1204C21.4358 17.1194 21.5008 17.0971 21.5543 17.0566C21.6196 17.0064 21.6704 16.9398 21.7015 16.8635C21.7388 16.7844 21.7587 16.6983 21.76 16.611C21.7644 16.5324 21.738 16.4553 21.6864 16.3959C21.6623 16.3704 21.6332 16.3502 21.6008 16.3368C21.5684 16.3233 21.5336 16.3169 21.4985 16.3178C21.441 16.3178 21.3844 16.3329 21.3345 16.3616C21.2845 16.3902 21.243 16.4314 21.2139 16.4811C21.1419 16.5867 21.1038 16.7116 21.1046 16.8394H21.1042Z" fill="#001E78"/>
</svg>
