<svg width="24" height="25" viewBox="0 0 24 25" fill="none" xmlns="http://www.w3.org/2000/svg">
<path d="M22.1624 5.34424C21.5942 5.43567 20.8367 5.93852 19.9746 6.57199C19.1126 7.20546 17.0097 9.04056 16.1673 9.20382C15.5861 9.31484 15.3967 9.18423 15.2661 9.05362C15.155 8.9426 15.0897 8.83158 14.8612 8.86423C14.8612 8.86423 13.9012 8.94913 13.653 11.2479C13.3395 14.1932 14.3322 13.945 14.3322 13.945C14.3322 13.945 14.5934 13.9712 15.0832 12.9001C15.4163 12.1687 16.5069 10.5622 19.1387 9.99403C21.764 9.42586 23.7493 8.01525 23.475 6.30424C23.3444 5.54669 22.9069 5.31812 22.4367 5.31812C22.3452 5.31812 22.2538 5.32465 22.1624 5.34424Z" fill="url(#paint0_linear_1_2748)"/>
<path d="M22.1624 5.34424C21.5942 5.43567 20.8367 5.93852 19.9746 6.57199C19.7852 6.70913 19.5436 6.90505 19.2628 7.12709C18.0938 8.21117 16.7877 9.77852 15.5469 10.0724C14.2865 10.3663 14.6783 9.07321 14.7306 8.90341C14.4628 9.01444 13.8424 9.47158 13.653 11.2479C13.3395 14.1932 14.3322 13.945 14.3322 13.945C14.3322 13.945 14.5934 13.9712 15.0767 12.9001C15.0701 12.9001 15.0571 12.9067 15.044 12.9067C15.044 12.9067 15.8799 10.9932 17.5518 10.1965C19.2301 9.39974 20.9216 9.16464 22.3518 7.68219C23.782 6.19975 23.2399 5.46179 22.6652 5.34424C22.6718 5.34424 22.6718 5.34424 22.6783 5.34424C22.5999 5.32465 22.5216 5.31812 22.4367 5.31812C22.3452 5.31812 22.2538 5.32465 22.1624 5.34424Z" fill="url(#paint1_linear_1_2748)"/>
<path d="M20.4962 20.6324C19.5754 20.6324 19.1836 19.999 19.1836 19.3785V14.6373H20.3069V19.3132C20.3069 19.5745 20.4179 19.7116 20.7052 19.7116H21.1362V20.639H20.4962V20.6324Z" fill="#05A2E9"/>
<path d="M15.1881 18.523C15.1881 19.1565 15.593 19.6267 16.3049 19.6267C16.8665 19.6267 17.1408 19.4765 17.4608 19.163L18.2379 19.8944C17.7155 20.3973 17.2192 20.6716 16.2918 20.6716C15.0837 20.6716 13.9277 20.1426 13.9277 18.1377C13.9277 16.5246 14.829 15.6104 16.1547 15.6104C17.5783 15.6104 18.3816 16.6161 18.3816 17.9744V18.523H15.1881ZM17.0167 17.1516C16.8796 16.8577 16.5922 16.6422 16.1612 16.6422C15.7302 16.6422 15.4428 16.8577 15.3057 17.1516C15.2273 17.3344 15.1947 17.465 15.1881 17.6806H17.1343C17.1212 17.465 17.0951 17.3279 17.0167 17.1516Z" fill="#05A2E9"/>
<path d="M10.042 20.6324H8.8012V17.6414C8.8012 17.3344 8.70977 17.0993 8.53344 16.9361C8.38977 16.8055 8.20691 16.7336 7.98487 16.7336C7.7563 16.7336 7.57345 16.7989 7.42977 16.9361C7.25345 17.0928 7.16202 17.3279 7.16202 17.6414V20.6324H5.92773V15.6887H7.1359V16.1459C7.45589 15.8063 7.86732 15.6365 8.37018 15.6365C8.85997 15.6365 9.24528 15.7801 9.53916 16.074C9.87222 16.4071 10.042 16.8773 10.042 17.4781V20.6324Z" fill="#05A2E9"/>
<path d="M4.95387 18.5231H1.75388C1.75388 18.8496 1.85183 19.1173 2.05428 19.3198C2.25673 19.5222 2.52449 19.6267 2.87061 19.6267C3.32122 19.6267 3.70653 19.47 4.02652 19.1631L4.80367 19.8945C4.52285 20.1688 4.24856 20.3582 3.98081 20.4757C3.67387 20.6063 3.30163 20.6782 2.86408 20.6782C1.2902 20.6716 0.5 19.8292 0.5 18.1378C0.5 17.3476 0.708979 16.7206 1.12041 16.27C1.51877 15.8325 2.05428 15.6169 2.72693 15.6169C3.41918 15.6169 3.96775 15.839 4.37265 16.2896C4.75795 16.7206 4.95387 17.2822 4.95387 17.981V18.5231ZM3.69999 17.6806C3.69346 17.4782 3.65428 17.3018 3.58244 17.1516C3.42571 16.812 3.13836 16.6357 2.72693 16.6357C2.31551 16.6357 2.02816 16.8055 1.87143 17.1516C1.79959 17.3018 1.76041 17.4782 1.75388 17.6806H3.69999Z" fill="#05A2E9"/>
<path d="M13.2607 16.7271V15.7213H12.5619V14.6438H11.1448V15.7279L10.2305 15.7148V16.714L11.1448 16.7336V19.1107C11.1448 19.8095 11.5627 20.6128 12.588 20.6128H13.2607V19.6201H12.7709C12.5815 19.6201 12.4509 19.5026 12.4509 19.3001V16.7271H13.2607Z" fill="#05A2E9"/>
<defs>
<linearGradient id="paint0_linear_1_2748" x1="13.5902" y1="9.63021" x2="23.4919" y2="9.63021" gradientUnits="userSpaceOnUse">
<stop stop-color="#0579C1"/>
<stop offset="1" stop-color="#05AEEC"/>
</linearGradient>
<linearGradient id="paint1_linear_1_2748" x1="13.5902" y1="9.63021" x2="23.2654" y2="9.63021" gradientUnits="userSpaceOnUse">
<stop stop-color="#CACACB"/>
<stop offset="0.9874" stop-color="#F8F8F8"/>
<stop offset="1" stop-color="#F8F8F8"/>
</linearGradient>
</defs>
</svg>
