<svg width="22" height="23" viewBox="0 0 22 23" fill="none" xmlns="http://www.w3.org/2000/svg">
<path d="M21.0227 21.1067H9.42763L12.8042 17.7301L21.2254 9.30885C21.4513 9.08297 21.4513 8.71809 21.2254 8.49221L13.1633 0.43008C12.9432 0.209993 12.561 0.209993 12.3467 0.43008L1.75934 11.0116C1.09908 11.6719 0.73999 12.5464 0.73999 13.4731C0.73999 14.4056 1.10487 15.2802 1.75934 15.9346L6.93138 21.1067H4.77685C4.4583 21.1067 4.19767 21.3673 4.19767 21.6858C4.19767 22.0044 4.4583 22.265 4.77685 22.265H21.0169C21.3355 22.265 21.5961 22.0044 21.5961 21.6858C21.5961 21.3673 21.3413 21.1067 21.0227 21.1067ZM12.7521 1.65214L19.9976 8.89763L12.3988 16.4964L5.15331 9.25093L12.7521 1.65214ZM1.89834 13.4731C1.89834 12.8534 2.14159 12.2684 2.58177 11.8283L4.33667 10.0734L11.5822 17.3189L8.1824 20.7186L2.58177 15.118C2.14159 14.6778 1.89834 14.0928 1.89834 13.4731Z" fill="currentColor"/>
</svg>
