<svg width="24" height="24" viewBox="0 0 24 24" fill="none" xmlns="http://www.w3.org/2000/svg">
<path d="M20.4398 12.8581C20.1229 12.8581 19.8636 13.1174 19.8636 13.4343V21.7488H7.30827C6.05793 21.7488 5.03806 20.7289 5.03806 19.4786V9.56226H5.81016C7.07203 9.56226 8.10343 8.53663 8.10343 7.269V3.90978C8.10343 3.59288 7.84414 3.33359 7.52723 3.33359H7.0605V1.5762C7.0605 1.25929 6.80122 1 6.48431 1C6.1674 1 5.90811 1.25929 5.90811 1.5762V3.33359H3.02138V1.5762C3.02138 1.25929 2.76209 1 2.44518 1C2.12828 1 1.86899 1.25929 1.86899 1.5762V3.33359H1.39651C1.0796 3.33359 0.820312 3.59288 0.820312 3.90978V7.269C0.820312 8.53087 1.84594 9.56226 3.11357 9.56226H3.88567V19.4786C3.88567 21.3627 5.41835 22.9012 7.30827 22.9012H20.4398C20.7567 22.9012 21.016 22.6419 21.016 22.325V13.4343C21.016 13.1174 20.7567 12.8581 20.4398 12.8581ZM1.97847 7.27477V4.49174H6.95679V7.27477C6.95679 7.90282 6.44398 8.41563 5.81593 8.41563H3.11357C2.48552 8.40987 1.97847 7.90282 1.97847 7.27477Z" fill="currentColor"/>
<path d="M22.75 7.22866C22.6463 7.04428 22.4561 6.92904 22.243 6.92904H19.6616L20.935 4.84321C21.1021 4.5724 21.0157 4.21516 20.7448 4.05382C20.474 3.88673 20.1168 3.97316 19.9555 4.24397L18.152 7.20561C18.0425 7.38423 18.0425 7.60319 18.1404 7.78757C18.2442 7.97195 18.4343 8.08143 18.6417 8.08143H21.2L19.8806 10.1615C19.7077 10.4323 19.7884 10.7838 20.0592 10.9566C20.1571 11.02 20.2608 11.0488 20.3703 11.0488C20.5605 11.0488 20.7506 10.9566 20.8601 10.7838L22.7385 7.82214C22.8422 7.63776 22.848 7.41304 22.75 7.22866Z" fill="currentColor"/>
</svg>
