<svg width="24" height="24" viewBox="0 0 24 24" fill="none" xmlns="http://www.w3.org/2000/svg">
<path d="M16.8007 4.40932H15.8567V1.58911C15.8567 1.2706 15.5961 1.01001 15.2776 1.01001C14.9591 1.01001 14.6985 1.2706 14.6985 1.58911V4.40932H9.9673V1.58911C9.9673 1.2706 9.7067 1.01001 9.3882 1.01001C9.06969 1.01001 8.8091 1.2706 8.8091 1.58911V4.40932H7.85937C7.54087 4.40932 7.28027 4.66992 7.28027 4.98842V9.46487C7.28027 11.3933 8.84963 12.9568 10.7722 12.9568H11.7509V22.4309C11.7509 22.7494 12.0115 23.01 12.33 23.01C12.6485 23.01 12.9091 22.7494 12.9091 22.4309V12.9568H13.882C15.8104 12.9568 17.374 11.3875 17.374 9.46487V4.98842C17.3798 4.66992 17.1192 4.40932 16.8007 4.40932ZM16.2216 9.46487C16.2216 10.7505 15.1734 11.7986 13.8878 11.7986H10.7838C9.49823 11.7986 8.45006 10.7505 8.45006 9.46487V5.56752H16.2274V9.46487H16.2216Z" fill="currentColor"/>
</svg>
