<svg width="20" height="20" viewBox="0 0 20 20" fill="none" xmlns="http://www.w3.org/2000/svg">
<path d="M17.8756 0.5H12.383H11.2763H5.42854C4.67698 0.5 4.06441 1.13852 4.06441 1.92728V5.0072H1.19717C0.677255 5.00184 0.25 5.44719 0.25 5.98913V13.8982C0.25 14.4455 0.677255 14.8855 1.19717 14.8855H4.05927V18.0781C4.05927 18.8615 4.67184 19.5 5.42854 19.5H17.8859C18.6374 19.5 19.25 18.8615 19.25 18.0781V14.9338V13.8606V10.5393V9.46611V6.09108V5.01793V1.92728C19.25 1.13852 18.6323 0.5 17.8756 0.5ZM5.09394 1.92728C5.09394 1.72875 5.24323 1.57314 5.42854 1.57314H11.2763V5.01793H9.01131C8.95469 5.0072 8.89806 5.00184 8.83629 5.00184H5.09394V1.92728ZM11.2763 6.09108V9.46611H9.78346V6.09108H11.2763ZM3.92543 12.6212H2.83412L4.36298 9.94366L2.83412 7.26617H3.92543L5.01673 9.3266L6.10803 7.26617H7.19934L5.67048 9.94366L7.19934 12.6212H6.10803L5.01673 10.5607L3.92543 12.6212ZM18.2205 18.0835C18.2205 18.2766 18.0712 18.4322 17.8859 18.4322H5.42854C5.24323 18.4322 5.0888 18.2766 5.0888 18.0835V14.8909H8.83629C9.36135 14.8909 9.78346 14.4509 9.78346 13.9036V10.5446H11.2763V14.9391H11.3535H18.2205V18.0835ZM18.2205 13.8606H12.383V10.5393H18.2205V13.8606ZM18.2205 9.46611H12.383V6.09108H18.2205V9.46611ZM18.2205 5.01793H12.383V1.57314H17.8756C18.066 1.57314 18.2205 1.72875 18.2205 1.92728V5.01793Z" fill="currentColor"/>
</svg>
