<svg width="25" height="24" viewBox="0 0 25 24" fill="none" xmlns="http://www.w3.org/2000/svg">
<path d="M23.2497 7.1582H15.0771V12.237H23.2497V7.1582Z" fill="#21A366"/>
<path d="M23.2497 7.16453V3.01698C23.2505 2.88372 23.225 2.75161 23.1745 2.62826C23.1241 2.50491 23.0498 2.39275 22.9558 2.29824C22.8619 2.20372 22.7502 2.12871 22.6271 2.07753C22.5041 2.02635 22.3721 2 22.2389 2H15.0771V7.16453H23.2497Z" fill="#33C481"/>
<path d="M23.2497 12.2373H15.0771V17.2548H23.2497V12.2373Z" fill="#107C41"/>
<path d="M15.0834 7.1582H6.40234V12.237H15.0834V7.1582Z" fill="#0E703B"/>
<path d="M15.0773 2H7.41321C7.27995 2 7.148 2.02635 7.02496 2.07753C6.90191 2.12871 6.79021 2.20372 6.69626 2.29824C6.60231 2.39275 6.52798 2.50491 6.47754 2.62826C6.4271 2.75161 6.40155 2.88372 6.40236 3.01698V7.16453H15.0773V2Z" fill="#21A366"/>
<path d="M15.0773 17.2607V12.2432H6.40234V21.4695C6.40234 21.7376 6.50884 21.9947 6.69841 22.1843C6.88799 22.3738 7.1451 22.4803 7.4132 22.4803H22.239C22.5071 22.4803 22.7642 22.3738 22.9538 22.1843C23.1434 21.9947 23.2499 21.7376 23.2499 21.4695V17.2607H15.0773Z" fill="#185C37"/>
<path d="M12.0937 6.52734H2.37725C1.75469 6.52734 1.25 7.03203 1.25 7.6546V17.2179C1.25 17.8404 1.75469 18.3451 2.37725 18.3451H12.0937C12.7162 18.3451 13.2209 17.8404 13.2209 17.2179V7.6546C13.2209 7.03203 12.7162 6.52734 12.0937 6.52734Z" fill="#134A2C"/>
<path d="M11.4688 6.52734H2.37725C1.75469 6.52734 1.25 7.03203 1.25 7.6546V16.691C1.25 17.3136 1.75469 17.8182 2.37725 17.8182H11.4688C12.0913 17.8182 12.596 17.3136 12.596 16.691V7.6546C12.596 7.03203 12.0913 6.52734 11.4688 6.52734Z" fill="#16854B"/>
<path d="M9.52036 9.11914H8.22157L6.92278 11.4717L5.62399 9.11914H4.3252L6.14473 12.1762L4.3252 15.2271H5.62399L6.92278 12.8746L8.22157 15.2271H9.52036L7.70082 12.1762L9.52036 9.11914Z" fill="white"/>
</svg>
