<svg width="24" height="24" viewBox="0 0 24 24" fill="none" xmlns="http://www.w3.org/2000/svg">
<path d="M15.1098 9.70166C15.26 9.70166 15.4045 9.64386 15.5202 9.53403L21.7976 3.26814V7.81149C21.7976 8.12941 22.0577 8.38953 22.3756 8.38953C22.6936 8.38953 22.9537 8.12941 22.9537 7.81149C22.9537 7.81149 22.9537 1.87507 22.9537 1.86929C22.9537 1.70166 22.8728 1.53403 22.7398 1.42421C22.6415 1.34328 22.5144 1.29704 22.3756 1.29126H16.4045C16.0866 1.29126 15.8265 1.55138 15.8265 1.86929C15.8265 2.18721 16.0866 2.44733 16.4045 2.44733H20.9768L14.6993 8.71322C14.4739 8.93866 14.4739 9.30282 14.6993 9.53403C14.8092 9.64386 14.9595 9.70166 15.1098 9.70166Z" fill="currentColor"/>
<path d="M8.74566 14.6613L2.15607 21.2393V16.7422C2.15607 16.4243 1.89595 16.1642 1.57803 16.1642C1.26012 16.1642 1 16.4243 1 16.7422V22.6844C1 23.0023 1.26012 23.2624 1.57803 23.2624H7.54913C7.86705 23.2624 8.12717 23.0023 8.12717 22.6844C8.12717 22.3665 7.86705 22.1063 7.54913 22.1063H2.93063L9.56648 15.4821C9.79191 15.2566 9.79191 14.8925 9.56648 14.6613C9.33526 14.4358 8.97109 14.4358 8.74566 14.6613Z" fill="currentColor"/>
<path d="M22.7923 23.0428C22.8964 22.9387 22.9658 22.7942 22.9658 22.6381V16.667C22.9658 16.3491 22.7056 16.089 22.3877 16.089C22.0698 16.089 21.8097 16.3491 21.8097 16.667V21.2393L15.2374 14.6613C15.012 14.4358 14.6478 14.4358 14.4166 14.6613C14.1912 14.8867 14.1912 15.2509 14.4166 15.4821L20.9889 22.0659H16.4455C16.1276 22.0659 15.8675 22.326 15.8675 22.6439C15.8675 22.9618 16.1276 23.222 16.4455 23.222H22.3877C22.5438 23.2162 22.6883 23.1468 22.7923 23.0428Z" fill="currentColor"/>
<path d="M1.58389 8.38962C1.90181 8.38962 2.16193 8.1295 2.16193 7.81158V3.19309L8.49142 9.52835C8.60702 9.64395 8.75153 9.69598 8.90182 9.69598C9.0521 9.69598 9.19662 9.63817 9.31222 9.52835C9.53766 9.30291 9.53766 8.93875 9.31222 8.70754L3.0232 2.41852H7.52609C7.84401 2.41852 8.10412 2.1584 8.10412 1.84049C8.10412 1.52257 7.84401 1.26245 7.52609 1.26245H1.58389C1.26597 1.26245 1.00586 1.52257 1.00586 1.84049V7.81158C1.00586 8.1295 1.26019 8.38962 1.58389 8.38962Z" fill="currentColor"/>
</svg>
