<svg width="22" height="14" viewBox="0 0 22 14" fill="none" xmlns="http://www.w3.org/2000/svg">
<path d="M11.0017 3.306C8.73249 3.306 6.88589 5.1526 6.88589 7.42177C6.88589 9.69095 8.73249 11.5375 11.0017 11.5375C13.2708 11.5375 15.1174 9.69095 15.1174 7.42177C15.1174 5.1526 13.2708 3.306 11.0017 3.306ZM11.0017 10.374C9.36925 10.374 8.04364 9.04841 8.04364 7.41599C8.04364 5.78357 9.36925 4.45796 11.0017 4.45796C12.6341 4.45796 13.9597 5.78357 13.9597 7.41599C13.9597 9.04841 12.6341 10.374 11.0017 10.374Z" fill="currentColor"/>
<path d="M19.0423 4.22063C14.6081 -0.213519 7.39541 -0.213519 2.96704 4.22063L0.176888 7.0108C-0.0488716 7.23656 -0.0488716 7.60124 0.176888 7.827L2.96704 10.6172C5.18412 12.8342 8.09584 13.9399 11.0076 13.9399C13.9193 13.9399 16.831 12.8342 19.0481 10.6172L21.8382 7.827C22.064 7.60124 22.064 7.23656 21.8382 7.0108L19.0423 4.22063ZM18.2203 9.80095C14.2377 13.7836 7.7601 13.7836 3.77747 9.80095L1.39831 7.42179L3.77747 5.04263C7.7601 1.06 14.2377 1.06 18.2203 5.04263L20.5995 7.42179L18.2203 9.80095Z" fill="currentColor"/>
</svg>
