<svg width="22" height="20" viewBox="0 0 22 20" fill="none" xmlns="http://www.w3.org/2000/svg">
<path d="M19.0297 6.7194C18.3353 6.02493 17.5656 5.452 16.7554 4.97166L20.3318 1.39518C20.5575 1.16948 20.5575 0.804888 20.3318 0.579187C20.1061 0.353487 19.7416 0.353487 19.5159 0.579187L15.6789 4.41609C11.4948 2.52368 6.3905 3.28759 2.9587 6.7194L0.169275 9.50882C-0.0564251 9.73452 -0.0564251 10.0991 0.169275 10.3248L2.9587 13.1142C3.65316 13.8087 4.42286 14.3816 5.23307 14.862L1.65658 18.4385C1.43088 18.6642 1.43088 19.0287 1.65658 19.2544C1.77232 19.3702 1.91701 19.4223 2.06747 19.4223C2.21794 19.4223 2.36262 19.3644 2.47836 19.2544L6.31527 15.4175C7.80258 16.0889 9.39985 16.4361 11.0029 16.4361C13.9139 16.4361 16.8248 15.3307 19.0413 13.1142L21.8307 10.3248C22.0564 10.0991 22.0564 9.73452 21.8307 9.50882L19.0297 6.7194ZM3.77469 12.2982L1.39616 9.91971L3.77469 7.54118C6.74931 4.56656 11.1244 3.81423 14.8051 5.28996L13.4567 6.63838C12.768 6.12332 11.9173 5.81081 10.9913 5.81081C8.72274 5.81081 6.87663 7.65692 6.87663 9.9255C6.87663 10.8515 7.18913 11.7022 7.70419 12.3908L6.07221 14.0228C5.25043 13.5656 4.46916 12.9985 3.77469 12.2982ZM13.9486 9.91971C13.9486 11.5517 12.6233 12.877 10.9913 12.877C10.3837 12.877 9.82231 12.6918 9.35354 12.3793L13.4509 8.28194C13.7634 8.7507 13.9486 9.31206 13.9486 9.91971ZM8.03407 9.91971C8.03407 8.28772 9.35933 6.96246 10.9913 6.96246C11.599 6.96246 12.1603 7.14765 12.6291 7.46016L8.53176 11.5575C8.21926 11.0887 8.03407 10.5274 8.03407 9.91971ZM18.2079 12.2982C15.2333 15.2729 10.8582 16.0252 7.17756 14.5495L8.52597 13.201C9.21465 13.7161 10.0654 14.0286 10.9913 14.0286C13.2599 14.0286 15.106 12.1825 15.106 9.91392C15.106 8.98797 14.7935 8.13725 14.2784 7.44858L15.9104 5.81659C16.7322 6.26799 17.5135 6.83514 18.2079 7.53539L20.5865 9.91392L18.2079 12.2982Z" fill="currentColor"/>
</svg>
