<svg width="24" height="25" viewBox="0 0 24 25" fill="none" xmlns="http://www.w3.org/2000/svg">
<path d="M20.62 24.748H3.38C1.51334 24.748 0 23.2347 0 21.368V4.12805C0 2.26138 1.51334 0.748047 3.38 0.748047H20.62C22.4867 0.748047 24 2.26138 24 4.12805V21.368C24 23.2347 22.4867 24.748 20.62 24.748Z" fill="#1677F0"/>
<path d="M15.8324 8.62807H17.3458V5.67474C17.3458 5.67474 15.9724 5.44141 14.6591 5.44141C11.9191 5.44141 10.1258 7.10141 10.1258 10.1081V12.7547H7.0791V16.2214H10.1258V23.3614V24.6081V24.7547H13.8724V24.6081V16.2214H16.6658L17.1991 12.7547H13.8724V10.5014C13.8724 9.54807 14.3391 8.62807 15.8324 8.62807Z" fill="white"/>
</svg>
