<svg width="24" height="24" viewBox="0 0 24 24" fill="none" xmlns="http://www.w3.org/2000/svg">
<path d="M19.505 1.12012H1.56918C1.25076 1.12012 0.990234 1.38064 0.990234 1.69906V19.6349C0.990234 21.557 2.55339 23.1201 4.4755 23.1201H22.4113C22.7297 23.1201 22.9902 22.8596 22.9902 22.5412V4.60538C22.9844 2.68328 21.4213 1.12012 19.505 1.12012ZM21.8265 21.9622H4.46971C3.18445 21.9622 2.14234 20.9201 2.14234 19.6349V2.27801H19.4992C20.7845 2.27801 21.8265 3.32012 21.8265 4.60538V21.9622Z" fill="currentColor"/>
<path d="M19.3371 7.68544C18.8798 7.4307 18.324 7.44806 17.8898 7.72596L15.545 9.19649V8.0849C15.545 7.76648 15.2845 7.50596 14.9661 7.50596H4.54505C4.22663 7.50596 3.9661 7.76648 3.9661 8.0849V13.2665C3.9661 15.1828 5.52347 16.7402 7.43979 16.7402H14.9661C15.2845 16.7402 15.545 16.4796 15.545 16.1612V15.1539L17.9129 16.5723C18.1387 16.7054 18.3935 16.7749 18.6482 16.7749C18.8914 16.7749 19.1345 16.7112 19.3545 16.5896C19.7656 16.3581 20.0145 15.947 20.0145 15.4896V8.79122C20.0087 8.33385 19.7598 7.91702 19.3371 7.68544ZM14.3872 15.5823H7.43979C6.1661 15.5823 5.124 14.546 5.124 13.2665V8.66385H14.3872V15.5823ZM18.8508 15.4896C18.8508 15.536 18.8103 15.5649 18.7814 15.5823C18.7177 15.617 18.6077 15.6402 18.5093 15.5823L15.545 13.8049V10.5628L18.5035 8.70438C18.6019 8.6407 18.7119 8.66386 18.7756 8.69859C18.8103 8.71596 18.8508 8.75069 18.8508 8.79122V15.4896Z" fill="currentColor"/>
</svg>
