<svg width="24" height="25" viewBox="0 0 24 25" fill="none" xmlns="http://www.w3.org/2000/svg">
<path d="M12 24.748C18.6274 24.748 24 19.3755 24 12.748C24 6.12063 18.6274 0.748047 12 0.748047C5.37258 0.748047 0 6.12063 0 12.748C0 19.3755 5.37258 24.748 12 24.748Z" fill="#1677F0"/>
<path d="M16.475 16.2196L17.0101 12.7414H13.6724V10.4805C13.6724 9.53065 14.1406 8.60089 15.6322 8.60089H17.1506V5.63768C17.1506 5.63768 15.7727 5.40356 14.455 5.40356C11.7058 5.40356 9.90647 7.06912 9.90647 10.0858V12.7414H6.84961V16.2196H9.90647V23.3835V24.5541C10.5887 24.6745 11.2844 24.748 12.0001 24.748C12.5687 24.748 13.1239 24.6945 13.6724 24.621V16.2196H16.475Z" fill="white"/>
</svg>
