<svg width="24" height="24" viewBox="0 0 24 24" fill="none" xmlns="http://www.w3.org/2000/svg">
<path d="M15.5889 23.1011H7.47177C7.15334 23.1011 6.89281 22.8405 6.89281 22.5221V17.4504V17.4446C3.33217 15.6324 1.54318 11.6202 2.53321 7.64851C3.11217 5.32107 4.64643 3.32944 6.74228 2.1773C8.86708 1.00779 11.3103 0.781992 13.6204 1.54622C17.1694 2.71573 19.1842 5.28634 19.6185 9.17698C19.6185 9.19435 19.6416 9.25803 19.6937 9.32751C19.9253 9.63436 20.1569 9.93542 20.3885 10.2423C20.7995 10.7749 21.2048 11.3076 21.5927 11.8576C21.8417 12.2108 21.888 12.7087 21.8243 13.0445C21.7548 13.415 21.4827 13.855 20.6027 13.855C20.5969 13.855 20.5911 13.855 20.5853 13.855C20.2669 13.855 19.9485 13.855 19.6185 13.855V14.6714C19.6185 15.3661 19.6185 16.0551 19.6185 16.7498C19.6069 18.3709 18.3679 19.6041 16.7352 19.6273C16.5499 19.6273 16.3589 19.6273 16.1678 19.6273V22.5221C16.1678 22.8405 15.9073 23.1011 15.5889 23.1011ZM8.05073 21.9431H15.0099V19.0425C15.0099 18.7241 15.2704 18.4636 15.5889 18.4636H15.9536C16.2199 18.4636 16.4689 18.4636 16.7178 18.4636C17.7368 18.452 18.4489 17.7399 18.4547 16.7383C18.4605 16.0493 18.4605 15.3603 18.4547 14.6771V13.276C18.4547 12.9576 18.7153 12.6971 19.0337 12.6971H19.5258C19.8906 12.6971 20.2379 12.6971 20.5911 12.6971C20.6258 12.6971 20.6606 12.6971 20.6895 12.6971C20.6837 12.6218 20.6664 12.5523 20.6432 12.5234C20.2611 11.985 19.8616 11.4639 19.4621 10.9428C19.2248 10.636 18.9932 10.3291 18.7616 10.0165C18.6632 9.8891 18.5011 9.62278 18.4605 9.29856C18.0842 5.89425 16.3299 3.65366 13.2498 2.64047C11.2466 1.98045 9.12761 2.17151 7.29229 3.18469C5.45119 4.19788 4.1601 5.88267 3.65061 7.92641C2.78216 11.4002 4.35694 14.8971 7.47177 16.443C8.04495 16.7267 8.04495 17.2362 8.04495 17.4562V21.9431H8.05073Z" fill="currentColor"/>
</svg>
