<svg width="24" height="24" viewBox="0 0 24 24" fill="none" xmlns="http://www.w3.org/2000/svg">
<path d="M6.04263 1H3.06105C1.92632 1 1 1.92632 1 3.06105V6.04842C1 6.36684 1.26053 6.62737 1.57895 6.62737C1.89737 6.62737 2.15789 6.36684 2.15789 6.04842V3.06105C2.15789 2.56316 2.56316 2.15789 3.06105 2.15789H6.04842C6.36684 2.15789 6.62737 1.89737 6.62737 1.57895C6.62737 1.26053 6.36684 1 6.04263 1Z" fill="currentColor"/>
<path d="M20.9391 1H17.9518C17.6333 1 17.3728 1.26053 17.3728 1.57895C17.3728 1.89737 17.6333 2.15789 17.9518 2.15789H20.9391C21.437 2.15789 21.8423 2.56316 21.8423 3.06105V6.04842C21.8423 6.36684 22.1028 6.62737 22.4212 6.62737C22.7396 6.62737 23.0002 6.36684 23.0002 6.04842V3.06105C23.0002 1.92632 22.0739 1 20.9391 1Z" fill="currentColor"/>
<path d="M6.04263 21.8421H3.06105C2.56316 21.8421 2.15789 21.4368 2.15789 20.9389V17.9516C2.15789 17.6331 1.89737 17.3726 1.57895 17.3726C1.26053 17.3726 1 17.6331 1 17.9516V20.9389C1 22.0737 1.92632 23 3.06105 23H6.04842C6.36684 23 6.62737 22.7395 6.62737 22.421C6.62737 22.1026 6.36684 21.8421 6.04263 21.8421Z" fill="currentColor"/>
<path d="M22.4212 17.3784C22.1028 17.3784 21.8423 17.6389 21.8423 17.9574V20.9447C21.8423 21.4368 21.437 21.8421 20.9391 21.8421H17.9518C17.6333 21.8421 17.3728 22.1026 17.3728 22.421C17.3728 22.7395 17.6333 23 17.9518 23H20.9391C22.0739 23 23.0002 22.0737 23.0002 20.9389V17.9516C23.0002 17.6332 22.7396 17.3784 22.4212 17.3784Z" fill="currentColor"/>
<path d="M10.6974 13.6616H12.0289C12.3474 13.6616 12.6079 13.401 12.6079 13.0826V7.53052C12.6079 7.21209 12.3474 6.95157 12.0289 6.95157C11.7105 6.95157 11.45 7.21209 11.45 7.53052V12.5037H10.6974C10.3789 12.5037 10.1184 12.7642 10.1184 13.0826C10.1184 13.401 10.3731 13.6616 10.6974 13.6616Z" fill="currentColor"/>
<path d="M16.2901 6.90527C15.9717 6.90527 15.7112 7.1658 15.7112 7.48422V9.97369C15.7112 10.2921 15.9717 10.5526 16.2901 10.5526C16.6086 10.5526 16.8691 10.2921 16.8691 9.97369V7.48422C16.8691 7.1658 16.6143 6.90527 16.2901 6.90527Z" fill="currentColor"/>
<path d="M8.31781 7.48422C8.31781 7.1658 8.05728 6.90527 7.73886 6.90527C7.42044 6.90527 7.15991 7.1658 7.15991 7.48422V9.97369C7.15991 10.2921 7.42044 10.5526 7.73886 10.5526C8.05728 10.5526 8.31781 10.2921 8.31781 9.97369V7.48422Z" fill="currentColor"/>
<path d="M15.0395 15.8037C14.1363 16.4347 13.1116 16.7589 12 16.7589C10.9405 16.7589 9.9679 16.4695 9.11105 15.8905C8.84474 15.7111 8.48579 15.7863 8.30632 16.0526C8.12684 16.3189 8.20211 16.6779 8.46842 16.8574C9.52211 17.5637 10.7089 17.9168 12 17.9168C13.3374 17.9168 14.6168 17.5174 15.7053 16.7532C15.9658 16.5679 16.0295 16.2089 15.85 15.9484C15.6647 15.6879 15.3058 15.6242 15.0395 15.8037Z" fill="currentColor"/>
</svg>
