<svg width="24" height="24" viewBox="0 0 24 24" fill="none" xmlns="http://www.w3.org/2000/svg">
<path d="M22.8411 14.7579H20.4449V12.9463H22.8411C23.1595 12.9463 23.4199 12.6858 23.4199 12.3675C23.4199 12.0491 23.1595 11.7887 22.8411 11.7887H15.9766V9.37511C15.9766 9.20726 15.9072 9.05098 15.7798 8.94101L9.08317 3.00257C8.86323 2.80578 8.53332 2.80578 8.31337 3.00257L1.61671 8.94101C1.49516 9.05098 1.41992 9.20726 1.41992 9.37511V16.9052C1.41992 18.821 2.98267 20.3838 4.89848 20.3838H6.46123H10.9237H15.3863C15.7046 20.3838 15.965 20.1233 15.965 19.805V15.9097H19.27V19.805C19.27 20.1233 19.5304 20.3838 19.8488 20.3838C20.1671 20.3838 20.4276 20.1233 20.4276 19.805V15.9097H22.8238C23.1421 15.9097 23.4026 15.6492 23.4026 15.3309C23.4026 15.0126 23.1595 14.7579 22.8411 14.7579ZM7.04581 19.232V14.4338H10.3507V19.232H7.04581ZM14.819 19.232H11.5141V13.855C11.5141 13.5366 11.2537 13.2762 10.9353 13.2762H6.4728C6.15446 13.2762 5.89401 13.5366 5.89401 13.855V19.232H4.91006C3.63092 19.232 2.58909 18.1902 2.58909 16.911V9.63557L8.70117 4.21226L14.819 9.64135V19.232ZM15.9766 14.7579V12.9463H19.2815V14.7579H15.9766Z" fill="currentColor"/>
</svg>
