<svg width="24" height="24" viewBox="0 0 24 24" fill="none" xmlns="http://www.w3.org/2000/svg">
<path d="M20.0777 8.61895C20.0777 4.41579 16.6619 1 12.4588 1C8.25563 1 4.83984 4.41579 4.83984 8.61895C4.83984 12.6253 7.94879 15.9137 11.8798 16.2089V18.8663H9.483C9.16458 18.8663 8.90405 19.1268 8.90405 19.4453C8.90405 19.7637 9.16458 20.0242 9.483 20.0242H11.8798V22.4211C11.8798 22.7395 12.1404 23 12.4588 23C12.7772 23 13.0377 22.7395 13.0377 22.4211V20.0242H15.4346C15.753 20.0242 16.0135 19.7637 16.0135 19.4453C16.0135 19.1268 15.753 18.8663 15.4346 18.8663H13.0377V16.2089C16.9688 15.9137 20.0777 12.6253 20.0777 8.61895ZM5.99774 8.61895C5.99774 5.05842 8.89826 2.15789 12.4588 2.15789C16.0193 2.15789 18.9198 5.05842 18.9198 8.61895C18.9198 12.1795 16.0193 15.08 12.4588 15.08C8.89826 15.08 5.99774 12.1795 5.99774 8.61895Z" fill="currentColor"/>
</svg>
