<svg width="24" height="24" viewBox="0 0 24 24" fill="none" xmlns="http://www.w3.org/2000/svg">
<path d="M22.5693 22.0185L18.9678 18.2954C19.4021 17.6296 19.651 16.8421 19.651 15.9909C19.651 13.6517 17.7461 11.7467 15.4068 11.7467C13.0676 11.7467 11.1626 13.6517 11.1626 15.9909C11.1626 18.3302 13.0676 20.2351 15.4068 20.2351C16.478 20.2351 17.4566 19.8298 18.2035 19.1755L21.7297 22.8234C21.8976 22.9971 22.164 23.0492 22.384 22.9508C22.7488 22.7886 22.8414 22.3022 22.5693 22.0185ZM15.4126 19.0771C13.7103 19.0771 12.3264 17.6932 12.3264 15.9909C12.3264 14.2886 13.7103 12.9047 15.4126 12.9047C17.1149 12.9047 18.4988 14.2886 18.4988 15.9909C18.4988 17.6932 17.1149 19.0771 15.4126 19.0771Z" fill="currentColor"/>
<path d="M8.40067 21.8158H4.22593C2.9463 21.8158 1.89828 20.7736 1.89828 19.4881V2.15804H15.5342C16.7965 2.15804 17.8213 3.18291 17.8213 4.44517V8.67781C17.8213 8.99627 18.0819 9.25683 18.4004 9.25683C18.7188 9.25683 18.9794 8.99627 18.9794 8.67781V4.44517C18.9794 2.54598 17.4334 1 15.5342 1H1.31925C1.00079 1 0.740234 1.26056 0.740234 1.57902V19.4881C0.740234 21.4105 2.30358 22.9738 4.22593 22.9738H8.40067C8.71913 22.9738 8.97969 22.7133 8.97969 22.3948C8.97969 22.0763 8.72492 21.8158 8.40067 21.8158Z" fill="currentColor"/>
<path d="M12.5753 4.80994H3.6121C3.29364 4.80994 3.03308 5.0705 3.03308 5.38896C3.03308 5.70742 3.29364 5.96798 3.6121 5.96798H12.5753C12.8938 5.96798 13.1544 5.70742 13.1544 5.38896C13.1544 5.0705 12.8938 4.80994 12.5753 4.80994Z" fill="currentColor"/>
<path d="M12.5753 8.11035H3.6121C3.29364 8.11035 3.03308 8.37091 3.03308 8.68937C3.03308 9.00783 3.29364 9.26839 3.6121 9.26839H12.5753C12.8938 9.26839 13.1544 9.00783 13.1544 8.68937C13.1544 8.37091 12.8938 8.11035 12.5753 8.11035Z" fill="currentColor"/>
<path d="M9.84816 11.405H3.6121C3.29364 11.405 3.03308 11.6656 3.03308 11.984C3.03308 12.3025 3.29364 12.5631 3.6121 12.5631H9.84236C10.1608 12.5631 10.4214 12.3025 10.4214 11.984C10.4214 11.6656 10.1666 11.405 9.84816 11.405Z" fill="currentColor"/>
</svg>
