<svg width="24" height="24" viewBox="0 0 24 24" fill="none" xmlns="http://www.w3.org/2000/svg">
<path d="M8.65369 21.8132H4.47948C3.2 21.8132 2.15211 20.7711 2.15211 19.4858V2.1579H15.7863C17.0484 2.1579 18.0732 3.18263 18.0732 4.44474V12.9553C18.0732 13.2737 18.3337 13.5342 18.6521 13.5342C18.9706 13.5342 19.2311 13.2737 19.2311 12.9553V4.44474C19.2311 2.54579 17.6853 1 15.7863 1H1.57895C1.26053 1 1 1.26053 1 1.57895V19.4858C1 21.4079 2.56316 22.9711 4.48527 22.9711H8.65948C8.97791 22.9711 9.23843 22.7106 9.23843 22.3921C9.23843 22.0737 8.97791 21.8132 8.65948 21.8132H8.65369Z" fill="currentColor"/>
<path d="M12.8283 4.80945H3.86618C3.54776 4.80945 3.28723 5.06997 3.28723 5.3884C3.28723 5.70682 3.54776 5.96734 3.86618 5.96734H12.8283C13.1467 5.96734 13.4072 5.70682 13.4072 5.3884C13.4072 5.06997 13.1467 4.80945 12.8283 4.80945Z" fill="currentColor"/>
<path d="M13.4072 8.68845C13.4072 8.37002 13.1467 8.1095 12.8283 8.1095H3.86618C3.54776 8.1095 3.28723 8.37002 3.28723 8.68845C3.28723 9.00687 3.54776 9.26739 3.86618 9.26739H12.8283C13.1467 9.26739 13.4072 9.00687 13.4072 8.68845Z" fill="currentColor"/>
<path d="M3.86618 11.4036C3.54776 11.4036 3.28723 11.6641 3.28723 11.9825C3.28723 12.3009 3.54776 12.5615 3.86618 12.5615H10.0957C10.4141 12.5615 10.6746 12.3009 10.6746 11.9825C10.6746 11.6641 10.4141 11.4036 10.0957 11.4036H3.86618Z" fill="currentColor"/>
<path d="M15.9717 16.2264C14.5881 16.2264 13.4591 17.3554 13.4591 18.7391C13.4591 20.1228 14.5881 21.2517 15.9717 21.2517C17.3554 21.2517 18.4844 20.1228 18.4844 18.7391C18.4844 17.3554 17.3554 16.2264 15.9717 16.2264ZM15.9717 20.198C15.167 20.198 14.5128 19.5438 14.5128 18.7391C14.5128 17.9343 15.167 17.2801 15.9717 17.2801C16.7765 17.2801 17.4307 17.9343 17.4307 18.7391C17.4307 19.5438 16.7765 20.198 15.9717 20.198Z" fill="currentColor"/>
<path d="M22.832 18.3279L21.1067 16.6026C19.7346 15.2305 17.9109 14.4779 15.9714 14.4779C14.0319 14.4779 12.2083 15.2305 10.8362 16.6026L9.11089 18.3279C9.00089 18.4379 8.94299 18.5826 8.94299 18.739C8.94299 18.8953 9.00668 19.04 9.11089 19.15L10.8362 20.8753C12.2083 22.2474 14.0319 23 15.9714 23C17.9109 23 19.7346 22.2474 21.1067 20.8753L22.832 19.15C23.0577 18.9242 23.0577 18.5595 22.832 18.3337V18.3279ZM20.2846 20.0532C19.1325 21.2053 17.5983 21.8421 15.9714 21.8421C14.3446 21.8421 12.8104 21.2053 11.6583 20.0532L10.3383 18.7332L11.6583 17.4132C12.8104 16.2611 14.3446 15.6242 15.9714 15.6242C17.5983 15.6242 19.1325 16.2611 20.2846 17.4132L21.6046 18.7332L20.2846 20.0532Z" fill="currentColor"/>
</svg>
