<svg width="24" height="24" viewBox="0 0 24 24" fill="none" xmlns="http://www.w3.org/2000/svg">
<path d="M10.25 5.86306L10.8811 5.48095V8.92569C10.8811 9.24411 11.1416 9.50464 11.46 9.50464C11.7785 9.50464 12.039 9.24411 12.039 8.92569V4.45043C12.039 4.242 11.929 4.05095 11.7437 3.94674C11.5642 3.84253 11.3385 3.84832 11.159 3.95832L9.65372 4.86727C9.38162 5.03516 9.29478 5.38832 9.45688 5.66043C9.61899 5.93253 9.97793 6.01937 10.25 5.85727V5.86306Z" fill="currentColor"/>
<path d="M8.64055 13.98C8.95898 13.98 9.2195 13.7194 9.2195 13.401C9.2195 13.0826 8.95898 12.8221 8.64055 12.8221H7.23371L8.43213 11.6236C8.80845 11.2473 9.01687 10.7436 9.01687 10.211C9.01687 9.18049 8.18319 8.3468 7.15266 8.3468C6.12213 8.3468 5.28845 9.18049 5.28845 10.211C5.28845 10.5294 5.54898 10.79 5.8674 10.79C6.18582 10.79 6.44634 10.5294 6.44634 10.211C6.44634 9.82312 6.76477 9.5047 7.15266 9.5047C7.54055 9.5047 7.85898 9.82312 7.85898 10.211C7.85898 10.431 7.77213 10.6452 7.61582 10.8015L5.4274 12.99C5.2595 13.1579 5.21319 13.4068 5.30003 13.621C5.38687 13.8352 5.60108 13.98 5.83266 13.98H8.64055Z" fill="currentColor"/>
<path d="M10.8753 12.1158C10.8753 12.4342 11.1358 12.6948 11.4543 12.6948H12.8843C13.1795 12.6948 13.4227 12.9379 13.4227 13.2332C13.4227 13.5284 13.1795 13.7716 12.8843 13.7716H12.0506C11.7321 13.7716 11.4716 14.0321 11.4716 14.3505C11.4716 14.669 11.7321 14.9295 12.0506 14.9295H12.8843C13.1795 14.9295 13.4227 15.1727 13.4227 15.4679C13.4227 15.7632 13.1795 16.0063 12.8843 16.0063H11.4543C11.1358 16.0063 10.8753 16.2669 10.8753 16.5853C10.8753 16.9037 11.1358 17.1642 11.4543 17.1642H12.8843C13.8221 17.1642 14.5806 16.4 14.5806 15.4679C14.5806 15.0395 14.4127 14.6516 14.1521 14.3505C14.4185 14.0495 14.5806 13.6616 14.5806 13.2332C14.5806 12.2953 13.8164 11.5369 12.8843 11.5369H11.4543C11.1358 11.5369 10.8753 11.7974 10.8753 12.1158Z" fill="currentColor"/>
<path d="M17.7416 3.96421C17.3595 2.26789 15.8426 1 14.0363 1H2.57895C2.26053 1 2 1.26053 2 1.57895V16.29C2 18.1832 3.41263 19.7521 5.23632 20.0068C5.46211 21.6916 6.90368 23 8.65211 23H20.4626C20.7811 23 21.0416 22.7395 21.0416 22.4211V7.43789C21.0416 5.57947 19.5768 4.06263 17.7474 3.95842L17.7416 3.96421ZM3.15789 16.29V2.15789H14.0421C15.5011 2.15789 16.6821 3.34474 16.6821 4.79789V18.8837H5.75737C4.32158 18.8837 3.15789 17.7142 3.15789 16.2842V16.29ZM19.8837 21.8421H8.65211C7.55789 21.8421 6.64316 21.0721 6.41737 20.0474H17.2611C17.5795 20.0474 17.84 19.7868 17.84 19.4684V5.13947C18.9863 5.28421 19.8837 6.25105 19.8837 7.43789V21.8421Z" fill="currentColor"/>
</svg>
