<svg width="24" height="24" viewBox="0 0 24 24" fill="none" xmlns="http://www.w3.org/2000/svg">
<path d="M8.65224 22.9711H4.48381C2.5617 22.9711 0.998535 21.408 0.998535 19.4858V1.57895C0.998535 1.26053 1.25906 1 1.57748 1H15.7907C17.6896 1 19.2354 2.54579 19.2354 4.44475V8.67687C19.2354 8.99529 18.9749 9.25582 18.6565 9.25582C18.3381 9.25582 18.0775 8.99529 18.0775 8.67687V4.44475C18.0775 3.18264 17.0528 2.1579 15.7907 2.1579H2.15643V19.4858C2.15643 20.7653 3.19854 21.8132 4.48381 21.8132H8.65803C8.97646 21.8132 9.23698 22.0738 9.23698 22.3922C9.23698 22.7106 8.97067 22.9711 8.65224 22.9711Z" fill="currentColor"/>
<path d="M12.8264 5.96735H3.86423C3.54581 5.96735 3.28528 5.70682 3.28528 5.3884C3.28528 5.06998 3.54581 4.80945 3.86423 4.80945H12.8264C13.1448 4.80945 13.4053 5.06998 13.4053 5.3884C13.4053 5.70682 13.1448 5.96735 12.8264 5.96735Z" fill="currentColor"/>
<path d="M12.8264 9.26752H3.86423C3.54581 9.26752 3.28528 9.00699 3.28528 8.68857C3.28528 8.37015 3.54581 8.10962 3.86423 8.10962H12.8264C13.1448 8.10962 13.4053 8.37015 13.4053 8.68857C13.4053 9.00699 13.1448 9.26752 12.8264 9.26752Z" fill="currentColor"/>
<path d="M10.0937 12.5615H3.86423C3.54581 12.5615 3.28528 12.3009 3.28528 11.9825C3.28528 11.6641 3.54581 11.4036 3.86423 11.4036H10.0937C10.4121 11.4036 10.6727 11.6641 10.6727 11.9825C10.6727 12.3009 10.4179 12.5615 10.0937 12.5615Z" fill="currentColor"/>
<path d="M17.2041 11.4006C20.3987 11.4009 22.9883 13.9911 22.9883 17.1858C22.988 20.3802 20.3986 22.9697 17.2041 22.97C14.0094 22.97 11.4192 20.3804 11.4189 17.1858C11.4189 13.991 14.0093 11.4006 17.2041 11.4006ZM17.2041 12.5706C14.6555 12.5706 12.5889 14.6372 12.5889 17.1858C12.5891 19.7342 14.6556 21.8 17.2041 21.8C19.7524 21.7998 21.8181 19.7341 21.8184 17.1858C21.8184 14.6373 19.7525 12.5708 17.2041 12.5706ZM16.79 13.6653C17.0184 13.4372 17.3888 13.4372 17.6172 13.6653L20.1328 16.1809C20.3613 16.4094 20.3613 16.7806 20.1328 17.009C19.9045 17.2372 19.5341 17.2371 19.3057 17.009L17.7891 15.4924V20.2913C17.789 20.6142 17.527 20.876 17.2041 20.8762C16.881 20.8762 16.6192 20.6143 16.6191 20.2913V15.4905L15.1016 17.009C14.8732 17.2371 14.5028 17.2372 14.2744 17.009C14.046 16.7806 14.046 16.4094 14.2744 16.1809L16.79 13.6653Z" fill="currentColor"/>
</svg>
