<svg width="23" height="24" viewBox="0 0 23 24" fill="none" xmlns="http://www.w3.org/2000/svg">
<path d="M16.7998 1H2.57913C2.26054 1 1.99988 1.26066 1.99988 1.57925V19.4955C1.99988 21.4186 3.56386 22.9826 5.48698 22.9826H19.5396C19.5802 22.9942 19.6265 23 19.6729 23C19.9915 23 20.2521 22.7393 20.2521 22.4207V4.44655C20.2521 2.5466 18.7055 1 16.8056 1H16.7998ZM19.0878 21.8241H5.48698C4.20683 21.8241 3.15838 20.7815 3.15838 19.4955V2.1585H16.7998C18.0625 2.1585 19.0878 3.18378 19.0878 4.44655V21.8183V21.8241Z" fill="currentColor"/>
<path d="M14.0948 10.4997C14.0948 9.35857 13.168 8.43176 12.0269 8.43176H9.5419C9.22331 8.43176 8.96265 8.69243 8.96265 9.01101V14.9715C8.96265 15.2901 9.22331 15.5508 9.5419 15.5508C9.86049 15.5508 10.1212 15.2901 10.1212 14.9715V12.5734H11.2159L13.029 15.2959C13.1391 15.4639 13.3244 15.5566 13.5098 15.5566C13.6198 15.5566 13.7299 15.5276 13.8284 15.4581C14.0948 15.2785 14.1643 14.9194 13.9906 14.6529L12.554 12.4981C13.4345 12.2606 14.089 11.4613 14.089 10.5055L14.0948 10.4997ZM12.0269 11.4091H10.1212V9.59027H12.0269C12.5308 9.59027 12.9363 10.0015 12.9363 10.4997C12.9363 10.9978 12.525 11.4091 12.0269 11.4091Z" fill="currentColor"/>
<path d="M11.1231 5.45447C7.52018 5.45447 4.58337 8.38548 4.58337 11.9942C4.58337 15.603 7.51439 18.534 11.1231 18.534C14.7319 18.534 17.6629 15.603 17.6629 11.9942C17.6629 8.38548 14.7319 5.45447 11.1231 5.45447ZM11.1231 17.3697C8.15736 17.3697 5.74188 14.9542 5.74188 11.9884C5.74188 9.02266 8.15736 6.60718 11.1231 6.60718C14.0889 6.60718 16.5044 9.02266 16.5044 11.9884C16.5044 14.9542 14.0889 17.3697 11.1231 17.3697Z" fill="currentColor"/>
</svg>
