<svg width="24" height="24" viewBox="0 0 24 24" fill="none" xmlns="http://www.w3.org/2000/svg">
<path d="M8.65371 22.9711H4.48527C2.56316 22.9711 1 21.408 1 19.4858V1.57895C1 1.26053 1.26053 1 1.57895 1H15.7922C17.6911 1 19.2369 2.54579 19.2369 4.44475V8.67687C19.2369 8.99529 18.9764 9.25582 18.658 9.25582C18.3395 9.25582 18.079 8.99529 18.079 8.67687V4.44475C18.079 3.18264 17.0543 2.1579 15.7922 2.1579H2.1579V19.4858C2.1579 20.7653 3.20001 21.8132 4.48527 21.8132H8.6595C8.97792 21.8132 9.23845 22.0738 9.23845 22.3922C9.23845 22.7106 8.97213 22.9711 8.65371 22.9711Z" fill="currentColor"/>
<path d="M12.8278 5.96735H3.86569C3.54727 5.96735 3.28674 5.70682 3.28674 5.3884C3.28674 5.06998 3.54727 4.80945 3.86569 4.80945H12.8278C13.1462 4.80945 13.4068 5.06998 13.4068 5.3884C13.4068 5.70682 13.1462 5.96735 12.8278 5.96735Z" fill="currentColor"/>
<path d="M12.8278 9.26752H3.86569C3.54727 9.26752 3.28674 9.00699 3.28674 8.68857C3.28674 8.37015 3.54727 8.10962 3.86569 8.10962H12.8278C13.1462 8.10962 13.4068 8.37015 13.4068 8.68857C13.4068 9.00699 13.1462 9.26752 12.8278 9.26752Z" fill="currentColor"/>
<path d="M10.0952 12.5615H3.86569C3.54727 12.5615 3.28674 12.3009 3.28674 11.9825C3.28674 11.6641 3.54727 11.4036 3.86569 11.4036H10.0952C10.4136 11.4036 10.6741 11.6641 10.6741 11.9825C10.6741 12.3009 10.4194 12.5615 10.0952 12.5615Z" fill="currentColor"/>
<path d="M17.2049 23C14.0091 23 11.4097 20.4005 11.4097 17.2047C11.4097 14.0089 14.0091 11.4094 17.2049 11.4094C20.4007 11.4094 23.0002 14.0089 23.0002 17.2047C23.0002 20.4005 20.4007 23 17.2049 23ZM17.2049 12.5615C14.646 12.5615 12.5676 14.64 12.5676 17.1989C12.5676 19.7579 14.646 21.8363 17.2049 21.8363C19.7639 21.8363 21.8423 19.7579 21.8423 17.1989C21.8423 14.6458 19.7639 12.5615 17.2049 12.5615Z" fill="currentColor"/>
<path d="M15.8618 19.8449C15.8502 19.8449 15.8444 19.8449 15.8328 19.8449C15.6707 19.8391 15.5202 19.7638 15.416 19.6364L13.9686 17.888C13.766 17.6391 13.8007 17.2743 14.0439 17.0717C14.287 16.8691 14.6576 16.9038 14.8602 17.147L15.9023 18.4091L19.5844 14.727C19.8102 14.5012 20.175 14.5012 20.4008 14.727C20.6265 14.9528 20.6265 15.3175 20.4008 15.5433L16.2728 19.677C16.1628 19.787 16.0181 19.8449 15.8618 19.8449Z" fill="currentColor"/>
</svg>
