<svg width="24" height="24" viewBox="0 0 24 24" fill="none" xmlns="http://www.w3.org/2000/svg">
<path d="M22.5812 6.93789H1.7391C1.42068 6.93789 1.16016 6.67737 1.16016 6.35895C1.16016 6.04053 1.42068 5.78 1.7391 5.78H22.5812C22.8996 5.78 23.1602 6.04053 23.1602 6.35895C23.1602 6.67737 22.9054 6.93789 22.5812 6.93789Z" fill="currentColor"/>
<path d="M18.1871 12.7968H6.27817C5.95975 12.7968 5.69922 12.5363 5.69922 12.2179C5.69922 11.8995 5.95975 11.6389 6.27817 11.6389H18.1871C18.5055 11.6389 18.7661 11.8995 18.7661 12.2179C18.7661 12.5363 18.5055 12.7968 18.1871 12.7968Z" fill="currentColor"/>
<path d="M13.6534 18.8468H10.6776C10.3592 18.8468 10.0986 18.5863 10.0986 18.2679C10.0986 17.9495 10.3592 17.6889 10.6776 17.6889H13.6534C13.9718 17.6889 14.2323 17.9495 14.2323 18.2679C14.2323 18.5863 13.9718 18.8468 13.6534 18.8468Z" fill="currentColor"/>
</svg>
