<svg width="24" height="24" viewBox="0 0 24 24" fill="none" xmlns="http://www.w3.org/2000/svg">
<path d="M10.5204 23C10.2242 23 9.93375 22.9132 9.67747 22.7395C9.26172 22.4558 9.01682 21.9811 9.01682 21.4716V12.88L2.22246 3.44895C1.87506 2.99158 1.8181 2.37789 2.07439 1.85105C2.33067 1.32421 2.84324 1 3.41845 1H20.5781C21.1533 1 21.6715 1.32421 21.9278 1.85105C22.1841 2.37789 22.1215 2.99158 21.7684 3.45474L14.9797 12.8742V20.2558C14.9797 20.8811 14.6095 21.4368 14.04 21.6742L11.0785 22.8842C10.8962 22.9595 10.7083 22.9942 10.5147 22.9942L10.5204 23ZM3.41845 2.15789C3.21343 2.15789 3.1223 2.30263 3.09383 2.36632C3.06535 2.43 3.0084 2.59211 3.13369 2.75421L10.0477 12.3474C10.1217 12.4458 10.1559 12.5674 10.1559 12.6889V21.4716C10.1559 21.6511 10.2698 21.7437 10.3153 21.7784C10.3666 21.8132 10.4919 21.8826 10.6513 21.8132L13.6128 20.6032C13.7495 20.5453 13.8407 20.4121 13.8407 20.2616V12.6889C13.8407 12.5674 13.8805 12.4458 13.9489 12.3474L20.8571 2.76579C20.9881 2.59211 20.9312 2.43 20.9027 2.36632C20.8742 2.30263 20.7831 2.15789 20.5781 2.15789H3.41845Z" fill="currentColor"/>
</svg>
