<svg width="24" height="24" viewBox="0 0 24 24" fill="none" xmlns="http://www.w3.org/2000/svg">
<path d="M12 1.25C5.93263 1.25 1 6.18263 1 12.25C1 18.3174 5.93263 23.25 12 23.25C18.0674 23.25 23 18.3174 23 12.25C23 6.18263 18.0674 1.25 12 1.25ZM12 22.0921C6.57526 22.0921 2.15789 17.6747 2.15789 12.25C2.15789 6.82526 6.57526 2.40789 12 2.40789C17.4247 2.40789 21.8421 6.82526 21.8421 12.25C21.8421 17.6747 17.4305 22.0921 12 22.0921Z" fill="currentColor"/>
<path d="M17.9571 8.26685H6.04819C5.72976 8.26685 5.46924 8.52737 5.46924 8.84579C5.46924 9.16421 5.72976 9.42474 6.04819 9.42474H17.9571C18.2756 9.42474 18.5361 9.16421 18.5361 8.84579C18.5361 8.52737 18.2756 8.26685 17.9571 8.26685Z" fill="currentColor"/>
<path d="M15.4045 12.4063H8.59604C8.27762 12.4063 8.01709 12.6668 8.01709 12.9853C8.01709 13.3037 8.27762 13.5642 8.59604 13.5642H15.3987C15.7171 13.5642 15.9776 13.3037 15.9776 12.9853C15.9776 12.6668 15.7229 12.4063 15.4045 12.4063Z" fill="currentColor"/>
<path d="M12.8514 16.1232H11.1493C10.8308 16.1232 10.5703 16.3837 10.5703 16.7021C10.5703 17.0205 10.8308 17.2811 11.1493 17.2811H12.8514C13.1698 17.2811 13.4303 17.0205 13.4303 16.7021C13.4303 16.3837 13.1698 16.1232 12.8514 16.1232Z" fill="currentColor"/>
</svg>
