<svg width="24" height="24" viewBox="0 0 24 24" fill="none" xmlns="http://www.w3.org/2000/svg">
<path d="M7.56422 3.31803C7.64559 3.31803 7.73278 3.30059 7.81415 3.2599C9.12195 2.63797 10.6448 2.31248 12.22 2.31248C13.737 2.31248 15.2134 2.62054 16.4921 3.19596C16.7827 3.32965 17.1315 3.20178 17.2593 2.90534C17.393 2.61472 17.2593 2.26598 16.9687 2.1381C15.5447 1.49293 13.8998 1.14999 12.22 1.14999C10.4704 1.14999 8.7732 1.51618 7.31428 2.20785C7.02366 2.34735 6.9016 2.69028 7.0411 2.98091C7.13991 3.19596 7.34916 3.31803 7.56422 3.31803Z" fill="currentColor"/>
<path d="M6.34392 6.54973C7.77378 5.03268 9.92437 4.16663 12.2377 4.16663C14.6208 4.16663 16.8063 5.07337 18.2361 6.66016C18.3524 6.78803 18.5093 6.85197 18.6663 6.85197C18.8057 6.85197 18.9452 6.80547 19.0557 6.70085C19.294 6.48579 19.3114 6.11961 19.0964 5.8813C17.4456 4.05039 14.9463 3.00415 12.2377 3.00415C9.60469 3.00415 7.14604 4.00389 5.49531 5.75342C5.27444 5.98592 5.28606 6.3521 5.51856 6.57297C5.75687 6.79385 6.12305 6.78222 6.34392 6.54973Z" fill="currentColor"/>
<path d="M12.1676 4.81183C11.5224 4.81183 10.8772 4.88739 10.2495 5.04433C9.93558 5.11989 9.74959 5.43376 9.82515 5.74763C9.90071 6.0615 10.2146 6.2475 10.5285 6.17193C11.0632 6.03825 11.6096 5.97431 12.1676 5.97431C15.8526 5.97431 18.8983 8.92702 19.1018 12.6935C19.1192 13.0015 19.375 13.2456 19.683 13.2456C19.6946 13.2456 19.7063 13.2456 19.7121 13.2456C20.0318 13.2282 20.2759 12.955 20.2584 12.6353C20.0259 8.24116 16.4687 4.81183 12.1676 4.81183Z" fill="currentColor"/>
<path d="M8.79088 6.86942C9.06987 6.71249 9.16868 6.35793 9.00594 6.07893C8.849 5.79994 8.48863 5.70113 8.21545 5.86387C5.65217 7.3286 4.05957 10.1011 4.05957 13.0945C4.05957 13.4142 4.32113 13.6758 4.64081 13.6758C4.9605 13.6758 5.22205 13.4142 5.22205 13.0945C5.22205 10.5138 6.58797 8.12491 8.79088 6.86942Z" fill="currentColor"/>
<path d="M6.22743 16.6691C7.40154 14.2977 7.25041 12.6353 7.25041 12.6237C7.25041 9.93836 9.49401 7.75871 12.2549 7.75871C13.6964 7.75871 15.0681 8.3632 16.0214 9.41524C16.2364 9.65355 16.6026 9.67099 16.8409 9.45593C17.0792 9.24087 17.0967 8.87469 16.8816 8.63638C15.7133 7.34021 14.0219 6.59622 12.2549 6.59622C8.85464 6.59622 6.08793 9.299 6.08793 12.676C6.08793 12.6876 6.19837 14.1059 5.18701 16.1518C5.04169 16.4425 5.16376 16.7854 5.44856 16.9307C5.52994 16.9714 5.61712 16.9888 5.70431 16.9888C5.92518 16.9888 6.12862 16.8726 6.22743 16.6691Z" fill="currentColor"/>
<path d="M11.784 15.7915C11.4759 15.6927 11.1504 15.8612 11.0516 16.1635C10.4762 17.9421 9.54621 19.7032 8.28492 21.4005C8.09311 21.6562 8.14542 22.0224 8.40698 22.2142C8.5116 22.2898 8.63366 22.3305 8.74991 22.3305C8.9301 22.3305 9.10447 22.2491 9.2149 22.098C10.5518 20.2961 11.5399 18.4245 12.156 16.5297C12.2548 16.2216 12.092 15.8903 11.784 15.7915Z" fill="currentColor"/>
<path d="M11.9879 14.9952C12.0228 15.001 12.0576 15.0068 12.0867 15.0068C12.3657 15.0068 12.6098 14.8092 12.6563 14.5244C12.8597 13.3619 12.8191 12.6528 12.8191 12.6237C12.8016 12.304 12.5342 12.0541 12.2029 12.0831C11.8833 12.1006 11.6391 12.3796 11.6566 12.6993C11.6566 12.7051 11.6914 13.3154 11.5113 14.3267C11.4589 14.6348 11.674 14.937 11.9879 14.9952Z" fill="currentColor"/>
<path d="M15.3417 17.9188C15.2661 17.6631 15.0162 17.5003 14.7547 17.5119C14.4873 17.5236 14.2664 17.7212 14.2141 17.9827C13.9932 19.0929 12.5808 21.4469 12.0519 22.2549C11.8775 22.5222 11.9531 22.8826 12.2204 23.057C12.3193 23.1209 12.4297 23.15 12.5343 23.15C12.7261 23.15 12.9121 23.057 13.0226 22.8826C13.0807 22.7954 14.0455 21.3016 14.7256 19.8834L15.2487 21.5806C15.3417 21.8887 15.6672 22.0572 15.9753 21.9642C16.2833 21.8713 16.4519 21.5458 16.3589 21.2377L15.3417 17.9188Z" fill="currentColor"/>
<path d="M18.6081 15.7392C18.4686 15.0591 18.4046 14.3326 18.4046 13.5246C18.4105 11.5019 17.9803 10.694 17.9338 10.6068C17.7769 10.3336 17.434 10.2406 17.155 10.3917C16.876 10.5429 16.7714 10.8916 16.9167 11.1764C16.9225 11.1822 17.248 11.8332 17.2422 13.5246C17.2422 14.4139 17.3119 15.216 17.4688 15.9775C17.8002 17.6166 18.1431 18.2385 18.178 18.3024C18.2826 18.4884 18.4802 18.5931 18.6778 18.5931C18.7766 18.5931 18.8696 18.5698 18.9626 18.5175C19.2416 18.3606 19.3404 18.006 19.1893 17.727C19.1835 17.7154 18.8987 17.1806 18.6081 15.7392Z" fill="currentColor"/>
<path d="M16.5447 12.6702C16.5447 10.3452 14.6092 8.45038 12.2319 8.45038C9.85463 8.45038 7.9191 10.3452 7.9191 12.6934C7.9191 12.7225 8.00047 15.5532 5.94288 18.3431C5.75107 18.5989 5.80338 18.965 6.06494 19.1568C6.32068 19.3487 6.68687 19.2963 6.87868 19.0348C9.19783 15.9077 9.08739 12.7806 9.08739 12.676C9.08739 10.9904 10.4998 9.61867 12.2377 9.61867C13.9756 9.61867 15.3881 10.9904 15.3939 12.6411C15.3881 12.7806 15.2021 16.1693 16.754 20.1391C16.8412 20.3716 17.062 20.5111 17.2945 20.5111C17.3643 20.5111 17.434 20.4995 17.5038 20.4705C17.8002 20.3542 17.9513 20.0171 17.8351 19.7148C16.3762 15.9949 16.5447 12.7399 16.5447 12.6702Z" fill="currentColor"/>
<path d="M12.2667 10.2464C10.8427 10.2464 9.80805 11.2927 9.81387 12.6935C9.80805 12.74 9.46512 17.2213 7.02391 20.0462C6.81466 20.2903 6.84372 20.6565 7.08203 20.8657C7.32615 21.075 7.69233 21.0517 7.90158 20.8076C10.5985 17.6863 10.9589 12.9783 10.9705 12.7341C10.9705 12.1238 11.3077 11.4031 12.2667 11.4031C12.9816 11.4031 13.5629 11.996 13.5629 12.7283C13.5629 12.7748 13.4873 17.4596 10.2091 22.1386C10.0231 22.4002 10.087 22.7664 10.3544 22.9466C10.4532 23.0163 10.5695 23.0512 10.6857 23.0512C10.8717 23.0512 11.0519 22.964 11.1623 22.8013C14.6556 17.8084 14.7254 12.9376 14.7254 12.7283C14.7254 11.3624 13.621 10.2464 12.2667 10.2464Z" fill="currentColor"/>
</svg>
