<svg width="24" height="25" viewBox="0 0 24 25" fill="none" xmlns="http://www.w3.org/2000/svg">
<g clip-path="url(#clip0_1_2852)">
<path d="M1.54792 10.406V11.7056H3.9959V12.9404H1.54792V15.2979H0V9.17212H4.61744V10.4069H1.54792V10.406Z" fill="#2D2D2D"/>
<path d="M10.6156 10.5641C11.0894 10.5641 11.4681 10.7068 11.75 10.9914C12.0319 11.2761 12.1728 11.6815 12.1728 12.2079V15.2992H10.6427V12.644C10.6427 12.3287 10.5858 12.1054 10.4721 11.9758C10.3642 11.84 10.208 11.7717 10.0042 11.7717C9.7639 11.7717 9.56946 11.8611 9.41917 12.0406C9.26887 12.214 9.19415 12.4828 9.19415 12.848V15.2983H7.66406V10.6569H9.03197L9.07698 11.5484C9.22132 11.22 9.42511 10.9757 9.68918 10.8154C9.95325 10.6482 10.2623 10.565 10.6164 10.565L10.6156 10.5641Z" fill="#2D2D2D"/>
<path d="M18.3474 12.8012C18.3474 13.6612 18.1258 14.3083 17.6817 14.741C17.2376 15.1745 16.5745 15.3908 15.6923 15.3908C14.81 15.3908 14.1528 15.1745 13.7028 14.741C13.2587 14.3075 13.0371 13.6612 13.0371 12.8012V9.17212H14.5944V12.8301C14.5944 13.2697 14.6844 13.5972 14.8644 13.8144C15.0444 14.0307 15.3204 14.1393 15.6923 14.1393C16.4361 14.1393 16.808 13.7032 16.808 12.8301V9.17212H18.3474V12.8021V12.8012Z" fill="#2D2D2D"/>
<path d="M22.1465 10.5641C22.7349 10.5641 23.1909 10.7743 23.5144 11.1955C23.8387 11.6167 24.0009 12.2044 24.0009 12.9592C24.0009 13.7141 23.8362 14.3236 23.5059 14.751C23.1756 15.1784 22.723 15.3912 22.1465 15.3912C21.8289 15.3912 21.5521 15.3141 21.3186 15.1591C21.0902 15.0041 20.9136 14.7913 20.7879 14.5189V17.2477H19.2578V10.6569H20.5986L20.6436 11.6412C20.7692 11.3128 20.962 11.0536 21.2192 10.8618C21.4833 10.6639 21.7924 10.565 22.1465 10.565V10.5641ZM21.6158 14.2308C21.8858 14.2308 22.093 14.1284 22.2365 13.9243C22.3868 13.7203 22.4615 13.4041 22.4615 12.9776C22.4615 12.5511 22.3868 12.235 22.2365 12.031C22.0921 11.8269 21.8858 11.7244 21.6158 11.7244C21.3458 11.7244 21.1539 11.8269 21.0036 12.031C20.8592 12.235 20.7879 12.5354 20.7879 12.9312V13.024C20.7879 13.4076 20.8601 13.7045 21.0036 13.9156C21.1479 14.1257 21.3517 14.2308 21.6158 14.2308Z" fill="#2D2D2D"/>
<path d="M6.75028 10.6709H5.2168V15.3088H6.75028V10.6709Z" fill="#2D2D2D"/>
<path d="M5.61413 10.1327C5.72027 10.1765 5.8366 10.2002 5.95802 10.2002C6.07944 10.2002 6.20001 10.1765 6.30785 10.1301L5.96141 9.51184L5.61328 10.1319L5.61413 10.1327Z" fill="#2D2D2D"/>
<path d="M6.5514 8.46209C6.41979 8.35438 6.26101 8.28082 6.08524 8.25629C6.04449 8.25192 6.00203 8.24841 5.95958 8.24841C5.91712 8.24841 5.88061 8.25016 5.84155 8.25629C5.66579 8.27819 5.507 8.35 5.37369 8.45772C5.15547 8.63724 5.01367 8.91485 5.01367 9.22399C5.01367 9.4473 5.08754 9.65485 5.21066 9.81862L5.67258 8.99279L5.96297 8.47435L6.25337 8.99279L6.71358 9.81424C6.83501 9.65048 6.90718 9.44555 6.90718 9.22399C6.90548 8.9166 6.76793 8.64162 6.5514 8.46209Z" fill="#2D2D2D"/>
</g>
<defs>
<clipPath id="clip0_1_2852">
<rect width="24" height="24" fill="white" transform="translate(0 0.748047)"/>
</clipPath>
</defs>
</svg>
