<svg width="24" height="24" viewBox="0 0 24 24" fill="none" xmlns="http://www.w3.org/2000/svg">
<path d="M16.4273 4.66422H5.35207V4.25896C5.92523 4.02738 6.3305 3.47159 6.3305 2.81738C6.3305 1.96054 5.62997 1.26001 4.77313 1.26001C4.0147 1.26001 3.38364 1.80422 3.2447 2.51632C3.22154 2.61475 3.20996 2.71896 3.20996 2.82896C3.20996 3.48317 3.61523 4.03896 4.18838 4.26475V5.24317V11.9647V22.6811C4.18838 22.9995 4.44891 23.26 4.76733 23.26C5.08575 23.26 5.34628 22.9995 5.34628 22.6811V14.5642C5.97154 15.1316 6.79365 15.479 7.7026 15.479H19.3568C19.6752 15.479 19.9358 15.2184 19.9358 14.9V8.17844C19.9415 6.23896 18.3668 4.66422 16.4273 4.66422ZM4.76155 2.44685C4.97576 2.44685 5.14944 2.62054 5.14944 2.83475C5.14944 3.04317 4.98155 3.21107 4.77313 3.21685C4.55892 3.21107 4.38522 3.03739 4.38522 2.82317C4.38522 2.61475 4.55313 2.44685 4.76155 2.44685ZM18.7836 14.3211H7.70839C6.41155 14.3211 5.35207 13.2674 5.35207 11.9647V5.82212H16.4273C17.7242 5.82212 18.7836 6.87581 18.7836 8.17844V14.3211Z" fill="currentColor"/>
</svg>
