<svg width="24" height="24" viewBox="0 0 24 24" fill="none" xmlns="http://www.w3.org/2000/svg">
<path d="M20.1142 10.316C20.01 10.1308 19.8189 10.015 19.6047 10.015H12.7444V1.66096C12.7444 1.39465 12.5649 1.16886 12.3102 1.09939C12.0554 1.03571 11.7891 1.1457 11.6618 1.37728L4.21666 14.7796C4.11824 14.9591 4.11824 15.1791 4.22245 15.3528C4.32666 15.5322 4.51771 15.6364 4.72033 15.6364H11.5865V22.5026C11.5865 22.7631 11.7602 22.9889 12.0033 23.0584C12.0554 23.0758 12.1075 23.0815 12.1654 23.0815C12.3623 23.0815 12.5475 22.9831 12.6575 22.8094L20.1026 10.9008C20.2126 10.7213 20.2184 10.5013 20.1142 10.316ZM12.7444 20.4879V15.0633C12.7444 14.7449 12.4838 14.4844 12.1654 14.4844H5.70452L11.5865 3.89565V10.5939C11.5865 10.9123 11.847 11.1729 12.1654 11.1729H18.5627L12.7444 20.4879Z" fill="currentColor"/>
</svg>
