<svg width="24" height="24" viewBox="0 0 24 24" fill="none" xmlns="http://www.w3.org/2000/svg">
<path d="M19.4052 16.112C19.2894 15.9557 19.1042 15.8573 18.9131 15.8689L16.7477 15.9557C15.2423 16.0194 13.9107 16.8126 13.1174 18.0458V15.1625C13.4475 15.093 13.7659 14.9714 14.0612 14.7861C14.7096 14.3751 15.1555 13.7208 15.3234 12.9913C15.6071 13.0839 15.8966 13.1418 16.1976 13.1418C16.6377 13.1418 17.0893 13.0376 17.5062 12.8292C18.5078 12.3197 19.1215 11.2659 19.0752 10.1427C19.0405 9.36105 18.6989 8.66048 18.1546 8.16255C18.7047 7.65884 19.052 6.95826 19.0926 6.18242C19.1505 5.05919 18.5425 3.99965 17.5467 3.48435C16.8693 3.13117 16.0819 3.07906 15.3697 3.29908C15.2076 2.57534 14.7791 1.92109 14.1191 1.49843C13.1753 0.890497 11.9537 0.890497 11.0041 1.49843C10.3673 1.90951 9.95039 2.52903 9.7767 3.22381C9.08191 3.01537 8.32345 3.06748 7.6634 3.3975C6.65597 3.89543 6.03066 4.94918 6.07119 6.06663C6.09435 6.83089 6.43595 7.54304 6.97441 8.05834C6.42437 8.55047 6.0654 9.24526 6.01908 10.0269C5.9496 11.1501 6.55175 12.2155 7.54181 12.7365C7.97026 12.9623 8.43345 13.0724 8.89085 13.0724C9.16876 13.0724 9.44667 13.0145 9.71301 12.9392C9.86354 13.6745 10.2978 14.323 10.9462 14.7514C10.952 14.7514 10.952 14.7572 10.9578 14.7572C11.2647 14.9598 11.6063 15.0872 11.9595 15.1567V18.0806C11.1721 16.8242 9.82301 16.0136 8.30028 15.9499L6.13488 15.8631C5.94381 15.8515 5.75275 15.9441 5.64274 16.1062C5.52694 16.2626 5.50378 16.471 5.57326 16.6505L6.31437 18.5843C6.97441 20.3039 8.59557 21.4503 10.4367 21.5024L11.9595 21.5429V22.4635C11.9595 22.7819 12.22 23.0425 12.5385 23.0425C12.8569 23.0425 13.1174 22.7819 13.1174 22.4635V21.5429L14.6112 21.5024C16.4524 21.4503 18.0736 20.3039 18.7336 18.5843L19.4747 16.6505C19.5442 16.4768 19.5152 16.2741 19.4052 16.112ZM16.9793 11.8044C16.2671 12.1633 15.4102 11.9954 14.8949 11.3875L13.5806 9.8474C14.1538 9.5058 14.5417 8.89208 14.5591 8.18571L16.5393 8.57942C17.3209 8.73575 17.8883 9.40158 17.923 10.1948C17.9462 10.8722 17.5756 11.4975 16.9793 11.8044ZM13.4011 8.13939C13.4011 8.60258 13.0248 8.97892 12.5616 8.97892C12.0984 8.97892 11.7221 8.60258 11.7221 8.13939C11.7221 7.67621 12.0984 7.29987 12.5616 7.29987C13.0248 7.30566 13.4011 7.67621 13.4011 8.13939ZM17.0082 4.51495C17.6046 4.82181 17.9693 5.45869 17.9346 6.13032C17.9057 6.72088 17.5756 7.24776 17.0719 7.53146C16.9677 7.49672 16.8693 7.46198 16.7593 7.44461L14.5417 7.00458L15.2828 4.86813C15.3176 4.76391 15.3407 4.65969 15.3639 4.55547C15.8618 4.26598 16.4929 4.24861 17.0082 4.51495ZM11.6294 2.47692C12.1911 2.11216 12.9264 2.11216 13.488 2.47692C14.1596 2.90537 14.4433 3.73332 14.1828 4.486L13.5227 6.40244C13.2332 6.24032 12.909 6.1419 12.5616 6.1419C12.2084 6.1419 11.8842 6.24032 11.6005 6.40244L10.9347 4.49179C10.6741 3.73911 10.9636 2.91116 11.6294 2.47692ZM7.22337 6.03768C7.20021 5.36605 7.57655 4.74075 8.1787 4.43968C8.67663 4.19071 9.25561 4.21387 9.74196 4.46863C9.76512 4.60179 9.79985 4.73496 9.84617 4.86813L10.5757 6.97563L8.38134 7.37513C8.27133 7.3925 8.17291 7.42724 8.06869 7.46198C7.56497 7.16091 7.24074 6.62245 7.22337 6.03768ZM8.08027 11.7233C7.48971 11.4107 7.13073 10.7738 7.17126 10.1022C7.21758 9.30894 7.79657 8.65469 8.58399 8.50994L10.5699 8.15097C10.5757 8.86313 10.952 9.48264 11.5194 9.83003L10.1762 11.3412C9.64353 11.9433 8.78085 12.0997 8.08027 11.7233ZM11.5716 13.7903C11.0794 13.4603 10.7957 12.916 10.8073 12.3313C10.8883 12.2618 10.9694 12.1981 11.0447 12.117L12.5442 10.4264L14.0149 12.146C14.0844 12.227 14.1712 12.2907 14.2465 12.3602C14.2465 12.945 13.9454 13.5008 13.4475 13.8135C12.8801 14.1724 12.1505 14.1666 11.5889 13.7961C11.5773 13.7961 11.5773 13.7903 11.5716 13.7903ZM10.4715 20.3502C9.09928 20.3097 7.8892 19.4586 7.39707 18.1732L6.96861 17.0616L8.25396 17.1137C9.62616 17.1716 10.8247 18.04 11.2994 19.3312L11.6874 20.3791L10.4715 20.3502ZM17.6509 18.1732C17.1588 19.4586 15.9487 20.3097 14.5765 20.3502L13.3606 20.3849L13.7485 19.337C14.2233 18.0458 15.4218 17.1774 16.794 17.1195L18.0793 17.0674L17.6509 18.1732Z" fill="currentColor"/>
</svg>
