<svg width="24" height="24" viewBox="0 0 24 24" fill="none" xmlns="http://www.w3.org/2000/svg">
<path d="M22.7326 4.21108C22.7326 3.89266 22.4721 3.63792 22.1537 3.63792H9.68895L8.73948 2.3816C8.62948 2.23687 8.46158 2.15002 8.27632 2.15002H1.32895C1.01053 2.15002 0.75 2.41055 0.75 2.72897V17.7295C0.75 19.6284 2.31895 21.1684 4.24105 21.1684H22.1711C22.4895 21.1684 22.75 20.9079 22.75 20.5895V16.4211V15.0432V7.19266V7.18687L22.7326 4.21108ZM21.5805 4.79002L21.5921 6.60792H11.9468L10.569 4.79002H21.5805ZM21.5921 20.0106H4.24105C2.95579 20.0106 1.90789 18.9858 1.90789 17.7295V3.30213H7.98684L11.1942 7.54002C11.3042 7.68476 11.4721 7.7716 11.6574 7.7716H21.5979V15.049V20.0106H21.5921Z" fill="currentColor"/>
</svg>
