<svg width="24" height="24" viewBox="0 0 24 24" fill="none" xmlns="http://www.w3.org/2000/svg">
<path d="M12.0003 20.5336C12.3188 20.5336 12.5793 20.2731 12.5793 19.9547V15.7573C12.5793 15.4389 12.3188 15.1783 12.0003 15.1783C11.6819 15.1783 11.4214 15.4389 11.4214 15.7573V19.9547C11.4214 20.2789 11.6819 20.5336 12.0003 20.5336Z" fill="currentColor"/>
<path d="M15.1842 20.476C15.2247 20.4876 15.271 20.4876 15.3115 20.4876C15.5778 20.4876 15.8152 20.3023 15.8789 20.036L16.7878 15.937C16.8573 15.6244 16.6605 15.3176 16.3478 15.2481C16.0352 15.1786 15.7284 15.3754 15.6589 15.6881L14.7499 19.787C14.6747 20.0939 14.8715 20.4065 15.1842 20.476Z" fill="currentColor"/>
<path d="M8.1212 20.036C8.1791 20.3081 8.42226 20.4876 8.68857 20.4876C8.7291 20.4876 8.76963 20.4818 8.81594 20.476C9.12857 20.4065 9.32541 20.0997 9.25594 19.787L8.34699 15.6881C8.27752 15.3754 7.96489 15.1786 7.65805 15.2481C7.34542 15.3176 7.14857 15.6244 7.21805 15.937L8.1212 20.036Z" fill="currentColor"/>
<path d="M22.4211 10.3037H19.4511C19.6595 9.39474 19.7058 8.64211 19.7058 8.13263C19.7521 8.14421 19.8042 8.15579 19.8505 8.15579C19.8911 8.15579 19.9316 8.15 19.9721 8.14421C20.1226 8.10947 20.25 8.02263 20.3368 7.88947L21.4716 6.11789C21.6453 5.84579 21.5642 5.49263 21.2979 5.31895L17.7605 3.05526C17.4884 2.88158 17.1353 2.96263 16.9616 3.22895L15.8211 4.99474C15.74 5.12211 15.7111 5.27842 15.7458 5.42895C15.7689 5.54474 15.8384 5.63737 15.9195 5.71842C14.9642 6.15263 14.2521 6.81842 13.7311 7.46105V1.57895C13.7311 1.26053 13.4705 1 13.1521 1H10.8537C10.5353 1 10.2747 1.26053 10.2747 1.57895V7.49579C8.90263 6.11211 7.46684 5.75895 6.65053 5.68368C6.64474 4.54316 6.37263 2.76 5.55053 1.67737C5.27842 1.31842 4.82105 1.14474 4.36947 1.22579C3.90053 1.31263 3.52421 1.64263 3.39105 2.09421C3.13053 2.96263 3.17105 3.69211 3.28105 4.20737C3.01474 4.21316 2.76 4.21895 2.52842 4.23632C2.1521 4.27105 1.81631 4.49105 1.63684 4.82684C1.45737 5.16263 1.45737 5.56211 1.63684 5.89789C2.29684 7.12526 3.59947 7.60579 4.36947 7.78526C4.30579 8.40474 4.30579 9.38316 4.77474 10.2979H1.57895C1.26053 10.2979 1 10.5584 1 10.8768V13.4821C1 13.8005 1.26053 14.0611 1.57895 14.0611H2.65L5.49842 22.6005C5.57368 22.8379 5.79368 23 6.04263 23H17.9516C18.2005 23 18.4205 22.8379 18.5016 22.6063L21.3442 14.0668H22.4211C22.7395 14.0668 23 13.8063 23 13.4879V10.8826C23 10.5584 22.7395 10.3037 22.4211 10.3037ZM17.6216 4.33474L20.1863 5.97316L19.6768 6.77211L17.5579 5.42316L17.5521 5.41737L17.1121 5.13368L17.6216 4.33474ZM14.0668 9.01842C14.5474 8.19053 15.5258 6.92263 17.1295 6.52316L18.5074 7.40895C18.5132 7.46105 18.5132 7.52474 18.5189 7.6C18.5189 7.60579 18.5189 7.61158 18.5189 7.61737C18.5189 7.61737 18.5189 7.64053 18.5247 7.66947C18.5305 7.83737 18.5421 8.04579 18.5363 8.29474C18.5247 8.77526 18.4668 9.47 18.2468 10.3037H13.7253C13.7311 9.85211 13.8411 9.40632 14.0668 9.01842ZM11.4268 2.15789H12.5674V9.93316H11.4268V2.15789ZM5.55631 7.6L6.30316 6.81842C6.81263 6.83 8.20211 6.99789 9.53368 8.39316C10.02 8.90263 10.2747 9.59737 10.2747 10.3037H6.18737C5.31895 9.38895 5.47526 8.02842 5.55631 7.6ZM2.63842 5.39421C2.78316 5.35368 2.96263 5.38263 3.11316 5.37684C3.33316 5.37105 3.55316 5.37105 3.76158 5.31316C3.96421 5.26105 4.16105 5.15105 4.28263 4.97737C4.39263 4.82684 4.43895 4.64158 4.44474 4.45632C4.46211 4.11474 4.36368 3.78474 4.33474 3.44895C4.31158 3.10737 4.39263 2.74263 4.48526 2.41842C4.49684 2.37211 4.54895 2.36053 4.56053 2.35474C4.60105 2.34895 4.61263 2.36053 4.61842 2.36632C5.22632 3.16526 5.46947 4.64158 5.48684 5.59684C5.49263 5.84579 5.39421 6.07737 5.22632 6.25684L5.06421 6.42474C4.91947 6.57526 4.64158 6.66211 4.44474 6.61C4.20158 6.54632 3.96421 6.45947 3.73263 6.34947C3.51263 6.24526 3.30421 6.11789 3.11895 5.96158C2.95684 5.83421 2.69632 5.61421 2.63842 5.39421ZM17.5405 21.8421H6.46526L3.87158 14.0668H20.1284L17.5405 21.8421ZM21.8421 12.9089H2.15789V11.4616H21.8421V12.9089Z" fill="currentColor"/>
</svg>
