<svg width="24" height="24" viewBox="0 0 24 24" fill="none" xmlns="http://www.w3.org/2000/svg">
<path d="M10.655 10.5453L3.6845 6.49267C3.12871 6.16846 2.46292 6.16846 1.90135 6.48688C1.34556 6.81109 1.00977 7.38424 1.00977 8.02688V16.1379C1.00977 16.7806 1.34556 17.3595 1.90135 17.6837C2.17924 17.8458 2.48608 17.9211 2.78713 17.9211C3.09398 17.9211 3.40082 17.84 3.6845 17.6779L10.655 13.6253C11.2108 13.3011 11.5408 12.7279 11.5408 12.0853C11.5408 11.4427 11.2108 10.8695 10.655 10.5453ZM10.0703 12.6179L3.09977 16.6706C2.81608 16.8327 2.57292 16.7285 2.4745 16.6706C2.37608 16.6127 2.16187 16.4564 2.16187 16.1321V8.02688C2.16187 7.70267 2.38187 7.54056 2.4745 7.48846C2.5324 7.45372 2.6424 7.40161 2.78713 7.40161C2.87977 7.40161 2.98398 7.42477 3.09398 7.48846L10.0645 11.5411C10.3424 11.7032 10.3713 11.9695 10.3713 12.0795C10.3713 12.1895 10.354 12.4558 10.0703 12.6179Z" fill="currentColor"/>
<path d="M22.1238 10.5453L15.1533 6.49267C14.5975 6.16846 13.9317 6.16846 13.3701 6.48688C12.8143 6.81109 12.4785 7.38424 12.4785 8.02688V16.1379C12.4785 16.7806 12.8143 17.3595 13.3701 17.6837C13.648 17.8458 13.9548 17.9211 14.2559 17.9211C14.5627 17.9211 14.8696 17.84 15.1533 17.6779L22.1238 13.6253C22.6796 13.3011 23.0096 12.7279 23.0096 12.0853C23.0096 11.4427 22.6796 10.8695 22.1238 10.5453ZM21.539 12.6179L14.5685 16.6706C14.2848 16.8327 14.0417 16.7285 13.9433 16.6706C13.8506 16.6185 13.6306 16.4564 13.6306 16.1321V8.02688C13.6306 7.70267 13.8506 7.54056 13.9433 7.48846C14.0011 7.45372 14.1111 7.40161 14.2559 7.40161C14.3485 7.40161 14.4527 7.42477 14.5627 7.48846L21.5333 11.5411C21.8111 11.7032 21.8401 11.9695 21.8401 12.0795C21.8401 12.1895 21.8227 12.4558 21.539 12.6179Z" fill="currentColor"/>
</svg>
