<svg width="24" height="24" viewBox="0 0 24 24" fill="none" xmlns="http://www.w3.org/2000/svg">
<path d="M16.6836 12.2939C16.945 12.294 17.1582 12.5036 17.1621 12.7656C17.1652 13.0296 16.9535 13.2463 16.6895 13.25L15.0479 13.2715L23.0029 21.2266L23.0059 19.5459C23.0066 19.282 23.2214 19.0684 23.4854 19.0684C23.7492 19.0692 23.9635 19.284 23.9629 19.5479L23.958 22.4844C23.9574 22.7459 23.7469 22.9582 23.4854 22.9619L20.5811 23H20.5752C20.3138 23 20.1005 22.7903 20.0967 22.5283C20.0936 22.2643 20.3053 22.0477 20.5693 22.0439L22.4434 22.0195L14.2568 13.833L14.2529 15.748C14.2522 16.012 14.0384 16.2256 13.7744 16.2256C13.5106 16.2249 13.2965 16.0109 13.2969 15.7471L13.3018 12.8096C13.3024 12.5482 13.5121 12.336 13.7734 12.332L16.6777 12.2939H16.6836ZM11.2266 12.332C11.4881 12.3358 11.6976 12.5481 11.6982 12.8096L11.7031 15.7471C11.7035 16.0108 11.4893 16.2248 11.2256 16.2256C10.9616 16.2256 10.7478 16.012 10.7471 15.748L10.7441 13.832L2.60742 21.9688L4.41406 21.9922C4.67791 21.9959 4.88861 22.2128 4.88574 22.4766C4.88201 22.7386 4.66954 22.949 4.4082 22.9492H4.40137L1.49707 22.9111C1.23579 22.9072 1.0261 22.6949 1.02539 22.4336L1.02051 19.4961C1.02 19.2322 1.23509 19.0182 1.49902 19.0176C1.76289 19.0177 1.97594 19.2312 1.97656 19.4951L1.98047 21.2432L9.95215 13.2715L8.30957 13.25C8.04579 13.246 7.83478 13.0295 7.83789 12.7656C7.84178 12.5036 8.05499 12.2939 8.31641 12.2939H8.32227L11.2266 12.332ZM4.38672 0C4.64812 2.26265e-05 4.86134 0.209689 4.86523 0.47168C4.86835 0.73569 4.65659 0.952319 4.39258 0.956055L2.56738 0.980469L10.7432 9.15625L10.7461 7.24023C10.7468 6.97628 10.9616 6.7627 11.2256 6.7627C11.4894 6.76341 11.7035 6.97744 11.7031 7.24121L11.6982 10.1787C11.6976 10.4402 11.4871 10.6525 11.2256 10.6562L8.32227 10.6953H8.31543C8.05403 10.6952 7.84163 10.4847 7.83789 10.2227C7.83429 9.95876 8.04564 9.74202 8.30957 9.73828L9.95117 9.7168L1.95898 1.72461L1.95606 3.4541C1.95534 3.71803 1.74149 3.93164 1.47754 3.93164C1.2137 3.93099 0.999621 3.71691 1 3.45312L1.00391 0.515625C1.00453 0.254106 1.21504 0.0418219 1.47656 0.0380859L4.38086 0H4.38672ZM23.5205 0.0380859C23.782 0.0418722 23.9916 0.254138 23.9922 0.515625L23.9971 3.45312C23.9974 3.71681 23.7832 3.93082 23.5195 3.93164C23.2556 3.93164 23.0417 3.71803 23.041 3.4541L23.0381 1.72754L15.0488 9.7168L16.6895 9.73828C16.9534 9.74202 17.1657 9.95877 17.1621 10.2227C17.1584 10.4848 16.9451 10.6953 16.6836 10.6953H16.6777L13.7734 10.6562C13.5121 10.6523 13.3024 10.4401 13.3018 10.1787L13.2969 7.24121C13.2965 6.97738 13.5115 6.76332 13.7754 6.7627C14.0392 6.76286 14.2522 6.97638 14.2529 7.24023L14.2568 9.15625L22.4326 0.980469L20.6045 0.956055C20.3405 0.952319 20.1297 0.73569 20.1328 0.47168C20.1367 0.209796 20.3491 0.000185755 20.6104 0H20.6172L23.5205 0.0380859Z" fill="currentColor"/>
</svg>
