<svg width="24" height="24" viewBox="0 0 24 24" fill="none" xmlns="http://www.w3.org/2000/svg">
<path d="M3.31055 8.13574C4.88538 8.13574 6.20212 9.24398 6.53516 10.7197H7.45996C9.14898 10.7197 10.4147 11.1643 11.2236 12.04C12.2088 13.1084 12.1167 14.4141 12.1123 14.4697L12.1133 21.3848L15.0908 18.4854C15.2809 18.3006 15.5858 18.3054 15.7695 18.4941C15.9544 18.6841 15.9505 18.9878 15.7607 19.1729L11.9707 22.8643C11.8776 22.9546 11.7562 23 11.6357 23C11.5133 22.9999 11.3906 22.9534 11.2969 22.8604L7.50879 19.084C7.32074 18.8972 7.32026 18.5928 7.50684 18.4053C7.69364 18.2172 7.99736 18.2167 8.18555 18.4033L11.1533 21.3613V14.4307C11.1554 14.3823 11.2097 13.4319 10.5078 12.6807C9.88768 12.0169 8.86197 11.6797 7.45996 11.6797H6.59766C6.4756 13.3952 5.05604 14.7578 3.31055 14.7578C1.48524 14.7578 0 13.2722 0 11.4463C0.000177362 9.62112 1.48535 8.13579 3.31055 8.13574ZM11.6357 0C11.6497 0 11.6621 0.0066404 11.6758 0.0078125C11.7239 0.0118724 11.772 0.0176713 11.8174 0.0361328C11.8548 0.051492 11.885 0.0776978 11.917 0.101562C11.9343 0.11437 11.9548 0.121188 11.9707 0.136719L15.7607 3.82715C15.9508 4.01218 15.9546 4.3168 15.7695 4.50684C15.5858 4.69601 15.2808 4.70153 15.0908 4.51562L12.1162 1.61816V8.21484C12.1143 8.25985 12.0585 9.21318 12.7617 9.96582C13.3819 10.6295 14.4076 10.9668 15.8096 10.9668H16.4336C16.6686 9.37009 18.0344 8.13574 19.6953 8.13574C21.5211 8.13583 23.0067 9.62111 23.0068 11.4463C23.0068 13.2722 21.5212 14.7577 19.6953 14.7578C18.0343 14.7578 16.6676 13.5241 16.4326 11.9268H15.8096C14.1206 11.9268 12.8548 11.4821 12.0459 10.6064C11.0619 9.5394 11.1526 8.23532 11.1572 8.17676L11.1562 1.63574L8.18652 4.59668C8.09285 4.68973 7.97005 4.73721 7.84766 4.7373C7.72451 4.7373 7.6006 4.6901 7.50684 4.5957C7.3202 4.40815 7.32072 4.10444 7.50879 3.91699L11.2969 0.139648C11.3028 0.133731 11.3113 0.132377 11.3174 0.126953C11.3575 0.0906962 11.4015 0.0582071 11.4521 0.0371094C11.5104 0.0128861 11.5726 0.00015628 11.6348 0H11.6357ZM3.31055 9.0957C2.01482 9.09575 0.960138 10.1506 0.959961 11.4463C0.959961 12.7428 2.01471 13.7978 3.31055 13.7979C4.60642 13.7979 5.66113 12.7428 5.66113 11.4463C5.66096 10.1506 4.60631 9.0957 3.31055 9.0957ZM19.6953 9.0957C18.3995 9.0957 17.3449 10.1505 17.3447 11.4463C17.3447 12.7428 18.3994 13.7979 19.6953 13.7979C20.9917 13.7978 22.0459 12.7427 22.0459 11.4463C22.0458 10.1506 20.9916 9.09579 19.6953 9.0957Z" fill="currentColor"/>
</svg>
