<svg width="24" height="24" viewBox="0 0 24 24" fill="none" xmlns="http://www.w3.org/2000/svg">
<path d="M15.7618 18.2849H5V21.1921C5 22.1877 5.80621 23 6.80788 23H17.5697V20.0927C17.5697 19.0911 16.7574 18.2849 15.7618 18.2849ZM16.3481 21.7724H6.80788C6.48417 21.7724 6.22154 21.5097 6.22154 21.186V19.5003H15.7618C16.0855 19.5003 16.3481 19.7629 16.3481 20.0866V21.7724Z" fill="currentColor"/>
<path d="M6.29453 4.60966C6.4289 4.60966 6.55105 4.57302 6.66099 4.51194L7.76649 9.09273H14.8026L15.8959 4.56691C16.018 4.6402 16.1585 4.69517 16.3112 4.69517C16.7632 4.69517 17.1357 4.32871 17.1357 3.87063C17.1357 3.41866 16.7693 3.04609 16.3112 3.04609C15.8531 3.04609 15.4866 3.41255 15.4866 3.87063C15.4866 3.96224 15.5111 4.04164 15.5355 4.12715C14.2101 4.04775 12.9214 3.63243 11.8037 2.91172L11.37 2.63076C11.7793 2.58801 12.103 2.25208 12.103 1.82454C12.103 1.37257 11.7365 1 11.2784 1C10.8265 1 10.4539 1.36646 10.4539 1.82454C10.4539 2.25208 10.7837 2.58801 11.199 2.63076L11.1135 2.69184C9.91639 3.55303 8.49941 4.04775 7.03356 4.12715C7.08242 4.02332 7.11296 3.90727 7.11296 3.78512C7.11296 3.33315 6.74649 2.96058 6.28841 2.96058C5.83033 2.96058 5.46387 3.32704 5.46387 3.78512C5.47608 4.2432 5.84256 4.60966 6.29453 4.60966Z" fill="currentColor"/>
<path d="M14.5583 10.6686H8.01695C8.01084 10.8091 8.01695 10.9435 7.99251 11.0779L7.16797 16.9474H15.4012L14.5766 11.0779C14.5583 10.9435 14.5583 10.803 14.5583 10.6686Z" fill="currentColor"/>
</svg>
