<svg width="24" height="24" viewBox="0 0 24 24" fill="none" xmlns="http://www.w3.org/2000/svg">
<path d="M22.9565 15.7068L20.3752 6.40806C19.9327 4.82242 18.4762 3.71002 16.8291 3.71002H7.33984C5.6866 3.71002 4.22389 4.82242 3.78753 6.42035L1.25543 15.6945C0.708447 17.5198 1.69179 19.4127 3.49867 20.015C3.86128 20.1379 4.23003 20.1932 4.59878 20.1932C5.74806 20.1932 6.85432 19.6278 7.51193 18.6383L8.10193 17.7533C8.29246 17.4706 8.21256 17.0896 7.92985 16.8991C7.64714 16.7085 7.2661 16.7884 7.07558 17.0711L6.48557 17.9562C5.92015 18.8043 4.85076 19.173 3.87971 18.8473C2.712 18.4601 2.07283 17.2248 2.42929 16.0325L4.96754 6.74608C5.25639 5.68285 6.22744 4.9392 7.3337 4.9392H16.8229C17.923 4.9392 18.8941 5.6767 19.1829 6.73379L21.7642 16.0448C22.1207 17.2248 21.4815 18.4601 20.3076 18.8473C19.3427 19.173 18.2672 18.8043 17.7018 17.9562L17.1179 17.0773C16.9274 16.7946 16.5464 16.7147 16.2637 16.9052C15.9809 17.0957 15.9072 17.4768 16.0916 17.7595L16.6754 18.6383C17.5481 19.9474 19.2014 20.5128 20.6887 20.015C22.514 19.4189 23.4973 17.5198 22.9565 15.7068Z" fill="currentColor"/>
<path d="M7.84396 16.4258C8.36021 16.4258 8.84572 16.2722 9.2575 16.0141H14.9363C15.3481 16.2722 15.8274 16.4258 16.3498 16.4258C17.8371 16.4258 19.0417 15.2151 19.0417 13.7339C19.0417 12.2528 17.831 11.0421 16.3498 11.0421C14.8687 11.0421 13.6579 12.2528 13.6579 13.7339C13.6579 14.1088 13.7378 14.4653 13.8731 14.7849H10.3269C10.4621 14.4592 10.542 14.1027 10.542 13.7339C10.542 12.2466 9.33125 11.0421 7.8501 11.0421C6.36894 11.0421 5.1582 12.2528 5.1582 13.7339C5.1582 15.2151 6.35665 16.4258 7.84396 16.4258ZM16.3437 12.2712C17.1488 12.2712 17.8064 12.9288 17.8064 13.7339C17.8064 14.5391 17.1488 15.1967 16.3437 15.1967C15.5386 15.1967 14.881 14.5391 14.881 13.7339C14.881 12.9288 15.5386 12.2712 16.3437 12.2712ZM7.84396 12.2712C8.64906 12.2712 9.30667 12.9288 9.30667 13.7339C9.30667 14.5391 8.64906 15.1967 7.84396 15.1967C7.03885 15.1967 6.38123 14.5391 6.38123 13.7339C6.38123 12.9288 7.0327 12.2712 7.84396 12.2712Z" fill="currentColor"/>
<path d="M8.12035 6.0639C7.78233 6.0639 7.50576 6.34047 7.50576 6.67849V7.64339H6.54086C6.20283 7.64339 5.92627 7.91996 5.92627 8.25798C5.92627 8.596 6.20283 8.87257 6.54086 8.87257H7.50576V9.83747C7.50576 10.1755 7.78233 10.4521 8.12035 10.4521C8.45837 10.4521 8.73494 10.1755 8.73494 9.83747V8.87257H9.69983C10.0379 8.87257 10.3144 8.596 10.3144 8.25798C10.3144 7.91996 10.0379 7.64339 9.69983 7.64339H8.73494V6.67849C8.73494 6.34047 8.46452 6.0639 8.12035 6.0639Z" fill="currentColor"/>
<path d="M16.0116 7.58807C16.3189 7.58807 16.5647 7.34223 16.5647 7.03494C16.5647 6.72765 16.3189 6.48181 16.0116 6.48181C15.7043 6.48181 15.4585 6.72765 15.4585 7.03494C15.4585 7.34223 15.7043 7.58807 16.0116 7.58807Z" fill="currentColor"/>
<path d="M16.0116 10.0587C16.3189 10.0587 16.5647 9.81288 16.5647 9.50558C16.5647 9.19829 16.3189 8.95245 16.0116 8.95245C15.7043 8.95245 15.4585 9.19829 15.4585 9.50558C15.4585 9.80673 15.7043 10.0587 16.0116 10.0587Z" fill="currentColor"/>
<path d="M17.8431 8.24566C17.8431 7.93837 17.5972 7.69254 17.29 7.69254C16.9827 7.69254 16.7368 7.93837 16.7368 8.24566C16.7368 8.55296 16.9827 8.79879 17.29 8.79879C17.5972 8.79879 17.8431 8.55296 17.8431 8.24566Z" fill="currentColor"/>
<path d="M15.3602 8.24566C15.3602 7.93837 15.1143 7.69254 14.807 7.69254C14.4997 7.69254 14.2539 7.93837 14.2539 8.24566C14.2539 8.55296 14.4997 8.79879 14.807 8.79879C15.1143 8.79879 15.3602 8.55296 15.3602 8.24566Z" fill="currentColor"/>
</svg>
