<svg width="24" height="24" viewBox="0 0 24 24" fill="none" xmlns="http://www.w3.org/2000/svg">
<path d="M22.9793 15.07L21.0796 9.9676L22.099 7.97527C22.3017 7.57565 22.3191 7.11232 22.1453 6.70111C21.9716 6.2899 21.6299 5.97715 21.2071 5.84395L10.423 2.41529C10.2782 2.36895 10.116 2.38054 9.98284 2.45004C9.92492 2.479 9.88438 2.51954 9.83805 2.56587C8.88822 2.42108 7.8573 2.34 6.80901 2.34C5.63909 2.34 4.52131 2.43266 3.48461 2.60641C3.20661 2.65275 3.00391 2.89599 3.00391 3.17979V4.78987C3.00391 4.95782 3.07919 5.11999 3.2124 5.23003C3.31665 5.31691 3.44986 5.36903 3.58307 5.36903C3.61782 5.36903 3.64677 5.36903 3.68152 5.36324C5.28002 5.09103 7.21444 5.03891 8.92298 5.22424L8.6218 6.17407C8.52334 6.47524 8.69131 6.79957 8.99247 6.89803L12.9192 8.18377L12.4153 9.92127C12.3748 10.0545 12.398 10.1877 12.4443 10.3035C12.4443 10.3093 12.4443 10.3151 12.4443 10.3151L15.1953 17.8211C15.2822 18.0527 15.5023 18.2033 15.7397 18.2033C15.8035 18.2033 15.8672 18.1917 15.9309 18.1686L18.8325 17.1435C18.7051 18.2265 18.2128 19.2169 17.4019 19.9814C16.4579 20.8675 15.2243 21.3134 13.927 21.2382C11.4829 21.0934 9.56584 18.962 9.56584 16.3905V15.8693C9.56584 15.5508 9.30522 15.2901 8.98668 15.2901C8.66813 15.2901 8.40751 15.5508 8.40751 15.8693V16.3905C8.40751 19.5702 10.7995 22.2112 13.8575 22.3907C13.9791 22.3965 14.1007 22.4023 14.2223 22.4023C15.7108 22.4023 17.1124 21.8463 18.2012 20.8212C19.3306 19.7555 19.985 18.2728 20.0198 16.7265L22.626 15.8056C22.7708 15.7535 22.8924 15.6434 22.9561 15.5044C23.0256 15.377 23.0314 15.2148 22.9793 15.07ZM4.16802 4.11803V3.67787C5.82443 3.4462 7.75884 3.45199 9.42105 3.67208L9.28205 4.10645C7.62564 3.90953 5.78968 3.90374 4.16802 4.11803ZM16.0872 16.8944L13.5795 10.0545L14.1876 7.96948C14.2745 7.66832 14.1065 7.35557 13.8111 7.25711L9.90175 5.97136L10.6257 3.68945L20.8596 6.94436C20.9986 6.9849 21.0565 7.08915 21.0796 7.14707C21.1028 7.20498 21.1318 7.32082 21.0681 7.44823C21.0681 7.44823 19.9329 9.66644 19.9271 9.67802C19.8982 9.74173 19.8808 9.82281 19.875 9.89231C19.8692 9.9676 19.8808 10.0487 19.9039 10.1356L21.6878 14.9253L16.0872 16.8944Z" fill="currentColor"/>
<path d="M4.02871 6.1567C3.91867 6.0235 3.75651 5.94241 3.58276 5.94241C3.40901 5.94241 3.24683 6.0177 3.13679 6.1567L1.61358 8.02162C0.75642 9.06991 0.825931 10.6105 1.76997 11.5371C2.25647 12.0121 2.90513 12.2727 3.58854 12.2727C3.59433 12.2727 3.59434 12.2727 3.60013 12.2727C4.28934 12.2669 4.93221 12.0063 5.4187 11.5256C6.35695 10.6047 6.42066 9.06411 5.5635 8.02162L4.02871 6.1567ZM4.60208 10.6974C4.33566 10.9638 3.97658 11.1086 3.58854 11.1086H3.58276C3.20051 11.1086 2.84143 10.9638 2.56922 10.7032C2.04797 10.1993 2.019 9.34211 2.49971 8.75136L3.57696 7.43666L4.66 8.75136C5.1465 9.33632 5.11754 10.1935 4.60208 10.6974Z" fill="currentColor"/>
<path d="M17.8822 8.60076C17.8822 8.60076 15.0791 9.59693 15.0733 9.59693C14.998 9.63747 14.9285 9.67222 14.8706 9.73014C14.8127 9.78805 14.7663 9.85755 14.7374 9.93864C14.691 10.0603 14.6795 10.2166 14.7258 10.3383L16.4227 14.989C16.4807 15.1511 16.6139 15.2843 16.7818 15.3365C16.8455 15.3596 16.9034 15.3654 16.9672 15.3654C17.0772 15.3654 17.1814 15.3365 17.2741 15.2785L19.8572 13.6511C20.0888 13.5063 20.1873 13.2167 20.0946 12.9619L18.6236 8.94247C18.5135 8.6471 18.1834 8.49072 17.8822 8.60076ZM17.2683 13.9175L16.2895 11.236L16.6544 11.4039L17.0367 12.319C17.1293 12.5391 17.3436 12.6723 17.5695 12.6723C17.6448 12.6723 17.7201 12.6549 17.7954 12.626C18.0907 12.5043 18.2297 12.1626 18.1081 11.8673L17.639 10.7437C17.5811 10.6105 17.4768 10.5004 17.3436 10.4425L16.8166 10.2051L17.7317 9.88072L18.8436 12.9213L17.2683 13.9175Z" fill="currentColor"/>
</svg>
