<svg width="24" height="24" viewBox="0 0 24 24" fill="none" xmlns="http://www.w3.org/2000/svg">
<path d="M20.4989 7.19207C20.7305 6.96628 20.9274 6.71155 21.0953 6.42207C21.7089 5.33365 21.6916 4.04839 21.0489 2.98313C20.4063 1.91208 19.2658 1.26944 18.0326 1.32734C16.7879 1.35629 15.6937 2.03365 15.1032 3.13365L13.8932 5.40313C13.5747 4.67365 12.8453 4.16418 12 4.16418C11.1547 4.16418 10.4253 4.67365 10.1068 5.40313L8.89684 3.13365C8.3121 2.03365 7.21211 1.35629 5.96737 1.32734C4.72842 1.29839 3.59369 1.91787 2.95105 2.98313C2.30842 4.05418 2.29105 5.33944 2.90474 6.42207C3.0379 6.65365 3.19421 6.86207 3.36789 7.05313H1.57895C1.26053 7.05313 1 7.31365 1 7.63208V10.6079C1 10.9263 1.26053 11.1868 1.57895 11.1868H2.48789V19.7031C2.48789 21.6194 4.05105 23.1826 5.96737 23.1826H20.9274C21.2458 23.1826 21.5063 22.9221 21.5063 22.6037V11.1926H22.4211C22.7395 11.1926 23 10.9321 23 10.6137V10.5268C23 8.94629 21.9405 7.61471 20.4989 7.19207ZM16.1221 3.67786C16.51 2.94839 17.2337 2.5026 18.0558 2.47944C18.0789 2.47944 18.0963 2.47944 18.1137 2.47944C18.9126 2.47944 19.6363 2.88471 20.0474 3.57365C20.47 4.27997 20.4816 5.13102 20.0763 5.84892C19.6711 6.56681 18.9358 6.99523 18.1079 6.99523H14.3447L16.1221 3.67786ZM11.0911 6.23102C11.0911 5.72734 11.5021 5.32208 12 5.32208C12.5037 5.32208 12.9089 5.73313 12.9089 6.23102V7.00102H11.0911V6.23102ZM3.94684 3.57944C4.35789 2.8905 5.08158 2.48523 5.88053 2.48523C5.89789 2.48523 5.92105 2.48523 5.93842 2.48523C6.76053 2.50839 7.48421 2.95418 7.87211 3.68365L9.64368 7.00681H5.88053C5.05842 7.00681 4.32316 6.57839 3.9179 5.8605C3.50684 5.13681 3.51842 4.28576 3.94684 3.57944ZM20.3542 22.0247H5.96737C4.6879 22.0247 3.64579 20.9826 3.64579 19.7031V11.1926H20.3542V22.0247ZM20.9332 10.0347H3.06684H2.15789V8.21681H19.5321C20.6379 8.21681 21.5642 8.99839 21.79 10.0347H20.9332Z" fill="currentColor"/>
</svg>
