<svg width="24" height="24" viewBox="0 0 24 24" fill="none" xmlns="http://www.w3.org/2000/svg">
<path d="M22.9883 7.42759C22.9246 6.7618 22.6004 6.16549 22.0851 5.73707C21.5699 5.30865 20.9214 5.1176 20.2556 5.18129C19.5899 5.24497 18.9935 5.56918 18.5651 6.08444L15.543 9.76652H10.211C9.34836 8.38863 7.85469 7.54337 6.21049 7.54337C4.53155 7.54337 2.96261 8.44653 2.11736 9.90546C1.95525 10.1834 2.05368 10.5365 2.32578 10.6986C2.60368 10.8607 2.95683 10.7623 3.11893 10.4902C3.75577 9.3902 4.93681 8.70705 6.21049 8.70705C7.50732 8.70705 8.68257 9.40757 9.31941 10.5307C9.3773 10.716 9.52203 10.8491 9.71309 10.9012C9.74782 10.9128 9.77678 10.9186 9.81151 10.9186C9.82888 10.9186 9.84625 10.9302 9.86362 10.9302H15.0973C14.831 12.2502 13.6615 13.2402 12.2662 13.2402H7.76205C7.44363 13.2402 7.18311 13.5007 7.18311 13.8191C7.18311 14.1375 7.44363 14.3981 7.76205 14.3981H12.2662C14.3909 14.3981 16.1336 12.7539 16.3015 10.6755L19.4683 6.8197C19.6941 6.5418 20.0183 6.36812 20.3772 6.33338C20.7304 6.29865 21.0835 6.40286 21.3614 6.63443C21.9346 7.10338 22.0156 7.95442 21.5467 8.52758L15.873 15.4575C15.2304 16.2391 14.2867 16.6907 13.2736 16.6907H1.57894C1.26052 16.6907 1 16.9512 1 17.2696C1 17.588 1.26052 17.8486 1.57894 17.8486H13.262C14.6225 17.8486 15.8962 17.2465 16.7588 16.1928L22.4325 9.26283C22.8551 8.74179 23.0519 8.09337 22.9883 7.42759Z" fill="currentColor"/>
</svg>
