<svg width="24" height="24" viewBox="0 0 24 24" fill="none" xmlns="http://www.w3.org/2000/svg">
<path d="M8.70977 10.1505C7.69082 9.13158 6.17398 8.91737 4.93503 9.49053V7.34264C4.93503 6.26001 4.05503 5.38 2.9724 5.38C1.88977 5.38 1.00977 6.26001 1.00977 7.34264V12.6747C1.00977 13.7574 1.49609 14.759 2.34714 15.4247L5.20135 17.6711V18.6611C5.20135 18.9795 5.46187 19.24 5.78029 19.24C6.09872 19.24 6.35924 18.9795 6.35924 18.6611V17.3932C6.35924 17.2137 6.27819 17.0458 6.13924 16.9358L3.06503 14.5158C2.49766 14.07 2.17346 13.3984 2.17346 12.6747V7.34264C2.17346 6.89685 2.53819 6.5379 2.97819 6.5379C3.41819 6.5379 3.78293 6.90264 3.78293 7.34264V10.4284C3.78293 10.4747 3.80029 10.5095 3.80608 10.5558C3.80608 10.5558 3.80608 10.5558 3.80608 10.5616C3.80608 10.7179 3.86977 10.8626 3.97398 10.9726L7.05977 14.0584C7.28556 14.2842 7.65029 14.2842 7.87608 14.0584C8.10187 13.8326 8.10187 13.4679 7.87608 13.2421L5.25345 10.6195C6.09292 10.1447 7.18134 10.2663 7.91082 10.99L9.93713 12.8542V18.6668C9.93713 18.9853 10.1977 19.2458 10.5161 19.2458C10.8345 19.2458 11.095 18.9853 11.095 18.6668V12.5937C11.095 12.4316 11.0256 12.2753 10.9098 12.1653L8.70977 10.1505Z" fill="currentColor"/>
<path d="M21.0413 5.38C19.9587 5.38 19.0787 6.26001 19.0787 7.34264V9.48474C18.6445 9.28211 18.1697 9.16632 17.6719 9.16632C16.7745 9.16632 15.935 9.51369 15.3213 10.1332L13.104 12.1653C12.9824 12.2753 12.9187 12.4316 12.9187 12.5937V18.6611C12.9187 18.9795 13.1792 19.24 13.4976 19.24C13.8161 19.24 14.0766 18.9795 14.0766 18.6611V12.8484L16.1261 10.9668C16.815 10.2779 17.9382 10.139 18.7661 10.6137L16.1434 13.2363C15.9176 13.4621 15.9176 13.8268 16.1434 14.0526C16.3692 14.2784 16.734 14.2784 16.9598 14.0526L20.0455 10.9668C20.1613 10.8511 20.2134 10.7063 20.2134 10.5558C20.225 10.5153 20.2366 10.4747 20.2366 10.4284V7.34264C20.2366 6.89685 20.5955 6.5379 21.0413 6.5379C21.4871 6.5379 21.8461 6.90264 21.8461 7.34264V12.6747C21.8461 13.3984 21.5219 14.07 20.9545 14.5158L17.8803 16.9358C17.7413 17.0458 17.6603 17.2137 17.6603 17.3932V18.6611C17.6603 18.9795 17.9208 19.24 18.2392 19.24C18.5577 19.24 18.8182 18.9795 18.8182 18.6611V17.6711L21.6724 15.4247C22.5234 14.759 23.0097 13.7516 23.0097 12.6747V7.34264C23.004 6.26001 22.124 5.38 21.0413 5.38Z" fill="currentColor"/>
</svg>
