<svg width="24" height="24" viewBox="0 0 24 24" fill="none" xmlns="http://www.w3.org/2000/svg">
<path d="M22.5371 13.9491L20.3498 5.06111C20.0721 3.93276 19.071 3.14001 17.9079 3.14001H16.4498C16.1315 3.14001 15.8711 3.4004 15.8711 3.71866C15.8711 4.03691 16.1315 4.2973 16.4498 4.2973H17.9079C18.5329 4.2973 19.0768 4.7255 19.2272 5.33307L20.8706 12.0106C20.1241 11.513 19.233 11.2237 18.2725 11.2237C15.9637 11.2237 14.0368 12.8901 13.6318 15.089C13.1515 14.7939 12.5902 14.6319 12.0058 14.6319H12C11.4098 14.6319 10.8485 14.8055 10.3624 15.1006C9.96318 12.9017 8.0363 11.2237 5.72172 11.2237C4.75539 11.2237 3.8585 11.513 3.11205 12.0164L4.75539 5.33307C4.90584 4.7255 5.44398 4.2973 6.0747 4.2973H7.53288C7.85113 4.2973 8.11152 4.03691 8.11152 3.71866C8.11152 3.4004 7.85113 3.14001 7.53288 3.14001H6.0747C4.91163 3.14001 3.90479 3.92697 3.63282 5.05532L1.43398 13.9722C1.15623 14.5798 1 15.2452 1 15.9454C1 18.5493 3.11783 20.6671 5.72172 20.6671C8.08837 20.6671 10.0442 18.9138 10.3856 16.6455C10.7617 16.1074 11.3403 15.7949 12.0058 15.7949H12.0116C12.6539 15.7949 13.2267 16.0958 13.6086 16.6166C13.9327 18.9022 15.9001 20.6729 18.2783 20.6729C20.8822 20.6729 23 18.5551 23 15.9512C22.9884 15.2337 22.8264 14.5566 22.5371 13.9491ZM5.72172 19.5098C3.75434 19.5098 2.15729 17.9128 2.15729 15.9454C2.15729 13.978 3.75434 12.3809 5.72172 12.3809C7.68911 12.3809 9.28616 13.978 9.28616 15.9454C9.28616 17.9128 7.68332 19.5098 5.72172 19.5098ZM18.2667 19.5098C16.2993 19.5098 14.7023 17.9128 14.7023 15.9454C14.7023 13.978 16.2993 12.3809 18.2667 12.3809C20.2341 12.3809 21.8311 13.9838 21.8311 15.9454C21.8311 17.907 20.2341 19.5098 18.2667 19.5098Z" fill="currentColor"/>
</svg>
