<svg width="24" height="24" viewBox="0 0 24 24" fill="none" xmlns="http://www.w3.org/2000/svg">
<path d="M22.7947 10.2357C22.7947 10.2242 22.7889 10.2126 22.7889 10.201C21.8395 5.0947 17.3584 1.20996 11.98 1.20996C5.9184 1.20996 0.97998 6.14838 0.97998 12.21C0.97998 18.2715 5.91261 23.21 11.98 23.21C18.0416 23.21 22.98 18.2715 22.98 12.21C22.98 11.5326 22.9105 10.8784 22.7947 10.2357ZM21.3821 9.29206L18.6842 8.23259C18.4642 8.12259 18.221 8.07627 17.9721 8.08785L15.9747 8.22101C15.8184 8.23259 15.6621 8.26732 15.5173 8.33101L14.2031 8.89259L14.0931 7.35838L16.7389 6.88364C17.2484 6.79101 17.6653 6.42627 17.8216 5.93416L18.2384 4.61417C19.7031 5.82417 20.8089 7.44522 21.3821 9.29206ZM7.69577 3.36364L8.56998 4.97312C8.61051 5.04838 8.60472 5.14101 8.55841 5.21628L7.07051 7.43943C7.03577 7.49154 6.98367 7.52627 6.91999 7.53785L4.55208 7.98364C4.31472 8.02996 4.08893 8.13417 3.90367 8.29627L2.53735 9.46575C3.32472 6.77364 5.21788 4.56785 7.69577 3.36364ZM2.18999 13.171L6.89104 14.8731C7.00683 14.9136 7.07051 15.0468 7.02998 15.1684L6.17893 17.6984C6.07472 18.011 6.0863 18.3526 6.20787 18.6594L7.02998 20.7031C4.37261 19.1458 2.50262 16.3842 2.18999 13.171ZM11.98 22.0521C10.7816 22.0521 9.63525 21.8263 8.57578 21.4326L7.28472 18.2252C7.26156 18.1731 7.26156 18.1152 7.27893 18.0631L8.12998 15.5331C8.36735 14.821 7.99103 14.0394 7.28472 13.7847L2.15524 11.9263C2.16103 11.7005 2.16683 11.4747 2.18999 11.2547C2.23051 11.2373 2.26524 11.22 2.29998 11.191L4.66209 9.17049C4.69103 9.14733 4.73156 9.12416 4.77209 9.11838L7.13998 8.67259C7.50472 8.60312 7.83472 8.38891 8.03735 8.08206L9.52525 5.85891C9.81472 5.4247 9.83788 4.87469 9.58893 4.41733L8.77262 2.91785C9.77998 2.57049 10.8568 2.36786 11.9858 2.36786C13.9252 2.36786 15.7258 2.94101 17.2542 3.91364L16.7216 5.59259C16.6926 5.67364 16.6231 5.73733 16.5421 5.74891L13.7863 6.24101C13.2595 6.33364 12.8947 6.80838 12.9352 7.34101L13.0684 9.14732C13.0916 9.48311 13.2768 9.78417 13.5663 9.95786C13.85 10.1315 14.2089 10.1547 14.5158 10.0273L15.9805 9.40206C16.0037 9.39048 16.0326 9.3847 16.0558 9.3847L18.0531 9.25154C18.0995 9.24575 18.14 9.25732 18.1805 9.28048C18.1979 9.29206 18.221 9.29785 18.2384 9.30943L21.6947 10.6642C21.7758 11.1736 21.8279 11.6889 21.8279 12.2157C21.8279 12.3779 21.8105 12.54 21.8047 12.7021L15.8358 12.0768C15.61 12.0536 15.39 12.0768 15.17 12.1405L11.9973 13.1015C11.3142 13.31 10.8568 13.9236 10.88 14.601L10.9668 17.2468C10.99 17.8605 11.3895 18.3989 11.9916 18.6189L14.1105 19.3947C14.2379 19.441 14.3363 19.5336 14.3652 19.6494L14.9268 21.6063C14.0005 21.89 13.0105 22.0521 11.98 22.0521ZM16.0152 21.1779L15.4826 19.3194C15.3495 18.8563 14.9847 18.4742 14.51 18.3005L12.391 17.5247C12.2347 17.4668 12.1247 17.3394 12.1247 17.2005L12.0379 14.5547C12.0321 14.3984 12.1537 14.2536 12.3331 14.2015L15.5058 13.2405C15.5695 13.2231 15.6447 13.2173 15.7142 13.2231L21.6773 13.8484C21.1273 17.1194 18.9563 19.8463 16.0152 21.1779Z" fill="currentColor"/>
</svg>
