<svg width="24" height="24" viewBox="0 0 24 24" fill="none" xmlns="http://www.w3.org/2000/svg">
<path d="M6.30103 18.3913H4.98507V11.5691C4.98965 11.5043 4.98016 11.4393 4.95725 11.3785C4.93433 11.3178 4.89854 11.2627 4.85232 11.217C4.76557 11.1517 4.66213 11.1122 4.5539 11.103C4.44568 11.0938 4.33705 11.1153 4.24052 11.1651C4.13554 11.2046 4.03495 11.2549 3.94039 11.3152L2.37625 12.3483C2.27478 12.4079 2.19569 12.4991 2.15115 12.608C2.12244 12.704 2.12244 12.8064 2.15115 12.9024C2.18019 12.9901 2.22739 13.0707 2.28967 13.139C2.35846 13.2091 2.45131 13.2503 2.5494 13.2545C2.66298 13.2625 2.77618 13.2342 2.87262 13.1737L3.92307 12.481V18.3913H2.50323C2.37244 18.3875 2.24423 18.4282 2.13961 18.5067C2.09183 18.5502 2.05454 18.604 2.03055 18.664C2.00655 18.724 1.99648 18.7886 2.00109 18.853C1.99837 18.9181 2.00929 18.9831 2.03314 19.0437C2.057 19.1044 2.09326 19.1593 2.13961 19.2051C2.24036 19.292 2.37032 19.3373 2.50323 19.3321H6.30103C6.43325 19.3395 6.56332 19.2962 6.66465 19.2109C6.71268 19.1651 6.75 19.1093 6.77394 19.0475C6.79789 18.9856 6.80787 18.9192 6.80317 18.853C6.80735 18.7886 6.79709 18.7241 6.77312 18.6642C6.74915 18.6043 6.71209 18.5505 6.66465 18.5067C6.56003 18.4282 6.43182 18.3875 6.30103 18.3913Z" fill="currentColor"/>
<path d="M13.5159 16.7925C13.5261 16.3178 13.4191 15.848 13.2042 15.4246C13.0033 15.0427 12.6994 14.7248 12.3269 14.5069C11.935 14.3014 11.5011 14.1889 11.0588 14.1779C10.6164 14.1668 10.1775 14.2577 9.77583 14.4434C9.60725 14.5285 9.45175 14.6374 9.31409 14.7666V12.1174H12.6155C12.682 12.1224 12.7489 12.1143 12.8123 12.0935C12.8757 12.0727 12.9343 12.0397 12.9849 11.9962C13.0701 11.901 13.1172 11.7777 13.1172 11.6499C13.1172 11.5221 13.0701 11.3988 12.9849 11.3036C12.8821 11.2169 12.7497 11.1735 12.6155 11.1824H8.75423C8.6873 11.1778 8.62013 11.1867 8.55669 11.2085C8.49324 11.2303 8.43481 11.2646 8.38484 11.3094C8.3367 11.3587 8.29949 11.4175 8.27562 11.4822C8.25175 11.5468 8.24177 11.6158 8.24632 11.6845V15.6382C8.24273 15.702 8.25295 15.7659 8.27628 15.8254C8.29962 15.8849 8.33553 15.9387 8.38155 15.9831C8.42757 16.0274 8.48263 16.0614 8.54296 16.0825C8.6033 16.1037 8.66748 16.1116 8.73115 16.1057C8.82784 16.1062 8.9231 16.0823 9.00819 16.0364C9.0873 15.9917 9.15768 15.933 9.21597 15.8633C9.41051 15.6196 9.657 15.4224 9.93744 15.2861C10.2127 15.1684 10.5096 15.1094 10.809 15.1129C11.0303 15.1023 11.2514 15.1391 11.4574 15.2207C11.6634 15.3023 11.8497 15.4269 12.0037 15.5862C12.3004 15.9276 12.4552 16.3695 12.4366 16.8214C12.4448 17.1207 12.3751 17.417 12.2346 17.6814C12.1073 17.9294 11.9054 18.1312 11.6574 18.2585C11.3703 18.3992 11.0535 18.4685 10.7339 18.4605C10.3874 18.4618 10.0428 18.4092 9.71234 18.3047C9.3747 18.1931 9.05565 18.0316 8.76578 17.8257C8.66927 17.7583 8.55448 17.722 8.43679 17.7218C8.33934 17.7285 8.24738 17.7694 8.17706 17.8372C8.11124 17.9015 8.06177 17.9807 8.03277 18.0681C8.00405 18.1641 8.00405 18.2664 8.03277 18.3624C8.07047 18.4654 8.14159 18.5528 8.23478 18.6106C8.59183 18.8866 8.99691 19.094 9.42953 19.2224C9.85466 19.35 10.2959 19.4161 10.7397 19.4186C11.2531 19.4319 11.7615 19.3148 12.2173 19.0781C12.6186 18.8633 12.9509 18.5391 13.1754 18.1431C13.4038 17.7299 13.5211 17.2646 13.5159 16.7925Z" fill="currentColor"/>
<path d="M9.41261 2.70371C7.33693 3.12757 5.44357 4.18414 3.99295 5.72809L4.23536 1.61285C4.24455 1.45977 4.19254 1.30932 4.0908 1.19458C3.98905 1.07985 3.84589 1.01022 3.69282 1.00104C3.53974 0.991854 3.38929 1.04386 3.27455 1.14561C3.15982 1.24735 3.0902 1.39051 3.08101 1.54358L3.04638 2.17848L2.95404 3.6849L2.85014 5.4626L2.76357 6.9113C2.76357 7.2576 2.64236 7.71357 2.97712 7.94444C3.27487 8.07428 3.59973 8.12974 3.92369 8.10605L4.69133 8.16376L6.61332 8.30229L8.34484 8.42927L9.08939 8.48698H9.18751C9.34058 8.49234 9.48952 8.43667 9.60155 8.33221C9.71358 8.22776 9.77953 8.08309 9.78488 7.93001C9.79024 7.77693 9.73457 7.628 9.63012 7.51597C9.52566 7.40394 9.38099 7.33799 9.22791 7.33263L4.45469 6.98633C5.38976 5.84872 6.58424 4.95218 7.93775 4.37207C9.29126 3.79196 10.7642 3.54523 12.2329 3.65261C13.7016 3.76 15.123 4.21835 16.3777 4.98916C17.6325 5.75997 18.6839 6.82071 19.4435 8.08223C20.2032 9.34375 20.6489 10.7692 20.7433 12.2388C20.8376 13.7083 20.5779 15.1791 19.9858 16.5274C19.3937 17.8757 18.4866 19.0622 17.3407 19.9871C16.1949 20.9121 14.8437 21.5484 13.4009 21.8428C13.2478 21.8581 13.1071 21.9336 13.0097 22.0526C12.9122 22.1717 12.8661 22.3246 12.8814 22.4777C12.8967 22.6307 12.9722 22.7715 13.0913 22.8689C13.2103 22.9663 13.3632 23.0124 13.5163 22.9971H13.6375C14.9879 22.7397 16.2735 22.216 17.4193 21.4565C18.5652 20.697 19.5483 19.7169 20.3114 18.5735C21.0745 17.43 21.6022 16.1461 21.8639 14.7965C22.1255 13.4469 22.1158 12.0588 21.8353 10.713C21.5548 9.36724 21.0092 8.09079 20.2301 6.95812C19.4511 5.82546 18.4544 4.85925 17.298 4.11586C16.1417 3.37247 14.8489 2.86678 13.495 2.62829C12.1412 2.3898 10.7534 2.42329 9.41261 2.72679V2.70371Z" fill="currentColor"/>
</svg>
