<svg width="24" height="24" viewBox="0 0 24 24" fill="none" xmlns="http://www.w3.org/2000/svg">
<path d="M23 13.5563C23 12.6299 22.3458 11.8542 21.4774 11.6631C21.6453 11.3447 21.7437 10.9857 21.7437 10.592C21.7437 9.40521 20.8753 8.44415 19.7984 8.44415H15.4389L15.9426 6.60889C16.4637 4.72731 15.52 2.74731 13.8353 2.19152L13.3547 2.02941C13.0595 1.93099 12.7353 2.08731 12.6311 2.38257L11.2416 6.22678C10.8942 7.17626 10.2747 7.9752 9.50474 8.46152L8.97211 8.79731V8.06205C8.97211 7.74363 8.71158 7.4831 8.39316 7.4831H1.57895C1.26053 7.4831 1 7.74363 1 8.06205V18.5699C1 20.4805 2.55737 22.0378 4.46789 22.0378H8.38737C8.70579 22.0378 8.96632 21.7773 8.96632 21.4589V20.4573C9.98526 20.7989 11.0447 20.9842 12.1216 20.9842H18.8547C19.9258 20.9842 20.8 20.1099 20.8 19.0389C20.8 18.7205 20.7189 18.4252 20.58 18.1647C21.3789 17.9215 21.9695 17.192 21.9695 16.312C21.9695 15.9705 21.8711 15.652 21.7147 15.3742C22.4616 15.102 23 14.3899 23 13.5563ZM7.80842 20.8799H4.46789C3.19421 20.8799 2.15789 19.8436 2.15789 18.5699V8.64099H7.80842V20.8799ZM21.0547 14.3378H16.7126C16.3942 14.3378 16.1337 14.5984 16.1337 14.9168C16.1337 14.9226 16.1395 14.9284 16.1395 14.9342C16.1395 14.9399 16.1337 14.9457 16.1337 14.9515C16.1337 15.2699 16.3942 15.5305 16.7126 15.5305H20.0242C20.4584 15.5305 20.8116 15.8836 20.8116 16.3178C20.8116 16.752 20.4584 17.1052 20.0242 17.1052H18.8547H16.7126C16.3942 17.1052 16.1337 17.3657 16.1337 17.6842C16.1337 18.0026 16.3942 18.2631 16.7126 18.2631H18.8547C19.2889 18.2631 19.6421 18.6163 19.6421 19.0505C19.6421 19.4847 19.2889 19.8378 18.8547 19.8378H12.1216C11.12 19.8378 10.13 19.6642 9.18632 19.3284L8.96632 19.2473V10.1694L10.1184 9.43994C11.1084 8.81468 11.8958 7.8131 12.33 6.62047L13.54 3.29731C14.5937 3.67941 15.1842 5.03994 14.8426 6.29047L14.1363 8.86099C14.09 9.03468 14.1247 9.21994 14.2347 9.36468C14.3447 9.50942 14.5126 9.59047 14.6979 9.59047H19.8158C20.25 9.59047 20.6032 10.0363 20.6032 10.5805C20.6032 11.1247 20.25 11.5705 19.8158 11.5705H16.73C16.4116 11.5705 16.1511 11.831 16.1511 12.1494C16.1511 12.1552 16.1568 12.161 16.1568 12.1668C16.1568 12.1726 16.1511 12.1784 16.1511 12.1842C16.1511 12.5026 16.4116 12.7631 16.73 12.7631H21.0721C21.5063 12.7631 21.8595 13.1163 21.8595 13.5505C21.8595 13.9847 21.4889 14.3378 21.0547 14.3378Z" fill="currentColor"/>
</svg>
