<svg width="24" height="24" viewBox="0 0 24 24" fill="none" xmlns="http://www.w3.org/2000/svg">
<path d="M11.6943 16.3426C11.3758 16.3426 11.1152 16.082 11.1152 15.7635V7.41284C11.1152 7.09434 11.3758 6.83374 11.6943 6.83374H14.3466C15.7133 6.83374 16.8194 8.03248 16.8194 9.50339C16.8194 10.9743 15.7075 12.173 14.3466 12.173H12.2734V15.7693C12.2734 16.082 12.0186 16.3426 11.6943 16.3426ZM12.2734 11.0091H14.3466C15.0705 11.0091 15.6612 10.3315 15.6612 9.4976C15.6612 8.6637 15.0705 7.98615 14.3466 7.98615H12.2734V11.0091Z" fill="currentColor"/>
<path d="M20.5371 16.3425H17.8848C17.5663 16.3425 17.3057 16.082 17.3057 15.7634C17.3057 15.4449 17.5663 15.1843 17.8848 15.1843H20.5371C21.2609 15.1843 21.8516 14.5068 21.8516 13.6729C21.8516 12.839 21.2609 12.1614 20.5371 12.1614H19.7784C18.4118 12.1614 17.3057 10.9627 17.3057 9.49179C17.3057 8.02088 18.4175 6.82214 19.7784 6.82214H22.4307C22.7492 6.82214 23.0098 7.08274 23.0098 7.40124C23.0098 7.71975 22.7492 7.98034 22.4307 7.98034H19.7784C19.0546 7.98034 18.4639 8.65789 18.4639 9.49179C18.4639 10.3257 19.0546 11.0032 19.7784 11.0032H20.5371C21.9037 11.0032 23.0098 12.202 23.0098 13.6729C23.0098 15.1438 21.9037 16.3425 20.5371 16.3425Z" fill="currentColor"/>
<path d="M5.64256 16.6379C3.08873 16.6379 1.00977 14.3736 1.00977 11.5939C1.00977 8.81427 3.08873 6.54999 5.64256 6.54999C6.69653 6.54999 7.72731 6.94378 8.54384 7.66186C8.78707 7.87034 8.81023 8.24096 8.59596 8.47839C8.38169 8.72161 8.01688 8.74478 7.77944 8.53051C7.1656 7.99195 6.42434 7.70819 5.63677 7.70819C3.71995 7.70819 2.16217 9.45128 2.16217 11.5939C2.16217 13.7366 3.71995 15.4797 5.63677 15.4797C7.37986 15.4797 8.82182 14.0435 9.07662 12.173H5.63677C5.31826 12.173 5.05767 11.9125 5.05767 11.5939C5.05767 11.2754 5.31826 11.0148 5.63677 11.0148H9.69047C10.009 11.0148 10.2696 11.2754 10.2696 11.5939C10.2754 14.3736 8.1964 16.6379 5.64256 16.6379Z" fill="currentColor"/>
</svg>
