<svg width="24" height="24" viewBox="0 0 24 24" fill="none" xmlns="http://www.w3.org/2000/svg">
<path d="M22.9995 15.7466C22.9995 15.0751 22.5769 14.5019 21.9863 14.2703V11.3351C21.9863 11.0399 21.7664 10.7909 21.4711 10.762L20.8053 10.6867L21.7779 10.2004C21.9748 10.102 22.0963 9.90518 22.1021 9.68518C22.1079 9.46519 21.9806 9.26256 21.7837 9.16414L11.8145 4.11584C11.6466 4.03479 11.4555 4.03479 11.2934 4.11584L1.3242 9.16414C1.12158 9.26256 1 9.46519 1 9.67939C1 9.8936 1.12737 10.0962 1.3242 10.1946L3.73836 11.393V15.9724C3.73836 17.906 5.31306 19.4807 7.2467 19.4807H18.6806C18.9991 19.4807 19.2596 19.2202 19.2596 18.9018V11.6709L20.8343 11.8446V14.2588C20.2438 14.4903 19.8211 15.0635 19.8211 15.735C19.8211 16.204 20.0296 16.6208 20.3538 16.9161L19.8327 19.365C19.798 19.5386 19.8385 19.7123 19.9485 19.8513C20.0585 19.9844 20.2264 20.0655 20.4001 20.0655H22.4205C22.5942 20.0655 22.7621 19.9844 22.8721 19.8513C22.9821 19.7181 23.0226 19.5386 22.9879 19.365L22.4669 16.9161C22.7911 16.6324 22.9995 16.2156 22.9995 15.7466ZM11.5482 5.2795L20.2264 9.6736L18.6748 10.4436L12.9202 9.80676C12.6134 9.77202 12.3182 9.99781 12.2834 10.3162C12.2487 10.6346 12.4745 10.9183 12.7929 10.953L16.7586 11.393L11.5482 13.9809L2.86996 9.6736L11.5482 5.2795ZM7.2409 18.3229C5.94409 18.3229 4.89044 17.2692 4.89044 15.9724V11.9662L11.2934 15.1445C11.3745 15.1851 11.4613 15.2024 11.5482 15.2024C11.635 15.2024 11.7219 15.1851 11.8029 15.1445L18.0901 12.0241V18.3229H7.2409ZM21.8416 15.7466C21.8416 15.984 21.6448 16.1808 21.4074 16.1808C21.1701 16.1808 20.9732 15.984 20.9732 15.7466C20.9732 15.5093 21.1701 15.3124 21.4074 15.3124C21.6448 15.3124 21.8416 15.5035 21.8416 15.7466ZM21.1122 18.9134L21.4074 17.5182L21.7027 18.9134H21.1122Z" fill="currentColor"/>
</svg>
