<svg width="24" height="25" viewBox="0 0 24 25" fill="none" xmlns="http://www.w3.org/2000/svg">
<path d="M11.5658 18.3742C11.67 18.4958 11.8205 18.5653 11.9826 18.5711C12.1505 18.5884 12.3011 18.5132 12.4111 18.4032L16.4695 14.3447L22.0158 19.8911C22.1316 20.0068 22.2763 20.0589 22.4268 20.0589C22.5774 20.0589 22.7221 20.0011 22.8379 19.8911C23.0637 19.6653 23.0637 19.3005 22.8379 19.0747L16.8805 13.1174C16.6547 12.8916 16.29 12.8916 16.0642 13.1174L12.0347 17.1468L2.15789 5.87474V1.57895C2.15789 1.26053 1.89737 1 1.57895 1C1.26053 1 1 1.26053 1 1.57895V19.4974C1 21.4311 2.57474 23 4.50842 23H22.421C22.7395 23 23 22.7395 23 22.4211C23 22.1026 22.7395 21.8421 22.421 21.8421H4.50842C3.21158 21.8421 2.15789 20.7884 2.15789 19.4974V7.63474L11.5658 18.3742Z" fill="currentColor"/>
</svg>
