<svg width="24" height="25" viewBox="0 0 24 25" fill="none" xmlns="http://www.w3.org/2000/svg">
<path d="M12.0289 6.89368L16.0584 10.9232C16.2842 11.1489 16.6489 11.1489 16.8747 10.9232L22.8321 4.96579C23.0579 4.74 23.0579 4.37526 22.8321 4.14947C22.6063 3.92368 22.2416 3.92368 22.0158 4.14947L16.4695 9.69579L12.411 5.63737C12.2953 5.52158 12.1505 5.44632 11.9826 5.46947C11.8205 5.47526 11.67 5.54474 11.5658 5.66632L2.15789 16.4058V1.57895C2.15789 1.26053 1.89737 1 1.57895 1C1.26053 1 1 1.26053 1 1.57895V19.4974C1 21.4311 2.57474 23 4.50842 23H22.4211C22.7395 23 23 22.7395 23 22.4211C23 22.1026 22.7395 21.8421 22.4211 21.8421H4.50842C3.21158 21.8421 2.15789 20.7884 2.15789 19.4974V18.1658L12.0289 6.89368Z" fill="currentColor"/>
</svg>
