<svg width="24" height="24" viewBox="0 0 24 24" fill="none" xmlns="http://www.w3.org/2000/svg">
<path d="M21.2281 7.19311C21.5696 6.59116 21.7722 5.89082 21.7722 5.14996C21.7722 2.85793 19.9084 1 17.6222 1C15.336 1 13.4722 2.86372 13.4722 5.14996C13.4722 5.89082 13.669 6.58537 14.0105 7.18732C13.8369 7.25099 13.669 7.33202 13.507 7.42463C12.8008 5.41621 10.8966 3.97501 8.65088 3.97501C5.81478 3.97501 3.50539 6.2844 3.50539 9.1205C3.50539 10.1102 3.789 11.0305 4.27519 11.8177C2.60826 12.3386 1.41016 13.9129 1.41016 15.6898V19.4983C1.41016 21.4141 2.96711 22.9769 4.88871 22.9769H15.3128C15.6311 22.9769 15.8858 22.7222 15.8916 22.4038V19.5504V18.5201V16.1066H22.8314C23.1497 16.1066 23.4102 15.8461 23.4102 15.5278V13.3052V11.2389V10.2839C23.4102 8.86583 22.5072 7.65614 21.2281 7.19311ZM17.6222 2.15759C19.2718 2.15759 20.6146 3.5004 20.6146 5.14996C20.6146 6.79953 19.2718 8.14233 17.6222 8.14233C15.9726 8.14233 14.6298 6.79953 14.6298 5.14996C14.624 3.5004 15.9669 2.15759 17.6222 2.15759ZM8.65088 5.1326C10.8503 5.1326 12.6388 6.92107 12.6388 9.1205C12.6388 11.3199 10.8503 13.1084 8.65088 13.1084C6.45146 13.1084 4.66298 11.3199 4.66298 9.1205C4.66298 6.92107 6.45146 5.1326 8.65088 5.1326ZM14.734 18.5201V20.598V21.8135H4.88871C3.60957 21.8135 2.56775 20.7716 2.56775 19.4925V15.684C2.56775 14.2949 3.59221 13.0737 4.95816 12.8306H5.09708C6.02315 13.7161 7.27335 14.266 8.65088 14.266C10.0342 14.266 11.296 13.7103 12.222 12.819C13.6343 13.01 14.734 14.2486 14.734 15.684V18.5201ZM22.2526 13.7682V14.949H15.8279C15.5559 13.4615 14.4793 12.2518 13.0381 11.8119C13.5185 11.0305 13.8079 10.1102 13.8079 9.1205C13.8079 8.95843 13.7964 8.79637 13.7848 8.6401C14.0684 8.40858 14.3925 8.24651 14.7514 8.18285H14.7977C15.5385 8.8774 16.5341 9.30571 17.628 9.30571C18.7219 9.30571 19.7174 8.8774 20.4583 8.18285C21.477 8.3507 22.2584 9.24783 22.2584 10.2897V11.2447V13.7682H22.2526Z" fill="currentColor"/>
</svg>
