<svg width="24" height="24" viewBox="0 0 24 24" fill="none" xmlns="http://www.w3.org/2000/svg">
<path d="M12.3768 11.4406V6.89567C13.6914 6.7582 14.9086 6.13903 15.7938 5.15748C16.679 4.17593 17.1696 2.90147 17.171 1.57971C17.171 1.42596 17.11 1.27851 17.0013 1.16979C16.8925 1.06108 16.7451 1 16.5913 1C15.2786 1.00143 14.0123 1.48537 13.0332 2.35973C12.0541 3.23409 11.4305 4.43787 11.2812 5.74204C10.788 5.08741 10.1496 4.55613 9.41629 4.18998C8.68298 3.82383 7.87472 3.63279 7.05508 3.63189C6.90134 3.63189 6.75387 3.69297 6.64516 3.80169C6.53644 3.9104 6.47537 4.05786 6.47537 4.21161C6.47696 5.52366 6.96109 6.7893 7.83556 7.76746C8.71003 8.74563 9.91373 9.36797 11.2174 9.51597V11.4348C9.73762 11.5835 8.37158 12.2953 7.40184 13.4229C6.43209 14.5505 5.93282 16.0077 6.00728 17.4931C6.08173 18.9785 6.72423 20.3784 7.80187 21.4034C8.87952 22.4284 10.3099 23 11.7971 23C13.2844 23 14.7147 22.4284 15.7924 21.4034C16.87 20.3784 17.5125 18.9785 17.587 17.4931C17.6614 16.0077 17.1622 14.5505 16.1924 13.4229C15.2227 12.2953 13.8566 11.5835 12.3768 11.4348V11.4406ZM15.9653 2.2058C15.8299 3.08908 15.4162 3.90611 14.7844 4.53796C14.1525 5.16982 13.3355 5.58352 12.4522 5.71886C12.5866 4.83806 12.9977 4.02288 13.6262 3.3913C14.2546 2.75972 15.0678 2.34452 15.9479 2.2058H15.9653ZM7.68117 4.8377C8.55919 4.97722 9.36985 5.39308 9.99536 6.02485C10.6209 6.65662 11.0287 7.47138 11.1594 8.35075C10.2783 8.21461 9.46369 7.80025 8.83477 7.1682C8.20585 6.53615 7.79554 5.71955 7.66377 4.8377H7.68117ZM11.7971 21.8696C10.8799 21.8696 9.98323 21.5976 9.22057 21.088C8.4579 20.5784 7.86348 19.8541 7.51246 19.0067C7.16144 18.1593 7.06959 17.2268 7.24854 16.3272C7.42749 15.4275 7.86918 14.6012 8.51777 13.9526C9.16637 13.304 9.99273 12.8623 10.8924 12.6834C11.792 12.5044 12.7245 12.5962 13.5719 12.9473C14.4193 13.2983 15.1436 13.8927 15.6532 14.6554C16.1628 15.418 16.4348 16.3147 16.4348 17.2319C16.4348 17.841 16.3149 18.444 16.0818 19.0067C15.8487 19.5694 15.5071 20.0806 15.0765 20.5113C14.6458 20.9419 14.1346 21.2835 13.5719 21.5166C13.0092 21.7497 12.4062 21.8696 11.7971 21.8696Z" fill="currentColor"/>
<path d="M11.2173 17.1971C11.43 17.1715 11.6249 17.0658 11.7622 16.9014C11.8837 16.7459 11.9491 16.5538 11.9477 16.3565C11.9557 16.212 11.93 16.0677 11.8727 15.9349C11.8153 15.8021 11.7279 15.6845 11.6173 15.5913C11.3182 15.3867 10.9582 15.2906 10.597 15.3188H8.89844V19.1275H10.6376C11.003 19.153 11.3664 19.055 11.6695 18.8492C11.7861 18.7596 11.8796 18.6434 11.9421 18.5103C12.0046 18.3771 12.0344 18.231 12.0289 18.084C12.0313 17.8709 11.9549 17.6645 11.8144 17.5043C11.6575 17.3351 11.4462 17.2264 11.2173 17.1971ZM9.70425 15.9333H10.4926C10.91 15.9333 11.1187 16.0956 11.1187 16.4202C11.1187 16.7449 10.91 16.913 10.4926 16.913H9.70425V15.9333ZM11.0666 18.3855C10.9275 18.4864 10.7566 18.5338 10.5854 18.5188H9.70425V17.5217H10.5854C10.7554 17.5107 10.9243 17.5555 11.0666 17.6492C11.1625 17.7477 11.2162 17.8798 11.2162 18.0173C11.2162 18.1549 11.1625 18.287 11.0666 18.3855Z" fill="currentColor"/>
<path d="M14.2437 17.4349L13.664 17.3132C13.5586 17.2984 13.4577 17.2608 13.3683 17.203C13.3449 17.1842 13.3261 17.1603 13.313 17.1332C13.3 17.1062 13.2931 17.0766 13.2929 17.0465C13.2913 17.0178 13.2956 16.9891 13.3056 16.9622C13.3156 16.9353 13.331 16.9107 13.3509 16.89C13.3973 16.8442 13.4555 16.8121 13.519 16.7972C13.6097 16.7728 13.7034 16.7611 13.7973 16.7625C13.9466 16.762 14.0939 16.7978 14.2263 16.8668C14.3622 16.9374 14.4764 17.0436 14.5567 17.174L15.0321 16.7161C14.9083 16.5348 14.7325 16.3953 14.5277 16.3161C14.2888 16.2184 14.0322 16.171 13.7741 16.1769C13.5334 16.1701 13.2941 16.2156 13.0727 16.3103C12.9025 16.3799 12.7558 16.4965 12.6495 16.6465C12.5545 16.7759 12.5037 16.9324 12.5045 17.0929C12.5011 17.1936 12.5184 17.2939 12.5553 17.3876C12.5922 17.4813 12.6479 17.5665 12.719 17.6378C12.9211 17.8058 13.166 17.9142 13.4263 17.9509L13.9364 18.0552C14.0291 18.067 14.1171 18.103 14.1915 18.1596C14.2317 18.2019 14.2545 18.2577 14.2553 18.3161C14.2564 18.3617 14.2438 18.4066 14.2189 18.4449C14.1941 18.4832 14.1583 18.513 14.1161 18.5306C14.0022 18.577 13.8797 18.5988 13.7567 18.5943C13.5662 18.6014 13.3775 18.5552 13.2118 18.461C13.0625 18.3809 12.9351 18.2655 12.8408 18.1248L12.3828 18.5827C12.5366 18.7753 12.7358 18.9267 12.9625 19.0233C13.2157 19.1296 13.488 19.1828 13.7625 19.1798C14.0028 19.1878 14.2419 19.1443 14.464 19.0523C14.6375 18.9832 14.7882 18.8667 14.8988 18.7161C14.9959 18.5703 15.0465 18.3985 15.0437 18.2233C15.0473 18.0396 14.981 17.8614 14.8582 17.7248C14.6888 17.5661 14.4738 17.4648 14.2437 17.4349Z" fill="currentColor"/>
</svg>
