<svg width="24" height="24" viewBox="0 0 24 24" fill="none" xmlns="http://www.w3.org/2000/svg">
<path d="M6.82485 11.286H6.289V10.7443C6.289 10.5898 6.22763 10.4417 6.1184 10.3325C6.00918 10.2232 5.86103 10.1619 5.70656 10.1619C5.55208 10.1619 5.40394 10.2232 5.29471 10.3325C5.18548 10.4417 5.12411 10.5898 5.12411 10.7443V11.286H4.58244C4.42797 11.286 4.27982 11.3473 4.17059 11.4566C4.06136 11.5658 4 11.714 4 11.8684C4 12.0229 4.06136 12.171 4.17059 12.2803C4.27982 12.3895 4.42797 12.4509 4.58244 12.4509H5.12411V12.9925C5.12411 13.147 5.18548 13.2952 5.29471 13.4044C5.40394 13.5136 5.55208 13.575 5.70656 13.575C5.86103 13.575 6.00918 13.5136 6.1184 13.4044C6.22763 13.2952 6.289 13.147 6.289 12.9925V12.4509H6.82485C6.97932 12.4509 7.12746 12.3895 7.23669 12.2803C7.34592 12.171 7.40729 12.0229 7.40729 11.8684C7.40729 11.714 7.34592 11.5658 7.23669 11.4566C7.12746 11.3473 6.97932 11.286 6.82485 11.286Z" fill="currentColor"/>
<path d="M12.3467 12.9751V8.96788C13.5056 8.83109 14.5742 8.27424 15.3502 7.4027C16.1262 6.53116 16.5558 5.4054 16.5577 4.23845C16.5577 4.08397 16.4964 3.93583 16.3871 3.8266C16.2779 3.71737 16.1298 3.65601 15.9753 3.65601C14.8369 3.65817 13.7368 4.06741 12.8737 4.80977C12.0106 5.55214 11.4415 6.57868 11.2692 7.70398C10.8271 7.15983 10.2696 6.72076 9.63699 6.41856C9.00439 6.11636 8.31251 5.95859 7.61143 5.95665C7.45695 5.95665 7.30881 6.01801 7.19958 6.12724C7.09035 6.23647 7.02899 6.38462 7.02899 6.53909C7.02682 7.69722 7.4476 8.81629 8.21229 9.68608C8.97697 10.5559 10.0329 11.1165 11.1818 11.2627V12.9693C9.90628 13.1179 8.73583 13.7485 7.91014 14.732C7.08444 15.7155 6.66596 16.9775 6.7404 18.2594C6.81484 19.5414 7.37656 20.7465 8.31054 21.6278C9.24452 22.5091 10.4801 23 11.7642 23C13.0484 23 14.284 22.5091 15.2179 21.6278C16.1519 20.7465 16.7136 19.5414 16.7881 18.2594C16.8625 16.9775 16.444 15.7155 15.6183 14.732C14.7926 13.7485 13.6222 13.1179 12.3467 12.9693V12.9751ZM15.3346 4.87914C15.2062 5.60452 14.858 6.27291 14.3371 6.7938C13.8162 7.3147 13.1478 7.66294 12.4224 7.79135C12.5508 7.06597 12.899 6.39757 13.4199 5.87667C13.9408 5.35578 14.6092 5.00755 15.3346 4.87914ZM8.24629 7.20891C8.96568 7.34425 9.62682 7.69536 10.1418 8.21556C10.6568 8.73576 11.0013 9.40041 11.1294 10.1211C10.4043 9.98721 9.73783 9.63385 9.22011 9.10884C8.70239 8.58383 8.35839 7.91249 8.23464 7.1856L8.24629 7.20891ZM11.7701 22.1369C10.9487 22.1369 10.1458 21.8933 9.46289 21.437C8.77996 20.9807 8.24768 20.3321 7.93337 19.5733C7.61905 18.8145 7.53681 17.9795 7.69705 17.1739C7.85729 16.3683 8.2528 15.6284 8.83358 15.0476C9.41436 14.4668 10.1543 14.0713 10.9599 13.9111C11.7655 13.7508 12.6005 13.8331 13.3593 14.1474C14.1181 14.4617 14.7667 14.994 15.223 15.6769C15.6793 16.3598 15.9229 17.1627 15.9229 17.9841C15.9152 19.081 15.4745 20.1304 14.6967 20.9038C13.9189 21.6773 12.867 22.1121 11.7701 22.1136V22.1369Z" fill="currentColor"/>
<path d="M18.9977 9.7601H18.456V9.21843C18.456 9.06396 18.3946 8.91581 18.2854 8.80658C18.1762 8.69735 18.028 8.63599 17.8735 8.63599C17.7191 8.63599 17.5709 8.69735 17.4617 8.80658C17.3525 8.91581 17.2911 9.06396 17.2911 9.21843V9.7601H16.7494C16.595 9.7601 16.4468 9.82146 16.3376 9.93069C16.2284 10.0399 16.167 10.1881 16.167 10.3425C16.167 10.497 16.2284 10.6452 16.3376 10.7544C16.4468 10.8636 16.595 10.925 16.7494 10.925H17.2911V11.4667C17.2911 11.6211 17.3525 11.7693 17.4617 11.8785C17.5709 11.9877 17.7191 12.0491 17.8735 12.0491C18.028 12.0491 18.1762 11.9877 18.2854 11.8785C18.3946 11.7693 18.456 11.6211 18.456 11.4667V10.925H18.9977C19.1521 10.925 19.3003 10.8636 19.4095 10.7544C19.5187 10.6452 19.5801 10.497 19.5801 10.3425C19.5801 10.1881 19.5187 10.0399 19.4095 9.93069C19.3003 9.82146 19.1521 9.7601 18.9977 9.7601Z" fill="currentColor"/>
<path d="M7.59367 3.28899H8.12952V3.83067C8.12952 3.98514 8.19088 4.13329 8.30011 4.24252C8.40934 4.35175 8.55749 4.41311 8.71196 4.41311C8.86644 4.41311 9.01458 4.35175 9.12381 4.24252C9.23304 4.13329 9.2944 3.98514 9.2944 3.83067V3.28899H9.83608C9.99055 3.28899 10.1387 3.22763 10.2479 3.1184C10.3572 3.00917 10.4185 2.86102 10.4185 2.70655C10.4185 2.55208 10.3572 2.40393 10.2479 2.2947C10.1387 2.18547 9.99055 2.12411 9.83608 2.12411H9.2944V1.58244C9.2944 1.42797 9.23304 1.27982 9.12381 1.17059C9.01458 1.06136 8.86644 1 8.71196 1C8.55749 1 8.40934 1.06136 8.30011 1.17059C8.19088 1.27982 8.12952 1.42797 8.12952 1.58244V2.12411H7.59367C7.4392 2.12411 7.29105 2.18547 7.18182 2.2947C7.07259 2.40393 7.01123 2.55208 7.01123 2.70655C7.01123 2.86102 7.07259 3.00917 7.18182 3.1184C7.29105 3.22763 7.4392 3.28899 7.59367 3.28899Z" fill="currentColor"/>
<path d="M12.0083 17.6172C11.7826 17.5569 11.5722 17.4498 11.3909 17.3027C11.3432 17.2523 11.3062 17.1928 11.2821 17.1277C11.2581 17.0626 11.2475 16.9934 11.2511 16.9241C11.2423 16.7733 11.2924 16.6251 11.3909 16.5106C11.45 16.4579 11.5192 16.4178 11.5943 16.3927C11.6694 16.3677 11.7488 16.3583 11.8277 16.3649C11.9085 16.3607 11.9891 16.3766 12.0623 16.4111C12.1355 16.4457 12.199 16.4979 12.2471 16.563C12.3608 16.7354 12.4179 16.939 12.4101 17.1454V17.291H13.3013V17.1454C13.3201 16.763 13.2093 16.3854 12.9868 16.0737C12.7987 15.8285 12.5272 15.6606 12.2238 15.6019V14.8914H11.4433V15.5961C11.1279 15.6422 10.8412 15.8046 10.6397 16.0515C10.4381 16.2983 10.3362 16.6117 10.3541 16.9299C10.3466 17.1021 10.3742 17.2741 10.4353 17.4353C10.4964 17.5966 10.5896 17.7436 10.7094 17.8676C10.9955 18.1209 11.3364 18.3043 11.7054 18.4035C11.9195 18.4632 12.1182 18.5685 12.2878 18.7122C12.3861 18.8196 12.4405 18.9598 12.4405 19.1053C12.4405 19.2509 12.3861 19.3911 12.2878 19.4985C12.1361 19.6085 11.9507 19.6621 11.7636 19.6499C11.6679 19.6595 11.5713 19.6467 11.4813 19.6127C11.3913 19.5786 11.3104 19.5242 11.245 19.4537C11.1795 19.3832 11.1313 19.2985 11.1041 19.2062C11.0768 19.1139 11.0713 19.0166 11.088 18.9219V18.7763H10.3483H10.2435L10.2085 18.8694V18.9219C10.1914 19.1171 10.2152 19.3138 10.2784 19.4993C10.3416 19.6848 10.4427 19.8552 10.5754 19.9994C10.8026 20.2138 11.0885 20.3558 11.3967 20.4071V20.9895H12.1713V20.4071C12.4796 20.3637 12.7667 20.2252 12.9926 20.011C13.1139 19.8866 13.2084 19.7388 13.2705 19.5765C13.3326 19.4143 13.3609 19.2411 13.3537 19.0675C13.3615 18.8979 13.3351 18.7286 13.2761 18.5695C13.2171 18.4104 13.1266 18.2648 13.0101 18.1414C12.7204 17.8926 12.3778 17.7133 12.0083 17.6172Z" fill="currentColor"/>
</svg>
