<svg width="24" height="24" viewBox="0 0 24 24" fill="none" xmlns="http://www.w3.org/2000/svg">
<path d="M12.3768 11.4406V6.89567C13.6914 6.7582 14.9086 6.13903 15.7938 5.15748C16.679 4.17593 17.1696 2.90147 17.171 1.57971C17.171 1.42596 17.11 1.27851 17.0013 1.16979C16.8925 1.06108 16.7451 1 16.5913 1C15.2786 1.00143 14.0123 1.48537 13.0332 2.35973C12.0541 3.23409 11.4305 4.43787 11.2812 5.74204C10.788 5.08741 10.1496 4.55613 9.41629 4.18998C8.68298 3.82383 7.87472 3.63279 7.05508 3.63189C6.90134 3.63189 6.75387 3.69297 6.64516 3.80169C6.53644 3.9104 6.47537 4.05786 6.47537 4.21161C6.47696 5.52366 6.96109 6.7893 7.83556 7.76746C8.71003 8.74563 9.91373 9.36797 11.2174 9.51597V11.4348C9.73762 11.5835 8.37158 12.2953 7.40184 13.4229C6.43209 14.5505 5.93282 16.0077 6.00728 17.4931C6.08173 18.9785 6.72423 20.3784 7.80187 21.4034C8.87952 22.4284 10.3099 23 11.7971 23C13.2844 23 14.7147 22.4284 15.7924 21.4034C16.87 20.3784 17.5125 18.9785 17.587 17.4931C17.6614 16.0077 17.1622 14.5505 16.1924 13.4229C15.2227 12.2953 13.8566 11.5835 12.3768 11.4348V11.4406ZM15.9653 2.2058C15.8299 3.08908 15.4162 3.90611 14.7844 4.53796C14.1525 5.16982 13.3355 5.58352 12.4522 5.71886C12.5866 4.83806 12.9977 4.02288 13.6262 3.3913C14.2546 2.75972 15.0678 2.34452 15.9479 2.2058H15.9653ZM7.68117 4.8377C8.55919 4.97722 9.36985 5.39308 9.99536 6.02485C10.6209 6.65662 11.0287 7.47138 11.1594 8.35075C10.2783 8.21461 9.46369 7.80025 8.83477 7.1682C8.20585 6.53615 7.79554 5.71955 7.66377 4.8377H7.68117ZM11.7971 21.8696C10.8799 21.8696 9.98323 21.5976 9.22057 21.088C8.4579 20.5784 7.86348 19.8541 7.51246 19.0067C7.16144 18.1593 7.06959 17.2268 7.24854 16.3272C7.42749 15.4275 7.86918 14.6012 8.51777 13.9526C9.16637 13.304 9.99273 12.8623 10.8924 12.6834C11.792 12.5044 12.7245 12.5962 13.5719 12.9473C14.4193 13.2983 15.1436 13.8927 15.6532 14.6554C16.1628 15.418 16.4348 16.3147 16.4348 17.2319C16.4348 17.841 16.3149 18.444 16.0818 19.0067C15.8487 19.5694 15.5071 20.0806 15.0765 20.5113C14.6458 20.9419 14.1346 21.2835 13.5719 21.5166C13.0092 21.7497 12.4062 21.8696 11.7971 21.8696Z" fill="currentColor"/>
<path d="M12.0294 16.8668C11.7922 16.8004 11.5712 16.6859 11.3801 16.5305C11.3273 16.4775 11.2861 16.414 11.2591 16.3441C11.2322 16.2742 11.2201 16.1995 11.2236 16.1247C11.2144 15.9621 11.2684 15.8022 11.3743 15.6784C11.4381 15.6225 11.5127 15.5802 11.5935 15.5543C11.6742 15.5284 11.7594 15.5193 11.8439 15.5276C11.9297 15.523 12.0154 15.5396 12.0932 15.576C12.1711 15.6124 12.2388 15.6675 12.2902 15.7363C12.4145 15.9207 12.4755 16.1404 12.4642 16.3624V16.5073H13.3917V16.3624C13.4108 15.9611 13.2944 15.565 13.0613 15.2378C12.8595 14.9794 12.5714 14.8023 12.2497 14.7392V13.9972H11.4497V14.7334C11.1397 14.7833 10.8557 14.9365 10.6439 15.1682C10.4064 15.4334 10.2816 15.7807 10.296 16.1363C10.2883 16.3167 10.3177 16.4968 10.3825 16.6654C10.4474 16.8339 10.5462 16.9873 10.6728 17.116C10.9672 17.3929 11.3258 17.5921 11.7163 17.6958C11.9463 17.7626 12.1597 17.8772 12.3424 18.032C12.3954 18.0828 12.4372 18.1441 12.4652 18.212C12.4931 18.2798 12.5066 18.3528 12.5047 18.4262C12.51 18.5084 12.4966 18.5908 12.4655 18.6671C12.4344 18.7434 12.3863 18.8117 12.325 18.8668C12.159 18.9922 11.9526 19.052 11.7453 19.0349C11.5556 19.0388 11.3707 18.9751 11.2236 18.8552C11.152 18.7777 11.0974 18.6861 11.0635 18.5862C11.0295 18.4864 11.0169 18.3805 11.0265 18.2755V18.1305H10.267H10.1569L10.1221 18.2233V18.2755C10.1054 18.4796 10.1313 18.685 10.1982 18.8786C10.265 19.0722 10.3714 19.2498 10.5105 19.4001C10.7493 19.6293 11.053 19.7791 11.3801 19.8291V20.4668H12.1743V19.8291C12.5021 19.7874 12.8084 19.6433 13.0497 19.4175C13.1767 19.2866 13.2756 19.1312 13.3404 18.9607C13.4052 18.7903 13.4345 18.6084 13.4265 18.4262C13.4356 18.2484 13.4078 18.0706 13.345 17.904C13.2821 17.7374 13.1855 17.5856 13.0613 17.4581C12.7709 17.1795 12.4165 16.9764 12.0294 16.8668Z" fill="currentColor"/>
</svg>
