<svg width="24" height="24" viewBox="0 0 24 24" fill="none" xmlns="http://www.w3.org/2000/svg">
<path d="M19.2581 9.70437H18.7199V9.16614C18.7199 9.01265 18.6589 8.86545 18.5504 8.75691C18.4419 8.64838 18.2947 8.5874 18.1412 8.5874C17.9877 8.5874 17.8405 8.64838 17.7319 8.75691C17.6234 8.86545 17.5624 9.01265 17.5624 9.16614V9.70437H17.0358C16.8823 9.70437 16.7351 9.76534 16.6265 9.87388C16.518 9.98241 16.457 10.1296 16.457 10.2831C16.457 10.4366 16.518 10.5838 16.6265 10.6923C16.7351 10.8009 16.8823 10.8618 17.0358 10.8618H17.574V11.4001C17.574 11.5536 17.635 11.7008 17.7435 11.8093C17.852 11.9178 17.9993 11.9788 18.1527 11.9788C18.3062 11.9788 18.4534 11.9178 18.562 11.8093C18.6705 11.7008 18.7315 11.5536 18.7315 11.4001V10.8618H19.2697C19.4232 10.8618 19.5704 10.8009 19.6789 10.6923C19.7875 10.5838 19.8485 10.4366 19.8485 10.2831C19.8485 10.1296 19.7875 9.98241 19.6789 9.87388C19.5704 9.76534 19.4232 9.70437 19.2697 9.70437H19.2581Z" fill="currentColor"/>
<path d="M7.16229 12.378C7.31578 12.378 7.46298 12.317 7.57152 12.2085C7.68005 12.0999 7.74103 11.9527 7.74103 11.7992C7.74103 11.6457 7.68005 11.4985 7.57152 11.39C7.46298 11.2815 7.31578 11.2205 7.16229 11.2205H6.61827V10.6823C6.61827 10.5288 6.5573 10.3816 6.44876 10.273C6.34023 10.1645 6.19302 10.1035 6.03953 10.1035C5.88604 10.1035 5.73883 10.1645 5.6303 10.273C5.52176 10.3816 5.46079 10.5288 5.46079 10.6823V11.2205H4.92835C4.77486 11.2205 4.62765 11.2815 4.51912 11.39C4.41058 11.4985 4.34961 11.6457 4.34961 11.7992C4.34961 11.9527 4.41058 12.0999 4.51912 12.2085C4.62765 12.317 4.77486 12.378 4.92835 12.378H5.46079V12.9162C5.46079 13.0697 5.52176 13.2169 5.6303 13.3254C5.73883 13.434 5.88604 13.4949 6.03953 13.4949C6.19302 13.4949 6.34023 13.434 6.44876 13.3254C6.5573 13.2169 6.61827 13.0697 6.61827 12.9162V12.378H7.16229Z" fill="currentColor"/>
<path d="M7.92054 3.27445H8.45877V3.81268C8.45877 3.96617 8.51974 4.11338 8.62828 4.22191C8.73681 4.33045 8.88402 4.39142 9.03751 4.39142C9.191 4.39142 9.3382 4.33045 9.44674 4.22191C9.55527 4.11338 9.61625 3.96617 9.61625 3.81268V3.27445H10.1545C10.308 3.27445 10.4552 3.21347 10.5637 3.10494C10.6722 2.9964 10.7332 2.8492 10.7332 2.69571C10.7332 2.54221 10.6722 2.39501 10.5637 2.28647C10.4552 2.17794 10.308 2.11697 10.1545 2.11697H9.61625V1.57874C9.61625 1.42525 9.55527 1.27804 9.44674 1.16951C9.3382 1.06097 9.191 1 9.03751 1C8.88402 1 8.73681 1.06097 8.62828 1.16951C8.51974 1.27804 8.45877 1.42525 8.45877 1.57874V2.11697H7.92054C7.76705 2.11697 7.61984 2.17794 7.51131 2.28647C7.40277 2.39501 7.3418 2.54221 7.3418 2.69571C7.3418 2.8492 7.40277 2.9964 7.51131 3.10494C7.61984 3.21347 7.76705 3.27445 7.92054 3.27445Z" fill="currentColor"/>
<path d="M12.6486 12.7543V8.91727C13.7997 8.78015 14.8607 8.22649 15.6316 7.36075C16.4024 6.49501 16.8298 5.37708 16.8329 4.2179C16.8329 4.06441 16.772 3.9172 16.6634 3.80867C16.5549 3.70013 16.4077 3.63916 16.2542 3.63916C15.1223 3.63894 14.028 4.04472 13.1699 4.78279C12.3118 5.52087 11.747 6.54226 11.578 7.66141C11.1375 7.12058 10.5825 6.68429 9.95301 6.38404C9.32349 6.08379 8.63514 5.92706 7.93768 5.92518C7.78419 5.92518 7.63698 5.98616 7.52845 6.09469C7.41991 6.20323 7.35894 6.35043 7.35894 6.50393C7.35821 7.65523 7.77756 8.76724 8.53833 9.63137C9.29911 10.4955 10.349 11.0524 11.4911 11.1975V12.7543C10.1867 12.9022 8.98822 13.5436 8.14171 14.5471C7.2952 15.5506 6.86481 16.8399 6.93885 18.1507C7.01289 19.4614 7.58574 20.6941 8.53987 21.5959C9.494 22.4977 10.7571 23.0001 12.0699 23.0001C13.3827 23.0001 14.6458 22.4977 15.5999 21.5959C16.554 20.6941 17.1269 19.4614 17.2009 18.1507C17.275 16.8399 16.8446 15.5506 15.9981 14.5471C15.1516 13.5436 13.9531 12.9022 12.6486 12.7543ZM15.6176 4.85452C15.4876 5.57429 15.1409 6.23716 14.6237 6.75433C14.1065 7.27151 13.4436 7.61829 12.7239 7.74822C12.8538 7.02846 13.2006 6.36558 13.7178 5.8484C14.2349 5.33122 14.8978 4.98445 15.6176 4.85452ZM8.57429 7.16948C9.28839 7.30426 9.94448 7.65336 10.4552 8.1703C10.966 8.68725 11.3071 9.34752 11.4333 10.0632C10.7153 9.92848 10.056 9.57646 9.54467 9.05476C9.03332 8.53306 8.69459 7.86687 8.57429 7.14633V7.16948ZM12.0757 21.8579C11.2879 21.8591 10.5175 21.6265 9.86197 21.1897C9.20641 20.7529 8.69516 20.1314 8.39291 19.4039C8.09065 18.6765 8.01097 17.8757 8.16395 17.1029C8.31694 16.3302 8.6957 15.6202 9.25233 15.0627C9.80895 14.5053 10.5184 14.1255 11.291 13.9714C12.0635 13.8173 12.8644 13.8958 13.5923 14.197C14.3202 14.4982 14.9424 15.0085 15.3802 15.6635C15.818 16.3184 16.0516 17.0884 16.0516 17.8762C16.044 18.9267 15.6221 19.9318 14.8776 20.673C14.1332 21.4143 13.1262 21.8317 12.0757 21.8348V21.8579Z" fill="currentColor"/>
<path d="M11.8622 17.8472C11.9592 17.8017 12.0444 17.7344 12.111 17.6505C12.2206 17.51 12.2798 17.3367 12.2788 17.1585C12.2843 17.0292 12.26 16.9004 12.2079 16.782C12.1557 16.6636 12.077 16.5588 11.9779 16.4756C11.7203 16.2935 11.4069 16.2075 11.0924 16.2325H9.65137V19.5082H11.1387C11.4566 19.5303 11.7726 19.4446 12.0358 19.2651C12.1417 19.1853 12.2266 19.0809 12.283 18.9609C12.3395 18.8409 12.3659 18.7089 12.3599 18.5764C12.361 18.3844 12.2909 18.1989 12.1631 18.0556C12.0786 17.9657 11.9761 17.8947 11.8622 17.8472ZM10.4327 18.1945H11.0866C11.2087 18.186 11.3302 18.2164 11.4339 18.2813C11.4969 18.3488 11.532 18.4377 11.532 18.5301C11.532 18.6225 11.4969 18.7115 11.4339 18.779C11.3324 18.8492 11.2096 18.8819 11.0866 18.8716H10.4327V18.1945ZM11.0114 17.5463H10.4327V16.8865H11.0114C11.405 16.8865 11.4512 17.0775 11.4512 17.2164C11.4512 17.3553 11.405 17.5463 11.0114 17.5463Z" fill="currentColor"/>
<path d="M13.5166 17.5925C13.5857 17.5827 13.6558 17.5827 13.7249 17.5925C13.8363 17.5912 13.946 17.6191 14.0432 17.6735C14.1424 17.7264 14.2262 17.8042 14.2863 17.8992L14.3326 17.9745L14.8303 17.4883L14.7956 17.442C14.6844 17.2823 14.5297 17.1578 14.3499 17.0832C14.1432 17.0036 13.9232 16.9643 13.7018 16.9675C13.503 16.9662 13.306 17.0056 13.123 17.0832C12.9707 17.1443 12.8399 17.249 12.7468 17.3842C12.6506 17.5196 12.6044 17.6842 12.616 17.8499C12.6276 18.0156 12.6964 18.1721 12.8105 18.2928C12.9899 18.4402 13.2059 18.5362 13.4355 18.5706L13.8522 18.6516C13.9133 18.6594 13.9713 18.6834 14.0201 18.721C14.0314 18.7312 14.0404 18.7437 14.0464 18.7577C14.0524 18.7717 14.0553 18.7868 14.0548 18.8021C14.0551 18.8259 14.048 18.8493 14.0346 18.869C14.0211 18.8886 14.0019 18.9037 13.9796 18.912C13.8969 18.9455 13.8082 18.9613 13.7191 18.9583C13.5821 18.9642 13.446 18.9342 13.3242 18.8712C13.2024 18.8083 13.0991 18.7146 13.0246 18.5995L12.9725 18.5243L12.4922 19.0162L12.5327 19.0625C12.6653 19.233 12.8412 19.3649 13.042 19.4445C13.2574 19.538 13.4901 19.5854 13.7249 19.5834C13.9231 19.5843 14.1196 19.547 14.3036 19.4734C14.4755 19.4012 14.6209 19.278 14.7203 19.1204C14.8093 18.9889 14.8557 18.8334 14.8535 18.6747C14.8561 18.5068 14.7963 18.3438 14.6856 18.2175C14.534 18.0799 14.3444 17.9912 14.1416 17.9629L13.6555 17.8645C13.5818 17.8531 13.5111 17.8275 13.4471 17.7893C13.4351 17.7806 13.4253 17.7693 13.4183 17.7563C13.4112 17.7432 13.4073 17.7288 13.4066 17.714C13.4005 17.7024 13.3973 17.6895 13.3973 17.6764C13.3973 17.6633 13.4005 17.6504 13.4066 17.6388C13.4383 17.6135 13.4763 17.5975 13.5166 17.5925Z" fill="currentColor"/>
</svg>
