<svg width="24" height="24" viewBox="0 0 24 24" fill="none" xmlns="http://www.w3.org/2000/svg">
<path d="M12.0141 22.9355C5.93897 22.9355 1 17.9965 1 11.9214C1 7.38237 3.85787 3.24917 8.10701 1.63184C8.32729 1.54488 8.57656 1.60865 8.73888 1.77676C8.90119 1.95067 8.93597 2.20573 8.83742 2.42022C8.30411 3.55061 8.03745 4.74478 8.03745 5.97372C8.03745 10.5881 11.7881 14.3387 16.4024 14.3387C18.4777 14.3387 20.4776 13.5619 22.0254 12.1532C22.1993 11.9967 22.4544 11.9561 22.6689 12.0605C22.8833 12.1648 23.0109 12.3851 22.9993 12.617C22.6341 18.4023 17.811 22.9355 12.0141 22.9355ZM7.26646 3.29555C4.16511 5.01143 2.15938 8.32147 2.15938 11.9214C2.15938 17.3531 6.58242 21.7761 12.0141 21.7761C16.7328 21.7761 20.7327 18.4139 21.6544 13.9039C20.1008 14.9357 18.2806 15.4922 16.4024 15.4922C11.1504 15.4922 6.87807 11.2199 6.87807 5.96793C6.87807 5.05781 7.01139 4.16509 7.26646 3.29555Z" fill="currentColor"/>
</svg>
