<svg width="24" height="24" viewBox="0 0 24 24" fill="none" xmlns="http://www.w3.org/2000/svg">
<path d="M21.0196 6.52738H15.6411V4.24054C15.6411 2.45738 14.3327 1.01001 12.7232 1.01001H11.4496C9.84008 1.01001 8.53166 2.46317 8.53166 4.24054V6.53317H3.15903C2.8406 6.53317 2.58008 6.79369 2.58008 7.11211V19.4958C2.58008 21.4295 4.15481 23.01 6.09429 23.01H21.0253C21.3438 23.01 21.6043 22.7495 21.6043 22.4311V7.10633C21.5985 6.7879 21.338 6.52738 21.0196 6.52738ZM9.68955 4.24054C9.68955 3.09422 10.4769 2.16211 11.4496 2.16211H12.7232C13.6959 2.16211 14.4832 3.09422 14.4832 4.23475V6.52738H9.68376V4.24054H9.68955ZM20.4406 21.8463H6.0885C4.79166 21.8463 3.73218 20.7926 3.73218 19.49V7.68527H8.52587V9.61896C8.52587 9.93738 8.78639 10.1979 9.10481 10.1979C9.42323 10.1979 9.68376 9.93738 9.68376 9.61896V7.68527H14.4832V9.61896C14.4832 9.93738 14.7438 10.1979 15.0622 10.1979C15.3806 10.1979 15.6411 9.93738 15.6411 9.61896V7.68527H20.4406V21.8463Z" fill="currentColor"/>
</svg>
