<svg width="24" height="24" viewBox="0 0 24 24" fill="none" xmlns="http://www.w3.org/2000/svg">
<path d="M20.2144 7.97921V4.60083C20.2144 2.68602 18.6582 1.12988 16.7434 1.12988H4.20177C3.8836 1.12988 3.62327 1.3902 3.62327 1.70837V7.97921C2.08449 8.24532 0.910156 9.58163 0.910156 11.1956V14.0939C0.910156 15.6673 2.02664 16.9863 3.50758 17.2929C3.7679 20.035 6.08186 22.1927 8.89332 22.1927H9.74949C9.90569 22.7192 10.3916 23.1067 10.9701 23.1067H13.1047C13.8105 23.1067 14.3832 22.534 14.3832 21.8283V21.4291C14.3832 20.7234 13.8105 20.1507 13.1047 20.1507H10.9701C10.4032 20.1507 9.92882 20.5267 9.76106 21.0357H8.89332C6.72977 21.0357 4.94223 19.4102 4.68191 17.3218C6.24962 17.0789 7.45288 15.7252 7.45288 14.0939V11.1956C7.45288 9.59898 6.30169 8.26845 4.78604 7.98499V2.28686H16.7492C18.0277 2.28686 19.0632 3.32815 19.0632 4.60083V7.97921C17.536 8.2511 16.3732 9.58741 16.3732 11.1956V14.0939C16.3732 15.8987 17.8426 17.3623 19.6417 17.3623C21.4466 17.3623 22.9102 15.893 22.9102 14.0939V11.1956C22.9044 9.58741 21.7416 8.2511 20.2144 7.97921ZM10.8428 21.4291C10.8428 21.3597 10.8949 21.3076 10.9643 21.3076H13.099C13.1684 21.3076 13.2204 21.3597 13.2204 21.4291V21.8283C13.2204 21.8977 13.1684 21.9498 13.099 21.9498H10.9643C10.8949 21.9498 10.8428 21.8977 10.8428 21.8283V21.4291ZM6.29012 11.1956V14.0939C6.29012 15.2566 5.34139 16.2053 4.17863 16.2053C3.01586 16.2053 2.06714 15.2566 2.06714 14.0939V11.1956C2.06714 10.0329 3.01586 9.08413 4.17863 9.08413C5.34139 9.08413 6.29012 10.0271 6.29012 11.1956ZM21.7474 14.0939C21.7474 15.2566 20.7987 16.2053 19.6359 16.2053C18.4731 16.2053 17.5244 15.2566 17.5244 14.0939V11.1956C17.5244 10.0329 18.4731 9.08413 19.6359 9.08413C20.7987 9.08413 21.7474 10.0329 21.7474 11.1956V14.0939Z" fill="currentColor"/>
</svg>
