<svg width="24" height="24" viewBox="0 0 24 24" fill="none" xmlns="http://www.w3.org/2000/svg">
<path d="M20.3053 11.8099V7.63214C20.3053 5.39279 18.7488 3.57007 16.8335 3.57007H4.28849C3.97024 3.57007 3.70985 3.83046 3.70985 4.14871V11.8041C2.17066 12.0703 0.990234 13.4128 0.990234 15.0272V17.9262C0.990234 19.7315 2.45998 21.1955 4.25956 21.1955C6.05914 21.1955 7.52889 19.7258 7.52889 17.9262V15.0272C7.52889 13.4301 6.37739 12.0993 4.86135 11.8157V4.72735H16.8277C18.1065 4.72735 19.1422 6.0293 19.1422 7.63214V11.8099C17.6146 12.0819 16.4516 13.4186 16.4516 15.0272V17.9262C16.4516 19.7315 17.9213 21.1955 19.7209 21.1955C21.5205 21.1955 22.9902 19.7258 22.9902 17.9262V15.0272C22.996 13.4186 21.8329 12.0819 20.3053 11.8099ZM6.37739 15.0272V17.9262C6.37739 19.0893 5.42842 20.0382 4.26535 20.0382C3.10228 20.0382 2.1533 19.0893 2.1533 17.9262V15.0272C2.1533 13.8641 3.10228 12.9151 4.26535 12.9151C5.42842 12.9094 6.37739 13.8583 6.37739 15.0272ZM21.8387 17.9262C21.8387 19.0893 20.8897 20.0382 19.7267 20.0382C18.5636 20.0382 17.6146 19.0893 17.6146 17.9262V15.0272C17.6146 13.8641 18.5636 12.9151 19.7267 12.9151C20.8897 12.9151 21.8387 13.8641 21.8387 15.0272V17.9262Z" fill="currentColor"/>
</svg>
