<svg width="24" height="24" viewBox="0 0 24 24" fill="none" xmlns="http://www.w3.org/2000/svg">
<path d="M7.53461 8.71228H9.90188V11.0796C9.90188 11.3979 10.1623 11.6583 10.4807 11.6583H13.5251C13.8435 11.6583 14.1039 11.3979 14.1039 11.0796V8.71228H16.4712C16.7895 8.71228 17.05 8.45182 17.05 8.13348V5.09481C17.05 4.77647 16.7895 4.51601 16.4712 4.51601H14.1039V2.14874C14.1039 1.8304 13.8435 1.56995 13.5251 1.56995H10.4807C10.1623 1.56995 9.90188 1.8304 9.90188 2.14874V4.51601H7.53461C7.21627 4.51601 6.95581 4.77647 6.95581 5.09481V8.13927C6.95581 8.45761 7.21048 8.71228 7.53461 8.71228ZM8.1134 5.6736H10.4807C10.799 5.6736 11.0595 5.41315 11.0595 5.09481V2.72754H12.9463V5.09481C12.9463 5.41315 13.2068 5.6736 13.5251 5.6736H15.8924V7.56048H13.5251C13.2068 7.56048 12.9463 7.82093 12.9463 8.13927V10.5008H11.0595V8.13348C11.0595 7.81515 10.799 7.55469 10.4807 7.55469H8.1134V5.6736Z" fill="currentColor"/>
<path d="M8.70376 12.9896C8.07288 12.3587 7.22784 12.0057 6.33649 12.0057C5.83873 12.0057 5.36411 12.1214 4.93002 12.324V10.1825C4.93002 9.10011 4.05025 8.22034 2.9679 8.22034C1.88555 8.22034 1 9.1001 1 10.1882V15.5189C1 16.6013 1.48619 17.6026 2.33702 18.2682L5.19048 20.5139V21.4979C5.19048 21.8162 5.45094 22.0767 5.76928 22.0767C6.08761 22.0767 6.34807 21.8162 6.34807 21.4979V20.2303C6.34807 20.0509 6.26704 19.8831 6.12813 19.7731L3.05472 17.3537C2.48751 16.9081 2.16338 16.2366 2.16338 15.5132V10.1825C2.16338 9.73678 2.52223 9.37793 2.9679 9.37793C3.41357 9.37793 3.77243 9.73678 3.77243 10.1825V13.2674C3.77243 13.3137 3.78979 13.3542 3.79558 13.3948C3.79558 13.5453 3.85346 13.6957 3.96343 13.8057L7.04841 16.8907C7.27414 17.1164 7.63878 17.1164 7.86451 16.8907C8.09024 16.665 8.09024 16.3003 7.86451 16.0746L5.24257 13.4526C6.06446 12.9838 7.18153 13.1112 7.89924 13.8231L9.92502 15.6868V21.4979C9.92502 21.8162 10.1855 22.0767 10.5038 22.0767C10.8222 22.0767 11.0826 21.8162 11.0826 21.4979V15.4321C11.0826 15.2701 11.0132 15.1138 10.8974 15.0038L8.70376 12.9896Z" fill="currentColor"/>
<path d="M21.0321 8.22034C19.9498 8.22034 19.07 9.10011 19.07 10.1825V12.324C18.6359 12.1214 18.1613 12.0057 17.6635 12.0057C16.7664 12.0057 15.9271 12.3529 15.3136 12.9722L13.0968 15.0038C12.9753 15.1138 12.9116 15.2701 12.9116 15.4321V21.4979C12.9116 21.8162 13.1721 22.0767 13.4904 22.0767C13.8088 22.0767 14.0692 21.8162 14.0692 21.4979V15.6868L16.1181 13.8057C16.8069 13.1169 17.9298 12.978 18.7574 13.4526L16.1355 16.0746C15.9098 16.3003 15.9098 16.665 16.1355 16.8907C16.3612 17.1164 16.7259 17.1164 16.9516 16.8907L20.0366 13.8057C20.1466 13.6957 20.2044 13.551 20.2044 13.3948C20.2044 13.3948 20.2044 13.3948 20.2044 13.389C20.216 13.3485 20.2276 13.3079 20.2276 13.2616V10.1767C20.2276 9.73099 20.5922 9.37214 21.0321 9.37214C21.472 9.37214 21.8366 9.73099 21.8366 10.1767V15.5074C21.8366 16.2309 21.5125 16.9023 20.9453 17.3479L17.8719 19.7673C17.733 19.8773 17.652 20.0451 17.652 20.2245V21.4979C17.652 21.8162 17.9124 22.0767 18.2307 22.0767C18.5491 22.0767 18.8095 21.8162 18.8095 21.4979V20.5082L21.663 18.2624C22.5138 17.5968 23 16.5897 23 15.5132V10.1825C22.9942 9.10011 22.1145 8.22034 21.0321 8.22034Z" fill="currentColor"/>
</svg>
