<svg width="24" height="24" viewBox="0 0 24 24" fill="none" xmlns="http://www.w3.org/2000/svg">
<path d="M15.5451 23H11.3026C9.40989 23 7.86451 21.46 7.86451 19.5611V16.1279H4.43804C2.5396 16.1279 1 14.5879 1 12.6947V8.45105C1 8.13263 1.26046 7.87211 1.5788 7.87211H7.8703V1.57895C7.8703 1.26053 8.13076 1 8.44909 1H12.6917C14.5843 1 16.1297 2.54 16.1297 4.43895V7.87211H19.562C21.4546 7.87211 23 9.4121 23 11.3111V15.5547C23 15.8732 22.7395 16.1337 22.4212 16.1337H16.1239V22.4211C16.1239 22.7395 15.8692 23 15.5451 23ZM2.15759 9.03V12.6947C2.15759 13.9511 3.18206 14.9758 4.43804 14.9758H8.44909C8.76743 14.9758 9.02789 15.2363 9.02789 15.5547V19.5668C9.02789 20.8232 10.0524 21.8479 11.3083 21.8479H14.9721V15.5489C14.9721 15.2305 15.2326 14.97 15.5509 14.97H21.8366V11.3053C21.8366 10.0489 20.8122 9.02421 19.5562 9.02421H15.5451C15.2268 9.02421 14.9663 8.76368 14.9663 8.44526V4.43895C14.9663 3.18263 13.9476 2.15789 12.6917 2.15789H9.02789V8.45105C9.02789 8.76947 8.76743 9.03 8.44909 9.03H2.15759Z" fill="currentColor"/>
</svg>
