<svg width="24" height="24" viewBox="0 0 24 24" fill="none" xmlns="http://www.w3.org/2000/svg">
<path d="M12 21.7049C11.8958 21.7049 11.7916 21.6759 11.6932 21.618C4.60105 17.2412 1 12.7254 1 8.19223C1 6.18907 1.80474 4.49855 3.33316 3.30592C5.29579 1.7717 8.08053 1.46486 10.4195 2.53013C11.1432 2.85434 11.6642 3.23065 12 3.51434C12.3358 3.23065 12.8568 2.85434 13.5805 2.52434C15.9195 1.46486 18.7042 1.76592 20.6668 3.30013C22.1953 4.49855 23 6.18907 23 8.19223C23 12.7254 19.3989 17.2412 12.3068 21.618C12.2142 21.6759 12.1042 21.7049 12 21.7049ZM7.50737 3.05697C6.25684 3.05697 5.02947 3.45065 4.04526 4.22065C2.79474 5.19328 2.15789 6.53065 2.15789 8.19223C2.15789 12.2333 5.46947 16.3554 12 20.4428C18.5305 16.3496 21.8421 12.2333 21.8421 8.19223C21.8421 6.53065 21.2053 5.19328 19.9547 4.21486C18.3279 2.94118 16.0121 2.69223 14.0611 3.57802C12.9726 4.07013 12.4574 4.68381 12.4516 4.6896C12.3358 4.82276 12.1911 4.9096 12 4.89802C11.8263 4.89802 11.6642 4.82276 11.5542 4.68381C11.5542 4.67802 11.0332 4.07013 9.94474 3.57802C9.16895 3.22486 8.33526 3.05697 7.50737 3.05697Z" fill="currentColor"/>
</svg>
