<svg width="24" height="24" viewBox="0 0 24 24" fill="none" xmlns="http://www.w3.org/2000/svg">
<path d="M12.1495 21.2252C9.52695 21.2252 8.21856 19.2569 7.88857 18.1569C6.87544 15.3491 5.44548 12.1013 4.80866 11.5282C4.57709 11.835 4.38026 13.3113 4.43816 14.6891V20.6231C4.43816 20.9415 4.17764 21.2021 3.85923 21.2021H2.34821C2.0298 21.2021 1.77507 20.9473 1.76928 20.6289C1.72297 16.5301 1.25983 11.094 1.06299 8.94614C0.848787 6.62463 2.11665 4.34365 4.29342 3.13948C4.38026 3.09316 4.4729 3.07001 4.57132 3.07001C6.06495 3.07001 7.7612 6.13254 8.2475 7.07041C8.28224 7.15146 9.90903 11.0129 11.5995 14.6023C11.9469 15.4765 12.4447 16.038 13.1047 16.3101C14.361 16.8196 15.8373 16.1654 15.8488 16.1596C15.9473 16.1133 16.0515 16.0959 16.1615 16.1133C16.2309 16.1191 23.0276 18.4174 23.0391 19.7779C23.0449 20.2005 23.0507 20.9879 18.3672 21.2078H12.6126C12.4563 21.2194 12.3 21.2252 12.1495 21.2252ZM4.84919 10.3356C5.20813 10.3356 6.3023 10.3356 8.98853 17.798C9.02905 17.9253 9.79325 20.2816 12.5663 20.05H18.3382C19.4614 19.9979 20.7871 19.8474 21.505 19.6795C20.2719 18.9327 17.0009 17.549 16.1383 17.2943C15.6115 17.4969 14.1005 17.9658 12.6763 17.3927C11.7037 16.999 10.9858 16.2175 10.5343 15.0712C8.8438 11.4934 7.21123 7.60881 7.19386 7.57407C6.366 5.97044 5.2197 4.47102 4.6813 4.2626C3.01398 5.26415 2.04718 7.04725 2.21507 8.85351C2.40612 10.9145 2.84032 15.9975 2.92137 20.0558H3.28609V14.7238C3.26294 14.226 3.19925 11.5861 4.04449 10.7003C4.26448 10.4571 4.54236 10.3356 4.84919 10.3356Z" fill="currentColor"/>
</svg>
