<svg width="16" height="23" viewBox="0 0 16 23" fill="none" xmlns="http://www.w3.org/2000/svg">
<path d="M11.5892 13.7835C14.242 12.2393 15.5939 9.16364 14.966 6.12648C14.4086 3.44814 12.23 1.26958 9.55165 0.712126C7.41154 0.263599 5.22657 0.789013 3.56062 2.141C1.89466 3.49299 0.939941 5.50495 0.939941 7.64506C0.939941 7.99747 1.22828 8.28581 1.58069 8.28581C1.93311 8.28581 2.22145 7.99747 2.22145 7.64506C2.22145 5.8894 3.00316 4.24267 4.36797 3.13417C5.73277 2.02567 7.52687 1.59636 9.28894 1.96799C11.4803 2.42293 13.2552 4.20423 13.7101 6.38919C14.2355 8.92657 13.1527 11.3935 10.9485 12.675C8.75071 13.9501 7.39231 16.3016 7.39231 18.8006C7.39231 19.153 7.68065 19.4413 8.03307 19.4413C8.38548 19.4413 8.67382 19.153 8.67382 18.8006C8.66741 16.7501 9.78873 14.8279 11.5892 13.7835Z" fill="currentColor"/>
<path d="M8.0266 21.0816C7.61652 21.0816 7.28973 21.4148 7.28973 21.8185C7.28973 22.2222 7.62293 22.5554 8.0266 22.5554C8.43668 22.5554 8.76347 22.2222 8.76347 21.8185C8.76347 21.4148 8.43668 21.0816 8.0266 21.0816Z" fill="currentColor"/>
</svg>
