<svg width="22" height="23" viewBox="0 0 22 23" fill="none" xmlns="http://www.w3.org/2000/svg">
<path d="M11 0.169983C4.93263 0.169983 0 5.10261 0 11.17C0 17.2374 4.93263 22.17 11 22.17C17.0674 22.17 22 17.2374 22 11.17C22 5.10261 17.0674 0.169983 11 0.169983ZM11 21.0121C5.57526 21.0121 1.15789 16.5947 1.15789 11.17C1.15789 5.74525 5.57526 1.32788 11 1.32788C16.4247 1.32788 20.8421 5.74525 20.8421 11.17C20.8421 16.5947 16.4247 21.0121 11 21.0121Z" fill="currentColor"/>
<path d="M11.8916 4.71471C10.6295 4.45418 9.34421 4.76102 8.36 5.55997C7.37579 6.35891 6.81421 7.53997 6.81421 8.80786C6.81421 9.12628 7.07474 9.38681 7.39316 9.38681C7.71158 9.38681 7.9721 9.12628 7.9721 8.80786C7.9721 7.89313 8.37737 7.03628 9.08947 6.46312C9.80158 5.88418 10.7337 5.66418 11.6542 5.85524C12.7889 6.0926 13.7153 7.01313 13.9526 8.15366C14.2305 9.47366 13.6632 10.7589 12.5168 11.4247C11.2258 12.1773 10.4211 13.561 10.4211 15.0373C10.4211 15.3558 10.6816 15.6163 11 15.6163C11.3184 15.6163 11.5789 15.3558 11.5789 15.0373C11.5789 13.9721 12.1637 12.9763 13.1016 12.4263C14.6647 11.5173 15.4637 9.70523 15.0874 7.91629C14.7574 6.32418 13.4779 5.04471 11.8916 4.71471Z" fill="currentColor"/>
<path d="M11 18.0942C11.3678 18.0942 11.6658 17.7961 11.6658 17.4284C11.6658 17.0607 11.3678 16.7626 11 16.7626C10.6323 16.7626 10.3343 17.0607 10.3343 17.4284C10.3343 17.7961 10.6323 18.0942 11 18.0942Z" fill="currentColor"/>
</svg>
