<svg width="24" height="24" viewBox="0 0 24 24" fill="none" xmlns="http://www.w3.org/2000/svg">
<path d="M22.9595 12.7253C22.9537 12.7137 22.9537 12.7022 22.9479 12.6848C22.9422 12.679 22.9422 12.6675 22.9422 12.6617L21.1377 9.04706C21.0394 8.85042 20.837 8.72897 20.623 8.72897H17.2918L9.85436 2.14748C9.63459 1.95084 9.30494 1.95084 9.08517 2.14748L1.19664 9.14537C1.0694 9.25526 1 9.41141 1 9.57913V18.9482C1 20.8799 2.5673 22.4472 4.49895 22.4472H10.6814H11.919H14.5678H17.633H21.5195C21.8375 22.4472 22.0978 22.1869 22.0978 21.8688V15.5187C22.6472 15.0271 23 14.3215 23 13.5234V12.9219C23 12.9161 22.9942 12.9046 22.9942 12.8988C22.9942 12.841 22.9826 12.7831 22.9595 12.7253ZM21.8433 13.5292C21.8433 14.3736 21.1551 15.056 20.3165 15.056C19.4721 15.056 18.7897 14.3678 18.7897 13.5292V13.506H21.8491V13.5292H21.8433ZM10.3575 13.5292V13.506H13.4169V13.5292C13.4169 14.3736 12.7287 15.056 11.8901 15.056C11.0457 15.056 10.3575 14.3678 10.3575 13.5292ZM17.3728 9.89143L17.5752 12.3494H14.6199L14.8223 9.89143H17.3728ZM13.4632 12.3494H10.7161L11.9422 9.89143H13.6656L13.4632 12.3494ZM14.5736 13.506H17.633V13.5292C17.633 14.3736 16.9448 15.056 16.1062 15.056C15.2618 15.056 14.5794 14.3678 14.5794 13.5292V13.506H14.5736ZM21.4848 12.3494H18.7376L18.5352 9.89143H20.2587L21.4848 12.3494ZM2.15668 18.9482V9.83938L9.47266 3.35042L15.5452 8.73475H11.5894C11.3696 8.73475 11.1672 8.8562 11.0747 9.05284L9.27024 12.6675C9.26446 12.6732 9.26446 12.6848 9.26446 12.6906C9.25867 12.7022 9.25867 12.7137 9.25289 12.7311C9.22976 12.7889 9.21819 12.8467 9.21819 12.9046C9.21819 12.9104 9.21241 12.9219 9.21241 12.9277V13.5292C9.21241 14.3215 9.56519 15.0329 10.1146 15.5244V21.2963H4.49895C3.20925 21.2905 2.15668 20.2379 2.15668 18.9482ZM15.1462 21.2905V18.0171H17.0547V21.2905H15.1462ZM20.9411 21.2905H18.2114V17.4387C18.2114 17.1207 17.9511 16.8604 17.633 16.8604H14.5678C14.2497 16.8604 13.9895 17.1207 13.9895 17.4387V21.2905H11.919H11.2597V16.1317C11.4621 16.178 11.6703 16.2127 11.8843 16.2127C12.7403 16.2127 13.4979 15.802 13.9895 15.1717C14.4811 15.802 15.2387 16.2127 16.0946 16.2127C16.9506 16.2127 17.7082 15.802 18.1998 15.1717C18.6914 15.802 19.449 16.2127 20.3049 16.2127C20.5189 16.2127 20.7271 16.178 20.9295 16.1317V21.2905H20.9411Z" fill="currentColor"/>
</svg>
