<svg width="24" height="24" viewBox="0 0 24 24" fill="none" xmlns="http://www.w3.org/2000/svg">
<path fill-rule="evenodd" clip-rule="evenodd" d="M20.4501 8.59143H16.5644V4.70567C16.5644 4.38716 16.3038 4.12657 15.9853 4.12657H15.024C14.7402 2.44139 13.2751 1.14999 11.5146 1.14999C9.75415 1.14999 8.28902 2.44139 8.01106 4.12657H7.04396C6.72545 4.12657 6.46486 4.38716 6.46486 4.70567V8.59143H2.5791C2.26059 8.59143 2 8.85202 2 9.17053V19.6175C2 21.5691 3.58673 23.15 5.53251 23.15H7.04396H10.0205H12.9566H15.9795H20.4443C20.7628 23.15 21.0234 22.8894 21.0234 22.5709V9.17053C21.0292 8.85202 20.7686 8.59143 20.4501 8.59143ZM11.5146 2.30819C12.835 2.30819 13.9121 3.38532 13.9121 4.70567C13.9121 6.02601 12.835 7.10314 11.5146 7.10314C10.1943 7.10314 9.11714 6.02601 9.11714 4.70567C9.11714 3.38532 10.1885 2.30819 11.5146 2.30819ZM3.1582 19.6175V9.74963H6.46486V21.9918H5.53251C4.22374 21.9976 3.1582 20.932 3.1582 19.6175ZM7.62306 9.17053V5.28477H8.00526C8.28323 6.96995 9.74835 8.26134 11.5088 8.26134C13.2693 8.26134 14.7402 6.96995 15.0182 5.28477H15.4004V9.17053V21.9918H13.5357V18.106C13.5357 17.7875 13.2751 17.5269 12.9566 17.5269H10.0205C9.70203 17.5269 9.44143 17.7875 9.44143 18.106V21.9918H7.62306V9.17053ZM10.6054 21.9976V18.6909H12.3833V21.9976H10.6054ZM19.871 21.9976H16.5644V9.74963H19.871V21.9976Z" fill="currentColor"/>
<path fill-rule="evenodd" clip-rule="evenodd" d="M10.9359 5.24422V6.11287C10.9359 6.43138 11.1965 6.69197 11.515 6.69197C11.8335 6.69197 12.0941 6.43138 12.0941 6.11287V5.24422H12.9628C13.2813 5.24422 13.5419 4.98363 13.5419 4.66512C13.5419 4.34662 13.2813 4.08602 12.9628 4.08602H12.0941V3.21737C12.0941 2.89887 11.8335 2.63828 11.515 2.63828C11.1965 2.63828 10.9359 2.89887 10.9359 3.21737V4.08602H10.0673C9.74878 4.08602 9.48819 4.34662 9.48819 4.66512C9.48819 4.98363 9.74878 5.24422 10.0673 5.24422H10.9359Z" fill="currentColor"/>
<path d="M10.7903 10.3577H9.302V11.846H10.7903V10.3577Z" fill="currentColor"/>
<path d="M13.7265 10.3577H12.2382V11.846H13.7265V10.3577Z" fill="currentColor"/>
<path d="M10.7679 13.3343H9.27963V14.8225H10.7679V13.3343Z" fill="currentColor"/>
<path d="M13.7265 13.3343H12.2382V14.8225H13.7265V13.3343Z" fill="currentColor"/>
<path d="M18.9562 15.1295H17.4679V16.6177H18.9562V15.1295Z" fill="currentColor"/>
<path d="M18.9562 18.106H17.4679V19.5943H18.9562V18.106Z" fill="currentColor"/>
<path d="M5.55527 15.1295H4.06699V16.6177H5.55527V15.1295Z" fill="currentColor"/>
<path d="M5.55527 18.106H4.06699V19.5943H5.55527V18.106Z" fill="currentColor"/>
</svg>
