<svg width="24" height="24" viewBox="0 0 24 24" fill="none" xmlns="http://www.w3.org/2000/svg">
<path d="M21.2845 8.70279L12.7577 1.14273C12.5378 0.945913 12.2078 0.945913 11.9878 1.14273L3.46684 8.70279C3.34528 8.81277 3.27002 8.96907 3.27002 9.13694V19.5219C3.27002 21.438 4.82718 22.9951 6.74325 22.9951H9.52762H15.2121H20.8967C21.215 22.9951 21.4755 22.7346 21.4755 22.4162V9.13694C21.4813 8.97486 21.4118 8.81277 21.2845 8.70279ZM10.1123 21.8374V15.4177H14.6391V21.8374H10.1123ZM20.3236 21.8374H15.7968V14.8388C15.7968 14.5204 15.5363 14.2599 15.2179 14.2599H9.53341C9.21503 14.2599 8.95453 14.5204 8.95453 14.8388V21.8374H6.74904C5.46973 21.8374 4.43355 20.7954 4.43355 19.5219V9.39743L12.3757 2.35257L20.3236 9.40322V21.8374Z" fill="currentColor"/>
</svg>
