<svg width="24" height="24" viewBox="0 0 24 24" fill="none" xmlns="http://www.w3.org/2000/svg">
<path d="M19.2833 7.92881C19.2833 6.4321 18.2027 5.19543 16.7811 4.93538C16.5153 2.72209 14.6314 1 12.3487 1C10.0661 1 8.1822 2.72209 7.92216 4.93538C6.50056 5.19543 5.41992 6.4321 5.41992 7.92881C5.41992 9.06724 6.0556 10.0496 6.98021 10.5697C6.98599 10.5871 6.9802 10.5986 6.98598 10.616L11.8575 22.6417C11.9442 22.8613 12.158 23 12.395 23C12.6319 23 12.8399 22.8555 12.9324 22.6417L17.856 10.5062C18.7055 9.96296 19.2833 9.01523 19.2833 7.92881ZM12.395 20.8849L8.37868 10.9685C8.40758 10.9685 8.44225 10.98 8.47114 10.98C9.06058 10.98 9.62691 10.8067 10.1181 10.4888C10.6902 11.1072 11.4935 11.4712 12.3545 11.4712C13.2098 11.4712 14.0188 11.1014 14.5909 10.4888C15.0821 10.8067 15.6484 10.98 16.2379 10.98C16.3015 10.98 16.3592 10.9627 16.4228 10.9627L12.395 20.8849ZM16.2321 9.82427C15.868 9.82427 15.504 9.71447 15.1977 9.51799C14.9608 9.36196 14.7758 9.07302 14.4638 9.08458C14.2673 9.09036 14.0882 9.20594 13.9899 9.37352C13.6548 9.95718 13.0249 10.3212 12.3487 10.3212C11.6726 10.3212 11.0485 9.95718 10.7076 9.37352C10.6151 9.21171 10.4417 9.10192 10.251 9.08458C10.1066 9.07302 9.9852 9.11347 9.86962 9.20016C9.78872 9.26372 9.71937 9.33307 9.63847 9.40242C9.39576 9.61045 9.09526 9.74337 8.7832 9.79538C8.19376 9.89362 7.58698 9.70869 7.15357 9.2984C7.04955 9.20016 6.95709 9.09036 6.88196 8.97478C6.67971 8.66851 6.56991 8.30444 6.56991 7.93459C6.56991 6.88863 7.4194 6.03914 8.46537 6.03914C8.7832 6.03914 9.04325 5.77909 9.04325 5.46126C9.04903 3.64092 10.5284 2.15577 12.3487 2.15577C14.1691 2.15577 15.6542 3.64092 15.6542 5.46126C15.6542 5.77909 15.9143 6.03914 16.2321 6.03914C17.2781 6.03914 18.1276 6.88863 18.1276 7.93459C18.1276 8.64539 17.7057 9.32151 17.07 9.63357C16.81 9.75492 16.5211 9.82427 16.2321 9.82427Z" fill="currentColor"/>
<path d="M12.1984 2.96472C10.7826 2.96472 9.62683 4.12049 9.62683 5.5363C9.62683 5.85414 9.88688 6.11418 10.2047 6.11418C10.5225 6.11418 10.7826 5.85414 10.7826 5.5363C10.7826 4.75616 11.4183 4.12049 12.1984 4.12049C12.5162 4.12049 12.7763 3.86044 12.7763 3.5426C12.7763 3.22477 12.522 2.96472 12.1984 2.96472Z" fill="currentColor"/>
</svg>
