<svg width="24" height="24" viewBox="0 0 24 24" fill="none" xmlns="http://www.w3.org/2000/svg">
<path d="M22.4211 1H15.4737C15.1553 1 14.8947 1.26053 14.8947 1.57895V7.94737H9.10526V1.57895C9.10526 1.26053 8.84474 1 8.52632 1H1.57895C1.26053 1 1 1.26053 1 1.57895V5.60842C1 7.53631 2.56894 9.10526 4.49684 9.10526H7.94737V15.4737C7.94737 15.7921 8.20789 16.0526 8.52632 16.0526H14.8947V22.4211C14.8947 22.7395 15.1553 23 15.4737 23H22.4211C22.7395 23 23 22.7395 23 22.4211V15.4737C23 15.1553 22.7395 14.8947 22.4211 14.8947H16.0526V9.10526H22.4211C22.7395 9.10526 23 8.84474 23 8.52632V1.57895C23 1.26053 22.7395 1 22.4211 1ZM4.49684 7.94737C3.20579 7.94737 2.15789 6.89947 2.15789 5.60842V2.15789H7.94737V7.94737H4.49684ZM9.10526 14.8947V9.10526H14.8947V14.8947H9.10526ZM21.8421 16.0526V21.8421H16.0526V16.0526H21.8421ZM21.8421 7.94737H16.0526V2.15789H21.8421V7.94737Z" fill="currentColor"/>
</svg>
