<svg width="24" height="24" viewBox="0 0 24 24" fill="none" xmlns="http://www.w3.org/2000/svg">
<path d="M11.0967 18.2885H9.30775V20.0774H11.0967V18.2885Z" fill="currentColor"/>
<path d="M15.2768 18.2885H13.4879V20.0774H15.2768V18.2885Z" fill="currentColor"/>
<path d="M6.91091 18.2885H5.12197V20.0774H6.91091V18.2885Z" fill="currentColor"/>
<path d="M22.8552 10.079H18.3915C18.0731 10.079 17.8126 10.3395 17.8126 10.6579V15.4748L14.6399 13.1532C14.4373 13.0027 14.1594 13.0027 13.9568 13.1532L10.2052 15.8974L6.45363 13.1532C6.251 13.0027 5.9731 13.0027 5.77047 13.1532L1.67731 16.1463C1.52679 16.2563 1.43994 16.43 1.43994 16.6153V19.6316C1.43994 21.5711 3.02046 23.1458 4.95415 23.1458H18.3915H22.8552C23.1736 23.1458 23.4341 22.8853 23.4341 22.5669V10.6579C23.4341 10.3337 23.1736 10.079 22.8552 10.079ZM2.59204 19.6258V16.9048L6.10626 14.3342L9.85783 17.0785C10.0605 17.229 10.3384 17.229 10.541 17.0785L14.2926 14.3342L17.8068 16.9048V21.9879H4.94836C3.65152 21.9879 2.59204 20.9285 2.59204 19.6258ZM22.2763 21.9879H18.9705V11.2369H22.2763V21.9879Z" fill="currentColor"/>
<path d="M18.3916 5.27949C20.3022 5.27949 21.8595 6.83686 21.8595 8.74738V9.16422C21.8595 9.48265 22.1201 9.74317 22.4385 9.74317C22.7569 9.74317 23.0174 9.48265 23.0174 9.16422V8.74159C23.0174 6.94107 21.9811 5.37212 20.4758 4.6137L21.6337 4.2258C22.7164 3.86686 23.4401 2.85949 23.4401 1.71896C23.4401 1.40054 23.1795 1.14001 22.8611 1.14001C22.5427 1.14001 22.2822 1.40054 22.2822 1.71896C22.2822 2.36159 21.8711 2.92896 21.2632 3.13159L18.2122 4.15054C17.9401 4.24317 17.778 4.50949 17.8243 4.79317C17.8648 5.07686 18.1079 5.27949 18.3916 5.27949Z" fill="currentColor"/>
<path d="M17.3087 8.25529C17.8124 8.25529 18.2177 8.66634 18.2177 9.16424C18.2177 9.48266 18.4782 9.74318 18.7966 9.74318C19.1151 9.74318 19.3756 9.48266 19.3756 9.16424C19.3756 8.02371 18.4493 7.09739 17.3087 7.09739C14.9409 7.09739 13.013 5.1695 13.013 2.8016V1.72476C13.013 1.40634 12.7524 1.14581 12.434 1.14581C12.1156 1.14581 11.8551 1.40634 11.8551 1.72476V2.8016C11.8551 5.81213 14.304 8.25529 17.3087 8.25529Z" fill="currentColor"/>
</svg>
