<svg width="24" height="24" viewBox="0 0 24 24" fill="none" xmlns="http://www.w3.org/2000/svg">
<path d="M17.6665 17.068C15.9753 17.068 14.3248 16.1588 13.317 14.6588L9.7263 9.30162C8.95603 8.14911 7.72243 7.45413 6.43672 7.44834C5.13363 7.44834 3.94637 8.01012 3.13556 8.98888C2.33054 9.96765 2.00621 11.2592 2.25525 12.5333C2.57378 14.1839 3.90004 15.5043 5.55062 15.8287C7.50235 16.2051 9.44251 15.2263 10.2591 13.4368C10.3923 13.1472 10.734 13.0198 11.0294 13.153C11.319 13.2862 11.4464 13.6279 11.319 13.9175C10.2823 16.1935 7.82089 17.4503 5.33633 16.9638C3.22822 16.5526 1.5371 14.8615 1.1259 12.7534C0.813161 11.1375 1.22436 9.49854 2.24946 8.25336C3.28035 7.00819 4.79772 6.29004 6.41355 6.29004C8.12205 6.30162 9.70892 7.18772 10.6993 8.65877L14.29 14.0159C15.1182 15.2495 16.4734 15.9734 17.846 15.9097C17.9618 15.9039 18.0834 15.8924 18.1993 15.8808C20.0931 15.6375 21.6278 14.0796 21.8421 12.18C21.9811 10.9522 21.6105 9.77653 20.7939 8.86726C19.9889 7.96958 18.8421 7.45413 17.6375 7.45413C16.0101 7.45413 14.5043 8.40394 13.8093 9.88077C13.6703 10.1704 13.3286 10.292 13.039 10.1588C12.7495 10.0198 12.6278 9.67807 12.761 9.3885C13.6471 7.51205 15.5641 6.30162 17.6375 6.30162C19.1723 6.30162 20.6375 6.95606 21.6568 8.10278C22.6761 9.24371 23.1626 10.7843 22.9888 12.319C22.7166 14.7456 20.7591 16.7321 18.3441 17.0391C18.1935 17.0565 18.0429 17.0738 17.8981 17.0796C17.817 17.068 17.7417 17.068 17.6665 17.068Z" fill="currentColor"/>
</svg>
