<svg width="22" height="23" viewBox="0 0 22 23" fill="none" xmlns="http://www.w3.org/2000/svg">
<path d="M10.8261 7.72199C11.1967 7.72199 11.4919 7.42093 11.4919 7.0562C11.4919 6.68567 11.1909 6.39041 10.8261 6.39041C10.4614 6.39041 10.1603 6.69146 10.1603 7.0562C10.1603 7.42093 10.4556 7.72199 10.8261 7.72199Z" fill="currentColor"/>
<path d="M10.1606 10.2636H10.45V16.4294C10.45 16.7478 10.7106 17.0083 11.029 17.0083C11.3474 17.0083 11.6079 16.7478 11.6079 16.4294V9.68466C11.6079 9.36624 11.3474 9.10571 11.029 9.10571H10.1606C9.84213 9.10571 9.5816 9.36624 9.5816 9.68466C9.5816 10.0031 9.83634 10.2636 10.1606 10.2636Z" fill="currentColor"/>
<path d="M11 22.4099C17.0674 22.4099 22 17.4773 22 11.4099C22 5.34254 17.0674 0.409912 11 0.409912C4.93263 0.409912 0 5.34254 0 11.4099C0 17.4773 4.93263 22.4099 11 22.4099ZM11 1.56781C16.4247 1.56781 20.8421 5.98518 20.8421 11.4099C20.8421 16.8346 16.4247 21.252 11 21.252C5.57526 21.252 1.15789 16.8346 1.15789 11.4099C1.15789 5.98518 5.57526 1.56781 11 1.56781Z" fill="currentColor"/>
</svg>
