<svg width="24" height="24" viewBox="0 0 24 24" fill="none" xmlns="http://www.w3.org/2000/svg">
<path d="M12.6353 7.47265C12.6064 7.44949 12.5775 7.42634 12.5485 7.40897C12.5196 7.3916 12.4848 7.37423 12.4501 7.35686C12.3806 7.32792 12.3053 7.31055 12.2359 7.31055C12.1896 7.31055 12.149 7.31055 12.1085 7.32213C12.0506 7.33371 11.9985 7.35687 11.9464 7.38581C11.9232 7.39739 11.9001 7.40897 11.8769 7.42634C11.8538 7.44371 11.8306 7.46686 11.8132 7.48423C11.3385 7.96476 10.858 8.43949 10.3775 8.92002C9.88535 9.40633 9.39903 9.89265 8.90692 10.3848C8.83166 10.46 8.76218 10.5295 8.68692 10.6048C8.46113 10.8305 8.46113 11.1953 8.68692 11.4211C8.80271 11.5369 8.94746 11.589 9.09799 11.589C9.24272 11.589 9.39324 11.5311 9.50903 11.4211L11.6627 9.27318V16.7705C11.6627 17.089 11.9232 17.3495 12.2417 17.3495C12.5601 17.3495 12.8206 17.089 12.8206 16.7705V9.25581L14.9801 11.3574C15.2117 11.5774 15.5764 11.5774 15.8022 11.3458C16.0222 11.1142 16.0222 10.7495 15.7906 10.5237C15.779 10.5353 12.6353 7.47844 12.6353 7.47265Z" fill="currentColor"/>
<path d="M22.6515 2.76001H1.80942C1.49099 2.76001 1.23047 3.02054 1.23047 3.33896V10.7842C1.23047 11.1026 1.49099 11.3632 1.80942 11.3632H5.69416V16.8111C5.69416 18.7332 7.25731 20.2963 9.17941 20.2963H18.1878C18.5062 20.2963 18.7668 20.0358 18.7668 19.7174V11.3632H22.6515C22.9699 11.3632 23.2305 11.1026 23.2305 10.7842V3.33896C23.2305 3.02054 22.9757 2.76001 22.6515 2.76001ZM5.69994 8.30054H4.2931V5.81685H5.69994V8.30054ZM17.6089 19.1326H9.17941C7.89994 19.1326 6.85205 18.0905 6.85205 16.8053V5.81106H17.6031V19.1326H17.6089ZM22.0726 10.2053H18.7668V9.46422H20.7526C21.071 9.46422 21.3315 9.20369 21.3315 8.88527V5.2437C21.3315 4.92528 21.071 4.66475 20.7526 4.66475H19.1836H18.3557H6.11678H5.20205H3.71994C3.40152 4.66475 3.141 4.92528 3.141 5.2437V8.88527C3.141 9.20369 3.40152 9.46422 3.71994 9.46422H5.70574V10.2053H2.39994V3.9179H22.0841V10.2053H22.0726ZM18.7668 8.30054V5.81685H20.1736V8.30054H18.7668Z" fill="currentColor"/>
</svg>
