<svg width="24" height="25" viewBox="0 0 24 25" fill="none" xmlns="http://www.w3.org/2000/svg">
<path d="M20.62 24.748H3.38C1.51333 24.748 0 23.2347 0 21.368V4.12805C0 2.26138 1.51333 0.748047 3.38 0.748047H20.62C22.4867 0.748047 24 2.26138 24 4.12805V21.368C24 23.2347 22.4867 24.748 20.62 24.748Z" fill="url(#paint0_radial_1_3146)"/>
<path d="M0 21.368V4.12805C0 2.26138 1.51333 0.748047 3.38 0.748047H20.62C22.4867 0.748047 24 2.26138 24 4.12805V21.368C24 23.2347 22.4867 24.748 20.62 24.748H3.38C1.51333 24.748 0 23.2347 0 21.368Z" fill="url(#paint1_linear_1_3146)"/>
<path d="M12.0014 6.55482C14.0214 6.55482 14.2547 6.56149 15.0547 6.60149C15.7881 6.63482 16.1947 6.76149 16.4547 6.86149C16.8081 7.00149 17.0614 7.16149 17.3214 7.42816C17.5881 7.69482 17.7481 7.94149 17.8881 8.29482C17.9947 8.56149 18.1147 8.96149 18.1481 9.69482C18.1814 10.4948 18.1947 10.7282 18.1947 12.7482C18.1947 14.7682 18.1881 15.0015 18.1481 15.8015C18.1147 16.5348 17.9881 16.9415 17.8881 17.2015C17.7481 17.5548 17.5881 17.8082 17.3214 18.0682C17.0547 18.3348 16.8081 18.4948 16.4547 18.6348C16.1881 18.7415 15.7881 18.8615 15.0547 18.8948C14.2614 18.9282 14.0214 18.9415 12.0014 18.9415C9.98141 18.9415 9.74807 18.9348 8.94807 18.8948C8.21474 18.8615 7.80807 18.7348 7.54807 18.6348C7.19474 18.4948 6.94141 18.3348 6.68141 18.0682C6.41474 17.8015 6.25474 17.5548 6.11474 17.2015C6.00807 16.9348 5.88807 16.5348 5.85474 15.8015C5.82141 15.0015 5.80807 14.7682 5.80807 12.7482C5.80807 10.7282 5.81474 10.4948 5.85474 9.69482C5.88807 8.96149 6.01474 8.55482 6.11474 8.29482C6.25474 7.94149 6.41474 7.68816 6.68141 7.42816C6.94807 7.16149 7.19474 7.00149 7.54807 6.86149C7.81474 6.75482 8.21474 6.63482 8.94807 6.60149C9.74807 6.56149 9.98141 6.55482 12.0014 6.55482ZM12.0014 5.19482C9.94807 5.19482 9.69474 5.20149 8.88807 5.24149C8.08141 5.28149 7.53474 5.40816 7.05474 5.59482C6.55474 5.78816 6.13474 6.04816 5.71474 6.46816C5.29474 6.88816 5.03474 7.30816 4.84141 7.80816C4.65474 8.28816 4.52807 8.83482 4.48807 9.64149C4.44807 10.4482 4.44141 10.7015 4.44141 12.7548C4.44141 14.8082 4.44807 15.0615 4.48807 15.8682C4.52807 16.6748 4.65474 17.2215 4.84141 17.7015C5.03474 18.2015 5.29474 18.6215 5.71474 19.0415C6.13474 19.4615 6.55474 19.7215 7.05474 19.9148C7.53474 20.1015 8.08141 20.2282 8.88807 20.2682C9.69474 20.3082 9.94807 20.3148 12.0014 20.3148C14.0547 20.3148 14.3081 20.3082 15.1147 20.2682C15.9214 20.2282 16.4681 20.1015 16.9481 19.9148C17.4481 19.7215 17.8681 19.4615 18.2881 19.0415C18.7081 18.6215 18.9681 18.2015 19.1614 17.7015C19.3481 17.2215 19.4747 16.6748 19.5147 15.8682C19.5547 15.0615 19.5614 14.8082 19.5614 12.7548C19.5614 10.7015 19.5547 10.4482 19.5147 9.64149C19.4747 8.83482 19.3481 8.28816 19.1614 7.80816C18.9681 7.30816 18.7081 6.88816 18.2881 6.46816C17.8681 6.04816 17.4481 5.78816 16.9481 5.59482C16.4681 5.40816 15.9214 5.28149 15.1147 5.24149C14.3081 5.20149 14.0547 5.19482 12.0014 5.19482Z" fill="white"/>
<path d="M12.0011 8.86816C9.86109 8.86816 8.12109 10.6082 8.12109 12.7482C8.12109 14.8882 9.86109 16.6282 12.0011 16.6282C14.1411 16.6282 15.8811 14.8882 15.8811 12.7482C15.8811 10.6082 14.1411 8.86816 12.0011 8.86816ZM12.0011 15.2682C10.6078 15.2682 9.48109 14.1415 9.48109 12.7482C9.48109 11.3548 10.6078 10.2282 12.0011 10.2282C13.3944 10.2282 14.5211 11.3548 14.5211 12.7482C14.5211 14.1415 13.3944 15.2682 12.0011 15.2682Z" fill="white"/>
<path d="M16.0346 9.62144C16.5353 9.62144 16.9413 9.21551 16.9413 8.71477C16.9413 8.21403 16.5353 7.80811 16.0346 7.80811C15.5339 7.80811 15.1279 8.21403 15.1279 8.71477C15.1279 9.21551 15.5339 9.62144 16.0346 9.62144Z" fill="white"/>
<defs>
<radialGradient id="paint0_radial_1_3146" cx="0" cy="0" r="1" gradientUnits="userSpaceOnUse" gradientTransform="translate(4.12707 24.2338) scale(28.9241)">
<stop offset="0.0669" stop-color="#FFD469"/>
<stop offset="0.3367" stop-color="#FF692B"/>
<stop offset="0.5816" stop-color="#FE287B"/>
<stop offset="0.8061" stop-color="#BC1FAA"/>
</radialGradient>
<linearGradient id="paint1_linear_1_3146" x1="6.62867" y1="-1.09829" x2="11.5204" y2="11.5131" gradientUnits="userSpaceOnUse">
<stop stop-color="#684BD3"/>
<stop offset="1" stop-color="#684BD3" stop-opacity="0"/>
</linearGradient>
</defs>
</svg>
