<svg width="24" height="25" viewBox="0 0 24 25" fill="none" xmlns="http://www.w3.org/2000/svg">
<mask id="mask0_1_3195" style="mask-type:luminance" maskUnits="userSpaceOnUse" x="0" y="0" width="24" height="25">
<path d="M12 24.7481C18.6274 24.7481 24 19.3755 24 12.748C24 6.12063 18.6274 0.748047 12 0.748047C5.37259 0.748047 0 6.12063 0 12.748C0 19.3755 5.37259 24.7481 12 24.7481Z" fill="white"/>
</mask>
<g mask="url(#mask0_1_3195)">
<path d="M20.6302 24.7747H3.37105C1.50231 24.7747 -0.0126953 23.2597 -0.0126953 21.391V4.13181C-0.0126953 2.26306 1.50231 0.748047 3.37105 0.748047H20.6302C22.499 0.748047 24.014 2.26306 24.014 4.13181V21.391C24.014 23.2597 22.499 24.7747 20.6302 24.7747Z" fill="url(#paint0_radial_1_3195)"/>
<path d="M-0.0126953 21.391V4.13181C-0.0126953 2.26306 1.50231 0.748047 3.37105 0.748047H20.6302C22.499 0.748047 24.014 2.26306 24.014 4.13181V21.391C24.014 23.2597 22.499 24.7747 20.6302 24.7747H3.37105C1.50231 24.7747 -0.0126953 23.2597 -0.0126953 21.391Z" fill="url(#paint1_linear_1_3195)"/>
</g>
<mask id="mask1_1_3195" style="mask-type:luminance" maskUnits="userSpaceOnUse" x="0" y="0" width="24" height="25">
<path d="M12 24.7481C18.6274 24.7481 24 19.3755 24 12.748C24 6.12063 18.6274 0.748047 12 0.748047C5.37259 0.748047 0 6.12063 0 12.748C0 19.3755 5.37259 24.7481 12 24.7481Z" fill="white"/>
</mask>
<g mask="url(#mask1_1_3195)">
<path d="M12.002 6.56122C14.0242 6.56122 14.2578 6.56789 15.0587 6.60794C15.7995 6.64131 16.2 6.76812 16.4603 6.86823C16.814 7.00838 17.0676 7.16856 17.3279 7.43553C17.5949 7.70249 17.7551 7.94943 17.8952 8.30316C18.002 8.57012 18.1221 8.97056 18.1555 9.70471C18.1889 10.5056 18.2022 10.7392 18.2022 12.7614C18.2022 14.7837 18.1956 15.0173 18.1555 15.8182C18.1221 16.5523 17.9953 16.9594 17.8952 17.2197C17.7551 17.5735 17.5949 17.8271 17.3279 18.0874C17.0609 18.3543 16.814 18.5145 16.4603 18.6547C16.1933 18.7614 15.7929 18.8816 15.0587 18.9149C14.2645 18.9483 14.0242 18.9617 12.002 18.9617C9.97975 18.9617 9.74615 18.955 8.94526 18.9149C8.21111 18.8816 7.80399 18.7548 7.5437 18.6547C7.18997 18.5145 6.93637 18.3543 6.67608 18.0874C6.40911 17.8204 6.24893 17.5735 6.10877 17.2197C6.00199 16.9528 5.88187 16.5523 5.8485 15.8182C5.81513 15.0173 5.80177 14.7837 5.80177 12.7614C5.80177 10.7392 5.80845 10.5056 5.8485 9.70471C5.88187 8.97056 6.00866 8.56345 6.10877 8.30316C6.24893 7.94943 6.40911 7.69581 6.67608 7.43553C6.94304 7.16856 7.18997 7.00838 7.5437 6.86823C7.81066 6.76144 8.21111 6.64131 8.94526 6.60794C9.73948 6.56789 9.97975 6.56122 12.002 6.56122ZM12.002 5.19971C9.94638 5.19971 9.69276 5.20638 8.8852 5.24643C8.07763 5.28647 7.53036 5.41328 7.04982 5.60015C6.54927 5.7937 6.12879 6.05399 5.70833 6.47446C5.28786 6.89492 5.02757 7.31539 4.83402 7.81595C4.64715 8.29648 4.52034 8.84376 4.4803 9.65132C4.44025 10.4589 4.43359 10.7125 4.43359 12.7681C4.43359 14.8237 4.44025 15.0774 4.4803 15.8849C4.52034 16.6925 4.64715 17.2398 4.83402 17.7203C5.02757 18.2208 5.28786 18.6413 5.70833 19.0618C6.12879 19.4822 6.54927 19.7425 7.04982 19.9361C7.53036 20.123 8.07763 20.2498 8.8852 20.2898C9.69276 20.3299 9.94638 20.3365 12.002 20.3365C14.0576 20.3365 14.3112 20.3299 15.1188 20.2898C15.9264 20.2498 16.4736 20.123 16.9542 19.9361C17.4547 19.7425 17.8752 19.4822 18.2957 19.0618C18.7161 18.6413 18.9764 18.2208 19.17 17.7203C19.3568 17.2398 19.4836 16.6925 19.5237 15.8849C19.5637 15.0774 19.5704 14.8237 19.5704 12.7681C19.5704 10.7125 19.5637 10.4589 19.5237 9.65132C19.4836 8.84376 19.3568 8.29648 19.17 7.81595C18.9764 7.31539 18.7161 6.89492 18.2957 6.47446C17.8752 6.05399 17.4547 5.7937 16.9542 5.60015C16.4736 5.41328 15.9264 5.28647 15.1188 5.24643C14.3112 5.20638 14.0576 5.19971 12.002 5.19971Z" fill="white"/>
<path d="M12.0015 8.8772C9.85913 8.8772 8.11719 10.6191 8.11719 12.7615C8.11719 14.9039 9.85913 16.6458 12.0015 16.6458C14.1439 16.6458 15.8858 14.9039 15.8858 12.7615C15.8858 10.6191 14.1439 8.8772 12.0015 8.8772ZM12.0015 15.2843C10.6066 15.2843 9.47871 14.1564 9.47871 12.7615C9.47871 11.3666 10.6066 10.2387 12.0015 10.2387C13.3964 10.2387 14.5243 11.3666 14.5243 12.7615C14.5243 14.1564 13.3897 15.2843 12.0015 15.2843Z" fill="white"/>
<path d="M16.0395 9.63127C16.5408 9.63127 16.9472 9.22489 16.9472 8.72359C16.9472 8.2223 16.5408 7.81592 16.0395 7.81592C15.5382 7.81592 15.1318 8.2223 15.1318 8.72359C15.1318 9.22489 15.5382 9.63127 16.0395 9.63127Z" fill="white"/>
</g>
<path d="M12.001 6.56122C14.0233 6.56122 14.2569 6.56789 15.0577 6.60794C15.7986 6.64131 16.199 6.76812 16.4593 6.86823C16.813 7.00838 17.0666 7.16856 17.3269 7.43553C17.5939 7.70249 17.7541 7.94943 17.8942 8.30316C18.001 8.57012 18.1212 8.97056 18.1545 9.70471C18.1879 10.5056 18.2012 10.7392 18.2012 12.7614C18.2012 14.7837 18.1946 15.0173 18.1545 15.8182C18.1212 16.5523 17.9943 16.9594 17.8942 17.2197C17.7541 17.5735 17.5939 17.8271 17.3269 18.0874C17.06 18.3543 16.813 18.5145 16.4593 18.6547C16.1923 18.7614 15.7919 18.8816 15.0577 18.9149C14.2635 18.9483 14.0233 18.9617 12.001 18.9617C9.97878 18.9617 9.74517 18.955 8.94428 18.9149C8.21013 18.8816 7.80301 18.7548 7.54272 18.6547C7.189 18.5145 6.93539 18.3543 6.6751 18.0874C6.40814 17.8204 6.24795 17.5735 6.1078 17.2197C6.00101 16.9528 5.88089 16.5523 5.84752 15.8182C5.81415 15.0173 5.8008 14.7837 5.8008 12.7614C5.8008 10.7392 5.80748 10.5056 5.84752 9.70471C5.88089 8.97056 6.00769 8.56345 6.1078 8.30316C6.24795 7.94943 6.40814 7.69581 6.6751 7.43553C6.94206 7.16856 7.189 7.00838 7.54272 6.86823C7.80969 6.76144 8.21013 6.64131 8.94428 6.60794C9.7385 6.56789 9.97878 6.56122 12.001 6.56122ZM12.001 5.19971C9.94541 5.19971 9.69178 5.20638 8.88422 5.24643C8.07666 5.28647 7.52938 5.41328 7.04885 5.60015C6.54829 5.7937 6.12782 6.05399 5.70735 6.47446C5.28688 6.89492 5.02659 7.31539 4.83305 7.81595C4.64617 8.29648 4.51936 8.84376 4.47932 9.65132C4.43928 10.4589 4.43262 10.7125 4.43262 12.7681C4.43262 14.8237 4.43928 15.0774 4.47932 15.8849C4.51936 16.6925 4.64617 17.2398 4.83305 17.7203C5.02659 18.2208 5.28688 18.6413 5.70735 19.0618C6.12782 19.4822 6.54829 19.7425 7.04885 19.9361C7.52938 20.123 8.07666 20.2498 8.88422 20.2898C9.69178 20.3299 9.94541 20.3365 12.001 20.3365C14.0566 20.3365 14.3102 20.3299 15.1178 20.2898C15.9254 20.2498 16.4726 20.123 16.9532 19.9361C17.4537 19.7425 17.8742 19.4822 18.2947 19.0618C18.7151 18.6413 18.9754 18.2208 19.169 17.7203C19.3559 17.2398 19.4827 16.6925 19.5227 15.8849C19.5628 15.0774 19.5694 14.8237 19.5694 12.7681C19.5694 10.7125 19.5628 10.4589 19.5227 9.65132C19.4827 8.84376 19.3559 8.29648 19.169 7.81595C18.9754 7.31539 18.7151 6.89492 18.2947 6.47446C17.8742 6.05399 17.4537 5.7937 16.9532 5.60015C16.4726 5.41328 15.9254 5.28647 15.1178 5.24643C14.3102 5.20638 14.0566 5.19971 12.001 5.19971Z" fill="white"/>
<path d="M12.0005 8.8772C9.85815 8.8772 8.11621 10.6191 8.11621 12.7615C8.11621 14.9039 9.85815 16.6458 12.0005 16.6458C14.1429 16.6458 15.8848 14.9039 15.8848 12.7615C15.8848 10.6191 14.1429 8.8772 12.0005 8.8772ZM12.0005 15.2843C10.6056 15.2843 9.47773 14.1564 9.47773 12.7615C9.47773 11.3666 10.6056 10.2387 12.0005 10.2387C13.3954 10.2387 14.5233 11.3666 14.5233 12.7615C14.5233 14.1564 13.3887 15.2843 12.0005 15.2843Z" fill="white"/>
<path d="M16.0385 9.63127C16.5398 9.63127 16.9462 9.22489 16.9462 8.72359C16.9462 8.2223 16.5398 7.81592 16.0385 7.81592C15.5372 7.81592 15.1309 8.2223 15.1309 8.72359C15.1309 9.22489 15.5372 9.63127 16.0385 9.63127Z" fill="white"/>
<defs>
<radialGradient id="paint0_radial_1_3195" cx="0" cy="0" r="1" gradientUnits="userSpaceOnUse" gradientTransform="translate(4.11876 24.2599) scale(28.9562)">
<stop offset="0.0669" stop-color="#FFD469"/>
<stop offset="0.3367" stop-color="#FF692B"/>
<stop offset="0.5816" stop-color="#FE287B"/>
<stop offset="0.8061" stop-color="#BC1FAA"/>
</radialGradient>
<linearGradient id="paint1_linear_1_3195" x1="6.62315" y1="-1.10034" x2="11.5203" y2="11.5251" gradientUnits="userSpaceOnUse">
<stop stop-color="#684BD3"/>
<stop offset="1" stop-color="#684BD3" stop-opacity="0"/>
</linearGradient>
</defs>
</svg>
