<svg width="24" height="24" viewBox="0 0 24 24" fill="none" xmlns="http://www.w3.org/2000/svg">
<path d="M13.0812 18.2704C12.3457 18.5426 11.5871 18.6989 10.8053 18.7511V15.6239C11.2686 15.6239 11.7377 15.6355 12.2067 15.6934C12.2299 15.6934 12.2531 15.6992 12.2762 15.6992C12.5658 15.6992 12.8148 15.4849 12.8496 15.1896C12.8901 14.8711 12.6642 14.5815 12.3457 14.5468C11.8303 14.4831 11.3149 14.4657 10.8053 14.4715V11.0954H14.1931C14.1931 11.1591 14.1873 11.2286 14.1815 11.3038L14.1757 11.3791C14.1583 11.6976 14.4073 11.9698 14.7258 11.9872C15.0328 12.0045 15.3165 11.7555 15.3339 11.437L15.3397 11.3617C15.3455 11.2575 15.3513 11.1764 15.3513 11.0954H18.4668C18.4205 11.7324 18.3105 12.3578 18.1194 12.9601C18.0267 13.267 18.1946 13.5913 18.5016 13.6839C18.8085 13.7766 19.1328 13.6087 19.2254 13.3017C19.5034 12.4041 19.6424 11.466 19.6424 10.5163C19.6424 8.08404 18.71 5.87188 17.1928 4.19828V4.19249C17.1523 4.123 17.0944 4.06508 17.0364 4.02454C15.3223 2.22354 12.9075 1.1001 10.2262 1.1001C7.55079 1.1001 5.13594 2.22934 3.4218 4.03034C3.3581 4.07667 3.30598 4.12878 3.26545 4.19828V4.20407C1.7482 5.87767 0.810059 8.08983 0.810059 10.522C0.810059 12.9543 1.74241 15.1664 3.26545 16.84V16.8458C3.30598 16.9095 3.35231 16.9559 3.41022 16.9964C5.11277 18.7916 7.51024 19.9208 10.1741 19.9382H10.1799C10.1973 19.9382 10.2146 19.9382 10.2262 19.9382C11.3439 19.9382 12.4384 19.7413 13.4808 19.3591C13.7819 19.2491 13.9325 18.9132 13.8224 18.6179C13.7182 18.3167 13.3823 18.1662 13.0812 18.2704ZM1.99722 11.0954H5.10698C5.14172 12.6995 5.34441 14.0198 5.65133 15.0911C4.86955 15.3459 4.26729 15.6181 3.89666 15.8034C2.80795 14.5121 2.11883 12.879 1.99722 11.0954ZM3.89087 5.22329C4.27308 5.42018 4.88693 5.69814 5.69188 5.95295C5.37337 7.02428 5.15331 8.33885 5.10698 9.93137H1.99722C2.11883 8.15353 2.80796 6.52047 3.89087 5.22329ZM18.461 9.93716H15.3513C15.3049 8.33884 15.0849 7.03008 14.7664 5.95875C15.5713 5.70394 16.1852 5.42018 16.5674 5.22907C17.6503 6.52047 18.3394 8.15353 18.461 9.93716ZM9.64713 15.6181V18.5947C8.97537 18.3167 7.90983 17.616 7.157 15.8903C7.89825 15.7282 8.73794 15.6181 9.64713 15.6181ZM6.7632 14.7842C6.48524 13.8113 6.29414 12.5952 6.25939 11.0954H9.64713V14.4599C8.58158 14.4541 7.60869 14.5931 6.7632 14.7842ZM10.8053 5.41439V2.47835C11.4597 2.79106 12.4731 3.52073 13.226 5.15958C12.5021 5.31015 11.6856 5.41439 10.8053 5.41439ZM9.64713 5.41439C8.7669 5.42018 7.94457 5.31594 7.2207 5.15958C7.96774 3.50915 8.98695 2.77948 9.64713 2.47256V5.41439ZM9.58922 6.57259C9.60659 6.57259 9.62976 6.57259 9.64713 6.57259V9.93716H6.26518C6.31151 8.43729 6.51998 7.23276 6.81532 6.25987C7.63185 6.44518 8.57 6.57259 9.58922 6.57259ZM10.8053 6.57259C10.8285 6.57259 10.8459 6.57259 10.869 6.57259C11.8882 6.57259 12.8206 6.43939 13.6429 6.25987C13.9383 7.23276 14.1409 8.44308 14.1931 9.93716H10.8111V6.57259H10.8053ZM14.3668 4.85845C13.9846 3.96664 13.5271 3.2833 13.0638 2.76211C14.0483 3.12115 14.9401 3.66551 15.7103 4.34885C15.3686 4.49941 14.9111 4.68472 14.3668 4.85845ZM6.09145 4.85845C5.54709 4.68472 5.08961 4.49941 4.74794 4.34885C5.51814 3.66551 6.40995 3.12694 7.39442 2.76211C6.93114 3.2833 6.47365 3.96664 6.09145 4.85845ZM6.02775 16.1972C6.38101 17.0485 6.80374 17.7029 7.24386 18.2125C6.3173 17.8535 5.47761 17.3323 4.74794 16.6837C5.07803 16.5389 5.51236 16.3652 6.02775 16.1972Z" fill="currentColor"/>
<path d="M22.4742 16.4694L13.7529 12.462C13.5444 12.3693 13.3012 12.4041 13.1275 12.5547C12.9538 12.7052 12.8901 12.9426 12.9538 13.1569L15.8608 22.6889C15.9303 22.9205 16.1388 23.0827 16.3762 23.1001C16.3878 23.1001 16.3994 23.1001 16.4168 23.1001C16.6426 23.1001 16.8511 22.9669 16.9438 22.7642L18.8258 18.6294L22.3989 17.5523C22.6305 17.4828 22.7927 17.2801 22.81 17.0369C22.8274 16.7937 22.6942 16.5678 22.4742 16.4694ZM18.2467 17.5928C18.0846 17.6392 17.9572 17.755 17.8877 17.9055L16.5268 20.8879L14.442 14.0545L20.6037 16.8805L18.2467 17.5928Z" fill="currentColor"/>
</svg>
