<svg width="24" height="24" viewBox="0 0 24 24" fill="none" xmlns="http://www.w3.org/2000/svg">
<path d="M16.6599 2.35498H7.43971C3.92063 2.35498 1.0498 5.22002 1.0498 8.74488V14.9901C1.0498 18.5091 3.91484 21.3742 7.43971 21.3742H16.6599C20.179 21.3742 23.0498 18.5091 23.0498 14.9901V8.74488C23.044 5.22002 20.179 2.35498 16.6599 2.35498ZM21.8864 14.9843C21.8864 17.8667 19.5423 20.2108 16.6541 20.2108H7.43391C4.55151 20.2108 2.20162 17.8667 2.20162 14.9843V8.74488C2.20162 5.86248 4.54573 3.51257 7.43391 3.51257H16.6541C19.5365 3.51257 21.8864 5.85669 21.8864 8.74488V14.9843Z" fill="currentColor"/>
<path d="M9.37274 8.24133C9.0544 8.24133 8.79395 8.50179 8.79395 8.82013V15.1869C8.79395 15.5052 9.0544 15.7657 9.37274 15.7657C9.69108 15.7657 9.95154 15.5052 9.95154 15.1869V8.82013C9.95154 8.50179 9.69687 8.24133 9.37274 8.24133Z" fill="currentColor"/>
<path d="M13.9976 8.24133H11.613C11.2946 8.24133 11.0342 8.50179 11.0342 8.82013V15.1869C11.0342 15.5052 11.2946 15.7657 11.613 15.7657C11.9313 15.7657 12.1918 15.5052 12.1918 15.1869V12.5881H14.0034C15.2015 12.5881 16.1739 11.6099 16.1739 10.4176C16.1681 9.21371 15.1899 8.24133 13.9976 8.24133ZM13.9976 11.4247H12.1918V9.39313H13.9976C14.5591 9.39313 15.0105 9.85038 15.0105 10.406C15.0105 10.9675 14.5533 11.4247 13.9976 11.4247Z" fill="currentColor"/>
</svg>
