<svg width="24" height="24" viewBox="0 0 24 24" fill="none" xmlns="http://www.w3.org/2000/svg">
<path d="M19 3.08571V4.45714C19 4.639 18.9263 4.81341 18.795 4.94201C18.6637 5.07061 18.4857 5.14285 18.3 5.14285H15L11.5 18.8571H14.1C14.2857 18.8571 14.4637 18.9294 14.595 19.058C14.7262 19.1866 14.8 19.361 14.8 19.5429V20.9143C14.8 21.0961 14.7262 21.2706 14.595 21.3992C14.4637 21.5278 14.2857 21.6 14.1 21.6H5.7C5.51435 21.6 5.3363 21.5278 5.20503 21.3992C5.07375 21.2706 5 21.0961 5 20.9143V19.5429C5 19.361 5.07375 19.1866 5.20503 19.058C5.3363 18.9294 5.51435 18.8571 5.7 18.8571H9L12.5 5.14285H9.9C9.71435 5.14285 9.5363 5.07061 9.40503 4.94201C9.27375 4.81341 9.2 4.639 9.2 4.45714V3.08571C9.2 2.90385 9.27375 2.72943 9.40503 2.60083C9.5363 2.47224 9.71435 2.39999 9.9 2.39999H18.3C18.4857 2.39999 18.6637 2.47224 18.795 2.60083C18.9263 2.72943 19 2.90385 19 3.08571Z" fill="#686868"/>
</svg>
