<svg width="24" height="24" viewBox="0 0 24 24" fill="none" xmlns="http://www.w3.org/2000/svg">
<path d="M22.8721 12.1018L21.6506 10.9092C21.4248 10.6892 21.0658 10.6892 20.84 10.9092L19.9253 11.8008C19.8674 11.8587 19.7748 11.8529 19.7343 11.824L18.8195 10.834C18.5995 10.5966 18.1885 10.5966 17.9685 10.834L17.0711 11.8008C17.0132 11.8587 16.9206 11.8587 16.8627 11.8008L15.4385 10.4113C15.3227 10.2955 15.1548 10.2376 14.9985 10.2492L12.0979 10.4345C12.069 10.4345 12.0343 10.4403 12.0053 10.4461C11.9416 10.4576 11.8779 10.4345 11.849 10.3882L11.8374 9.62974C11.8374 8.33869 10.7664 7.285 9.45215 7.285C9.44636 7.285 9.44057 7.29079 9.43478 7.29079L1.61899 7.285C1.46846 7.285 1.31794 7.3429 1.20794 7.4529C1.09794 7.5629 1.04004 7.70764 1.04004 7.86395V15.0313C1.04004 16.3224 2.1111 17.3761 3.42531 17.3761C3.44268 17.3761 3.45426 17.3703 3.47163 17.3645L9.44636 17.3761C9.44636 17.3761 9.44636 17.3761 9.45215 17.3761C10.2743 17.3761 11.0269 16.8724 11.3222 16.1197C11.5074 15.645 11.6637 15.1587 11.7853 14.6782C11.7969 14.6203 11.8548 14.5797 11.9243 14.5797H20.9443C21.0948 14.5797 21.2395 14.5218 21.3495 14.4176L22.8664 12.9355C22.9764 12.8255 23.04 12.675 23.04 12.5187C23.04 12.3624 22.9821 12.2118 22.8721 12.1018ZM20.7127 13.4218H11.9243C11.3279 13.4218 10.8069 13.8213 10.6622 14.3945C10.5522 14.8287 10.4132 15.2687 10.2453 15.6971C10.1237 16.0097 9.80531 16.2182 9.45215 16.2182L3.43109 16.2066C3.41952 16.2066 3.40793 16.2124 3.40215 16.2124C2.74215 16.195 2.20373 15.674 2.20373 15.0313V8.4429L9.45215 8.44869C9.45794 8.44869 9.45794 8.44869 9.46373 8.44869C10.1353 8.45448 10.6795 8.98132 10.6795 9.64132L10.6911 10.504C10.6911 10.5503 10.6969 10.5908 10.7085 10.6371C10.8706 11.3029 11.5421 11.7255 12.2137 11.5924L14.819 11.4245L16.0579 12.6345C16.5616 13.1266 17.3837 13.1266 17.9048 12.6113L18.3969 12.0787L18.9064 12.6287C19.41 13.1208 20.2321 13.1208 20.7358 12.6287L21.2453 12.1308L21.639 12.5129L20.7127 13.4218Z" fill="currentColor"/>
</svg>
