<svg width="25" height="24" viewBox="0 0 25 24" fill="none" xmlns="http://www.w3.org/2000/svg">
<path d="M22.4329 10.8539H19.9441C19.4991 10.0054 18.8244 9.29932 17.997 8.81628C17.1697 8.33323 16.2231 8.09275 15.2655 8.12233C14.3079 8.15192 13.378 8.45038 12.582 8.98358C11.786 9.51678 11.1562 10.2632 10.7644 11.1375C10.4882 10.5268 10.0949 9.97625 9.60684 9.51688C9.83712 9.35851 10.0258 9.1469 10.1568 8.90003C10.2878 8.65315 10.3572 8.3783 10.3593 8.09882V7.74576C10.3609 7.44073 10.2822 7.14066 10.131 6.87573C9.97981 6.61081 9.76149 6.39039 9.49803 6.23666C9.23458 6.08293 8.93528 6.0013 8.63025 6.00002C8.32522 5.99873 8.02523 6.07782 7.76048 6.22932L6.11093 7.22485L4.444 6.21774C4.17904 6.07146 3.88046 5.99697 3.57784 6.00166C3.27522 6.00635 2.97907 6.09005 2.71878 6.24447C2.45848 6.39889 2.24307 6.61867 2.0939 6.88201C1.94473 7.14535 1.86698 7.44311 1.86836 7.74576V8.09882C1.86975 8.37778 1.93834 8.65231 2.0683 8.89914C2.19827 9.14598 2.38579 9.35787 2.615 9.51688C1.65122 10.4233 1.07651 11.6682 1.01175 12.9896V13.0475C1.01175 13.1112 1.01175 13.1749 1.01175 13.2385C1.00798 14.4098 1.40712 15.5468 2.14222 16.4587C2.87731 17.3707 3.90365 18.0021 5.04906 18.247C6.19448 18.492 7.38929 18.3356 8.43308 17.8041C9.47687 17.2726 10.3061 16.3984 10.7818 15.328C11.2641 16.3894 12.0951 17.2538 13.1367 17.7774C14.1784 18.301 15.3679 18.4523 16.5074 18.2061C17.647 17.9599 18.668 17.3311 19.4006 16.4242C20.1332 15.5173 20.5334 14.387 20.5345 13.2212C20.5318 12.8096 20.4813 12.3998 20.384 11.9999H22.4329C22.5864 11.9999 22.7336 11.9389 22.8422 11.8304C22.9507 11.7218 23.0117 11.5746 23.0117 11.4211C23.0117 11.2676 22.9507 11.1204 22.8422 11.0118C22.7336 10.9033 22.5864 10.8423 22.4329 10.8423V10.8539ZM18.5897 10.8539H17.4321C17.3499 10.6938 17.3032 10.5178 17.2952 10.338C17.2872 10.1582 17.3181 9.97881 17.3858 9.81206C17.848 10.0751 18.2518 10.4296 18.5724 10.8539H18.5897ZM16.3266 9.38375C16.1517 9.85354 16.1136 10.3633 16.2167 10.8539H14.9086C14.7772 10.6181 14.7116 10.3513 14.7187 10.0814C14.7258 9.81158 14.8054 9.5486 14.9491 9.32008C15.108 9.29486 15.2686 9.28132 15.4295 9.27957C15.7257 9.28204 16.0207 9.31697 16.3093 9.38375H16.3266ZM13.5947 9.75418C13.5435 10.122 13.5691 10.4965 13.67 10.8539H12.304C12.6418 10.3961 13.0766 10.0186 13.5774 9.74839L13.5947 9.75418ZM9.80942 11.8147C7.19906 11.4037 6.17459 10.0783 5.79837 9.29693H6.12829C6.92121 9.30008 7.6948 9.54194 8.3483 9.99103C9.00179 10.4401 9.50489 11.0756 9.79206 11.8147H9.80942ZM8.35664 7.23063C8.4455 7.18066 8.54598 7.15505 8.64792 7.15639C8.74986 7.15772 8.84964 7.18595 8.93716 7.23823C9.02468 7.29051 9.09684 7.36498 9.14634 7.4541C9.19584 7.54322 9.22092 7.64383 9.21905 7.74576V8.09882C9.21887 8.20139 9.19145 8.30206 9.13958 8.39054C9.08771 8.47901 9.01327 8.55213 8.92387 8.60238C8.83717 8.65684 8.73686 8.68574 8.63447 8.68574C8.53208 8.68574 8.43177 8.65684 8.34507 8.60238L7.18748 7.89046L8.35664 7.23063ZM3.04331 7.74576C3.04232 7.64434 3.068 7.54443 3.11777 7.45605C3.16755 7.36768 3.23968 7.29394 3.32693 7.24221C3.41904 7.18513 3.52532 7.15505 3.63369 7.1554C3.72063 7.15575 3.80613 7.17762 3.88256 7.21906L5.04015 7.90783L3.91151 8.5908C3.82292 8.64196 3.72236 8.66873 3.62007 8.66838C3.51778 8.66803 3.4174 8.64057 3.32917 8.58881C3.24094 8.53705 3.16801 8.46282 3.11779 8.3737C3.06758 8.28458 3.04188 8.18375 3.04331 8.08146V7.74576ZM4.2009 9.77154C3.84161 10.6876 3.19604 11.4631 2.36034 11.9825C2.67431 11.0329 3.33318 10.2356 4.20669 9.74839L4.2009 9.77154ZM6.10513 17.1859C5.09 17.184 4.1145 16.7917 3.38071 16.0903C2.64693 15.3888 2.2111 14.432 2.16354 13.4179C3.46369 12.8255 4.52031 11.8036 5.15591 10.524C5.88519 11.5427 7.30903 12.7234 10.0467 13.0302C10.0467 13.1054 10.0467 13.1749 10.0467 13.2501C10.0407 14.2921 9.62403 15.2896 8.88724 16.0264C8.15045 16.7632 7.15289 17.1798 6.11093 17.1859H6.10513ZM19.3769 13.2212C19.3784 13.7935 19.2556 14.3593 19.017 14.8795C18.7785 15.3998 18.4298 15.862 17.995 16.2342C17.5603 16.6065 17.05 16.8799 16.4992 17.0356C15.9485 17.1914 15.3705 17.2256 14.8052 17.1361C14.24 17.0465 13.7009 16.8353 13.2252 16.517C12.7496 16.1987 12.3487 15.7809 12.0503 15.2925C11.7519 14.8042 11.5632 14.2568 11.497 13.6883C11.4309 13.1198 11.489 12.5437 11.6673 11.9999H19.1917C19.3187 12.3944 19.3812 12.8068 19.3769 13.2212Z" fill="currentColor"/>
</svg>
