<svg width="24" height="24" viewBox="0 0 24 24" fill="none" xmlns="http://www.w3.org/2000/svg">
<path d="M16.8803 17.4146L15.9427 12.2981C15.8559 11.835 15.9138 11.3662 16.099 10.9379L16.7067 9.51408C16.8803 9.10892 16.9672 8.68061 16.9672 8.24073C16.9672 6.46383 15.5202 5.01105 13.7375 5.01105H12.794V3.65667H13.7143C14.0327 3.65667 14.2931 3.39621 14.2931 3.07787C14.2931 2.75954 14.0327 2.49908 13.7143 2.49908H12.794V1.5788C12.794 1.26046 12.5336 1 12.2152 1C11.8969 1 11.6365 1.26046 11.6365 1.5788V2.49908H10.7162C10.3978 2.49908 10.1374 2.75954 10.1374 3.07787C10.1374 3.39621 10.3978 3.65667 10.7162 3.65667H11.6365V5.01684H10.6236C8.84666 5.01684 7.39389 6.46383 7.39389 8.24651C7.39389 8.6864 7.4807 9.11471 7.65434 9.51986L8.26208 10.9437C8.44729 11.372 8.49939 11.8466 8.41835 12.3039L7.48649 17.3741H6.21893C5.90059 17.3741 5.64014 17.6346 5.64014 17.9529V20.708C5.64014 21.9697 6.6704 23 7.93217 23H18.1305C18.4489 23 18.7093 22.7395 18.7093 22.4212V19.6661C18.7151 18.5549 17.928 17.6288 16.8803 17.4146ZM9.33285 10.4807L8.72512 9.05683C8.61514 8.79637 8.55726 8.52434 8.55726 8.24073C8.55726 7.1005 9.48333 6.16864 10.6293 6.16864H13.7433C14.8835 6.16864 15.8154 7.09471 15.8154 8.24073C15.8154 8.52434 15.7575 8.79637 15.6475 9.05683L15.0398 10.4749C14.762 11.1173 14.6867 11.8177 14.814 12.5007L15.7054 17.3625H8.6846L9.57594 12.5007C9.68592 11.8235 9.61067 11.1231 9.33285 10.4807ZM17.5575 21.8366H7.93795C7.31286 21.8366 6.80351 21.3273 6.80351 20.7022V18.5259H7.97268H16.3826H16.4173C17.0424 18.5259 17.5517 19.0353 17.5517 19.6604V21.8366H17.5575Z" fill="currentColor"/>
</svg>
