<svg width="24" height="24" viewBox="0 0 24 24" fill="none" xmlns="http://www.w3.org/2000/svg">
<path d="M17.8952 17.618C17.9385 15.7611 18.0314 9.05142 17.1153 6.74265C16.0073 3.84584 15.0417 3.35685 13.7605 3.49303C13.6243 3.50541 13.4757 3.52398 13.4324 3.49922C13.2529 3.3878 13.1477 3.20211 12.9867 2.89881C12.7082 2.37269 12.3182 1.66086 11.1917 1.47517C10.9998 1.44422 10.8018 1.50612 10.6594 1.64229C10.517 1.77847 10.4489 1.97654 10.4799 2.16842C10.6037 3.09689 10.319 3.53636 9.74949 4.01916C9.14909 4.53291 6.27705 7.17593 5.70759 7.70206C5.16908 8.19724 5.07623 9.0638 5.49095 9.68278L6.29562 10.8712C6.50608 11.1869 6.82174 11.3911 7.17456 11.453C7.51499 11.5149 7.85543 11.4345 8.14016 11.224C9.05005 10.5617 9.5638 10.4565 9.70616 10.4936C10.0156 10.5741 10.3252 10.5741 10.6099 10.5184C10.1642 11.0507 9.58236 11.4964 9.29764 11.6821C9.26669 11.7006 9.24194 11.7192 9.21719 11.744L7.90494 12.9386C7.35406 13.44 7.03838 14.1827 7.03838 14.9874L7.06934 17.4509H6.12231C5.78188 17.4509 5.50334 17.7295 5.50334 18.0699V21.0162C5.50334 22.3656 6.60511 23.4673 7.95447 23.4673H18.8546C19.195 23.4673 19.4736 23.1888 19.4736 22.8484V19.9021C19.4674 18.856 18.8113 17.9708 17.8952 17.618ZM8.27015 14.9812C8.27015 14.5417 8.44347 14.1208 8.73439 13.8547L10.0033 12.6972C10.4118 12.431 12.4482 11.0012 12.4111 9.23093C12.4049 8.98953 12.2625 8.77288 12.0397 8.67385C11.8169 8.57481 11.5631 8.61814 11.3836 8.77907C11.2227 8.92144 10.517 9.429 10.0156 9.29901C9.35335 9.1257 8.49917 9.429 7.37883 10.2337C7.36026 10.2337 7.33549 10.2151 7.31073 10.178L6.50607 8.98953C6.4318 8.87811 6.44416 8.69861 6.53082 8.61814C8.09682 7.17593 10.0899 5.35614 10.5418 4.96619C11.0432 4.5391 11.5321 4.00059 11.6869 3.14021C11.755 3.23925 11.8169 3.35685 11.885 3.48684C12.0707 3.83347 12.2997 4.26056 12.7639 4.55148C13.1662 4.80526 13.5748 4.75574 13.8781 4.72479C14.3609 4.67527 14.9613 4.60718 15.9516 7.18831C16.682 9.02666 16.713 14.7398 16.6511 17.4447H8.2949L8.27015 14.9812ZM18.2295 22.2232H7.94828C7.27978 22.2232 6.73509 21.6785 6.73509 21.01V18.6827H7.68832H17.0163C17.6847 18.6827 18.2295 19.2274 18.2295 19.8959V22.2232Z" fill="currentColor"/>
</svg>
