<svg width="24" height="24" viewBox="0 0 24 24" fill="none" xmlns="http://www.w3.org/2000/svg">
<path d="M23 12C23 9.15737 21.9058 6.56947 20.1284 4.61263C20.1284 4.60684 20.1284 4.60105 20.1226 4.60105C20.0821 4.53158 20.0242 4.47368 19.9605 4.42737C17.9516 2.32 15.1321 1 12 1C8.86789 1 6.04842 2.32 4.04526 4.42737C3.98158 4.47368 3.92368 4.52579 3.88316 4.59526C3.88316 4.60105 3.88316 4.60684 3.87737 4.60684C2.09421 6.56947 1 9.15737 1 12C1 14.8426 2.09421 17.4305 3.87158 19.3874C3.87158 19.3932 3.87158 19.3989 3.87737 19.3989C3.9179 19.4626 3.97 19.5147 4.02789 19.5611C6.01947 21.6626 8.82737 22.9826 11.9363 23H11.9421C11.9595 23 11.9768 23 11.9884 23C11.9942 23 12 23 12.0058 23C12.0174 23 12.0289 23 12.0347 23H12.0405C15.1553 22.9826 17.9632 21.6626 19.9547 19.5611C20.0126 19.5205 20.0647 19.4684 20.1053 19.4047C20.1053 19.3989 20.1053 19.3989 20.111 19.3932C21.9058 17.4363 23 14.8484 23 12ZM2.18684 12.5789H6.06C6.09474 14.5589 6.34368 16.1626 6.72579 17.4595C5.71842 17.7779 4.94842 18.1311 4.50842 18.3626C3.16526 16.7879 2.31421 14.7789 2.18684 12.5789ZM4.50842 5.63737C4.96 5.86895 5.74737 6.23368 6.78947 6.55789C6.39 7.85474 6.11789 9.45263 6.06579 11.4211H2.18684C2.31421 9.22105 3.16526 7.2179 4.50842 5.63737ZM21.8132 11.4211H17.9342C17.8821 9.45263 17.61 7.85474 17.2105 6.55789C18.2526 6.23368 19.04 5.86895 19.4916 5.63737C20.8347 7.2179 21.6858 9.22105 21.8132 11.4211ZM12.5789 6.08895V2.36632C13.3721 2.71368 14.7153 3.59947 15.6763 5.76474C14.7558 5.96737 13.7137 6.10053 12.5789 6.08895ZM11.4211 2.36053V6.08895C10.2805 6.10632 9.22684 5.96737 8.31211 5.75895C9.26737 3.57632 10.6163 2.70211 11.4211 2.36053ZM11.2474 7.25263C11.3053 7.25263 11.3632 7.24684 11.4211 7.24684V11.4211H7.22368C7.27579 9.55105 7.53052 8.05737 7.90684 6.85895C8.88526 7.09053 10.0142 7.25263 11.2474 7.25263ZM11.4211 12.5789V16.7532C10.0953 16.7358 8.89105 16.9037 7.84895 17.1526C7.49 15.96 7.25263 14.4547 7.2179 12.5789H11.4211ZM11.4211 17.9168V21.6742C10.6163 21.3674 9.20948 20.5163 8.24842 18.2584C9.18053 18.0442 10.2516 17.8995 11.4211 17.9168ZM12.5789 17.9168C13.7542 17.9053 14.831 18.05 15.7689 18.2642C14.8079 20.5453 13.3953 21.3847 12.5789 21.6858V17.9168ZM12.5789 16.7589V12.5789H16.7821C16.7474 14.4605 16.51 15.96 16.1568 17.1526C15.1147 16.9095 13.9047 16.7416 12.5789 16.7589ZM12.5789 11.4211V7.24684C12.6368 7.24684 12.7005 7.25263 12.7526 7.25263C13.9858 7.25263 15.1089 7.09053 16.0874 6.86474C16.4637 8.05737 16.7126 9.56263 16.7705 11.4268H12.5789V11.4211ZM16.8226 5.46368C16.29 4.18421 15.6242 3.26947 14.9642 2.61526C16.3537 3.05526 17.5984 3.79632 18.6463 4.76316C18.2121 4.96579 17.5926 5.22053 16.8226 5.46368ZM7.18315 5.46368C6.41315 5.22632 5.79368 4.96579 5.35947 4.76316C6.40737 3.80211 7.6521 3.05526 9.04158 2.62105C8.37579 3.26947 7.71579 4.18421 7.18315 5.46368ZM7.1079 18.5653C7.6 19.7868 8.21948 20.6726 8.84474 21.3153C7.53632 20.8695 6.35526 20.1574 5.35947 19.2426C5.77632 19.0458 6.37263 18.7968 7.1079 18.5653ZM16.8921 18.5653C17.6274 18.7968 18.2237 19.0458 18.6405 19.2426C17.6447 20.1574 16.4637 20.8695 15.1553 21.3153C15.7863 20.6726 16.4 19.7868 16.8921 18.5653ZM17.2742 17.4653C17.6563 16.1684 17.9053 14.5589 17.94 12.5789H21.8132C21.6858 14.7789 20.8347 16.7879 19.4916 18.3626C19.0516 18.1368 18.2816 17.7837 17.2742 17.4653Z" fill="currentColor"/>
</svg>
