<svg width="24" height="24" viewBox="0 0 24 24" fill="none" xmlns="http://www.w3.org/2000/svg">
<path d="M22.4211 15.7394H21.5121V4.03891C21.5121 3.72049 21.2516 3.45996 20.9332 3.45996H3.06685C2.74843 3.45996 2.4879 3.72049 2.4879 4.03891V15.7394H1.57895C1.26053 15.7394 1 16 1 16.3184V16.4342C1 18.3331 2.54579 19.8731 4.43895 19.8731H22.4211C22.7395 19.8731 23 19.6126 23 19.2942V16.3184C23 15.9942 22.7395 15.7394 22.4211 15.7394ZM3.64579 4.61786H20.3542V15.7394H13.8932H10.1068H3.64579V4.61786ZM10.6858 16.8973H13.3142V17.2273H10.6858V16.8973ZM21.8421 18.7152H4.43895C3.33895 18.7152 2.41842 17.9336 2.20421 16.8973H3.06685H9.52789V17.8063C9.52789 18.1247 9.78842 18.3852 10.1068 18.3852H13.8932C14.2116 18.3852 14.4721 18.1247 14.4721 17.8063V16.8973H20.9332H21.8421V18.7152Z" fill="currentColor"/>
</svg>
