<svg width="24" height="24" viewBox="0 0 24 24" fill="none" xmlns="http://www.w3.org/2000/svg">
<path d="M22.4211 5.54265H15.5547V3.71896C15.5547 3.40054 15.2942 3.14001 14.9758 3.14001H9.02421C8.70579 3.14001 8.44526 3.40054 8.44526 3.71896V5.54265H1.57895C1.26053 5.54265 1 5.80317 1 6.12159V17.1911C1 19.1132 2.56316 20.6763 4.48526 20.6763H22.4211C22.7395 20.6763 23 20.4158 23 20.0974V6.12159C23 5.80317 22.7395 5.54265 22.4211 5.54265ZM9.60316 4.29791H14.4026V5.54265H9.60316V4.29791ZM21.8421 6.70054V10.5853H14.8079V9.71686C14.8079 9.39844 14.5474 9.13791 14.2289 9.13791H9.77684C9.45842 9.13791 9.1979 9.39844 9.1979 9.71686V10.5853H2.15789V6.70054H21.8421ZM10.35 10.2958H13.6442V13.4511H10.35V10.2958ZM4.48526 19.5184C3.20579 19.5184 2.15789 18.4763 2.15789 17.1911V11.7432H9.19211V14.0358C9.19211 14.3542 9.45263 14.6148 9.77105 14.6148H14.2232C14.5416 14.6148 14.8021 14.3542 14.8021 14.0358V11.7432H21.8421V19.5184H4.48526Z" fill="currentColor"/>
</svg>
