<svg width="24" height="25" viewBox="0 0 24 25" fill="none" xmlns="http://www.w3.org/2000/svg">
<path d="M4.58261 22.8508H8.1243H15.0135H21.9028C22.271 22.8508 22.5723 22.5496 22.5723 22.1813V15.2921C22.5723 14.9239 22.271 14.6226 21.9028 14.6226H15.683V4.96162C15.683 4.59339 15.3818 4.29211 15.0135 4.29211H8.131C7.76277 4.29211 7.46149 4.59339 7.46149 4.96162V9.45401H1.24177C0.873544 9.45401 0.572266 9.75529 0.572266 10.1235V18.8338C0.572266 21.0499 2.37324 22.8508 4.58261 22.8508ZM21.2333 15.9616V21.5118H15.683V15.9616H21.2333ZM8.80051 5.63113H14.3507V15.2921V21.5118H8.80051V10.1302V5.63113ZM1.91128 10.7997H7.46149V21.5118H4.58931C3.11639 21.5118 1.91798 20.3134 1.91798 18.8405V10.7997H1.91128Z" fill="currentColor"/>
</svg>
