<svg width="24" height="25" viewBox="0 0 24 25" fill="none" xmlns="http://www.w3.org/2000/svg">
<path d="M5.49581 23.0001H8.53439H14.49H20.4456C20.7639 23.0001 21.0244 22.7396 21.0244 22.4213V17.6579C21.0244 17.3396 20.7639 17.0792 20.4456 17.0792H15.0688V10.5101C15.0688 10.1917 14.8083 9.93127 14.49 9.93127H8.53439C8.21606 9.93127 7.95561 10.1917 7.95561 10.5101V13.5023H2.57878C2.26045 13.5023 2 13.7628 2 14.0811V19.5042C2 21.4316 3.56849 23.0001 5.49581 23.0001ZM19.861 18.2367V21.8425H15.063V18.2367H19.861ZM9.11317 11.0888H13.9112V17.6522V21.8367H9.11317V14.0811V11.0888ZM3.15755 14.6657H7.95561V21.8425H5.49581C4.21093 21.8425 3.16334 20.7949 3.16334 19.51V14.6657H3.15755Z" fill="currentColor"/>
<path d="M9.04367 6.16918L8.68483 8.34538C8.65011 8.56531 8.73692 8.77946 8.91634 8.91258C9.01473 8.98203 9.13628 9.02254 9.25203 9.02254C9.34464 9.02254 9.43724 8.99939 9.52406 8.95309L11.4745 7.91708L13.4366 8.92994C13.6334 9.03412 13.8707 9.01097 14.0443 8.88364C14.2237 8.75052 14.3105 8.53059 14.27 8.31644L13.8822 6.14024L15.4565 4.58912C15.6128 4.43285 15.6707 4.20134 15.6012 3.99298C15.5318 3.78462 15.3523 3.63413 15.1324 3.59941L12.9446 3.29266L11.9549 1.31903C11.8565 1.12224 11.6366 0.989124 11.434 1.0007C11.2141 1.0007 11.0115 1.12803 10.9189 1.32481L9.95235 3.31581L7.77037 3.64571C7.55043 3.68044 7.37101 3.83092 7.30734 4.04507C7.23789 4.25343 7.29577 4.48494 7.45783 4.63542L9.04367 6.16918ZM10.4269 4.41548C10.6179 4.38654 10.78 4.265 10.861 4.09716L11.4456 2.8933L12.0475 4.09137C12.1343 4.25921 12.2964 4.38076 12.4874 4.40391L13.8128 4.58912L12.8578 5.53252C12.7247 5.66564 12.661 5.85664 12.6958 6.04763L12.9273 7.36724L11.7408 6.75374C11.5729 6.66692 11.3704 6.66692 11.2025 6.75953L10.0218 7.39039L10.2417 6.07078C10.2707 5.88558 10.207 5.69458 10.0739 5.56146L9.10734 4.62963L10.4269 4.41548Z" fill="currentColor"/>
</svg>
