<svg width="24" height="24" viewBox="0 0 24 24" fill="none" xmlns="http://www.w3.org/2000/svg">
<path d="M20.3789 1.09009H12.1754C7.33095 1.09009 3.3916 5.02943 3.3916 9.87384C3.3916 12.4208 4.48812 14.7125 6.22283 16.3195C5.56724 17.8976 5.03348 19.9224 4.88264 22.4751C4.86523 22.7942 5.1089 23.0669 5.42799 23.0901C5.43959 23.0901 5.45121 23.0901 5.46281 23.0901C5.7703 23.0901 6.02557 22.8522 6.04298 22.5447C6.17061 20.3169 6.61734 18.5184 7.1743 17.0911C8.59572 18.0774 10.3188 18.6634 12.1754 18.6634C17.0198 18.6634 20.9591 14.7241 20.9591 9.87964V1.67026C20.9591 1.35116 20.698 1.09009 20.3789 1.09009ZM19.7988 9.87964C19.7988 14.0859 16.3758 17.5031 12.1754 17.5031C10.4813 17.5031 8.92061 16.9403 7.65585 16.0062C8.84519 13.5927 10.2434 12.5774 10.2666 12.56C10.5277 12.3802 10.5973 12.0205 10.4174 11.7536C10.2376 11.4925 9.87789 11.4229 9.61101 11.6027C9.50658 11.6724 8.02715 12.7341 6.73918 15.2114C5.38738 13.8364 4.55194 11.9508 4.55194 9.87384C4.55194 5.66762 7.97493 2.25043 12.1754 2.25043H19.7988V9.87964Z" fill="currentColor"/>
</svg>
