<svg width="24" height="24" viewBox="0 0 24 24" fill="none" xmlns="http://www.w3.org/2000/svg">
<path d="M11.1953 20.0165C11.4673 20.0165 11.6885 20.2367 11.6885 20.5087V22.5067C11.6885 22.7787 11.4673 22.9999 11.1953 22.9999H0.493164C0.221145 22.9999 0 22.7787 0 22.5067V20.5087C2.01966e-05 20.2367 0.221158 20.0165 0.493164 20.0165H11.1953ZM21.6855 0.00867215C21.8143 -0.0156706 21.9457 0.0116055 22.0547 0.0858206C22.1625 0.158958 22.2373 0.27294 22.2617 0.40125L23.3779 6.31141C23.4278 6.57884 23.2522 6.83691 22.9854 6.88758L20.6133 7.33582C20.5826 7.34157 20.5521 7.34361 20.5215 7.34363C20.4233 7.34363 20.3259 7.31415 20.2432 7.2577C20.1356 7.1846 20.0615 7.07135 20.0371 6.94324L19.9512 6.48914L18.6143 6.74207L19.5596 11.7489L19.5742 11.746C19.703 11.7216 19.835 11.7489 19.9434 11.8231C20.0511 11.8963 20.126 12.0102 20.1504 12.1386L21.998 21.9208C22.0218 22.0497 21.9936 22.1822 21.9199 22.2899C21.8468 22.3977 21.7334 22.4726 21.6045 22.497L19.2119 22.9481C19.1812 22.9539 19.1502 22.9569 19.1201 22.9569C18.8879 22.9569 18.6807 22.7916 18.6357 22.5555L16.7881 12.7743C16.7381 12.5069 16.914 12.249 17.1807 12.1981L17.1963 12.1952L16.251 7.18836L14.9141 7.44031L14.999 7.89344C15.0228 8.02238 14.9956 8.15578 14.9219 8.26355C14.8487 8.37134 14.7344 8.44523 14.6055 8.46961L12.2334 8.91785C12.2026 8.92361 12.1717 8.92566 12.1416 8.92566C11.9095 8.9256 11.7032 8.76123 11.6582 8.52527L10.542 2.61609C10.492 2.34857 10.6677 2.0906 10.9346 2.03992L13.3066 1.59168C13.435 1.5673 13.5677 1.59441 13.6768 1.66883C13.7844 1.74197 13.8585 1.85605 13.8828 1.98426L13.9688 2.43738L19.0059 1.48621L18.9199 1.03309C18.8699 0.76559 19.0466 0.507591 19.3135 0.456914L21.6855 0.00867215ZM0.985352 22.0145H10.7031V21.0018H0.985352V22.0145ZM19.2607 12.8085H19.2588L17.8643 13.0721C17.8627 13.0724 17.861 13.0728 17.8594 13.0731L17.8486 13.0751L19.5137 21.8886L20.9385 21.62L19.2734 12.8055L19.2607 12.8085ZM7.97656 16.5565C8.87738 16.5565 10.2029 17.1268 10.249 18.6747H10.2539C10.5258 18.6747 10.7469 18.895 10.7471 19.1669C10.7471 19.4389 10.5259 19.66 10.2539 19.66H1.43555C1.16353 19.66 0.942383 19.4389 0.942383 19.1669C0.942585 18.895 1.16365 18.6747 1.43555 18.6747H1.43848C1.47248 17.8999 2.04725 16.5565 4.06445 16.5565H7.97656ZM4.06445 17.5419C2.66667 17.5419 2.45486 18.368 2.42383 18.6747H9.26172C9.20896 17.6193 8.18563 17.5444 7.97461 17.5419H4.06445ZM5.84473 4.97449C8.83305 4.97453 11.2646 7.40608 11.2646 10.3944C11.2645 13.3826 8.83294 15.8143 5.84473 15.8143C2.85648 15.8143 0.424979 13.3826 0.424805 10.3944C0.424805 7.40606 2.85637 4.97449 5.84473 4.97449ZM5.84473 5.95984C3.39977 5.95984 1.41016 7.94945 1.41016 10.3944C1.41033 12.8392 3.39987 14.829 5.84473 14.829C8.28954 14.8289 10.2791 12.8392 10.2793 10.3944C10.2793 7.94948 8.28965 5.95989 5.84473 5.95984ZM7.97363 8.20887C8.16608 8.01662 8.47751 8.01656 8.66992 8.20887C8.86239 8.40133 8.86239 8.71367 8.66992 8.90613L5.00293 12.5731C5.00008 12.5759 4.99606 12.5764 4.99316 12.579C4.9835 12.5884 4.97923 12.6014 4.96875 12.6102C4.87701 12.6859 4.76529 12.7225 4.6543 12.7225C4.54322 12.7225 4.43904 12.6745 4.34961 12.6014C4.33612 12.5905 4.31926 12.5855 4.30664 12.5731C4.30383 12.5703 4.30253 12.5662 4.2998 12.5634C4.29227 12.5554 4.28146 12.5524 4.27441 12.5438L2.98828 10.9843C2.81511 10.7745 2.84408 10.4641 3.05371 10.2909C3.26222 10.1183 3.57321 10.1462 3.74707 10.3573L4.68652 11.495L7.97363 8.20887ZM17.2197 7.00477L18.165 12.0116L18.5908 11.9315L17.6455 6.92469L17.2197 7.00477ZM11.6016 2.91688L12.5352 7.85828L13.9395 7.59266L13.8535 7.13953V7.13856L13.5723 5.64734L13.0059 2.65125L11.6016 2.91688ZM14.1514 3.40613L14.3604 4.5116L14.7305 6.47254L16.541 6.12977C16.545 6.12888 16.5487 6.12666 16.5527 6.12586L17.9463 5.86316C17.9498 5.86247 17.9534 5.86363 17.957 5.86316L19.7676 5.52039L19.1885 2.45496L14.1514 3.40613ZM19.9805 1.33387L20.0654 1.78602L20.0664 1.78797L20.8281 5.82117V5.8241L20.9141 6.27625L22.3184 6.01063L21.3848 1.06824L19.9805 1.33387Z" fill="currentColor"/>
</svg>
