<svg width="24" height="24" viewBox="0 0 24 24" fill="none" xmlns="http://www.w3.org/2000/svg">
<path d="M19.032 8.70579C19.032 5.59684 16.6699 1 11.5983 1C6.50356 1 4.12988 5.59684 4.12988 8.70579C4.12988 11.7568 5.82041 13.4416 5.87251 13.4995C6.94935 14.6342 6.83935 15.63 6.83935 15.6647C6.83356 15.6937 6.83357 15.7226 6.83357 15.7516C6.83357 16.4232 7.18672 17.0079 7.71935 17.3379V18.9242V19.6247C7.71935 20.2326 8.02619 20.7653 8.49514 21.0779C8.6283 22.1605 9.5083 23 10.5851 23H12.5536C13.6188 23 14.493 22.1779 14.6436 21.1068C15.1415 20.7942 15.4772 20.25 15.4772 19.6189V18.9184V17.3147C15.9867 16.9789 16.3283 16.4 16.3283 15.7458C16.3283 15.7226 16.3283 15.6879 16.3225 15.6647C16.3167 15.6242 16.2067 14.6226 17.272 13.5053C17.3415 13.4416 19.032 11.7568 19.032 8.70579ZM12.4899 16.4695H10.672V8.18474C11.7141 8.44526 12.4899 9.38895 12.4899 10.5121V16.4695ZM10.093 17.6274H13.0688H14.3194V18.3453H8.87146V17.6274H10.093ZM14.3194 19.6247C14.3194 19.9547 14.053 20.2211 13.723 20.2211H9.47356C9.14356 20.2211 8.87725 19.9547 8.87725 19.6247V19.5032H14.3251V19.6247H14.3194ZM12.5594 21.8421H10.5909C10.2551 21.8421 9.96567 21.6568 9.79199 21.3789H13.3641C13.1846 21.6568 12.8894 21.8421 12.5594 21.8421ZM15.1704 15.7805C15.1588 16.1684 14.8404 16.4753 14.4525 16.4753H13.6478V10.5121C13.6478 8.54947 12.0499 6.95737 10.093 6.95737C9.77461 6.95737 9.51409 7.21789 9.51409 7.53632V16.4753H8.70935C8.32146 16.4753 8.00304 16.1684 7.99146 15.7805C8.02041 15.4737 8.05515 14.1074 6.70041 12.6889C6.64252 12.6311 5.28778 11.2532 5.28778 8.70579C5.28778 6.06579 7.29093 2.15789 11.5983 2.15789C15.8825 2.15789 17.8741 6.06579 17.8741 8.70579C17.8741 11.2474 16.5194 12.6311 16.4499 12.7005C15.1067 14.1074 15.1415 15.4737 15.1704 15.7805Z" fill="currentColor"/>
</svg>
