<svg width="24" height="25" viewBox="0 0 24 25" fill="none" xmlns="http://www.w3.org/2000/svg">
<path d="M12 24.748C18.6274 24.748 24 19.3755 24 12.748C24 6.12063 18.6274 0.748047 12 0.748047C5.37259 0.748047 0 6.12063 0 12.748C0 19.3755 5.37259 24.748 12 24.748Z" fill="#2967B0"/>
<path d="M12.7409 11.6482C12.9409 11.4282 13.1009 11.2015 13.3009 11.0082C13.9209 10.4215 14.6609 10.1282 15.5209 10.1349C15.9942 10.1415 16.4609 10.1749 16.9142 10.3015C17.9542 10.6015 18.5609 11.3215 18.8476 12.3349C19.0609 13.0949 19.1009 13.8815 19.1076 14.6682C19.1076 16.3282 19.1009 17.9815 19.1076 19.6415C19.1076 19.7949 19.0676 19.8349 18.9142 19.8349C18.0609 19.8282 17.2076 19.8282 16.3542 19.8349C16.2009 19.8349 16.1742 19.7882 16.1742 19.6482C16.1809 18.0682 16.1809 16.4949 16.1742 14.9149C16.1742 14.5215 16.1476 14.1215 16.0342 13.7415C15.8276 13.0349 15.3209 12.6749 14.5809 12.7149C13.5676 12.7682 13.0409 13.2682 12.9142 14.3015C12.8809 14.5482 12.8676 14.7949 12.8676 15.0415C12.8676 16.5749 12.8676 18.1082 12.8742 19.6415C12.8742 19.7949 12.8342 19.8415 12.6809 19.8415C11.8209 19.8349 10.9609 19.8349 10.1009 19.8415C9.96089 19.8415 9.9209 19.8082 9.9209 19.6682C9.92757 16.6282 9.92757 13.5949 9.9209 10.5549C9.9209 10.4015 9.96755 10.3682 10.1142 10.3682C10.9342 10.3749 11.7476 10.3749 12.5676 10.3682C12.7209 10.3682 12.7542 10.4149 12.7542 10.5549C12.7409 10.9215 12.7409 11.2882 12.7409 11.6482Z" fill="#FDFDFD"/>
<path d="M8.05995 15.1216C8.05995 16.6216 8.05995 18.1282 8.06662 19.6282C8.06662 19.7949 8.02661 19.8482 7.85328 19.8415C6.99995 19.8349 6.14661 19.8349 5.29327 19.8415C5.15327 19.8415 5.11328 19.8082 5.11328 19.6682C5.11995 16.6282 5.11995 13.5816 5.11328 10.5416C5.11328 10.4149 5.14661 10.3682 5.27995 10.3749C6.14661 10.3816 7.01327 10.3816 7.87993 10.3749C8.0466 10.3749 8.06662 10.4349 8.06662 10.5816C8.05995 12.0882 8.05995 13.6016 8.05995 15.1216Z" fill="#FDFDFD"/>
<path d="M8.30005 7.35478C8.30005 8.29478 7.53338 9.06812 6.59338 9.06812C5.66672 9.06812 4.89339 8.30145 4.88672 7.36812C4.88672 6.42812 5.65338 5.65479 6.59338 5.65479C7.52672 5.66145 8.30005 6.42812 8.30005 7.35478Z" fill="#FDFDFD"/>
</svg>
