<svg width="24" height="24" viewBox="0 0 24 24" fill="none" xmlns="http://www.w3.org/2000/svg">
<g clip-path="url(#clip0_1_1599)">
<path d="M7.29832 23C5.68322 23 4.06812 22.3863 2.84087 21.1591C0.386377 18.7046 0.386377 14.7045 2.84087 12.25L5.5385 9.55235C6.73101 8.35983 8.31138 7.70569 9.99595 7.70569C11.6805 7.70569 13.2609 8.35983 14.4534 9.55235L14.7544 9.85337C15.3738 10.4728 15.8369 11.2022 16.1322 12.0184C16.2422 12.3194 16.0859 12.6494 15.7848 12.7594C15.4838 12.8694 15.1539 12.7131 15.0439 12.4121C14.8065 11.7579 14.436 11.1732 13.9382 10.6754L13.6372 10.3744C11.6342 8.37141 8.36927 8.37141 6.36631 10.3744L3.66289 13.0662C1.65993 15.0692 1.65993 18.3341 3.66289 20.3371C5.67164 22.34 8.93079 22.34 10.9395 20.3371L13.1393 18.1373C13.3651 17.9115 13.7298 17.9115 13.9556 18.1373C14.1813 18.3631 14.1813 18.7278 13.9556 18.9535L11.7558 21.1533C10.5227 22.3863 8.91342 23 7.29832 23Z" fill="currentColor"/>
<path d="M13.9957 16.3022C12.3111 16.3022 10.7307 15.6481 9.53823 14.4556L9.2372 14.1545C8.61779 13.5351 8.15468 12.8057 7.85945 11.9895C7.74946 11.6885 7.90576 11.3585 8.20678 11.2485C8.5078 11.1385 8.83777 11.2948 8.94776 11.5959C9.1851 12.25 9.55559 12.8347 10.0534 13.3325L10.3545 13.6335C12.3632 15.6423 15.6224 15.6365 17.6311 13.6335L20.3287 10.9359C22.3317 8.93296 22.3317 5.66802 20.3287 3.65928C18.32 1.65632 15.0608 1.65632 13.0521 3.65928L10.8523 5.85906C10.6265 6.08482 10.2618 6.08482 10.0361 5.85906C9.8103 5.63329 9.8103 5.26859 10.0361 5.04282L12.2359 2.84304C14.6961 0.382759 18.6905 0.388548 21.145 2.84304C23.5995 5.29753 23.5995 9.29766 21.145 11.7522L18.4473 14.4498C17.2606 15.6481 15.6802 16.3022 13.9957 16.3022Z" fill="currentColor"/>
</g>
<defs>
<clipPath id="clip0_1_1599">
<rect width="24" height="24" fill="white"/>
</clipPath>
</defs>
</svg>
