<svg width="24" height="25" viewBox="0 0 24 25" fill="none" xmlns="http://www.w3.org/2000/svg">
<path d="M20.62 24.748H3.38C1.51333 24.748 0 23.2347 0 21.368V4.12805C0 2.26138 1.51333 0.748047 3.38 0.748047H20.62C22.4867 0.748047 24 2.26138 24 4.12805V21.368C24 23.2347 22.4867 24.748 20.62 24.748Z" fill="#2967B0"/>
<path d="M12.9274 11.1145C13.1274 10.8945 13.2874 10.6679 13.4874 10.4745C14.1074 9.88785 14.8474 9.59452 15.7074 9.60119C16.1808 9.60785 16.6474 9.64119 17.1008 9.76785C18.1408 10.0679 18.7474 10.7879 19.0341 11.8012C19.2474 12.5612 19.2874 13.3479 19.2941 14.1345C19.2941 15.7945 19.2874 17.4479 19.2941 19.1079C19.2941 19.2612 19.2541 19.3012 19.1008 19.3012C18.2474 19.2945 17.3941 19.2945 16.5408 19.3012C16.3874 19.3012 16.3608 19.2545 16.3608 19.1145C16.3674 17.5345 16.3674 15.9612 16.3608 14.3812C16.3608 13.9879 16.3341 13.5879 16.2208 13.2079C16.0141 12.5012 15.5074 12.1412 14.7674 12.1812C13.7541 12.2345 13.2274 12.7345 13.1008 13.7679C13.0674 14.0145 13.0541 14.2612 13.0541 14.5079C13.0541 16.0412 13.0541 17.5745 13.0608 19.1079C13.0608 19.2612 13.0208 19.3079 12.8674 19.3079C12.0074 19.3012 11.1474 19.3012 10.2874 19.3079C10.1474 19.3079 10.1074 19.2745 10.1074 19.1345C10.1141 16.0945 10.1141 13.0612 10.1074 10.0212C10.1074 9.86785 10.1541 9.83452 10.3008 9.83452C11.1208 9.84119 11.9341 9.84119 12.7541 9.83452C12.9074 9.83452 12.9408 9.88119 12.9408 10.0212C12.9208 10.3879 12.9274 10.7479 12.9274 11.1145Z" fill="#FDFDFD"/>
<path d="M8.24745 14.5813C8.24745 16.0813 8.24745 17.5879 8.25411 19.0879C8.25411 19.2546 8.21412 19.3079 8.04078 19.3013C7.18745 19.2946 6.33411 19.2946 5.48078 19.3013C5.34078 19.3013 5.30078 19.2679 5.30078 19.1279C5.30745 16.0879 5.30745 13.0413 5.30078 10.0013C5.30078 9.8746 5.33411 9.82794 5.46745 9.8346C6.33411 9.84127 7.20078 9.84127 8.06745 9.8346C8.23412 9.8346 8.25411 9.8946 8.25411 10.0413C8.24745 11.5546 8.24745 13.0679 8.24745 14.5813Z" fill="#FDFDFD"/>
<path d="M8.48755 6.82134C8.48755 7.76134 7.72089 8.53467 6.78089 8.53467C5.85422 8.53467 5.08089 7.768 5.07422 6.83467C5.07422 5.89467 5.84089 5.12134 6.78089 5.12134C7.71422 5.12134 8.48755 5.888 8.48755 6.82134Z" fill="#FDFDFD"/>
</svg>
