<svg width="24" height="24" viewBox="0 0 24 24" fill="none" xmlns="http://www.w3.org/2000/svg">
<path d="M12.4477 11.5053C10.9499 11.5053 9.73193 10.2873 9.73193 8.78955C9.73193 7.2918 10.9499 6.07379 12.4477 6.07379C13.9454 6.07379 15.1635 7.2918 15.1635 8.78955C15.1635 10.2873 13.9454 11.5053 12.4477 11.5053ZM12.4477 7.23353C11.591 7.23353 10.8975 7.92704 10.8975 8.78373C10.8975 9.64041 11.591 10.3339 12.4477 10.3339C13.3044 10.3339 13.9979 9.64041 13.9979 8.78373C13.9979 7.92704 13.3044 7.23353 12.4477 7.23353Z" fill="currentColor"/>
<path d="M12.4472 23.26C12.2841 23.26 12.1267 23.1901 12.016 23.0735C11.7188 22.7472 4.69043 15.0603 4.69043 9.16253C4.69043 2.90928 9.76063 1.26001 12.4414 1.26001C15.1222 1.26001 20.1924 2.90928 20.1924 9.16253C20.1924 15.0603 13.1699 22.753 12.8669 23.0735C12.7678 23.1901 12.6104 23.26 12.4472 23.26ZM12.4472 2.41974C9.99957 2.41974 5.86182 3.84173 5.86182 9.1567C5.86182 13.8015 10.9262 20.0256 12.4472 21.7914C13.9741 20.0256 19.0327 13.8015 19.0327 9.1567C19.0327 3.84173 14.8949 2.41974 12.4472 2.41974Z" fill="currentColor"/>
</svg>
