<svg width="24" height="24" viewBox="0 0 24 24" fill="none" xmlns="http://www.w3.org/2000/svg">
<path d="M20.7103 8.04H18.3367V6.54632C18.3367 3.48947 15.523 1 12.0667 1C8.60455 1 5.79087 3.48947 5.79087 6.54632V8.04H3.28403C2.9656 8.04 2.70508 8.30053 2.70508 8.61895V19.5437C2.70508 21.4484 4.25666 23 6.16139 23H20.7161C21.0346 23 21.2951 22.7395 21.2951 22.4211V8.61895C21.2893 8.30053 21.0288 8.04 20.7103 8.04ZM6.94876 6.54632C6.94876 4.12632 9.24139 2.15789 12.0667 2.15789C14.8861 2.15789 17.1788 4.12632 17.1788 6.54632V8.04H6.94876V6.54632ZM20.1314 21.8421H6.1556C4.8877 21.8421 3.85718 20.8116 3.85718 19.5437V9.1979H20.1314V21.8421Z" fill="currentColor"/>
<path d="M12.2114 11.4211C11.0709 11.4211 10.1446 12.3474 10.1446 13.4879C10.1446 14.09 10.4109 14.6516 10.8567 15.0395L10.1619 17.8126C10.1156 17.9863 10.1562 18.1716 10.2662 18.3105C10.3762 18.4495 10.544 18.5305 10.7235 18.5305H13.6993C13.8788 18.5305 14.0467 18.4495 14.1567 18.3105C14.2667 18.1716 14.3072 17.9863 14.2609 17.8126L13.5661 15.0395C14.0119 14.6516 14.2783 14.09 14.2783 13.4879C14.2783 12.3474 13.3519 11.4211 12.2114 11.4211ZM12.3504 14.9353L12.9583 17.3726H11.4646L12.0725 14.9353C12.1361 14.6805 12.0204 14.4084 11.783 14.2868C11.4819 14.1247 11.2967 13.8237 11.2967 13.4879C11.2967 12.9842 11.7077 12.5789 12.2056 12.5789C12.7093 12.5789 13.1146 12.99 13.1146 13.4879C13.1146 13.8179 12.9293 14.1247 12.6283 14.2868C12.4025 14.4084 12.2867 14.6805 12.3504 14.9353Z" fill="currentColor"/>
</svg>
