<svg width="24" height="25" viewBox="0 0 24 25" fill="none" xmlns="http://www.w3.org/2000/svg">
<path d="M19.5205 2H1.57895C1.26053 2 1 2.26053 1 2.57895V20.5147C1 22.4368 2.56315 24 4.48526 24H22.4211C22.7395 24 23 23.7395 23 23.4211V5.48526C23 3.56316 21.4368 2 19.5205 2ZM21.8421 22.8421H4.48526C3.20578 22.8421 2.15789 21.8 2.15789 20.5147V3.15789H19.5147C20.8 3.15789 21.8421 4.2 21.8421 5.48526V22.8421Z" fill="currentColor"/>
<path d="M17.9515 10.111H16.5157V9.27736C16.5157 7.08894 14.5125 5.30579 12.052 5.30579C9.59149 5.30579 7.58833 7.08894 7.58833 9.27736V10.111H6.0599C5.74148 10.111 5.48096 10.3716 5.48096 10.69V17.2321C5.48096 19.1368 7.03254 20.6884 8.93727 20.6884H17.9573C18.2757 20.6884 18.5362 20.4279 18.5362 20.1095V10.69C18.5304 10.3716 18.2699 10.111 17.9515 10.111ZM8.74043 9.27736C8.74043 7.72579 10.2225 6.46368 12.0462 6.46368C13.8699 6.46368 15.352 7.72579 15.352 9.27736V10.111H8.74043V9.27736ZM17.3725 19.5305H8.9315C7.6636 19.5305 6.63307 18.5 6.63307 17.2321V11.2689H17.3725V19.5305Z" fill="currentColor"/>
<path d="M13.1635 14.0132C13.1635 13.4516 12.7062 13 12.1504 13C11.5888 13 11.1372 13.4574 11.1372 14.0132C11.1372 14.4011 11.3572 14.7311 11.6756 14.9047L11.1372 17.0584H13.1693L12.6309 14.9047C12.9435 14.7368 13.1635 14.4011 13.1635 14.0132Z" fill="currentColor"/>
</svg>
