<svg width="24" height="25" viewBox="0 0 24 25" fill="none" xmlns="http://www.w3.org/2000/svg">
<path d="M20.1465 11.5326L10.4317 11.5153L13.8996 8.04157C14.1254 7.81578 14.1254 7.45104 13.8996 7.22525C13.6738 6.99946 13.3091 6.99946 13.0833 7.22525L8.66015 11.66C8.53858 11.7642 8.45752 11.9147 8.45752 12.0942V12.1C8.45752 12.2505 8.50963 12.401 8.62542 12.5168L13.1065 16.9863C13.2223 17.0963 13.367 17.1542 13.5175 17.1542C13.668 17.1542 13.8128 17.0963 13.9286 16.9863C14.1544 16.7605 14.1544 16.3958 13.9286 16.17L10.4317 12.6789L20.1523 12.6963C20.4707 12.6963 20.7312 12.4358 20.7312 12.1174C20.7312 11.7989 20.4649 11.5326 20.1465 11.5326Z" fill="currentColor"/>
<path d="M17.1359 18.9026C16.8175 18.9026 16.557 19.1631 16.557 19.4816V21.9421H4.31805V2.25787H16.557V4.65471C16.557 4.97313 16.8175 5.23366 17.1359 5.23366C17.4544 5.23366 17.7149 4.97313 17.7149 4.65471V1.67892C17.7149 1.3605 17.4544 1.09998 17.1359 1.09998H3.7391C3.42068 1.09998 3.16016 1.3605 3.16016 1.67892V22.521C3.16016 22.8394 3.42068 23.1 3.7391 23.1H17.1359C17.4544 23.1 17.7149 22.8394 17.7149 22.521V19.4816C17.7149 19.1631 17.4544 18.9026 17.1359 18.9026Z" fill="currentColor"/>
</svg>
