<svg width="24" height="25" viewBox="0 0 24 25" fill="none" xmlns="http://www.w3.org/2000/svg">
<path d="M20.5937 12.1115C20.5937 11.961 20.5415 11.8104 20.4315 11.7004L15.9505 7.21939C15.7247 6.9936 15.36 6.9936 15.1342 7.21939C14.9084 7.44518 14.9084 7.80992 15.1342 8.03571L18.6252 11.5268L8.91049 11.5094C8.59207 11.5094 8.33154 11.7699 8.33154 12.0883C8.33154 12.4068 8.59207 12.6673 8.91049 12.6673L18.631 12.6847L15.1573 16.1583C14.9315 16.3841 14.9315 16.7489 15.1573 16.9747C15.2731 17.0904 15.4179 17.1425 15.5684 17.1425C15.7189 17.1425 15.8637 17.0847 15.9794 16.9747L20.4373 12.5168C20.5415 12.4125 20.5937 12.262 20.5937 12.1115Z" fill="currentColor"/>
<path d="M17.0158 18.9026C16.6974 18.9026 16.4369 19.1631 16.4369 19.4816V21.9421H4.19793V2.25787H16.4369V4.65471C16.4369 4.97313 16.6974 5.23366 17.0158 5.23366C17.3342 5.23366 17.5948 4.97313 17.5948 4.65471V1.67892C17.5948 1.3605 17.3342 1.09998 17.0158 1.09998H3.61899C3.30057 1.09998 3.04004 1.3605 3.04004 1.67892V22.521C3.04004 22.8394 3.30057 23.1 3.61899 23.1H17.0158C17.3342 23.1 17.5948 22.8394 17.5948 22.521V19.4816C17.5948 19.1631 17.3342 18.9026 17.0158 18.9026Z" fill="currentColor"/>
</svg>
