<svg width="24" height="25" viewBox="0 0 24 25" fill="none" xmlns="http://www.w3.org/2000/svg">
<path d="M14.9196 10.8145H14.6427V10.0377H9.24083V10.8145H8.96387V9.76074H14.9196V10.8145Z" fill="#39AC60"/>
<path d="M14.9196 15.7353H8.96387V14.7516H9.24083V15.4584H14.6427V14.7516H14.9196V15.7353Z" fill="#39AC60"/>
<path d="M7.28111 13.5599C7.25317 13.5223 7.21867 13.4941 7.17763 13.4755C7.13659 13.4566 7.09378 13.4473 7.04922 13.4473C6.9976 13.4473 6.95027 13.4579 6.90721 13.4788C6.86415 13.4997 6.82664 13.5279 6.79517 13.5631C6.76369 13.5984 6.73927 13.6394 6.7219 13.6863C6.70452 13.7331 6.69571 13.7817 6.69571 13.8323C6.69571 13.8864 6.70452 13.9368 6.7219 13.9836C6.73927 14.0305 6.76344 14.071 6.79466 14.1055C6.82563 14.14 6.86264 14.1672 6.90595 14.1873C6.94926 14.2075 6.99685 14.2176 7.04922 14.2176C7.10587 14.2176 7.15648 14.2065 7.20105 14.1841C7.24561 14.1619 7.28439 14.1297 7.31762 14.0879L7.40021 14.1574C7.35841 14.2133 7.3078 14.2543 7.24889 14.2805C7.18997 14.3067 7.1235 14.3198 7.04922 14.3198C6.983 14.3198 6.92081 14.3074 6.8634 14.283C6.80574 14.2586 6.75589 14.2249 6.71359 14.1815C6.67129 14.1382 6.63805 14.0871 6.61413 14.0277C6.59021 13.9683 6.57812 13.9033 6.57812 13.8326C6.57812 13.7618 6.58971 13.7009 6.61287 13.6414C6.63604 13.582 6.66852 13.5307 6.71031 13.4868C6.75211 13.4433 6.80196 13.4088 6.85962 13.3834C6.91728 13.3582 6.98048 13.3453 7.04947 13.3453C7.11242 13.3453 7.17285 13.3567 7.23076 13.3793C7.28867 13.402 7.33752 13.4393 7.37679 13.4906L7.28111 13.5601V13.5599Z" fill="#828282"/>
<path d="M8.05762 13.3684H8.64025V13.4706H8.16765V13.7612H8.60878V13.8634H8.16765V14.1933H8.66392V14.2955H8.05762V13.3684Z" fill="#828282"/>
<path d="M9.42188 13.3685H9.56061L10.0974 14.1385H10.0999V13.3685H10.21V14.2956H10.0712L9.53442 13.5257H9.53191V14.2956H9.42188V13.3685Z" fill="#828282"/>
<path d="M11.5998 13.4708H11.2934V14.2956H11.1834V13.4708H10.877V13.3685H11.5996V13.4708H11.5998Z" fill="#828282"/>
<path d="M12.2451 13.3684H12.8278V13.4706H12.3551V13.7612H12.7963V13.8634H12.3551V14.1933H12.8514V14.2955H12.2451V13.3684Z" fill="#828282"/>
<path d="M13.6631 13.3683H13.9C13.9446 13.3683 13.9889 13.3708 14.033 13.3761C14.077 13.3814 14.1166 13.3927 14.1516 13.4101C14.1866 13.4275 14.2148 13.4532 14.2367 13.4866C14.2586 13.5201 14.2694 13.566 14.2694 13.6234C14.2694 13.6914 14.2487 13.7465 14.208 13.7883C14.1669 13.8301 14.1103 13.8568 14.0377 13.8681L14.3009 14.2949H14.1659L13.9146 13.8784H13.7731V14.2949H13.6631V13.3678V13.3683ZM13.7729 13.777H13.8711C13.9015 13.777 13.9333 13.7762 13.966 13.7744C13.9987 13.7727 14.0289 13.7671 14.0564 13.7573C14.0838 13.7478 14.1065 13.7326 14.1244 13.7123C14.1422 13.6919 14.1513 13.6624 14.1513 13.6239C14.1513 13.5906 14.1448 13.5642 14.1317 13.5441C14.1186 13.5239 14.1012 13.5086 14.08 13.4975C14.0586 13.4866 14.0347 13.4793 14.008 13.4758C13.9813 13.4723 13.9547 13.4705 13.9275 13.4705H13.7729V13.777Z" fill="#828282"/>
<path d="M2 11.2137H2.17122V12.6578H2V11.2137Z" fill="#828282"/>
<path d="M3.25684 11.2137H3.47312L4.30931 12.413H4.31333V11.2137H4.48455V12.6578H4.26826L3.43208 11.4585H3.42805V12.6578H3.25684V11.2137Z" fill="#828282"/>
<path d="M5.74512 11.2137H5.9614L6.79759 12.413H6.80162V11.2137H6.97283V12.6578H6.75655L5.92036 11.4585H5.91633V12.6578H5.74512V11.2137Z" fill="#828282"/>
<path d="M8.7783 12.6946C8.66826 12.6946 8.5673 12.6754 8.4754 12.6374C8.38375 12.5994 8.30418 12.5468 8.2367 12.4793C8.16947 12.4121 8.1171 12.3317 8.07959 12.2386C8.04207 12.1454 8.02344 12.0444 8.02344 11.9357C8.02344 11.8269 8.04207 11.7259 8.07959 11.6328C8.1171 11.5396 8.16922 11.4595 8.2367 11.392C8.30393 11.3248 8.38349 11.2722 8.4754 11.2339C8.5673 11.1959 8.66826 11.1768 8.7783 11.1768C8.88833 11.1768 8.98929 11.1959 9.0812 11.2339C9.17285 11.2719 9.25241 11.3246 9.31989 11.392C9.38712 11.4593 9.43949 11.5396 9.47701 11.6328C9.51427 11.7259 9.53315 11.8269 9.53315 11.9357C9.53315 12.0444 9.51452 12.1454 9.47701 12.2386C9.43949 12.3317 9.38737 12.4118 9.31989 12.4793C9.25266 12.5465 9.1731 12.5994 9.0812 12.6374C8.98929 12.6754 8.88858 12.6946 8.7783 12.6946ZM8.7783 12.5354C8.86264 12.5354 8.93969 12.5198 9.00969 12.4886C9.07968 12.4574 9.13986 12.4146 9.19022 12.3602C9.24058 12.3058 9.2796 12.2424 9.30755 12.1696C9.3355 12.0968 9.34935 12.019 9.34935 11.9362C9.34935 11.8533 9.3355 11.7753 9.30755 11.7028C9.2796 11.63 9.24058 11.5665 9.19022 11.5121C9.13986 11.4578 9.07968 11.415 9.00969 11.3837C8.93969 11.3525 8.86239 11.3369 8.7783 11.3369C8.6942 11.3369 8.6169 11.3525 8.5469 11.3837C8.47691 11.415 8.41673 11.4578 8.36637 11.5121C8.31601 11.5665 8.27699 11.6302 8.24904 11.7028C8.22109 11.7755 8.20724 11.8533 8.20724 11.9362C8.20724 12.019 8.22109 12.0971 8.24904 12.1696C8.27699 12.2424 8.31601 12.3058 8.36637 12.3602C8.41673 12.4146 8.47691 12.4574 8.5469 12.4886C8.6169 12.5198 8.69395 12.5354 8.7783 12.5354Z" fill="#828282"/>
<path d="M10.4622 11.2137H10.6558L11.1004 12.4007H11.1045L11.5632 11.2137H11.7448L11.1798 12.6578H11.0146L10.4619 11.2137H10.4622Z" fill="#828282"/>
<path d="M13.1341 11.2137H13.2952L13.9091 12.6578H13.7091L13.5624 12.303H12.8405L12.6917 12.6578H12.498L13.1343 11.2137H13.1341ZM13.2116 11.4341H13.2076L12.9077 12.1439H13.4971L13.2116 11.4341Z" fill="#828282"/>
<path d="M15.7329 11.3729H15.2558V12.6578H15.0846V11.3729H14.6074V11.2137H15.7332V11.3729H15.7329Z" fill="#828282"/>
<path d="M16.8125 11.2137H16.9837V12.6578H16.8125V11.2137Z" fill="#828282"/>
<path d="M18.8144 12.6946C18.7044 12.6946 18.6034 12.6754 18.5115 12.6374C18.4199 12.5994 18.3403 12.5468 18.2728 12.4793C18.2056 12.4121 18.1532 12.3317 18.1157 12.2386C18.0782 12.1454 18.0596 12.0444 18.0596 11.9357C18.0596 11.8269 18.0782 11.7259 18.1157 11.6328C18.1532 11.5396 18.2054 11.4595 18.2728 11.392C18.3401 11.3248 18.4196 11.2722 18.5115 11.2339C18.6034 11.1959 18.7044 11.1768 18.8144 11.1768C18.9245 11.1768 19.0254 11.1959 19.1173 11.2339C19.209 11.2719 19.2885 11.3246 19.356 11.392C19.4232 11.4593 19.4756 11.5396 19.5131 11.6328C19.5504 11.7259 19.5693 11.8269 19.5693 11.9357C19.5693 12.0444 19.5507 12.1454 19.5131 12.2386C19.4756 12.3317 19.4235 12.4118 19.356 12.4793C19.2888 12.5465 19.2092 12.5994 19.1173 12.6374C19.0254 12.6754 18.9247 12.6946 18.8144 12.6946ZM18.8144 12.5354C18.8988 12.5354 18.9758 12.5198 19.0458 12.4886C19.1158 12.4574 19.176 12.4146 19.2264 12.3602C19.2767 12.3058 19.3157 12.2424 19.3437 12.1696C19.3716 12.0968 19.3855 12.019 19.3855 11.9362C19.3855 11.8533 19.3716 11.7753 19.3437 11.7028C19.3157 11.63 19.2767 11.5665 19.2264 11.5121C19.176 11.4578 19.1158 11.415 19.0458 11.3837C18.9758 11.3525 18.8985 11.3369 18.8144 11.3369C18.7303 11.3369 18.653 11.3525 18.583 11.3837C18.513 11.415 18.4529 11.4578 18.4025 11.5121C18.3521 11.5665 18.3131 11.6302 18.2852 11.7028C18.2572 11.7755 18.2434 11.8533 18.2434 11.9362C18.2434 12.019 18.2572 12.0971 18.2852 12.1696C18.3131 12.2424 18.3521 12.3058 18.4025 12.3602C18.4529 12.4146 18.513 12.4574 18.583 12.4886C18.653 12.5198 18.7301 12.5354 18.8144 12.5354Z" fill="#828282"/>
<path d="M20.7725 11.2137H20.9887L21.8249 12.413H21.829V11.2137H22.0002V12.6578H21.7839L20.9477 11.4585H20.9437V12.6578H20.7725V11.2137Z" fill="#828282"/>
<path d="M17.1419 14.1112C17.2308 14.1112 17.2847 14.08 17.2847 14.0118V14.009C17.2847 13.9476 17.2388 13.9095 17.1353 13.9095H16.9024V14.111H17.1419V14.1112ZM17.0883 13.7421C17.1774 13.7421 17.2335 13.7134 17.2335 13.6454V13.6426C17.2335 13.5825 17.1865 13.5485 17.1014 13.5485H16.9024V13.7421H17.0883ZM16.634 13.3717H17.1313C17.2361 13.3717 17.3184 13.4004 17.3708 13.4528C17.4126 13.4948 17.4335 13.5457 17.4335 13.6086V13.6114C17.4335 13.7146 17.3786 13.7723 17.3131 13.8091C17.4191 13.8496 17.4846 13.9113 17.4846 14.0342V14.0367C17.4846 14.2041 17.3486 14.288 17.1416 14.288H16.7058V13.5024C16.7058 13.3949 16.6338 13.3934 16.6338 13.3934V13.3717H16.634Z" fill="#39AC60"/>
<path d="M16.5759 13.4712C16.5759 13.4712 16.5815 13.3715 16.4838 13.3715H16.3773C16.3773 13.3715 16.3768 13.8184 16.3768 14.0045L15.991 13.4861C15.991 13.4861 15.9215 13.3705 15.7785 13.3705H15.627V13.3931C15.627 13.3931 15.7158 13.4221 15.7158 13.5538V14.288H15.8498C15.9188 14.288 15.915 14.1923 15.915 14.1923V13.7046L16.2683 14.1626C16.2683 14.1626 16.3473 14.288 16.4679 14.288H16.5757V14.2714V13.4715L16.5759 13.4712Z" fill="#39AC60"/>
<path d="M15.2884 14.1113C15.3773 14.1113 15.4311 14.0801 15.4311 14.0119V14.0091C15.4311 13.9477 15.3853 13.9097 15.2818 13.9097H15.0489V14.1111H15.2884V14.1113ZM15.2345 13.7422C15.3236 13.7422 15.3798 13.7135 15.3798 13.6455V13.6428C15.3798 13.5826 15.3327 13.5486 15.2476 13.5486H15.0487V13.7422H15.2345ZM14.7805 13.3718H15.2778C15.3825 13.3718 15.4649 13.4005 15.5173 13.4529C15.5591 13.495 15.5799 13.5458 15.5799 13.6088V13.6115C15.5799 13.7148 15.5251 13.7724 15.4596 13.8092C15.5656 13.8497 15.6311 13.9114 15.6311 14.0343V14.0368C15.6311 14.2043 15.4951 14.2881 15.2881 14.2881H14.8523V13.5025C14.8523 13.395 14.7803 13.3935 14.7803 13.3935V13.3718H14.7805Z" fill="#39AC60"/>
</svg>
