<svg width="24" height="24" viewBox="0 0 24 24" fill="none" xmlns="http://www.w3.org/2000/svg">
<path d="M18.5177 5.64742C18.4877 5.6352 18.4566 5.62551 18.425 5.61847C17.7019 4.38637 16.7056 3.33624 15.5128 2.54875C14.3199 1.76127 12.9622 1.25738 11.544 1.07582C10.1257 0.894251 8.68469 1.03984 7.33157 1.50138C5.97845 1.96293 4.74926 2.72816 3.73843 3.73828C2.72761 4.7484 1.96206 5.97652 1.50059 7.32829C1.03912 8.68006 0.894027 10.1195 1.07644 11.536C1.25886 12.9526 1.76394 14.3085 2.55287 15.4996C3.34181 16.6907 4.3936 17.6854 5.62744 18.4071C5.62497 18.4379 5.62497 18.4689 5.62744 18.4997C6.36399 19.7115 7.36659 20.7402 8.55953 21.5082C9.75246 22.2762 11.1045 22.7633 12.5136 22.9329C13.9226 23.1024 15.3518 22.9499 16.6932 22.4868C18.0346 22.0237 19.2531 21.2622 20.2567 20.2598C21.2602 19.2574 22.0226 18.0403 22.4862 16.7005C22.9498 15.3606 23.1025 13.9331 22.9328 12.5256C22.7631 11.1182 22.2753 9.7677 21.5065 8.57613C20.7376 7.38457 19.7077 6.38312 18.4945 5.64742H18.5177ZM2.14985 10.3541C2.14985 8.73303 2.63105 7.14833 3.5326 5.80035C4.43415 4.45238 5.71558 3.40165 7.2149 2.78102C8.71422 2.16039 10.3641 1.99771 11.956 2.31355C13.5478 2.62939 15.0102 3.40957 16.1582 4.55546C17.3062 5.70134 18.0883 7.16149 18.4057 8.7513C18.723 10.3411 18.5613 11.9892 17.941 13.4872C17.3207 14.9853 16.2697 16.266 14.9208 17.1674C13.5719 18.0689 11.9857 18.5507 10.3628 18.5518C8.18556 18.5518 6.09746 17.6883 4.5574 16.1511C3.01735 14.6139 2.15139 12.5288 2.14985 10.3541ZM13.6491 21.8459C12.5446 21.8491 11.4511 21.6281 10.4348 21.1961C9.41849 20.7642 8.50071 20.1305 7.73718 19.3334C8.58607 19.5827 9.46632 19.7094 10.3512 19.7097C12.8343 19.7066 15.2149 18.72 16.9708 16.9661C18.7266 15.2123 19.7144 12.8344 19.7175 10.3541C19.7172 9.47031 19.5904 8.59107 19.3407 7.74315C20.5195 8.87685 21.332 10.3366 21.674 11.935C22.016 13.5333 21.8718 15.1973 21.26 16.7132C20.6482 18.2291 19.5967 19.5278 18.2405 20.4424C16.8843 21.357 15.2854 21.8457 13.6491 21.8459Z" fill="currentColor"/>
<path d="M10.8438 16.0624V14.9046C11.4754 14.8643 12.0735 14.6065 12.5362 14.1751C12.7463 13.9577 12.9097 13.6997 13.0163 13.417C13.123 13.1343 13.1706 12.8327 13.1564 12.5309C13.1572 12.3701 13.1456 12.2095 13.1216 12.0504C13.0587 11.6121 12.8554 11.2058 12.542 10.8926C12.0151 10.4318 11.3911 10.0954 10.7163 9.90839C10.2373 9.77299 9.7914 9.54043 9.4064 9.22524C9.28588 9.10268 9.1918 8.95672 9.12999 8.79641C9.06819 8.63609 9.03995 8.46481 9.04704 8.29316C9.02652 7.92661 9.15148 7.56676 9.3948 7.29161C9.5374 7.16363 9.70418 7.06543 9.88534 7.00279C10.0665 6.94015 10.2584 6.91434 10.4497 6.92688C10.6502 6.91845 10.8498 6.95946 11.0307 7.04629C11.2116 7.13312 11.3684 7.2631 11.4872 7.42476C11.7416 7.79336 11.8716 8.23351 11.8581 8.68104V8.75052H13.0579V8.70999C13.0726 8.04221 12.8691 7.38782 12.4783 6.84583C12.2889 6.60707 12.0542 6.40797 11.7876 6.25995C11.5211 6.11193 11.2279 6.01789 10.9249 5.98322V4.65747H9.95701V5.98322C9.36119 6.03599 8.80495 6.3035 8.3921 6.73583C7.99896 7.18025 7.79151 7.75838 7.8125 8.35106C7.79838 8.65198 7.84612 8.95259 7.95278 9.23437C8.05944 9.51615 8.22276 9.77312 8.43267 9.98944C8.95689 10.456 9.58467 10.7913 10.2642 10.9678C10.7292 11.1002 11.1602 11.3313 11.5277 11.6452C11.6519 11.7741 11.7493 11.9264 11.814 12.0933C11.8787 12.2602 11.9095 12.4382 11.9047 12.6171C11.8998 12.796 11.8594 12.9721 11.7857 13.1352C11.712 13.2984 11.6066 13.4452 11.4756 13.5672C11.133 13.8304 10.7073 13.9619 10.2758 13.9377C9.85391 13.9545 9.44082 13.8142 9.1166 13.5441C8.9552 13.3817 8.83075 13.1864 8.75174 12.9716C8.67272 12.7568 8.64099 12.5275 8.65871 12.2994V12.2299H7.49951V12.2994C7.47102 12.6381 7.51295 12.9791 7.62266 13.3009C7.73238 13.6227 7.90752 13.9183 8.13707 14.1693C8.59732 14.6044 9.1922 14.8698 9.82371 14.9219V16.0798L10.8438 16.0624Z" fill="currentColor"/>
</svg>
