<svg width="24" height="24" viewBox="0 0 24 24" fill="none" xmlns="http://www.w3.org/2000/svg">
<path d="M19.3426 7.3595H3.27517C3.12122 7.3595 2.97358 7.42065 2.86472 7.52951C2.75586 7.63837 2.6947 7.78602 2.6947 7.93997V16.1362C2.69467 17.0626 3.06069 17.9515 3.71303 18.6093C4.36536 19.2671 5.25117 19.6404 6.17753 19.6481H22.2392C22.3931 19.6481 22.5408 19.5869 22.6496 19.4781C22.7585 19.3692 22.8197 19.2216 22.8197 19.0676V10.8713C22.8235 10.412 22.7364 9.95649 22.5635 9.53096C22.3905 9.10542 22.1351 8.7183 21.8119 8.39189C21.4888 8.06548 21.1042 7.80622 20.6804 7.62903C20.2566 7.45185 19.802 7.36025 19.3426 7.3595ZM21.6645 18.4871H6.20656C5.58858 18.478 4.99891 18.2265 4.56461 17.7867C4.13031 17.347 3.88613 16.7543 3.88467 16.1362V8.52044H19.3717C19.9851 8.52797 20.5713 8.77501 21.0052 9.20883C21.439 9.64265 21.686 10.2289 21.6936 10.8423L21.6645 18.4871Z" fill="currentColor"/>
<path d="M18.0598 6.14041C18.0598 5.98646 17.9987 5.83882 17.8898 5.72996C17.781 5.6211 17.6333 5.55994 17.4794 5.55994H1.4003C1.24635 5.55994 1.0987 5.6211 0.98984 5.72996C0.88098 5.83882 0.819824 5.98646 0.819824 6.14041V14.1799C0.819824 14.3339 0.88098 14.4815 0.98984 14.5904C1.0987 14.6993 1.24635 14.7604 1.4003 14.7604C1.55425 14.7604 1.70189 14.6993 1.81075 14.5904C1.91961 14.4815 1.98077 14.3339 1.98077 14.1799V6.72088H17.4794C17.6333 6.72088 17.781 6.65972 17.8898 6.55086C17.9987 6.442 18.0598 6.29436 18.0598 6.14041Z" fill="currentColor"/>
<path d="M11.8955 13.4312C12.1632 13.3994 12.4094 13.2686 12.5856 13.0646C12.7617 12.8605 12.8552 12.5978 12.8475 12.3283C12.8589 12.1391 12.826 11.9498 12.7515 11.7754C12.6769 11.6011 12.5627 11.4466 12.4179 11.3241C12.0269 11.056 11.5554 10.931 11.0828 10.97H8.90027V15.9505H11.1583C11.6373 15.9832 12.1135 15.8544 12.5108 15.5848C12.6657 15.4693 12.7892 15.3169 12.8703 15.1415C12.9514 14.9662 12.9874 14.7734 12.9752 14.5806C12.9795 14.3031 12.8801 14.034 12.6966 13.826C12.487 13.6005 12.2019 13.46 11.8955 13.4312ZM9.88707 11.7885H10.9203C11.466 11.7885 11.7388 12.0033 11.7388 12.427C11.7388 12.8508 11.466 13.0713 10.9203 13.0713H9.88707V11.7885ZM11.6633 15.0043C11.4817 15.1351 11.2594 15.1968 11.0364 15.1784H9.87547V13.855H11.0364C11.2578 13.8362 11.479 13.8935 11.6633 14.0175C11.7325 14.0763 11.7869 14.1506 11.8222 14.2342C11.8575 14.3179 11.8727 14.4087 11.8665 14.4993C11.8736 14.5908 11.8589 14.6828 11.8236 14.7675C11.7883 14.8523 11.7333 14.9275 11.6633 14.9869V15.0043Z" fill="currentColor"/>
<path d="M15.831 13.7388L15.059 13.5821C14.9217 13.5607 14.7908 13.5092 14.6758 13.4312C14.6432 13.4084 14.6166 13.378 14.5983 13.3426C14.5801 13.3072 14.5709 13.2678 14.5714 13.228C14.5697 13.1908 14.5756 13.1537 14.5885 13.1188C14.6015 13.0839 14.6213 13.0519 14.6468 13.0248C14.7093 12.9637 14.7878 12.9215 14.8732 12.9029C14.9904 12.8706 15.1115 12.8549 15.2331 12.8565C15.4352 12.8536 15.6348 12.9015 15.8136 12.9958C15.9937 13.088 16.1445 13.2288 16.2489 13.4022L16.8642 12.8217C16.7011 12.586 16.4733 12.4026 16.2083 12.2935C15.894 12.171 15.5587 12.1118 15.2215 12.1193C14.9053 12.108 14.5904 12.1655 14.2985 12.2876C14.0668 12.376 13.8653 12.5292 13.7181 12.7288C13.5989 12.8991 13.5341 13.1015 13.5323 13.3093C13.528 13.4404 13.55 13.5712 13.5968 13.6938C13.6436 13.8164 13.7145 13.9284 13.8051 14.0233C14.0725 14.2445 14.396 14.3871 14.7397 14.4354L15.4014 14.5689C15.5242 14.5841 15.6405 14.6322 15.7381 14.7082C15.791 14.7649 15.8201 14.8397 15.8194 14.9172C15.8219 14.9758 15.8059 15.0338 15.7736 15.0827C15.7413 15.1317 15.6943 15.1693 15.6394 15.19C15.4914 15.2544 15.3306 15.2842 15.1693 15.2771C14.9331 15.2859 14.6986 15.2339 14.4882 15.1262C14.2778 15.0185 14.0986 14.8586 13.9677 14.6618L13.3872 15.2422C13.5898 15.497 13.8533 15.6966 14.1534 15.8227C14.4843 15.9606 14.8398 16.0298 15.1983 16.0259C15.5117 16.0326 15.8234 15.9774 16.1154 15.8633C16.3489 15.7752 16.551 15.6196 16.6959 15.4164C16.8249 15.2266 16.8918 15.0015 16.8875 14.7721C16.8911 14.5352 16.8062 14.3054 16.6495 14.1277C16.4256 13.9134 16.1386 13.777 15.831 13.7388Z" fill="currentColor"/>
</svg>
