<svg width="24" height="24" viewBox="0 0 24 24" fill="none" xmlns="http://www.w3.org/2000/svg">
<path d="M19.2925 7.35706H3.25195C3.0982 7.35706 2.95075 7.41813 2.84203 7.52685C2.73332 7.63557 2.67224 7.78302 2.67224 7.93677V16.1223C2.67224 17.0525 3.04175 17.9445 3.69949 18.6023C4.35723 19.26 5.2493 19.6295 6.17948 19.6295H22.2201C22.3738 19.6295 22.5213 19.5684 22.63 19.4597C22.7387 19.351 22.7998 19.2036 22.7998 19.0498V10.8643C22.7998 9.93412 22.4303 9.04204 21.7725 8.3843C21.1148 7.72657 20.2227 7.35706 19.2925 7.35706ZM21.6114 18.4701H6.17948C5.87116 18.4701 5.56586 18.4094 5.28101 18.2914C4.99616 18.1734 4.73734 18.0005 4.51933 17.7824C4.30131 17.5644 4.12837 17.3056 4.01038 17.0208C3.89239 16.7359 3.83166 16.4306 3.83166 16.1223V8.51648H19.2925C19.9047 8.52546 20.4893 8.77265 20.9223 9.20558C21.3552 9.63852 21.6024 10.2231 21.6114 10.8353V18.4701Z" fill="currentColor"/>
<path d="M18.0114 6.13965C18.0114 5.9859 17.9503 5.83845 17.8416 5.72973C17.7329 5.62102 17.5854 5.55994 17.4317 5.55994H1.37952C1.22577 5.55994 1.07831 5.62102 0.969598 5.72973C0.860881 5.83845 0.799805 5.9859 0.799805 6.13965V14.1686C0.799805 14.3224 0.860881 14.4698 0.969598 14.5786C1.07831 14.6873 1.22577 14.7484 1.37952 14.7484C1.53326 14.7484 1.68072 14.6873 1.78943 14.5786C1.89815 14.4698 1.95923 14.3224 1.95923 14.1686V6.71936H17.4317C17.5854 6.71936 17.7329 6.65828 17.8416 6.54956C17.9503 6.44085 18.0114 6.2934 18.0114 6.13965Z" fill="currentColor"/>
<path d="M13.0318 13.1194C12.7708 13.05 12.5276 12.9255 12.3188 12.7542C12.2607 12.696 12.2157 12.626 12.1867 12.5491C12.1577 12.4721 12.1454 12.3899 12.1507 12.3078C12.144 12.2195 12.1555 12.1307 12.1844 12.0469C12.2133 11.9632 12.259 11.8863 12.3188 11.8208C12.3872 11.7582 12.4679 11.7105 12.5557 11.6805C12.6435 11.6506 12.7365 11.6392 12.8289 11.6469C12.9252 11.642 13.0213 11.6611 13.1083 11.7026C13.1954 11.7441 13.2707 11.8067 13.3275 11.8846C13.4592 12.0877 13.5241 12.3269 13.513 12.5687V12.7136H14.4927V12.5687C14.5112 12.1369 14.387 11.7111 14.1391 11.3571C13.9213 11.0766 13.6074 10.8866 13.2579 10.8237V10.0411H12.4173V10.8353C12.0599 10.8855 11.7341 11.0672 11.5036 11.3449C11.2731 11.6226 11.1545 11.9763 11.171 12.3368C11.1635 12.531 11.1956 12.7247 11.2653 12.9061C11.3351 13.0875 11.4411 13.2527 11.5768 13.3919C11.897 13.6732 12.281 13.8722 12.6956 13.9716C12.947 14.0433 13.1802 14.1678 13.3797 14.3368C13.4383 14.3927 13.4846 14.4602 13.5156 14.5351C13.5465 14.61 13.5615 14.6906 13.5594 14.7716C13.5638 14.8627 13.5479 14.9537 13.5128 15.0379C13.4777 15.1222 13.4243 15.1975 13.3565 15.2585C13.1884 15.3809 12.9846 15.4441 12.7768 15.4382C12.5656 15.4478 12.3586 15.3774 12.197 15.2411C12.115 15.1544 12.0529 15.051 12.0148 14.9378C11.9768 14.8247 11.9638 14.7047 11.9767 14.5861V14.4469H11.1652H11.0608L11.026 14.5397V14.5861C11.0083 14.8059 11.0363 15.027 11.1081 15.2355C11.18 15.444 11.2941 15.6354 11.4434 15.7977C11.7014 16.0451 12.0293 16.207 12.3826 16.2614V16.9455H13.2231V16.2614C13.5764 16.213 13.9063 16.0572 14.1681 15.8151C14.3044 15.674 14.4106 15.5067 14.4804 15.3233C14.5501 15.14 14.5819 14.9444 14.5739 14.7484C14.5819 14.5577 14.551 14.3675 14.4833 14.1891C14.4155 14.0107 14.3122 13.848 14.1796 13.7107C13.8494 13.4252 13.456 13.2225 13.0318 13.1194Z" fill="currentColor"/>
</svg>
