<svg width="24" height="24" viewBox="0 0 24 24" fill="none" xmlns="http://www.w3.org/2000/svg">
<path d="M18.4976 5.64742C18.4675 5.6352 18.4366 5.62551 18.4049 5.61847C17.6826 4.38637 16.6876 3.33624 15.4961 2.54875C14.3046 1.76127 12.9485 1.25738 11.5318 1.07582C10.1152 0.894251 8.67585 1.03984 7.32429 1.50138C5.97272 1.96293 4.74495 2.72816 3.73528 3.73828C2.72562 4.7484 1.96095 5.97652 1.50002 7.32829C1.03908 8.68006 0.894149 10.1195 1.07636 11.536C1.25856 12.9526 1.76306 14.3085 2.55109 15.4996C3.33911 16.6907 4.3897 17.6854 5.62212 18.4071C5.62916 18.4387 5.63884 18.4697 5.65106 18.4997C6.38676 19.7115 7.38822 20.7402 8.57978 21.5082C9.77134 22.2762 11.1218 22.7633 12.5293 22.9329C13.9367 23.1024 15.3643 22.9499 16.7041 22.4868C18.044 22.0237 19.2611 21.2622 20.2635 20.2598C21.2659 19.2574 22.0274 18.0403 22.4904 16.7005C22.9535 15.3606 23.106 13.9331 22.9365 12.5256C22.767 11.1182 22.2798 9.7677 21.5118 8.57613C20.7438 7.38457 19.7151 6.38312 18.5034 5.64742H18.4976ZM2.14853 10.3541C2.14853 8.73328 2.62903 7.1488 3.52929 5.80095C4.42955 4.4531 5.70917 3.40239 7.20643 2.78159C8.70368 2.16079 10.3514 1.99777 11.9412 2.31314C13.5311 2.62851 14.9918 3.40811 16.1387 4.55342C17.2857 5.69872 18.0673 7.15833 18.3849 8.74776C18.7026 10.3372 18.5419 11.9851 17.9232 13.4832C17.3045 14.9814 16.2556 16.2625 14.909 17.1646C13.5624 18.0668 11.9786 18.5495 10.3578 18.5518C9.28048 18.5526 8.2136 18.3411 7.21802 17.9296C6.22244 17.518 5.31767 16.9144 4.55537 16.1532C3.79307 15.3919 3.18817 14.488 2.7752 13.493C2.36224 12.498 2.14929 11.4314 2.14853 10.3541ZM13.6345 21.8459C12.5314 21.8491 11.439 21.6281 10.4239 21.1961C9.40881 20.7642 8.49209 20.1305 7.72944 19.3334C9.3362 19.7998 11.0387 19.8264 12.6592 19.4101C14.2797 18.9939 15.7588 18.1502 16.9418 16.9671C18.1249 15.784 18.9686 14.305 19.3848 12.6845C19.8011 11.064 19.7746 9.36149 19.3081 7.75473C20.4854 8.88843 21.297 10.3482 21.6386 11.9465C21.9802 13.5449 21.8362 15.2089 21.2251 16.7248C20.614 18.2407 19.5637 19.5394 18.2091 20.454C16.8545 21.3685 15.2574 21.8573 13.623 21.8575L13.6345 21.8459Z" fill="currentColor"/>
<path d="M10.2187 10.7709C9.98762 10.5125 9.67109 10.346 9.32718 10.302C9.63944 10.2547 9.92145 10.0888 10.1145 9.83885C10.2939 9.6004 10.3896 9.30938 10.3866 9.01099C10.3973 8.78825 10.3588 8.56589 10.2737 8.35976C10.1886 8.15362 10.0592 7.96878 9.89454 7.81839C9.4419 7.49702 8.89053 7.34534 8.33721 7.38997H6.02148V13.3009H8.38931C8.96006 13.34 9.52726 13.1849 9.99874 12.8609C10.1844 12.7223 10.334 12.5411 10.4348 12.3325C10.5356 12.1239 10.5846 11.8941 10.5777 11.6625C10.5732 11.331 10.4452 11.0131 10.2187 10.7709ZM6.94778 8.1889H8.26195C9.01456 8.1889 9.39087 8.47837 9.39087 9.0573C9.39087 9.63623 9.01456 9.9257 8.26195 9.9257H6.94778V8.1889ZM9.26351 12.2414C9.01477 12.4139 8.71431 12.4957 8.41248 12.473H6.94778V10.7015H8.41248C8.71431 10.6788 9.01477 10.7605 9.26351 10.933C9.3514 11.0178 9.4213 11.1194 9.46905 11.2318C9.5168 11.3442 9.54142 11.4651 9.54142 11.5872C9.54142 11.7094 9.5168 11.8302 9.46905 11.9426C9.4213 12.055 9.3514 12.1566 9.26351 12.2414Z" fill="currentColor"/>
<path d="M13.9936 12.4789C13.7925 12.5852 13.5665 12.6352 13.3394 12.6236C13.0278 12.6316 12.7199 12.5556 12.4478 12.4036C12.2045 12.2686 12.0039 12.068 11.8689 11.8247L11.2031 12.4036C11.4247 12.7222 11.729 12.9744 12.0831 13.1331C12.4679 13.3097 12.8871 13.3987 13.3104 13.3936C13.6531 13.4032 13.994 13.3421 14.312 13.2141C14.5736 13.1148 14.7994 12.9393 14.9604 12.7105C15.1081 12.4854 15.1847 12.2212 15.1804 11.9521C15.1871 11.684 15.092 11.4233 14.9141 11.2226C14.667 10.9873 14.3499 10.8389 14.0109 10.8L12.9862 10.5858C12.8098 10.5624 12.6433 10.4902 12.5057 10.3774C12.4622 10.338 12.4278 10.2897 12.4048 10.2357C12.3818 10.1817 12.3708 10.1234 12.3726 10.0647C12.3699 9.95687 12.407 9.8518 12.4768 9.76948C12.5597 9.67495 12.6683 9.60656 12.7894 9.57265C12.9486 9.5232 13.1148 9.49974 13.2815 9.50317C13.5219 9.50365 13.7585 9.5633 13.9704 9.67685C14.1916 9.79516 14.3683 9.98207 14.4741 10.2095L15.1341 9.63054C14.9701 9.33425 14.7169 9.09722 14.4104 8.95319C14.0481 8.78541 13.6517 8.70414 13.2525 8.71582C12.9107 8.70686 12.571 8.77204 12.2568 8.90687C12.0031 9.01472 11.7846 9.19115 11.6257 9.41634C11.4851 9.6141 11.4102 9.85103 11.4115 10.0937C11.4054 10.242 11.4288 10.3901 11.4805 10.5292C11.5322 10.6684 11.6111 10.7959 11.7126 10.9042C11.9987 11.1562 12.3534 11.3174 12.7315 11.3673L13.7273 11.6047C13.8857 11.6271 14.0333 11.6978 14.1499 11.8073C14.1956 11.8586 14.229 11.9195 14.2476 11.9856C14.2662 12.0517 14.2694 12.1211 14.2571 12.1887C14.2449 12.2562 14.2174 12.32 14.1767 12.3753C14.136 12.4307 14.0833 12.476 14.0225 12.5078L13.9936 12.4789Z" fill="currentColor"/>
</svg>
