<svg width="24" height="24" viewBox="0 0 24 24" fill="none" xmlns="http://www.w3.org/2000/svg">
<path d="M20.1523 4.76217H18.7632V2.15759H19.8919C20.0454 2.15759 20.1926 2.09661 20.3011 1.98807C20.4097 1.87952 20.4707 1.7323 20.4707 1.5788C20.4707 1.42529 20.4097 1.27807 20.3011 1.16952C20.1926 1.06098 20.0454 1 19.8919 1H11.372C11.2185 1 11.0713 1.06098 10.9627 1.16952C10.8542 1.27807 10.7932 1.42529 10.7932 1.5788C10.7932 1.7323 10.8542 1.87952 10.9627 1.98807C11.0713 2.09661 11.2185 2.15759 11.372 2.15759H12.4833V4.76217H11.1C10.5622 4.76217 10.0463 4.97541 9.66548 5.35515C9.28465 5.73489 9.06993 6.25015 9.0684 6.78795V7.98027H7.40726C6.93547 7.98026 6.4829 8.16729 6.14875 8.50036C5.81459 8.83343 5.6261 9.28537 5.62457 9.75717V11.0652H3.07787C2.80527 11.0645 2.53521 11.1175 2.28314 11.2213C2.03108 11.3251 1.80197 11.4776 1.60895 11.6701C1.41592 11.8626 1.26278 12.0913 1.15828 12.343C1.05379 12.5948 0.999999 12.8647 1 13.1373V19.2147C1.00124 19.6705 1.15277 20.1132 1.43111 20.4742C1.70945 20.8352 2.09906 21.0944 2.5396 21.2115V22.4212C2.5396 22.5747 2.60057 22.7219 2.70911 22.8305C2.81766 22.939 2.96489 23 3.11839 23C3.2719 23 3.41911 22.939 3.52765 22.8305C3.6362 22.7219 3.69719 22.5747 3.69719 22.4212V21.2636H10.226V22.4212C10.226 22.5747 10.287 22.7219 10.3955 22.8305C10.5041 22.939 10.6513 23 10.8048 23C10.9583 23 11.1055 22.939 11.214 22.8305C11.3226 22.7219 11.3836 22.5747 11.3836 22.4212V21.2636H19.342V22.4212C19.342 22.5747 19.403 22.7219 19.5115 22.8305C19.6201 22.939 19.7673 23 19.9208 23C20.0743 23 20.2215 22.939 20.3301 22.8305C20.4386 22.7219 20.4996 22.5747 20.4996 22.4212V21.2636C20.9698 21.1818 21.396 20.9366 21.703 20.5713C22.0101 20.206 22.1784 19.744 22.1781 19.2668V6.78795C22.1781 6.25068 21.9647 5.73541 21.5848 5.3555C21.2049 4.9756 20.6896 4.76217 20.1523 4.76217ZM13.6409 2.15759H17.6056V4.76217H13.6409V2.15759ZM6.78216 9.75717C6.78215 9.67535 6.79836 9.59434 6.82985 9.51883C6.86133 9.44331 6.90747 9.37477 6.96559 9.31719C7.02371 9.2596 7.09267 9.21411 7.16847 9.18333C7.24428 9.15255 7.32545 9.13709 7.40726 9.13786H9.0684V11.0652H6.75322L6.78216 9.75717ZM3.07787 12.2228H9.05104V17.7561H2.17495V13.1258C2.1794 12.8877 2.27596 12.6606 2.44434 12.4922C2.61271 12.3238 2.83979 12.2273 3.07787 12.2228ZM2.15759 19.2147V18.9137H9.05104V19.261C9.0516 19.5639 9.12087 19.8627 9.25362 20.135H3.07787C2.83581 20.1304 2.60531 20.0306 2.4363 19.8573C2.26729 19.6839 2.17339 19.451 2.17495 19.2089L2.15759 19.2147ZM21.0032 19.261C21.0032 19.4918 20.9119 19.7132 20.7492 19.8769C20.5866 20.0407 20.3657 20.1334 20.135 20.135H11.1C10.8686 20.1334 10.6472 20.0409 10.4836 19.8773C10.3201 19.7137 10.2275 19.4923 10.226 19.261V6.78795C10.2275 6.55716 10.3203 6.33634 10.484 6.17369C10.6477 6.01104 10.8692 5.91975 11.1 5.91976H20.1523C20.3826 5.91976 20.6034 6.01123 20.7662 6.17404C20.9291 6.33686 21.0205 6.55769 21.0205 6.78795L21.0032 19.261Z" fill="currentColor"/>
<path d="M19.2496 11.7482H11.9973C11.8438 11.7482 11.6966 11.8091 11.588 11.9177C11.4795 12.0262 11.4185 12.1735 11.4185 12.327V18.3291C11.4185 18.4826 11.4795 18.6298 11.588 18.7383C11.6966 18.8469 11.8438 18.9079 11.9973 18.9079H19.2496C19.4031 18.9079 19.5503 18.8469 19.6589 18.7383C19.7674 18.6298 19.8284 18.4826 19.8284 18.3291V12.327C19.8284 12.1735 19.7674 12.0262 19.6589 11.9177C19.5503 11.8091 19.4031 11.7482 19.2496 11.7482ZM18.6708 17.7503H12.5761V12.9058H18.6708V17.7503Z" fill="currentColor"/>
</svg>
