<svg width="24" height="24" viewBox="0 0 24 24" fill="none" xmlns="http://www.w3.org/2000/svg">
<path d="M22.401 20.0896H4.47103C2.54314 20.0896 0.97998 18.5206 0.97998 16.5985V4.43484C0.97998 4.26115 1.06103 4.08747 1.19419 3.97747C1.30419 3.89062 1.42576 3.85589 1.56471 3.8501H22.401C22.4068 3.8501 22.4126 3.8501 22.4184 3.8501C22.7252 3.8501 22.98 4.12799 22.98 4.42905V19.5164C22.98 19.829 22.7252 20.0896 22.401 20.0896ZM2.13788 5.56957V16.5985C2.13788 17.8838 3.18577 18.9317 4.47103 18.9317H21.8221V5.56957L12.3216 12.5343C12.1189 12.6848 11.841 12.6848 11.6384 12.5343L2.13788 5.56957ZM3.33051 5.0022L11.9858 11.3475L20.641 5.0022H3.33051Z" fill="currentColor"/>
</svg>
