<svg width="24" height="24" viewBox="0 0 24 24" fill="none" xmlns="http://www.w3.org/2000/svg">
<path d="M21.7116 8.56933C21.6942 8.413 21.6073 8.25666 21.4799 8.16402L11.9203 1.15783C11.7176 1.00729 11.4397 1.00729 11.237 1.15783L1.67734 8.16402C1.53259 8.26824 1.43994 8.45353 1.43994 8.63303V19.7966C1.43994 21.5916 2.89907 23.0449 4.68826 23.0449H21.1325C21.451 23.0449 21.7116 22.7844 21.7116 22.4659C21.7116 22.4659 21.7116 8.63303 21.7116 8.62724C21.7174 8.60987 21.7116 8.58671 21.7116 8.56933ZM11.5786 2.33904L20.1598 8.62724L11.5786 14.9154L2.99752 8.62724L11.5786 2.33904ZM20.5593 21.8869H4.69405C3.54179 21.8869 2.60378 20.9489 2.60378 19.7966V9.7737L11.2428 16.1082C11.4455 16.2588 11.7234 16.2588 11.926 16.1082L20.5651 9.7737V21.8869H20.5593Z" fill="currentColor"/>
<path d="M7.13179 9.64633H16.0661C16.3846 9.64633 16.6452 9.38577 16.6452 9.0673C16.6452 8.74884 16.3846 8.48828 16.0661 8.48828H7.13179C6.81333 8.48828 6.55276 8.74884 6.55276 9.0673C6.55276 9.38577 6.81333 9.64633 7.13179 9.64633Z" fill="currentColor"/>
</svg>
