<svg width="24" height="24" viewBox="0 0 24 24" fill="none" xmlns="http://www.w3.org/2000/svg">
<path d="M22.8217 1.34087C22.6744 1.19358 22.4801 1.14001 22.2858 1.1534L16.6653 1.14001C16.2969 1.14001 15.9954 1.44129 15.9954 1.80952C15.9954 2.17775 16.2969 2.47903 16.6653 2.47903L20.7249 2.48572L15.56 7.64762C14.0192 6.322 12.0162 5.5119 9.82566 5.5119C4.96218 5.5119 1.00977 9.46199 1.00977 14.3226C1.00977 19.1832 4.96218 23.14 9.81896 23.14C14.6757 23.14 18.6349 19.1899 18.6349 14.3293C18.6349 12.14 17.8243 10.1382 16.4979 8.59832L21.6695 3.42973V7.49364C21.6695 7.86186 21.971 8.16314 22.3394 8.16314C22.7079 8.16314 23.0093 7.86186 23.0093 7.49364V1.82961V1.82291C23.016 1.64214 22.949 1.46807 22.8217 1.34087ZM9.81896 21.801C5.69907 21.801 2.34287 18.4468 2.34287 14.3293C2.34287 10.2118 5.69907 6.8576 9.81896 6.8576C13.9389 6.8576 17.2951 10.2118 17.2951 14.3293C17.2951 18.4468 13.9456 21.801 9.81896 21.801Z" fill="currentColor"/>
</svg>
