<svg width="23" height="24" viewBox="0 0 23 24" fill="none" xmlns="http://www.w3.org/2000/svg">
<path d="M20.1051 17.2714C17.2565 16.523 16.2411 15.5309 15.9859 15.2234V13.7846C16.9812 12.4452 17.4999 10.8114 17.4595 9.14318C17.4653 9.03302 17.4653 8.92264 17.4595 8.81249C18.0397 6.79348 17.883 5.26182 17.0418 4.26392C16.7315 3.92401 16.3569 3.649 15.9396 3.45481C15.5224 3.26062 15.0707 3.1511 14.6109 3.13259C14.6063 2.92862 14.643 2.72583 14.7188 2.53641C14.7946 2.34698 14.9078 2.17482 15.0518 2.03026C15.1378 1.95606 15.2002 1.85822 15.2311 1.74889C15.2621 1.63957 15.2602 1.52357 15.2258 1.41528C15.1907 1.30614 15.124 1.20987 15.0341 1.13862C14.9443 1.06737 14.8354 1.02434 14.7211 1.01496C10.9094 0.684258 8.19995 1.44428 6.6857 3.27763C4.78853 5.56931 5.47314 8.68485 5.60077 9.2012C5.58056 10.8424 6.10039 12.4446 7.08021 13.7614V15.2118C6.81333 15.5251 5.79223 16.5114 2.95518 17.2598C2.39792 17.4064 1.90445 17.7325 1.55105 18.1876C1.19765 18.6427 1.00399 19.2015 1 19.7778V22.3595C1 22.5134 1.06112 22.661 1.16993 22.7698C1.27873 22.8786 1.4263 22.9397 1.58017 22.9397H21.4801C21.634 22.9397 21.7816 22.8786 21.8904 22.7698C21.9992 22.661 22.0603 22.5134 22.0603 22.3595V19.7778C22.0538 19.2035 21.8589 18.6473 21.5057 18.1946C21.1525 17.7418 20.6605 17.4175 20.1051 17.2714ZM7.58497 4.02025C8.7163 2.65684 10.7469 2.02445 13.642 2.12308C13.4484 2.682 13.4005 3.28102 13.5027 3.8636C13.5309 4.00498 13.6106 4.13083 13.7264 4.21663C13.8423 4.30243 13.9859 4.34204 14.1293 4.32774C14.4996 4.29475 14.8726 4.34194 15.2231 4.46608C15.5735 4.59023 15.893 4.78842 16.1599 5.04716C16.3996 5.35667 16.5501 5.72582 16.5951 6.11468C16.4442 5.83039 16.3282 5.65054 16.3166 5.62733C16.2424 5.51109 16.1293 5.42506 15.9974 5.38466C15.8656 5.34426 15.7237 5.35213 15.5972 5.40686C14.2902 5.84652 12.9137 6.04315 11.5359 5.98704C10.1583 6.04094 8.78222 5.84436 7.47473 5.40686C7.35413 5.35541 7.21965 5.34632 7.09321 5.38109C6.96678 5.41586 6.85586 5.49243 6.77852 5.59832C6.93639 5.02261 7.21088 4.48547 7.58497 4.02025ZM7.48634 6.59622C8.79556 6.96697 10.1522 7.14291 11.5127 7.11837C12.8848 7.1454 14.2533 6.96945 15.574 6.59622C16.0159 7.36344 16.2703 8.22419 16.3166 9.10837C16.3557 10.5721 15.893 12.0051 15.0054 13.1696C14.1021 14.2865 12.8922 15.1153 11.5243 15.5541C10.1344 15.1386 8.91746 14.2822 8.05714 13.1142C7.19682 11.9462 6.73988 10.5299 6.75532 9.07936C6.79573 8.2049 7.04649 7.35309 7.48634 6.59622ZM20.8825 21.7677H2.16035V19.7662C2.16413 19.4465 2.27297 19.137 2.47009 18.8854C2.66721 18.6337 2.94165 18.4539 3.25107 18.3737C7.15564 17.341 8.07811 15.8326 8.16514 15.6643C8.21565 15.5803 8.24176 15.4839 8.24056 15.3858V14.9855C9.15853 15.7749 10.2288 16.3673 11.3851 16.726C11.4333 16.7317 11.482 16.7317 11.5301 16.726C11.5783 16.7321 11.627 16.7321 11.6752 16.726C12.8329 16.3666 13.905 15.7743 14.8255 14.9855V15.3858C14.825 15.483 14.849 15.5788 14.8951 15.6643C14.988 15.8326 15.9104 17.341 19.8092 18.3737C20.1191 18.4531 20.3941 18.6326 20.5914 18.8844C20.7887 19.1363 20.8971 19.4463 20.8999 19.7662L20.8825 21.7677Z" fill="currentColor"/>
</svg>
