<svg width="24" height="24" viewBox="0 0 24 24" fill="none" xmlns="http://www.w3.org/2000/svg">
<path d="M22.5846 1.35082C22.4236 1.24735 22.2167 1.23011 22.0443 1.30484L15.3706 4.16171C15.3706 4.16171 8.69688 1.30484 8.69113 1.29909C8.52444 1.23011 8.31749 1.24735 8.16229 1.34507L1.26442 5.77696C1.09772 5.88043 1 6.06437 1 6.25981V22.6825C1 22.8779 1.09772 23.0619 1.26442 23.1654C1.35639 23.2286 1.46561 23.2573 1.57482 23.2573C1.6553 23.2573 1.73578 23.2401 1.8105 23.2056L8.47845 20.1935L15.1464 23.0504C15.2728 23.1136 15.474 23.1136 15.6005 23.0504L22.4984 20.0958C22.7111 20.0038 22.849 19.7969 22.849 19.567V1.82792C22.8433 1.63248 22.7455 1.45429 22.5846 1.35082ZM9.04752 2.70165L14.7958 5.16765V21.6536L9.04752 19.1876V2.70165ZM2.14965 6.57596L7.89788 2.87985V19.1933L2.14965 21.7915V6.57596ZM21.6936 19.1876L15.9454 21.6536V5.1619L21.6936 2.69591V19.1876Z" fill="currentColor"/>
</svg>
