<svg width="24" height="24" viewBox="0 0 24 24" fill="none" xmlns="http://www.w3.org/2000/svg">
<path d="M22.4197 23.264C22.3676 23.264 22.3155 23.2582 22.2634 23.2408L12 20.3117L1.73666 23.2408C1.51669 23.3045 1.27935 23.2292 1.13464 23.0556C0.989918 22.8761 0.960974 22.633 1.06517 22.4246L11.4848 1.58526C11.6817 1.19163 12.3242 1.19163 12.521 1.58526L22.9407 22.4246C23.0449 22.6272 23.0159 22.8761 22.8712 23.0556C22.7554 23.1887 22.5876 23.264 22.4197 23.264ZM12 19.1308C12.0521 19.1308 12.1042 19.1366 12.1563 19.154L21.3083 21.7705L12 3.14242L2.68601 21.7647L11.838 19.1482C11.8958 19.1366 11.9479 19.1308 12 19.1308Z" fill="currentColor"/>
</svg>
