<svg width="24" height="24" viewBox="0 0 24 24" fill="none" xmlns="http://www.w3.org/2000/svg">
<path d="M15.559 22.9979C15.3487 22.9979 15.15 22.8869 15.0507 22.7L10.1725 13.9169L1.38586 9.0406C1.18139 8.92965 1.06454 8.70773 1.08791 8.47414C1.11128 8.24638 1.26318 8.04783 1.48518 7.97191L22.3184 1.02832C22.5287 0.958241 22.7624 1.0108 22.9143 1.16848C23.072 1.32615 23.1246 1.55391 23.0545 1.76414L16.114 22.6008C16.0439 22.8227 15.8452 22.9745 15.6116 22.9979C15.594 22.9979 15.5765 22.9979 15.559 22.9979ZM3.10931 8.66101L10.8794 12.9767C10.9729 13.0292 11.0547 13.111 11.1072 13.2044L15.4246 20.9714L21.5823 2.5058L3.10931 8.66101Z" fill="currentColor"/>
</svg>
