<svg width="24" height="25" viewBox="0 0 24 25" fill="none" xmlns="http://www.w3.org/2000/svg">
<path d="M18.6086 3C17.0789 3 15.5317 3.71272 14.3497 4.96433C14.3091 5.00489 14.2743 5.05125 14.2338 5.09761C14.2222 5.1092 14.2164 5.12078 14.2048 5.13237C12.7388 6.7896 12.2115 8.97991 12.6982 10.7994L12.0029 11.5353L11.3076 10.7994C11.7943 8.97991 11.267 6.7896 9.80099 5.13237C9.7894 5.12078 9.78361 5.1092 9.77202 5.09761C9.73146 5.05705 9.69669 5.01069 9.65613 4.96433C8.47985 3.71852 6.92692 3 5.39718 3C4.16295 3 3.03883 3.46935 2.23339 4.32694C0.379155 6.29127 0.6457 9.77376 2.83022 12.0916C4.0065 13.3374 5.55942 14.0559 7.08917 14.0559C7.56431 14.0559 8.02208 13.9864 8.45667 13.8473L9.13462 14.5658L7.63965 16.1477C6.77627 17.0574 6.77627 18.4887 7.63965 19.3984L8.54938 20.3603C8.65948 20.4762 8.81013 20.5399 8.97238 20.5399C9.13462 20.5399 9.28528 20.4762 9.39538 20.3603L12.0029 17.5963L14.6104 20.3603C14.7205 20.4762 14.8712 20.5399 15.0334 20.5399C15.1957 20.5399 15.3463 20.4762 15.4564 20.3603L17.525 18.17C17.7336 17.944 17.7336 17.5963 17.525 17.3761L14.8712 14.5658L15.5491 13.8473C15.9837 13.9806 16.4415 14.0559 16.9166 14.0559C18.4464 14.0559 19.9935 13.3432 21.1698 12.0916C23.3543 9.77376 23.6208 6.29127 21.7666 4.32694C20.967 3.46935 19.8428 3 18.6086 3ZM3.08518 5.12658C3.68201 4.49498 4.48165 4.1589 5.40877 4.1589C6.59084 4.1589 7.80769 4.72096 8.75798 5.69444C8.61312 7.05035 8.0105 8.35411 7.03123 9.39712C6.06934 10.4169 4.85829 11.0543 3.61247 11.2108C1.90889 9.33917 1.66553 6.62735 3.08518 5.12658ZM4.73081 12.1611C5.88392 11.8192 6.97328 11.147 7.87143 10.1968C8.74639 9.26964 9.3722 8.1513 9.69669 6.96922C10.6354 8.69019 10.5774 10.7125 9.42435 11.9409C8.82751 12.5725 8.02208 12.9086 7.10076 12.9086C6.28953 12.897 5.47251 12.6304 4.73081 12.1611ZM9.56342 13.32C9.81837 13.1519 10.0502 12.9549 10.2646 12.7289C10.4847 12.4972 10.6702 12.2422 10.8324 11.9699L11.2148 12.3755L9.94585 13.7198L9.56342 13.32ZM16.3082 17.7759L15.0392 19.1203L12.8025 16.7561L14.0715 15.4118L16.3082 17.7759ZM8.97818 19.1261L8.49143 18.6104C8.05105 18.1468 8.05105 17.4167 8.49143 16.9473L13.1908 11.9699C13.353 12.2422 13.5384 12.4972 13.7586 12.7289C13.973 12.9549 14.2106 13.1519 14.4598 13.32L8.97818 19.1261ZM14.5988 11.9293C13.4457 10.7067 13.3878 8.68439 14.3265 6.95764C14.651 8.14551 15.271 9.25805 16.1517 10.191C17.0499 11.1413 18.1393 11.8192 19.2924 12.1553C18.5507 12.6304 17.7336 12.8912 16.9224 12.8912C15.9953 12.897 15.1957 12.5609 14.5988 11.9293ZM20.4107 11.2108C19.1649 11.0543 17.9538 10.4169 16.992 9.39712C16.0127 8.35411 15.4043 7.05035 15.2652 5.69444C16.2155 4.72096 17.4323 4.1589 18.6144 4.1589C19.5357 4.1589 20.3412 4.49498 20.938 5.12658C22.3519 6.62735 22.1085 9.33917 20.4107 11.2108Z" fill="currentColor"/>
</svg>
