<svg width="24" height="24" viewBox="0 0 24 24" fill="none" xmlns="http://www.w3.org/2000/svg">
<path d="M20.1074 13.4276V21.4114H20.621V13.4088C20.5165 13.4259 20.4121 13.4361 20.3026 13.4361C20.2358 13.4361 20.1708 13.4327 20.1074 13.4259V13.4276Z" fill="currentColor"/>
<path d="M3.38926 6.54956H1.8418V11.4795C1.8418 12.2755 2.49057 12.9243 3.28655 12.9243C4.08254 12.9243 4.73131 12.2755 4.73131 11.4795V6.54956H3.38926Z" fill="#C9C2EA"/>
<path d="M5.24512 11.4795C5.24512 12.2755 5.89389 12.9243 6.68987 12.9243C7.48586 12.9243 8.13463 12.2755 8.13463 11.4795V6.54956H5.24512V11.4795Z" fill="#C9C2EA"/>
<path d="M8.64844 11.4795C8.64844 12.2755 9.29721 12.9243 10.0932 12.9243C10.8892 12.9243 11.5379 12.2755 11.5379 11.4795V6.54956H8.64844V11.4795Z" fill="#C9C2EA"/>
<path d="M12.0518 11.4795C12.0518 12.2755 12.7005 12.9243 13.4965 12.9243C14.2925 12.9243 14.9413 12.2755 14.9413 11.4795V6.54956H12.0518V11.4795Z" fill="#C9C2EA"/>
<path d="M15.4541 11.4795C15.4541 12.2755 16.1029 12.9243 16.8989 12.9243C17.6948 12.9243 18.3436 12.2755 18.3436 11.4795V6.54956H15.4541V11.4795Z" fill="#C9C2EA"/>
<path d="M20.3022 12.9243C21.0982 12.9243 21.7469 12.2755 21.7469 11.4795V6.54956H18.8574V11.4795C18.8574 12.2755 19.5062 12.9243 20.3022 12.9243Z" fill="#C9C2EA"/>
<path d="M5.85264 3.51458H17.6966L19.6549 6.03605H20.3053L18.0252 3.10032C17.9773 3.03699 17.902 3.00104 17.8232 3.00104H5.72597C5.64552 3.00104 5.57191 3.0387 5.52227 3.10032L3.2627 6.03434H3.91147L5.85264 3.51458Z" fill="currentColor"/>
<path d="M18.3951 14.8912H14.0077C13.8657 14.8912 13.751 15.0059 13.751 15.1479V21.4114H14.2645V15.4047H18.1383V21.4114H18.6518V15.1479C18.6518 15.0059 18.5372 14.8912 18.3951 14.8912Z" fill="currentColor"/>
<path d="M22.7432 21.4114H3.64644V13.4036C4.2216 13.2957 4.70775 12.938 4.98848 12.445C5.32571 13.0373 5.96078 13.4378 6.69001 13.4378C7.41923 13.4378 8.05431 13.0373 8.39153 12.445C8.72876 13.0373 9.36383 13.4378 10.0931 13.4378C10.8223 13.4378 11.4574 13.0373 11.7946 12.445C12.1318 13.0373 12.7669 13.4378 13.4961 13.4378C14.2253 13.4378 14.8604 13.0373 15.1976 12.445C15.5349 13.0373 16.1699 13.4378 16.8992 13.4378C17.6284 13.4378 18.2635 13.0373 18.6007 12.445C18.9071 12.9825 19.4617 13.3642 20.1071 13.4275C20.1721 13.4344 20.2372 13.4378 20.3022 13.4378C20.4101 13.4378 20.5162 13.4258 20.6206 13.4104C21.5501 13.2581 22.2605 12.4518 22.2605 11.4795V6.29278C22.2605 6.1507 22.1458 6.03601 22.0037 6.03601H1.58543C1.44336 6.03601 1.32866 6.1507 1.32866 6.29278V11.4795C1.32866 12.5066 2.12465 13.3505 3.1329 13.4293V21.4114H1.25677C1.11469 21.4114 1 21.5261 1 21.6681C1 21.8102 1.11469 21.9249 1.25677 21.9249H22.7432C22.8853 21.9249 23 21.8102 23 21.6681C23 21.5261 22.8853 21.4114 22.7432 21.4114ZM18.8575 6.54955H21.747V11.4795C21.747 12.2755 21.0982 12.9243 20.3022 12.9243C19.5062 12.9243 18.8575 12.2755 18.8575 11.4795V6.54955ZM15.4544 6.54955H18.3439V11.4795C18.3439 12.2755 17.6951 12.9243 16.8992 12.9243C16.1032 12.9243 15.4544 12.2755 15.4544 11.4795V6.54955ZM12.0514 6.54955H14.9409V11.4795C14.9409 12.2755 14.2921 12.9243 13.4961 12.9243C12.7001 12.9243 12.0514 12.2755 12.0514 11.4795V6.54955ZM8.6483 6.54955H11.5378V11.4795C11.5378 12.2755 10.889 12.9243 10.0931 12.9243C9.29707 12.9243 8.6483 12.2755 8.6483 11.4795V6.54955ZM5.24525 6.54955H8.13476V11.4795C8.13476 12.2755 7.48599 12.9243 6.69001 12.9243C5.89402 12.9243 5.24525 12.2755 5.24525 11.4795V6.54955ZM1.8422 11.4795V6.54955H4.73171V11.4795C4.73171 12.2755 4.08294 12.9243 3.28696 12.9243C2.49097 12.9243 1.8422 12.2755 1.8422 11.4795Z" fill="currentColor"/>
<path d="M11.675 16.8187H5.7265C5.58442 16.8187 5.46973 16.9334 5.46973 17.0754V19.9461C5.46973 20.0882 5.58442 20.2029 5.7265 20.2029H11.675C11.8171 20.2029 11.9318 20.0882 11.9318 19.9461V17.0754C11.9318 16.9334 11.8171 16.8187 11.675 16.8187ZM11.4182 19.6893H5.98327V17.3322H11.4182V19.6893Z" fill="currentColor"/>
</svg>
