<svg width="24" height="25" viewBox="0 0 24 25" fill="none" xmlns="http://www.w3.org/2000/svg">
<path d="M9.99769 17.4588L9.70822 19.1955C9.67349 19.4155 9.76032 19.6297 9.93979 19.7629C10.0382 19.8323 10.1598 19.8729 10.2756 19.8729C10.3682 19.8729 10.4608 19.8497 10.5477 19.8034L12.0992 18.9755L13.6623 19.786C13.8591 19.8844 14.0965 19.8671 14.2702 19.7397C14.4496 19.6066 14.5365 19.3866 14.4959 19.1724L14.1891 17.4414L15.4454 16.2025C15.6017 16.0462 15.6596 15.8146 15.5901 15.6062C15.5206 15.3978 15.3412 15.2473 15.1212 15.2125L13.3786 14.9694L12.5913 13.3947C12.4928 13.1979 12.2902 13.0763 12.076 13.0763C12.076 13.0763 12.076 13.0763 12.0702 13.0763C11.8502 13.0763 11.6476 13.2037 11.555 13.4005L10.785 14.981L9.04247 15.2473C8.82247 15.282 8.64301 15.4325 8.57932 15.6467C8.50985 15.8551 8.56774 16.0867 8.72984 16.2372L9.99769 17.4588ZM11.2597 16.0867C11.4508 16.0578 11.6129 15.9362 11.6939 15.7683L12.0818 14.9636L12.4813 15.7625C12.5681 15.9304 12.7302 16.052 12.9213 16.0751L13.807 16.1967L13.1702 16.8219C13.037 16.9551 12.9734 17.1461 13.0081 17.3372L13.1644 18.2171L12.3713 17.8061C12.2034 17.7193 12.0008 17.7193 11.8329 17.8119L11.0455 18.2287L11.1903 17.3488C11.2192 17.1635 11.1555 16.9725 11.0224 16.8393L10.3798 16.2199L11.2597 16.0867Z" fill="currentColor"/>
<path d="M8.58512 10.969C6.7673 12.1326 5.55156 14.1647 5.55156 16.4746C5.55156 20.0755 8.48092 23.0106 12.0876 23.0106C15.6943 23.0106 18.6237 20.0813 18.6237 16.4746C18.6237 14.1589 17.4079 12.1268 15.5901 10.969L21.5067 1.90882C21.6804 1.64252 21.6051 1.28358 21.3388 1.10991C21.0725 0.93623 20.7136 1.01149 20.5399 1.2778L14.5828 10.4016C14.577 10.4132 14.5712 10.4306 14.5654 10.4422C14.3628 10.3611 14.1544 10.2859 13.946 10.2222L12.7823 8.43909L17.0432 1.91461C17.2169 1.64831 17.1416 1.28937 16.8753 1.1157C16.609 0.942019 16.2501 1.01728 16.0764 1.28358L12.0876 7.36808L8.10461 1.27201C7.93094 1.0057 7.57201 0.930441 7.30571 1.10412C7.0394 1.2778 6.96413 1.63673 7.13781 1.90303L12.3944 9.95587C12.2902 9.95008 12.1918 9.93851 12.0876 9.93851C11.2134 9.93851 10.374 10.1122 9.60982 10.4306C9.60403 10.419 9.60403 10.4016 9.59245 10.3901L3.64111 1.27201C3.46744 1.0057 3.1085 0.930441 2.84219 1.10412C2.57589 1.2778 2.50063 1.63673 2.67431 1.90303L8.58512 10.969ZM17.4658 16.4746C17.4658 19.4387 15.0517 21.8528 12.0876 21.8528C9.12352 21.8528 6.70941 19.4387 6.70941 16.4746C6.70941 13.5105 9.12352 11.0964 12.0876 11.0964C15.0517 11.0964 17.4658 13.5105 17.4658 16.4746Z" fill="currentColor"/>
</svg>
