<svg width="24" height="24" viewBox="0 0 24 24" fill="none" xmlns="http://www.w3.org/2000/svg">
<path d="M22.4211 1.00244H1.57895C1.26053 1.00244 1 1.26297 1 1.58139V19.5288C1 21.4451 2.55737 23.0024 4.47368 23.0024H22.4211C22.7395 23.0024 23 22.7419 23 22.4235V1.58139C23 1.26297 22.7395 1.00244 22.4211 1.00244ZM21.8421 2.16034V15.4877L9.3021 8.52297C9.07631 8.3956 8.79842 8.43613 8.61315 8.6156L2.15789 14.9724V2.16034H21.8421ZM4.47368 21.8445C3.2 21.8445 2.15789 20.8082 2.15789 19.5288V16.5935L9.12263 9.73876L21.8421 16.8077V21.8445H4.47368Z" fill="currentColor"/>
<path d="M17.2102 9.60564C18.7617 9.60564 20.0238 8.34353 20.0238 6.79196C20.0238 5.24038 18.7617 3.97827 17.2102 3.97827C15.6586 3.97827 14.3965 5.24038 14.3965 6.79196C14.3965 8.34353 15.6586 9.60564 17.2102 9.60564ZM17.2102 5.13617C18.1249 5.13617 18.8659 5.87722 18.8659 6.79196C18.8659 7.70669 18.1249 8.44774 17.2102 8.44774C16.2954 8.44774 15.5544 7.70669 15.5544 6.79196C15.5544 5.87722 16.3012 5.13617 17.2102 5.13617Z" fill="currentColor"/>
</svg>
