<svg width="24" height="24" viewBox="0 0 24 24" fill="none" xmlns="http://www.w3.org/2000/svg">
<path d="M22.4208 3.61353H4.18979C3.87137 3.61353 3.61084 3.87405 3.61084 4.19247V19.5288C3.61084 21.4451 5.16821 23.0025 7.08452 23.0025H22.4208C22.7393 23.0025 22.9998 22.7419 22.9998 22.4235V4.19247C22.9998 3.87405 22.7393 3.61353 22.4208 3.61353ZM21.8419 4.77142V16.2288L10.9808 10.1962C10.755 10.0688 10.4771 10.1093 10.2919 10.2888L4.76873 15.7309V4.77142H21.8419ZM7.08452 21.8446C5.81084 21.8446 4.76873 20.8083 4.76873 19.5288V17.3519L10.8014 11.4119L21.8419 17.5546V21.8446H7.08452Z" fill="currentColor"/>
<path d="M17.8645 11.2846C19.2597 11.2846 20.3945 10.1499 20.3945 8.75461C20.3945 7.35935 19.2597 6.22461 17.8645 6.22461C16.4692 6.22461 15.3345 7.35935 15.3345 8.75461C15.3345 10.1499 16.4692 11.2846 17.8645 11.2846ZM17.8645 7.37671C18.6229 7.37671 19.2366 7.99619 19.2366 8.74882C19.2366 9.50145 18.6229 10.1209 17.8645 10.1209C17.106 10.1209 16.4924 9.50724 16.4924 8.74882C16.4924 7.9904 17.106 7.37671 17.8645 7.37671Z" fill="currentColor"/>
<path d="M18.5363 1.58139C18.5363 1.26297 18.2758 1.00244 17.9574 1.00244H1.57895C1.26053 1.00244 1 1.26297 1 1.58139V17.9598C1 18.2782 1.26053 18.5388 1.57895 18.5388C1.89737 18.5388 2.15789 18.2782 2.15789 17.9598V2.16034H17.9574C18.2758 2.16034 18.5363 1.89981 18.5363 1.58139Z" fill="currentColor"/>
</svg>
