<svg width="24" height="24" viewBox="0 0 24 24" fill="none" xmlns="http://www.w3.org/2000/svg">
<path d="M18.5363 1.66131C18.5363 1.34298 18.2758 1.08252 17.9574 1.08252H1.57895C1.26053 1.08252 1 1.34298 1 1.66131V18.0354C1 18.3538 1.26053 18.6142 1.57895 18.6142C1.89737 18.6142 2.15789 18.3538 2.15789 18.0354V2.24011H17.9574C18.2758 2.24011 18.5363 1.98544 18.5363 1.66131Z" fill="currentColor"/>
<path d="M9.41223 18.9498C9.69012 19.1118 9.99697 19.1929 10.3038 19.1929C10.6107 19.1929 10.9175 19.1118 11.2012 18.9498L18.1891 14.8866C18.7449 14.5625 19.0749 13.9895 19.0749 13.347C19.0749 12.7046 18.7449 12.1316 18.1891 11.8075L11.2012 7.74431C10.6454 7.42018 9.97381 7.42019 9.41802 7.73852C8.85644 8.06265 8.52644 8.63566 8.52644 9.28391V17.4102C8.52065 18.0527 8.85644 18.6314 9.41223 18.9498ZM9.67855 9.27812C9.67855 8.95399 9.89855 8.79193 9.99118 8.73405C10.0491 8.69932 10.1649 8.64723 10.3038 8.64723C10.3964 8.64723 10.5007 8.67039 10.6164 8.73405L17.6043 12.7972C17.8822 12.9593 17.917 13.2313 17.917 13.3355C17.917 13.4454 17.888 13.7117 17.6043 13.8738L10.6164 17.9369C10.3328 18.099 10.0838 17.989 9.99118 17.9369C9.89855 17.8848 9.67855 17.7227 9.67855 17.3928V9.27812Z" fill="currentColor"/>
<path d="M22.4208 3.6062H4.10287C3.78445 3.6062 3.52393 3.86666 3.52393 4.185V19.6099C3.52393 21.5257 5.08129 23.0827 6.99761 23.0827H22.4208C22.7392 23.0827 22.9997 22.8222 22.9997 22.5039V4.185C22.9997 3.86666 22.7392 3.6062 22.4208 3.6062ZM21.8418 21.9193H6.99182C5.71814 21.9193 4.67603 20.8832 4.67603 19.6041V4.76379H21.8418V21.9193Z" fill="currentColor"/>
</svg>
