<svg width="24" height="24" viewBox="0 0 24 24" fill="none" xmlns="http://www.w3.org/2000/svg">
<path d="M7.66397 18.3187C7.97081 18.4924 8.30081 18.5792 8.6366 18.5792C8.97239 18.5792 9.30818 18.4924 9.61502 18.3129L17.564 13.6871C18.1719 13.334 18.5308 12.7029 18.5308 12.0024C18.5308 11.3019 18.1661 10.6708 17.564 10.3176L9.61502 5.69185C9.00712 5.3387 8.27186 5.33291 7.66397 5.68606C7.05029 6.03922 6.68555 6.67027 6.68555 7.37659V16.6282C6.68555 17.3345 7.05029 17.9655 7.66397 18.3187ZM7.84344 7.37659C7.84344 7.08712 7.99396 6.83238 8.23712 6.69343C8.3587 6.62396 8.49764 6.58922 8.6308 6.58922C8.76975 6.58922 8.90291 6.62396 9.03028 6.69922L16.9792 11.325C17.2282 11.4697 17.3729 11.7187 17.3729 12.0082C17.3729 12.2976 17.2282 12.5466 16.9792 12.6913L9.03028 17.3171C8.78133 17.4619 8.48607 17.4619 8.23712 17.3171C7.98817 17.1724 7.84344 16.9176 7.84344 16.634V7.37659Z" fill="currentColor"/>
<path d="M22.4211 1.00244H1.57895C1.26053 1.00244 1 1.26297 1 1.58139V19.5288C1 21.4451 2.55737 23.0024 4.47368 23.0024H22.4211C22.7395 23.0024 23 22.7419 23 22.4235V1.58139C23 1.26297 22.7395 1.00244 22.4211 1.00244ZM21.8421 21.8445H4.47368C3.2 21.8445 2.15789 20.8082 2.15789 19.5288V2.16034H21.8421V21.8445Z" fill="currentColor"/>
</svg>
