<svg width="24" height="24" viewBox="0 0 24 24" fill="none" xmlns="http://www.w3.org/2000/svg">
<path d="M17.5152 7.17737C17.4978 7.17158 17.4746 7.16 17.4515 7.15421L15.5178 6.58684V5.55632H15.8536C16.172 5.55632 16.4325 5.29579 16.4325 4.97737V1.57895C16.4325 1.26053 16.172 1 15.8536 1H7.91044C7.59201 1 7.33149 1.26053 7.33149 1.57895V4.97737C7.33149 5.29579 7.59201 5.55632 7.91044 5.55632H8.40254V6.58105L6.35307 7.14842C6.32991 7.15421 6.30096 7.16579 6.2778 7.17158C5.44412 7.53053 4.8999 8.32947 4.8999 9.20368V20.7711C4.8999 21.9984 5.9478 23 7.23306 23H16.5657C17.851 23 18.8988 21.9984 18.8988 20.7711V9.21526C18.9046 8.32947 18.3604 7.53053 17.5152 7.17737ZM8.48938 2.15789H15.2746V4.39842H8.48938V2.15789ZM17.7467 20.7711C17.7467 21.3616 17.2199 21.8421 16.5715 21.8421H7.23885C6.59043 21.8421 6.06359 21.3616 6.06359 20.7711V9.20368C6.06359 8.80421 6.31253 8.43368 6.70622 8.24842L9.1378 7.57105C9.38675 7.50158 9.56044 7.27579 9.56044 7.01526V5.55632H14.3599V7.02105C14.3599 7.27579 14.5278 7.50158 14.7767 7.57684L17.0925 8.26C17.492 8.43947 17.7525 8.81579 17.7525 9.22105V20.7711H17.7467Z" fill="currentColor"/>
<path d="M15.3905 13.1985H12.461V10.269C12.461 9.95059 12.2005 9.69006 11.882 9.69006C11.5636 9.69006 11.3031 9.95059 11.3031 10.269V13.1985H8.37363C8.0552 13.1985 7.79468 13.459 7.79468 13.7774C7.79468 14.0959 8.0552 14.3564 8.37363 14.3564H11.3031V17.2859C11.3031 17.6043 11.5636 17.8648 11.882 17.8648C12.2005 17.8648 12.461 17.6043 12.461 17.2859V14.3564H15.3905C15.7089 14.3564 15.9694 14.0959 15.9694 13.7774C15.9694 13.459 15.7089 13.1985 15.3905 13.1985Z" fill="currentColor"/>
</svg>
