<svg width="24" height="24" viewBox="0 0 24 24" fill="none" xmlns="http://www.w3.org/2000/svg">
<path d="M5.31432 1.14014C2.93692 1.14014 1 3.07971 1 5.46037C1 7.84104 2.93692 9.78062 5.31432 9.78062C7.69171 9.78062 9.62863 7.84104 9.62863 5.46037C9.62863 3.07971 7.69775 1.14014 5.31432 1.14014ZM5.31432 8.57216C3.60066 8.57216 2.2068 7.17639 2.2068 5.46037C2.2068 3.74436 3.60066 2.3486 5.31432 2.3486C7.02797 2.3486 8.42183 3.74436 8.42183 5.46037C8.42183 7.17639 7.02797 8.57216 5.31432 8.57216Z" fill="#686868"/>
<path d="M18.6854 9.79869C21.0628 9.79869 22.9997 7.85911 22.9997 5.47845C22.9997 3.09779 21.0628 1.1582 18.6854 1.1582C16.308 1.1582 14.3711 3.09779 14.3711 5.47845C14.3711 7.85911 16.308 9.79869 18.6854 9.79869ZM18.6854 2.36666C20.3991 2.36666 21.7929 3.76244 21.7929 5.47845C21.7929 7.19446 20.3991 8.59023 18.6854 8.59023C16.9717 8.59023 15.5779 7.19446 15.5779 5.47845C15.5779 3.76244 16.9717 2.36666 18.6854 2.36666Z" fill="#686868"/>
<path d="M5.31432 14.4814C2.93692 14.4814 1 16.421 1 18.8017C1 21.1823 2.93692 23.1219 5.31432 23.1219C7.69171 23.1219 9.62863 21.1823 9.62863 18.8017C9.62863 16.421 7.69775 14.4814 5.31432 14.4814ZM5.31432 21.9135C3.60066 21.9135 2.2068 20.5177 2.2068 18.8017C2.2068 17.0857 3.60066 15.6899 5.31432 15.6899C7.02797 15.6899 8.42183 17.0857 8.42183 18.8017C8.42183 20.5177 7.02797 21.9135 5.31432 21.9135Z" fill="#686868"/>
<path d="M18.6854 14.4998C16.308 14.4998 14.3711 16.4393 14.3711 18.82C14.3711 21.2007 16.308 23.1402 18.6854 23.1402C21.0628 23.1402 22.9997 21.2007 22.9997 18.82C23.0058 16.4393 21.0688 14.4998 18.6854 14.4998ZM18.6854 21.9318C16.9717 21.9318 15.5779 20.536 15.5779 18.82C15.5779 17.104 16.9717 15.7082 18.6854 15.7082C20.3991 15.7082 21.7929 17.104 21.7929 18.82C21.799 20.536 20.3991 21.9318 18.6854 21.9318Z" fill="#686868"/>
</svg>
