<svg width="22" height="17" viewBox="0 0 22 17" fill="none" xmlns="http://www.w3.org/2000/svg">
<path d="M21.4211 0.119995H0.578947C0.260526 0.119995 0 0.380521 0 0.698942C0 1.01736 0.260526 1.27789 0.578947 1.27789H21.4211C21.7395 1.27789 22 1.01736 22 0.698942C22 0.380521 21.7395 0.119995 21.4211 0.119995Z" fill="currentColor"/>
<path d="M21.4211 7.5769H0.578947C0.260526 7.5769 0 7.83743 0 8.15585C0 8.47427 0.260526 8.7348 0.578947 8.7348H21.4211C21.7395 8.7348 22 8.47427 22 8.15585C22 7.83743 21.7395 7.5769 21.4211 7.5769Z" fill="currentColor"/>
<path d="M21.4211 15.0105H0.578947C0.260526 15.0105 0 15.271 0 15.5894C0 15.9079 0.260526 16.1684 0.578947 16.1684H21.4211C21.7395 16.1684 22 15.9079 22 15.5894C22 15.271 21.7395 15.0105 21.4211 15.0105Z" fill="currentColor"/>
</svg>
