<svg width="24" height="24" viewBox="0 0 24 24" fill="none" xmlns="http://www.w3.org/2000/svg">
<path d="M4.88281 22.8029C4.79013 22.8029 4.70325 22.7798 4.62216 22.7392C4.431 22.6407 4.30356 22.4438 4.30356 22.2237V17.8098L1.56371 17.775C1.24512 17.7692 0.990234 17.5144 0.990234 17.1958V2.85928C0.990234 2.54069 1.2509 2.28003 1.56949 2.28003H19.4858C20.4242 2.28003 21.2988 2.64496 21.965 3.30531C22.6253 3.96566 22.9902 4.84612 22.9902 5.78451L22.9844 17.19C22.9844 17.5086 22.7238 17.7692 22.4052 17.7692H12.0134L5.22457 22.6929C5.12609 22.7682 5.00445 22.8029 4.88281 22.8029ZM2.14874 16.6223L4.88861 16.6571C5.2072 16.6629 5.46206 16.9177 5.46206 17.2363V21.0883L11.4805 16.7208C11.579 16.6513 11.7006 16.6107 11.8223 16.6107H21.8202L21.8259 5.77871C21.8259 5.15312 21.5827 4.56228 21.1424 4.12205C20.7022 3.68182 20.1114 3.43274 19.4858 3.43274H2.14874V16.6223Z" fill="currentColor"/>
</svg>
