<svg width="24" height="24" viewBox="0 0 24 24" fill="none" xmlns="http://www.w3.org/2000/svg">
<path d="M21.9747 3.55531C21.3144 2.89496 20.4339 2.53003 19.4955 2.53003H1.57925C1.26066 2.53003 1 2.79069 1 3.10928V17.44C1 17.7586 1.25487 18.0134 1.57346 18.0192L4.31332 18.054V22.4679C4.31332 22.688 4.43496 22.885 4.63191 22.9834C4.713 23.024 4.80569 23.0471 4.89258 23.0471C5.01422 23.0471 5.13007 23.0124 5.23433 22.9371L12.0232 18.0134H22.415C22.7335 18.0134 22.9942 17.7528 22.9942 17.4342L23 6.02871C22.9942 5.09612 22.6351 4.21565 21.9747 3.55531ZM21.8299 16.8607H11.832C11.7104 16.8607 11.5887 16.9013 11.4903 16.9708L5.47183 21.3383V17.4863C5.47183 17.1677 5.21696 16.9129 4.89837 16.9071L2.1585 16.8665V3.68853H19.4955C20.1211 3.68853 20.712 3.93182 21.1522 4.37784C21.5924 4.81808 21.8357 5.40891 21.8357 6.03451L21.8299 16.8607Z" fill="currentColor"/>
<path d="M16.1242 5.62329C15.8983 5.39738 15.5334 5.39738 15.3075 5.62329L11.9999 8.93082L8.69241 5.62329C8.4665 5.39738 8.10157 5.39738 7.87566 5.62329C7.64976 5.8492 7.64976 6.21413 7.87566 6.44003L11.1774 9.75336L7.86987 13.0609C7.64396 13.2868 7.64396 13.6517 7.86987 13.8776C7.98572 13.9935 8.13053 14.0456 8.28114 14.0456C8.43174 14.0456 8.57656 13.9877 8.69241 13.8776L11.9999 10.5701L15.3075 13.8776C15.4233 13.9935 15.5681 14.0456 15.7187 14.0456C15.8693 14.0456 16.0142 13.9877 16.13 13.8776C16.3559 13.6517 16.3559 13.2868 16.13 13.0609L12.8167 9.75336L16.1242 6.44583C16.3501 6.21992 16.3501 5.8492 16.1242 5.62329Z" fill="currentColor"/>
</svg>
