<svg width="24" height="24" viewBox="0 0 24 24" fill="none" xmlns="http://www.w3.org/2000/svg">
<path d="M21.965 2.55531C21.3046 1.89496 20.4241 1.53003 19.4858 1.53003H1.56949C1.2509 1.53003 0.990234 1.79069 0.990234 2.10928V16.44C0.990234 16.7586 1.2451 17.0134 1.56369 17.0192L4.30356 17.054V21.4679C4.30356 21.688 4.42519 21.885 4.62214 21.9834C4.70324 22.024 4.79592 22.0471 4.88281 22.0471C5.00445 22.0471 5.1203 22.0124 5.22457 21.9371L12.0134 17.0134H22.4052C22.7238 17.0134 22.9844 16.7528 22.9844 16.4342L22.9902 5.02871C22.9902 4.09612 22.6253 3.21565 21.965 2.55531ZM21.8259 15.8607H11.828C11.7064 15.8607 11.5848 15.9013 11.4863 15.9708L5.46206 20.3384V16.4863C5.46206 16.1677 5.20719 15.9129 4.8886 15.9071L2.14874 15.8723V2.68853H19.4858C20.1113 2.68853 20.7022 2.93182 21.1424 3.37784C21.5826 3.81808 21.8259 4.40891 21.8259 5.03451V15.8607Z" fill="currentColor"/>
<path d="M11.9728 4.47852C11.6542 4.47852 11.3936 4.73918 11.3936 5.05777V11.0414C11.3936 11.36 11.6542 11.6207 11.9728 11.6207C12.2914 11.6207 12.5521 11.36 12.5521 11.0414V5.05777C12.5521 4.73918 12.2914 4.47852 11.9728 4.47852Z" fill="currentColor"/>
<path d="M11.9844 13.5436C12.2691 13.5436 12.4999 13.3128 12.4999 13.0281C12.4999 12.7434 12.2691 12.5126 11.9844 12.5126C11.6996 12.5126 11.4688 12.7434 11.4688 13.0281C11.4688 13.3128 11.6996 13.5436 11.9844 13.5436Z" fill="currentColor"/>
</svg>
