<svg width="24" height="24" viewBox="0 0 24 24" fill="none" xmlns="http://www.w3.org/2000/svg">
<path d="M4.87051 23.0421C4.77788 23.0421 4.69103 23.019 4.60998 22.9784C4.41893 22.88 4.29156 22.6832 4.29156 22.4632V18.0516L1.55314 18.0169C1.23472 18.0111 0.97998 17.7563 0.97998 17.4379V3.10898C0.97998 2.79056 1.24051 2.53003 1.55893 2.53003H19.4773C20.4152 2.53003 21.2952 2.89477 21.9552 3.55477C22.6152 4.21477 22.98 5.09477 22.98 6.03266L22.9626 17.4321C22.9626 17.7506 22.7021 18.0111 22.3837 18.0111H11.9973L5.21209 22.9321C5.11367 23.0016 4.99209 23.0421 4.87051 23.0421ZM2.13788 16.859L4.8763 16.8937C5.19472 16.8995 5.44945 17.1542 5.44945 17.4727V21.3284L11.4647 16.9632C11.5631 16.8937 11.6847 16.8532 11.8063 16.8532H21.7989L21.8163 6.03266C21.8163 5.4074 21.5731 4.81687 21.1331 4.37687C20.6931 3.93687 20.1026 3.68792 19.4773 3.68792H2.13788V16.859Z" fill="currentColor"/>
<path d="M6.89694 12.3025C5.94167 12.3025 5.1601 11.521 5.1601 10.5657C5.1601 9.61044 5.94167 8.82886 6.89694 8.82886C7.8522 8.82886 8.63378 9.61044 8.63378 10.5657C8.63378 11.521 7.85799 12.3025 6.89694 12.3025ZM6.89694 9.98675C6.57852 9.98675 6.31799 10.2473 6.31799 10.5657C6.31799 10.8841 6.57852 11.1446 6.89694 11.1446C7.21536 11.1446 7.47588 10.8841 7.47588 10.5657C7.47588 10.2473 7.22115 9.98675 6.89694 9.98675Z" fill="currentColor"/>
<path d="M11.9627 12.3025C11.0074 12.3025 10.2258 11.521 10.2258 10.5657C10.2258 9.61044 11.0074 8.82886 11.9627 8.82886C12.9179 8.82886 13.6995 9.61044 13.6995 10.5657C13.6995 11.521 12.9237 12.3025 11.9627 12.3025ZM11.9627 9.98675C11.6443 9.98675 11.3837 10.2473 11.3837 10.5657C11.3837 10.8841 11.6443 11.1446 11.9627 11.1446C12.2811 11.1446 12.5416 10.8841 12.5416 10.5657C12.5416 10.2473 12.2811 9.98675 11.9627 9.98675Z" fill="currentColor"/>
<path d="M17.0285 12.3025C16.0732 12.3025 15.2916 11.521 15.2916 10.5657C15.2916 9.61044 16.0732 8.82886 17.0285 8.82886C17.9837 8.82886 18.7653 9.61044 18.7653 10.5657C18.7653 11.521 17.9895 12.3025 17.0285 12.3025ZM17.0285 9.98675C16.71 9.98675 16.4495 10.2473 16.4495 10.5657C16.4495 10.8841 16.71 11.1446 17.0285 11.1446C17.3469 11.1446 17.6074 10.8841 17.6074 10.5657C17.6074 10.2473 17.3469 9.98675 17.0285 9.98675Z" fill="currentColor"/>
</svg>
