<svg width="24" height="24" viewBox="0 0 24 24" fill="none" xmlns="http://www.w3.org/2000/svg">
<path d="M21.9455 3.55477C21.2855 2.89477 20.4055 2.53003 19.4676 2.53003H1.54916C1.23074 2.53003 0.970215 2.79056 0.970215 3.10898V17.4321C0.970215 17.7506 1.22495 18.0053 1.54337 18.0111L4.28179 18.0458V22.4574C4.28179 22.6774 4.40338 22.8742 4.60022 22.9727C4.68127 23.0132 4.7739 23.0363 4.86074 23.0363C4.98232 23.0363 5.09811 23.0016 5.20232 22.9263L11.9876 18.0053H22.3739C22.6923 18.0053 22.9528 17.7448 22.9528 17.4263L22.9702 6.02687C22.9702 5.10056 22.6055 4.22056 21.9455 3.55477ZM21.795 16.8532H11.8023C11.6807 16.8532 11.5592 16.8937 11.4607 16.9632L5.44548 21.3285V17.4784C5.44548 17.16 5.19074 16.9053 4.87232 16.8995L2.1339 16.8648V3.68792H19.4734C20.0986 3.68792 20.6892 3.93108 21.1292 4.37687C21.5692 4.82266 21.8123 5.4074 21.8123 6.03266L21.795 16.8532Z" fill="currentColor"/>
<path d="M16.5322 5.6563L9.62539 12.5631L7.44855 9.93472C7.24592 9.68577 6.88118 9.65682 6.63223 9.85945C6.38328 10.0621 6.35433 10.4268 6.55697 10.6758L9.13908 13.7905C9.35329 14.051 9.75855 14.0684 9.99591 13.831L17.3485 6.4784C17.5743 6.25261 17.5743 5.88788 17.3485 5.66209C17.1228 5.43051 16.758 5.43051 16.5322 5.6563Z" fill="currentColor"/>
</svg>
