<svg width="24" height="24" viewBox="0 0 24 24" fill="none" xmlns="http://www.w3.org/2000/svg">
<path d="M15.464 7.53699H4.54509C4.2265 7.53699 3.96584 7.79765 3.96584 8.11624C3.96584 8.43483 4.2265 8.69549 4.54509 8.69549H15.464C15.7826 8.69549 16.0432 8.43483 16.0432 8.11624C16.0432 7.79765 15.7884 7.53699 15.464 7.53699Z" fill="currentColor"/>
<path d="M12.811 10.6127H4.54509C4.2265 10.6127 3.96584 10.8733 3.96584 11.1919C3.96584 11.5105 4.2265 11.7712 4.54509 11.7712H12.8052C13.1238 11.7712 13.3845 11.5105 13.3845 11.1919C13.3845 10.8733 13.1296 10.6127 12.811 10.6127Z" fill="currentColor"/>
<path d="M4.54509 5.61383H9.48611C9.8047 5.61383 10.0654 5.35316 10.0654 5.03457C10.0654 4.71599 9.8047 4.45532 9.48611 4.45532H4.54509C4.2265 4.45532 3.96584 4.71599 3.96584 5.03457C3.96584 5.35316 4.2265 5.61383 4.54509 5.61383Z" fill="currentColor"/>
<path d="M21.9747 2.55531C21.3144 1.89496 20.4339 1.53003 19.4955 1.53003H1.57925C1.26066 1.53003 1 1.79069 1 2.10928V16.44C1 16.7586 1.25487 17.0134 1.57346 17.0192L4.31332 17.054V21.4679C4.31332 21.688 4.43497 21.885 4.63191 21.9834C4.71301 22.024 4.80569 22.0471 4.89258 22.0471C5.01422 22.0471 5.13007 22.0124 5.23433 21.9371L12.0232 17.0134H22.415C22.7335 17.0134 22.9942 16.7528 22.9942 16.4342L23 5.02871C23 4.09612 22.6351 3.21565 21.9747 2.55531ZM21.8299 15.8607H11.832C11.7104 15.8607 11.5887 15.9013 11.4903 15.9708L5.47183 20.3384V16.4863C5.47183 16.1677 5.21696 15.9129 4.89837 15.9071L2.1585 15.8665V2.68853H19.4955C20.1211 2.68853 20.712 2.93182 21.1522 3.37784C21.5924 3.82387 21.8357 4.40891 21.8357 5.03451L21.8299 15.8607Z" fill="currentColor"/>
</svg>
