<svg width="24" height="24" viewBox="0 0 24 24" fill="none" xmlns="http://www.w3.org/2000/svg">
<path d="M21.9455 3.55477C21.2855 2.89477 20.4055 2.53003 19.4676 2.53003H1.54916C1.23074 2.53003 0.970215 2.79056 0.970215 3.10898V17.4321C0.970215 17.7506 1.22495 18.0053 1.54338 18.0111L4.28179 18.0458V22.4574C4.28179 22.6774 4.40338 22.8742 4.60022 22.9727C4.68127 23.0132 4.7739 23.0363 4.86074 23.0363C4.98232 23.0363 5.09811 23.0016 5.20232 22.9263L11.9876 18.0053H22.3739C22.6923 18.0053 22.9528 17.7448 22.9528 17.4263L22.9702 6.02687C22.9702 5.10056 22.6055 4.22056 21.9455 3.55477ZM21.795 16.8532H11.8023C11.6807 16.8532 11.5592 16.8937 11.4607 16.9632L5.43969 21.3285V17.4784C5.43969 17.16 5.18495 16.9053 4.86653 16.8995L2.12811 16.8648V3.68792H19.4676C20.0928 3.68792 20.6834 3.93108 21.1234 4.37687C21.5634 4.82266 21.8065 5.4074 21.8065 6.03266L21.795 16.8532Z" fill="currentColor"/>
<path d="M12.5549 5.54051C11.727 5.36683 10.876 5.56946 10.2276 6.0963C9.57916 6.62315 9.20862 7.40472 9.20862 8.23841C9.20862 8.55683 9.46915 8.81736 9.78757 8.81736C10.106 8.81736 10.3665 8.55683 10.3665 8.23841C10.3665 7.75209 10.5807 7.30051 10.957 6.99367C11.3392 6.68104 11.8255 6.57104 12.3176 6.67525C12.9197 6.80262 13.406 7.28893 13.5276 7.88525C13.6723 8.58578 13.3771 9.26893 12.7692 9.62209C11.9181 10.12 11.3855 11.0289 11.3855 12.0016C11.3855 12.32 11.646 12.5805 11.9644 12.5805C12.2828 12.5805 12.5434 12.32 12.5434 12.0016C12.5434 11.44 12.8502 10.9131 13.3481 10.6237C14.3786 10.0274 14.9055 8.82894 14.6623 7.65367C14.4481 6.60578 13.6028 5.76051 12.5549 5.54051Z" fill="currentColor"/>
<path d="M11.9701 13.5127C11.6865 13.5127 11.4549 13.7443 11.4549 14.028C11.4549 14.3116 11.6865 14.5432 11.9701 14.5432C12.2538 14.5432 12.4854 14.3116 12.4854 14.028C12.4796 13.7385 12.2538 13.5127 11.9701 13.5127Z" fill="currentColor"/>
</svg>
