<svg width="24" height="25" viewBox="0 0 24 25" fill="none" xmlns="http://www.w3.org/2000/svg">
<path d="M11.5136 15.5547C13.4762 15.5547 15.0683 13.9568 15.0683 12V9.26158L20.852 3.47789C21.0778 3.25211 21.0778 2.88737 20.852 2.66158C20.6262 2.43579 20.2614 2.43579 20.0357 2.66158L15.0683 7.62316V4.55474C15.0683 2.59789 13.4704 1 11.5136 1C9.55671 1 7.95882 2.59789 7.95882 4.55474V12C7.95882 12.77 8.20776 13.4821 8.63039 14.0668L6.98618 15.7111C5.55039 14.4547 4.64724 12.6195 4.64724 10.57C4.64724 10.2516 4.38671 9.99105 4.06829 9.99105C3.74987 9.99105 3.48934 10.2516 3.48934 10.57C3.48934 12.9379 4.52566 15.0626 6.15829 16.5274L2.16934 20.5163C1.94355 20.7421 1.94355 21.1068 2.16934 21.3326C2.28513 21.4484 2.42987 21.5005 2.58039 21.5005C2.73092 21.5005 2.87566 21.4426 2.99145 21.3326L7.07882 17.2453C8.19618 17.9921 9.51618 18.4553 10.9346 18.5595V21.8421H8.53776C8.21934 21.8421 7.95882 22.1026 7.95882 22.4211C7.95882 22.7395 8.21934 23 8.53776 23H14.4893C14.8078 23 15.0683 22.7395 15.0683 22.4211C15.0683 22.1026 14.8078 21.8421 14.4893 21.8421H12.0925V18.5653C16.2436 18.2642 19.5378 14.8021 19.5378 10.57C19.5378 10.2516 19.2772 9.99105 18.9588 9.99105C18.6404 9.99105 18.3799 10.2516 18.3799 10.57C18.3799 14.3563 15.2999 17.4363 11.5136 17.4363C10.1936 17.4363 8.96618 17.0542 7.91829 16.4116L9.44092 14.8889C10.0257 15.3058 10.7378 15.5547 11.5136 15.5547ZM13.9104 12C13.9104 13.32 12.8336 14.3968 11.5136 14.3968C11.062 14.3968 10.6451 14.2637 10.2862 14.0495L13.9104 10.4195V12ZM9.11092 12V4.55474C9.11092 3.23474 10.1878 2.15789 11.5078 2.15789C12.8278 2.15789 13.9104 3.23474 13.9104 4.55474V8.78105L9.46408 13.2274C9.24408 12.8684 9.11092 12.4516 9.11092 12Z" fill="currentColor"/>
</svg>
