<svg width="24" height="25" viewBox="0 0 24 25" fill="none" xmlns="http://www.w3.org/2000/svg">
<path d="M12.0241 15.5547C13.9868 15.5547 15.5789 13.9568 15.5789 12V4.55474C15.5789 2.59789 13.981 1 12.0241 1C10.0673 1 8.46362 2.59789 8.46362 4.55474V12C8.46362 13.9626 10.0615 15.5547 12.0241 15.5547ZM9.62152 4.55474C9.62152 3.23474 10.6984 2.15789 12.0241 2.15789C13.3441 2.15789 14.421 3.23474 14.421 4.55474V12C14.421 13.32 13.3441 14.3968 12.0241 14.3968C10.7041 14.3968 9.62731 13.32 9.62731 12V4.55474H9.62152Z" fill="currentColor"/>
<path d="M20.0426 10.5699C20.0426 10.2515 19.7821 9.99097 19.4637 9.99097C19.1453 9.99097 18.8847 10.2515 18.8847 10.5699C18.8847 14.3562 15.8047 17.4362 12.0184 17.4362C8.23211 17.4362 5.15789 14.3562 5.15789 10.5699C5.15789 10.2515 4.89737 9.99097 4.57895 9.99097C4.26053 9.99097 4 10.2515 4 10.5699C4 14.7962 7.28842 18.2641 11.4453 18.5652V21.842H9.04263C8.72421 21.842 8.46368 22.1025 8.46368 22.421C8.46368 22.7394 8.72421 22.9999 9.04263 22.9999H15C15.3184 22.9999 15.5789 22.7394 15.5789 22.421C15.5789 22.1025 15.3184 21.842 15 21.842H12.6032V18.5652C16.7542 18.2641 20.0426 14.802 20.0426 10.5699Z" fill="currentColor"/>
</svg>
