<svg width="24" height="25" viewBox="0 0 24 25" fill="none" xmlns="http://www.w3.org/2000/svg">
<path d="M20.7147 13.7965C19.4947 12.5765 17.6414 12.2774 16.0988 13.0457C14.2982 13.949 12.7088 15.2745 11.5006 16.8874L8.21027 21.2686C7.75866 21.8669 7.07831 22.2422 6.32758 22.295C5.58271 22.3537 4.84956 22.078 4.3217 21.5443C3.8349 21.0575 3.56511 20.4064 3.56511 19.7202C3.56511 19.122 3.77625 18.5589 4.15162 18.1015C4.60323 18.3888 5.11936 18.5355 5.63549 18.5355C6.32171 18.5355 7.00792 18.2774 7.54165 17.773C7.55338 17.7671 7.56511 17.7613 7.57684 17.7495C7.5827 17.7437 7.58271 17.7437 7.58271 17.7378C7.58857 17.732 7.59444 17.7261 7.60617 17.7202L13.4478 11.8786C13.8408 11.9666 14.2396 12.0193 14.6443 12.0193C15.9933 12.0193 17.3481 11.5032 18.3745 10.4768C20.4331 8.41817 20.4331 5.0692 18.3745 3.01054C17.3774 2.01348 16.0519 1.46216 14.6443 1.46216C13.2367 1.46216 11.9111 2.01348 10.9141 3.01054C9.57684 4.34779 9.1135 6.21876 9.51232 7.93723L3.67069 13.7789C2.72641 14.7232 2.60323 16.1894 3.30704 17.2686C2.72053 17.949 2.39209 18.8053 2.39209 19.7144C2.39209 20.7173 2.78505 21.6616 3.48886 22.3654C4.19267 23.0692 5.14869 23.4622 6.13989 23.4622C6.22787 23.4622 6.31585 23.4563 6.40969 23.4504C7.49473 23.3742 8.49179 22.8287 9.14282 21.9607L12.4331 17.5795C13.5358 16.1132 14.9786 14.905 16.6208 14.0839C17.7117 13.5384 19.0197 13.7495 19.8818 14.6117C20.2513 14.9812 20.5153 15.4504 20.6326 15.9607C20.8378 16.8287 20.527 17.8141 19.8173 18.5296L17.4126 20.9812C17.1839 21.21 17.1897 21.5853 17.4185 21.8082C17.6472 22.0369 18.0167 22.0369 18.2455 21.8023L20.656 19.3683C21.6472 18.3654 22.0754 16.9636 21.7821 15.7026C21.6062 14.9871 21.2425 14.3243 20.7147 13.7965ZM4.50353 16.8932C4.03432 16.424 3.91702 15.7261 4.15162 15.1454L6.25133 17.2452C5.66482 17.4856 4.97274 17.3683 4.50353 16.8932ZM11.7469 3.84339C12.5211 3.06919 13.5534 2.64105 14.6502 2.64105C15.7469 2.64105 16.7792 3.06919 17.5534 3.84339C19.1546 5.44456 19.1546 8.04867 17.5534 9.64984C15.9522 11.251 13.3481 11.251 11.7469 9.64984C10.1458 8.04867 10.1458 5.44456 11.7469 3.84339ZM10.9141 10.4827C11.3129 10.8815 11.7587 11.1982 12.2337 11.4446L7.16628 16.512L4.88476 14.2305L9.95221 9.16304C10.1985 9.63811 10.5153 10.0839 10.9141 10.4827Z" fill="currentColor"/>
</svg>
