<svg width="25" height="24" viewBox="0 0 25 24" fill="none" xmlns="http://www.w3.org/2000/svg">
<path d="M13.0344 14.0437C10.4523 14.0437 8.35075 11.7106 8.35075 8.84476C8.35075 5.97897 10.4523 3.64581 13.0344 3.64581C15.6165 3.64581 17.7181 5.97897 17.7181 8.84476C17.7181 11.7106 15.6165 14.0437 13.0344 14.0437ZM13.0344 4.79792C11.0892 4.79792 9.50864 6.61002 9.50864 8.83897C9.50864 11.0679 11.0892 12.88 13.0344 12.88C14.9797 12.88 16.5602 11.0679 16.5602 8.83897C16.566 6.61581 14.9797 4.79792 13.0344 4.79792Z" fill="currentColor"/>
<path d="M14.3079 23H13.2079C12.0905 23 11.1758 22.0911 11.1758 20.9679V16.4058C8.15368 15.4853 6 12.3879 6 8.84474C6 4.52 9.15526 1 13.0342 1C16.9132 1 20.0684 4.52 20.0684 8.84474C20.0684 12.3879 17.9147 15.4911 14.8868 16.4116V22.4211C14.8868 22.7395 14.6321 23 14.3079 23ZM13.0342 2.15789C9.7921 2.15789 7.15789 5.15684 7.15789 8.84474C7.15789 12.0232 9.14947 14.7847 11.8879 15.3984C12.1542 15.4563 12.3395 15.6937 12.3395 15.9658V20.9737C12.3395 21.4542 12.7332 21.8479 13.2137 21.8479H13.7347V15.96C13.7347 15.6879 13.92 15.4563 14.1863 15.3926C16.9247 14.7732 18.9163 12.0174 18.9163 8.83895C18.9105 5.15684 16.2763 2.15789 13.0342 2.15789Z" fill="currentColor"/>
</svg>
