<svg width="24" height="24" viewBox="0 0 24 24" fill="none" xmlns="http://www.w3.org/2000/svg">
<path d="M22.4211 4.14001H1.57895C1.26053 4.14001 1 4.40054 1 4.71896V15.279C1 17.1605 2.53421 18.6948 4.41579 18.6948H11.4211V19.459H4.55474C4.23632 19.459 3.97579 19.7195 3.97579 20.0379C3.97579 20.3563 4.23632 20.6169 4.55474 20.6169H19.4395C19.7579 20.6169 20.0184 20.3563 20.0184 20.0379C20.0184 19.7195 19.7579 19.459 19.4395 19.459H12.5789V18.6948H22.4211C22.7395 18.6948 23 18.4342 23 18.1158V4.71896C23 4.40054 22.7395 4.14001 22.4211 4.14001ZM21.8421 17.5426H4.41579C3.17105 17.5426 2.15789 16.5295 2.15789 15.2848V5.29791H21.8421V17.5426Z" fill="currentColor"/>
</svg>
