<svg width="24" height="24" viewBox="0 0 24 24" fill="none" xmlns="http://www.w3.org/2000/svg">
<path d="M17.0931 11.9047V12.7006C17.0931 12.8263 16.9914 12.928 16.8657 12.928H7.37402V13.7958H22.5452V11.9047H17.0931Z" fill="#C9C2EA"/>
<path d="M22.5452 15.9683H7.37402V21.917H22.5452V15.9683Z" fill="#C9C2EA"/>
<path d="M22.7722 11.4438H17.0928V2.22742C17.0928 2.10174 16.991 2 16.8654 2H1.22742C1.10174 2 1 2.10174 1 2.22742V12.6946C1 12.8203 1.10174 12.922 1.22742 12.922H6.90687V22.1324C6.90687 22.2581 7.00861 22.3598 7.13429 22.3598H22.7662C22.8919 22.3598 22.9937 22.2581 22.9937 22.1324V11.6712C23.0056 11.5455 22.9039 11.4438 22.7722 11.4438ZM22.5448 13.7958H7.37367V12.928H16.8654C16.991 12.928 17.0928 12.8263 17.0928 12.7006V11.9046H22.5448V13.7958ZM16.632 4.35198H1.46082V2.46082H16.632V4.35198ZM1.46082 6.52441H16.632V11.6712V11.6952V12.4672H9.32468H7.14027H1.46082V6.52441ZM22.5448 21.911H7.37367V15.9622H22.5448V21.911Z" fill="currentColor"/>
<path d="M21.9888 6.16529H20.1814V5.0282L18.0928 6.39869L20.1814 7.76918V6.63209H21.9888C22.294 6.63209 22.5454 6.88345 22.5454 7.18866V8.96013C22.5454 9.0858 22.6471 9.18754 22.7728 9.18754C22.8985 9.18754 23.0002 9.0858 23.0002 8.96013V7.18866C23.0062 6.62611 22.5514 6.16529 21.9888 6.16529Z" fill="currentColor"/>
<path d="M3.82476 17.7456H2.01739C1.71218 17.7456 1.46082 17.4943 1.46082 17.1891V15.4176C1.46082 15.2919 1.35908 15.1902 1.2334 15.1902C1.10772 15.1902 1 15.2859 1 15.4116V17.1831C1 17.7456 1.45483 18.2005 2.01739 18.2005H3.82476V19.3376L5.91341 17.9671L3.82476 16.6026V17.7456Z" fill="currentColor"/>
</svg>
