<svg width="24" height="24" viewBox="0 0 24 24" fill="none" xmlns="http://www.w3.org/2000/svg">
<path d="M22.8249 16.8606L19.6122 13.6299L21.9855 9.49694C22.0897 9.31648 22.0897 9.09528 21.9855 8.91483L20.4342 6.21385C20.822 5.81801 21.0593 5.28248 21.0593 4.6829C21.0593 3.47794 20.0868 2.5 18.8886 2.5C17.8929 2.5 17.0593 3.18107 16.8046 4.1008H13.6961C13.4877 4.1008 13.2967 4.2114 13.1925 4.39185L10.767 8.61795H8.08683C7.98263 7.51195 7.06223 6.63297 5.93343 6.63297C5.75398 6.63297 5.58032 6.66207 5.41245 6.70282L1.98553 3.25674C1.75977 3.02972 1.39508 3.02972 1.16932 3.25674C0.94356 3.48376 0.94356 3.85049 1.16932 4.07751L4.37626 7.30239C4 7.69822 3.76266 8.22794 3.76266 8.81587C3.76266 9.47947 4.06367 10.0732 4.53256 10.4691L2.83647 13.4262C2.73227 13.6066 2.73227 13.8278 2.83647 14.0083L5.20984 18.1412L2.85384 20.5104C2.62808 20.7374 2.62808 21.1042 2.85384 21.3312C2.96961 21.4476 3.11433 21.5 3.26483 21.5C3.41534 21.5 3.56006 21.4418 3.67583 21.3312L6.17655 18.8165H11.1259C11.3343 18.8165 11.5253 18.7059 11.6295 18.5254L13.1809 15.8244C13.3546 15.871 13.534 15.9001 13.725 15.9001C14.7207 15.9001 15.5543 15.2191 15.809 14.2993H18.6512L22.0087 17.6756C22.1245 17.792 22.2692 17.8444 22.4197 17.8444C22.5702 17.8444 22.7149 17.7862 22.8307 17.6756C23.0564 17.4485 23.0564 17.0818 22.8307 16.8548L22.8249 16.8606ZM17.8755 4.6829C17.8755 4.46752 17.945 4.26379 18.0608 4.1008C18.246 3.83885 18.547 3.66422 18.8886 3.66422C19.4501 3.66422 19.9016 4.12408 19.9016 4.6829C19.9016 4.84007 19.8669 4.97978 19.8032 5.11366C19.6411 5.46293 19.2938 5.70159 18.8886 5.70159C18.8596 5.70159 18.8307 5.69577 18.8017 5.68995C18.4949 5.66085 18.2287 5.50368 18.0608 5.25919C17.945 5.0962 17.8755 4.89246 17.8755 4.67708V4.6829ZM14.0318 5.26501H16.8046C17.0593 6.18474 17.8929 6.86581 18.8886 6.86581C19.0738 6.86581 19.2533 6.8367 19.4327 6.79013L20.8162 9.20588L18.5528 13.1409H15.8032C15.5485 12.2212 14.7149 11.5401 13.7192 11.5401C13.534 11.5401 13.3546 11.5692 13.1809 11.6158C13.1751 11.6158 13.1693 11.6158 13.1635 11.6216L11.7742 9.20006L11.7858 9.1826L14.0376 5.26501H14.0318ZM14.7323 13.723C14.7323 13.9384 14.6628 14.1422 14.547 14.3051C14.3792 14.5438 14.1129 14.7068 13.8061 14.7359C13.7771 14.7359 13.7482 14.7475 13.7192 14.7475C13.314 14.7475 12.9667 14.5031 12.8046 14.1596C12.741 14.0257 12.7062 13.886 12.7062 13.7289C12.7062 13.5833 12.741 13.4436 12.7931 13.3156C12.7931 13.3097 12.7988 13.3039 12.8046 13.2981C12.9667 12.9488 13.314 12.7102 13.7192 12.7102C13.7424 12.7102 13.7598 12.7102 13.7829 12.716C13.7887 12.716 13.8003 12.716 13.8061 12.716C14.1129 12.7451 14.3792 12.9023 14.547 13.1468C14.6628 13.3097 14.7323 13.5135 14.7323 13.7289V13.723ZM4.92041 8.82169C4.92041 8.25705 5.37771 7.803 5.93343 7.803C6.42547 7.803 6.83647 8.15809 6.92909 8.62377C6.94066 8.68781 6.94645 8.75766 6.94645 8.82169C6.94645 9.38634 6.48915 9.84038 5.93343 9.84038C5.60347 9.84038 5.31404 9.67739 5.1288 9.43873C4.99566 9.26991 4.92041 9.05453 4.92041 8.82169ZM10.7902 17.6639H6.26917L4.00579 13.7289L5.58611 10.9755C5.70188 10.993 5.81187 11.0104 5.93343 11.0104C6.78437 11.0104 7.51954 10.5098 7.87265 9.78799H10.7902L12.1737 12.1979C12.1737 12.1979 12.1679 12.2096 12.1621 12.2154C11.7858 12.6112 11.5485 13.1409 11.5485 13.7289C11.5485 14.3168 11.7858 14.864 12.1737 15.2598L10.7902 17.6697V17.6639Z" fill="currentColor"/>
</svg>
