<svg width="24" height="24" viewBox="0 0 24 24" fill="none" xmlns="http://www.w3.org/2000/svg">
<path d="M11.8235 10.2206C10.7291 10.2206 9.83984 11.1098 9.83984 12.2043C9.83984 13.2987 10.7291 14.188 11.8235 14.188C12.918 14.188 13.8072 13.2987 13.8072 12.2043C13.8072 11.1098 12.918 10.2206 11.8235 10.2206Z" fill="currentColor"/>
<path d="M11.8235 23.2C12.9191 23.2 13.8072 22.3119 13.8072 21.2163C13.8072 20.1208 12.9191 19.2327 11.8235 19.2327C10.728 19.2327 9.83984 20.1208 9.83984 21.2163C9.83984 22.3119 10.728 23.2 11.8235 23.2Z" fill="currentColor"/>
<path d="M11.8235 5.16737C12.9191 5.16737 13.8072 4.27924 13.8072 3.18368C13.8072 2.08813 12.9191 1.20001 11.8235 1.20001C10.728 1.20001 9.83984 2.08813 9.83984 3.18368C9.83984 4.27924 10.728 5.16737 11.8235 5.16737Z" fill="currentColor"/>
</svg>
