<svg width="24" height="24" viewBox="0 0 24 24" fill="none" xmlns="http://www.w3.org/2000/svg">
<path d="M19.9528 4.29107C15.6614 -0.000342846 8.68282 -0.000342846 4.39141 4.29107C0.099999 8.58248 0.099999 15.5611 4.39141 19.8525C6.53422 21.9953 9.35462 23.0725 12.175 23.0725C14.9954 23.0725 17.81 22.0011 19.9586 19.8525C24.2443 15.5611 24.2443 8.58248 19.9528 4.29107ZM19.1305 19.0359C15.2908 22.8756 9.04768 22.8756 5.208 19.0359C1.36831 15.1962 1.36831 8.95313 5.208 5.11344C7.12494 3.1965 9.64998 2.23513 12.1692 2.23513C14.6885 2.23513 17.2135 3.1965 19.1305 5.11344C22.9701 8.94733 22.9701 15.1962 19.1305 19.0359Z" fill="currentColor"/>
<path d="M12.1693 10.7311C11.428 10.7311 10.8257 11.3334 10.8257 12.0747C10.8257 12.816 11.428 13.4183 12.1693 13.4183C12.9106 13.4183 13.5129 12.816 13.5129 12.0747C13.5129 11.3334 12.9106 10.7311 12.1693 10.7311Z" fill="currentColor"/>
<path d="M18.2792 10.7311C17.5379 10.7311 16.9355 11.3334 16.9355 12.0747C16.9355 12.816 17.5379 13.4183 18.2792 13.4183C19.0204 13.4183 19.6227 12.816 19.6227 12.0747C19.6227 11.3334 19.0204 10.7311 18.2792 10.7311Z" fill="currentColor"/>
<path d="M6.06527 10.7311C5.32398 10.7311 4.72168 11.3334 4.72168 12.0747C4.72168 12.816 5.32398 13.4183 6.06527 13.4183C6.80657 13.4183 7.40888 12.816 7.40888 12.0747C7.40888 11.3334 6.80657 10.7311 6.06527 10.7311Z" fill="currentColor"/>
</svg>
