<svg width="24" height="24" viewBox="0 0 24 24" fill="none" xmlns="http://www.w3.org/2000/svg">
<path d="M12.2999 9.75C11.205 9.75 10.3154 10.6396 10.3154 11.7344C10.3154 12.8293 11.205 13.7189 12.2999 13.7189C13.3948 13.7189 14.2843 12.8293 14.2843 11.7344C14.2843 10.6396 13.3948 9.75 12.2999 9.75Z" fill="currentColor"/>
<path d="M21.3155 9.75C20.2206 9.75 19.3311 10.6396 19.3311 11.7344C19.3311 12.8293 20.2206 13.7189 21.3155 13.7189C22.4104 13.7189 23.2999 12.8293 23.2999 11.7344C23.2999 10.6396 22.4104 9.75 21.3155 9.75Z" fill="currentColor"/>
<path d="M3.28425 9.75C2.18938 9.75 1.2998 10.6396 1.2998 11.7344C1.2998 12.8293 2.18938 13.7189 3.28425 13.7189C4.37911 13.7189 5.2687 12.8293 5.2687 11.7344C5.2687 10.6396 4.37056 9.75 3.28425 9.75Z" fill="currentColor"/>
</svg>
