<svg width="24" height="24" viewBox="0 0 24 24" fill="none" xmlns="http://www.w3.org/2000/svg">
<path d="M19.9417 4.28388C17.8639 2.20601 15.103 1.06 12.1685 1.06C9.22823 1.06 6.46738 2.20601 4.38951 4.28388C0.100634 8.57275 0.100634 15.5472 4.38951 19.8361C6.46738 21.914 9.22823 23.06 12.1685 23.06C15.1088 23.06 17.8696 21.914 19.9417 19.8361C24.2306 15.5472 24.2306 8.57275 19.9417 4.28388ZM19.1198 19.02C17.2619 20.8779 14.7904 21.9024 12.1627 21.9024C9.53499 21.9024 7.06354 20.8779 5.20561 19.02C1.3682 15.1826 1.3682 8.94318 5.20561 5.10577C7.06354 3.24784 9.53499 2.22337 12.1627 2.22337C14.7904 2.22337 17.2619 3.24784 19.1198 5.10577C22.9572 8.93739 22.9572 15.1826 19.1198 19.02Z" fill="currentColor"/>
<path d="M12.1626 10.7201C11.4218 10.7201 10.8198 11.322 10.8198 12.0629C10.8198 12.8038 11.4218 13.4057 12.1626 13.4057C12.9035 13.4057 13.5054 12.8038 13.5054 12.0629C13.5054 11.322 12.9035 10.7201 12.1626 10.7201Z" fill="currentColor"/>
<path d="M12.1626 19.5062C12.9042 19.5062 13.5054 18.905 13.5054 18.1634C13.5054 17.4218 12.9042 16.8206 12.1626 16.8206C11.421 16.8206 10.8198 17.4218 10.8198 18.1634C10.8198 18.905 11.421 19.5062 12.1626 19.5062Z" fill="currentColor"/>
<path d="M12.1626 7.29941C12.9042 7.29941 13.5054 6.69821 13.5054 5.9566C13.5054 5.21499 12.9042 4.6138 12.1626 4.6138C11.421 4.6138 10.8198 5.21499 10.8198 5.9566C10.8198 6.69821 11.421 7.29941 12.1626 7.29941Z" fill="currentColor"/>
</svg>
