<svg width="24" height="24" viewBox="0 0 24 24" fill="none" xmlns="http://www.w3.org/2000/svg">
<path d="M20.4685 12.3325C19.1308 12.3325 18.0479 13.4212 18.0479 14.7531C18.0479 16.085 19.1366 17.1737 20.4685 17.1737C21.8004 17.1737 22.8891 16.085 22.8891 14.7531C22.8891 13.4212 21.8004 12.3325 20.4685 12.3325ZM20.4685 16.0213C19.7736 16.0213 19.2061 15.4538 19.2061 14.7589C19.2061 14.064 19.7736 13.4964 20.4685 13.4964C21.1634 13.4964 21.7309 14.064 21.7309 14.7589C21.7309 15.4538 21.1634 16.0213 20.4685 16.0213Z" fill="currentColor"/>
<path d="M10.3288 12.1993C8.99112 12.1993 7.9082 13.288 7.9082 14.6199C7.9082 15.9518 8.99691 17.0406 10.3288 17.0406C11.6608 17.0406 12.7495 15.9518 12.7495 14.6199C12.7495 13.288 11.6608 12.1993 10.3288 12.1993ZM10.3288 15.8824C9.63392 15.8824 9.0664 15.3148 9.0664 14.6199C9.0664 13.925 9.63392 13.3575 10.3288 13.3575C11.0238 13.3575 11.5913 13.925 11.5913 14.6199C11.5913 15.3148 11.0238 15.8824 10.3288 15.8824Z" fill="currentColor"/>
<path d="M19.8259 11.9561H21.5169C21.8354 11.9561 22.096 11.6955 22.096 11.377C22.096 11.0584 21.8354 10.7979 21.5169 10.7979H20.8509L19.8433 8.05871C19.7912 7.91393 19.6811 7.79232 19.5364 7.72862C19.3974 7.66492 19.2352 7.65913 19.0905 7.71704L18.7604 7.84444C18.5345 7.31746 18.0133 6.97 17.4342 6.97H16.5656C16.2471 6.97 15.9865 7.2306 15.9865 7.5491C15.9865 7.86761 16.2471 8.1282 16.5656 8.1282H17.4342C17.5327 8.1282 17.6137 8.18611 17.6659 8.26718L17.579 8.30193C17.4342 8.35984 17.3184 8.46987 17.2547 8.60885C17.2084 8.71888 17.2084 8.84049 17.2315 8.95052L16.5482 8.93894C16.1892 8.92736 15.8649 9.00264 15.5464 9.14163L14.8225 9.46013C14.8167 9.46013 14.8109 9.46592 14.8051 9.46592L14.4692 9.61649C14.0986 9.77864 13.6759 9.81338 13.2879 9.70335C12.0833 9.37906 9.82486 8.75942 8.30183 8.27877C8.00649 8.18611 7.69378 8.34247 7.58375 8.62623C7.05677 10.0392 8.30762 10.5778 9.30946 11.0179C9.80169 11.2322 10.3634 11.4754 10.902 11.8229C11.6374 12.5989 12.4076 12.8479 12.8825 12.9289L13.5543 14.7936C13.6353 15.0253 13.8554 15.1758 14.0986 15.1758H16.4324C16.6119 15.1758 16.7856 15.089 16.8957 14.9442L18.7546 12.4888C19.0152 12.1587 19.4148 11.9561 19.8259 11.9561ZM19.6232 10.8152C19.4727 10.8268 19.3279 10.85 19.1831 10.8847L18.6156 9.3501C18.6156 9.3501 18.6156 9.34431 18.6098 9.34431V9.33852L18.5461 9.17637C18.5751 9.17058 18.604 9.17058 18.6272 9.159C18.6561 9.14742 18.6793 9.12425 18.7025 9.11267L18.9573 9.01422L19.6232 10.8152ZM16.1544 14.0176H14.5156L13.8554 12.1877C13.7685 11.9503 13.5369 11.8055 13.2821 11.8055C13.2473 11.8113 12.4771 11.8229 11.7127 10.989C11.6838 10.9542 11.6432 10.9253 11.6085 10.8963C10.9715 10.4678 10.3113 10.184 9.77853 9.95237C9.71483 9.92341 9.65692 9.90025 9.59901 9.87708C10.8441 10.2361 12.1586 10.601 12.9867 10.821C13.4732 10.9542 13.9886 10.9542 14.475 10.8326C14.5214 11.4233 15.0194 11.8924 15.6216 11.8924H17.7585L16.1544 14.0176ZM15.6332 10.7399V10.3751L16.0212 10.2072C16.1834 10.1377 16.3455 10.0971 16.5424 10.1029L17.6775 10.1203L17.9033 10.7342L15.6332 10.7399Z" fill="currentColor"/>
<path d="M6.5127 10.989C6.5127 10.6704 6.25211 10.4099 5.9336 10.4099H1.46875C1.15024 10.4099 0.889648 10.6704 0.889648 10.989C0.889648 11.3075 1.15024 11.5681 1.46875 11.5681H5.9336C6.25211 11.5681 6.5127 11.3075 6.5127 10.989Z" fill="currentColor"/>
<path d="M7.41603 12.0429H2.95117C2.63267 12.0429 2.37207 12.3035 2.37207 12.622C2.37207 12.9405 2.63267 13.2011 2.95117 13.2011H7.41603C7.73453 13.2011 7.99513 12.9405 7.99513 12.622C7.99513 12.3035 7.73453 12.0429 7.41603 12.0429Z" fill="currentColor"/>
<path d="M7.3584 11.7013H7.47422C7.79273 11.7013 8.05332 11.4407 8.05332 11.1222C8.05332 10.8037 7.79273 10.5431 7.47422 10.5431H7.3584C7.03989 10.5431 6.7793 10.8037 6.7793 11.1222C6.7793 11.4407 7.0341 11.7013 7.3584 11.7013Z" fill="currentColor"/>
</svg>
