<svg width="24" height="24" viewBox="0 0 24 24" fill="none" xmlns="http://www.w3.org/2000/svg">
<path d="M4.78586 11.7822C2.87613 11.7822 1.3252 13.3331 1.3252 15.2428C1.3252 17.1526 2.87613 18.7035 4.78586 18.7035C6.69559 18.7035 8.24652 17.1526 8.24652 15.2428C8.24652 13.3389 6.69559 11.7822 4.78586 11.7822ZM4.78586 17.5461C3.51849 17.5461 2.48261 16.5102 2.48261 15.2428C2.48261 13.9755 3.51849 12.9396 4.78586 12.9396C6.05322 12.9396 7.0891 13.9755 7.0891 15.2428C7.0891 16.5102 6.05322 17.5461 4.78586 17.5461Z" fill="currentColor"/>
<path d="M19.403 11.7879C17.4933 11.7879 15.9424 13.3389 15.9424 15.2486C15.9424 17.1583 17.4933 18.7093 19.403 18.7093C21.3128 18.7093 22.8637 17.1583 22.8637 15.2486C22.8637 13.3447 21.3128 11.7879 19.403 11.7879ZM19.403 17.5518C18.1357 17.5518 17.0998 16.516 17.0998 15.2486C17.0998 13.9812 18.1357 12.9453 19.403 12.9453C20.6704 12.9453 21.7063 13.9812 21.7063 15.2486C21.7063 16.516 20.6762 17.5518 19.403 17.5518Z" fill="currentColor"/>
<path d="M18.6628 11.0877H19.0101H21.1339C21.4522 11.0877 21.7126 10.8273 21.7126 10.509C21.7126 10.1907 21.4522 9.9303 21.1339 9.9303H19.4152L17.9626 5.98352C17.8527 5.68259 17.5228 5.53213 17.2219 5.6363L16.9672 5.72889L16.9036 5.55528C16.6374 4.82611 15.9429 4.34 15.1675 4.34H13.9001C13.5818 4.34 13.3214 4.60041 13.3214 4.9187C13.3214 5.23699 13.5818 5.49741 13.9001 5.49741H15.1675C15.4568 5.49741 15.7172 5.67681 15.8156 5.9488L15.8793 6.11662L15.4915 6.25551C15.3469 6.3076 15.2253 6.41755 15.1617 6.56223C15.098 6.7069 15.0922 6.86894 15.1501 7.01362L15.2369 7.23931L13.8712 7.21617C13.4024 7.21038 12.951 7.29718 12.517 7.48816L11.4637 7.95112C11.4522 7.95691 11.4406 7.9627 11.429 7.9627L10.9429 8.17682C10.3411 8.43724 9.66975 8.48932 9.03896 8.3215C7.27391 7.84117 3.97529 6.93839 1.74727 6.23237C1.45213 6.13977 1.13963 6.29602 1.02967 6.57959C0.346798 8.40251 1.90352 9.0796 3.40815 9.73354C4.13154 10.046 4.94751 10.3991 5.74034 10.9141C6.53895 12.2393 7.81211 12.5923 8.69753 12.5923C8.71489 12.5923 8.72647 12.5923 8.74383 12.5923L9.76235 15.4049C9.84336 15.6363 10.0633 15.7868 10.3063 15.7868H13.7149C13.8943 15.7868 14.0679 15.7 14.1779 15.5553L16.892 11.9673C17.3087 11.4176 17.9684 11.0877 18.6628 11.0877ZM18.1941 9.97081C17.98 9.99974 17.7659 10.046 17.5575 10.1155L16.6374 7.63862C16.6374 7.63862 16.6374 7.63283 16.6316 7.63283V7.62705L16.4406 7.15251L16.8168 7.01941L17.0714 6.92681L18.1941 9.97081ZM15.9661 11.2671L13.4256 14.6236H10.7114L9.68134 11.7706C9.58296 11.5044 9.31096 11.3423 9.02739 11.4002C8.96374 11.4118 7.48803 11.6722 6.68942 10.2254C6.64312 10.1444 6.57947 10.075 6.50424 10.0229C5.58988 9.41525 4.68131 9.02173 3.87691 8.66872C2.67899 8.14788 2.1813 7.87589 2.06556 7.54024C4.26464 8.21154 7.13503 8.99858 8.74383 9.4384C9.5193 9.64673 10.3468 9.6178 11.1107 9.35738V9.5715C11.1107 10.3528 11.7473 10.9893 12.5286 10.9893H16.2091C16.1223 11.0819 16.0413 11.1745 15.9661 11.2671ZM12.5228 9.83192C12.3781 9.83192 12.2624 9.71618 12.2624 9.5715V8.86548L12.9857 8.54719C13.2635 8.42566 13.5413 8.36779 13.8538 8.37358L15.6941 8.40251L16.2207 9.82613H12.5228V9.83192Z" fill="currentColor"/>
</svg>
