<svg width="24" height="24" viewBox="0 0 24 24" fill="none" xmlns="http://www.w3.org/2000/svg">
<path d="M19.5205 1H9.01842C8.7 1 8.43947 1.26053 8.43947 1.57895V16.6721C7.65211 15.9311 6.54053 15.4679 5.29579 15.4679C2.92789 15.4679 1 17.1584 1 19.2311C1 21.3037 2.92789 23 5.30158 23C7.67526 23 9.60316 21.3095 9.60316 19.2311C9.60316 19.1558 9.59737 19.0863 9.59158 19.0111C9.59158 18.9879 9.60316 18.9705 9.60316 18.9474V6.98053H21.8421V13.4589C21.0547 12.7179 19.9432 12.2547 18.6984 12.2547C16.3305 12.2547 14.3968 13.9453 14.3968 16.0237C14.3968 18.1021 16.3247 19.7926 18.6984 19.7926C20.9795 19.7926 22.8437 18.2295 22.9826 16.2611C22.9826 16.2379 22.9942 16.2205 22.9942 16.1916V4.71684C23 2.66737 21.4368 1 19.5205 1ZM5.30158 21.8421C3.56474 21.8421 2.15789 20.6726 2.15789 19.2311C2.15789 17.7953 3.56474 16.62 5.30158 16.62C7.03842 16.62 8.44526 17.7895 8.44526 19.2311C8.43947 20.6726 7.03263 21.8421 5.30158 21.8421ZM9.59737 5.82263V2.15789H19.5147C20.8 2.15789 21.8421 3.30421 21.8421 4.71684V5.82842H9.59737V5.82263ZM18.6984 18.6347C16.9674 18.6347 15.5547 17.4653 15.5547 16.0237C15.5547 14.5879 16.9616 13.4126 18.6984 13.4126C20.4353 13.4126 21.8421 14.5879 21.8421 16.0237C21.8421 17.4653 20.4353 18.6347 18.6984 18.6347Z" fill="currentColor"/>
</svg>
