<svg width="24" height="24" viewBox="0 0 24 24" fill="none" xmlns="http://www.w3.org/2000/svg">
<path d="M14.229 21.1252C14.0205 21.1252 13.8237 21.0152 13.7253 20.83L10.0432 14.2068L3.42002 10.5247C3.21738 10.4147 3.10159 10.1947 3.12475 9.96314C3.14791 9.73735 3.29844 9.54051 3.51844 9.46525L19.3121 4.20262C19.5205 4.13314 19.7521 4.18525 19.9026 4.34156C20.0532 4.49788 20.1111 4.72367 20.0416 4.93209L14.779 20.7258C14.7095 20.9458 14.5126 21.0963 14.2811 21.1195C14.2637 21.1252 14.2463 21.1252 14.229 21.1252ZM5.1337 10.1484L10.7495 13.2689C10.8421 13.321 10.9232 13.4021 10.9753 13.4947L14.0958 19.1105L18.5769 5.66735L5.1337 10.1484Z" fill="currentColor"/>
<path d="M22.4211 23.25H4.48527C2.56316 23.25 1 21.6868 1 19.7647V1.82895C1 1.51053 1.26053 1.25 1.57895 1.25H19.5147C21.4368 1.25 23 2.81316 23 4.73526V22.6711C23 22.9895 22.7395 23.25 22.4211 23.25ZM2.15789 2.40789V19.7647C2.15789 21.05 3.2 22.0921 4.48527 22.0921H21.8421V4.73526C21.8421 3.45579 20.8 2.40789 19.5147 2.40789H2.15789Z" fill="currentColor"/>
</svg>
