<svg width="24" height="24" viewBox="0 0 24 24" fill="none" xmlns="http://www.w3.org/2000/svg">
<path d="M19.4447 20.2742C19.3926 20.2742 19.3405 20.2684 19.2884 20.2511L11.9994 18.1669L4.71625 20.2511C4.49625 20.3148 4.25888 20.2395 4.11414 20.0658C3.96941 19.8863 3.94046 19.6432 4.04467 19.4348L11.4899 4.54423C11.6868 4.15054 12.3294 4.15054 12.5263 4.54423L19.9715 19.4348C20.0757 19.6374 20.0468 19.8863 19.902 20.0658C19.7747 20.199 19.6126 20.2742 19.4447 20.2742ZM11.9994 16.9858C12.0515 16.9858 12.1036 16.9916 12.1557 17.009L18.3331 18.7748L11.9994 6.10159L5.65994 18.7748L11.8373 17.009C11.8952 16.9974 11.9473 16.9858 11.9994 16.9858Z" fill="currentColor"/>
<path d="M22.4211 23.25H4.48526C2.56316 23.25 1 21.6868 1 19.7647V1.82895C1 1.51053 1.26053 1.25 1.57895 1.25H19.5147C21.4368 1.25 23 2.81316 23 4.73526V22.6711C23 22.9895 22.7395 23.25 22.4211 23.25ZM2.15789 2.40789V19.7647C2.15789 21.05 3.2 22.0921 4.48526 22.0921H21.8421V4.73526C21.8421 3.45579 20.8 2.40789 19.5147 2.40789H2.15789Z" fill="currentColor"/>
</svg>
