<svg width="24" height="24" viewBox="0 0 24 24" fill="none" xmlns="http://www.w3.org/2000/svg">
<path d="M21.7343 13.5184L17.7806 10.0162V6.62979C17.7806 6.46192 17.7112 6.30563 17.5838 6.19564L12.0556 1.2926C11.8356 1.09578 11.5057 1.09578 11.2857 1.2926L5.75748 6.19564C5.63591 6.30563 5.56066 6.46192 5.56066 6.62979V10.0162L1.60697 13.5184C1.48541 13.6283 1.41016 13.7846 1.41016 13.9525V19.6833C1.41016 21.5878 2.96153 23.145 4.8718 23.145H5.67643H9.36384H13.0512H14.4058H17.6591H21.3465C21.6649 23.145 21.9254 22.8845 21.9254 22.5661V13.9525C21.9311 13.7904 21.8617 13.6283 21.7343 13.5184ZM6.72419 6.89029L11.6735 2.50244L16.6229 6.89029V8.99159L16.2061 8.62111C15.9861 8.42429 15.6562 8.42429 15.4362 8.62111L11.6735 11.9554L7.91088 8.62111C7.69091 8.42429 7.36095 8.42429 7.14098 8.62111L6.72419 8.99159V6.89029ZM2.57947 19.6833V14.213L7.52882 9.82516L12.4782 14.213V21.9872H9.94851V17.6515C9.94851 17.3331 9.68801 17.0726 9.36964 17.0726H5.68222C5.36384 17.0726 5.10335 17.3331 5.10335 17.6515V21.9872H4.87759C3.60986 21.9872 2.57947 20.9511 2.57947 19.6833ZM6.26689 21.9872V18.2304H8.79656V21.9872H6.26689ZM20.7734 21.9872H18.2437V17.6515C18.2437 17.3331 17.9832 17.0726 17.6649 17.0726H15.1005C14.7821 17.0726 14.5216 17.3331 14.5216 17.6515C14.5216 17.9699 14.7821 18.2304 15.1005 18.2304H17.086V21.9872H14.4116H13.6359V13.9525C13.6359 13.7846 13.5665 13.6283 13.4391 13.5184L12.5476 12.7253L15.824 9.81937L20.7734 14.2072V21.9872Z" fill="currentColor"/>
</svg>
