<svg width="24" height="24" viewBox="0 0 24 24" fill="none" xmlns="http://www.w3.org/2000/svg">
<path d="M22.4709 15.8847H18.7077V13.4068C18.7077 12.2489 17.8161 11.3111 16.7219 11.3111H12.6288V8.10947H16.3919C16.7103 8.10947 16.9709 7.84895 16.9709 7.53053V1.57895C16.9709 1.26053 16.7103 1 16.3919 1H7.7077C7.38928 1 7.12875 1.26053 7.12875 1.57895V5.80526C7.12875 7.07895 8.16506 8.11526 9.43875 8.11526H11.4709V11.3168H7.3777C6.28348 11.3168 5.39191 12.2547 5.39191 13.4126V15.9311H1.62875C1.31033 15.9311 1.0498 16.1916 1.0498 16.51V20.4468C1.0498 21.7205 2.08612 22.7568 3.3598 22.7568H10.313C10.6314 22.7568 10.8919 22.4963 10.8919 22.1779V16.51C10.8919 16.1916 10.6314 15.9311 10.313 15.9311H6.5498V13.4126C6.5498 12.8974 6.92033 12.4747 7.3777 12.4747H16.7219C17.1793 12.4747 17.5498 12.8974 17.5498 13.4126V15.8905H13.7866C13.4682 15.8905 13.2077 16.1511 13.2077 16.4695V20.4468C13.2077 21.7205 14.244 22.7568 15.5177 22.7568H22.4709C22.7893 22.7568 23.0498 22.4963 23.0498 22.1779V16.4695C23.0498 16.1453 22.7893 15.8847 22.4709 15.8847ZM8.28665 5.80526V2.15789H15.813V6.95737H9.43875C8.8019 6.95737 8.28665 6.43632 8.28665 5.80526ZM9.73402 21.5932H3.3598C2.72296 21.5932 2.2077 21.0779 2.2077 20.4411V17.0832H9.73402V21.5932ZM21.8919 21.5932H15.5177C14.8809 21.5932 14.3656 21.0779 14.3656 20.4411V17.0426H21.8919V21.5932Z" fill="currentColor"/>
</svg>
