<svg width="24" height="24" viewBox="0 0 24 24" fill="none" xmlns="http://www.w3.org/2000/svg">
<path d="M22.6515 3.3999H6.2731C5.95468 3.3999 5.69415 3.66043 5.69415 3.97885V6.38727H1.80942C1.491 6.38727 1.23047 6.6478 1.23047 6.96622V17.7346C1.23047 19.2862 2.49257 20.5483 4.04415 20.5483C4.0731 20.5483 4.09626 20.5425 4.12521 20.5425C4.14257 20.5425 4.15415 20.5483 4.16573 20.5483H19.751C21.6673 20.5483 23.2305 18.991 23.2305 17.0689V3.98464C23.2305 3.66043 22.9757 3.3999 22.6515 3.3999ZM2.38836 17.7346V7.54517H5.69415V15.4999V17.7346C5.69415 18.6494 4.9531 19.3904 4.03836 19.3904C3.12363 19.3904 2.38836 18.6436 2.38836 17.7346ZM22.0726 17.0689C22.0726 18.3483 21.0305 19.3904 19.751 19.3904H6.30784C6.64942 18.9273 6.85783 18.3541 6.85783 17.7346V15.4999V6.96622V4.5578H22.0784V17.0689H22.0726Z" fill="currentColor"/>
<path d="M9.1561 7.53949H20.185C20.5035 7.53949 20.764 7.27896 20.764 6.96054C20.764 6.64212 20.5035 6.38159 20.185 6.38159H9.1561C8.83767 6.38159 8.57715 6.64212 8.57715 6.96054C8.57715 7.27896 8.83189 7.53949 9.1561 7.53949Z" fill="currentColor"/>
<path d="M9.1561 15.0482H13.6893C14.0077 15.0482 14.2682 14.7877 14.2682 14.4693V9.93613C14.2682 9.6177 14.0077 9.35718 13.6893 9.35718H9.1561C8.83767 9.35718 8.57715 9.6177 8.57715 9.93613V14.4693C8.57715 14.7877 8.83189 15.0482 9.1561 15.0482ZM9.73504 10.5151H13.1103V13.8903H9.73504V10.5151Z" fill="currentColor"/>
<path d="M20.1849 9.35718H15.5301C15.2117 9.35718 14.9512 9.6177 14.9512 9.93613C14.9512 10.2545 15.2117 10.5151 15.5301 10.5151H20.1849C20.5033 10.5151 20.7638 10.2545 20.7638 9.93613C20.7638 9.6177 20.5033 9.35718 20.1849 9.35718Z" fill="currentColor"/>
<path d="M20.1849 11.6211H15.5301C15.2117 11.6211 14.9512 11.8816 14.9512 12.2C14.9512 12.5185 15.2117 12.779 15.5301 12.779H20.1849C20.5033 12.779 20.7638 12.5185 20.7638 12.2C20.7638 11.8816 20.5033 11.6211 20.1849 11.6211Z" fill="currentColor"/>
<path d="M18.6333 13.8904H15.5301C15.2117 13.8904 14.9512 14.1509 14.9512 14.4693C14.9512 14.7877 15.2117 15.0483 15.5301 15.0483H18.6333C18.9517 15.0483 19.2122 14.7877 19.2122 14.4693C19.2122 14.1509 18.9517 13.8904 18.6333 13.8904Z" fill="currentColor"/>
</svg>
