<svg width="24" height="24" viewBox="0 0 24 24" fill="none" xmlns="http://www.w3.org/2000/svg">
<path d="M22.88 1.17183C22.6542 0.946059 22.2895 0.946059 22.0637 1.17183L18.3124 4.92317C17.5251 2.65963 15.1342 1.00395 12.3149 1.00395C8.853 1.00395 6.0395 3.49326 6.0395 6.5499V8.04349H3.53282C3.21442 8.04349 2.95391 8.304 2.95391 8.6224V19.5464C2.95391 19.7722 2.97707 19.998 3.01759 20.2122L1.21718 22.0126C0.991408 22.2383 0.991408 22.6031 1.21718 22.8288C1.33296 22.9446 1.4777 22.9967 1.62821 22.9967C1.77873 22.9967 1.92345 22.9388 2.03923 22.8288L3.48651 21.3816C4.10015 22.3541 5.17692 23.0025 6.41 23.0025H20.9638C21.2822 23.0025 21.5427 22.742 21.5427 22.4236V8.6224C21.5427 8.304 21.2822 8.04349 20.9638 8.04349H18.5903V6.5499C18.5903 6.46306 18.5787 6.38202 18.5787 6.29518L22.8858 1.9881C23.1057 1.76811 23.1058 1.39761 22.88 1.17183ZM7.2031 6.5499C7.2031 4.13006 9.49558 2.16177 12.3207 2.16177C14.8679 2.16177 16.9867 3.77114 17.3687 5.87258L15.1978 8.04349H7.2089V6.5499H7.2031ZM4.11173 9.2013H14.0342L11.6318 11.6038C11.1628 11.8122 10.7866 12.1885 10.5782 12.6574L4.11173 19.1238V9.2013ZM12.4654 12.5821C12.969 12.5821 13.3743 12.9932 13.3743 13.491C13.3743 13.821 13.189 14.1278 12.888 14.2899C12.6564 14.4173 12.5349 14.6836 12.5985 14.9383L13.2064 17.3755H11.7128L12.3207 14.9383C12.3843 14.6836 12.2686 14.4115 12.0312 14.2899C11.7302 14.1278 11.5449 13.8268 11.5449 13.491C11.5449 13.4216 11.5565 13.3579 11.5681 13.2942L12.257 12.6053C12.3322 12.5937 12.3959 12.5821 12.4654 12.5821ZM20.3849 21.8447H6.41C5.49532 21.8447 4.7138 21.3063 4.3433 20.5306L10.5724 14.3015C10.6939 14.5852 10.8734 14.8399 11.1107 15.0425L10.4161 17.8155C10.3697 17.9891 10.4103 18.1744 10.5203 18.3133C10.6303 18.4523 10.7981 18.5333 10.9776 18.5333H13.9532C14.1326 18.5333 14.3005 18.4523 14.4105 18.3133C14.5205 18.1744 14.561 17.9891 14.5147 17.8155L13.82 15.0425C14.2658 14.6546 14.5321 14.0931 14.5321 13.491C14.5321 12.64 14.0169 11.9106 13.2759 11.5922L15.6668 9.2013H20.3791V21.8447H20.3849ZM17.4266 8.04349H16.8246L17.4266 7.44142V8.04349Z" fill="currentColor"/>
</svg>
