<svg width="24" height="24" viewBox="0 0 24 24" fill="none" xmlns="http://www.w3.org/2000/svg">
<path d="M13.0399 7.79284V5.57489L14.7193 6.57673C14.8119 6.63464 14.9162 6.6578 15.0146 6.6578C15.2115 6.6578 15.4026 6.55936 15.5127 6.37405C15.6748 6.10187 15.5879 5.74283 15.31 5.58068L13.5843 4.54988L15.31 3.51908C15.5821 3.35694 15.6748 2.99789 15.5127 2.72572C15.3505 2.45354 14.9915 2.36088 14.7193 2.52303L13.0399 3.53646V1.5791C13.0399 1.26059 12.7793 1 12.4608 1C12.1423 1 11.8817 1.26059 11.8817 1.5791V3.53646L10.2023 2.53461C9.92435 2.37247 9.57109 2.45933 9.40894 2.7373C9.24679 3.00948 9.33366 3.36852 9.61163 3.53067L11.3373 4.56146L9.61163 5.59226C9.33945 5.75441 9.24679 6.11345 9.40894 6.38563C9.51897 6.56515 9.71007 6.66939 9.90697 6.66939C10.0054 6.66939 10.1097 6.64043 10.2023 6.58831L11.8817 5.57489V7.78705C7.94961 8.08239 4.83984 11.3717 4.83984 15.379C4.83984 19.5833 8.25653 23 12.4608 23C16.6651 23 20.0818 19.5833 20.0818 15.379C20.0818 11.3775 16.972 8.08818 13.0399 7.79284ZM12.4608 21.8476C8.89933 21.8476 5.99804 18.9463 5.99804 15.3848C5.99804 11.8234 8.89933 8.92208 12.4608 8.92208C16.0223 8.92208 18.9236 11.8234 18.9236 15.3848C18.9236 18.9463 16.0281 21.8476 12.4608 21.8476Z" fill="currentColor"/>
</svg>
