<svg width="24" height="24" viewBox="0 0 24 24" fill="none" xmlns="http://www.w3.org/2000/svg">
<path d="M19.6091 2.68364H15.7244V1.6589C15.7244 1.34048 15.4639 1.07996 15.1454 1.07996H9.18807C8.86965 1.07996 8.60912 1.34048 8.60912 1.6589V2.68364H4.7186C4.40017 2.68364 4.13965 2.94416 4.13965 3.26259V19.5947C4.13965 21.5168 5.70281 23.08 7.62491 23.08H19.6033C19.9218 23.08 20.1823 22.8194 20.1823 22.501V3.26259C20.1881 2.94416 19.9275 2.68364 19.6091 2.68364ZM9.76702 2.23785H14.5665V4.11943H9.76702V2.23785ZM19.0302 21.9221H7.6307C6.34544 21.9221 5.30333 20.88 5.30333 19.5947V3.84153H8.60912V4.69838C8.60912 5.0168 8.86965 5.27732 9.18807 5.27732H15.1454C15.4639 5.27732 15.7244 5.0168 15.7244 4.69838V3.84153H19.0302V21.9221Z" fill="currentColor"/>
<path d="M7.70053 8.52527C7.38211 8.52527 7.12158 8.78579 7.12158 9.10422C7.12158 9.42264 7.38211 9.68316 7.70053 9.68316H16.6337C16.9521 9.68316 17.2126 9.42264 17.2126 9.10422C17.2126 8.78579 16.9521 8.52527 16.6337 8.52527H7.70053Z" fill="currentColor"/>
<path d="M16.6279 13.7357H7.70053C7.38211 13.7357 7.12158 13.9962 7.12158 14.3147C7.12158 14.6331 7.38211 14.8936 7.70053 14.8936H16.6337C16.9521 14.8936 17.2126 14.6331 17.2126 14.3147C17.2126 13.9962 16.9521 13.7357 16.6279 13.7357Z" fill="currentColor"/>
<path d="M7.70053 12.2884H13.6579C13.9763 12.2884 14.2368 12.0279 14.2368 11.7094C14.2368 11.391 13.9763 11.1305 13.6579 11.1305H7.70053C7.38211 11.1305 7.12158 11.391 7.12158 11.7094C7.12158 12.0279 7.37632 12.2884 7.70053 12.2884Z" fill="currentColor"/>
<path d="M15.14 16.3409H7.70053C7.38211 16.3409 7.12158 16.6015 7.12158 16.9199C7.12158 17.2383 7.38211 17.4988 7.70053 17.4988H15.1458C15.4642 17.4988 15.7247 17.2383 15.7247 16.9199C15.7247 16.6015 15.4642 16.3409 15.14 16.3409Z" fill="currentColor"/>
</svg>
