<svg width="24" height="24" viewBox="0 0 24 24" fill="none" xmlns="http://www.w3.org/2000/svg">
<path d="M3.94824 17C4.12295 17 4.27011 17.0264 4.38965 17.0781C4.50904 17.1298 4.60006 17.2035 4.66211 17.2998C4.72412 17.3962 4.75483 17.5094 4.75488 17.6387C4.75488 17.7398 4.73922 17.8253 4.70703 17.8936C4.67723 17.9615 4.6379 18.0163 4.58984 18.0586C4.54387 18.1009 4.49652 18.1331 4.44824 18.1543C4.39998 18.1731 4.35933 18.1847 4.32715 18.1895V18.2002C4.36846 18.2002 4.41599 18.2082 4.46875 18.2246C4.52153 18.2411 4.57353 18.2681 4.62402 18.3057C4.67453 18.3409 4.71588 18.3907 4.74805 18.4541C4.78249 18.5176 4.79976 18.5965 4.7998 18.6904C4.7998 18.8362 4.7623 18.9625 4.68652 19.0684C4.61297 19.1742 4.51152 19.2566 4.38281 19.3154C4.2542 19.3718 4.10834 19.4003 3.94531 19.4004C3.70189 19.4004 3.49809 19.3521 3.33496 19.2559C3.17412 19.1571 3.06209 19.0133 3 18.8252L3.54492 18.585C3.55642 18.6696 3.57657 18.7383 3.60645 18.79C3.63862 18.8394 3.68154 18.8759 3.73438 18.8994C3.78724 18.9206 3.84966 18.9307 3.9209 18.9307C3.98517 18.9306 4.03938 18.9206 4.08301 18.8994C4.12897 18.8759 4.16417 18.8421 4.18945 18.7998C4.21466 18.7575 4.22754 18.7072 4.22754 18.6484C4.22754 18.5873 4.21474 18.5376 4.18945 18.5C4.16646 18.4625 4.13182 18.4354 4.08594 18.4189C4.0423 18.4025 3.98807 18.3945 3.92383 18.3945C3.89424 18.3945 3.86687 18.3951 3.8418 18.3975C3.81651 18.3975 3.78707 18.4006 3.75488 18.4053V18.0098C3.77327 18.0121 3.79216 18.0142 3.81055 18.0166H3.87598C3.98393 18.0166 4.06048 17.9939 4.10645 17.9492C4.15472 17.9022 4.17969 17.8293 4.17969 17.7305C4.17963 17.6459 4.15466 17.5818 4.10645 17.5371C4.06047 17.4924 3.99521 17.4697 3.91016 17.4697C3.82059 17.4698 3.74688 17.4946 3.68945 17.5439C3.63213 17.591 3.59518 17.672 3.5791 17.7871L3.05859 17.6035C3.0839 17.4742 3.13798 17.3648 3.2207 17.2754C3.30345 17.186 3.40714 17.1174 3.53125 17.0703C3.65759 17.0233 3.79667 17 3.94824 17ZM21 19.4004H6.59961V17H21V19.4004ZM3.90332 11C4.05441 11 4.18468 11.023 4.29395 11.0684C4.40557 11.1113 4.49664 11.1701 4.56641 11.2441C4.63603 11.3157 4.68721 11.3967 4.71973 11.4873C4.75461 11.5757 4.77246 11.6666 4.77246 11.7598C4.77243 11.9125 4.7339 12.0558 4.65723 12.1895C4.58054 12.3207 4.46862 12.4482 4.32227 12.5723C4.17808 12.6941 4.0019 12.8172 3.79492 12.9414V12.9453C3.83438 12.9429 3.88122 12.9409 3.93457 12.9385C3.98806 12.9361 4.0444 12.9346 4.10254 12.9346C4.16059 12.9322 4.21331 12.9307 4.25977 12.9307H4.7998V13.4004H3.07324V13.0059C3.27086 12.8793 3.4396 12.7612 3.5791 12.6514C3.7185 12.5416 3.83099 12.4377 3.91699 12.3398C4.00528 12.242 4.07044 12.1488 4.1123 12.0605C4.15414 11.9722 4.17575 11.8863 4.17578 11.8027C4.17578 11.7121 4.149 11.6368 4.0957 11.5771C4.04456 11.5151 3.9675 11.4834 3.86523 11.4834C3.75593 11.4834 3.67082 11.5258 3.61035 11.6094C3.54998 11.6906 3.51734 11.8103 3.5127 11.9678L3 11.8066C3.00465 11.63 3.04543 11.4817 3.12207 11.3623C3.20114 11.2429 3.30848 11.1535 3.44336 11.0938C3.57817 11.0317 3.73134 11 3.90332 11ZM21 13.4004H6.59961V11H21V13.4004ZM4.2002 7.40039H3.61035V5.8252C3.61271 5.75746 3.61426 5.68832 3.61426 5.61816C3.53619 5.69086 3.45009 5.75578 3.35547 5.81152C3.26079 5.86486 3.16078 5.90053 3.05664 5.91992L3 5.4043C3.06154 5.39945 3.12667 5.38311 3.19531 5.35645C3.26612 5.32985 3.33585 5.29744 3.4043 5.25879C3.4728 5.22008 3.53451 5.17831 3.58887 5.13477C3.64331 5.08871 3.68546 5.04364 3.71387 5H4.2002V7.40039ZM21 7.40039H6.59961V5H21V7.40039Z" fill="#686868"/>
</svg>
