<svg width="24" height="25" viewBox="0 0 24 25" fill="none" xmlns="http://www.w3.org/2000/svg">
<path d="M16.6101 2.66003H7.3899C3.87083 2.66003 1 5.52507 1 9.04993V15.2951C1 18.8142 3.86504 21.685 7.3899 21.685H16.6101C20.1292 21.685 23 18.82 23 15.2951V9.04414C22.9942 5.52507 20.1292 2.66003 16.6101 2.66003ZM21.8366 15.2893C21.8366 18.1717 19.4925 20.5216 16.6043 20.5216H7.38411C4.50171 20.5216 2.1518 18.1775 2.1518 15.2893V9.04414C2.1518 6.16174 4.49592 3.81184 7.38411 3.81184H16.6043C19.4867 3.81184 21.8366 6.15596 21.8366 9.04414V15.2893Z" fill="currentColor"/>
<path d="M6.811 8.5116C5.25983 8.5116 3.99805 9.77337 3.99805 11.3245V13.223C3.99805 14.7742 5.25983 16.0359 6.811 16.0359C8.36217 16.0359 9.62393 14.7742 9.62393 13.223V11.3245C9.61815 9.77337 8.35638 8.5116 6.811 8.5116ZM8.46057 13.223C8.46057 14.1375 7.7197 14.8783 6.80521 14.8783C5.89071 14.8783 5.14986 14.1375 5.14986 13.223V11.3245C5.14986 10.41 5.89071 9.66919 6.80521 9.66919C7.7197 9.66919 8.46057 10.41 8.46057 11.3245V13.223Z" fill="currentColor"/>
<path d="M15.0185 8.6217H11.32C11.0017 8.6217 10.7412 8.88216 10.7412 9.2005V15.4573C10.7412 15.7756 11.0017 16.0361 11.32 16.0361C11.6383 16.0361 11.8988 15.7756 11.8988 15.4573V12.7543H13.531C13.8493 12.7543 14.1098 12.4938 14.1098 12.1755C14.1098 11.8572 13.8493 11.5967 13.531 11.5967H11.8988V9.77929H15.0185C15.3369 9.77929 15.5973 9.51884 15.5973 9.2005C15.5973 8.88216 15.3369 8.6217 15.0185 8.6217Z" fill="currentColor"/>
<path d="M16.5402 8.6217C16.2219 8.6217 15.9614 8.88216 15.9614 9.2005V15.4573C15.9614 15.7756 16.2219 16.0361 16.5402 16.0361C16.8586 16.0361 17.119 15.7756 17.119 15.4573V12.7543H18.7512C19.0696 12.7543 19.33 12.4938 19.33 12.1755C19.33 11.8572 19.0696 11.5967 18.7512 11.5967H17.119V9.77929H20.2387C20.557 9.77929 20.8175 9.51884 20.8175 9.2005C20.8175 8.88216 20.557 8.6217 20.2387 8.6217H16.5402Z" fill="currentColor"/>
</svg>
