<svg width="24" height="24" viewBox="0 0 24 24" fill="none" xmlns="http://www.w3.org/2000/svg">
<path d="M19.4308 7.89474C19.3563 7.88517 19.2806 7.89042 19.2081 7.91019C19.1356 7.92996 19.0678 7.96386 19.0085 8.00995C18.9491 8.05604 18.8995 8.1134 18.8624 8.17873C18.8253 8.24406 18.8015 8.31609 18.7924 8.39065L18.2224 12.7569L9.3758 21.6263L3.80111 16.0516C3.37818 15.6246 3.14092 15.048 3.14092 14.447C3.14092 13.846 3.37818 13.2694 3.80111 12.8424L11.0687 5.5634L15.435 4.99339C15.5862 4.9745 15.7237 4.89632 15.8172 4.77606C15.9107 4.6558 15.9527 4.50331 15.9338 4.35213C15.9149 4.20096 15.8367 4.06348 15.7164 3.96995C15.5962 3.87641 15.4437 3.83448 15.2925 3.85338L10.7324 4.42339C10.6069 4.44023 10.4906 4.49839 10.4018 4.58869L2.9917 11.9988C2.35644 12.6394 2 13.505 2 14.4071C2 15.3092 2.35644 16.1748 2.9917 16.8154L8.9711 22.8347C9.02436 22.8875 9.08753 22.9293 9.15698 22.9577C9.22642 22.986 9.30079 23.0004 9.3758 23C9.45082 23.0004 9.52519 22.986 9.59464 22.9577C9.66408 22.9293 9.72725 22.8875 9.78051 22.8347L19.1914 13.4238C19.2818 13.3359 19.3384 13.2188 19.351 13.0932L19.921 8.53315C19.9404 8.38353 19.8997 8.23231 19.8078 8.11264C19.7159 7.99297 19.5803 7.91461 19.4308 7.89474Z" fill="currentColor"/>
<path d="M22.6575 1.16861C22.6045 1.11518 22.5414 1.07278 22.472 1.04384C22.4025 1.0149 22.328 1 22.2528 1C22.1775 1 22.103 1.0149 22.0335 1.04384C21.9641 1.07278 21.901 1.11518 21.8481 1.16861L15.3214 7.70092C14.9982 7.52712 14.6331 7.44666 14.2667 7.46854C13.9004 7.49042 13.5474 7.61378 13.2472 7.82481C12.947 8.03585 12.7114 8.32625 12.5668 8.66353C12.4222 9.0008 12.3742 9.37166 12.4284 9.73462C12.4825 10.0976 12.6365 10.4383 12.8732 10.7188C13.1099 10.9992 13.42 11.2082 13.7687 11.3225C14.1174 11.4368 14.491 11.4518 14.8478 11.3659C15.2046 11.28 15.5304 11.0965 15.7889 10.836C16.0924 10.5378 16.2896 10.1482 16.3504 9.72705C16.4111 9.30591 16.332 8.87647 16.1252 8.50463L22.6575 1.97802C22.7109 1.92503 22.7533 1.86199 22.7822 1.79253C22.8112 1.72307 22.8261 1.64856 22.8261 1.57331C22.8261 1.49807 22.8112 1.42356 22.7822 1.3541C22.7533 1.28464 22.7109 1.2216 22.6575 1.16861ZM14.9851 10.0323C14.9086 10.1175 14.8154 10.1863 14.7114 10.2344C14.6074 10.2825 14.4946 10.3089 14.3801 10.312C14.2655 10.3151 14.1515 10.2948 14.045 10.2524C13.9386 10.21 13.8419 10.1463 13.7608 10.0652C13.6798 9.9842 13.6161 9.88749 13.5737 9.78103C13.5313 9.67456 13.511 9.56056 13.5141 9.446C13.5171 9.33143 13.5435 9.21869 13.5916 9.11466C13.6397 9.01063 13.7085 8.9175 13.7938 8.84094C13.9461 8.69027 14.1497 8.60272 14.3638 8.59583C14.4748 8.59531 14.5848 8.61669 14.6875 8.65875C14.7902 8.70081 14.8836 8.76272 14.9623 8.84094C15.12 8.99907 15.2086 9.21328 15.2086 9.4366C15.2086 9.65991 15.1428 9.87412 14.9851 10.0323Z" fill="currentColor"/>
</svg>
