<svg width="24" height="25" viewBox="0 0 24 25" fill="none" xmlns="http://www.w3.org/2000/svg">
<path d="M16.6101 2.66003H7.3899C3.87083 2.66003 1 5.52507 1 9.04993V15.2951C1 18.8142 3.86504 21.685 7.3899 21.685H16.6101C20.1292 21.685 23 18.82 23 15.2951V9.04414C22.9942 5.52507 20.1292 2.66003 16.6101 2.66003ZM21.8366 15.2893C21.8366 18.1717 19.4925 20.5216 16.6043 20.5216H7.38411C4.50171 20.5216 2.1518 18.1775 2.1518 15.2893V9.04414C2.1518 6.16174 4.49592 3.81184 7.38411 3.81184H16.6043C19.4867 3.81184 21.8366 6.15596 21.8366 9.04414V15.2893Z" fill="currentColor"/>
<path d="M17.2813 8.52904C16.963 8.52904 16.7025 8.7895 16.7025 9.10783V13.5472L13.5192 8.77213C13.3803 8.55798 13.114 8.46537 12.8709 8.54061C12.6278 8.61586 12.46 8.84159 12.46 9.09626V15.463C12.46 15.7813 12.7204 16.0418 13.0388 16.0418C13.3571 16.0418 13.6176 15.7813 13.6176 15.463V11.0063L16.8009 15.7813C16.9109 15.9434 17.0903 16.0418 17.2813 16.0418C17.3392 16.0418 17.3913 16.036 17.4492 16.0186C17.6923 15.9434 17.8601 15.7177 17.8601 15.463V9.10783C17.8601 8.7895 17.5997 8.52904 17.2813 8.52904Z" fill="currentColor"/>
<path d="M8.94674 8.5116C7.39557 8.5116 6.13379 9.77337 6.13379 11.3245V13.223C6.13379 14.7742 7.39557 16.0359 8.94674 16.0359C10.4979 16.0359 11.7597 14.7742 11.7597 13.223V11.3245C11.7597 9.77337 10.4979 8.5116 8.94674 8.5116ZM10.6021 13.223C10.6021 14.1375 9.86124 14.8783 8.94674 14.8783C8.03225 14.8783 7.29138 14.1375 7.29138 13.223V11.3245C7.29138 10.41 8.03225 9.66919 8.94674 9.66919C9.86124 9.66919 10.6021 10.41 10.6021 11.3245V13.223Z" fill="currentColor"/>
</svg>
