<svg width="24" height="24" viewBox="0 0 24 24" fill="none" xmlns="http://www.w3.org/2000/svg">
<path d="M17.5045 17.5213H5V20.8993C5 22.0561 5.93678 23 7.10065 23H19.6052V19.6219C19.6052 18.458 18.6613 17.5213 17.5045 17.5213ZM18.1858 21.5735H7.10065C6.72452 21.5735 6.41935 21.2684 6.41935 20.8922V18.9335H17.5045C17.8807 18.9335 18.1858 19.2387 18.1858 19.6148V21.5735Z" fill="currentColor"/>
<path d="M12.3022 10.1123C14.8185 10.1123 16.8583 8.07241 16.8583 5.55613C16.8583 3.03985 14.8185 1 12.3022 1C9.78594 1 7.74609 3.03985 7.74609 5.55613C7.74609 8.07241 9.78594 10.1123 12.3022 10.1123Z" fill="currentColor"/>
<path d="M17.0855 15.6904L16.3617 10.2188C15.2475 11.113 13.8352 11.6524 12.2952 11.6524C10.7552 11.6524 9.34295 11.113 8.22876 10.2188L7.50488 15.6904H17.0855Z" fill="currentColor"/>
</svg>
