<svg width="22" height="22" viewBox="0 0 22 22" fill="none" xmlns="http://www.w3.org/2000/svg">
<path d="M11.6252 16.1237C11.631 16.4421 11.8858 16.6969 12.21 16.6969C12.5284 16.6911 12.7831 16.4305 12.7831 16.1121L12.7021 9.87685C12.7021 9.72632 12.6268 9.56422 12.5168 9.46001C12.4126 9.36159 12.2679 9.30369 12.1231 9.30369L5.8184 9.29211C5.49998 9.29211 5.23946 9.55264 5.23946 9.87106C5.23946 10.1895 5.49998 10.45 5.8184 10.45L10.7279 10.4558L0.167877 21.01C-0.0579122 21.2358 -0.0579122 21.6005 0.167877 21.8263C0.283667 21.9421 0.428404 22 0.57893 22C0.729456 22 0.874193 21.9421 0.989983 21.8321L11.5616 11.2605L11.6252 16.1237Z" fill="currentColor"/>
<path d="M18.5263 0H0.578917C0.260496 0 -3.05176e-05 0.260526 -3.05176e-05 0.578947V15.4753C-3.05176e-05 15.7937 0.260496 16.0542 0.578917 16.0542C0.897338 16.0542 1.15786 15.7937 1.15786 15.4753V1.15789H18.5263C19.8 1.15789 20.8421 2.19421 20.8421 3.47368V20.8421H6.48997C6.17155 20.8421 5.91102 21.1026 5.91102 21.4211C5.91102 21.7395 6.17155 22 6.48997 22H21.421C21.7394 22 22 21.7395 22 21.4211V3.47368C22 1.55737 20.4426 0 18.5263 0Z" fill="currentColor"/>
</svg>
