<svg width="24" height="25" viewBox="0 0 24 25" fill="none" xmlns="http://www.w3.org/2000/svg">
<path d="M22.7187 6.07617H21.4641V4.74566C21.4641 4.42471 21.2015 4.16211 20.8805 4.16211H15.3776C14.0879 4.16211 12.9558 4.8332 12.3022 5.84858C11.6487 4.83903 10.5166 4.16211 9.22692 4.16211H3.72399C3.40304 4.16211 3.14044 4.42471 3.14044 4.74566V6.07617H1.8858C1.56485 6.07617 1.30225 6.33877 1.30225 6.65972V19.7372C1.30225 20.0581 1.56485 20.3207 1.8858 20.3207H12.3081H22.7187C23.0396 20.3207 23.3022 20.0581 23.3022 19.7372V6.65972C23.3022 6.33877 23.0396 6.07617 22.7187 6.07617ZM15.3776 5.32922H20.2969V17.2396H12.88V7.821C12.88 6.44964 14.0004 5.32922 15.3776 5.32922ZM4.30172 5.32922H9.22108C10.5983 5.32922 11.7129 6.44964 11.7129 7.821V17.2396H8.62002H6.81683C5.42797 17.2396 4.30172 16.1075 4.30172 14.7244V5.32922ZM2.46351 7.24328H3.13461V14.7244C3.13461 16.7552 4.78606 18.4067 6.81683 18.4067H8.62002C9.13938 18.4067 10.7617 18.5526 11.4269 19.1536H2.46351V7.24328ZM22.1351 19.1536H13.1659C13.802 18.5642 15.3484 18.4067 15.9786 18.4067H20.8805C21.2015 18.4067 21.4641 18.1441 21.4641 17.8231V7.24328H22.1351V19.1536Z" fill="currentColor"/>
<path d="M14.2805 8.05444H19.1299C19.4508 8.05444 19.7134 7.79184 19.7134 7.47088C19.7134 7.14993 19.4508 6.88733 19.1299 6.88733H14.2805C13.9596 6.88733 13.697 7.14993 13.697 7.47088C13.697 7.79184 13.9537 8.05444 14.2805 8.05444Z" fill="currentColor"/>
<path d="M14.2805 10.4003H18.3245C18.6455 10.4003 18.9081 10.1377 18.9081 9.81671C18.9081 9.49575 18.6455 9.23315 18.3245 9.23315H14.2805C13.9596 9.23315 13.697 9.49575 13.697 9.81671C13.697 10.1377 13.9537 10.4003 14.2805 10.4003Z" fill="currentColor"/>
<path d="M5.46875 8.05444H10.3181C10.639 8.05444 10.9016 7.79184 10.9016 7.47088C10.9016 7.14993 10.639 6.88733 10.3181 6.88733H5.46875C5.14779 6.88733 4.88519 7.14993 4.88519 7.47088C4.88519 7.79184 5.14779 8.05444 5.46875 8.05444Z" fill="currentColor"/>
<path d="M10.3182 9.23315H6.27417C5.95321 9.23315 5.69061 9.49575 5.69061 9.81671C5.69061 10.1377 5.95321 10.4003 6.27417 10.4003H10.3182C10.6392 10.4003 10.9017 10.1377 10.9017 9.81671C10.9017 9.49575 10.645 9.23315 10.3182 9.23315Z" fill="currentColor"/>
</svg>
