<svg width="24" height="24" viewBox="0 0 24 24" fill="none" xmlns="http://www.w3.org/2000/svg">
<path d="M16.7648 18.2835H6V21.1916C6 22.1874 6.80644 23 7.80839 23H18.5732V20.0919C18.5671 19.09 17.7606 18.2835 16.7648 18.2835ZM17.3452 21.772H7.80839C7.48459 21.772 7.22188 21.5093 7.22188 21.1855V19.4993H16.7648C17.0886 19.4993 17.3513 19.762 17.3513 20.0858V21.772H17.3452Z" fill="currentColor"/>
<path d="M9.64776 10.8668H14.9263L16.2459 8.85678H8.32812L9.64776 10.8668Z" fill="currentColor"/>
<path d="M10.1239 7.70203L10.3133 8.06859H14.2477L14.4677 7.6226C15.042 6.46181 14.8159 5.06276 13.9056 4.14635L12.3966 2.6251C12.7937 2.57012 13.1053 2.24021 13.1053 1.82477C13.1053 1.37267 12.7387 1 12.2805 1C11.8223 1 11.4557 1.36656 11.4557 1.82477C11.4557 2.24021 11.7673 2.57012 12.1705 2.6251L10.631 4.22577C9.74511 5.1544 9.53739 6.55346 10.1239 7.70203Z" fill="currentColor"/>
<path d="M12.2865 16.7256H16.447L14.9196 12.0152H12.2865H9.65333L8.12598 16.7256H12.2865Z" fill="currentColor"/>
</svg>
