<svg width="24" height="24" viewBox="0 0 24 24" fill="none" xmlns="http://www.w3.org/2000/svg">
<path d="M14.0205 8.80264C14.0147 8.79106 14.0147 8.77948 14.0089 8.76212C14.0032 8.75633 14.0032 8.74475 14.0032 8.73896L12.3011 5.33475C12.2026 5.13791 12 5.01633 11.7858 5.01633H3.27526C3.05526 5.01633 2.85263 5.13791 2.76 5.33475L1.0579 8.73896C1.05211 8.74475 1.05211 8.75633 1.05211 8.76212C1.04632 8.7737 1.04632 8.78527 1.04053 8.80264C1.01737 8.86054 1.00579 8.91843 1.00579 8.97633C1.00579 8.98212 1 8.9937 1 8.99948V9.56685C1 10.3195 1.33 10.9911 1.85105 11.46V15.8311C1.85105 17.0758 2.86421 18.089 4.10895 18.089H6.09474H8.98368H12.6426C12.9611 18.089 13.2216 17.8284 13.2216 17.51V11.46C13.7426 10.9911 14.0726 10.3195 14.0726 9.56685V8.99948C14.0726 8.9937 14.0668 8.98212 14.0668 8.97633C14.0553 8.91843 14.0437 8.86054 14.0205 8.80264ZM11.4963 10.9737C10.7263 10.9737 10.0953 10.3484 10.0895 9.57843H12.8974C12.8974 10.3484 12.2721 10.9737 11.4963 10.9737ZM2.15211 9.57843H4.96C4.95421 10.3484 4.32895 10.9737 3.55316 10.9737C2.78895 10.9737 2.1579 10.3484 2.15211 9.57843ZM8.88526 8.42054H6.17579L6.36105 6.17422H8.7L8.88526 8.42054ZM8.93158 9.57843C8.92579 10.3484 8.30053 10.9737 7.52474 10.9737C6.74895 10.9737 6.12368 10.3484 6.11789 9.57843H8.93158ZM12.5442 8.42054H10.0432L9.8579 6.17422H11.4211L12.5442 8.42054ZM3.63421 6.18001H5.19737L5.01211 8.42633H2.51105L3.63421 6.18001ZM6.66211 16.9311V13.8337H8.39316V16.9311H6.66211ZM12.0521 16.9311H9.55105V13.2547C9.55105 12.9363 9.29053 12.6758 8.97211 12.6758H6.08316C5.76474 12.6758 5.50421 12.9363 5.50421 13.2547V16.9311H4.09737C3.48948 16.9311 2.99737 16.439 2.99737 15.8311V12.0679C3.17684 12.1084 3.36211 12.1316 3.55316 12.1316C4.35789 12.1316 5.07 11.7495 5.53895 11.1705C6.00789 11.7495 6.72 12.1316 7.52474 12.1316C8.32947 12.1316 9.04158 11.7495 9.51053 11.1705C9.97947 11.7495 10.6916 12.1316 11.4963 12.1316C11.6874 12.1316 11.8726 12.1084 12.0521 12.0679V16.9311Z" fill="currentColor"/>
<path d="M18.8663 12.1316C19.1211 13.0116 19.9258 13.6658 20.8868 13.6658C22.0505 13.6658 23 12.7163 23 11.5526C23 10.3889 22.0505 9.43947 20.8868 9.43947C19.9258 9.43947 19.1211 10.0879 18.8663 10.9737H17.0426V4.69211H18.8663C19.1211 5.57211 19.9258 6.22632 20.8868 6.22632C22.0505 6.22632 23 5.27684 23 4.11316C23 2.94947 22.0505 2 20.8868 2C19.9258 2 19.1211 2.64842 18.8663 3.53421H16.4637C16.1453 3.53421 15.8847 3.79474 15.8847 4.11316V10.9737H14.9758C14.6574 10.9737 14.3969 11.2342 14.3969 11.5526C14.3969 11.8711 14.6574 12.1316 14.9758 12.1316H15.8847V18.9979C15.8847 19.3163 16.1453 19.5768 16.4637 19.5768H18.8663C19.1211 20.4568 19.9258 21.1111 20.8868 21.1111C22.0505 21.1111 23 20.1616 23 18.9979C23 17.8342 22.0505 16.8847 20.8868 16.8847C19.9258 16.8847 19.1211 17.5332 18.8663 18.4189H17.0426V12.1316H18.8663ZM20.8868 3.15789C21.4137 3.15789 21.8421 3.58632 21.8421 4.11316C21.8421 4.64 21.4137 5.06842 20.8868 5.06842C20.36 5.06842 19.9316 4.64 19.9316 4.11316C19.9316 3.58632 20.36 3.15789 20.8868 3.15789ZM20.8868 18.0426C21.4137 18.0426 21.8421 18.4711 21.8421 18.9979C21.8421 19.5247 21.4079 19.9474 20.8868 19.9474C20.3658 19.9474 19.9316 19.5189 19.9316 18.9921C19.9316 18.4653 20.36 18.0426 20.8868 18.0426ZM20.8868 10.6032C21.4137 10.6032 21.8421 11.0316 21.8421 11.5584C21.8421 12.0853 21.4137 12.5137 20.8868 12.5137C20.36 12.5137 19.9316 12.0853 19.9316 11.5584C19.9316 11.0316 20.36 10.6032 20.8868 10.6032Z" fill="currentColor"/>
</svg>
