<svg width="24" height="24" viewBox="0 0 24 24" fill="none" xmlns="http://www.w3.org/2000/svg">
<path d="M11.8053 17.1585C11.9153 17.2685 12.0658 17.3206 12.2106 17.3206C12.3611 17.3206 12.5058 17.2627 12.6216 17.1527L15.7653 14.0206C15.9911 13.7948 15.9911 13.4301 15.7653 13.2043C15.5395 12.9785 15.1748 12.9785 14.949 13.2043L12.7953 15.3522V7.85483C12.7953 7.53641 12.5348 7.27588 12.2164 7.27588C11.8979 7.27588 11.6374 7.53641 11.6374 7.85483V15.3696L9.47794 13.268C9.25215 13.048 8.88162 13.048 8.66162 13.2796C8.44162 13.5111 8.44163 13.8759 8.67321 14.0959L11.8053 17.1585Z" fill="currentColor"/>
<path d="M22.591 2.76001H1.74887C1.43045 2.76001 1.16992 3.02054 1.16992 3.33896V10.7842C1.16992 11.1026 1.43045 11.3632 1.74887 11.3632H5.6336V16.8111C5.6336 18.7332 7.19675 20.2963 9.11886 20.2963H18.1273C18.4457 20.2963 18.7062 20.0358 18.7062 19.7174V11.3632H22.591C22.9094 11.3632 23.1699 11.1026 23.1699 10.7842V3.33896C23.1699 3.02054 22.9094 2.76001 22.591 2.76001ZM5.6336 8.30054H4.22676V5.81685H5.6336V8.30054ZM17.5426 19.1326H9.11886C7.83938 19.1326 6.7915 18.0905 6.7915 16.8053V5.81107H17.5426V19.1326ZM22.012 10.2053H18.7062V9.46422H20.692C21.0104 9.46422 21.271 9.2037 21.271 8.88527V5.2437C21.271 4.92528 21.0104 4.66475 20.692 4.66475H20.4026H18.2952H6.05622H4.65518H3.65939C3.34097 4.66475 3.08044 4.92528 3.08044 5.2437V8.88527C3.08044 9.2037 3.34097 9.46422 3.65939 9.46422H5.64517V10.2053H2.33939V3.9179H4.66097H20.4083H22.0236V10.2053H22.012ZM18.7004 8.30054V5.81685H20.1073V8.30054H18.7004Z" fill="currentColor"/>
</svg>
