<svg width="24" height="24" viewBox="0 0 24 24" fill="none" xmlns="http://www.w3.org/2000/svg">
<path d="M11.9502 1.07001C5.88283 1.07001 0.950195 6.00264 0.950195 12.07C0.950195 18.1374 5.88283 23.07 11.9502 23.07C18.0176 23.07 22.9502 18.1374 22.9502 12.07C22.9502 6.00264 18.0176 1.07001 11.9502 1.07001ZM11.9502 21.9121C6.52546 21.9121 2.10809 17.4947 2.10809 12.07C2.10809 6.64527 6.52546 2.2279 11.9502 2.2279C17.3749 2.2279 21.7923 6.64527 21.7923 12.07C21.7923 17.4947 17.3749 21.9121 11.9502 21.9121Z" fill="currentColor"/>
<path d="M17.1201 9.53421L11.9501 14.7042L6.78009 9.53421C6.5543 9.30842 6.18957 9.30842 5.96378 9.53421C5.73799 9.76 5.73799 10.1247 5.96378 10.3505L11.5448 15.9258C11.6606 16.0416 11.8054 16.0937 11.9559 16.0937C12.1064 16.0937 12.2511 16.0358 12.3669 15.9258L17.9422 10.3505C18.168 10.1247 18.168 9.76 17.9422 9.53421C17.7164 9.30842 17.3459 9.30842 17.1201 9.53421Z" fill="currentColor"/>
</svg>
