<svg width="24" height="24" viewBox="0 0 24 24" fill="none" xmlns="http://www.w3.org/2000/svg">
<path d="M11.8799 1.07001C5.81251 1.07001 0.879883 6.00264 0.879883 12.07C0.879883 18.1374 5.81251 23.07 11.8799 23.07C17.9473 23.07 22.8799 18.1374 22.8799 12.07C22.8799 6.00264 17.9473 1.07001 11.8799 1.07001ZM11.8799 21.9121C6.45515 21.9121 2.03778 17.4947 2.03778 12.07C2.03778 6.64527 6.45515 2.2279 11.8799 2.2279C17.3046 2.2279 21.722 6.64527 21.722 12.07C21.722 17.4947 17.3046 21.9121 11.8799 21.9121Z" fill="currentColor"/>
<path d="M10.1663 6.07791C9.94053 5.85212 9.5758 5.85212 9.35001 6.07791C9.12422 6.3037 9.12422 6.66843 9.35001 6.89422L14.52 12.0642L9.35001 17.2342C9.12422 17.46 9.12422 17.8247 9.35001 18.0505C9.4658 18.1663 9.61053 18.2184 9.76106 18.2184C9.91159 18.2184 10.0563 18.1605 10.1721 18.0505L15.7474 12.4695C15.9732 12.2437 15.9732 11.879 15.7474 11.6532L10.1663 6.07791Z" fill="currentColor"/>
</svg>
