<svg width="24" height="24" viewBox="0 0 24 24" fill="none" xmlns="http://www.w3.org/2000/svg">
<path d="M12 1.07001C5.93263 1.07001 1 6.00264 1 12.07C1 18.1374 5.93263 23.07 12 23.07C18.0674 23.07 23 18.1374 23 12.07C23 6.00264 18.0674 1.07001 12 1.07001ZM12 21.9121C6.57526 21.9121 2.15789 17.4947 2.15789 12.07C2.15789 6.64527 6.57526 2.2279 12 2.2279C17.4247 2.2279 21.8421 6.64527 21.8421 12.07C21.8421 17.4947 17.4305 21.9121 12 21.9121Z" fill="currentColor"/>
<path d="M14.536 6.07791C14.3102 5.85212 13.9454 5.85212 13.7197 6.07791L8.1386 11.659C8.0286 11.769 7.9707 11.9137 7.9707 12.07C7.9707 12.2263 8.03439 12.3711 8.1386 12.4811L13.7197 18.0621C13.8354 18.1779 13.9802 18.23 14.1307 18.23C14.2812 18.23 14.426 18.1721 14.5418 18.0621C14.7675 17.8363 14.7675 17.4716 14.5418 17.2458L9.37176 12.0758L14.5418 6.9058C14.7618 6.67422 14.7618 6.3037 14.536 6.07791Z" fill="currentColor"/>
</svg>
