<svg width="24" height="24" viewBox="0 0 24 24" fill="none" xmlns="http://www.w3.org/2000/svg">
<path d="M11.9502 1.07001C5.88283 1.07001 0.950195 6.00264 0.950195 12.07C0.950195 18.1374 5.88283 23.07 11.9502 23.07C18.0176 23.07 22.9502 18.1374 22.9502 12.07C22.9502 6.00264 18.0176 1.07001 11.9502 1.07001ZM11.9502 21.9121C6.52546 21.9121 2.10809 17.4947 2.10809 12.07C2.10809 6.64527 6.52546 2.2279 11.9502 2.2279C17.3749 2.2279 21.7923 6.64527 21.7923 12.07C21.7923 17.4947 17.3749 21.9121 11.9502 21.9121Z" fill="currentColor"/>
<path d="M12.3617 8.20843C12.1417 7.98843 11.7596 7.98843 11.5454 8.20843L5.97012 13.7895C5.74433 14.0153 5.74433 14.38 5.97012 14.6058C6.19591 14.8316 6.56065 14.8316 6.78644 14.6058L11.9564 9.43579L17.1264 14.6058C17.2422 14.7216 17.387 14.7737 17.5375 14.7737C17.688 14.7737 17.8328 14.7158 17.9485 14.6058C18.1743 14.38 18.1743 14.0153 17.9485 13.7895L12.3617 8.20843Z" fill="currentColor"/>
</svg>
