<svg width="24" height="24" viewBox="0 0 24 24" fill="none" xmlns="http://www.w3.org/2000/svg">
<path d="M8.39518 21.8008H4.22343C2.94471 21.8008 1.89744 20.7594 1.89744 19.4749V2.15721H15.5236C16.7849 2.15721 17.8091 3.18134 17.8091 4.4427V8.6723C17.8091 8.99054 18.0695 9.25091 18.3877 9.25091C18.7059 9.25091 18.9663 8.99054 18.9663 8.6723V4.4427C18.9663 2.54488 17.4214 1 15.5236 1H1.31884C1.00061 1 0.740234 1.26037 0.740234 1.5786V19.4749C0.740234 21.3958 2.30246 22.9581 4.22343 22.9581H8.39518C8.71341 22.9581 8.97378 22.6977 8.97378 22.3795C8.97378 22.0612 8.71919 21.8008 8.39518 21.8008Z" fill="currentColor"/>
<path d="M20.3319 10.0262C20.1062 9.80052 19.7417 9.80052 19.5161 10.0262L18.0464 11.4958C17.9365 11.6058 17.8786 11.7504 17.8786 11.9066C17.8786 12.0629 17.9422 12.2075 18.0464 12.3175L21.0436 15.3146C21.1593 15.4303 21.3039 15.4824 21.4544 15.4824C21.6048 15.4824 21.7495 15.4246 21.8652 15.3146L22.033 15.1468C22.9761 14.2037 22.9761 12.6704 22.033 11.7215L20.3319 10.0262ZM21.4139 14.0475L19.2672 11.9009L19.9211 11.247L21.2056 12.5315C21.6164 12.9481 21.6858 13.5672 21.4139 14.0475Z" fill="currentColor"/>
<path d="M19.9383 15.5462L14.1175 21.3669L11.6989 21.6331L11.9651 19.2145L17.7859 13.3938C18.0115 13.1681 18.0115 12.8036 17.7859 12.5779C17.5602 12.3523 17.1957 12.3523 16.97 12.5779L11.0046 18.5434C10.912 18.6359 10.8542 18.7574 10.8368 18.8905L10.4665 22.2291C10.4492 22.4026 10.507 22.5762 10.6343 22.7035C10.7442 22.8135 10.8889 22.8713 11.0451 22.8713C11.0683 22.8713 11.0856 22.8713 11.1088 22.8655L14.4473 22.4952C14.5804 22.4779 14.7019 22.42 14.7945 22.3274L20.7599 16.362C20.9855 16.1364 20.9855 15.7718 20.7599 15.5462C20.5342 15.3205 20.1639 15.3205 19.9383 15.5462Z" fill="currentColor"/>
<path d="M12.8447 20.4816C12.9605 20.5974 13.1051 20.6494 13.2555 20.6494C13.406 20.6494 13.5506 20.5916 13.6664 20.4816L19.273 14.875C19.4987 14.6493 19.4987 14.2848 19.273 14.0591C19.0474 13.8335 18.6829 13.8335 18.4572 14.0591L12.8505 19.6658C12.6191 19.8915 12.6191 20.256 12.8447 20.4816Z" fill="currentColor"/>
<path d="M12.5669 4.80725H3.6101C3.29187 4.80725 3.03149 5.06762 3.03149 5.38586C3.03149 5.70409 3.29187 5.96446 3.6101 5.96446H12.5669C12.8851 5.96446 13.1455 5.70409 13.1455 5.38586C13.1455 5.06762 12.8851 4.80725 12.5669 4.80725Z" fill="currentColor"/>
<path d="M12.5669 8.10535H3.6101C3.29187 8.10535 3.03149 8.36572 3.03149 8.68395C3.03149 9.00218 3.29187 9.26256 3.6101 9.26256H12.5669C12.8851 9.26256 13.1455 9.00218 13.1455 8.68395C13.1455 8.36572 12.8851 8.10535 12.5669 8.10535Z" fill="currentColor"/>
<path d="M9.84168 11.3975H3.6101C3.29187 11.3975 3.03149 11.6578 3.03149 11.9761C3.03149 12.2943 3.29187 12.5547 3.6101 12.5547H9.83589C10.1541 12.5547 10.4145 12.2943 10.4145 11.9761C10.4145 11.6578 10.1599 11.3975 9.84168 11.3975Z" fill="currentColor"/>
</svg>
