<svg width="24" height="24" viewBox="0 0 24 24" fill="none" xmlns="http://www.w3.org/2000/svg">
<path d="M21.5035 1H5.12504C4.80662 1 4.54609 1.26053 4.54609 1.57895V15.8847H2.14926C1.83084 15.8847 1.57031 16.1453 1.57031 16.4637V19.5089C1.57031 21.4311 3.24346 23 5.30451 23H19.2687C20.8203 23 22.0824 21.7379 22.0824 20.1863V18.9763V18.6289V1.57895C22.0824 1.26053 21.8219 1 21.5035 1ZM5.30451 21.8421C3.88609 21.8421 2.72821 20.7942 2.72821 19.5089V17.0426H16.455V20.1863C16.455 20.8058 16.6577 21.3732 16.9935 21.8421H5.30451ZM20.9245 20.1921C20.9245 21.1068 20.1835 21.8479 19.2687 21.8479C18.354 21.8479 17.6129 21.1068 17.6129 20.1921V16.4695C17.6129 16.1511 17.3524 15.8905 17.034 15.8905H5.70399V2.15789H20.9245V18.6347V18.9821V20.1921Z" fill="currentColor"/>
<path d="M18.0997 3.97583H7.03598C6.71756 3.97583 6.45703 4.23636 6.45703 4.55478C6.45703 4.8732 6.71756 5.13372 7.03598 5.13372H18.0997C18.4181 5.13372 18.6786 4.8732 18.6786 4.55478C18.6786 4.23636 18.4181 3.97583 18.0997 3.97583Z" fill="currentColor"/>
<path d="M18.0997 6.96899H7.03598C6.71756 6.96899 6.45703 7.22952 6.45703 7.54794C6.45703 7.86636 6.71756 8.12689 7.03598 8.12689H18.0997C18.4181 8.12689 18.6786 7.86636 18.6786 7.54794C18.6786 7.22952 18.4181 6.96899 18.0997 6.96899Z" fill="currentColor"/>
<path d="M13.6761 9.9563H7.04135C6.72293 9.9563 6.4624 10.2168 6.4624 10.5352C6.4624 10.8537 6.72293 11.1142 7.04135 11.1142H13.6761C13.9945 11.1142 14.255 10.8537 14.255 10.5352C14.255 10.2168 13.9945 9.9563 13.6761 9.9563Z" fill="currentColor"/>
</svg>
