<svg width="24" height="24" viewBox="0 0 24 24" fill="none" xmlns="http://www.w3.org/2000/svg">
<path d="M17.8115 1C19.713 1 21.2607 2.5478 21.2607 4.44922V22.4199C21.2607 22.7386 21.0003 22.9997 20.6816 23H6.49023C4.5656 23 3 21.4344 3 19.5098V1.58008C3 1.26124 3.26124 1 3.58008 1H17.8115ZM4.15918 19.5098C4.15918 20.7967 5.20328 21.8408 6.49023 21.8408H20.1016V4.44922C20.1015 3.18548 19.0753 2.15918 17.8115 2.15918H4.15918V19.5098ZM12.3799 11.417C12.6987 11.417 12.96 11.6782 12.96 11.9971C12.96 12.3159 12.6987 12.5771 12.3799 12.5771H6.14258C5.82374 12.5771 5.5625 12.3159 5.5625 11.9971C5.5625 11.6782 5.82374 11.417 6.14258 11.417H12.3799ZM15.1104 8.11914C15.4349 8.11915 15.6961 8.37958 15.6963 8.69824C15.6963 9.01705 15.435 9.27827 15.1162 9.27832H6.14258C5.82374 9.27832 5.5625 9.01708 5.5625 8.69824C5.5627 8.37957 5.82386 8.11914 6.14258 8.11914H15.1104ZM15.1104 4.81445C15.435 4.81447 15.6963 5.0757 15.6963 5.39453C15.6961 5.71318 15.4349 5.97358 15.1162 5.97363H6.14258C5.82386 5.97363 5.5627 5.7132 5.5625 5.39453C5.5625 5.07569 5.82374 4.81445 6.14258 4.81445H15.1104Z" fill="currentColor"/>
</svg>
