<svg width="24" height="24" viewBox="0 0 24 24" fill="none" xmlns="http://www.w3.org/2000/svg">
<path d="M4.22363 10.6174H7.01813V13.4119H4.22363V10.6174Z" fill="#C9C2EA"/>
<path fill-rule="evenodd" clip-rule="evenodd" d="M10.643 11.1653H8.93529V12.8731H10.643V11.1653ZM8.39648 10.6174V13.4119H11.191V10.6174H8.39648Z" fill="currentColor"/>
<path fill-rule="evenodd" clip-rule="evenodd" d="M15.1001 11.1653H13.3923V12.8731H15.1001V11.1653ZM12.8535 10.6174V13.4119H15.648V10.6174H12.8535Z" fill="currentColor"/>
<path fill-rule="evenodd" clip-rule="evenodd" d="M6.47019 14.9096H4.76244V16.6173H6.47019V14.9096ZM4.22363 14.3616V17.1561H7.01813V14.3616H4.22363Z" fill="currentColor"/>
<path fill-rule="evenodd" clip-rule="evenodd" d="M8.12349 10.2247C8.0139 10.1151 7.84952 10.1151 7.73993 10.2247L7.00934 10.9553V10.6174H4.21484V13.4119H7.00934V11.7224L8.12349 10.6083C8.23307 10.4987 8.23307 10.3343 8.12349 10.2247ZM6.47053 12.8731H4.76278V11.1653H6.47053V11.5032L5.93172 12.042L5.26506 11.3754C5.15547 11.2658 4.99109 11.2658 4.8815 11.3754C4.77192 11.485 4.77192 11.6494 4.8815 11.7589L5.73994 12.6174C5.813 12.6904 5.92259 12.6996 6.01391 12.663C6.05044 12.6539 6.09611 12.6448 6.1235 12.6174L6.4614 12.2795V12.8822L6.47053 12.8731Z" fill="currentColor"/>
<path d="M2.74486 18.6721V9.44842H18.6717V14.6173H19.2196V8.90961H2.20605V19.22H8.79047V18.6721H2.74486Z" fill="currentColor"/>
<path d="M15.0279 5.31152H14.3703V3.95081H7.07359V5.31152H6.41606V3.95081H2.20605V8.33433H19.2196V3.95081H15.0279V5.31152ZM15.5667 5.65855V4.48961H18.6717V7.79552H2.74486V4.48961H5.84986V5.65855C5.84986 5.76814 5.94118 5.85033 6.04164 5.85033H7.40236C7.51195 5.85033 7.59414 5.75901 7.59414 5.65855V4.48961H13.8133V5.65855C13.8133 5.76814 13.9046 5.85033 14.005 5.85033H15.3658C15.4753 5.85033 15.5575 5.75901 15.5575 5.65855H15.5667Z" fill="currentColor"/>
<path d="M1.77625 19.8776C1.6484 19.8776 1.53881 19.7771 1.53881 19.6401V3.52156C1.53881 3.39371 1.63926 3.28412 1.77625 3.28412H6.39721V1.53985H7.05474V3.28412H14.3515V1.53985H15.009V3.28412H19.63C19.7578 3.28412 19.8674 3.38458 19.8674 3.52156V14.6082H20.4062V3.52156C20.4062 3.09234 20.0592 2.74531 19.63 2.74531H15.5478V1.19282C15.5478 1.08323 15.4565 1.00104 15.356 1.00104H13.9953C13.8857 1.00104 13.8035 1.09236 13.8035 1.19282V2.74531H7.58442V1.19282C7.58442 1.08323 7.4931 1.00104 7.39264 1.00104H6.03192C5.92233 1.00104 5.84014 1.09236 5.84014 1.19282V2.74531H1.77625C1.34703 2.74531 1 3.09234 1 3.52156V19.6401C1 20.0694 1.34703 20.4164 1.77625 20.4164H8.78989V19.8776H1.77625Z" fill="currentColor"/>
<path d="M22.7439 22.6081H8.53403C8.39704 22.6081 8.27832 22.4986 8.27832 22.3524V14.3525C8.27832 14.2155 8.38791 14.0968 8.53403 14.0968H22.7439C22.8809 14.0968 22.9997 14.2064 22.9997 14.3525V22.3524C22.9997 22.4894 22.8901 22.6081 22.7439 22.6081ZM8.78973 22.1059H22.4974V14.6082H8.78973V22.1059Z" fill="currentColor"/>
<path d="M10.5164 19.2383C10.0323 19.2383 9.63965 18.8456 9.63965 18.3616C9.63965 17.8776 10.0323 17.4849 10.5164 17.4849C11.0004 17.4849 11.3931 17.8776 11.3931 18.3616C11.3931 18.8456 11.0004 19.2383 10.5164 19.2383ZM10.5164 17.9871C10.3154 17.9871 10.1419 18.1515 10.1419 18.3616C10.1419 18.5716 10.3063 18.736 10.5164 18.736C10.7264 18.736 10.8908 18.5716 10.8908 18.3616C10.8908 18.1515 10.7264 17.9871 10.5164 17.9871Z" fill="currentColor"/>
<path d="M20.7624 19.2383C20.2784 19.2383 19.8857 18.8456 19.8857 18.3616C19.8857 17.8776 20.2784 17.4849 20.7624 17.4849C21.2465 17.4849 21.6392 17.8776 21.6392 18.3616C21.6392 18.8456 21.2465 19.2383 20.7624 19.2383ZM20.7624 17.9871C20.5615 17.9871 20.388 18.1515 20.388 18.3616C20.388 18.5716 20.5524 18.736 20.7624 18.736C20.9725 18.736 21.1369 18.5716 21.1369 18.3616C21.1369 18.1515 20.9725 17.9871 20.7624 17.9871Z" fill="currentColor"/>
<path d="M15.6383 20.5351C16.8387 20.5351 17.8118 19.562 17.8118 18.3616C17.8118 17.1612 16.8387 16.1881 15.6383 16.1881C14.438 16.1881 13.4648 17.1612 13.4648 18.3616C13.4648 19.562 14.438 20.5351 15.6383 20.5351Z" fill="#C9C2EA" stroke="currentColor" stroke-width="0.5" stroke-linecap="round" stroke-linejoin="round"/>
<path d="M16.2871 17.8319C16.3875 17.8319 16.4697 17.7497 16.4697 17.6493V17.421C16.4697 17.2018 16.2871 17.0191 16.0679 17.0191H15.8213V16.8274C15.8213 16.7269 15.7391 16.6447 15.6387 16.6447C15.5382 16.6447 15.456 16.7269 15.456 16.8274V17.0191H15.2094C14.9903 17.0191 14.8076 17.2018 14.8076 17.421V18.1242C14.8076 18.3433 14.9903 18.526 15.2094 18.526H16.0679C16.0679 18.526 16.1044 18.5442 16.1044 18.5716V19.3296C16.1044 19.3296 16.0861 19.3753 16.0679 19.3753H15.2094C15.2094 19.3753 15.1729 19.357 15.1729 19.3296V19.0922C15.1729 18.9917 15.0907 18.9095 14.9903 18.9095C14.8898 18.9095 14.8076 18.9917 14.8076 19.0922V19.3296C14.8076 19.5579 14.9903 19.7406 15.2094 19.7406H15.456V19.8958C15.456 19.9963 15.5382 20.0785 15.6387 20.0785C15.7391 20.0785 15.8213 19.9963 15.8213 19.8958V19.7406H16.0679C16.2871 19.7406 16.4697 19.5579 16.4697 19.3296V18.5716C16.4697 18.3433 16.2871 18.1607 16.0679 18.1607H15.2094C15.2094 18.1607 15.1729 18.1424 15.1729 18.1242V17.421C15.1729 17.421 15.1912 17.3844 15.2094 17.3844H16.0679C16.0679 17.3844 16.1044 17.4027 16.1044 17.421V17.6493C16.1044 17.7497 16.1866 17.8319 16.2871 17.8319Z" fill="currentColor"/>
</svg>
