<svg width="24" height="24" viewBox="0 0 24 24" fill="none" xmlns="http://www.w3.org/2000/svg">
<path d="M22.4191 17.8841H20.0224V8.04241C20.0224 7.88887 19.9614 7.74162 19.8528 7.63305C19.7443 7.52448 19.597 7.46349 19.4435 7.46349H14.0653V3.57892C14.0653 3.42538 14.0043 3.27813 13.8957 3.16956C13.7872 3.06099 13.6399 3 13.4864 3H3.06578C2.50015 3.01814 1.96484 3.25999 1.57735 3.67244C1.18986 4.0849 0.981869 4.63425 0.99903 5.1999V6.54301C0.99903 6.69655 1.06002 6.8438 1.16859 6.95237C1.27716 7.06093 1.42441 7.12193 1.57795 7.12193H3.06578C3.21932 7.12193 3.36657 7.06093 3.47514 6.95237C3.58371 6.8438 3.6447 6.69655 3.6447 6.54301C3.6447 6.38947 3.58371 6.24221 3.47514 6.13365C3.36657 6.02508 3.21932 5.96408 3.06578 5.96408H2.15109V5.1999C2.13662 5.07193 2.14934 4.94234 2.18841 4.81962C2.22749 4.69691 2.29204 4.58383 2.37784 4.48778C2.46364 4.39173 2.56876 4.31489 2.68631 4.26227C2.80386 4.20966 2.9312 4.18246 3.05999 4.18246C3.18878 4.18246 3.31612 4.20966 3.43367 4.26227C3.55122 4.31489 3.65634 4.39173 3.74214 4.48778C3.82794 4.58383 3.89249 4.69691 3.93157 4.81962C3.97064 4.94234 3.98337 5.07193 3.9689 5.1999V14.9258C3.95403 15.2068 3.99654 15.4879 4.09384 15.7519C4.19113 16.0159 4.34118 16.2574 4.53482 16.4616C4.72847 16.6657 4.96166 16.8283 5.22018 16.9394C5.47871 17.0505 5.75715 17.1078 6.03854 17.1078C6.31993 17.1078 6.59837 17.0505 6.8569 16.9394C7.11543 16.8283 7.34862 16.6657 7.54226 16.4616C7.73591 16.2574 7.88595 16.0159 7.98325 15.7519C8.08054 15.4879 8.12305 15.2068 8.10819 14.9258V9.71549C8.08713 9.58398 8.09486 9.44947 8.13085 9.32123C8.16684 9.193 8.23023 9.07409 8.31664 8.97274C8.40306 8.87139 8.51044 8.78999 8.63137 8.73418C8.7523 8.67837 8.8839 8.64947 9.01709 8.64947C9.15028 8.64947 9.28189 8.67837 9.40282 8.73418C9.52375 8.78999 9.63113 8.87139 9.71754 8.97274C9.80396 9.07409 9.86735 9.193 9.90334 9.32123C9.93933 9.44947 9.94706 9.58398 9.926 9.71549V19.8408C9.92113 20.4007 10.135 20.9403 10.5222 21.3447C10.9093 21.7491 11.439 21.9864 11.9985 22.006H20.966C21.5055 22.0045 22.0223 21.7891 22.4032 21.4071C22.7841 21.0251 22.998 20.5077 22.998 19.9682V18.463C22.998 18.3095 22.9371 18.1622 22.8285 18.0536C22.7199 17.9451 22.5727 17.8841 22.4191 17.8841ZM6.95613 9.67496V14.8853C6.97416 15.0156 6.96405 15.1482 6.92649 15.2743C6.88893 15.4003 6.82478 15.5169 6.73838 15.616C6.65197 15.7152 6.54532 15.7947 6.4256 15.8492C6.30588 15.9037 6.17587 15.9319 6.04433 15.9319C5.9128 15.9319 5.78279 15.9037 5.66306 15.8492C5.54334 15.7947 5.43669 15.7152 5.35028 15.616C5.26388 15.5169 5.19974 15.4003 5.16218 15.2743C5.12461 15.1482 5.1145 15.0156 5.13253 14.8853V5.1999C5.13036 4.8374 5.04311 4.48047 4.8778 4.15784H12.9074V7.46927H9.02288C8.45674 7.48892 7.92143 7.73203 7.5341 8.1454C7.14676 8.55877 6.93895 9.10874 6.95613 9.67496ZM12.9074 18.463V19.8003C12.9285 19.9318 12.9208 20.0663 12.8848 20.1946C12.8488 20.3228 12.7854 20.4417 12.699 20.5431C12.6126 20.6444 12.5052 20.7258 12.3843 20.7816C12.2633 20.8374 12.1317 20.8663 11.9985 20.8663C11.8653 20.8663 11.7337 20.8374 11.6128 20.7816C11.4919 20.7258 11.3845 20.6444 11.2981 20.5431C11.2117 20.4417 11.1483 20.3228 11.1123 20.1946C11.0763 20.0663 11.0686 19.9318 11.0896 19.8003V9.67496C11.0886 9.30978 10.9992 8.95027 10.8291 8.62712H18.8645V17.8899H13.4864C13.3338 17.8899 13.1874 17.9501 13.079 18.0574C12.9706 18.1647 12.909 18.3105 12.9074 18.463ZM21.8402 19.9682C21.8402 20.2006 21.7483 20.4235 21.5845 20.5884C21.4207 20.7532 21.1984 20.8466 20.966 20.8482H13.8164C13.982 20.5238 14.0674 20.1645 14.0653 19.8003V19.0419H21.8402V19.9682Z" fill="currentColor"/>
<path d="M15.1884 12.8358C14.9752 12.7772 14.7776 12.6725 14.6095 12.5289C14.5612 12.4819 14.5237 12.4249 14.4997 12.3619C14.4757 12.2989 14.4658 12.2314 14.4705 12.1642C14.4617 12.0171 14.5093 11.8722 14.6037 11.759C14.6615 11.7091 14.7286 11.6711 14.8011 11.6473C14.8736 11.6234 14.9502 11.6142 15.0263 11.62C15.1058 11.6157 15.1852 11.6315 15.257 11.6659C15.3288 11.7003 15.3908 11.7522 15.4373 11.8169C15.5518 11.9873 15.6067 12.1909 15.5936 12.3958V12.5405H16.4678V12.3958C16.4838 12.0222 16.376 11.6539 16.161 11.3479C15.9733 11.1128 15.709 10.9509 15.4142 10.8906V10.2017H14.6384V10.8732C14.3529 10.9223 14.0909 11.0625 13.8916 11.2727C13.6757 11.5229 13.562 11.8454 13.5732 12.1758C13.5657 12.3444 13.5932 12.5127 13.654 12.6701C13.7148 12.8276 13.8075 12.9707 13.9263 13.0905C14.2012 13.3405 14.5332 13.5194 14.8931 13.6115C15.1051 13.6702 15.3023 13.7727 15.4721 13.9125C15.5189 13.9597 15.5559 14.0157 15.5807 14.0774C15.6056 14.139 15.6179 14.205 15.6168 14.2715C15.6219 14.346 15.6099 14.4207 15.5818 14.4899C15.5537 14.5591 15.5103 14.621 15.4547 14.6709C15.3079 14.7795 15.1275 14.8328 14.9452 14.8215C14.7723 14.8284 14.6031 14.7706 14.4705 14.6594C14.403 14.5871 14.352 14.501 14.321 14.407C14.29 14.313 14.2798 14.2135 14.2911 14.1152V13.9704H13.5732H13.4632L13.4285 14.0631V14.1152C13.4111 14.3053 13.4341 14.4969 13.496 14.6775C13.5578 14.858 13.6571 15.0235 13.7874 15.163C14.0069 15.3742 14.2856 15.5136 14.5863 15.5625V16.1414H15.3447V15.5625C15.6451 15.5201 15.9245 15.3844 16.1436 15.1746C16.2618 15.0531 16.354 14.9089 16.4147 14.7506C16.4754 14.5924 16.5033 14.4235 16.4968 14.2541C16.5042 14.0883 16.4777 13.9227 16.419 13.7674C16.3603 13.6121 16.2705 13.4704 16.1552 13.351C15.8768 13.1073 15.546 12.9309 15.1884 12.8358Z" fill="currentColor"/>
</svg>
