<svg width="24" height="24" viewBox="0 0 24 24" fill="none" xmlns="http://www.w3.org/2000/svg">
<path d="M22.4234 17.887H20.0262V8.04341C20.0262 7.88984 19.9652 7.74256 19.8566 7.63397C19.748 7.52538 19.6007 7.46438 19.4471 7.46438H14.0679V3.57904C14.0679 3.42547 14.0069 3.27819 13.8983 3.1696C13.7897 3.06101 13.6424 3 13.4888 3H3.06619C2.50045 3.01815 1.96503 3.26004 1.57747 3.67258C1.1899 4.08511 0.981866 4.63457 0.999031 5.20034V6.54371C0.999031 6.69728 1.06004 6.84456 1.16863 6.95315C1.27722 7.06174 1.4245 7.12275 1.57807 7.12275H3.06619C3.21976 7.12275 3.36704 7.06174 3.47563 6.95315C3.58422 6.84456 3.64523 6.69728 3.64523 6.54371C3.64523 6.39014 3.58422 6.24286 3.47563 6.13427C3.36704 6.02568 3.21976 5.96467 3.06619 5.96467H2.15131V5.20034C2.13684 5.07234 2.14957 4.94273 2.18865 4.81999C2.22773 4.69724 2.2923 4.58414 2.37812 4.48808C2.46393 4.39201 2.56907 4.31515 2.68665 4.26253C2.80422 4.2099 2.93158 4.1827 3.0604 4.1827C3.18921 4.1827 3.31658 4.2099 3.43415 4.26253C3.55173 4.31515 3.65687 4.39201 3.74269 4.48808C3.8285 4.58414 3.89306 4.69724 3.93215 4.81999C3.97123 4.94273 3.98396 5.07234 3.96949 5.20034V14.9282C3.95462 15.2092 3.99713 15.4903 4.09445 15.7544C4.19176 16.0185 4.34184 16.26 4.53552 16.4642C4.72921 16.6684 4.96244 16.8311 5.22102 16.9422C5.4796 17.0533 5.7581 17.1106 6.03954 17.1106C6.32099 17.1106 6.59949 17.0533 6.85806 16.9422C7.11664 16.8311 7.34988 16.6684 7.54356 16.4642C7.73725 16.26 7.88732 16.0185 7.98463 15.7544C8.08195 15.4903 8.12447 15.2092 8.1096 14.9282V9.71683C8.08853 9.58529 8.09627 9.45075 8.13226 9.32249C8.16826 9.19423 8.23166 9.0753 8.3181 8.97393C8.40453 8.87256 8.51193 8.79114 8.63288 8.73532C8.75384 8.6795 8.88547 8.65059 9.01868 8.65059C9.1519 8.65059 9.28353 8.6795 9.40449 8.73532C9.52544 8.79114 9.63284 8.87256 9.71927 8.97393C9.80571 9.0753 9.86911 9.19423 9.9051 9.32249C9.9411 9.45075 9.94883 9.58529 9.92777 9.71683V19.8442C9.91212 20.4101 10.1205 20.9593 10.5076 21.3724C10.8947 21.7855 11.4292 22.0292 11.9949 22.0503H20.9642C21.5038 22.0488 22.0207 21.8334 22.4017 21.4513C22.7827 21.0692 22.9966 20.5517 22.9966 20.0121V18.5066C23.0022 18.4277 22.9915 18.3485 22.9652 18.2739C22.939 18.1993 22.8977 18.1309 22.844 18.0728C22.7903 18.0148 22.7253 17.9683 22.6529 17.9364C22.5806 17.9044 22.5025 17.8876 22.4234 17.887ZM6.95732 9.67629V14.8876C6.97535 15.0179 6.96523 15.1506 6.92766 15.2767C6.89009 15.4028 6.82594 15.5194 6.73952 15.6186C6.6531 15.7178 6.54642 15.7973 6.42668 15.8518C6.30693 15.9063 6.17689 15.9345 6.04533 15.9345C5.91377 15.9345 5.78374 15.9063 5.66399 15.8518C5.54424 15.7973 5.43757 15.7178 5.35115 15.6186C5.26473 15.5194 5.20057 15.4028 5.163 15.2767C5.12543 15.1506 5.11532 15.0179 5.13335 14.8876V5.20034C5.13118 4.83777 5.04391 4.48076 4.87857 4.15807H12.9098V7.47016H9.02448C8.45822 7.48981 7.9228 7.73297 7.53539 8.14642C7.14798 8.55988 6.94013 9.10996 6.95732 9.67629ZM12.9098 18.4661V19.8036C12.9309 19.9352 12.9231 20.0697 12.8871 20.198C12.8511 20.3263 12.7877 20.4452 12.7013 20.5465C12.6149 20.6479 12.5075 20.7293 12.3865 20.7851C12.2656 20.841 12.1339 20.8699 12.0007 20.8699C11.8675 20.8699 11.7359 20.841 11.6149 20.7851C11.494 20.7293 11.3866 20.6479 11.3001 20.5465C11.2137 20.4452 11.1503 20.3263 11.1143 20.198C11.0783 20.0697 11.0706 19.9352 11.0916 19.8036V9.67629C11.0906 9.31103 11.0012 8.95145 10.8311 8.62824H18.8681V17.8928H13.4888C13.3363 17.8928 13.1899 17.953 13.0814 18.0604C12.973 18.1677 12.9113 18.3135 12.9098 18.4661ZM21.8443 19.9716C21.8443 20.204 21.7524 20.427 21.5886 20.5919C21.4248 20.7568 21.2024 20.8502 20.97 20.8517H13.8189C13.9846 20.5273 14.07 20.1679 14.0679 19.8036V19.0451H21.8443V19.9716Z" fill="currentColor"/>
<path d="M14.7402 13.2489C14.8385 13.2027 14.924 13.1331 14.9892 13.0463C15.0989 12.908 15.1581 12.7364 15.1571 12.5599C15.1642 12.4301 15.1413 12.3003 15.09 12.1808C15.0388 12.0613 14.9607 11.9552 14.8618 11.8708C14.6025 11.6924 14.2897 11.6086 13.9759 11.6334H12.5283V14.9281H14.0222C14.3398 14.9459 14.6546 14.8606 14.9197 14.6849C15.0239 14.6038 15.1072 14.4989 15.1626 14.3791C15.218 14.2592 15.2439 14.1278 15.2382 13.9959C15.2413 13.8028 15.1733 13.6152 15.0471 13.469C14.9636 13.3725 14.8584 13.2971 14.7402 13.2489ZM13.31 13.5906H13.9643C14.0873 13.5812 14.2098 13.6139 14.3117 13.6832C14.3476 13.7122 14.3758 13.7495 14.3939 13.7919C14.4121 13.8343 14.4197 13.8805 14.416 13.9264C14.4184 13.9739 14.4103 14.0214 14.3922 14.0654C14.3742 14.1094 14.3467 14.149 14.3117 14.1812C14.2091 14.2485 14.0866 14.2791 13.9643 14.268H13.31V13.5906ZM13.8891 12.9478H13.31V12.2819H13.8891C14.2886 12.2819 14.3349 12.473 14.3349 12.612C14.3349 12.751 14.3175 12.9478 13.8891 12.9478Z" fill="currentColor"/>
<path d="M16.9921 13.382L16.5115 13.2778C16.4362 13.2655 16.3636 13.24 16.2972 13.2025C16.2852 13.1938 16.2754 13.1826 16.2683 13.1695C16.2613 13.1565 16.2573 13.142 16.2567 13.1273C16.2559 13.1134 16.2581 13.0995 16.2631 13.0865C16.2681 13.0735 16.2758 13.0618 16.2856 13.052C16.3168 13.0237 16.3547 13.0038 16.3956 12.9941C16.4648 12.984 16.535 12.984 16.6041 12.9941C16.7154 12.9941 16.8249 13.0219 16.9226 13.0751C17.0246 13.1263 17.1107 13.2044 17.1716 13.301L17.2179 13.382L17.7158 12.8956L17.6811 12.8435C17.57 12.6849 17.415 12.5622 17.2352 12.4903C17.0297 12.4058 16.8089 12.3644 16.5867 12.3687C16.3878 12.367 16.1906 12.4064 16.0077 12.4845C15.8558 12.5491 15.7238 12.653 15.6255 12.7856C15.542 12.9064 15.4976 13.0499 15.4981 13.1967C15.4946 13.2884 15.5098 13.3797 15.5426 13.4653C15.5755 13.5509 15.6253 13.629 15.6892 13.6947C15.8681 13.8432 16.0845 13.9394 16.3146 13.9727L16.7315 14.0595C16.7941 14.0646 16.8541 14.0867 16.9052 14.1232C16.9155 14.1492 16.9155 14.1782 16.9052 14.2043C16.9078 14.2278 16.9024 14.2515 16.8897 14.2714C16.8771 14.2914 16.8581 14.3065 16.8357 14.3143C16.7512 14.3483 16.6604 14.364 16.5694 14.3606C16.4261 14.3639 16.2845 14.33 16.1582 14.2622C16.0456 14.1973 15.9487 14.1083 15.8745 14.0016L15.8282 13.9321L15.3418 14.4185L15.3823 14.4706C15.5196 14.6365 15.6942 14.7675 15.8919 14.8528C16.1105 14.9424 16.3447 14.9876 16.5809 14.986C16.7794 14.9884 16.9763 14.951 17.16 14.8759C17.3147 14.8133 17.4476 14.7066 17.5421 14.5691C17.6336 14.4388 17.6804 14.2823 17.6753 14.1232C17.6806 13.9565 17.6204 13.7943 17.5074 13.6716C17.3718 13.5214 17.1908 13.4197 16.9921 13.382Z" fill="currentColor"/>
</svg>
