<svg width="24" height="24" viewBox="0 0 24 24" fill="none" xmlns="http://www.w3.org/2000/svg">
<path d="M21.1577 15.1412C21.4556 14.576 21.603 13.943 21.5856 13.3037C21.5682 12.6643 21.3866 12.0404 21.0584 11.4924C20.7302 10.9445 20.2665 10.4911 19.7125 10.1764C19.1585 9.8617 18.5329 9.69631 17.8965 9.69631C17.2601 9.69631 16.6345 9.8617 16.0804 10.1764C15.5264 10.4911 15.0628 10.9445 14.7346 11.4924C14.4064 12.0404 14.2248 12.6643 14.2073 13.3037C14.1899 13.943 14.3373 14.576 14.6352 15.1412C14.0947 15.3656 13.6319 15.7449 13.3043 16.2318C12.9767 16.7187 12.7989 17.2916 12.793 17.8793V20.4677C12.7937 20.9539 12.9322 21.4298 13.1924 21.8398H5.08401C4.31711 21.8398 3.58162 21.5336 3.03934 20.9886C2.49706 20.4437 2.19241 19.7045 2.19241 18.9338V14.3323C2.19982 13.4839 2.50168 12.6646 3.04591 12.016C3.59014 11.3673 4.34259 10.9299 5.17344 10.7793H5.85908C6.90311 11.7363 8.26983 12.2591 9.68282 12.242C11.0958 12.2249 12.4496 11.6692 13.4704 10.6872C14.4912 9.70525 15.1029 8.37032 15.1816 6.95243C15.2603 5.53454 14.8003 4.13951 13.8946 3.04948C12.9889 1.95946 11.705 1.25579 10.3027 1.0808C8.90034 0.905806 7.48422 1.27255 6.34071 2.10686C5.1972 2.94116 4.41165 4.18076 4.14293 5.57494C3.87422 6.96913 4.1424 8.41384 4.89322 9.61689C3.80271 9.83107 2.81939 10.4175 2.10987 11.2769C1.40035 12.1362 1.00825 13.2157 1 14.3323V18.9338C1 20.0223 1.43028 21.0663 2.19618 21.836C2.96208 22.6057 4.00086 23.0381 5.08401 23.0381H22.4038C22.5619 23.0381 22.7136 22.975 22.8254 22.8626C22.9372 22.7502 23 22.5978 23 22.4389V17.8673C22.9972 17.2804 22.8204 16.7076 22.4923 16.2221C22.1642 15.7365 21.6996 15.3602 21.1577 15.1412ZM9.61518 2.2592C10.4807 2.2592 11.3268 2.51712 12.0464 3.00036C12.7661 3.4836 13.327 4.17045 13.6582 4.97405C13.9894 5.77765 14.0761 6.66191 13.9072 7.51501C13.7384 8.36811 13.3216 9.15172 12.7096 9.76677C12.0976 10.3818 11.3178 10.8007 10.4689 10.9704C9.62003 11.1401 8.74013 11.053 7.9405 10.7201C7.14086 10.3872 6.4574 9.82356 5.97654 9.10034C5.49568 8.37712 5.23902 7.52685 5.23902 6.65704C5.23902 5.49066 5.70008 4.37204 6.52077 3.54729C7.34146 2.72253 8.45455 2.2592 9.61518 2.2592ZM17.9024 10.9051C18.3968 10.9051 18.88 11.0525 19.2909 11.3286C19.7019 11.6047 20.0221 11.9972 20.2109 12.4562C20.3998 12.9153 20.449 13.4204 20.3521 13.9075C20.2552 14.3947 20.0167 14.842 19.6667 15.1929C19.3168 15.5437 18.8711 15.7823 18.3861 15.8785C17.9012 15.9747 17.3987 15.9242 16.9423 15.7332C16.486 15.5423 16.0962 15.2196 15.8224 14.806C15.5487 14.3923 15.4032 13.9064 15.4043 13.4096C15.4059 12.7458 15.669 12.1097 16.136 11.6404C16.603 11.171 17.236 10.9067 17.8965 10.9051H17.9024ZM21.8135 19.551V21.8398H15.3507C14.9891 21.8382 14.6427 21.6931 14.387 21.4362C14.1313 21.1792 13.9869 20.8311 13.9854 20.4677V17.8793C13.9904 17.4699 14.1345 17.0745 14.3936 16.7585C14.6527 16.4426 15.0114 16.225 15.4103 16.1417C16.0863 16.759 16.9675 17.1 17.8809 17.0978C18.7943 17.0956 19.6738 16.7503 20.3469 16.1298C20.747 16.2104 21.1077 16.426 21.369 16.741C21.6304 17.056 21.7767 17.4513 21.7837 17.8613L21.8135 19.551Z" fill="currentColor"/>
</svg>
