<svg width="20" height="23" viewBox="0 0 20 23" fill="none" xmlns="http://www.w3.org/2000/svg">
<path d="M13.7973 6.14624H6.56256C6.24372 6.14624 5.98285 6.40711 5.98285 6.72595C5.98285 7.04479 6.24372 7.30566 6.56256 7.30566H13.7973C14.1162 7.30566 14.3771 7.04479 14.3771 6.72595C14.3771 6.40711 14.1162 6.14624 13.7973 6.14624Z" fill="currentColor"/>
<path d="M13.7973 8.56363H6.56256C6.24372 8.56363 5.98285 8.8245 5.98285 9.14334C5.98285 9.46218 6.24372 9.72305 6.56256 9.72305H13.7973C14.1162 9.72305 14.3771 9.46218 14.3771 9.14334C14.3771 8.8245 14.1162 8.56363 13.7973 8.56363Z" fill="currentColor"/>
<path d="M11.5888 10.981H6.55694C6.2381 10.981 5.97723 11.2419 5.97723 11.5607C5.97723 11.8796 6.2381 12.1404 6.55694 12.1404H11.5888C11.9077 12.1404 12.1685 11.8796 12.1685 11.5607C12.1685 11.2419 11.9135 10.981 11.5888 10.981Z" fill="currentColor"/>
<path d="M16.383 3.17234C16.1453 1.49698 14.7076 0.210022 12.9685 0.210022H1.15979C0.840948 0.210022 0.580078 0.470892 0.580078 0.789732V15.7694C0.580078 17.6129 2.01776 19.1202 3.82646 19.2419C4.08153 20.9173 5.52501 22.21 7.26994 22.21H19.0439C19.3627 22.21 19.6236 21.9492 19.6236 21.6303V6.61002C19.6236 4.78393 18.1859 3.28249 16.383 3.17234ZM4.3598 3.16074C4.04096 3.16074 3.78009 3.42161 3.78009 3.74045V18.0709C2.63226 17.926 1.7395 16.9578 1.7395 15.7694V1.36944H12.9685C14.0584 1.36944 14.9743 2.14045 15.2004 3.16654H4.3598V3.16074ZM18.4641 21.0564H7.26994C5.98878 21.0564 4.93951 20.0129 4.93951 18.726V4.32017H16.1743C17.4381 4.32017 18.4641 5.34625 18.4641 6.61002V21.0564Z" fill="currentColor"/>
</svg>
