<svg width="24" height="24" viewBox="0 0 24 24" fill="none" xmlns="http://www.w3.org/2000/svg">
<path d="M10.2933 1.14001H1.94404C1.50753 1.14001 1.15039 1.49742 1.15039 1.93424V18.3826C1.15039 21.0036 3.28532 23.14 5.90436 23.14H10.2933C10.7298 23.14 11.0869 22.7826 11.0869 22.3458V1.93424C11.0869 1.49742 10.7298 1.14001 10.2933 1.14001ZM9.4996 21.5516H5.90436C4.15833 21.5516 2.73769 20.1299 2.73769 18.3826V2.72846H9.4996V21.5516Z" fill="currentColor"/>
<path d="M22.357 1.14001H14.0078C13.5713 1.14001 13.2141 1.49742 13.2141 1.93424V18.3826C13.2141 21.0036 15.349 23.14 17.9681 23.14H22.357C22.7935 23.14 23.1506 22.7826 23.1506 22.3458V1.93424C23.1506 1.49742 22.7935 1.14001 22.357 1.14001ZM21.5633 21.5516H17.9681C16.222 21.5516 14.8014 20.1299 14.8014 18.3826V2.72846H21.5633V21.5516Z" fill="currentColor"/>
</svg>
