<svg width="22" height="22" viewBox="0 0 22 22" fill="none" xmlns="http://www.w3.org/2000/svg">
<path d="M16.699 15.5733L15.379 7.60667C15.8958 6.84 16.2031 5.92667 16.2031 4.94667C16.2031 2.22 13.8774 0 11.0209 0C8.16441 0 5.83869 2.22 5.83869 4.94667C5.83869 5.92667 6.14598 6.84 6.66281 7.60667L5.34979 15.52H3.84123C3.45711 15.52 3.14282 15.82 3.14282 16.1867V19.36C3.14282 20.8133 4.37901 22 5.90853 22H18.2146C18.5987 22 18.913 21.7 18.913 21.3333V18.16C18.899 16.8867 17.9561 15.82 16.699 15.5733ZM14.1707 8.86L15.0508 14.1733L10.7695 9.88C10.8533 9.88667 10.9371 9.89333 11.0209 9.89333C12.2082 9.88667 13.2977 9.5 14.1707 8.86ZM11.0209 1.33333C13.1092 1.33333 14.8063 2.95333 14.8063 4.94667C14.8063 6.94 13.1092 8.56 11.0209 8.56C10.1339 8.56 9.31678 8.26667 8.67424 7.77333L7.95487 7.05333C7.50789 6.46 7.2425 5.73333 7.2425 4.94667C7.23552 2.95333 8.93266 1.33333 11.0209 1.33333ZM7.85711 8.89333L14.4641 15.52H6.7606L7.85711 8.89333ZM17.5022 20.66H5.89455C5.14026 20.66 4.52567 20.0733 4.52567 19.3533V16.8467H5.93647H16.0844H16.1263C16.8806 16.8467 17.4952 17.4333 17.4952 18.1533V20.66H17.5022Z" fill="currentColor"/>
</svg>
