<svg width="25" height="24" viewBox="0 0 25 24" fill="none" xmlns="http://www.w3.org/2000/svg">
<path d="M23.1269 12.7845C23.0967 12.4616 23.0026 12.1479 22.85 11.8618C22.6975 11.5756 22.4895 11.3226 22.2383 11.1176C21.9874 10.9104 21.698 10.7547 21.3867 10.6598C21.0755 10.5648 20.7485 10.5322 20.4247 10.5641C20.1008 10.5959 19.7864 10.6915 19.4996 10.8453C19.2128 10.9991 18.9593 11.2081 18.7536 11.4603L15.7916 15.0669H10.4832C9.03708 13.9054 5.83696 12.5928 2.99693 15.218C2.94015 15.2696 2.89418 15.332 2.86166 15.4015C2.82915 15.4711 2.81074 15.5464 2.8075 15.623C2.80426 15.6997 2.81625 15.7763 2.84278 15.8483C2.86932 15.9204 2.90987 15.9864 2.96209 16.0427C3.06702 16.1548 3.21208 16.2208 3.36554 16.2262C3.51901 16.2317 3.66838 16.1761 3.78099 16.0717C6.50486 13.5685 9.31005 15.6129 9.80952 16.0194C9.8635 16.0842 9.93095 16.1365 10.0072 16.1726C10.0834 16.2087 10.1666 16.2278 10.2509 16.2285H15.3618C15.2279 16.8642 14.8784 17.434 14.3724 17.8415C13.8665 18.249 13.2353 18.4691 12.5857 18.4645H8.17171C8.01768 18.4645 7.86996 18.5257 7.76104 18.6346C7.65212 18.7436 7.59093 18.8913 7.59093 19.0453C7.59093 19.1993 7.65212 19.3471 7.76104 19.456C7.86996 19.5649 8.01768 19.6261 8.17171 19.6261H12.5857C13.5844 19.6252 14.5464 19.2492 15.281 18.5726C16.0157 17.8961 16.4694 16.9683 16.5524 15.973L19.648 12.1979C19.7522 12.0526 19.8851 11.9302 20.0385 11.8383C20.1919 11.7465 20.3625 11.6871 20.5398 11.6638C20.7171 11.6405 20.8973 11.6539 21.0692 11.7031C21.2411 11.7522 21.4011 11.8362 21.5393 11.9496C21.6775 12.0631 21.7909 12.2038 21.8725 12.3628C21.9541 12.5219 22.0023 12.6961 22.0139 12.8745C22.0255 13.0529 22.0004 13.2318 21.9401 13.4002C21.8798 13.5685 21.7856 13.7227 21.6633 13.8531L16.1226 20.6425C15.8157 21.0191 15.4286 21.3225 14.9895 21.5305C14.5505 21.7385 14.0705 21.8458 13.5846 21.8447H2.13156C1.97753 21.8447 1.82981 21.9059 1.72089 22.0148C1.61197 22.1237 1.55078 22.2714 1.55078 22.4255C1.55078 22.5795 1.61197 22.7272 1.72089 22.8362C1.82981 22.9451 1.97753 23.0063 2.13156 23.0063H13.5846C14.2417 23.0078 14.8909 22.8626 15.4847 22.5812C16.0785 22.2999 16.602 21.8895 17.017 21.3801L22.581 14.5907C22.7868 14.3406 22.941 14.0523 23.0347 13.7422C23.1284 13.4322 23.1597 13.1067 23.1269 12.7845Z" fill="currentColor"/>
<path d="M12.0985 13.1331C13.298 13.1331 14.4705 12.7774 15.4678 12.1108C16.465 11.4443 17.2422 10.497 17.7009 9.38874C18.1597 8.28047 18.2794 7.06102 18.045 5.88469C17.8106 4.70835 17.2325 3.62797 16.3839 2.78022C15.5354 1.93247 14.4544 1.35545 13.2779 1.12215C12.1013 0.888849 10.882 1.00975 9.77416 1.46957C8.66632 1.92938 7.71975 2.70744 7.0542 3.70532C6.38864 4.7032 6.03401 5.87607 6.03516 7.07554C6.0367 8.68264 6.6762 10.2234 7.81313 11.3592C8.95007 12.4951 10.4914 13.1331 12.0985 13.1331ZM12.0985 2.17373C13.068 2.17373 14.0157 2.46121 14.8218 2.99983C15.6279 3.53845 16.2562 4.30401 16.6272 5.1997C16.9982 6.09538 17.0953 7.08098 16.9062 8.03183C16.717 8.98269 16.2502 9.85611 15.5646 10.5416C14.8791 11.2272 14.0057 11.694 13.0548 11.8832C12.104 12.0723 11.1184 11.9752 10.2227 11.6042C9.32701 11.2332 8.56145 10.6049 8.02283 9.79884C7.48421 8.99274 7.19673 8.04502 7.19673 7.07554C7.19673 5.7755 7.71317 4.5287 8.63243 3.60943C9.5517 2.69016 10.7985 2.17373 12.0985 2.17373Z" fill="currentColor"/>
<path d="M12.3483 5.9215C12.3582 5.75006 12.3281 5.57867 12.2603 5.42088C12.1925 5.2631 12.089 5.12324 11.9579 5.01236C11.6154 4.7803 11.2051 4.66951 10.7923 4.69765H8.86914V9.07435H10.8564C11.2817 9.10158 11.704 8.98678 12.057 8.74799C12.1945 8.64103 12.3043 8.50265 12.3774 8.34447C12.4504 8.18628 12.4844 8.0129 12.4766 7.83885C12.4805 7.58555 12.389 7.34003 12.2201 7.15116C12.0979 7.01326 11.9409 6.91064 11.7656 6.85395C11.9164 6.7966 12.0477 6.69755 12.1444 6.56838C12.2864 6.38346 12.3586 6.15441 12.3483 5.9215ZM9.85404 7.29685H10.7457C10.9178 7.28365 11.0896 7.32661 11.2352 7.41925C11.2853 7.46321 11.3246 7.51819 11.3499 7.57987C11.3751 7.64155 11.3858 7.70825 11.3809 7.77474C11.3838 7.84154 11.3716 7.90814 11.3454 7.96965C11.3192 8.03115 11.2795 8.08602 11.2294 8.13024C11.0884 8.22876 10.917 8.27418 10.7457 8.25846H9.83656L9.85404 7.29685ZM10.6641 6.46931H9.85404V5.52521H10.6641C11.2469 5.52521 11.2877 5.79329 11.2877 5.99726C11.2877 6.20124 11.2236 6.50428 10.6641 6.50428V6.46931Z" fill="currentColor"/>
<path d="M14.018 6.50419C14.111 6.47894 14.2072 6.46717 14.3036 6.46922C14.4581 6.46862 14.6104 6.50668 14.7465 6.57995C14.8877 6.64926 15.0053 6.75875 15.0845 6.89466L15.1369 6.97041L15.7722 6.35266L15.7314 6.30021C15.5855 6.09105 15.3835 5.92741 15.1486 5.82816C14.8714 5.72289 14.5767 5.67146 14.2802 5.67663C14.0023 5.6661 13.7255 5.71787 13.4702 5.82816C13.2695 5.91099 13.0959 6.04824 12.969 6.22445C12.8595 6.38186 12.8006 6.56888 12.8 6.76061C12.7959 6.88202 12.8166 7.00299 12.8607 7.11619C12.9047 7.22939 12.9713 7.33246 13.0564 7.41916C13.2923 7.61688 13.5791 7.74413 13.884 7.78632L14.4667 7.90286C14.5575 7.9135 14.6439 7.94766 14.7173 8.00194C14.7472 8.03576 14.7637 8.07923 14.764 8.12432C14.7662 8.16066 14.7566 8.19674 14.7366 8.22719C14.7167 8.25764 14.6874 8.28085 14.6532 8.29333C14.5376 8.34337 14.4118 8.36533 14.2861 8.35743C14.0832 8.36704 13.8816 8.32068 13.7033 8.2234C13.5498 8.13562 13.4182 8.01404 13.3187 7.8679L13.2662 7.79213L12.6543 8.41571L12.6893 8.46816C12.8733 8.68865 13.107 8.86239 13.3711 8.97518C13.6608 9.09642 13.972 9.15786 14.2861 9.15584C14.5631 9.16186 14.8386 9.11232 15.0962 9.01014C15.3009 8.92595 15.4784 8.78678 15.609 8.60802C15.7236 8.4353 15.7844 8.23251 15.7838 8.02524C15.7841 7.81036 15.7053 7.6029 15.5624 7.44246C15.3646 7.25333 15.1112 7.13279 14.8397 7.09862L14.187 6.96459C14.0812 6.94907 13.9799 6.91133 13.8898 6.85386C13.8708 6.83939 13.8552 6.82092 13.8441 6.79978C13.8331 6.77863 13.8268 6.75533 13.8257 6.73148C13.8254 6.70994 13.8293 6.68855 13.8373 6.66854C13.8453 6.64854 13.8572 6.63031 13.8723 6.61492C13.9113 6.56683 13.9612 6.52884 14.018 6.50419Z" fill="currentColor"/>
</svg>
