<svg width="24" height="24" viewBox="0 0 24 24" fill="none" xmlns="http://www.w3.org/2000/svg">
<path d="M22.5761 12.7845C22.5459 12.4616 22.4518 12.1479 22.2993 11.8618C22.1467 11.5756 21.9388 11.3226 21.6875 11.1176C21.4366 10.9104 21.1472 10.7547 20.836 10.6598C20.5247 10.5648 20.1977 10.5322 19.8739 10.5641C19.55 10.5959 19.2356 10.6915 18.9489 10.8453C18.6621 10.9991 18.4085 11.2081 18.2028 11.4603L15.2408 15.0669H9.93245C8.4863 13.9054 5.28618 12.5928 2.44615 15.218C2.38937 15.2696 2.3434 15.332 2.31088 15.4015C2.27837 15.4711 2.25996 15.5464 2.25671 15.623C2.25347 15.6997 2.26547 15.7763 2.292 15.8483C2.31854 15.9204 2.35909 15.9864 2.4113 16.0427C2.51623 16.1548 2.6613 16.2208 2.81476 16.2262C2.96823 16.2317 3.1176 16.1761 3.23021 16.0717C5.95408 13.5685 8.75927 15.6129 9.25874 16.0194C9.31272 16.0842 9.38017 16.1365 9.45639 16.1726C9.53262 16.2087 9.61579 16.2278 9.70014 16.2285H14.811C14.6771 16.8642 14.3276 17.434 13.8216 17.8415C13.3157 18.249 12.6845 18.4691 12.0349 18.4645H7.62093C7.4669 18.4645 7.31917 18.5257 7.21026 18.6346C7.10134 18.7436 7.04015 18.8913 7.04015 19.0453C7.04015 19.1993 7.10134 19.3471 7.21026 19.456C7.31917 19.5649 7.4669 19.6261 7.62093 19.6261H12.0349C13.0336 19.6252 13.9956 19.2492 14.7302 18.5726C15.4649 17.8961 15.9187 16.9683 16.0016 15.973L19.0972 12.1979C19.2014 12.0526 19.3343 11.9302 19.4877 11.8383C19.6411 11.7465 19.8118 11.6871 19.989 11.6638C20.1663 11.6405 20.3465 11.6539 20.5184 11.7031C20.6903 11.7522 20.8503 11.8362 20.9885 11.9496C21.1267 12.0631 21.2401 12.2038 21.3217 12.3628C21.4034 12.5219 21.4515 12.6961 21.4631 12.8745C21.4747 13.0529 21.4496 13.2318 21.3893 13.4002C21.329 13.5685 21.2348 13.7227 21.1125 13.8531L15.5719 20.6425C15.265 21.0191 14.8778 21.3225 14.4388 21.5305C13.9997 21.7385 13.5197 21.8458 13.0338 21.8447H1.58078C1.42675 21.8447 1.27903 21.9059 1.17011 22.0148C1.06119 22.1237 1 22.2714 1 22.4255C1 22.5795 1.06119 22.7272 1.17011 22.8362C1.27903 22.9451 1.42675 23.0063 1.58078 23.0063H13.0338C13.6909 23.0078 14.3401 22.8626 14.9339 22.5812C15.5277 22.2999 16.0513 21.8895 16.4663 21.3801L22.0302 14.5907C22.236 14.3406 22.3902 14.0523 22.4839 13.7422C22.5776 13.4322 22.609 13.1067 22.5761 12.7845Z" fill="currentColor"/>
<path d="M11.5478 13.1331C12.7472 13.1331 13.9198 12.7774 14.917 12.1108C15.9142 11.4443 16.6914 10.497 17.1501 9.38874C17.6089 8.28047 17.7286 7.06102 17.4942 5.88469C17.2598 4.70835 16.6817 3.62797 15.8332 2.78022C14.9846 1.93247 13.9037 1.35545 12.7271 1.12215C11.5505 0.888849 10.3312 1.00975 9.22338 1.46957C8.11554 1.92938 7.16897 2.70744 6.50342 3.70532C5.83786 4.7032 5.48323 5.87607 5.48438 7.07554C5.48592 8.68264 6.12542 10.2234 7.26235 11.3592C8.39929 12.4951 9.94066 13.1331 11.5478 13.1331ZM11.5478 2.17373C12.5172 2.17373 13.465 2.46121 14.2711 2.99983C15.0772 3.53845 15.7054 4.30401 16.0764 5.1997C16.4474 6.09538 16.5445 7.08098 16.3554 8.03183C16.1662 8.98269 15.6994 9.85611 15.0139 10.5416C14.3283 11.2272 13.4549 11.694 12.5041 11.8832C11.5532 12.0723 10.5676 11.9752 9.67192 11.6042C8.77623 11.2332 8.01067 10.6049 7.47205 9.79884C6.93343 8.99274 6.64595 8.04502 6.64595 7.07554C6.64595 5.7755 7.16238 4.5287 8.08165 3.60943C9.00092 2.69016 10.2477 2.17373 11.5478 2.17373Z" fill="currentColor"/>
<path d="M9.57855 9.67174C9.42452 9.67174 9.27679 9.73293 9.16787 9.84185C9.05896 9.95077 8.99777 10.0985 8.99777 10.2525C8.99777 10.4066 9.05896 10.5543 9.16787 10.6632C9.27679 10.7721 9.42452 10.8333 9.57855 10.8333H10.9957V11.0424C10.9957 11.1964 11.0569 11.3441 11.1658 11.4531C11.2747 11.562 11.4224 11.6232 11.5764 11.6232C11.7305 11.6232 11.8782 11.562 11.9871 11.4531C12.096 11.3441 12.1572 11.1964 12.1572 11.0424V10.8217C12.6402 10.7743 13.0913 10.5589 13.4319 10.2132C13.7724 9.86738 13.9809 9.41309 14.021 8.92942C14.0611 8.44575 13.9302 7.96334 13.6512 7.56623C13.3722 7.16912 12.9627 6.88247 12.4941 6.75621L12.1572 6.68071V4.53761H13.5105C13.6645 4.53761 13.8122 4.47642 13.9211 4.36751C14.03 4.25859 14.0912 4.11086 14.0912 3.95683C14.0912 3.8028 14.03 3.65507 13.9211 3.54615C13.8122 3.43724 13.6645 3.37605 13.5105 3.37605H12.1572V3.16697C12.1572 3.01293 12.096 2.86521 11.9871 2.75629C11.8782 2.64737 11.7305 2.58618 11.5764 2.58618C11.4224 2.58618 11.2747 2.64737 11.1658 2.75629C11.0569 2.86521 10.9957 3.01293 10.9957 3.16697V3.38185C10.49 3.39743 10.0073 3.59687 9.63808 3.94279C9.26887 4.28872 9.03846 4.75739 8.99002 5.26101C8.94159 5.76463 9.07844 6.26863 9.37495 6.67859C9.67145 7.08854 10.1073 7.37632 10.6007 7.48799L10.9957 7.58092V9.67174H9.57855ZM10.8737 6.36127C10.6607 6.31064 10.4727 6.18601 10.3431 6.0096C10.2135 5.83319 10.1508 5.61648 10.1661 5.39812C10.1815 5.17977 10.2739 4.97396 10.4269 4.81742C10.5799 4.66087 10.7835 4.56377 11.0015 4.54342V6.39031L10.8737 6.36127ZM12.2327 7.87131C12.4388 7.91974 12.6215 8.03834 12.7497 8.20677C12.8779 8.37519 12.9435 8.58296 12.9352 8.79445C12.927 9.00593 12.8454 9.20796 12.7045 9.36591C12.5637 9.52385 12.3722 9.62787 12.163 9.66012V7.85389L12.2327 7.87131Z" fill="currentColor"/>
</svg>
