<svg width="25" height="24" viewBox="0 0 25 24" fill="none" xmlns="http://www.w3.org/2000/svg">
<path d="M22.0176 6.64653C21.9821 6.5427 21.9247 6.4477 21.8493 6.36798L21.5185 6.03719C21.4141 5.93854 21.3096 5.83408 21.211 5.72962L21.1123 5.63677L16.522 1.04062C16.4973 1.01919 16.4672 1.00511 16.4349 1H7.23681C6.74992 1.00154 6.28349 1.19603 5.93975 1.54086C5.59601 1.88569 5.40299 2.35273 5.40299 2.83962V11.3762H4.91552C4.47427 11.3777 4.05152 11.5536 3.7395 11.8657C3.42749 12.1777 3.25153 12.6004 3.25 13.0417V17.5218C3.25 17.9635 3.42547 18.3871 3.73781 18.6995C4.05016 19.0118 4.4738 19.1873 4.91552 19.1873H5.37397V21.1604C5.37397 21.6473 5.56699 22.1143 5.91074 22.4591C6.25448 22.804 6.7209 22.9985 7.20779 23H20.1896C20.6765 22.9985 21.1429 22.804 21.4867 22.4591C21.8304 22.1143 22.0234 21.6473 22.0234 21.1604V7.81298C22.079 7.426 22.0771 7.03293 22.0176 6.64653ZM6.55203 13.4885C6.55203 13.4116 6.5826 13.3378 6.63701 13.2833C6.69143 13.2289 6.76524 13.1984 6.84219 13.1984H8.15372C8.46154 13.1984 8.75675 13.3206 8.97442 13.5383C9.19208 13.756 9.31436 14.0512 9.31436 14.359C9.31436 14.6668 9.19208 14.962 8.97442 15.1797C8.75675 15.3974 8.46154 15.5197 8.15372 15.5197H7.13235V17.1794C7.13235 17.2563 7.10178 17.3301 7.04736 17.3845C6.99295 17.439 6.91915 17.4695 6.84219 17.4695C6.76524 17.4695 6.69143 17.439 6.63701 17.3845C6.5826 17.3301 6.55203 17.2563 6.55203 17.1794V13.4885ZM20.886 21.172C20.886 21.3511 20.8153 21.5229 20.6892 21.6501C20.5631 21.7772 20.3919 21.8494 20.2128 21.851H7.23681C7.05774 21.8494 6.88652 21.7772 6.76044 21.6501C6.63436 21.5229 6.56363 21.3511 6.56363 21.172V19.1989H17.1835C17.6242 19.1989 18.047 19.0242 18.3592 18.7131C18.6714 18.402 18.8475 17.9799 18.849 17.5392V13.0533C18.8464 12.9557 18.8347 12.8586 18.8142 12.7631C18.7497 12.3757 18.5498 12.0237 18.2502 11.7697C17.9505 11.5158 17.5705 11.3763 17.1777 11.3762H6.55783V2.83962C6.55783 2.75045 6.5754 2.66216 6.60952 2.57979C6.64364 2.49741 6.69365 2.42256 6.7567 2.35951C6.81975 2.29646 6.8946 2.24645 6.97698 2.21233C7.05935 2.1782 7.14764 2.16064 7.23681 2.16064H16.2898V5.06225C16.2898 5.28326 16.3334 5.5021 16.4179 5.70628C16.5025 5.91047 16.6265 6.09599 16.7827 6.25226C16.939 6.40854 17.1245 6.5325 17.3287 6.61708C17.5329 6.70165 17.7518 6.74518 17.9728 6.74518H20.8744L20.886 21.172ZM10.2081 17.1794V13.4885C10.2081 13.4116 10.2386 13.3378 10.293 13.2833C10.3475 13.2289 10.4213 13.1984 10.4982 13.1984H11.9142C12.2642 13.2044 12.5982 13.3465 12.8452 13.5946C13.0922 13.8427 13.2329 14.1772 13.2373 14.5273V16.1986C13.2389 16.3675 13.2068 16.535 13.1429 16.6913C13.079 16.8476 12.9846 16.9895 12.8651 17.109C12.7457 17.2284 12.6038 17.3228 12.4474 17.3867C12.2911 17.4506 12.1237 17.4827 11.9548 17.4811H10.4982C10.4591 17.4812 10.4204 17.4733 10.3844 17.458C10.3484 17.4427 10.3159 17.4203 10.2888 17.3921C10.2617 17.3639 10.2406 17.3305 10.2267 17.294C10.2128 17.2574 10.2065 17.2184 10.2081 17.1794ZM15.7501 14.9509C15.8271 14.9509 15.9009 14.9815 15.9553 15.0359C16.0097 15.0903 16.0403 15.1641 16.0403 15.2411C16.0403 15.3181 16.0097 15.3919 15.9553 15.4463C15.9009 15.5007 15.8271 15.5313 15.7501 15.5313H14.7346V17.1794C14.7346 17.2563 14.704 17.3301 14.6496 17.3845C14.5952 17.439 14.5214 17.4695 14.4444 17.4695C14.3674 17.4695 14.2936 17.439 14.2392 17.3845C14.1848 17.3301 14.1542 17.2563 14.1542 17.1794V13.4885C14.1542 13.4116 14.1848 13.3378 14.2392 13.2833C14.2936 13.2289 14.3674 13.1984 14.4444 13.1984H16.6322C16.7092 13.1984 16.783 13.2289 16.8374 13.2833C16.8918 13.3378 16.9224 13.4116 16.9224 13.4885C16.9224 13.5655 16.8918 13.6393 16.8374 13.6937C16.783 13.7481 16.7092 13.7787 16.6322 13.7787H14.7346V14.9393L15.7501 14.9509Z" fill="white"/>
<path d="M12.4246 16.721C12.498 16.6554 12.5567 16.5748 12.5967 16.4848C12.6367 16.3948 12.6572 16.2973 12.6567 16.1987V14.5274C12.6575 14.3436 12.5867 14.1667 12.4594 14.0342C12.3907 13.9567 12.3068 13.8941 12.213 13.8502C12.1192 13.8062 12.0174 13.782 11.9139 13.7788H10.7881V16.9009H11.9487C12.1244 16.9031 12.2943 16.8389 12.4246 16.721Z" fill="white"/>
<path d="M8.74036 14.3708C8.74036 14.2169 8.67922 14.0693 8.57039 13.9605C8.46155 13.8517 8.31395 13.7905 8.16004 13.7905H7.13867V14.9512H8.16004C8.31395 14.9512 8.46155 14.89 8.57039 14.7812C8.67922 14.6724 8.74036 14.5248 8.74036 14.3708Z" fill="white"/>
</svg>
