<svg width="25" height="24" viewBox="0 0 25 24" fill="none" xmlns="http://www.w3.org/2000/svg">
<path d="M20.3686 5.50535L15.8818 1.01855L20.3686 5.50535Z" fill="#EDEDED"/>
<path d="M17.3242 6.54453C17.1351 6.54534 16.9476 6.50877 16.7726 6.43694C16.5976 6.36511 16.4386 6.25943 16.3045 6.12595C16.1705 5.99248 16.0641 5.83385 15.9915 5.65916C15.919 5.48448 15.8816 5.29718 15.8816 5.10802V1.01855H6.419C6.06882 1.01855 5.73298 1.15766 5.48536 1.40528C5.23774 1.65289 5.09863 1.98874 5.09863 2.33892V11.3431H16.8902C17.306 11.3464 17.7071 11.4968 18.0226 11.7675C18.3381 12.0383 18.5477 12.412 18.614 12.8224C18.6234 12.9016 18.6234 12.9816 18.614 13.0608V13.128V17.8532V19.6382C18.614 19.8003 18.5496 19.9558 18.435 20.0704C18.3204 20.185 18.1649 20.2494 18.0028 20.2494H5.09863V21.6798C5.09863 22.03 5.23774 22.3659 5.48536 22.6135C5.73298 22.8611 6.06882 23.0002 6.419 23.0002H20.0872C20.438 23.0002 20.7744 22.8613 21.023 22.6138C21.2716 22.3664 21.4121 22.0306 21.4137 21.6798V10.2489L17.746 6.54453H17.3242Z" fill="#EDEDED"/>
<path d="M20.3682 5.50537L21.4135 6.55066L20.3682 5.50537Z" fill="#DDDDDD"/>
<path d="M21.4131 10.249V6.55078H17.7148L21.4131 10.249Z" fill="#DDDDDD"/>
<path d="M18.6446 19.6072V17.8223C18.6446 18.2876 18.4598 18.7338 18.1308 19.0628C17.8018 19.3918 17.3555 19.5766 16.8902 19.5766H5.09863V20.2246H18.0333C18.1141 20.2246 18.1941 20.2086 18.2687 20.1775C18.3432 20.1464 18.4109 20.1008 18.4677 20.0434C18.5246 19.986 18.5695 19.9179 18.5998 19.843C18.6302 19.7681 18.6454 19.688 18.6446 19.6072Z" fill="#CAD1D8"/>
<path d="M18.6445 13.0299C18.6538 12.9507 18.6538 12.8707 18.6445 12.7915C18.6539 12.8932 18.6539 12.9955 18.6445 13.0971V13.0299Z" fill="#CAD1D8"/>
<path d="M20.3805 5.4868L15.8937 1V5.08946C15.8912 5.27913 15.9264 5.46741 15.9971 5.64341C16.0679 5.81942 16.1727 5.97968 16.3057 6.11494C16.4387 6.2502 16.5972 6.35778 16.7719 6.43148C16.9467 6.50517 17.1344 6.54352 17.3241 6.54431H21.4135L20.3805 5.4868Z" fill="#B0B7BD"/>
<path d="M7.17716 13.8125H6.10742V15.0351H7.17716C7.33928 15.0351 7.49477 14.9707 7.6094 14.856C7.72404 14.7414 7.78844 14.5859 7.78844 14.4238C7.78844 14.2617 7.72404 14.1062 7.6094 13.9915C7.49477 13.8769 7.33928 13.8125 7.17716 13.8125Z" fill="#F15642"/>
<path d="M11.1446 13.8125H9.98926V17.1012H11.2118C11.3945 17.1008 11.5707 17.0334 11.707 16.9117C11.7839 16.8409 11.8453 16.7549 11.8874 16.6591C11.9295 16.5634 11.9513 16.46 11.9515 16.3554V14.6011C11.9523 14.4074 11.8777 14.2211 11.7436 14.0815C11.668 13.9974 11.5756 13.9301 11.4725 13.8838C11.3693 13.8375 11.2576 13.8132 11.1446 13.8125Z" fill="#F15642"/>
<path d="M18.614 12.8223C18.5411 12.4174 18.3289 12.0509 18.014 11.7863C17.6991 11.5216 17.3015 11.3756 16.8902 11.3735H4.00438C3.53958 11.3751 3.09429 11.5605 2.76563 11.8892C2.43697 12.2178 2.25161 12.6631 2.25 13.1279V17.8531C2.25161 18.3179 2.43697 18.7632 2.76563 19.0919C3.09429 19.4205 3.53958 19.6059 4.00438 19.6075H16.8902C17.3555 19.6075 17.8017 19.4227 18.1307 19.0936C18.4597 18.7646 18.6445 18.3184 18.6445 17.8531V13.0973C18.642 13.005 18.6318 12.913 18.614 12.8223ZM7.17692 15.6708H6.10718V17.413C6.10562 17.4936 6.07291 17.5704 6.01593 17.6274C5.95895 17.6844 5.88211 17.7171 5.80154 17.7186C5.72048 17.7186 5.64274 17.6864 5.58542 17.6291C5.5281 17.5718 5.4959 17.494 5.4959 17.413V13.5069C5.4959 13.4258 5.5281 13.3481 5.58542 13.2908C5.64274 13.2335 5.72048 13.2013 5.80154 13.2013H7.17692C7.50117 13.2013 7.81213 13.3301 8.04141 13.5593C8.27068 13.7886 8.39948 14.0996 8.39948 14.4238C8.39948 14.7481 8.27068 15.059 8.04141 15.2883C7.81213 15.5176 7.50117 15.6464 7.17692 15.6464V15.6708ZM12.5379 16.3616C12.5348 16.7147 12.3948 17.0529 12.1474 17.3049C11.9 17.5569 11.5644 17.703 11.2114 17.7125H9.67706C9.596 17.7125 9.51826 17.6803 9.46094 17.623C9.40362 17.5657 9.37142 17.4879 9.37142 17.4069V13.5069C9.37142 13.4258 9.40362 13.3481 9.46094 13.2908C9.51826 13.2335 9.596 13.2013 9.67706 13.2013H11.1686C11.5363 13.2106 11.8863 13.3613 12.1459 13.622C12.4054 13.8827 12.5546 14.2333 12.5623 14.6011L12.5379 16.3616ZM16.1016 13.8125H14.0966V15.0351H15.1725C15.2535 15.0351 15.3313 15.0673 15.3886 15.1246C15.4459 15.1819 15.4781 15.2597 15.4781 15.3407C15.4781 15.4218 15.4459 15.4995 15.3886 15.5569C15.3313 15.6142 15.2535 15.6464 15.1725 15.6464H14.0966V17.3885C14.0966 17.4696 14.0644 17.5473 14.0071 17.6047C13.9498 17.662 13.872 17.6942 13.791 17.6942C13.7104 17.6926 13.6336 17.6599 13.5766 17.6029C13.5196 17.5459 13.4869 17.4691 13.4853 17.3885V13.5069C13.4869 13.4263 13.5196 13.3495 13.5766 13.2925C13.6336 13.2355 13.7104 13.2028 13.791 13.2013H16.1016C16.1822 13.2028 16.259 13.2355 16.316 13.2925C16.373 13.3495 16.4057 13.4263 16.4073 13.5069C16.4073 13.588 16.3751 13.6657 16.3177 13.723C16.2604 13.7803 16.1827 13.8125 16.1016 13.8125Z" fill="#F15642"/>
<path d="M7.17711 13.2012H5.80173C5.72067 13.2012 5.64293 13.2334 5.58561 13.2907C5.52829 13.348 5.49609 13.4258 5.49609 13.5068V17.4129C5.49609 17.494 5.52829 17.5717 5.58561 17.629C5.64293 17.6863 5.72067 17.7185 5.80173 17.7185C5.8823 17.717 5.95914 17.6843 6.01612 17.6273C6.0731 17.5703 6.10581 17.4935 6.10737 17.4129V15.6707H7.17711C7.50136 15.6707 7.81232 15.5419 8.0416 15.3127C8.27087 15.0834 8.39968 14.7724 8.39968 14.4482C8.39968 14.1239 8.27087 13.813 8.0416 13.5837C7.81232 13.3544 7.50136 13.2256 7.17711 13.2256V13.2012ZM7.17711 15.035H6.10737V13.8125H7.17711C7.33924 13.8125 7.49472 13.8769 7.60936 13.9915C7.72399 14.1061 7.7884 14.2616 7.7884 14.4237C7.7884 14.5859 7.72399 14.7413 7.60936 14.856C7.49472 14.9706 7.33924 15.035 7.17711 15.035Z" fill="white"/>
<path d="M16.1016 13.2012H13.791C13.7104 13.2027 13.6336 13.2354 13.5766 13.2924C13.5196 13.3494 13.4869 13.4262 13.4854 13.5068V17.4129C13.4869 17.4935 13.5196 17.5703 13.5766 17.6273C13.6336 17.6843 13.7104 17.717 13.791 17.7185C13.8721 17.7185 13.9498 17.6863 14.0071 17.629C14.0644 17.5717 14.0966 17.494 14.0966 17.4129V15.6707H15.1725C15.2535 15.6707 15.3313 15.6385 15.3886 15.5812C15.4459 15.5239 15.4781 15.4462 15.4781 15.3651C15.4781 15.284 15.4459 15.2063 15.3886 15.149C15.3313 15.0917 15.2535 15.0595 15.1725 15.0595H14.0966V13.8369H16.1016C16.1827 13.8369 16.2604 13.8047 16.3178 13.7474C16.3751 13.6901 16.4073 13.6123 16.4073 13.5313C16.4097 13.4893 16.4037 13.4473 16.3896 13.4077C16.3754 13.3682 16.3534 13.3319 16.3248 13.3011C16.2963 13.2702 16.2618 13.2455 16.2234 13.2283C16.1851 13.2112 16.1436 13.2019 16.1016 13.2012Z" fill="white"/>
<path d="M11.1438 13.2012H9.65232C9.57126 13.2012 9.49352 13.2334 9.4362 13.2907C9.37888 13.348 9.34668 13.4258 9.34668 13.5068V17.4129C9.34668 17.494 9.37888 17.5717 9.4362 17.629C9.49352 17.6863 9.57126 17.7185 9.65232 17.7185H11.2111C11.5694 17.7153 11.9121 17.5711 12.1649 17.3171C12.4178 17.0632 12.5604 16.7199 12.562 16.3615V14.601C12.5543 14.2332 12.4051 13.8826 12.1456 13.6219C11.886 13.3612 11.536 13.2105 11.1683 13.2012H11.1438ZM11.9263 16.3615C11.9261 16.4661 11.9043 16.5695 11.8622 16.6652C11.8201 16.7609 11.7587 16.8469 11.6818 16.9178C11.5455 17.0394 11.3693 17.1069 11.1866 17.1073H9.96407V13.8125H11.15C11.2589 13.8165 11.3659 13.8424 11.4646 13.8886C11.5633 13.9348 11.6517 14.0004 11.7246 14.0814C11.8587 14.2211 11.9332 14.4074 11.9324 14.601L11.9263 16.3615Z" fill="white"/>
</svg>
