<svg width="24" height="24" viewBox="0 0 24 24" fill="none" xmlns="http://www.w3.org/2000/svg">
<path d="M20.0332 2.57922C19.7461 2.00496 19.2522 1.57426 18.632 1.37327C17.3744 0.959802 16.0076 1.63169 15.5884 2.8721L14.4514 6.20856V3.37745C14.4514 2.06813 13.3718 1 12.0395 1C10.7072 1 9.62757 2.06813 9.62757 3.37745V7.31689C9.10499 7.09867 8.53073 7.08144 7.99667 7.28818C7.36498 7.52937 6.91131 8.04046 6.68161 8.64918C6.12457 8.32185 5.4412 8.21848 4.78654 8.4367C3.70693 8.79849 3.08672 9.88958 3.259 10.9749L3.26474 18.5954C3.26474 21.0245 5.21723 23 7.61765 23H14.8017C16.9896 23 18.8043 21.2772 19.011 19.0318L19.5508 15.7298C19.5566 15.7126 19.5451 15.6896 19.5508 15.6724L19.5623 15.6035C19.7633 14.5239 19.0512 13.4845 17.9716 13.2835L17.1676 13.1342L20.1481 4.38815C20.3548 3.78517 20.3146 3.142 20.0332 2.57922ZM8.41014 8.3563C8.6743 8.25294 8.96717 8.26442 9.22559 8.38502C9.51272 8.5171 9.7252 8.76403 9.84005 9.08562L10.8852 11.9914C10.6498 12.0258 10.4545 12.2039 10.4086 12.4451L10.2363 13.3524C10.1846 13.6395 10.1674 13.9209 10.1904 14.208C9.97788 14.2482 9.75391 14.2253 9.55292 14.1334C9.26579 14.0013 9.05331 13.7544 8.9442 13.4385L7.73825 9.93553C7.51429 9.29235 7.81865 8.58601 8.41014 8.3563ZM5.15407 9.52206C5.27466 9.48186 5.39526 9.46463 5.51586 9.46463C5.9925 9.46463 6.44042 9.76899 6.60121 10.2456L7.80142 13.8061C8.00241 14.4033 7.68082 15.0522 7.08359 15.2532C6.79646 15.3508 6.48636 15.3279 6.21071 15.1958C5.93506 15.0579 5.73407 14.8282 5.63645 14.5354L4.43624 10.9749C4.23525 10.372 4.55684 9.72305 5.15407 9.52206ZM14.8017 21.8515H7.61765C5.88338 21.8515 4.41327 20.3584 4.41327 18.5954L4.40753 14.5181L4.5396 14.9029C4.73485 15.4829 5.14259 15.9538 5.69388 16.2237C6.01546 16.3845 6.36002 16.4649 6.71032 16.4649C6.95725 16.4649 7.20419 16.4247 7.44538 16.3443C8.10004 16.1261 8.58242 15.6265 8.82361 15.035C8.904 15.0809 8.97866 15.1383 9.05906 15.1785C9.35193 15.3164 9.66777 15.3853 9.98362 15.3853C10.1387 15.3853 10.2937 15.3623 10.443 15.3279C10.5292 15.5288 10.6383 15.7241 10.7646 15.9079C11.2815 16.6601 12.0567 17.1655 12.9468 17.332L17.0585 18.1015C17.1791 18.1245 17.3055 18.136 17.4261 18.136C17.627 18.136 17.8166 18.1015 18.0003 18.0441L17.8625 18.8883C17.7189 20.5766 16.3981 21.8515 14.8017 21.8515ZM18.431 15.391L18.2587 16.2984C18.1726 16.752 17.7304 17.0564 17.2768 16.9702L13.165 16.2007C12.5735 16.0916 12.0567 15.7528 11.7179 15.2589C11.3791 14.7651 11.2527 14.1621 11.3618 13.5649L11.425 13.2203L17.7591 14.4033C18.2185 14.4952 18.5172 14.9374 18.431 15.391ZM19.0627 4.00914L16.0249 12.9159L12.1773 12.1924L10.9197 8.70086C10.8795 8.59175 10.8278 8.48838 10.7761 8.38502V3.37745C10.7761 2.69982 11.3389 2.14853 12.0395 2.14853C12.7401 2.14853 13.3029 2.69982 13.3029 3.37745V9.61394C13.3029 9.62542 13.3086 9.64265 13.3086 9.65414C13.3029 9.89533 13.4464 10.125 13.6876 10.2112C13.9862 10.3145 14.3136 10.1537 14.4169 9.85513L16.6738 3.23962C16.892 2.59645 17.6156 2.24615 18.276 2.46437C18.5976 2.57348 18.856 2.7917 19.0053 3.09032C19.1488 3.37745 19.1718 3.70478 19.0627 4.00914Z" fill="currentColor"/>
</svg>
