<svg width="24" height="25" viewBox="0 0 24 25" fill="none" xmlns="http://www.w3.org/2000/svg">
<g clip-path="url(#clip0_88_3319)">
<path d="M23.9225 -1.7075L-1.7075 24.0125C-2.0975 24.4025 -2.0975 25.0325 -1.7075 25.4225C-1.5075 25.6125 -1.2575 25.7125 -0.9975 25.7125C-0.7375 25.7125 -0.4875 25.6125 -0.2875 25.4225L25.3425 -0.2975C25.7325 -0.6875 25.7325 -1.3175 25.3425 -1.7075C24.9425 -2.0975 24.3125 -2.0975 23.9225 -1.7075Z" fill="currentColor"/>
<path d="M19.5725 16.2524C17.9225 16.2524 16.5725 17.6024 16.5725 19.2524C16.5725 20.9024 17.9225 22.2524 19.5725 22.2524C21.2225 22.2524 22.5725 20.9024 22.5725 19.2524C22.5725 17.6024 21.2325 16.2524 19.5725 16.2524ZM19.5725 20.2524C19.0225 20.2524 18.5725 19.8024 18.5725 19.2524C18.5725 18.7024 19.0225 18.2524 19.5725 18.2524C20.1225 18.2524 20.5725 18.7024 20.5725 19.2524C20.5725 19.8024 20.1225 20.2524 19.5725 20.2524Z" fill="currentColor"/>
<path d="M4.14246 7.14246C5.79246 7.14246 7.14246 5.79246 7.14246 4.14246C7.14246 2.49246 5.79246 1.14246 4.14246 1.14246C2.49246 1.14246 1.14246 2.49246 1.14246 4.14246C1.14246 5.79246 2.49246 7.14246 4.14246 7.14246ZM4.14246 3.14246C4.69246 3.14246 5.14246 3.59246 5.14246 4.14246C5.14246 4.69246 4.69246 5.14246 4.14246 5.14246C3.59246 5.14246 3.14246 4.69246 3.14246 4.14246C3.14246 3.59246 3.59246 3.14246 4.14246 3.14246Z" fill="currentColor"/>
</g>
<defs>
<clipPath id="clip0_88_3319">
<rect width="24" height="24" fill="white" transform="translate(0 0.104004)"/>
</clipPath>
</defs>
</svg>
