<svg width="24" height="25" viewBox="0 0 24 25" fill="none" xmlns="http://www.w3.org/2000/svg">
<path d="M19.5205 1H1.57895C1.26053 1 1 1.26053 1 1.57895V19.5147C1 21.4368 2.56316 23 4.48526 23H22.4211C22.7395 23 23 22.7395 23 22.4211V4.48526C23 2.56316 21.4368 1 19.5205 1ZM21.8421 21.8421H4.48526C3.2 21.8421 2.15789 20.8 2.15789 19.5147V2.15789H19.5147C20.8 2.15789 21.8421 3.2 21.8421 4.48526V21.8421Z" fill="currentColor"/>
<path d="M17.5463 5.61418L5.63736 17.5637C5.41157 17.7894 5.41157 18.1542 5.63736 18.38C5.75315 18.49 5.89789 18.5479 6.04841 18.5479C6.19894 18.5479 6.34368 18.49 6.45947 18.38L18.3684 6.43629C18.5942 6.2105 18.5942 5.84576 18.3684 5.61997C18.1368 5.38839 17.7721 5.38839 17.5463 5.61418Z" fill="currentColor"/>
<path d="M15.6068 13.6963C14.6516 13.6963 13.87 14.4779 13.87 15.4331C13.87 16.3884 14.6516 17.17 15.6068 17.17C16.5621 17.17 17.3437 16.3884 17.3437 15.4331C17.3437 14.4779 16.5621 13.6963 15.6068 13.6963ZM15.6068 16.0121C15.2884 16.0121 15.0279 15.7516 15.0279 15.4331C15.0279 15.1147 15.2884 14.8542 15.6068 14.8542C15.9253 14.8542 16.1858 15.1147 16.1858 15.4331C16.1858 15.7516 15.9253 16.0121 15.6068 16.0121Z" fill="currentColor"/>
<path d="M8.43374 10.1532C9.389 10.1532 10.1706 9.37167 10.1706 8.41641C10.1706 7.46114 9.389 6.67957 8.43374 6.67957C7.47848 6.67957 6.6969 7.46114 6.6969 8.41641C6.6969 9.37167 7.47848 10.1532 8.43374 10.1532ZM8.43374 7.83746C8.75216 7.83746 9.01269 8.09799 9.01269 8.41641C9.01269 8.73483 8.75216 8.99536 8.43374 8.99536C8.11532 8.99536 7.85479 8.73483 7.85479 8.41641C7.85479 8.09799 8.11532 7.83746 8.43374 7.83746Z" fill="currentColor"/>
</svg>
