<svg width="24" height="24" viewBox="0 0 24 24" fill="none" xmlns="http://www.w3.org/2000/svg">
<path d="M19.5147 1H1.57895C1.26053 1 1 1.26053 1 1.57895V19.5147C1 21.4368 2.56316 23 4.48527 23H22.4211C22.7395 23 23 22.7395 23 22.4211V4.48526C23 2.56316 21.4368 1 19.5147 1ZM21.8421 21.8421H4.48527C3.20579 21.8421 2.15789 20.8 2.15789 19.5147V2.15789H19.5147C20.8 2.15789 21.8421 3.2 21.8421 4.48526V21.8421Z" fill="currentColor"/>
<path d="M19.4453 8.8853H15.1148V4.55478C15.1148 4.23636 14.8543 3.97583 14.5358 3.97583H9.46425C9.14583 3.97583 8.8853 4.23636 8.8853 4.55478V8.8853H4.55478C4.23636 8.8853 3.97583 9.14583 3.97583 9.46425V14.5358C3.97583 14.8543 4.23636 15.1148 4.55478 15.1148H8.8853V19.4453C8.8853 19.7637 9.14583 20.0243 9.46425 20.0243H14.5358C14.8543 20.0243 15.1148 19.7637 15.1148 19.4453V15.1148H19.4453C19.7637 15.1148 20.0243 14.8543 20.0243 14.5358V9.46425C20.0243 9.14583 19.7637 8.8853 19.4453 8.8853ZM18.8664 13.9569H14.5358C14.2174 13.9569 13.9569 14.2174 13.9569 14.5358V18.8664H10.0432V14.5358C10.0432 14.2174 9.78267 13.9569 9.46425 13.9569H5.13372V10.0432H9.46425C9.78267 10.0432 10.0432 9.78267 10.0432 9.46425V5.13372H13.9569V9.46425C13.9569 9.78267 14.2174 10.0432 14.5358 10.0432H18.8664V13.9569Z" fill="currentColor"/>
</svg>
