<svg width="24" height="24" viewBox="0 0 24 24" fill="none" xmlns="http://www.w3.org/2000/svg">
<path d="M21.2261 18.2122L17.2195 14.2697C16.9924 14.0484 16.6313 14.0484 16.4042 14.2697C16.4042 14.2697 15.9383 14.7239 15.519 15.1199L14.267 16.3079L14.1447 16.2147C13.5623 15.7721 12.8402 15.2131 11.5299 13.4602L21.5289 3.48446C21.756 3.25734 21.756 2.89046 21.5289 2.66334C21.3018 2.43622 20.9349 2.43622 20.7078 2.66334L10.8427 12.5051C9.86435 11.0667 9.58483 10.3155 9.36354 9.69818L9.31113 9.55259L10.8194 8.714C11.5823 8.28306 11.8968 7.32218 11.5357 6.536L9.26453 1.37051C9.13641 1.07933 8.80446 0.94539 8.51328 1.06768L5.70635 2.21492C5.02499 2.48863 4.47758 3.00693 4.17475 3.67663C3.23134 5.77893 3.07411 9.58753 7.56406 15.7896L2.74798 20.594C2.52086 20.8212 2.52086 21.188 2.74798 21.4152C2.86445 21.5316 3.01003 21.584 3.16144 21.584C3.31285 21.584 3.45846 21.5258 3.57493 21.4152L8.27452 16.7272C11.1514 20.4368 13.9816 22.5275 16.6954 22.9468C17.0157 22.9992 17.336 23.0225 17.6563 23.0225C17.8834 23.0225 18.1163 23.0108 18.3434 22.9817C19.0714 22.8943 19.7353 22.5275 20.1953 21.9626L21.3892 20.53C21.9482 19.8312 21.8783 18.8062 21.2261 18.2122ZM5.22881 4.14252C5.40934 3.74652 5.72964 3.44369 6.13728 3.28063L8.42593 2.34304L10.4758 6.99606C10.5923 7.24647 10.4933 7.54929 10.2545 7.68324L8.67634 8.56259C8.21628 8.813 8.00664 9.37206 8.193 9.85542L8.27452 10.0825C8.53075 10.7872 8.85105 11.6549 10.0099 13.3263L8.39682 14.9394C4.33781 9.28471 4.41934 5.94782 5.22881 4.14252ZM20.4749 19.7787L19.281 21.2113C19.0073 21.5491 18.6172 21.7588 18.192 21.8112C17.7494 21.8636 17.301 21.8519 16.8584 21.782C14.4533 21.4093 11.7745 19.3769 9.08983 15.8828L10.6971 14.2813C12.0482 16.0691 12.8169 16.6515 13.4342 17.129L13.6264 17.2746C14.0398 17.5949 14.6338 17.56 15.0066 17.2047L16.3227 15.9643C16.4915 15.8071 16.6663 15.644 16.8118 15.4984L20.4283 19.0566C20.6321 19.243 20.6554 19.5633 20.4749 19.7787Z" fill="currentColor"/>
</svg>
