<svg width="24" height="24" viewBox="0 0 24 24" fill="none" xmlns="http://www.w3.org/2000/svg">
<path d="M15.588 14.2655C15.3609 14.0442 14.9998 14.0442 14.7727 14.2655C14.7727 14.2655 14.3068 14.7197 13.8875 15.1157L12.6355 16.3037L12.5132 16.2105C11.9075 15.7505 11.1563 15.174 9.73533 13.2347C8.31439 11.2955 7.99409 10.4045 7.73203 9.68817L7.67962 9.54258L9.18792 8.70399C9.9508 8.27305 10.2653 7.31216 9.90422 6.52599L7.63304 1.3605C7.50492 1.06932 7.17297 0.935381 6.8818 1.05768L4.07484 2.20491C3.39349 2.47862 2.84607 2.99692 2.54325 3.66662C1.59401 5.79222 1.43096 9.64159 6.04903 15.9427C9.12387 20.1356 12.1579 22.4942 15.0581 22.9367C15.3784 22.9892 15.6986 23.0124 16.0189 23.0124C16.2461 23.0124 16.479 23.0008 16.7061 22.9717C17.4341 22.8843 18.0979 22.5174 18.558 21.9526L19.7518 20.52C20.3342 19.8211 20.2643 18.7962 19.6063 18.2022L15.588 14.2655ZM18.8434 19.7746L17.6495 21.2071C17.3758 21.5449 16.9856 21.7546 16.5605 21.807C16.1179 21.8594 15.6695 21.8477 15.2269 21.7779C12.6762 21.3877 9.8285 19.1281 6.98079 15.2438C2.69466 9.397 2.77619 5.97275 3.59731 4.13251C3.77784 3.73651 4.09813 3.43368 4.50578 3.27062L6.79445 2.33303L8.84433 6.98605C8.9608 7.23646 8.8618 7.53928 8.62303 7.67322L7.04485 8.55258C6.58479 8.80299 6.37514 9.36205 6.56149 9.84541L6.64303 10.0725C6.92838 10.8587 7.28363 11.8371 8.79775 13.9102C10.3177 15.9834 11.1446 16.6124 11.8085 17.119L12.0007 17.2646C12.4142 17.5849 13.0082 17.55 13.3809 17.1947L14.697 15.9543C14.8659 15.7971 15.0406 15.634 15.1862 15.4884L18.8026 19.0466C19.0006 19.2388 19.0239 19.5591 18.8434 19.7746Z" fill="currentColor"/>
<path d="M22.5764 6.09507C22.5822 5.97277 22.5531 5.84466 22.489 5.73983C22.4657 5.70489 22.4424 5.66995 22.4133 5.64083L19.2162 2.43206C18.9891 2.20494 18.6222 2.20494 18.3951 2.43206C18.1679 2.65918 18.1679 3.02606 18.3951 3.25318L20.6022 5.46613H13.0607C12.7404 5.46613 12.4783 5.72819 12.4783 6.04848C12.4783 6.36878 12.7404 6.63084 13.0607 6.63084H20.6255L18.4649 8.84961C18.2378 9.08255 18.2437 9.44943 18.4766 9.67655C18.5872 9.7872 18.7386 9.83961 18.8842 9.83961C19.0356 9.83961 19.1871 9.78137 19.3035 9.6649L22.425 6.45613C22.5181 6.36295 22.5705 6.22901 22.5764 6.09507Z" fill="currentColor"/>
</svg>
