<svg width="24" height="24" viewBox="0 0 24 24" fill="none" xmlns="http://www.w3.org/2000/svg">
<path d="M15.5844 14.262C15.3573 14.0407 14.9964 14.0407 14.7693 14.262C14.7693 14.262 14.3036 14.7161 13.8844 15.112L12.6327 16.2997L12.5104 16.2065C11.9049 15.7466 11.1539 15.1702 9.73329 13.2315C8.31272 11.2928 7.9925 10.402 7.73051 9.68588L7.67812 9.54033L9.18602 8.70196C9.9487 8.27113 10.2631 7.3105 9.90213 6.52453L7.63155 1.36041C7.50347 1.06931 7.17161 0.935401 6.88051 1.05766L4.07429 2.2046C3.39312 2.47823 2.84585 2.99639 2.5431 3.66592C1.59412 5.79096 1.43111 9.6393 6.04796 15.9387C9.12198 20.1364 12.1552 22.4885 15.0546 22.9368C15.3748 22.9892 15.695 23.0125 16.0152 23.0125C16.2423 23.0125 16.4752 23.0008 16.7022 22.9717C17.43 22.8844 18.0937 22.5176 18.5536 21.9528L19.7471 20.5206C20.3293 19.822 20.2595 18.8031 19.6016 18.2035L15.5844 14.262ZM18.8389 19.7696L17.6454 21.2018C17.3718 21.5395 16.9817 21.7491 16.5567 21.8015C16.1142 21.8539 15.6659 21.8422 15.2234 21.7724C12.6734 21.3823 9.82643 19.1234 6.97947 15.2401C2.69447 9.39478 2.77598 5.97144 3.59688 4.13168C3.77737 3.73579 4.09758 3.43304 4.50512 3.27003L6.79318 2.33268L8.84252 6.98447C8.95896 7.23481 8.85998 7.53756 8.62128 7.67146L7.04352 8.55059C6.58358 8.80093 6.37398 9.35985 6.56028 9.84307L6.6418 10.0701C6.92708 10.8561 7.28223 11.8342 8.79595 13.9068C10.3097 15.9795 11.1422 16.6082 11.8059 17.1148L11.9981 17.2603C12.4114 17.5805 13.0053 17.5456 13.3779 17.1904L14.6936 15.9504C14.8625 15.7932 15.0313 15.6301 15.1827 15.4846L18.7982 19.0418C18.9961 19.234 19.0194 19.5542 18.8389 19.7696Z" fill="currentColor"/>
<path d="M22.0352 5.47064H14.4724L16.6324 3.25246C16.8594 3.01957 16.8536 2.65279 16.6207 2.42573C16.3878 2.20449 16.0211 2.20449 15.7998 2.43737L12.6792 5.6453C12.6268 5.6977 12.5803 5.77921 12.557 5.84907C12.5279 5.92476 12.5162 6.00626 12.5162 6.08777C12.522 6.15764 12.5395 6.2275 12.5686 6.28572C12.5977 6.34394 12.6385 6.41381 12.685 6.46038L15.8813 9.66831C15.9978 9.78475 16.1433 9.83715 16.2947 9.83715C16.4461 9.83715 16.5916 9.77893 16.7081 9.66831C16.9351 9.44125 16.9351 9.07446 16.7081 8.8474L14.5015 6.63504H22.041C22.3612 6.63504 22.6232 6.37305 22.6232 6.05284C22.6232 5.73263 22.3554 5.47064 22.0352 5.47064Z" fill="currentColor"/>
</svg>
