<svg width="24" height="24" viewBox="0 0 24 24" fill="none" xmlns="http://www.w3.org/2000/svg">
<path d="M17.0022 23.0078C16.6818 23.0078 16.3615 22.9845 16.0411 22.9321C13.1406 22.4836 10.1119 20.1306 7.03077 15.9312C2.41202 9.63497 2.5751 5.77921 3.53031 3.65912C3.83318 2.98349 4.38067 2.46512 5.06213 2.1972L7.86949 1.04979C8.16071 0.9333 8.49271 1.06726 8.62084 1.35266L10.8924 6.51891C11.2535 7.3052 10.9448 8.26623 10.176 8.69724L8.66743 9.53595L8.71985 9.68156C8.97612 10.398 9.30229 11.2891 10.7234 13.2286C12.1446 15.1682 12.896 15.7389 13.5017 16.2049L13.624 16.2981L14.8763 15.1099C15.2956 14.7139 15.7616 14.2595 15.7616 14.2595C15.9887 14.0382 16.3498 14.0382 16.577 14.2595L20.5842 18.2027C21.2365 18.7968 21.3064 19.8219 20.7298 20.5208L19.5358 21.9536C19.0757 22.5186 18.4175 22.8855 17.6836 22.9729C17.4623 22.9962 17.2351 23.0078 17.0022 23.0078ZM7.78213 2.33698L5.49896 3.27471C5.09125 3.4378 4.77091 3.74067 4.59035 4.13673C3.76911 5.97724 3.68757 9.40199 7.97433 15.2497C10.8225 19.1346 13.6764 21.3945 16.2217 21.7847C16.6643 21.8546 17.1128 21.8662 17.5555 21.8138C17.9807 21.7614 18.3709 21.5459 18.6446 21.2139L19.8387 19.7811C20.0192 19.5656 19.9959 19.2452 19.7862 19.053L16.1693 15.4943C16.0178 15.6399 15.8431 15.803 15.68 15.9603L14.3637 17.2009C13.9909 17.562 13.3969 17.5911 12.9833 17.2708L12.7911 17.1252C12.1271 16.6184 11.3001 15.9894 9.77989 13.9159C8.25972 11.8424 7.90444 10.8639 7.62487 10.0776L7.54332 9.85047C7.36277 9.36705 7.56662 8.8079 8.02675 8.55745L9.60517 7.67797C9.84397 7.544 9.94299 7.24114 9.8265 6.99069L7.78213 2.33698Z" fill="currentColor"/>
</svg>
