<svg width="24" height="24" viewBox="0 0 24 24" fill="none" xmlns="http://www.w3.org/2000/svg">
<path fill-rule="evenodd" clip-rule="evenodd" d="M22.2295 10.3741L21.1358 9.88224C20.9912 9.34989 20.6208 8.23311 19.8281 7.45772C19.9438 6.79807 20.1116 5.36883 19.7182 4.35042C19.6661 4.21733 19.5619 4.1016 19.4346 4.03795C19.18 3.91065 18.1674 3.62711 15.6792 5.02164C14.7245 4.74389 11.3452 3.95115 7.6766 5.49613C5.62821 6.36409 4.21632 8.25047 3.90386 10.5419C3.78813 9.78966 3.331 9.14736 2.71185 8.93326C2.17372 8.7481 1.61822 8.92748 1.26525 9.40196C0.93542 9.84752 0.877555 10.3683 1.1148 10.8254C1.34626 11.2768 1.81495 11.6066 2.46882 11.7975C2.24894 12.1389 1.94226 12.3993 1.64136 12.3993C1.32311 12.3993 1.06272 12.6597 1.06272 12.978C1.06272 13.2962 1.32311 13.5566 1.64136 13.5566C2.53247 13.5566 3.2905 12.8449 3.67819 11.9769C3.73605 11.9769 3.79391 11.9769 3.85756 11.9769C3.99065 14.2163 5.15951 16.3746 7.19633 18.0758V18.857C7.19633 19.9564 8.08744 20.8475 9.18686 20.8475H10.7897C11.108 20.8475 11.3683 20.5871 11.3683 20.2689V19.0884C11.9701 19.1289 12.8728 19.1637 13.7061 19.1058C13.8276 20.0895 14.6666 20.8475 15.6792 20.8475H17.3342C17.6524 20.8475 17.9128 20.5871 17.9128 20.2689V17.7923C18.5088 17.4162 19.8223 16.4614 20.5977 15.0148L22.1369 14.4477C22.6345 14.2626 22.9701 13.7823 22.9701 13.2557V11.5372C22.9759 11.0337 22.6808 10.5766 22.2295 10.3741ZM2.15057 10.2989C2.13321 10.2699 2.11006 10.2179 2.20264 10.0905C2.24894 10.0327 2.27208 10.0153 2.30101 10.0153C2.31259 10.0153 2.32416 10.0211 2.34152 10.0269C2.49775 10.079 2.70607 10.322 2.76972 10.675C2.41096 10.565 2.20843 10.4146 2.15057 10.2989ZM21.8186 13.2557C21.8186 13.302 21.7897 13.3483 21.7434 13.3657L19.9901 14.008C19.8512 14.06 19.7355 14.1642 19.6719 14.2973C18.8733 15.958 17.0853 16.9475 17.0622 16.959C16.877 17.0632 16.7613 17.2541 16.7613 17.4682V19.6902H15.685C15.2279 19.6902 14.8518 19.3141 14.8518 18.857V18.6429C14.8518 18.4346 14.7592 18.2321 14.603 18.0932C14.4699 17.9717 14.2963 17.908 14.1169 17.908C14.088 17.908 14.059 17.908 14.0243 17.9138C12.9075 18.0527 11.4378 17.9427 11.0096 17.9022C10.8013 17.8849 10.5988 17.9543 10.4483 18.0932C10.2979 18.2321 10.2111 18.4288 10.2111 18.6371V19.6902H9.18686C8.72973 19.6902 8.35362 19.3141 8.35362 18.857V17.7981C8.35362 17.6187 8.27261 17.4567 8.13373 17.3467C5.84809 15.5298 4.72553 13.1111 5.04957 10.7039C5.30996 8.81753 6.46145 7.26677 8.12795 6.56083C11.9354 4.9522 15.5172 6.17892 15.5519 6.1905C15.714 6.24836 15.8875 6.231 16.038 6.14421C17.5483 5.26467 18.3815 5.09686 18.7287 5.07372C18.9023 5.90696 18.7287 7.10475 18.6303 7.54452C18.584 7.76441 18.665 7.99008 18.8386 8.12316C19.7587 8.83489 20.0653 10.3799 20.0653 10.3914C20.1001 10.5766 20.2216 10.7328 20.3952 10.8081L21.7434 11.4214C21.7839 11.4388 21.8128 11.4793 21.8128 11.5256V13.2557H21.8186Z" fill="currentColor"/>
<path fill-rule="evenodd" clip-rule="evenodd" d="M17.363 9.5061C16.9638 9.5061 16.6455 9.83014 16.6455 10.2236C16.6455 10.6229 16.9696 10.9411 17.363 10.9411C17.7565 10.9411 18.0805 10.6171 18.0805 10.2236C18.0805 9.83014 17.7565 9.5061 17.363 9.5061Z" fill="currentColor"/>
</svg>
