<svg width="24" height="24" viewBox="0 0 24 24" fill="none" xmlns="http://www.w3.org/2000/svg">
<path d="M22.375 8.39925L15.5895 1.61378C15.1425 1.16677 14.5236 0.94899 13.8989 1.01203C13.2685 1.07507 12.7126 1.4132 12.363 1.94045L8.30549 8.09551L5.34257 7.49376C5.15918 7.45364 4.95861 7.51668 4.82106 7.6485L2.15615 10.3134C1.93264 10.5369 1.93264 10.898 2.15615 11.1215L6.99883 15.9641L1.1647 21.804C0.941193 22.0275 0.941193 22.3886 1.1647 22.6121C1.27932 22.7267 1.42259 22.7783 1.5716 22.7783C1.7206 22.7783 1.86387 22.721 1.97849 22.6121L7.8069 16.7837L12.8215 21.7983C12.9304 21.9072 13.0737 21.9645 13.2284 21.9645C13.3831 21.9645 13.5264 21.9014 13.6353 21.7983L16.3002 19.1334C16.432 19.0016 16.4951 18.8067 16.4607 18.6176L15.899 15.6891L22.0598 11.6258C22.5871 11.2762 22.9252 10.7203 22.9882 10.0899C23.0455 9.46521 22.822 8.84627 22.375 8.39925ZM21.418 10.6687L14.9419 14.944C14.7471 15.0701 14.6497 15.3051 14.6955 15.5286L15.2744 18.5316L13.2284 20.5776L3.37113 10.7203L5.41707 8.67434L8.46022 9.28755C8.68946 9.3334 8.92443 9.23598 9.05051 9.04112L13.3258 2.55939C13.4806 2.31869 13.7385 2.16969 14.0193 2.14103C14.3058 2.11238 14.5809 2.2098 14.7815 2.41612L21.567 9.20159C21.7675 9.40217 21.8707 9.68299 21.842 9.96381C21.8077 10.2618 21.6587 10.514 21.418 10.6687Z" fill="currentColor"/>
</svg>
