<svg width="24" height="24" viewBox="0 0 24 24" fill="none" xmlns="http://www.w3.org/2000/svg">
<path d="M21.2949 16.9647C21.1209 16.8081 19.5258 15.1956 18.0932 13.7514H19.1082C19.1372 13.7514 19.1778 13.7572 19.2242 13.7572C19.4446 13.7572 19.8332 13.7166 20.1233 13.4498C20.5409 13.0611 20.6859 12.3245 20.1349 11.7213C19.9202 11.4893 18.2672 9.85946 17.1594 8.76323H17.4726C17.5016 8.76323 17.5422 8.76903 17.5886 8.76903C17.809 8.76903 18.1976 8.72843 18.4876 8.46162C18.7138 8.25862 18.8472 7.96281 18.8588 7.6612C18.8704 7.42919 18.8124 7.08118 18.4992 6.73318C18.1802 6.38517 14.8451 3.14868 14.4739 2.78907L12.8963 1.19402C12.7861 1.08382 12.641 1.02002 12.4844 1.02002C12.3278 1.02002 12.1828 1.08382 12.0726 1.18822L10.4834 2.77747C10.1064 3.14288 6.77129 6.37937 6.45228 6.72738C6.13327 7.06958 6.08107 7.42339 6.09267 7.6554C6.10427 7.95701 6.24347 8.25282 6.46388 8.45582C6.81769 8.78063 7.3165 8.77483 7.47891 8.76323H7.77472C6.64368 9.86526 4.98484 11.4835 4.76443 11.7213C4.44542 12.0693 4.39322 12.4173 4.40482 12.6493C4.41642 12.9509 4.55563 13.241 4.77603 13.4498C5.06604 13.7166 5.45465 13.7572 5.67506 13.7572C5.72146 13.7572 5.76206 13.7572 5.79106 13.7514H6.92789L3.442 17.2721C3.3608 17.3475 3.09399 17.6317 3.02439 17.9739C2.95478 18.3045 3.03599 18.6351 3.24479 18.8845C3.4884 19.1745 3.87121 19.3253 4.37582 19.3253C4.39902 19.3253 4.41642 19.3253 4.43962 19.3253C4.71803 19.3195 8.21553 19.3195 11.887 19.3195V22.44C11.887 22.759 12.148 23.02 12.467 23.02C12.7861 23.02 13.0471 22.759 13.0471 22.44V19.3253C16.8868 19.3253 20.5699 19.3311 20.6453 19.3311C20.6685 19.3311 20.6917 19.3311 20.7149 19.3253C21.1905 19.2673 21.7821 19.0005 21.8981 18.4205C22.0431 17.6259 21.4979 17.1445 21.2949 16.9647ZM20.5931 18.1595C19.6012 18.1595 7.68771 18.1479 4.93844 18.1595H4.28882C4.28302 18.1595 4.27722 18.1595 4.27142 18.1595H4.17862L4.22502 18.1131C4.23082 18.1073 4.23662 18.1015 4.23662 18.0957C4.23662 18.0957 4.32362 18.0087 4.32362 18.0029L8.54034 13.7456H12.7048C13.0239 13.7456 13.2849 13.4846 13.2849 13.1656C13.2849 12.8465 13.0239 12.5855 12.7048 12.5855H6.04627H5.54745H5.51845L5.61126 12.4869C5.64026 12.4579 5.69246 12.3999 5.77366 12.3187C6.40008 11.6865 8.43013 9.71446 9.42196 8.75163H12.7048C13.0239 8.75163 13.2849 8.49062 13.2849 8.17161C13.2849 7.85261 13.0239 7.5916 12.7048 7.5916H7.3803C7.3687 7.5916 7.3513 7.5916 7.3397 7.5916C7.2875 7.5916 7.2353 7.5858 7.2353 7.5916C7.2353 7.5858 7.2469 7.551 7.2933 7.4988C7.51951 7.25519 9.79897 5.03373 11.2838 3.58949L12.467 2.40626L13.6445 3.59529C15.1235 5.02793 17.4088 7.25519 17.6292 7.4988C17.6524 7.522 17.6698 7.5452 17.6872 7.5742H16.2603C16.2545 7.5742 16.2487 7.5742 16.2429 7.5742H16.1501L16.1559 7.58C16.0109 7.58 15.8659 7.58 15.7267 7.5974C15.4773 7.6206 15.2627 7.754 15.1873 8.00341C15.0539 8.43842 15.4599 8.69943 15.7267 8.97204C16.0515 9.29685 16.3821 9.62165 16.707 9.94646C17.3624 10.5961 18.012 11.2457 18.6674 11.8895C18.8646 12.0809 19.0618 12.2723 19.2532 12.4753C19.2822 12.5101 19.3112 12.5449 19.346 12.5797C19.3344 12.5797 19.3286 12.5797 19.317 12.5797C18.6036 12.5913 17.8844 12.5855 17.171 12.5855C16.8752 12.5855 16.5098 12.5391 16.2893 12.7769C16.0805 12.9973 16.0863 13.3628 16.3009 13.5774C16.6258 13.908 18.853 16.1758 19.9434 17.2605L20.8715 18.1537H20.5931V18.1595Z" fill="currentColor"/>
</svg>
