<svg width="24" height="24" viewBox="0 0 24 24" fill="none" xmlns="http://www.w3.org/2000/svg">
<path d="M9.11504 17.2296C10.2775 17.2296 11.2249 16.2822 11.2249 15.1197C11.2249 13.9572 10.2775 13.0098 9.11504 13.0098C7.95255 13.0098 7.00513 13.9572 7.00513 15.1197C7.00513 16.2822 7.94674 17.2296 9.11504 17.2296ZM9.11504 14.1664C9.63815 14.1664 10.0625 14.5907 10.0625 15.1139C10.0625 15.637 9.63815 16.0613 9.11504 16.0613C8.59192 16.0613 8.16761 15.637 8.16761 15.1139C8.1618 14.5966 8.59192 14.1664 9.11504 14.1664Z" fill="currentColor"/>
<path d="M13.6718 12.7715C14.8343 12.7715 15.7817 11.824 15.7817 10.6615C15.7817 9.49906 14.8343 8.55164 13.6718 8.55164C12.5093 8.55164 11.5619 9.49906 11.5619 10.6615C11.5619 11.824 12.5035 12.7715 13.6718 12.7715ZM13.6718 9.71412C14.1949 9.71412 14.6192 10.1384 14.6192 10.6615C14.6192 11.1847 14.1949 11.609 13.6718 11.609C13.1487 11.609 12.7244 11.1847 12.7244 10.6615C12.7244 10.1384 13.1487 9.71412 13.6718 9.71412Z" fill="currentColor"/>
<path d="M22.1521 16.9622L20.9141 14.9395L12.6372 1.36166C12.428 1.01291 11.8583 1.01291 11.6433 1.36166L3.36641 14.9337L2.12836 16.9622C2.02374 17.1366 2.01212 17.3574 2.11093 17.5376C3.90696 20.9146 7.84778 23.1001 12.1373 23.1001C16.4269 23.1001 20.3677 20.9146 22.1638 17.5376C22.2626 17.3516 22.2568 17.1366 22.1521 16.9622ZM12.1373 2.77989L19.7109 15.1952C17.6998 17.7759 14.8924 19.3104 12.1373 19.3104C9.37645 19.3104 6.57486 17.7759 4.56376 15.201L12.1373 2.77989ZM12.1373 21.9376C8.39415 21.9376 4.95901 20.1183 3.29666 17.2761L3.91858 16.2589C6.1273 18.9152 9.14976 20.4729 12.1373 20.4729C15.1307 20.4729 18.1474 18.9093 20.3561 16.2531L20.978 17.2702C19.3157 20.1183 15.8864 21.9376 12.1373 21.9376Z" fill="currentColor"/>
</svg>
