<svg width="24" height="24" viewBox="0 0 24 24" fill="none" xmlns="http://www.w3.org/2000/svg">
<path d="M22.8512 23H4.90386C2.98754 23 1.43018 21.4426 1.43018 19.5263V1.57895C1.43018 1.26053 1.6907 1 2.00912 1H22.8512C23.1696 1 23.4302 1.26053 23.4302 1.57895V22.4211C23.4302 22.7395 23.1696 23 22.8512 23ZM2.58807 2.15789V19.5263C2.58807 20.8058 3.63018 21.8421 4.90386 21.8421H22.2723V2.15789H2.58807Z" fill="currentColor"/>
<path d="M10.9423 11.1605H2.00912C1.6907 11.1605 1.43018 10.9 1.43018 10.5816C1.43018 10.2632 1.6907 10.0026 2.00912 10.0026H10.9423C11.2607 10.0026 11.5212 10.2632 11.5212 10.5816C11.5212 10.9 11.2607 11.1605 10.9423 11.1605Z" fill="currentColor"/>
<path d="M10.9421 15.6763C10.6237 15.6763 10.3632 15.4158 10.3632 15.0974V7.61737C10.3632 7.29895 10.6237 7.03842 10.9421 7.03842C11.2605 7.03842 11.5211 7.29895 11.5211 7.61737V15.0974C11.5211 15.4158 11.2605 15.6763 10.9421 15.6763Z" fill="currentColor"/>
<path d="M10.9421 23C10.6237 23 10.3632 22.7395 10.3632 22.4211V18.0442C10.3632 17.7258 10.6237 17.4653 10.9421 17.4653C11.2605 17.4653 11.5211 17.7258 11.5211 18.0442V22.4211C11.5211 22.7395 11.2605 23 10.9421 23Z" fill="currentColor"/>
<path d="M13.918 23C13.5995 23 13.339 22.7395 13.339 22.421V19.5263C13.339 19.2079 13.5995 18.9474 13.918 18.9474C14.2364 18.9474 14.4969 19.2079 14.4969 19.5263V22.421C14.4969 22.7395 14.2364 23 13.918 23Z" fill="currentColor"/>
<path d="M10.9421 5.22053C10.6237 5.22053 10.3632 4.96 10.3632 4.64158V1.57895C10.3632 1.26053 10.6237 1 10.9421 1C11.2605 1 11.5211 1.26053 11.5211 1.57895V4.64158C11.5211 4.96 11.2605 5.22053 10.9421 5.22053Z" fill="currentColor"/>
<path d="M22.8511 17.1295C17.6059 17.1295 13.339 12.8626 13.339 7.61737C13.339 7.29895 13.5995 7.03842 13.918 7.03842H22.8511C23.1695 7.03842 23.4301 7.29895 23.4301 7.61737V16.5505C23.4301 16.8689 23.1695 17.1295 22.8511 17.1295ZM14.5201 8.19632C14.8038 12.3416 18.1269 15.6647 22.2722 15.9484V8.19632H14.5201Z" fill="currentColor"/>
</svg>
