<svg width="24" height="24" viewBox="0 0 24 24" fill="none" xmlns="http://www.w3.org/2000/svg">
<path d="M16.682 9.81168C17.2417 9.81168 17.8384 9.72556 18.4351 9.49181C20.2621 8.79056 21.603 6.98822 22.415 4.134C22.5073 3.80798 22.3166 3.46966 21.9906 3.37123C19.1364 2.55311 16.8973 2.73765 15.3348 3.9187C13.311 5.45039 13.2188 8.07701 13.2126 8.37227C13.1511 8.48915 13.0896 8.61217 13.0342 8.72905C12.7021 8.01549 12.2653 7.37575 11.7794 6.79753C11.7732 6.47766 11.6748 3.86949 9.65715 2.34396C8.09471 1.16291 5.85562 0.978365 3.0014 1.79649C2.67538 1.88876 2.48469 2.22709 2.57696 2.55926C3.38894 5.41348 4.72993 7.21582 6.55687 7.92322C7.1597 8.15697 7.75639 8.24309 8.31001 8.24309C9.37419 8.24309 10.303 7.92322 10.8751 7.66487C11.6563 8.60602 12.253 9.73172 12.4068 11.0358H5.17282C4.8345 11.0358 4.55769 11.3126 4.55769 11.6509V14.7758C4.55769 15.1141 4.8345 15.3909 5.17282 15.3909H6.24931L7.73178 22.8033C7.78714 23.0924 8.03935 23.2954 8.33461 23.2954H17.8261C18.1214 23.2954 18.3736 23.0863 18.429 22.8033L19.9114 15.3909H20.9879C21.3262 15.3909 21.603 15.1141 21.603 14.7758V11.6509C21.603 11.3126 21.3262 11.0358 20.9879 11.0358H13.6924C13.717 10.6052 13.8216 9.96547 14.1415 9.25191C14.7135 9.49796 15.6301 9.81168 16.682 9.81168ZM17.3279 22.059H8.84517L7.50418 15.3848H18.6566L17.3279 22.059ZM20.3789 14.1545H5.78795V12.2599H20.3728V14.1545H20.3789ZM16.0914 4.89061C17.2233 4.04173 18.8903 3.86949 21.0494 4.39236C20.3482 6.50226 19.327 7.8248 18.0045 8.34151C16.7619 8.82132 15.5009 8.47069 14.7751 8.17543C15.4209 7.32039 16.4359 6.47151 18.0537 5.85022C18.3736 5.7272 18.5274 5.37042 18.4043 5.0567C18.2813 4.73683 17.9245 4.58305 17.6108 4.70607C16.5466 5.11821 15.7039 5.62262 15.0334 6.17009C15.2733 5.70259 15.6055 5.25354 16.0914 4.89061ZM7.00592 6.76677C5.68338 6.25621 4.65611 4.92752 3.95486 2.81761C6.11398 2.29475 7.78099 2.46699 8.91283 3.31587C9.64484 3.86334 10.0447 4.62611 10.2661 5.30275C8.62988 3.94331 6.98747 3.22975 6.85214 3.16824C6.53842 3.03291 6.18164 3.18054 6.04631 3.49426C5.91098 3.80798 6.05862 4.16476 6.37233 4.30009C6.40924 4.31239 8.30385 5.14897 9.97702 6.69911C9.23886 6.96361 8.11931 7.19736 7.00592 6.76677Z" fill="currentColor"/>
</svg>
