<svg width="24" height="24" viewBox="0 0 24 24" fill="none" xmlns="http://www.w3.org/2000/svg">
<path d="M22.8871 6.91566C22.4816 5.98315 21.2711 5.57772 19.2787 5.69935C19.0412 5.71672 18.7864 5.74568 18.5257 5.77464C16.6028 3.64321 13.6779 2.49061 10.6371 2.97134C8.3261 3.34202 6.29312 4.58729 4.92043 6.48126C3.66937 8.20726 3.10755 10.2808 3.2929 12.3775C1.43947 13.9355 0.692315 15.3024 1.13829 16.3392C1.51477 17.2022 2.60366 17.5728 4.10377 17.5728C4.53238 17.5728 5.00731 17.5323 5.49384 17.4744C5.90507 17.9319 6.36263 18.349 6.87232 18.7196C8.38402 19.8143 10.1679 20.3935 11.9982 20.3935C12.4615 20.3935 12.9307 20.3588 13.3941 20.2835C15.705 19.9128 17.738 18.6675 19.1107 16.7736C20.3618 15.0476 20.9236 12.974 20.7382 10.8773C22.5859 9.32511 23.333 7.95242 22.8871 6.91566ZM5.85294 7.16471C7.04608 5.5198 8.80683 4.4367 10.8166 4.11815C11.2221 4.05443 11.6217 4.02547 12.0156 4.02547C15.6703 4.02547 18.8906 6.67239 19.5104 10.3792C17.8596 11.6651 15.595 12.9567 13.0581 14.0571C10.2722 15.2619 7.82799 15.9511 5.9572 16.2523C5.19845 15.2619 4.69455 14.0977 4.49183 12.8292C4.17907 10.8194 4.65979 8.80962 5.85294 7.16471ZM2.19822 15.8816C2.04763 15.5341 2.41831 14.758 3.5072 13.7328C3.74467 14.6885 4.13273 15.5862 4.6598 16.3971C3.26394 16.4955 2.37198 16.2986 2.19822 15.8816ZM18.1666 16.0959C16.9735 17.7408 15.2127 18.8239 13.2029 19.1425C11.1931 19.461 9.18331 18.9803 7.53839 17.7871C7.31251 17.6192 7.09821 17.4454 6.8897 17.2543C8.93426 16.8488 11.2742 16.0843 13.5157 15.1171C15.8383 14.1093 17.9523 12.9335 19.603 11.7461C19.5914 13.3042 19.0991 14.8101 18.1666 16.0959ZM20.5124 9.52783C20.2749 8.55478 19.8752 7.65703 19.354 6.85774C20.9699 6.75348 21.6939 7.07204 21.8213 7.37901C21.9777 7.72653 21.6012 8.50265 20.5124 9.52783Z" fill="currentColor"/>
</svg>
