<svg width="24" height="24" viewBox="0 0 24 24" fill="none" xmlns="http://www.w3.org/2000/svg">
<path d="M19.9208 9.50704L6.39895 1.64121C5.41771 1.07481 4.253 1.06683 3.27177 1.63324C2.29053 2.19964 1.7002 3.21278 1.7002 4.34559V20.0772C1.7002 21.21 2.28255 22.2232 3.27177 22.7896C3.75839 23.0688 4.29289 23.2124 4.82738 23.2124C5.36985 23.2124 5.90434 23.0688 6.39895 22.7816L19.9208 14.9158C20.8941 14.3494 21.4764 13.3362 21.4764 12.2114C21.4764 11.0866 20.8941 10.0734 19.9208 9.50704ZM19.1231 13.5357L5.6012 21.4015C5.12255 21.6807 4.54817 21.6807 4.06952 21.4015C3.59087 21.1223 3.30368 20.6277 3.30368 20.0772V4.34559C3.30368 3.78717 3.59087 3.29256 4.06952 3.02132C4.30884 2.88571 4.5721 2.81391 4.83536 2.81391C5.09861 2.81391 5.36187 2.88571 5.6012 3.02132L19.1231 10.8871C19.6017 11.1664 19.8889 11.661 19.8889 12.2114C19.8889 12.7619 19.5938 13.2565 19.1231 13.5357Z" fill="currentColor"/>
</svg>
