<svg width="22" height="23" viewBox="0 0 22 23" fill="none" xmlns="http://www.w3.org/2000/svg">
<path d="M21.4211 10.501H11.5789V0.658934C11.5789 0.340513 11.3184 0.0799866 11 0.0799866C10.6816 0.0799866 10.4211 0.340513 10.4211 0.658934V10.501H0.578947C0.260526 10.501 0 10.7616 0 11.08C0 11.3984 0.260526 11.6589 0.578947 11.6589H10.4211V21.501C10.4211 21.8195 10.6816 22.08 11 22.08C11.3184 22.08 11.5789 21.8195 11.5789 21.501V11.6589H21.4211C21.7395 11.6589 22 11.3984 22 11.08C22 10.7616 21.7395 10.501 21.4211 10.501Z" fill="currentColor"/>
</svg>
