<svg width="24" height="24" viewBox="0 0 24 24" fill="none" xmlns="http://www.w3.org/2000/svg">
<g clip-path="url(#clip0_1_2707)">
<path d="M16.5844 4.39676C16.5844 4.39676 16.5547 4.32764 16.5251 4.29802L13.316 1.05925C13.316 1.05925 13.2468 1.00987 13.2073 1H2.21723C2.15799 1 2.10862 1.01975 2.06912 1.05925C2.01975 1.09874 2 1.14811 2 1.20736V20.5116C2 20.5709 2.01975 20.6203 2.05925 20.6598C2.09874 20.6993 2.15799 20.719 2.20736 20.719H16.377C16.377 20.719 16.4363 20.719 16.456 20.6993C16.4757 20.6795 16.5054 20.6696 16.5251 20.6499C16.5449 20.6301 16.5646 20.6104 16.5745 20.5808C16.5844 20.5511 16.5942 20.5314 16.5844 20.5018V4.42639C16.5844 4.42639 16.5844 4.40664 16.5844 4.39676ZM13.8393 4.21903H13.395V1.71095L15.8932 4.20915H13.8294L13.8393 4.21903ZM2.4246 20.3043V1.41472H12.9407V4.42639C12.9407 4.48563 12.9605 4.535 13 4.5745C13.0395 4.614 13.0889 4.63375 13.1481 4.64362H16.1598V20.3142H2.4246V20.3043Z" fill="currentColor"/>
<path d="M4.5574 4.1894H7.57895C7.57895 4.1894 7.63819 4.1894 7.66781 4.1894C7.69744 4.1894 7.72706 4.16965 7.74681 4.1499C7.76656 4.13015 7.78631 4.10053 7.80605 4.08078C7.81593 4.05116 7.8258 4.02154 7.8258 3.99191C7.8258 3.96229 7.8258 3.93267 7.80605 3.90305C7.79618 3.87342 7.77643 3.85367 7.74681 3.83392C7.72706 3.81418 7.69744 3.79443 7.66781 3.79443C7.63819 3.79443 7.60857 3.78455 7.57895 3.79443H4.5574C4.5574 3.79443 4.49816 3.79443 4.46854 3.79443C4.43891 3.79443 4.40929 3.81418 4.38954 3.83392C4.36979 3.85367 4.35004 3.8833 4.3303 3.90305C4.32042 3.93267 4.31055 3.96229 4.31055 3.99191C4.31055 4.02154 4.31055 4.05116 4.3303 4.08078C4.34017 4.11041 4.35992 4.13015 4.38954 4.1499C4.40929 4.16965 4.43891 4.1894 4.46854 4.1894C4.49816 4.1894 4.52778 4.1894 4.5574 4.1894Z" fill="currentColor"/>
<path d="M9.87967 5.81867C9.87967 5.81867 9.93891 5.81867 9.96854 5.81867C9.99816 5.81867 10.0278 5.79892 10.0475 5.77918C10.0673 5.75943 10.087 5.73968 10.1068 5.71006C10.1167 5.68043 10.1265 5.65081 10.1265 5.62119C10.1265 5.59156 10.1265 5.56194 10.1068 5.53232C10.0969 5.50269 10.0772 5.48295 10.0475 5.4632C10.0278 5.44345 9.99816 5.4237 9.96854 5.4237C9.93891 5.4237 9.90929 5.41383 9.87967 5.4237H4.2908C4.2908 5.4237 4.23156 5.4237 4.20193 5.4237C4.17231 5.4237 4.14269 5.44345 4.12294 5.4632C4.10319 5.48295 4.08344 5.50269 4.06369 5.53232C4.05382 5.56194 4.04395 5.59156 4.04395 5.62119C4.04395 5.65081 4.04395 5.68043 4.06369 5.71006C4.07357 5.73968 4.09332 5.75943 4.12294 5.77918C4.14269 5.79892 4.17231 5.81867 4.20193 5.81867C4.23156 5.81867 4.26118 5.81867 4.2908 5.81867H9.87967Z" fill="currentColor"/>
<path d="M6.30469 8.83035V10.4497C6.30469 10.4497 6.30469 10.509 6.31456 10.5287C6.32444 10.5584 6.34418 10.5781 6.36393 10.5978C6.38368 10.6176 6.40343 10.6373 6.43305 10.6472C6.46268 10.6571 6.48243 10.667 6.51205 10.667H12.0713C12.0713 10.667 12.1305 10.667 12.1503 10.6472C12.1799 10.6373 12.1997 10.6176 12.2194 10.5978C12.2392 10.5781 12.2589 10.5584 12.2589 10.5287C12.2688 10.4991 12.2786 10.4794 12.2786 10.4497V8.83035C12.2786 8.7711 12.2589 8.72173 12.2194 8.68223C12.1799 8.64273 12.1305 8.62299 12.0713 8.62299H6.51205C6.4528 8.62299 6.40343 8.64273 6.36393 8.68223C6.32444 8.72173 6.30469 8.7711 6.30469 8.83035ZM6.72928 9.04758H11.8639V10.2424H6.72928V9.04758Z" fill="currentColor"/>
<path d="M14.1354 12.0197H4.45852C4.45852 12.0197 4.39928 12.0197 4.37953 12.0395C4.35978 12.0592 4.33015 12.0691 4.31041 12.0888C4.29066 12.1086 4.27091 12.1283 4.26103 12.158C4.25116 12.1876 4.24129 12.2172 4.25116 12.2369V18.0727C4.25116 18.1319 4.27091 18.1813 4.31041 18.2208C4.3499 18.2603 4.39928 18.28 4.45852 18.28H14.1354C14.1946 18.28 14.244 18.2603 14.2835 18.2208C14.323 18.1813 14.3427 18.1319 14.3427 18.0727V12.2369C14.3427 12.2369 14.3427 12.1777 14.3328 12.158C14.323 12.1283 14.3131 12.1086 14.2835 12.0888C14.2637 12.0691 14.244 12.0493 14.2143 12.0395C14.1847 12.0296 14.165 12.0197 14.1354 12.0197ZM4.67576 14.0933H7.21346V17.8554H4.67576V14.0933ZM13.928 17.8554H7.6578V14.0933H12.8813C12.9406 14.0933 12.9899 14.0736 13.0294 14.0341C13.0689 13.9946 13.0887 13.9452 13.0887 13.886C13.0887 13.8267 13.0689 13.7773 13.0294 13.7378C12.9899 13.6983 12.9406 13.6786 12.8813 13.6786H4.67576V12.4443H13.9181V17.8554H13.928Z" fill="currentColor"/>
<path d="M21.7486 12.9183C21.7486 12.8394 21.7091 12.7604 21.6498 12.711C19.8922 11.3385 18.2234 10.6769 16.5448 10.6769C15.5672 10.6769 14.5699 10.9139 13.5825 11.3878L13.0493 11.6643C12.5358 11.9507 12.0322 12.2963 11.5089 12.711C11.4497 12.7604 11.4102 12.8394 11.4102 12.9183V16.3941C11.4102 19.5045 13.5035 22.22 16.5152 22.9902C16.5448 22.9902 16.5744 23 16.5942 23C16.6139 23 16.6238 23 16.6337 23C17.5816 22.7532 18.4802 22.2891 19.2504 21.667L19.8329 21.1338C21.0672 19.8501 21.7387 18.1715 21.7387 16.404V12.9282L21.7486 12.9183ZM21.2252 16.3941C21.2252 18.2307 20.4254 19.9686 19.0331 21.1634C18.3321 21.7657 17.4829 22.2101 16.5942 22.4569C13.8689 21.7164 11.9631 19.228 11.9631 16.3941V13.0467C15.1229 10.5584 17.9766 10.5584 21.2252 13.0467V16.3941Z" fill="currentColor"/>
<path d="M11.8439 12.938V16.3743C11.8439 19.2773 13.7891 21.8348 16.5835 22.5951C17.492 22.3482 18.3609 21.894 19.0719 21.2719C20.5036 20.0376 21.3232 18.2603 21.3232 16.3743V12.938C17.9956 10.4003 15.0728 10.4003 11.834 12.938H11.8439Z" fill="#C9C2EA"/>
<path d="M15.7647 18.8725C15.8239 18.8725 15.893 18.8429 15.9523 18.7837L19.27 15.4659C19.3787 15.3573 19.3787 15.1894 19.27 15.0907C19.1614 14.9821 18.9936 14.9821 18.8948 15.0907L15.7745 18.2208L14.3131 16.7496C14.2045 16.6409 14.0367 16.6409 13.9379 16.7496C13.8293 16.8582 13.8293 17.026 13.9379 17.1248L15.5968 18.7837C15.6462 18.833 15.7153 18.8627 15.7844 18.8627L15.7647 18.8725Z" fill="currentColor"/>
</g>
<defs>
<clipPath id="clip0_1_2707">
<rect width="24" height="24" fill="white" transform="translate(0 0.0010376)"/>
</clipPath>
</defs>
</svg>
