<svg width="24" height="24" viewBox="0 0 24 24" fill="none" xmlns="http://www.w3.org/2000/svg">
<path d="M21.0491 6.78421C21.0491 5.27855 19.8445 4.05665 18.3621 4.05665C18.2462 4.05665 18.1304 4.06244 18.0146 4.07982C17.644 2.34831 16.1441 1.08008 14.3373 1.08008C13.3586 1.08008 12.4263 1.46807 11.7314 2.14562C11.2449 1.74604 10.5037 1.65339 9.93036 1.93715C9.41496 1.39279 8.70267 1.08008 7.93826 1.08008C6.51367 1.08008 5.3381 2.16879 5.17016 3.57021C4.4405 3.61654 3.83244 4.12614 3.63555 4.80948C2.58738 5.04691 1.7998 5.99663 1.7998 7.13167C1.7998 8.16247 2.44839 9.03112 3.35179 9.36121L4.52736 19.9587C4.72425 21.7424 6.22412 23.0801 8.01933 23.0801H17.4587C17.754 23.0801 18.003 22.86 18.032 22.5647L19.5145 9.2338C20.4179 8.79948 21.0491 7.86713 21.0491 6.78421ZM16.9317 21.9219H8.01354C6.81481 21.9219 5.80718 21.0243 5.67398 19.8313L4.52736 9.51177H4.94431C5.2107 10.7858 6.34573 11.7471 7.69504 11.7471C9.05013 11.7471 10.1794 10.7858 10.4458 9.51177H18.3099L16.9317 21.9219ZM18.3563 8.35357H9.91879C9.60028 8.35357 9.33969 8.61417 9.33969 8.93267C9.33969 8.94425 9.34547 8.95583 9.34547 8.96742C9.3281 9.86502 8.59264 10.5889 7.69504 10.5889C6.78006 10.5889 6.03881 9.84765 6.03881 8.93267C6.03881 8.61417 5.77822 8.35357 5.45971 8.35357H4.13936C3.48498 8.35357 2.95221 7.80343 2.95221 7.13167C2.95221 6.47729 3.47919 5.8924 4.13936 5.90977C4.31888 5.91556 4.4984 5.8287 4.60843 5.68392C4.74742 5.5044 4.70109 5.29592 4.76479 5.09324C4.83428 4.8616 5.08909 4.69945 5.33231 4.7342C5.45392 4.75157 5.56395 4.81527 5.67977 4.83264C5.84192 4.8616 6.01565 4.80948 6.13726 4.70524C6.24149 4.61259 6.31099 4.48518 6.33416 4.35199C6.35732 4.20143 6.3052 4.05665 6.3052 3.91188C6.3052 2.99111 7.03486 2.23828 7.93826 2.23828C8.50577 2.23828 9.02117 2.53941 9.32231 3.04323C9.42075 3.20537 9.58291 3.30961 9.77401 3.32119C9.95932 3.34436 10.1446 3.26328 10.2605 3.11851C10.3357 3.02585 10.4689 2.91582 10.66 2.91582C10.8801 2.91582 11.077 3.05481 11.1638 3.27487C11.2391 3.47755 11.4244 3.61654 11.6387 3.6397C11.8588 3.66286 12.0614 3.56442 12.1831 3.39069C12.6753 2.66681 13.4802 2.23249 14.3315 2.23249C15.7503 2.23249 16.8969 3.37331 16.9375 4.82685C16.9433 5.01796 17.0475 5.19748 17.2097 5.30172C17.3718 5.40595 17.5745 5.41754 17.754 5.34225C17.9509 5.25539 18.1536 5.20906 18.3621 5.20906C19.2075 5.20906 19.8909 5.91556 19.8909 6.77842C19.8909 7.64128 19.2018 8.35357 18.3563 8.35357Z" fill="currentColor"/>
<path d="M9.25873 4.73425C7.672 4.73425 6.38062 6.02565 6.38062 7.61238C6.38062 7.93088 6.64121 8.19148 6.95972 8.19148C7.27822 8.19148 7.53881 7.93088 7.53881 7.61238C7.53881 6.66266 8.30901 5.89245 9.25873 5.89245C9.57724 5.89245 9.83783 5.63186 9.83783 5.31335C9.83783 4.99485 9.57724 4.73425 9.25873 4.73425Z" fill="currentColor"/>
</svg>
