<svg width="24" height="24" viewBox="0 0 24 24" fill="none" xmlns="http://www.w3.org/2000/svg">
<path d="M16.5921 17.921H5V21.0525C5 22.1249 5.86842 22.9999 6.94737 22.9999H18.5329V19.8683C18.5395 18.7894 17.6645 17.921 16.5921 17.921ZM17.2237 21.6775H6.94737C6.59868 21.6775 6.31579 21.3946 6.31579 21.046V19.2302H16.5855C16.9342 19.2302 17.2171 19.5131 17.2171 19.8617V21.6775H17.2237Z" fill="currentColor"/>
<path d="M7.56543 4.89471L8.78254 8.59208H14.7562L15.9733 4.89471H7.56543Z" fill="currentColor"/>
<path d="M7.80859 16.2236H15.7296L14.9665 10.138H8.57175L7.80859 16.2236Z" fill="currentColor"/>
<path d="M7.28906 1V4C7.28906 4.02631 7.3088 4.03948 7.32854 4.03948H16.2101C16.2298 4.03948 16.2496 4.01973 16.2496 4V1H14.9601V2.51974H14.7562H13.2627H13.0391V1H10.4799V2.51974H10.2759H8.78248H8.5588V1H7.28906Z" fill="currentColor"/>
</svg>
