<svg width="24" height="24" viewBox="0 0 24 24" fill="none" xmlns="http://www.w3.org/2000/svg">
<path d="M3.10156 8.46225V12.9317C3.10156 13.2501 3.36209 13.5107 3.68051 13.5107H11.4384C11.7568 13.5107 12.0173 13.2501 12.0173 12.9317V8.46225C12.0173 8.14383 11.7568 7.8833 11.4384 7.8833H3.68051C3.36209 7.8833 3.10156 8.13804 3.10156 8.46225ZM4.25945 9.04119H10.8594V12.3528H4.25945V9.04119Z" fill="currentColor"/>
<path d="M6.0024 14.7844H4.50293V16.2318H6.0024V14.7844Z" fill="currentColor"/>
<path d="M8.31197 14.7844H6.8125V16.2318H8.31197V14.7844Z" fill="currentColor"/>
<path d="M10.5532 14.7844H9.05371V16.2318H10.5532V14.7844Z" fill="currentColor"/>
<path d="M6.0024 16.9263H4.50293V18.3736H6.0024V16.9263Z" fill="currentColor"/>
<path d="M8.31197 16.9263H6.8125V18.3736H8.31197V16.9263Z" fill="currentColor"/>
<path d="M10.5532 16.9263H9.05371V18.3736H10.5532V16.9263Z" fill="currentColor"/>
<path d="M6.0024 19.0684H4.50293V20.5157H6.0024V19.0684Z" fill="currentColor"/>
<path d="M8.31197 19.0684H6.8125V20.5157H8.31197V19.0684Z" fill="currentColor"/>
<path d="M10.5532 19.0684H9.05371V20.5157H10.5532V19.0684Z" fill="currentColor"/>
<path d="M13.5458 5.76436H11.23H10.6337V1.57858C10.6337 1.38174 10.5352 1.20226 10.3673 1.09227C10.2052 0.988055 9.99681 0.970687 9.81734 1.04595L8.62471 1.57858L7.97051 1.11542C7.77945 0.976476 7.52472 0.970687 7.32209 1.09805L6.52314 1.61332L5.31314 1.05174C5.13367 0.970687 4.92525 0.982265 4.75736 1.09227C4.58946 1.19648 4.49104 1.38174 4.49104 1.57858V5.76436H1.57895C1.26053 5.76436 1 6.02488 1 6.3433V20.0759C1 21.6564 2.32579 22.9417 3.95262 22.9417H13.5458C13.8642 22.9417 14.1247 22.6811 14.1247 22.3627V6.3433C14.1247 6.02488 13.8642 5.76436 13.5458 5.76436ZM5.64893 2.48752L6.3263 2.80015C6.50577 2.88121 6.71419 2.86963 6.88209 2.75963L7.62314 2.28489L8.22524 2.71331C8.39314 2.8291 8.60735 2.85226 8.79261 2.77121L9.47576 2.47016V5.76436H5.64893V2.48752ZM12.9668 21.7896H3.95262C2.96263 21.7896 2.15789 21.0254 2.15789 20.0817V6.92225H3.89473H5.0642H5.06999H5.07578H10.0547H11.23H12.9668V21.7896Z" fill="currentColor"/>
<path d="M22.4207 11.4727H16.7933C15.7802 11.4727 14.9639 12.2948 14.9639 13.3021V22.3626C14.9639 22.681 15.2244 22.9416 15.5428 22.9416H21.1702C22.1775 22.9416 22.9996 22.1195 22.9996 21.1121V12.0516C22.9996 11.7332 22.7391 11.4727 22.4207 11.4727ZM16.1218 13.3079C16.1218 12.9374 16.4228 12.6363 16.7933 12.6363H17.4765V21.7895H16.1218V13.3079ZM21.8417 21.1121C21.8417 21.4826 21.5407 21.7837 21.1702 21.7837H19.1381V12.6305H21.8417V21.1121Z" fill="currentColor"/>
</svg>
