<svg width="24" height="24" viewBox="0 0 24 24" fill="none" xmlns="http://www.w3.org/2000/svg">
<path d="M22.4211 11.6016H19.7984C19.5147 7.74579 16.4289 4.66579 12.5789 4.38211V1.82895C12.5789 1.51053 12.3184 1.25 12 1.25C11.6816 1.25 11.4211 1.51053 11.4211 1.82895V4.38211C7.56526 4.66579 4.48526 7.74579 4.20158 11.6016H1.57895C1.26053 11.6016 1 11.8621 1 12.1805C1 12.4989 1.26053 12.7595 1.57895 12.7595H4.20158C4.48526 16.6153 7.56526 19.6953 11.4211 19.9789V22.6711C11.4211 22.9895 11.6816 23.25 12 23.25C12.3184 23.25 12.5789 22.9895 12.5789 22.6711V19.9789C16.4347 19.6953 19.5147 16.6153 19.7984 12.7595H22.4211C22.7395 12.7595 23 12.4989 23 12.1805C23 11.8621 22.7395 11.6016 22.4211 11.6016ZM12 18.85C8.32368 18.85 5.33052 15.8568 5.33052 12.1805C5.33052 8.50421 8.32368 5.51105 12 5.51105C15.6763 5.51105 18.6695 8.50421 18.6695 12.1805C18.6695 15.8568 15.6763 18.85 12 18.85Z" fill="currentColor"/>
</svg>
