<svg width="24" height="24" viewBox="0 0 24 24" fill="none" xmlns="http://www.w3.org/2000/svg">
<path d="M20.1548 12.5557C19.7034 12.5557 19.2983 12.7351 18.9858 13.0303C18.6618 12.7409 18.2219 12.5557 17.7301 12.5557C17.2613 12.5557 16.8389 12.7236 16.5148 12.9955C16.1965 12.7236 15.7683 12.5557 15.2995 12.5557C15.0738 12.5557 14.8655 12.5962 14.6629 12.6657V11.7398L18.7023 7.75251C18.8585 7.59626 18.9164 7.36478 18.8469 7.15645C18.7775 6.94811 18.5981 6.79765 18.3782 6.76872L13.2451 6.05113L10.9245 1.41573C10.8261 1.21897 10.6178 1.06851 10.4037 1.09745C10.1838 1.09745 9.98125 1.22476 9.88865 1.42152L7.62014 6.08585L2.49285 6.86131C2.27295 6.89603 2.09355 7.04649 2.02989 7.25482C1.96045 7.46316 2.02411 7.69464 2.18035 7.8451L5.91298 11.4446L5.06807 16.5603C5.03335 16.7802 5.12016 16.9944 5.29955 17.1275C5.39793 17.1969 5.51946 17.2374 5.6352 17.2374C5.72779 17.2374 5.82038 17.2143 5.90719 17.168L10.4847 14.7316L11.0808 15.0441V17.2779L10.4674 16.6124C10.1259 16.2421 9.66875 16.0395 9.18264 16.0395C8.69653 16.0395 8.23936 16.2421 7.89792 16.6124C7.21505 17.3532 7.21505 18.5163 7.89792 19.2571L10.7336 22.3589C11.1618 22.8277 11.7521 23.0939 12.3655 23.0939H18.7833C20.5252 23.0939 21.9488 21.5777 21.9488 19.7143V14.4597C21.943 13.4006 21.1386 12.5557 20.1548 12.5557ZM10.7451 13.5627C10.5773 13.4759 10.3748 13.4759 10.2069 13.5627L6.39909 15.5939L7.1051 11.3347C7.13404 11.1495 7.07038 10.9527 6.93728 10.8254L3.82965 7.83353L8.09468 7.18538C8.28565 7.15645 8.44769 7.04071 8.52871 6.86709L10.4153 2.98401L12.3481 6.84395C12.4349 7.01177 12.597 7.1333 12.7879 7.15645L17.0645 7.75251L14.6456 10.1425C14.5125 9.23398 13.7775 8.53954 12.8805 8.53954C11.891 8.53954 11.0866 9.39023 11.0866 10.4319V13.7363L10.7451 13.5627ZM20.7856 19.7027C20.7856 20.9295 19.8828 21.9249 18.7775 21.9249H12.3713C12.0819 21.9249 11.8042 21.7976 11.59 21.5661L8.7544 18.4643C8.4882 18.1749 8.4882 17.683 8.7544 17.3879C8.87014 17.2606 9.02639 17.1911 9.18843 17.1911C9.35046 17.1911 9.50092 17.2606 9.62245 17.3879C9.62245 17.3879 11.237 19.1413 11.2486 19.1471C11.3933 19.3034 11.6421 19.3555 11.8389 19.2918C12.0646 19.2224 12.2324 18.9967 12.244 18.7478V10.4319C12.244 10.0268 12.5275 9.69694 12.8805 9.69694C13.2335 9.69694 13.5171 10.0268 13.5171 10.4319V14.1992V14.859V15.7733C13.5171 16.0916 13.7775 16.352 14.0958 16.352C14.4141 16.352 14.6745 16.0916 14.6745 15.7733V14.859V14.1992C14.6745 13.933 14.9639 13.7131 15.3111 13.7131C15.6583 13.7131 15.9477 13.933 15.9477 14.1992V15.7733C15.9477 16.0916 16.2081 16.352 16.5264 16.352C16.8446 16.352 17.1051 16.0916 17.1051 15.7733V14.1992C17.1051 13.933 17.3944 13.7131 17.7416 13.7131C18.0831 13.7131 18.3782 13.933 18.3782 14.1992V14.4481V14.8937V15.7675C18.3782 16.0858 18.6386 16.3462 18.9569 16.3462C19.2752 16.3462 19.5356 16.0858 19.5356 15.7675V14.8937V14.4481C19.5356 14.043 19.8192 13.7131 20.1722 13.7131C20.5252 13.7131 20.8087 14.043 20.8087 14.4481V19.7027H20.7856Z" fill="currentColor"/>
</svg>
