<svg width="24" height="25" viewBox="0 0 24 25" fill="none" xmlns="http://www.w3.org/2000/svg">
<g clip-path="url(#clip0_88_3326)">
<path d="M22.4154 2.49398H12.5759V1.57906C12.5759 1.26058 12.3154 1 11.9971 1C11.6788 1 11.4183 1.26058 11.4183 1.57906V2.48819H1.57879C1.26046 2.48819 1 2.74877 1 3.06725V15.048C1 16.9705 2.56276 18.534 4.48436 18.534H10.6022L7.12366 22.0141C6.89793 22.24 6.89793 22.6048 7.12366 22.8306C7.34939 23.0565 7.71403 23.0565 7.93976 22.8306L11.9971 18.7714L16.0545 22.8306C16.1702 22.9464 16.3149 22.9986 16.4654 22.9986C16.6159 22.9986 16.7606 22.9406 16.8764 22.8306C17.1021 22.6048 17.1021 22.24 16.8764 22.0141L13.3978 18.534H22.4212C22.7395 18.534 23 18.2734 23 17.9549V3.07304C22.9942 2.74877 22.7395 2.49398 22.4154 2.49398ZM21.8366 17.3817H4.48436C3.19943 17.3817 2.15759 16.3393 2.15759 15.0538V3.6521H21.8366V17.3817Z" fill="currentColor"/>
<path d="M10.0176 7.76342C9.69926 7.76342 9.4388 8.024 9.4388 8.34248V10.4329H6.04706C5.72872 10.4329 5.46826 10.6935 5.46826 11.012V13.5309C5.46826 14.6543 6.37698 15.5634 7.49984 15.5634H10.0176H13.9881H17.9587C18.277 15.5634 18.5375 15.3028 18.5375 14.9843V6.0494C18.5375 5.73091 18.277 5.47034 17.9587 5.47034H13.9881C13.6698 5.47034 13.4093 5.73091 13.4093 6.0494V7.76342H10.0176ZM6.62585 13.5309V11.591H9.4388V14.4053H7.49984C7.01944 14.4053 6.62585 14.0115 6.62585 13.5309ZM10.5964 11.012V8.92154H13.4093V14.3995H10.5964V11.012ZM14.5611 6.62846H17.3741V14.4053H14.5611V8.34248V6.62846Z" fill="currentColor"/>
</g>
<defs>
<clipPath id="clip0_88_3326">
<rect width="24" height="24" fill="white" transform="translate(0 0.104004)"/>
</clipPath>
</defs>
</svg>
