<svg width="24" height="24" viewBox="0 0 24 24" fill="none" xmlns="http://www.w3.org/2000/svg">
<path d="M17.5542 6.26638L12.3362 3.91889V1.54229C12.3362 1.24385 12.0961 1 11.8022 1C11.5083 1 11.2682 1.24385 11.2682 1.54229V4.16274L6.58416 6.26638C6.39063 6.35373 6.26879 6.54662 6.26879 6.76135V10.3499C6.26879 10.5537 6.38347 10.743 6.56266 10.834L11.537 13.3598V17.8946L7.06797 15.882V13.2542C7.06797 12.9558 6.82786 12.712 6.53399 12.712C6.24012 12.712 6 12.9558 6 13.2542V16.235C6 16.4497 6.12543 16.6426 6.31537 16.73L11.5334 19.0775V21.4577C11.5334 21.7562 11.7735 22 12.0674 22C12.3613 22 12.6014 21.7562 12.6014 21.4577V18.8373L17.2854 16.73C17.4789 16.6426 17.6008 16.4497 17.6008 16.235V12.6464C17.6008 12.4426 17.4861 12.2534 17.3069 12.1624L12.3326 9.62565V5.09809L16.8016 7.11075V9.73847C16.8016 10.0369 17.0417 10.2808 17.3356 10.2808C17.6294 10.2808 17.8696 10.0369 17.8696 9.73847V6.75771C17.8696 6.54298 17.7441 6.35009 17.5542 6.26274V6.26638ZM16.5364 12.9849V15.8893L12.6014 17.6617V13.0322C12.6014 12.8284 12.4867 12.6392 12.3075 12.5482L7.33318 10.0224V7.11802L11.2682 5.34558V9.96412C11.2682 10.1679 11.3829 10.3572 11.5621 10.4482L16.5364 12.9849Z" fill="currentColor"/>
</svg>
