<svg width="25" height="24" viewBox="0 0 25 24" fill="none" xmlns="http://www.w3.org/2000/svg">
<path d="M6.44727 8.15039C7.39462 7.96464 8.09957 8.08996 8.49805 8.49023C8.81473 8.81157 8.93076 9.25518 8.83887 9.84766L8.83496 9.87305C8.68354 10.8464 8.10156 11.4885 7.45605 11.9492V11.9512C8.35515 12.1462 8.85592 12.6124 8.6748 13.7725L8.6709 13.7959C8.42476 15.3767 7.06972 16.4085 5.19629 16.7754L1.25195 17.5498C1.25195 17.5498 1.25008 17.5496 1.25 17.5479L2.40332 10.1367C2.5575 9.1466 1.94188 9.23071 1.91309 9.23535C1.91225 9.23535 1.91219 9.23519 1.91309 9.2334L1.94434 9.0332H1.94336V9.03223L6.44727 8.15039ZM17.502 6.45215L16.6924 12.4727C16.6394 12.9101 16.646 13.205 16.7129 13.3545C16.7789 13.5038 16.9216 13.5606 17.1406 13.5244C17.4656 13.4593 17.7575 13.2655 18.0156 12.9424C17.9804 12.7493 17.959 12.5397 17.959 12.3086C17.959 11.4281 18.1951 10.6706 18.666 10.0371C19.1379 9.40366 19.7495 9.02388 20.5 8.89941C21.0312 8.81124 21.4535 8.88302 21.7646 9.11426C22.0777 9.34553 22.2334 9.7068 22.2334 10.1963C22.2269 10.7563 22.0124 11.2495 21.5898 11.6758C21.2091 12.0602 20.7033 12.3354 20.084 12.5137H20.083C19.9335 12.366 19.7979 12.1122 19.7979 11.7119L19.7988 11.7109C20.0717 11.633 20.3146 11.5213 20.5049 11.3516C20.7399 11.1407 20.8617 10.9045 20.8682 10.6426C20.8681 10.3289 20.7254 10.1959 20.4395 10.2432C20.2008 10.2831 20.0058 10.4442 19.8525 10.7256C19.7736 10.8714 19.7146 11.0357 19.6729 11.2168C19.6719 11.2196 19.6178 11.4391 19.6104 11.7178C19.6103 11.7372 19.6035 11.753 19.6035 11.7725C19.6054 11.7715 19.6075 11.7705 19.6094 11.7705C19.6094 12.0928 19.6863 12.4755 19.9854 12.7197C20.1757 12.9658 20.4662 13.0638 20.8682 12.9971C21.2536 12.933 21.6119 12.7838 21.9453 12.5488C21.9991 12.5108 22.0505 12.4705 22.1006 12.4297V12.4355C22.1034 12.4661 22.1045 12.4967 22.1045 12.5264C22.1045 12.5589 22.1054 12.5915 22.1045 12.623C22.1036 12.6526 22.1024 12.6813 22.0996 12.71C22.0968 12.7415 22.0926 12.774 22.0889 12.8047C22.0852 12.8323 22.0808 12.86 22.0762 12.8867C22.0715 12.9164 22.0651 12.9468 22.0586 12.9756C22.0522 13.0022 22.0455 13.0279 22.0391 13.0527L22.0166 13.1299C22.0082 13.155 22.0005 13.1799 21.9922 13.2031C21.8771 13.5251 21.7131 13.7545 21.6602 13.8242C21.2468 14.0778 20.7875 14.2475 20.2812 14.332C19.5375 14.4555 18.9647 14.3431 18.5635 13.9922C18.4595 13.9012 18.3681 13.7955 18.291 13.6758C17.7003 14.4391 17.0277 14.8844 16.2754 15.0098C15.9031 15.072 15.6208 15.0392 15.4248 14.9121C15.2289 14.784 15.1048 14.5487 15.0527 14.208H15.0498C14.4665 14.977 13.7919 15.4245 13.0303 15.5518C12.5065 15.6391 12.1472 15.5247 11.9512 15.209C11.9205 15.1616 11.8953 15.1064 11.8721 15.0479C11.3668 15.5949 10.8169 15.9191 10.2197 16.0186C9.68566 16.1077 9.32103 15.9967 9.12598 15.6846C8.93197 15.3735 8.88645 14.818 8.99316 14.0205L9.29102 11.8174L11.0439 10.4756C11.0447 10.4749 11.0456 10.4761 11.0459 10.4766L10.6445 13.4688C10.5842 13.9069 10.5831 14.2043 10.6406 14.3594C10.6964 14.5152 10.8314 14.5743 11.043 14.5391C11.3029 14.487 11.5436 14.3453 11.7627 14.1123C11.7701 13.9405 11.7875 13.7532 11.8145 13.5498L12.6279 7.41992L12.6289 7.41895L14.2412 6.99121C14.2425 6.99121 14.243 6.99164 14.2432 6.99219L13.4346 13.0156C13.3751 13.4549 13.3763 13.7508 13.4395 13.9004C13.5035 14.0509 13.6451 14.1075 13.8652 14.0713C14.3594 13.9738 14.7707 13.6036 15.0977 12.96L15.9062 6.87793H15.9072L17.5 6.4502C17.5015 6.45039 17.502 6.45215 17.502 6.45215ZM6.89941 13.8926C6.98935 13.3123 6.62945 13.0358 5.69336 13.2188L3.58496 13.6318L3.58398 13.6328L3.28906 15.5312C3.28906 15.5312 3.28916 15.5332 3.29102 15.5332L5.45801 15.1084H5.45703C6.26298 14.9504 6.7952 14.5596 6.89551 13.918L6.89941 13.8926ZM6.97461 10.5254C7.06285 9.95788 6.68503 9.72063 5.91504 9.87109L4.11426 10.2236L4.11328 10.2246L3.8291 12.0488C3.8291 12.0488 3.82934 12.0507 3.83105 12.0508L5.5127 11.7227V11.7217C6.31878 11.5638 6.8704 11.1916 6.9707 10.5498L6.97461 10.5254Z" fill="#00AF66"/>
<path d="M23.2386 11.489C23.2377 11.4769 23.2349 11.4658 23.234 11.4537C23.2247 11.3794 23.2108 11.3088 23.195 11.241C23.1913 11.2252 23.1875 11.2085 23.1838 11.1927C23.1653 11.1203 23.1439 11.0515 23.1216 10.9884C23.1207 10.9856 23.1197 10.981 23.1188 10.9782C23.0714 10.8621 22.9089 10.8444 22.8086 10.9206L21.9615 11.5717C21.8891 11.6274 21.8751 11.7259 21.9179 11.8067C21.9244 11.8187 21.9281 11.8299 21.9336 11.842C21.9494 11.8745 21.9634 11.907 21.9773 11.9395C21.9922 11.9748 22.0061 12.0092 22.0182 12.0435C22.0293 12.076 22.0386 12.1076 22.047 12.1392C22.0562 12.1736 22.0655 12.2079 22.073 12.2423C22.0795 12.2739 22.0841 12.3045 22.0888 12.3352C22.0934 12.3668 22.0971 12.3983 22.0999 12.4299C22.0999 12.4318 22.0999 12.4336 22.0999 12.4355C22.1027 12.4661 22.1036 12.4959 22.1045 12.5265C22.1045 12.559 22.1055 12.5915 22.1045 12.6231C22.1045 12.6528 22.1018 12.6816 22.0999 12.7104C22.0971 12.742 22.0943 12.7736 22.0897 12.8042C22.086 12.8321 22.0813 12.859 22.0767 12.8869C22.0711 12.9166 22.0655 12.9463 22.059 12.9751C22.0525 13.0011 22.047 13.0271 22.0395 13.0531C22.0321 13.081 22.0237 13.1089 22.0154 13.1358C22.007 13.16 21.9996 13.1841 21.9912 13.2083C21.8761 13.5306 21.7126 13.76 21.6587 13.8296C21.6531 13.8371 21.6476 13.8445 21.6448 13.8482C21.6438 13.8491 21.6457 13.8501 21.6476 13.8501C21.8853 13.721 22.0869 13.5872 22.2624 13.4525C22.2643 13.4516 22.2662 13.4525 22.268 13.4507C22.2727 13.447 22.2754 13.4433 22.2801 13.4395C22.4073 13.3402 22.5169 13.2398 22.6154 13.1395C22.6386 13.1163 22.66 13.0922 22.6823 13.068C22.7705 12.9714 22.8495 12.8739 22.9145 12.7773C22.9182 12.7726 22.9228 12.7671 22.9256 12.7615C22.9925 12.6593 23.0445 12.5581 23.0882 12.4578C23.0984 12.4346 23.1086 12.4104 23.1179 12.3872C23.1569 12.2887 23.1894 12.1912 23.2098 12.0965C23.2108 12.0909 23.2117 12.0853 23.2126 12.0788C23.2312 11.9869 23.2414 11.8977 23.2461 11.8104C23.247 11.789 23.2488 11.7677 23.2488 11.7472C23.2507 11.659 23.2479 11.5726 23.2386 11.4899" fill="#694780"/>
<path d="M10.5424 9.4818C10.5061 9.5366 10.4476 9.57561 10.3873 9.58676H10.3826C10.3185 9.59698 10.26 9.57561 10.2247 9.5301L9.85783 9.05548C9.79745 8.97653 9.82067 8.85021 9.90984 8.77404C9.99993 8.69695 10.1216 8.69881 10.182 8.77683L10.3947 9.05269H10.3965L11.1145 7.98269V7.98083C10.9371 7.87309 10.7161 7.82665 10.4727 7.8703C9.89591 7.97433 9.42871 8.52698 9.42871 9.10285C9.42871 9.67871 9.89591 10.0623 10.4727 9.95736C11.0495 9.85333 11.5167 9.30068 11.5167 8.72482C11.5167 8.53812 11.4638 8.37558 11.3783 8.23997C11.3783 8.23997 11.3764 8.23997 11.3755 8.23997L10.5424 9.4818Z" fill="#694780"/>
</svg>
