<svg width="24" height="24" viewBox="0 0 24 24" fill="none" xmlns="http://www.w3.org/2000/svg">
<path d="M20.9679 5.46368H18.5363V3.03211C18.5363 1.90895 17.6216 1 16.5042 1H7.50158C6.37842 1 5.46368 1.91474 5.46368 3.03211V5.46368H3.03211C1.91474 5.46368 1 6.37842 1 7.50158V14.9758C1 15.2942 1.26053 15.5547 1.57895 15.5547H5.46368V19.4916C5.46368 21.4253 7.03842 23 8.97211 23H17.9516C18.27 23 18.5305 22.7395 18.5305 22.4211V15.5547H22.4211C22.7395 15.5547 23 15.2942 23 14.9758V7.50158C23 6.37842 22.0853 5.46368 20.9679 5.46368ZM6.62158 3.03211C6.62158 2.55158 7.01526 2.15789 7.50158 2.15789H16.4984C16.9789 2.15789 17.3726 2.55158 17.3726 3.03211V5.46368H6.62158V3.03211ZM17.3784 21.8421H8.97211C7.67526 21.8421 6.62158 20.7884 6.62158 19.4916V12.5789H17.3726V21.8421H17.3784ZM21.8421 14.3968H18.5363V12C18.5363 11.6816 18.2758 11.4211 17.9574 11.4211H6.04263C5.72421 11.4211 5.46368 11.6816 5.46368 12V14.3968H2.15789V7.50158C2.15789 7.02105 2.55158 6.62737 3.03211 6.62737H20.9621C21.4426 6.62737 21.8363 7.02105 21.8363 7.50158V14.3968H21.8421Z" fill="currentColor"/>
<path d="M20.1864 9.0242C20.5988 9.0242 20.9332 8.68983 20.9332 8.27736C20.9332 7.86489 20.5988 7.53052 20.1864 7.53052C19.7739 7.53052 19.4395 7.86489 19.4395 8.27736C19.4395 8.68983 19.7739 9.0242 20.1864 9.0242Z" fill="currentColor"/>
<path d="M14.9758 14.3969H7.53634C7.21792 14.3969 6.9574 14.6574 6.9574 14.9758C6.9574 15.2942 7.21792 15.5547 7.53634 15.5547H14.9816C15.3 15.5547 15.5606 15.2942 15.5606 14.9758C15.5606 14.6574 15.3 14.3969 14.9758 14.3969Z" fill="currentColor"/>
<path d="M14.9758 16.6316H7.53634C7.21792 16.6316 6.9574 16.8921 6.9574 17.2105C6.9574 17.529 7.21792 17.7895 7.53634 17.7895H14.9816C15.3 17.7895 15.5606 17.529 15.5606 17.2105C15.5606 16.8921 15.3 16.6316 14.9758 16.6316Z" fill="currentColor"/>
<path d="M12 18.8663H7.53634C7.21792 18.8663 6.9574 19.1269 6.9574 19.4453C6.9574 19.7637 7.21792 20.0242 7.53634 20.0242H12C12.3184 20.0242 12.579 19.7637 12.579 19.4453C12.579 19.1269 12.3184 18.8663 12 18.8663Z" fill="currentColor"/>
</svg>
