<svg width="24" height="24" viewBox="0 0 24 24" fill="none" xmlns="http://www.w3.org/2000/svg">
<path d="M22.3642 13.1856L18.096 11.4506C17.9572 11.3928 17.8011 11.3928 17.6623 11.4506L13.3942 13.1856C13.1744 13.2724 13.0356 13.4864 13.0356 13.7235V17.9858C13.0356 19.8481 14.1402 21.5021 15.8463 22.1961L17.6681 22.9364C17.7375 22.9653 17.8127 22.9769 17.8878 22.9769C17.963 22.9769 18.0382 22.9653 18.1076 22.9364L19.9294 22.1961C21.6355 21.5021 22.7401 19.8481 22.7401 17.9858V13.7235C22.7228 13.4864 22.584 13.2782 22.3642 13.1856ZM21.5661 17.9858C21.5661 19.3796 20.7448 20.6115 19.4783 21.1262L17.8763 21.7797L16.2743 21.1262C15.0077 20.6115 14.1865 19.3796 14.1865 17.9858V14.1167L17.8763 12.6188L21.5661 14.1167V17.9858Z" fill="currentColor"/>
<path d="M8.39165 21.7913H4.22183C2.9437 21.7913 1.89691 20.7503 1.89691 19.4664V2.15668H15.5168C16.7776 2.15668 17.8012 3.18034 17.8012 4.44111V8.66877C17.8012 8.98686 18.0615 9.24711 18.3796 9.24711C18.6977 9.24711 18.9579 8.98686 18.9579 8.66877V4.44111C18.9579 2.54416 17.4137 1 15.5168 1H1.31857C1.00049 1 0.740234 1.26025 0.740234 1.57834V19.4664C0.740234 21.3864 2.30174 22.948 4.22183 22.948H8.39165C8.70974 22.948 8.96999 22.6877 8.96999 22.3696C8.96999 22.0515 8.71552 21.7913 8.39165 21.7913Z" fill="currentColor"/>
<path d="M3.6088 4.80542C3.29071 4.80542 3.03046 5.06567 3.03046 5.38376C3.03046 5.70184 3.29071 5.9621 3.6088 5.9621H12.5615C12.8796 5.9621 13.1398 5.70184 13.1398 5.38376C13.1398 5.06567 12.8796 4.80542 12.5615 4.80542H3.6088Z" fill="currentColor"/>
<path d="M12.5615 8.10205H3.6088C3.29071 8.10205 3.03046 8.3623 3.03046 8.68039C3.03046 8.99848 3.29071 9.25873 3.6088 9.25873H12.5615C12.8796 9.25873 13.1398 8.99848 13.1398 8.68039C13.1398 8.3623 12.8796 8.10205 12.5615 8.10205Z" fill="currentColor"/>
<path d="M9.83751 11.3927H3.6088C3.29071 11.3927 3.03046 11.653 3.03046 11.971C3.03046 12.2891 3.29071 12.5494 3.6088 12.5494H9.83173C10.1498 12.5494 10.4101 12.2891 10.4101 11.971C10.4101 11.653 10.1556 11.3927 9.83751 11.3927Z" fill="currentColor"/>
</svg>
