<svg width="24" height="24" viewBox="0 0 24 24" fill="none" xmlns="http://www.w3.org/2000/svg">
<path d="M12.3286 1.47363C12.0103 1.47363 11.7498 1.73407 11.7498 2.05237V6.89642C11.7498 7.45201 11.3216 7.90922 10.7891 7.90922H10.1525V2.05237C10.1525 1.73407 9.89208 1.47363 9.57377 1.47363C9.25546 1.47363 8.99503 1.73407 8.99503 2.05237V7.90343H8.35841C7.83176 7.90343 7.39771 7.45201 7.39771 6.89063V2.05237C7.39771 1.73407 7.13728 1.47363 6.81897 1.47363C6.50067 1.47363 6.24023 1.73407 6.24023 2.05237V6.89642C6.24023 8.03075 7.09676 8.95095 8.17901 9.04933L7.36877 20.7804C7.32826 21.3707 7.5366 21.9552 7.94172 22.3893C8.34684 22.8233 8.91401 23.0664 9.50432 23.0664C10.0889 23.0664 10.656 22.8233 11.0611 22.3951C11.4663 21.9668 11.6746 21.3881 11.6399 20.8035L10.957 9.04933C12.045 8.95673 12.9015 8.03075 12.9015 6.89642V2.05237C12.9073 1.73407 12.6469 1.47363 12.3286 1.47363ZM10.222 21.5964C9.84577 21.9957 9.16287 21.9957 8.78669 21.5906C8.6015 21.3881 8.5031 21.1276 8.52625 20.8498L9.33648 9.05512C9.49274 9.05512 9.649 9.05512 9.80526 9.05512L10.4882 20.8614C10.5055 21.1392 10.4072 21.3996 10.222 21.5964Z" fill="currentColor"/>
<path d="M16.2119 1.45049C15.8762 1.08588 15.3785 0.970135 14.9213 1.14954C14.4525 1.33474 14.1458 1.79194 14.1458 2.31281V13.1237L13.7291 20.873C13.7002 21.4459 13.8969 21.9899 14.2963 22.4066C14.6898 22.8233 15.2223 23.0548 15.7952 23.0548C16.3682 23.0548 16.9006 22.8291 17.2941 22.4124C17.6877 22.0015 17.8903 21.4575 17.8613 20.8846L17.4851 13.1526L17.9886 6.63599C18.1391 4.71458 17.4909 2.8221 16.2119 1.45049ZM15.3091 2.3186C15.3091 2.23757 15.3554 2.23179 15.3669 2.24336C16.426 3.37769 16.9643 4.95186 16.8427 6.55497L16.374 12.5739H15.3091V2.3186ZM16.4608 21.6196C16.1135 21.9842 15.4885 21.9842 15.1412 21.6196C14.9676 21.4344 14.8808 21.1971 14.8924 20.9424L15.2801 13.7313H16.3624L16.7154 20.9482C16.727 21.1971 16.6344 21.4344 16.4608 21.6196Z" fill="currentColor"/>
</svg>
