<svg width="22" height="23" viewBox="0 0 22 23" fill="none" xmlns="http://www.w3.org/2000/svg">
<path d="M11 0.169983C4.93263 0.169983 0 5.10261 0 11.17C0 14.1921 1.22737 16.9305 3.20158 18.9221C3.20737 18.9337 3.21316 18.9395 3.21895 18.951C3.22474 18.9626 3.23632 18.9626 3.24789 18.9684C5.23947 20.9484 7.97789 22.17 11 22.17C17.0674 22.17 22 17.2374 22 11.17C22 5.10261 17.0674 0.169983 11 0.169983ZM11 1.32788C13.5068 1.32788 15.7879 2.27735 17.5247 3.82314L3.65316 17.6947C2.10737 15.9579 1.15789 13.671 1.15789 11.17C1.15789 5.73946 5.57526 1.32788 11 1.32788ZM11 21.0121C8.49316 21.0121 6.21211 20.0626 4.47526 18.5168L18.3468 4.64524C19.8926 6.38209 20.8421 8.66893 20.8421 11.17C20.8421 16.5947 16.4247 21.0121 11 21.0121Z" fill="currentColor"/>
</svg>
