<svg width="24" height="24" viewBox="0 0 24 24" fill="none" xmlns="http://www.w3.org/2000/svg">
<path d="M18.7289 12.621C18.2764 12.621 17.8703 12.8066 17.557 13.0967C17.412 12.9633 17.2379 12.8589 17.0464 12.7776C17.9747 11.5303 18.4795 10.0334 18.4795 8.45537C18.4795 4.4406 15.2189 1.18005 11.2099 1.18005C7.20098 1.18005 3.94043 4.4406 3.94043 8.44957C3.94043 11.8842 6.31332 14.8082 9.63189 15.5392V17.3494L9.01691 16.6822C8.33231 15.9453 7.12556 15.9453 6.44096 16.6822C5.75636 17.4248 5.75636 18.5909 6.44096 19.3335L9.28379 22.4432C9.71311 22.9132 10.3107 23.1801 10.9199 23.1801H17.3481C19.0944 23.1801 20.5217 21.66 20.5217 19.7919V14.5239C20.5217 13.468 19.7152 12.621 18.7289 12.621ZM5.10077 8.44957C5.10077 5.07879 7.83917 2.34039 11.2099 2.34039C14.5807 2.34039 17.3191 5.08459 17.3191 8.44957C17.3191 10.0914 16.6751 11.6289 15.509 12.7892V12.795C15.3524 12.8647 15.2073 12.9575 15.0797 13.0619C14.7664 12.795 14.3487 12.6268 13.8903 12.621C15.2885 11.7217 16.182 10.1669 16.182 8.44957C16.182 5.70537 13.9541 3.47752 11.2099 3.47752C8.46575 3.47752 6.2379 5.70537 6.2379 8.44957C6.2379 10.5846 7.6245 12.4875 9.63189 13.1605V14.3499C6.97471 13.6479 5.10077 11.2518 5.10077 8.44957ZM13.2231 11.6753V10.5092C13.7743 9.96961 14.0876 9.2386 14.0876 8.45537C14.0876 6.86571 12.7938 5.57773 11.2099 5.57773C9.62609 5.57773 8.33231 6.87151 8.33231 8.45537C8.33231 9.44166 8.82545 10.3351 9.63189 10.8631V11.9248C8.2917 11.3156 7.39824 9.96381 7.39824 8.46117C7.39824 6.36096 9.10974 4.64946 11.2099 4.64946C13.3102 4.64946 15.0217 6.36096 15.0217 8.46117C15.0217 9.78396 14.3196 10.9849 13.2231 11.6753ZM9.88136 9.54029C9.63189 9.2386 9.49264 8.85569 9.49264 8.44957C9.49264 7.50389 10.2643 6.73227 11.2099 6.73227C12.1556 6.73227 12.9272 7.50389 12.9272 8.44957C12.9272 8.71645 12.8634 8.97752 12.7474 9.20959C12.4167 8.83248 11.9526 8.58881 11.4246 8.58881C10.769 8.58881 10.1947 8.97752 9.88136 9.54029ZM19.3613 19.7861C19.3613 21.016 18.4563 22.0139 17.3481 22.0139H10.9199C10.6298 22.0139 10.3513 21.8863 10.1366 21.6542L7.29381 18.5445C7.02693 18.2544 7.02693 17.7613 7.29381 17.4654C7.53168 17.2101 7.92619 17.2101 8.15826 17.4654C8.15826 17.4654 9.77693 19.2233 9.78853 19.2291C9.87556 19.2929 9.96258 19.3625 10.0728 19.3857C10.1772 19.409 10.2933 19.4032 10.3977 19.3683C10.4267 19.3567 10.4557 19.3451 10.4789 19.3335C10.6588 19.2349 10.769 19.0376 10.7864 18.8288V10.4918C10.7864 10.0856 11.0707 9.75495 11.4246 9.75495C11.7785 9.75495 12.0628 10.0856 12.0628 10.4918V14.2687V14.9301V15.8467C12.0628 16.1658 12.3239 16.4269 12.643 16.4269C12.9621 16.4269 13.2231 16.1658 13.2231 15.8467V14.9301V14.2687C13.2231 14.0018 13.5132 13.7813 13.8613 13.7813C14.2036 13.7813 14.4995 14.0018 14.4995 14.2687V15.8467C14.4995 16.1658 14.7606 16.4269 15.0797 16.4269C15.3988 16.4269 15.6598 16.1658 15.6598 15.8467V14.2687C15.6598 14.0018 15.9499 13.7813 16.298 13.7813C16.6461 13.7813 16.9362 14.0018 16.9362 14.2687V14.5181V14.9649V15.8409C16.9362 16.16 17.1973 16.4211 17.5164 16.4211C17.8355 16.4211 18.0965 16.16 18.0965 15.8409V14.9649V14.5181C18.0965 14.112 18.3808 13.7813 18.7347 13.7813C19.0886 13.7813 19.3729 14.112 19.3729 14.5181V19.7861H19.3613Z" fill="currentColor"/>
</svg>
