<svg width="24" height="24" viewBox="0 0 24 24" fill="none" xmlns="http://www.w3.org/2000/svg">
<path fill-rule="evenodd" clip-rule="evenodd" d="M10.5121 1.07996H1.57895C1.26053 1.07996 1 1.34041 1 1.65875V10.5896C1 10.9079 1.26053 11.1684 1.57895 11.1684H10.5121C10.8305 11.1684 11.091 10.9079 11.091 10.5896V1.65875C11.091 1.34041 10.8305 1.07996 10.5121 1.07996ZM9.93315 10.0108H2.15789V2.23755H9.93315V10.0108Z" fill="currentColor"/>
<path d="M7.93008 4.24011H4.16113V8.00906H7.93008V4.24011Z" fill="currentColor"/>
<path fill-rule="evenodd" clip-rule="evenodd" d="M10.5121 12.9915H1.57895C1.26053 12.9915 1 13.2519 1 13.5703V19.5897C1 21.5113 2.56316 23.0798 4.49105 23.0798H10.5121C10.8305 23.0798 11.091 22.8194 11.091 22.5011V13.5703C11.091 13.2461 10.8305 12.9915 10.5121 12.9915ZM9.93315 21.9165H4.49105C3.20579 21.9165 2.15789 20.8689 2.15789 19.5839V14.1433H9.93315V21.9165Z" fill="currentColor"/>
<path d="M7.93008 16.1519H4.16113V19.9208H7.93008V16.1519Z" fill="currentColor"/>
<path fill-rule="evenodd" clip-rule="evenodd" d="M22.4213 1.07996H13.4881C13.1697 1.07996 12.9092 1.34041 12.9092 1.65875V10.5896C12.9092 10.9079 13.1697 11.1684 13.4881 11.1684H22.4213C22.7397 11.1684 23.0002 10.9079 23.0002 10.5896V1.65875C23.0002 1.34041 22.7397 1.07996 22.4213 1.07996ZM21.8423 10.0108H14.0671V2.23755H21.8423V10.0108Z" fill="currentColor"/>
<path d="M19.8393 4.24011H16.0703V8.00906H19.8393V4.24011Z" fill="currentColor"/>
<path d="M16.4807 13.5703H13.5049V16.5461H16.4807V13.5703Z" fill="currentColor"/>
<path fill-rule="evenodd" clip-rule="evenodd" d="M19.4457 16.5453H16.4814V19.5203H19.4457V22.4953H22.4214V13.5703H19.4457V16.5453Z" fill="currentColor"/>
<path d="M16.4807 19.5204H13.5049V22.4962H16.4807V19.5204Z" fill="currentColor"/>
</svg>
