<svg width="24" height="24" viewBox="0 0 24 24" fill="none" xmlns="http://www.w3.org/2000/svg">
<path d="M17.1928 17.2571L16.1469 10.6548C16.0994 10.3398 16.1112 10.0308 16.1825 9.72174L17.4305 4.54562C17.7811 4.46242 18.0426 4.15934 18.0426 3.78495C18.0426 3.34519 17.6861 2.98268 17.2404 2.98268C16.9254 2.98268 16.658 3.17285 16.5272 3.43433C15.3387 3.36302 14.1917 2.99457 13.1815 2.34087L13.0032 2.22201C13.0923 2.09127 13.1518 1.94865 13.1518 1.78225C13.1518 1.34249 12.7952 0.97998 12.3495 0.97998C11.9038 0.97998 11.5472 1.33654 11.5472 1.78225C11.5472 1.95459 11.6126 2.10316 11.7017 2.2339C10.6736 2.93514 9.49697 3.34519 8.23711 3.42839C8.13014 3.11936 7.83895 2.89354 7.48833 2.89354C7.04856 2.89354 6.68605 3.2501 6.68605 3.69581C6.68605 4.05237 6.92377 4.34357 7.24467 4.44459L8.51642 9.7158C8.58773 10.0189 8.60556 10.3338 8.55207 10.6488L7.51804 17.2036H6.23441C5.90756 17.2036 5.64014 17.4711 5.64014 17.7979V20.6267C5.64014 21.9222 6.692 22.98 7.99346 22.98H18.4646C18.7914 22.98 19.0588 22.7126 19.0588 22.3857V19.557C19.0648 18.4278 18.2625 17.477 17.1928 17.2571ZM9.68714 9.44243L8.52237 4.61099C9.90702 4.49214 11.2204 4.02266 12.3733 3.23822L12.5456 3.34519C13.6509 4.05832 14.8989 4.48619 16.2004 4.60505L15.0356 9.44243C14.9227 9.90002 14.9049 10.3695 14.9821 10.839L15.9864 17.2036H8.74224L9.74657 10.839C9.81788 10.3754 9.80005 9.90002 9.68714 9.44243ZM17.8762 21.7914H7.9994C7.35759 21.7914 6.83462 21.2685 6.83462 20.6267V18.3922H8.03506H16.6698H16.7055C17.3473 18.3922 17.8703 18.9152 17.8703 19.557V21.7914H17.8762Z" fill="currentColor"/>
</svg>
