<svg width="24" height="24" viewBox="0 0 24 24" fill="none" xmlns="http://www.w3.org/2000/svg">
<path d="M17.8876 6.06611H16.9615C16.8457 4.61293 16.157 3.25817 15.0341 2.30868C13.7955 1.26077 12.1691 0.809182 10.5658 1.0755C8.4011 1.43446 6.65893 3.04396 6.12644 5.17452L5.53027 7.55403H5.24088C2.86782 7.55403 0.94043 9.48196 0.94043 11.8557C0.94043 14.2294 2.86782 16.1573 5.24088 16.1573C5.55921 16.1573 5.81967 15.8968 5.81967 15.5784C5.81967 15.26 5.55921 14.9994 5.24088 14.9994C3.51028 14.9994 2.09802 13.5868 2.09802 11.8557C2.09802 10.1246 3.51028 8.71195 5.24088 8.71195H5.98752C6.25377 8.71195 6.48529 8.53247 6.54896 8.27194L7.25508 5.45242C7.6776 3.76765 9.04935 2.49974 10.7626 2.21605C12.0301 2.00762 13.3151 2.36079 14.2932 3.1887C15.2714 4.0166 15.8328 5.22663 15.8328 6.51191V6.64507C15.8328 6.9635 16.0933 7.22403 16.4116 7.22403H17.8991C20.0407 7.22403 21.7828 8.96669 21.7828 11.1088C21.7828 13.251 20.0407 14.9936 17.8991 14.9936C17.5808 14.9936 17.3203 15.2542 17.3203 15.5726C17.3203 15.891 17.5808 16.1515 17.8991 16.1515C20.6831 16.1515 22.9404 13.8878 22.9404 11.1088C22.9346 8.32984 20.6716 6.06611 17.8876 6.06611Z" fill="currentColor"/>
<path d="M11.9374 12.9094C11.6189 12.9094 11.3584 13.17 11.3584 13.4884V16.4642C11.3584 16.7826 11.6189 17.0432 11.9374 17.0432C12.2558 17.0432 12.5163 16.7826 12.5163 16.4642V13.4884C12.5163 13.17 12.2558 12.9094 11.9374 12.9094Z" fill="currentColor"/>
<path d="M11.9374 18.8668C11.6189 18.8668 11.3584 19.1274 11.3584 19.4458V22.4216C11.3584 22.74 11.6189 23.0006 11.9374 23.0006C12.2558 23.0006 12.5163 22.74 12.5163 22.4216V19.4458C12.5163 19.1216 12.2558 18.8668 11.9374 18.8668Z" fill="currentColor"/>
<path d="M8.55161 15.8621C8.23319 15.8621 7.97266 16.1226 7.97266 16.441V19.4632C7.97266 19.7816 8.23319 20.0421 8.55161 20.0421C8.87004 20.0421 9.13057 19.7816 9.13057 19.4632V16.441C9.13057 16.1226 8.87583 15.8621 8.55161 15.8621Z" fill="currentColor"/>
<path d="M15.3231 15.8621C15.0047 15.8621 14.7441 16.1226 14.7441 16.441V19.4632C14.7441 19.7816 15.0047 20.0421 15.3231 20.0421C15.6415 20.0421 15.9021 19.7816 15.9021 19.4632V16.441C15.9021 16.1226 15.6415 15.8621 15.3231 15.8621Z" fill="currentColor"/>
</svg>
