<svg width="22" height="20" viewBox="0 0 22 20" fill="none" xmlns="http://www.w3.org/2000/svg">
<path d="M7.28351 19.6066H18.4543C18.7728 19.6066 19.0334 19.346 19.0334 19.0275C19.0334 18.709 18.7728 18.4484 18.4543 18.4484H7.28351C3.90736 18.4484 1.16242 15.7034 1.16242 12.3273C1.16242 8.95114 3.90736 6.20621 7.28351 6.20621H20.0584L16.6649 9.69239C16.4391 9.92403 16.4449 10.2889 16.6765 10.5089C16.7865 10.6189 16.9371 10.6711 17.0819 10.6711C17.2324 10.6711 17.383 10.6132 17.4988 10.4973L21.8479 6.03248C21.8942 5.98036 21.9405 5.91087 21.9637 5.84717C21.9926 5.77767 22.01 5.70239 22.01 5.62132C22.01 5.47654 21.9463 5.32598 21.8421 5.22174L17.3888 0.756881C17.1629 0.531032 16.7981 0.531032 16.5723 0.756881C16.3464 0.982729 16.3464 1.34756 16.5723 1.57341L20.0411 5.0538H7.28929C3.27613 5.0538 0.0100098 8.31992 0.0100098 12.3331C0.0100098 16.3462 3.27035 19.6066 7.28351 19.6066Z" fill="currentColor"/>
</svg>
