<svg width="19" height="23" viewBox="0 0 19 23" fill="none" xmlns="http://www.w3.org/2000/svg">
<path d="M0 13.2821C0 18.6138 4.33918 22.9529 9.67083 22.9529C13.9177 22.9529 17.7318 20.114 18.9377 16.046C19.0301 15.7402 18.857 15.4171 18.5511 15.3305C18.2453 15.2382 17.9222 15.4113 17.8356 15.7171C16.7682 19.3004 13.4099 21.7989 9.67083 21.7989C4.9739 21.7989 1.15404 17.979 1.15404 13.2821C1.15404 8.58519 4.9739 4.76532 9.67083 4.76532C11.6038 4.76532 13.433 5.41158 14.9217 6.58293L10.721 7.7889C10.4152 7.87545 10.2363 8.19858 10.3229 8.5044C10.3979 8.75829 10.6287 8.91986 10.8768 8.91986C10.9287 8.91986 10.9807 8.91409 11.0384 8.89678L16.2661 7.39653C16.497 7.32729 16.6643 7.09648 16.6816 6.85413C16.6874 6.79643 16.6758 6.7445 16.6643 6.6868L15.2275 1.37823C15.1467 1.07241 14.8294 0.88776 14.5178 0.974313C14.212 1.0551 14.0273 1.37246 14.1139 1.68405L15.089 5.2731C13.5022 4.19408 11.6327 3.61129 9.67083 3.61129C4.33918 3.61129 0 7.95047 0 13.2821Z" fill="currentColor"/>
</svg>
