<svg width="23" height="22" viewBox="0 0 23 22" fill="none" xmlns="http://www.w3.org/2000/svg">
<path d="M22.4158 0.676798C22.1051 0.619266 21.8059 0.826381 21.7484 1.14281L21.0465 5.06652C19.0501 2.00579 15.5924 0.0899658 11.8816 0.0899658C5.8522 0.0899658 0.950439 4.99172 0.950439 11.0211C0.950439 11.3375 1.20934 11.5964 1.52576 11.5964C1.84219 11.5964 2.10109 11.3375 2.10109 11.0211C2.10109 5.63033 6.49081 1.24061 11.8816 1.24061C15.2702 1.24061 18.423 3.02987 20.1893 5.87197L16.0814 5.19884C15.765 5.14706 15.4716 5.35993 15.4198 5.67061C15.368 5.98704 15.5809 6.28045 15.8916 6.33223L21.2421 7.21248C21.547 7.2585 21.8462 7.05139 21.9037 6.74647L22.8703 1.34417C22.9393 1.02774 22.7264 0.728578 22.4158 0.676798Z" fill="currentColor"/>
<path d="M22.2374 10.4401C21.921 10.4401 21.6621 10.699 21.6621 11.0154C21.6621 16.4062 17.2724 20.7959 11.8816 20.7959C8.49292 20.7959 5.34014 19.0066 3.5739 16.1645L7.68172 16.8377C7.99815 16.8894 8.29156 16.6766 8.34334 16.3659C8.39512 16.0552 8.18224 15.7561 7.87157 15.7043L2.52106 14.824C2.21038 14.7722 1.91697 14.9794 1.85944 15.29L0.89289 20.6923C0.835358 21.003 1.04248 21.3022 1.35891 21.3597C1.39343 21.3655 1.42794 21.3712 1.46246 21.3712C1.73862 21.3712 1.98025 21.1756 2.02628 20.8994L2.72817 16.9757C4.72455 20.0365 8.18224 21.9523 11.8931 21.9523C17.9225 21.9523 22.8242 17.0505 22.8242 11.0211C22.8127 10.699 22.5538 10.4401 22.2374 10.4401Z" fill="currentColor"/>
</svg>
