<svg width="24" height="24" viewBox="0 0 24 24" fill="none" xmlns="http://www.w3.org/2000/svg">
<path d="M18.0126 1.48108C15.5259 1.48108 13.502 3.52286 13.502 6.03144C13.502 8.54002 15.5259 10.5818 18.0126 10.5818C20.4993 10.5818 22.5233 8.54002 22.5233 6.03144C22.5245 3.52286 20.4993 1.48108 18.0126 1.48108ZM20.6547 6.27137H18.2516V8.69681C18.2516 8.82984 18.1457 8.93674 18.0138 8.93674C17.8819 8.93674 17.776 8.82984 17.776 8.69681V6.27137H15.3729C15.241 6.27137 15.135 6.16447 15.135 6.03144C15.135 5.89841 15.241 5.79151 15.3729 5.79151H17.776V3.36608C17.776 3.23305 17.8819 3.12615 18.0138 3.12615C18.1457 3.12615 18.2516 3.23305 18.2516 3.36608V5.79032H20.6547C20.7866 5.79032 20.8926 5.89722 20.8926 6.03025C20.8926 6.16328 20.7866 6.27137 20.6547 6.27137Z" fill="#C9C2EA"/>
<path d="M7.4329 14.7544C9.98435 14.7544 12.0601 12.6604 12.0601 10.0865C12.0601 7.51256 9.98435 5.41852 7.4329 5.41852C4.88144 5.41852 2.80566 7.51256 2.80566 10.0865C2.80566 12.6604 4.88144 14.7544 7.4329 14.7544ZM7.4329 5.89957C9.72179 5.89957 11.5833 7.77744 11.5833 10.0865C11.5833 12.3955 9.72179 14.2734 7.4329 14.2734C5.14401 14.2734 3.28252 12.3955 3.28252 10.0865C3.28252 7.77744 5.14401 5.89957 7.4329 5.89957Z" fill="currentColor"/>
<path d="M9.75053 15.4718H5.11388C2.84618 15.4718 1 17.333 1 19.6219V22.7588C1 22.8918 1.10597 22.9987 1.23784 22.9987H13.6266C13.7584 22.9987 13.8644 22.8918 13.8644 22.7588V19.6219C13.8644 17.333 12.0194 15.4718 9.75053 15.4718ZM13.3887 22.5189H1.47685V19.6219C1.47685 17.5979 3.10875 15.9517 5.11388 15.9517H9.75053C11.7568 15.9517 13.3887 17.5979 13.3887 19.6219V22.5189Z" fill="currentColor"/>
<path d="M20.6545 5.79146H18.2514V3.36603C18.2514 3.233 18.1454 3.1261 18.0135 3.1261C17.8817 3.1261 17.7757 3.233 17.7757 3.36603V5.79028H15.3726C15.2407 5.79028 15.1348 5.89718 15.1348 6.03021C15.1348 6.16324 15.2407 6.27014 15.3726 6.27014H17.7757V8.69676C17.7757 8.82979 17.8817 8.93669 18.0135 8.93669C18.1454 8.93669 18.2514 8.82979 18.2514 8.69676V6.27133H20.6545C20.7863 6.27133 20.8923 6.16443 20.8923 6.03139C20.8923 5.89836 20.7863 5.79146 20.6545 5.79146Z" fill="currentColor"/>
<path d="M18.0119 1C15.2615 1 13.0244 3.25677 13.0244 6.03141C13.0244 8.80605 15.2615 11.0616 18.0119 11.0616C20.7624 11.0616 22.9995 8.80486 22.9995 6.03141C22.9995 3.25677 20.7624 1 18.0119 1ZM18.0119 10.5818C15.5252 10.5818 13.5013 8.53999 13.5013 6.03141C13.5013 3.52283 15.5252 1.48105 18.0119 1.48105C20.4986 1.48105 22.5226 3.52283 22.5226 6.03141C22.5238 8.53999 20.4986 10.5818 18.0119 10.5818Z" fill="currentColor"/>
</svg>
