<svg width="24" height="24" viewBox="0 0 24 24" fill="none" xmlns="http://www.w3.org/2000/svg">
<path d="M22.379 8.40063L15.5923 1.6139C15.1452 1.1668 14.5261 0.94898 13.9013 1.01203C13.2708 1.07509 12.7148 1.41328 12.3651 1.94062L8.54186 7.73571L3.45181 2.64566C3.22826 2.42211 2.86714 2.42211 2.64359 2.64566C2.42004 2.86921 2.42004 3.23033 2.64359 3.45388L7.02859 7.83889L5.34337 7.5007C5.15422 7.46057 4.95934 7.52363 4.82177 7.65546L2.15636 10.3209C1.93281 10.5444 1.93281 10.9055 2.15636 11.1291L6.99994 15.9726L1.16473 21.8079C0.941183 22.0314 0.941183 22.3925 1.16473 22.6161C1.27937 22.7307 1.42267 22.7823 1.5717 22.7823C1.72074 22.7823 1.86403 22.725 1.97867 22.6161L7.80816 16.7866L12.8237 21.8021C12.9326 21.911 13.0759 21.9684 13.2307 21.9684C13.3854 21.9684 13.5287 21.9053 13.6376 21.8021L16.303 19.1367C16.4349 19.0049 16.4979 18.81 16.4635 18.6208L16.1425 16.9528L20.3327 21.1487C20.4473 21.2633 20.5906 21.3149 20.7396 21.3149C20.8887 21.3149 21.032 21.2576 21.1466 21.1487C21.3702 20.9251 21.3702 20.564 21.1466 20.3405L16.2629 15.4568L22.058 11.6335C22.5853 11.2838 22.9235 10.7278 22.9866 10.0973C23.0496 9.46679 22.8261 8.84773 22.379 8.40063ZM14.6981 15.5313L15.277 18.5349L13.2307 20.5812L8.22087 15.5714L3.37729 10.7278L5.42363 8.6815L8.46734 9.29483C8.4788 9.29483 8.48453 9.29483 8.49599 9.29483L14.7038 15.5026C14.6981 15.5198 14.6923 15.5255 14.6981 15.5313ZM21.4217 10.6705L15.4318 14.6256L9.36727 8.56112L13.3224 2.57115C13.4771 2.3304 13.7351 2.18137 14.0159 2.15271C14.3025 2.12405 14.5777 2.22149 14.7783 2.42785L21.565 9.21458C21.7657 9.4152 21.8688 9.69607 21.8345 9.97694C21.8173 10.2635 21.6625 10.5157 21.4217 10.6705Z" fill="currentColor"/>
</svg>
