<svg width="24" height="24" viewBox="0 0 24 24" fill="none" xmlns="http://www.w3.org/2000/svg">
<path d="M20.1763 3.82134L22.2572 1.7404C22.4938 1.5038 22.4938 1.12158 22.2572 0.884976C22.0206 0.648368 21.6384 0.648368 21.4018 0.884976L19.3209 2.96591L17.2399 0.884976C17.0033 0.648368 16.6211 0.648368 16.3845 0.884976C16.1479 1.12158 16.1479 1.5038 16.3845 1.7404L18.4654 3.82134L16.3845 5.90228C16.1479 6.13889 16.1479 6.5211 16.3845 6.75771C16.5058 6.87905 16.6575 6.93365 16.8152 6.93365C16.973 6.93365 17.1246 6.87298 17.246 6.75771L19.3269 4.67677L21.4079 6.75771C21.5292 6.87905 21.6809 6.93365 21.8386 6.93365C21.9963 6.93365 22.148 6.87298 22.2694 6.75771C22.506 6.5211 22.506 6.13889 22.2694 5.90228L20.1763 3.82134Z" fill="currentColor"/>
<path d="M14.1459 11.0045C14.6556 10.1855 14.9528 9.22086 14.9528 8.18343C14.9528 5.21066 12.5322 2.78998 9.55939 2.78998C6.58662 2.78998 4.16593 5.21066 4.16593 8.18343C4.16593 9.22086 4.46321 10.1855 4.97283 11.0106C3.23163 11.5566 1.96973 13.2068 1.96973 15.0693V19.0613C1.96973 21.0695 3.60172 22.7075 5.61592 22.7075H16.5424C16.87 22.7075 17.1248 22.4527 17.143 22.1312L17.149 22.1372V19.1281V17.4475V15.0815C17.143 13.1643 15.8993 11.5445 14.1459 11.0045ZM9.55332 4.00335C11.8587 4.00335 13.7334 5.87802 13.7334 8.18343C13.7334 10.4888 11.8587 12.3635 9.55332 12.3635C7.24791 12.3635 5.37324 10.4888 5.37324 8.18343C5.37324 5.87802 7.24791 4.00335 9.55332 4.00335ZM15.9296 17.4354V21.4456V21.4881H5.60985C4.26907 21.4881 3.17703 20.396 3.17703 19.0553V15.0633C3.17703 13.6072 4.25087 12.3271 5.67659 12.0723H5.82219C6.79289 13.0005 8.10333 13.5769 9.54725 13.5769C10.9972 13.5769 12.3198 12.9945 13.2905 12.0602C14.7708 12.2604 15.9235 13.5587 15.9235 15.0633V17.4354H15.9296Z" fill="currentColor"/>
</svg>
