<svg width="24" height="25" viewBox="0 0 24 25" fill="none" xmlns="http://www.w3.org/2000/svg">
<path d="M21.795 1H15.4037C15.0621 1 14.7826 1.2795 14.7826 1.62112V5.78882H9.01242C8.67081 5.78882 8.3913 6.06832 8.3913 6.40994V10.5776H2.62112C2.2795 10.5776 2 10.8571 2 11.1988V19.2795C2 21.3292 3.67081 23 5.7205 23H9.00621H15.3975H21.7888C22.1304 23 22.4099 22.7205 22.4099 22.3789V1.62112C22.4161 1.27329 22.1366 1 21.795 1ZM3.24844 19.2795V11.8199H8.39751V21.7578H5.73292C4.36646 21.7578 3.24844 20.646 3.24844 19.2795ZM9.63975 11.1988V7.03106H14.7888V21.7578H9.63975V11.1988ZM21.1739 21.7578H16.0248V6.40994V2.24224H21.1739V21.7578Z" fill="currentColor"/>
</svg>
