<svg width="24" height="24" viewBox="0 0 24 24" fill="none" xmlns="http://www.w3.org/2000/svg">
<path d="M20.1992 10.5127C20.4432 10.4474 20.6933 10.5908 20.7588 10.833L21.5596 13.7871C21.5862 13.8853 21.5717 13.9823 21.5371 14.0703C21.535 14.0759 21.5335 14.0814 21.5312 14.0869C21.5116 14.1316 21.484 14.1706 21.4512 14.207C21.4442 14.215 21.4422 14.2258 21.4346 14.2334C21.4313 14.2367 21.4262 14.2371 21.4229 14.2402C21.398 14.2628 21.3688 14.2789 21.3389 14.2959C21.3121 14.3117 21.2867 14.3281 21.2578 14.3379C21.2532 14.3394 21.2499 14.3434 21.2451 14.3447L18.3359 15.1787C18.2938 15.1912 18.2515 15.1973 18.21 15.1973C18.0117 15.1971 17.8285 15.0663 17.7715 14.8662C17.7024 14.6242 17.8427 14.3723 18.084 14.3027L20.1572 13.708C19.3927 13.1754 18.4863 12.8857 17.5352 12.8857C14.9981 12.886 12.9337 14.9493 12.9336 17.4863C12.9336 20.0235 14.9981 22.0877 17.5352 22.0879C19.5557 22.0879 21.3701 20.7367 21.9463 18.8018C22.0176 18.56 22.2708 18.4205 22.5137 18.4941C22.7552 18.5661 22.8921 18.8205 22.8203 19.0615C22.1302 21.3802 19.9566 23 17.5352 23C14.495 22.9998 12.0215 20.5265 12.0215 17.4863C12.0216 14.4462 14.4951 11.9729 17.5352 11.9727C18.5351 11.9727 19.4915 12.2437 20.3301 12.7393L19.8789 11.0723C19.813 10.8294 19.9564 10.5787 20.1992 10.5127ZM14.2402 1C14.3452 1 14.447 1.03618 14.5283 1.10254L16.3721 2.60645C16.4784 2.69315 16.54 2.82277 16.54 2.95996V10.8086C16.5399 11.0603 16.3357 11.2646 16.084 11.2646C15.8324 11.2645 15.6281 11.0602 15.6279 10.8086V5.78223C15.5718 5.80696 15.5105 5.82126 15.4453 5.82129H12.2178C11.9662 5.82103 11.7617 5.6169 11.7617 5.36523V2.13867C11.7617 2.05448 11.7913 1.97982 11.8311 1.91211H1.91211V22.0752H10.3223C10.5739 22.0754 10.7783 22.2796 10.7783 22.5312C10.7783 22.7829 10.5739 22.9871 10.3223 22.9873H1.45605C1.20427 22.9873 1 22.783 1 22.5312V1.45605C1.00005 1.2043 1.2043 1.00005 1.45605 1H14.2402ZM12.6055 1.91211C12.6453 1.97982 12.6748 2.05448 12.6748 2.13867V4.90918H15.4453C15.5106 4.90921 15.5718 4.92445 15.6279 4.94922V3.17676L14.0781 1.91211H12.6055Z" fill="currentColor"/>
</svg>
