<svg width="24" height="24" viewBox="0 0 24 24" fill="none" xmlns="http://www.w3.org/2000/svg">
<path d="M22.118 6.48528C21.5564 6.16107 20.8906 6.16686 20.3348 6.49107L13.3643 10.5437C12.8085 10.8679 12.4785 11.4411 12.4785 12.0837C12.4785 12.7263 12.8085 13.2995 13.3643 13.6237L20.3348 17.6763C20.6127 17.8384 20.9196 17.9195 21.2322 17.9195C21.539 17.9195 21.8401 17.8384 22.118 17.6821C22.6796 17.3579 23.0096 16.7848 23.0096 16.1363V8.02528C23.0096 7.38265 22.6738 6.8037 22.118 6.48528ZM21.8517 16.1363C21.8517 16.4605 21.6317 16.6226 21.539 16.6748C21.4464 16.7269 21.1975 16.8369 20.9138 16.6748L13.9433 12.6221C13.6654 12.46 13.6364 12.1937 13.6364 12.0837C13.6364 11.9737 13.6654 11.7074 13.9433 11.5453L20.9138 7.49265C21.0238 7.42896 21.128 7.4058 21.2206 7.4058C21.3654 7.4058 21.4753 7.45791 21.5332 7.49265C21.6259 7.54475 21.8459 7.70686 21.8459 8.03107V16.1363H21.8517Z" fill="currentColor"/>
<path d="M10.6492 6.48528C10.0877 6.16107 9.42186 6.16686 8.86607 6.49107L1.89555 10.5437C1.33976 10.8679 1.00977 11.4411 1.00977 12.0837C1.00977 12.7263 1.33976 13.2995 1.89555 13.6237L8.86607 17.6763C9.14396 17.8384 9.45082 17.9195 9.76345 17.9195C10.0703 17.9195 10.3713 17.8384 10.6492 17.6821C11.2108 17.3579 11.5408 16.7848 11.5408 16.1363V8.02528C11.5408 7.38265 11.205 6.8037 10.6492 6.48528ZM10.3829 16.1363C10.3829 16.4605 10.1629 16.6226 10.0703 16.6748C9.97766 16.7269 9.7287 16.8369 9.44501 16.6748L2.4745 12.6221C2.19661 12.46 2.16766 12.1937 2.16766 12.0837C2.16766 11.9737 2.19661 11.7074 2.4745 11.5453L9.44501 7.49265C9.55502 7.42896 9.65923 7.4058 9.75186 7.4058C9.89659 7.4058 10.0066 7.45791 10.0645 7.49265C10.1571 7.54475 10.3771 7.70686 10.3771 8.03107V16.1363H10.3829Z" fill="currentColor"/>
</svg>
