<svg width="24" height="24" viewBox="0 0 24 24" fill="none" xmlns="http://www.w3.org/2000/svg">
<path d="M16.52 2.52323H16.2658C16.208 2.52323 16.1561 2.52323 16.0983 2.52901C15.7112 1.79529 14.937 1.31 14.0762 1.31H13.8625C13.4754 1.31 13.0941 1.40821 12.759 1.59309C12.4239 1.40821 12.0426 1.31 11.6555 1.31H11.4418C11.0374 1.31 10.6445 1.41977 10.2979 1.6162C9.957 1.42554 9.56414 1.31577 9.16551 1.31C9.15395 1.31 9.1424 1.31 9.12507 1.31C8.52422 1.31 7.94649 1.55264 7.49586 1.9975C7.00479 2.47701 6.72748 3.14141 6.72748 3.81157V5.2559C5.98798 5.67764 5.52002 6.46914 5.52002 7.33573V9.93552C5.52002 11.6341 6.24219 13.3037 7.61141 14.7654C7.82517 14.9907 7.94071 15.2911 7.94071 15.6031V19.7685C7.94071 21.6981 9.50637 23.2638 11.436 23.2638H16.7742C16.8436 23.2927 16.9187 23.31 16.9995 23.31C17.3173 23.31 17.5773 23.05 17.5773 22.7323V15.1698C17.5773 14.9791 17.6235 14.7885 17.7275 14.5689C17.7448 14.5227 17.7853 14.4534 17.8315 14.3609C18.1434 13.7717 18.7847 12.5353 18.7847 10.7443V7.27796V6.93132V4.78794C18.7847 3.54004 17.7679 2.52323 16.52 2.52323ZM17.6293 4.78794V6.9371V7.28374C17.6293 7.63615 17.3462 7.91924 16.9938 7.91924C16.6413 7.91924 16.3583 7.63615 16.3583 7.28374V7.11042V7.0122V3.6787H16.52C17.1324 3.6787 17.6293 4.17554 17.6293 4.78794ZM14.0762 2.45968C14.4517 2.48857 14.8157 2.66189 15.0237 2.97964C15.093 3.08363 15.145 3.19918 15.1739 3.32628C15.1797 3.34939 15.197 3.36672 15.2028 3.38405V7.0122V7.11042C15.2028 7.6246 14.7868 8.04057 14.2726 8.04057C13.7585 8.04057 13.3425 7.6246 13.3425 7.11042V2.60412C13.3425 2.58101 13.5158 2.52901 13.5389 2.52323C13.7065 2.46546 13.8913 2.44235 14.0762 2.45968ZM11.6555 2.45968C11.8404 2.47124 12.0253 2.51746 12.1813 2.59834V5.14613H10.8814V2.61567C10.8814 2.57523 11.0662 2.53479 11.0951 2.52323C11.2049 2.48857 11.3147 2.46546 11.4302 2.45968C11.4995 2.45391 11.5746 2.45391 11.6555 2.45968ZM8.31046 2.81788C8.54155 2.58678 8.83042 2.46546 9.13084 2.46546C9.13662 2.46546 9.1424 2.46546 9.14817 2.46546C9.35038 2.47124 9.55259 2.52323 9.72591 2.62145V5.14613H7.88872V3.81157C7.88872 3.4476 8.03893 3.08363 8.31046 2.81788ZM16.8031 13.8294C16.728 13.9681 16.676 14.0779 16.6702 14.101C16.5027 14.4303 16.416 14.8 16.416 15.1698V22.1083H11.436C10.1476 22.1083 9.09618 21.0568 9.09618 19.7685V15.6031C9.09618 14.9907 8.87086 14.4129 8.45489 13.9739C7.28788 12.7317 6.67548 11.3394 6.67548 9.93552V7.33573C6.67548 6.90821 6.9008 6.53269 7.24744 6.30737H11.904V6.31315C11.904 7.16241 11.2107 7.85569 10.3614 7.85569H9.00952C8.69176 7.85569 8.43178 8.11567 8.43178 8.43342V8.9476C8.43178 9.26535 8.69176 9.52533 9.00952 9.52533H9.5237C11.0027 9.52533 12.2044 10.727 12.2044 12.206V13.0899C12.2044 13.4077 12.4643 13.6677 12.7821 13.6677C13.0999 13.6677 13.3598 13.4077 13.3598 13.0899V12.206C13.3598 10.7501 12.5452 9.47912 11.3436 8.83206C11.7653 8.67029 12.1293 8.39298 12.4181 8.0579C12.7648 8.73384 13.458 9.2018 14.2669 9.2018C14.8504 9.2018 15.3761 8.96493 15.7516 8.57786C16.0752 8.88983 16.5085 9.08048 16.988 9.08048C17.2133 9.08048 17.4271 9.03426 17.6235 8.95916V10.7559C17.6293 12.258 17.0746 13.3153 16.8031 13.8294Z" fill="currentColor"/>
</svg>
