<svg width="24" height="24" viewBox="0 0 24 24" fill="none" xmlns="http://www.w3.org/2000/svg">
<path d="M20.5997 1.7512C19.2738 1.7512 18.1969 2.92615 18.1969 4.37893V6.56677C17.8668 6.38156 17.4905 6.26001 17.0852 6.26001H16.8247C16.1473 6.26001 15.5451 6.56098 15.1282 7.02981C14.7114 6.56098 14.1092 6.26001 13.4376 6.26001H13.1771C12.7718 6.26001 12.3954 6.37577 12.0596 6.56677V2.93773C12.0596 1.49074 10.9827 0.309998 9.65683 0.309998C8.33095 0.309998 7.25404 1.48495 7.25404 2.93773V14.3631L7.09192 14.1837C6.33345 13.3329 5.25074 12.8409 4.12751 12.8409C4.12172 12.8409 4.12173 12.8409 4.11594 12.8409C2.98692 12.8409 1.90421 13.3387 1.14574 14.2011C0.954675 14.421 0.954675 14.7451 1.14574 14.9651L6.65189 21.2624C7.23666 21.928 8.05883 22.31 8.89836 22.31H18.5385C20.9991 22.31 23.0024 20.0932 23.0024 17.3729V4.37893C23.0024 2.93194 21.9255 1.7512 20.5997 1.7512ZM16.8247 7.42339H17.0852C17.6989 7.42339 18.1969 7.92115 18.1969 8.54046V9.82539V12.5978C18.1969 13.2113 17.6989 13.7149 17.0852 13.7149H16.8247C16.2109 13.7149 15.7072 13.2171 15.7072 12.5978V8.54046C15.7072 7.92115 16.2052 7.42339 16.8247 7.42339ZM13.1713 7.42339H13.4318C14.0455 7.42339 14.5435 7.92115 14.5435 8.54046V12.5978C14.5435 13.2113 14.0455 13.7149 13.4318 13.7149H13.1713C12.5575 13.7149 12.0538 13.2171 12.0538 12.5978V9.82539V8.54046C12.0596 7.92115 12.5575 7.42339 13.1713 7.42339ZM21.8445 17.3671C21.8445 19.4508 20.3623 21.1466 18.5385 21.1466H8.89836C8.37727 21.1466 7.89092 20.9151 7.52037 20.4984L2.37898 14.6178C2.87691 14.2184 3.47905 14.0043 4.12751 13.9985C4.9323 13.9985 5.6792 14.34 6.22923 14.9535C6.22923 14.9535 7.39879 16.2616 7.39879 16.2674C7.54932 16.441 7.82723 16.4989 8.03566 16.4179C8.2441 16.3368 8.41201 16.1111 8.41201 15.8854V2.93773C8.41201 2.12741 8.96783 1.46759 9.65683 1.46759C10.3458 1.46759 10.9016 2.12741 10.9016 2.93773V8.54046V9.82539V12.5978C10.9016 13.848 11.9207 14.8725 13.1771 14.8725H13.4376C14.115 14.8725 14.7172 14.5715 15.1282 14.1027C15.5451 14.5715 16.1473 14.8725 16.8247 14.8725H17.0852C18.3358 14.8725 19.3548 13.8538 19.3548 12.5978V9.82539V8.54046V4.37893C19.3548 3.56861 19.9107 2.90879 20.5997 2.90879C21.2886 2.90879 21.8445 3.56861 21.8445 4.37893V17.3671Z" fill="currentColor"/>
</svg>
