<svg width="24" height="24" viewBox="0 0 24 24" fill="none" xmlns="http://www.w3.org/2000/svg">
<path d="M22.9969 1.5595C22.9854 1.25872 22.7366 1.01 22.4359 0.998434C22.1351 0.99265 15.0552 0.830692 10.879 5.01268C10.3179 5.56797 9.84939 6.13482 9.4445 6.70167C9.14372 6.47031 8.68676 6.23315 8.03315 6.16374C6.19376 5.97286 3.88586 7.25118 1.16728 9.96976C0.982181 10.1549 0.947475 10.4383 1.07473 10.6639C1.20198 10.8894 1.46806 10.9993 1.72256 10.9357C2.80421 10.6581 5.85828 10.2358 7.24071 11.4852C7.25806 11.5199 7.27541 11.5489 7.30433 11.5778C7.13659 12.4454 7.10767 13.1222 7.10767 13.4866C7.10767 13.8741 7.26384 14.2385 7.5357 14.5162L9.4792 16.4597C9.75106 16.7315 10.1155 16.8877 10.5088 16.8877C10.5261 16.8877 10.5435 16.8877 10.5608 16.8877C11.0005 16.8877 11.6483 16.853 12.4292 16.7026C12.4581 16.7315 12.4928 16.7431 12.5275 16.7662C13.7595 18.1486 13.3431 21.1911 13.0654 22.2728C13.0018 22.5273 13.1117 22.7876 13.3373 22.9206C13.4298 22.9727 13.5282 22.9958 13.6265 22.9958C13.7769 22.9958 13.9215 22.938 14.0372 22.8281C16.7557 20.1095 18.0398 17.8016 17.8432 15.9622C17.7738 15.3144 17.5366 14.8574 17.311 14.5566C17.8721 14.1517 18.439 13.6774 18.9942 13.1164C23.1647 8.94017 23.0027 1.86028 22.9969 1.5595ZM21.4178 5.62581C19.5206 4.79867 18.6819 3.37575 18.3522 2.58909C19.8445 2.28253 21.1344 2.18998 21.8343 2.16685C21.8112 2.86095 21.7186 4.13927 21.4178 5.62581ZM3.35371 9.51281C5.58642 7.59823 7.01512 7.23382 7.87119 7.30323C8.35128 7.34372 8.64627 7.52882 8.80245 7.66186C8.24716 8.5989 7.87697 9.49545 7.62247 10.311C6.39043 9.48388 4.67251 9.40869 3.35371 9.51281ZM10.5551 15.7308C10.4567 15.7308 10.3642 15.7077 10.3006 15.6383L8.35706 13.6948C8.29922 13.637 8.2703 13.5618 8.26451 13.475C8.26451 13.2725 8.27608 12.9718 8.31657 12.59L11.4053 15.6788C11.0409 15.7251 10.7517 15.7308 10.5551 15.7308ZM16.6863 16.1242C16.7557 16.9744 16.3913 18.4089 14.4768 20.6416C14.5809 19.3286 14.5057 17.6165 13.6843 16.3845C14.4999 16.13 15.3965 15.754 16.3277 15.1929C16.4665 15.3549 16.6458 15.6556 16.6863 16.1242ZM12.782 15.4301L8.56529 11.2134C8.94705 9.70368 9.79733 7.72548 11.6946 5.82826C13.2563 4.26652 15.3155 3.36996 17.2127 2.85517C17.5887 3.81535 18.6241 5.74149 21.146 6.75952C20.6312 8.66253 19.7346 10.7333 18.1671 12.3008C16.2699 14.198 14.2917 15.0483 12.782 15.4301Z" fill="currentColor"/>
<path d="M15.6685 5.51587C14.9166 5.51587 14.2109 5.81086 13.6787 6.33723C12.5797 7.43623 12.5797 9.21777 13.6787 10.3168C14.2109 10.8489 14.9166 11.1381 15.6685 11.1381C16.4205 11.1381 17.1261 10.8431 17.6583 10.3168C18.7573 9.21777 18.7573 7.43623 17.6583 6.33723C17.1204 5.81086 16.4147 5.51587 15.6685 5.51587ZM16.8369 9.5012C16.2122 10.1259 15.119 10.1259 14.4943 9.5012C13.8465 8.85336 13.8465 7.80642 14.4943 7.15859C14.8067 6.84624 15.2231 6.67271 15.6627 6.67271C16.1023 6.67271 16.5188 6.84624 16.8311 7.15859C17.4848 7.80642 17.4848 8.85336 16.8369 9.5012Z" fill="currentColor"/>
<path d="M9.56586 17.6397C9.294 17.4719 8.94117 17.5587 8.76764 17.8248C8.70401 17.9289 7.19433 20.3004 4.01301 19.9649C3.63125 16.7952 5.99121 15.2045 6.09533 15.1351C6.3614 14.9616 6.4366 14.603 6.26307 14.3369C6.08955 14.0708 5.73092 13.9898 5.46485 14.1634C5.32603 14.2501 2.14471 16.3671 2.93714 20.5838C2.98342 20.821 3.16851 21.0061 3.40567 21.0466C3.83948 21.1218 4.25016 21.1565 4.63192 21.1565C8.03304 21.1565 9.66998 18.5536 9.74517 18.4321C9.92448 18.1602 9.83772 17.8074 9.56586 17.6397Z" fill="currentColor"/>
</svg>
