<svg width="24" height="24" viewBox="0 0 24 24" fill="none" xmlns="http://www.w3.org/2000/svg">
<path d="M11.9852 9.24463C10.1915 9.24463 8.7334 10.7027 8.7334 12.4965C8.7334 14.2902 10.1915 15.7483 11.9852 15.7483C13.7789 15.7483 15.2371 14.2902 15.2371 12.4965C15.2371 10.7027 13.7789 9.24463 11.9852 9.24463ZM11.9852 14.5853C10.8338 14.5853 9.89063 13.6479 9.89063 12.4907C9.89063 11.3334 10.828 10.3961 11.9852 10.3961C13.1425 10.3961 14.0798 11.3334 14.0798 12.4907C14.0798 13.6479 13.1367 14.5853 11.9852 14.5853Z" fill="currentColor"/>
<path d="M15.3701 7.52615L14.4733 6.77395C14.3691 6.68716 14.236 6.64087 14.103 6.64087H9.87326C9.74018 6.64087 9.6071 6.68716 9.50295 6.77395L8.60609 7.52615H5.64356C5.32532 7.52615 5.06494 7.78653 5.06494 8.10477V15.0482C5.06494 16.3269 6.11803 17.3684 7.41414 17.3684H18.3326C18.6509 17.3684 18.9113 17.1081 18.9113 16.7898V8.10477C18.9113 7.78653 18.6509 7.52615 18.3326 7.52615H15.3701ZM7.41414 16.2112C6.75451 16.2112 6.22218 15.6904 6.22218 15.0482V8.68339H8.81439C8.94747 8.68339 9.08055 8.6371 9.1847 8.55031L10.0816 7.7981H13.8889L14.7857 8.55031C14.8899 8.6371 15.023 8.68339 15.156 8.68339H17.7482V9.56867C17.6846 9.31987 17.4647 9.13471 17.1986 9.13471H15.8446C15.5263 9.13471 15.266 9.39509 15.266 9.71333C15.266 10.0316 15.5263 10.2919 15.8446 10.2919H17.1986C17.4705 10.2919 17.6846 10.1068 17.7482 9.85798V16.2112H7.41414Z" fill="currentColor"/>
<path d="M8.74471 2.71796C11.9445 1.60123 15.503 2.24349 18.1241 4.32652L16.9321 4.53482C16.6197 4.58689 16.4056 4.88778 16.4577 5.20602C16.504 5.48954 16.7528 5.68627 17.0247 5.68627C17.0594 5.68627 17.0884 5.68627 17.1231 5.68048L19.4954 5.26966C19.6979 5.23495 19.8715 5.07293 19.9352 4.88778C19.9641 4.80098 19.9815 4.70262 19.9641 4.61004L19.5822 2.20878C19.5301 1.89632 19.235 1.67645 18.9226 1.72852C18.6044 1.7806 18.3903 2.0757 18.4423 2.38815L18.5754 3.21557C15.6765 1.05154 11.823 0.420849 8.35703 1.63016C5.58545 2.59645 3.35199 4.58689 2.07903 7.23118C0.800289 9.87546 0.632493 12.8611 1.59878 15.6327C1.67979 15.8699 1.90545 16.0204 2.14268 16.0204C2.20633 16.0204 2.26998 16.0088 2.33363 15.9857C2.63451 15.8815 2.79652 15.5517 2.69237 15.2508C1.82444 12.7685 1.98067 10.1011 3.12055 7.73457C4.26621 5.36224 6.26244 3.58589 8.74471 2.71796Z" fill="currentColor"/>
<path d="M22.3655 8.38252C22.2614 8.08164 21.9315 7.91963 21.6307 8.02378C21.3298 8.12793 21.1678 8.45774 21.2719 8.75863C23.0598 13.8794 20.3461 19.4978 15.2254 21.2857C12.0256 22.4024 8.46711 21.7602 5.85176 19.6771L7.04371 19.4688C7.35617 19.4168 7.57025 19.1159 7.51818 18.7976C7.4661 18.4852 7.16522 18.2711 6.84698 18.3232L4.47465 18.734C4.17956 18.7861 3.95389 19.0985 4.00018 19.3936L4.38207 21.7949C4.42836 22.0784 4.67138 22.2809 4.95491 22.2809C4.98384 22.2809 5.01855 22.2809 5.04748 22.2751C5.36572 22.2231 5.57981 21.928 5.52773 21.6155L5.39465 20.7707C7.31566 22.2057 9.64749 22.981 12.0198 22.981C13.2291 22.981 14.4442 22.7843 15.613 22.3735C21.3298 20.3888 24.3617 14.1108 22.3655 8.38252Z" fill="currentColor"/>
</svg>
