<svg width="24" height="24" viewBox="0 0 24 24" fill="none" xmlns="http://www.w3.org/2000/svg">
<path d="M12.0002 15.7547C13.7944 15.7547 15.2529 14.2962 15.2529 12.502C15.2529 10.7078 13.7944 9.24927 12.0002 9.24927C10.2061 9.24927 8.74756 10.7078 8.74756 12.502C8.74756 14.2962 10.2061 15.7547 12.0002 15.7547ZM12.0002 10.4126C13.152 10.4126 14.0954 11.3502 14.0954 12.5078C14.0954 13.6653 13.1578 14.6029 12.0002 14.6029C10.8427 14.6029 9.9051 13.6653 9.9051 12.5078C9.9051 11.3502 10.8485 10.4126 12.0002 10.4126Z" fill="currentColor"/>
<path d="M18.3494 17.3811C18.6677 17.3811 18.9281 17.1206 18.9281 16.8023V8.11493C18.9281 7.7966 18.6677 7.53615 18.3494 7.53615H15.386L14.4889 6.78375C14.3848 6.69694 14.2517 6.65063 14.1185 6.65063H9.88772C9.7546 6.65063 9.62149 6.69694 9.51731 6.78375L8.62021 7.53615H5.6569C5.33857 7.53615 5.07812 7.7966 5.07812 8.11493V15.0602C5.07812 16.3393 6.1315 17.3811 7.42794 17.3811H18.3494ZM6.22988 15.066V8.69948H8.82278C8.95589 8.69948 9.08901 8.65318 9.19319 8.56637L10.0903 7.81396H13.8986L14.7957 8.56637C14.8999 8.65318 15.033 8.69948 15.1661 8.69948H17.759V9.59079C17.6953 9.34192 17.4812 9.15093 17.2092 9.15093H15.8548C15.5365 9.15093 15.2761 9.41137 15.2761 9.7297C15.2761 10.048 15.5365 10.3085 15.8548 10.3085H17.2092C17.4812 10.3085 17.6953 10.1175 17.759 9.8686V16.2293H7.42794C6.76814 16.2235 6.22988 15.7026 6.22988 15.066Z" fill="currentColor"/>
<path d="M21.9087 7.2237C20.6296 4.57872 18.4013 2.58774 15.629 1.6212C12.1622 0.411564 8.30755 1.04821 5.40791 3.20703L5.54102 2.37939C5.59311 2.06685 5.37897 1.76589 5.06064 1.71959C4.74232 1.6675 4.44715 1.88743 4.40084 2.19997L4.01886 4.60187C3.97256 4.89704 4.19249 5.21537 4.49345 5.26167L6.86642 5.6726C6.90114 5.67838 6.93008 5.67838 6.96481 5.67838C7.24262 5.67838 7.4857 5.4816 7.532 5.198C7.58409 4.88547 7.37574 4.58451 7.05741 4.52663L5.86514 4.31827C8.48118 2.23469 12.0464 1.59226 15.247 2.70929C17.7299 3.57744 19.7267 5.35427 20.8669 7.72145C22.0071 10.0886 22.1633 12.7568 21.2952 15.2397C21.191 15.5406 21.3473 15.8705 21.654 15.9747C21.7177 15.9979 21.7813 16.0094 21.845 16.0094C22.0823 16.0094 22.308 15.859 22.3891 15.6217C23.3556 12.8551 23.1878 9.86869 21.9087 7.2237Z" fill="currentColor"/>
<path d="M19.9932 19.2448C19.9585 19.0017 19.7617 18.8107 19.5186 18.7528L17.1457 18.3419C16.8273 18.2898 16.5322 18.4982 16.4743 18.8165C16.4164 19.1348 16.6306 19.43 16.9489 19.4879L18.1411 19.6962C15.5251 21.7798 11.9599 22.4164 8.76506 21.3052C3.64293 19.5168 0.928498 13.8969 2.7169 8.7748C2.82108 8.47384 2.66481 8.14394 2.35806 8.03976C2.0571 7.93558 1.7272 8.09185 1.62302 8.3986C-0.373737 14.1226 2.65902 20.4081 8.38307 22.4049C9.55797 22.8158 10.7734 23.0126 11.9772 23.0126C14.3444 23.0126 16.6826 22.237 18.5984 20.8017L18.4653 21.6467C18.4132 21.9592 18.6273 22.2602 18.9456 22.3065C18.9746 22.3123 19.0093 22.3123 19.0382 22.3123C19.3161 22.3123 19.5649 22.1097 19.6112 21.8261L19.9932 19.4242C20.0048 19.3547 20.0048 19.2969 19.9932 19.2448Z" fill="currentColor"/>
</svg>
