<svg width="24" height="25" viewBox="0 0 24 25" fill="none" xmlns="http://www.w3.org/2000/svg">
<path d="M9.45874 12.0072L13.1997 7.4786C13.3213 7.33382 13.3619 7.13693 13.3098 6.95741C13.2576 6.77789 13.1244 6.62732 12.9507 6.56362L8.59589 4.97109C8.38741 4.89581 8.15577 4.94214 7.99362 5.0985L4.71013 8.27775C4.47849 8.49781 4.4727 8.86844 4.69854 9.09429C4.92439 9.32593 5.28923 9.33172 5.51507 9.10587L8.53797 6.17562L11.7809 7.36278L8.21947 11.6713C8.02837 11.9029 8.04574 12.2446 8.2658 12.4589L12.7538 16.8079L10.5069 22.2051C10.3853 22.5004 10.5243 22.8363 10.8196 22.9637C10.8949 22.9927 10.9702 23.0101 11.0397 23.0101C11.2655 23.0101 11.4798 22.8769 11.5725 22.651L13.9699 16.889C14.0626 16.6689 14.0105 16.4141 13.8367 16.252L9.45874 12.0072Z" fill="currentColor"/>
<path d="M20.45 9.97445H16.2574L14.5953 7.96497C14.3927 7.71596 14.0278 7.68121 13.7788 7.88969C13.5298 8.09237 13.4951 8.4572 13.7035 8.70622L15.5393 10.9242C15.6493 11.0574 15.8115 11.1326 15.9852 11.1326H20.45C20.7685 11.1326 21.0291 10.8721 21.0291 10.5535C21.0291 10.235 20.7685 9.97445 20.45 9.97445Z" fill="currentColor"/>
<path d="M8.50329 14.3409L6.41853 15.8929H2.5791C2.26059 15.8929 2 16.1535 2 16.472C2 16.7905 2.26059 17.0511 2.5791 17.0511H6.60384C6.72545 17.0511 6.84707 17.0105 6.9513 16.9352L9.19242 15.2674C9.44722 15.0763 9.50513 14.7115 9.31403 14.4567C9.12293 14.2077 8.75809 14.1556 8.50329 14.3409Z" fill="currentColor"/>
<path d="M14.8677 6.33773C16.3502 6.33773 17.5547 5.14479 17.5547 3.67387C17.5547 2.20296 16.3502 1.01001 14.8677 1.01001C13.3852 1.01001 12.1807 2.20296 12.1807 3.67387C12.1807 5.14479 13.3852 6.33773 14.8677 6.33773ZM14.8677 2.16821C15.7074 2.16821 16.3965 2.84576 16.3965 3.67387C16.3965 4.50198 15.7132 5.17953 14.8677 5.17953C14.0222 5.17953 13.3389 4.50198 13.3389 3.67387C13.3389 2.84576 14.0222 2.16821 14.8677 2.16821Z" fill="currentColor"/>
</svg>
