<svg width="24" height="24" viewBox="0 0 24 24" fill="none" xmlns="http://www.w3.org/2000/svg">
<path d="M20.6696 12.6589H11.4812L11.2435 11.191C11.1971 10.8918 11.2087 10.5982 11.2783 10.3047L12.4957 5.38736C12.8377 5.30832 13.0928 5.02039 13.0928 4.66472C13.0928 4.24695 12.7449 3.90257 12.3101 3.90257C12.0029 3.90257 11.742 4.08323 11.6145 4.33163C10.4551 4.26388 9.33623 3.91386 8.35072 3.29284L8.17681 3.17993C8.26377 3.05573 8.32174 2.92023 8.32174 2.76216C8.32174 2.34438 7.97391 2 7.53913 2C7.10435 2 6.75652 2.33874 6.75652 2.76216C6.75652 2.92588 6.82029 3.06702 6.90725 3.19122C5.90435 3.8574 4.75652 4.24695 3.52754 4.32599C3.42319 4.03241 3.13913 3.81788 2.7971 3.81788C2.36812 3.81788 2.01449 4.15662 2.01449 4.58004C2.01449 4.91877 2.24638 5.19541 2.55942 5.29138L3.8 10.299C3.86957 10.5926 3.88696 10.8918 3.83478 11.1854L2.82609 17.4125H1.57971C1.26087 17.4125 1 17.6665 1 17.977V20.6643C1 21.8951 2.03189 22.9 3.29565 22.9H8.94783H13.5043H22.4203C22.7391 22.9 23 22.646 23 22.3354V14.9284C23 13.6751 21.9565 12.6589 20.6696 12.6589ZM13.0928 17.8133C13.0928 17.8077 13.0928 17.802 13.0928 17.7964C13.1043 16.7971 13.9333 15.9898 14.9652 15.9898C15.9971 15.9898 16.8377 16.8084 16.8377 17.8133C16.8377 18.8182 15.9971 19.6368 14.9652 19.6368C14.6348 19.6368 14.3275 19.5465 14.0609 19.3997C14.0435 19.3941 14.0319 19.3828 14.0145 19.3771C13.4638 19.061 13.0928 18.4795 13.0928 17.8133ZM18.2116 17.8133C18.2116 17.4859 18.4841 17.2149 18.8261 17.2149C19.1681 17.2149 19.4406 17.4802 19.4406 17.8133C19.4406 18.1408 19.1681 18.4118 18.8261 18.4118C18.4841 18.4118 18.2116 18.1464 18.2116 17.8133ZM4.93623 10.0393L3.8 5.44946C5.15073 5.33655 6.43188 4.89055 7.55652 4.14533L7.72464 4.24695C8.8029 4.92442 10.0203 5.3309 11.2899 5.44381L10.1536 10.0393C10.0435 10.474 10.0261 10.92 10.1014 11.366L11.0812 17.4125H4.0087L4.98841 11.366C5.06377 10.9257 5.04638 10.4797 4.93623 10.0393ZM8.94783 21.7709H3.29565C2.66957 21.7709 2.15942 21.2741 2.15942 20.6643V18.5416H3.33044H11.7594H11.7942C12.0667 18.5416 12.3159 18.6376 12.513 18.7957C12.8435 19.1118 12.9246 19.6594 12.9188 20.1393C12.9188 20.1788 12.9246 20.2183 12.9304 20.2522V21.7652H8.94783V21.7709ZM21.8406 21.7709H14.0841V21.0595H19.5913L19.6899 20.6135C19.771 20.2409 20.1072 19.9812 20.5014 19.9812H21.0812V16.0124H20.5014C20.0203 16.0124 19.6261 15.6228 19.6261 15.1373V14.5727H11.7884L11.6609 13.788H20.6696C21.313 13.788 21.8406 14.2961 21.8406 14.9284V21.7709Z" fill="currentColor"/>
</svg>
