<svg width="24" height="24" viewBox="0 0 24 24" fill="none" xmlns="http://www.w3.org/2000/svg">
<path d="M22.7684 5.57947L16.8168 1.11579C16.7937 1.09842 16.7647 1.08684 16.7358 1.07526C16.7126 1.06368 16.6953 1.05211 16.6721 1.04053C16.6084 1.01737 16.5389 1 16.4695 1H7.53632H1.57895C1.26053 1 1 1.26053 1 1.57895V19.5263C1 21.4426 2.55737 23 4.47368 23H4.55475H19.4395H22.4211C22.7395 23 23 22.7395 23 22.4211V6.04263C23 5.86316 22.9132 5.68947 22.7684 5.57947ZM15.8905 2.15789V6.95737H8.11527V2.15789H15.8905ZM5.13947 21.8421V13.4474C5.13947 12.9668 5.52736 12.5789 6.00789 12.5789H17.9921C18.4726 12.5789 18.8605 12.9726 18.8605 13.4474V21.8421H5.13947ZM21.8421 21.8421H20.0242V13.4474C20.0242 12.33 19.1153 11.4211 17.9979 11.4211H6.01369C4.89632 11.4211 3.98737 12.33 3.98737 13.4474V21.7842C2.95105 21.5526 2.16947 20.6321 2.16947 19.5205V2.15789H6.96895V7.53632C6.96895 7.85474 7.22947 8.11526 7.54789 8.11526H16.481C16.7995 8.11526 17.06 7.85474 17.06 7.53632V2.73684L21.8421 6.33211V21.8421Z" fill="currentColor"/>
</svg>
