<svg width="24" height="24" viewBox="0 0 24 24" fill="none" xmlns="http://www.w3.org/2000/svg">
<path fill-rule="evenodd" clip-rule="evenodd" d="M1.51938 9.68085C1.8378 9.68085 2.09832 9.42039 2.09832 9.10206V3.14047C2.09832 2.6427 2.50359 2.23755 3.00148 2.23755H8.99938C9.3178 2.23755 9.57832 1.97709 9.57832 1.65875C9.57832 1.34041 9.3178 1.07996 8.99938 1.07996H3.00148C1.86674 1.07996 0.94043 2.00603 0.94043 3.14047V9.10206C0.94043 9.42618 1.20096 9.68085 1.51938 9.68085Z" fill="currentColor"/>
<path fill-rule="evenodd" clip-rule="evenodd" d="M22.3379 1.68764C21.95 1.29985 21.429 1.08569 20.879 1.08569H14.9505C14.6321 1.08569 14.3716 1.34615 14.3716 1.66449C14.3716 1.98283 14.6321 2.24328 14.9505 2.24328H20.879C21.1221 2.24328 21.3479 2.33589 21.5158 2.50953C21.6837 2.67738 21.7821 2.9089 21.7821 3.14621V9.10779C21.7821 9.42613 22.0426 9.68659 22.3611 9.68659C22.6795 9.68659 22.94 9.42613 22.94 9.10779V3.14621C22.94 2.59056 22.7258 2.07543 22.3379 1.68764Z" fill="currentColor"/>
<path fill-rule="evenodd" clip-rule="evenodd" d="M8.99938 21.9166H3.00148C2.50359 21.9166 2.09832 21.5114 2.09832 21.0136V15.0521C2.09832 14.7337 1.8378 14.4733 1.51938 14.4733C1.20096 14.4733 0.94043 14.7337 0.94043 15.0521V21.0136C0.94043 22.1481 1.86674 23.0742 3.00148 23.0742H8.99938C9.3178 23.0742 9.57832 22.8137 9.57832 22.4954C9.57832 22.177 9.3178 21.9166 8.99938 21.9166Z" fill="currentColor"/>
<path fill-rule="evenodd" clip-rule="evenodd" d="M22.3611 14.4791C22.0426 14.4791 21.7821 14.7396 21.7821 15.0579V21.0195C21.7821 21.2626 21.6895 21.4883 21.5158 21.6562C21.3479 21.824 21.1163 21.9224 20.879 21.9224H14.9505C14.6321 21.9224 14.3716 22.1829 14.3716 22.5012C14.3716 22.8196 14.6321 23.08 14.9505 23.08H20.879C21.429 23.08 21.9442 22.8659 22.3379 22.4781C22.7258 22.0903 22.94 21.5694 22.94 21.0195V15.0579C22.94 14.7338 22.6853 14.4791 22.3611 14.4791Z" fill="currentColor"/>
<path fill-rule="evenodd" clip-rule="evenodd" d="M10.8818 4.06079H4.5018C4.18338 4.06079 3.92285 4.32125 3.92285 4.63959V11.0179C3.92285 11.3362 4.18338 11.5967 4.5018 11.5967H10.8818C11.2002 11.5967 11.4607 11.3362 11.4607 11.0179V4.63959C11.4607 4.31546 11.2002 4.06079 10.8818 4.06079ZM10.3029 10.4391H5.08075V5.21838H10.3029V10.4391Z" fill="currentColor"/>
<path d="M9.03368 6.4801H6.34229V9.1715H9.03368V6.4801Z" fill="currentColor"/>
<path fill-rule="evenodd" clip-rule="evenodd" d="M10.8818 12.5632H4.5018C4.18338 12.5632 3.92285 12.8237 3.92285 13.142V18.0618C3.92285 19.1846 4.83759 20.0991 5.96075 20.0991H10.8818C11.2002 20.0991 11.4607 19.8387 11.4607 19.5204V13.142C11.4607 12.8237 11.2002 12.5632 10.8818 12.5632ZM10.3029 18.9416H5.96075C5.47443 18.9416 5.08075 18.548 5.08075 18.0618V13.7208H10.3029V18.9416Z" fill="currentColor"/>
<path d="M9.03368 14.9884H6.34229V17.6798H9.03368V14.9884Z" fill="currentColor"/>
<path fill-rule="evenodd" clip-rule="evenodd" d="M19.9647 11.0179V4.63959C19.9647 4.32125 19.7041 4.06079 19.3857 4.06079H13.0057C12.6873 4.06079 12.4268 4.32125 12.4268 4.63959V11.0179C12.4268 11.3362 12.6873 11.5967 13.0057 11.5967H19.3857C19.7041 11.5967 19.9647 11.3362 19.9647 11.0179ZM18.8068 10.4391H13.5847V5.21838H18.8068V10.4391Z" fill="currentColor"/>
<path d="M17.5434 6.4801H14.8521V9.1715H17.5434V6.4801Z" fill="currentColor"/>
<path d="M15.1422 13.142H13.0181V15.2661H15.1422V13.142Z" fill="currentColor"/>
<path d="M15.1422 17.3961H13.0181V19.5203H15.1422V17.3961Z" fill="currentColor"/>
<path fill-rule="evenodd" clip-rule="evenodd" d="M17.2615 19.5203H19.3863V17.3961V17.0662V15.2661V13.142H17.2615V15.2661H15.1426V17.3961H17.2615V19.5203Z" fill="currentColor"/>
</svg>
