<svg width="24" height="24" viewBox="0 0 24 24" fill="none" xmlns="http://www.w3.org/2000/svg">
<path d="M8.86062 1.78812C8.86062 1.35435 8.50639 1 8.07274 1H2.57579H1.78789C1.35424 1 1 1.35435 1 1.78812V2.57623V8.0747C1 8.50847 1.35424 8.86281 1.78789 8.86281C2.22154 8.86281 2.57579 8.50847 2.57579 8.0747V2.57623H8.07274C8.50639 2.57623 8.86062 2.22188 8.86062 1.78812Z" fill="currentColor"/>
<path d="M15.1396 1.78812C15.1396 1.35435 15.4939 1 15.9275 1H21.4245H22.2124C22.646 1 23.0003 1.35435 23.0003 1.78812V2.57623V8.0747C23.0003 8.50847 22.646 8.86281 22.2124 8.86281C21.7787 8.86281 21.4245 8.50847 21.4245 8.0747V2.57623H15.9275C15.4939 2.57623 15.1396 2.22188 15.1396 1.78812Z" fill="currentColor"/>
<path d="M8.86062 22.2119C8.86062 22.6457 8.50639 23 8.07274 23H2.57579H1.78789C1.35424 23 1 22.6457 1 22.2119V21.4238V15.9253C1 15.4916 1.35424 15.1372 1.78789 15.1372C2.22154 15.1372 2.57579 15.4916 2.57579 15.9253V21.4238H8.07274C8.50639 21.4238 8.86062 21.7781 8.86062 22.2119Z" fill="currentColor"/>
<path d="M15.1396 22.2119C15.1396 22.6457 15.4939 23 15.9275 23H21.4245H22.2124C22.646 23 23.0003 22.6457 23.0003 22.2119V21.4238V15.9253C23.0003 15.4916 22.646 15.1372 22.2124 15.1372C21.7787 15.1372 21.4245 15.4916 21.4245 15.9253V21.4238H15.9275C15.4939 21.4238 15.1396 21.7781 15.1396 22.2119Z" fill="currentColor"/>
</svg>
