<svg width="24" height="24" viewBox="0 0 24 24" fill="none" xmlns="http://www.w3.org/2000/svg">
<path d="M1.5788 6.6201C1.89713 6.6201 2.15759 6.35964 2.15759 6.04131V3.06051C2.15759 2.56275 2.56275 2.15759 3.06051 2.15759H6.04709C6.36543 2.15759 6.62589 1.89713 6.62589 1.5788C6.62589 1.26046 6.36543 1 6.04709 1H3.06051C1.92607 1 1 1.92607 1 3.06051V6.04709C1 6.36543 1.26046 6.6201 1.5788 6.6201Z" fill="currentColor"/>
<path d="M17.953 2.15759H20.9396C21.4315 2.15759 21.8367 2.56275 21.8367 3.06051V6.04709C21.8367 6.36543 22.0972 6.62589 22.4155 6.62589C22.7338 6.62589 22.9943 6.36543 22.9943 6.04709V3.06051C22.9943 1.92607 22.0682 1 20.9338 1H17.9472C17.6289 1 17.3684 1.26046 17.3684 1.5788C17.3684 1.89713 17.6289 2.15759 17.953 2.15759Z" fill="currentColor"/>
<path d="M6.0413 21.8366H3.05472C2.56275 21.8366 2.15759 21.4315 2.15759 20.9337V17.9471C2.15759 17.6288 1.89713 17.3683 1.5788 17.3683C1.26046 17.3683 1 17.6288 1 17.9471V20.9337C1 22.0681 1.92607 22.9942 3.06051 22.9942H6.04709C6.36543 22.9942 6.62589 22.7337 6.62589 22.4154C6.62589 22.0971 6.36543 21.8366 6.0413 21.8366Z" fill="currentColor"/>
<path d="M22.4155 17.3741C22.0972 17.3741 21.8367 17.6346 21.8367 17.9529V20.9395C21.8367 21.4373 21.4316 21.8424 20.9338 21.8424H17.9472C17.6289 21.8424 17.3684 22.1029 17.3684 22.4212C17.3684 22.7395 17.6289 23 17.9472 23H20.9338C22.0682 23 22.9943 22.0739 22.9943 20.9395V17.9529C22.9943 17.6288 22.7338 17.3741 22.4155 17.3741Z" fill="currentColor"/>
<path d="M22.4154 11.4183H1.5788C1.26046 11.4183 1 11.6788 1 11.9971C1 12.3154 1.26046 12.5759 1.5788 12.5759H22.4154C22.7338 12.5759 22.9942 12.3154 22.9942 11.9971C22.9942 11.6788 22.7338 11.4183 22.4154 11.4183Z" fill="currentColor"/>
<path d="M7.53461 13.5598C7.21627 13.5598 6.95581 13.8203 6.95581 14.1386V19.5677C6.95581 19.8861 7.21627 20.1465 7.53461 20.1465C7.85294 20.1465 8.1134 19.8861 8.1134 19.5677V14.1386C8.1134 13.8203 7.85294 13.5598 7.53461 13.5598Z" fill="currentColor"/>
<path d="M10.5095 13.5598C10.1911 13.5598 9.93066 13.8203 9.93066 14.1386V15.331C9.93066 15.6493 10.1911 15.9098 10.5095 15.9098C10.8278 15.9098 11.0883 15.6493 11.0883 15.331V14.1386C11.0883 13.8203 10.8278 13.5598 10.5095 13.5598Z" fill="currentColor"/>
<path d="M10.5095 16.5175C10.1911 16.5175 9.93066 16.7779 9.93066 17.0963V20.9279C9.93066 21.2462 10.1911 21.5067 10.5095 21.5067C10.8278 21.5067 11.0883 21.2462 11.0883 20.9279V17.0963C11.0883 16.7779 10.8278 16.5175 10.5095 16.5175Z" fill="currentColor"/>
<path d="M13.4848 13.5598C13.1665 13.5598 12.906 13.8203 12.906 14.1386V16.9111C12.906 17.2294 13.1665 17.4899 13.4848 17.4899C13.8031 17.4899 14.0636 17.2294 14.0636 16.9111V14.1386C14.0636 13.8203 13.8031 13.5598 13.4848 13.5598Z" fill="currentColor"/>
<path d="M16.4597 14.92C16.1413 14.92 15.8809 15.1805 15.8809 15.4988V20.9279C15.8809 21.2462 16.1413 21.5067 16.4597 21.5067C16.778 21.5067 17.0384 21.2462 17.0384 20.9279V15.4988C17.0384 15.1747 16.7838 14.92 16.4597 14.92Z" fill="currentColor"/>
<path d="M13.4848 17.9587C13.1665 17.9587 12.906 18.2191 12.906 18.5375V19.5735C12.906 19.8919 13.1665 20.1523 13.4848 20.1523C13.8031 20.1523 14.0636 19.8919 14.0636 19.5735V18.5375C14.0636 18.2133 13.8031 17.9587 13.4848 17.9587Z" fill="currentColor"/>
</svg>
