<svg width="24" height="24" viewBox="0 0 24 24" fill="none" xmlns="http://www.w3.org/2000/svg">
<path d="M15.2071 12.4677L22.7739 6.64362C23.0286 6.44678 23.0749 6.08784 22.8781 5.8331C22.6812 5.57837 22.3223 5.53206 22.0676 5.72889L14.3214 11.692L9.42355 7.38466C9.44671 7.21098 9.45829 7.03151 9.45829 6.85204C9.45829 4.51891 7.55937 2.62 5.22625 2.62C2.89313 2.62 1 4.51312 1 6.84625C1 9.17937 2.89892 11.0783 5.23204 11.0783C6.93412 11.0783 8.40462 10.0651 9.07619 8.61201L13.3893 12.4098L9.09356 15.7156C8.43357 14.2393 6.95149 13.203 5.23204 13.203C2.89892 13.1972 1 15.0961 1 17.4292C1 19.7624 2.89892 21.6613 5.23204 21.6613C7.56516 21.6613 9.46408 19.7624 9.46408 17.4292C9.46408 17.2556 9.4525 17.0819 9.42934 16.914L14.2751 13.1856L22.0386 20.0171C22.1486 20.1155 22.2818 20.1618 22.4207 20.1618C22.5828 20.1618 22.7391 20.0981 22.8549 19.965C23.0633 19.7276 23.0402 19.3571 22.8028 19.1487L15.2071 12.4677ZM5.23204 9.92041C3.53575 9.92041 2.15788 8.54253 2.15788 6.84625C2.15788 5.14996 3.53575 3.77208 5.23204 3.77208C6.92833 3.77208 8.3062 5.14996 8.3062 6.84625C8.3062 8.54253 6.92833 9.92041 5.23204 9.92041ZM5.23204 20.5034C3.53575 20.5034 2.15788 19.1255 2.15788 17.4292C2.15788 15.733 3.53575 14.3551 5.23204 14.3551C6.92833 14.3551 8.3062 15.733 8.3062 17.4292C8.3062 19.1255 6.92833 20.5034 5.23204 20.5034Z" fill="currentColor"/>
</svg>
