<svg width="24" height="24" viewBox="0 0 24 24" fill="none" xmlns="http://www.w3.org/2000/svg">
<path d="M22.8322 21.9145L15.3008 14.1194C16.262 12.8066 16.8364 11.1948 16.8364 9.44822C16.8364 5.08179 13.2846 1.53003 8.91819 1.53003C4.55175 1.53003 1 5.08765 1 9.45408C1 13.8205 4.55175 17.3723 8.91819 17.3723C11.1161 17.3723 13.1029 16.4697 14.5389 15.022L21.9882 22.7292C22.1054 22.8464 22.2578 22.9109 22.4102 22.9109C22.5567 22.9109 22.7032 22.8582 22.8204 22.7468C23.0549 22.5182 23.0607 22.149 22.8322 21.9145ZM8.91819 16.2001C5.19646 16.2001 2.1722 13.1758 2.1722 9.45408C2.1722 5.73236 5.20232 2.70809 8.91819 2.70809C12.6399 2.70809 15.6642 5.73236 15.6642 9.45408C15.6642 13.1758 12.6399 16.2001 8.91819 16.2001Z" fill="currentColor"/>
</svg>
