<svg width="24" height="24" viewBox="0 0 24 24" fill="none" xmlns="http://www.w3.org/2000/svg">
<path d="M17.0195 9.04492C17.1257 9.0018 17.2444 9.00181 17.3506 9.04492L22.7256 11.2295C22.8913 11.2969 22.9999 11.4578 23 11.6367V17.001C23 19.2146 21.6735 21.2106 19.6426 22.0361L17.3506 22.9678C17.2445 23.0108 17.1256 23.0109 17.0195 22.9678L14.7275 22.0361C12.6966 21.2106 11.3701 19.2146 11.3701 17.001V11.6367C11.3703 11.4578 11.4788 11.2969 11.6445 11.2295L17.0195 9.04492ZM15.8428 1C17.6905 1.00011 19.1883 2.49796 19.1885 4.3457V7.10938C19.1885 7.35223 18.9918 7.54955 18.749 7.5498C18.506 7.5498 18.3086 7.35238 18.3086 7.10938V4.3457C18.3084 2.98398 17.2045 1.87999 15.8428 1.87988H1.87988V19.5869C1.88011 20.969 3.00069 22.0889 4.38281 22.0889H11.6064C11.8492 22.0891 12.0459 22.2864 12.0459 22.5293C12.0459 22.7722 11.8493 22.9695 11.6064 22.9697H4.38281C2.51467 22.9697 1.00022 21.455 1 19.5869V1.44043C1 1.19742 1.19742 1 1.44043 1H15.8428ZM12.25 11.9336V17.001C12.25 18.8629 13.3656 20.5324 15.0586 21.2207L17.1855 22.085L19.3115 21.2207C21.0045 20.5324 22.1201 18.8629 22.1201 17.001V11.9336L17.1855 9.92773L12.25 11.9336ZM15.8652 12.9375C16.7603 12.9375 17.4864 13.6635 17.4863 14.5586C17.4863 14.8996 17.3811 15.2165 17.2012 15.4775C17.7244 15.7463 18.082 16.2913 18.082 16.9199V16.9678C18.082 17.8628 17.3569 18.5878 16.4619 18.5879H14.6611C14.4182 18.5879 14.2208 18.3914 14.2207 18.1484V13.3779C14.2207 13.1349 14.4181 12.9375 14.6611 12.9375H15.8652ZM20.3779 14.7266C20.6208 14.7267 20.8174 14.9241 20.8174 15.167C20.8173 15.4098 20.6208 15.6063 20.3779 15.6064H19.2822C19.1425 15.6064 19.0283 15.7206 19.0283 15.8604C19.0285 15.9691 19.099 16.0652 19.2021 16.0996L20.043 16.3799C20.5056 16.5341 20.8173 16.9675 20.8174 17.4551C20.8174 18.0809 20.3104 18.5879 19.6846 18.5879H18.5889C18.3459 18.5879 18.1485 18.3914 18.1484 18.1484C18.1484 17.9054 18.3459 17.708 18.5889 17.708H19.6846C19.8243 17.708 19.9375 17.5948 19.9375 17.4551C19.9374 17.3734 19.8982 17.2987 19.835 17.252L19.7646 17.2148L18.9238 16.9346C18.4613 16.7804 18.1486 16.3479 18.1484 15.8604C18.1484 15.2346 18.6564 14.7266 19.2822 14.7266H20.3779ZM15.1006 17.708H16.4619C16.8709 17.708 17.2021 17.3768 17.2021 16.9678V16.9199C17.2021 16.5109 16.8709 16.1788 16.4619 16.1787H15.1006V17.708ZM15.1006 15.2988H15.8652C16.2742 15.2988 16.6064 14.9676 16.6064 14.5586C16.6065 14.1495 16.2743 13.8184 15.8652 13.8184H15.1006V15.2988ZM9.53906 12.1689C9.78188 12.169 9.97834 12.3656 9.97852 12.6084C9.97852 12.8514 9.78199 13.0487 9.53906 13.0488H4.03125C3.78824 13.0488 3.59082 12.8514 3.59082 12.6084C3.591 12.3655 3.78835 12.1689 4.03125 12.1689H9.53906ZM9.53906 9.73926C9.78191 9.73935 9.97838 9.93588 9.97852 10.1787C9.97852 10.4217 9.78199 10.6191 9.53906 10.6191H4.03125C3.78824 10.6191 3.59082 10.4217 3.59082 10.1787C3.59096 9.93582 3.78833 9.73926 4.03125 9.73926H9.53906ZM12.5625 7.30859C12.8055 7.30859 13.0029 7.50602 13.0029 7.74902C13.0029 7.99198 12.8055 8.18848 12.5625 8.18848H4.03125C3.78828 8.18848 3.59088 7.99198 3.59082 7.74902C3.59082 7.50602 3.78824 7.30859 4.03125 7.30859H12.5625ZM12.5625 4.87891C12.8054 4.87891 13.0027 5.07557 13.0029 5.31836C13.0029 5.56137 12.8055 5.75879 12.5625 5.75879H4.03125C3.78824 5.75879 3.59082 5.56137 3.59082 5.31836C3.59107 5.07557 3.7884 4.87891 4.03125 4.87891H12.5625Z" fill="currentColor"/>
</svg>
