<svg width="24" height="24" viewBox="0 0 24 24" fill="none" xmlns="http://www.w3.org/2000/svg">
<path d="M22.9509 1.67382C22.9567 1.51196 22.8989 1.34433 22.789 1.23449C22.6329 1.07841 22.3728 1.01483 22.1647 1.10154L1.35409 9.42C1.12864 9.51249 0.984133 9.73215 0.989913 9.97494C0.995694 10.2177 1.15177 10.4316 1.383 10.5068L10.4819 13.5532L13.5225 22.6694C13.5977 22.9006 13.8116 23.0567 14.0717 23.0625C14.3087 23.0625 14.5226 22.918 14.6093 22.6983L22.9162 1.84725C22.9335 1.79522 22.9451 1.73741 22.9509 1.67382ZM19.9796 3.21728L10.7767 12.4375L3.23861 9.91135L19.9796 3.21728ZM14.1179 20.8022L11.5975 13.2468L18.6731 6.15967L20.7947 4.03236L14.1179 20.8022Z" fill="currentColor"/>
</svg>
