<svg width="24" height="25" viewBox="0 0 24 25" fill="none" xmlns="http://www.w3.org/2000/svg">
<path d="M17.1515 13.045C17.1515 13.0266 17.1515 13.0084 17.1502 12.9902C17.1632 12.7431 17.0736 12.503 16.9257 12.2693C16.7528 11.9963 16.5218 11.7748 16.2516 11.5861L16.2209 11.5647C16.1487 11.5117 16.093 11.4392 16.0605 11.3557C16.0089 11.2245 16.091 11.129 16.2386 11.127C16.3264 11.127 16.414 11.1258 16.5016 11.1256C16.5983 11.1256 16.695 11.1256 16.7918 11.1256H16.9407V11.1165H16.9454V9.8426H16.9407V9.83093H15.539C15.539 9.83093 15.5218 9.83093 15.4925 9.83093H15.4889C15.4504 9.83101 15.4119 9.83319 15.3736 9.83746C15.1183 9.86562 14.8824 9.98702 14.7111 10.1784C14.5397 10.3697 14.4451 10.6176 14.4452 10.8745C14.4452 10.8824 14.4452 10.8901 14.4452 10.8978C14.4413 11.1357 14.5074 11.3696 14.6353 11.5703C14.8192 11.8626 15.0766 12.0833 15.3896 12.2473C15.3993 12.2522 15.4094 12.2578 15.4175 12.2633C15.4581 12.2862 15.4933 12.3175 15.521 12.355C15.5486 12.3925 15.568 12.4354 15.5779 12.4809C15.6037 12.5962 15.5313 12.7606 15.3778 12.7776H15.2987C15.2393 12.7752 15.18 12.7742 15.1207 12.7738H14.3594V14.0889H16.201C16.201 14.0889 16.4872 14.0691 16.6648 13.9277C16.814 13.8338 16.9369 13.7035 17.022 13.5491C17.1071 13.3947 17.1517 13.2213 17.1515 13.045Z" fill="url(#paint0_linear_1_2972)"/>
<path d="M4.79255 13.045C4.79255 13.0266 4.79255 13.0084 4.79117 12.9902C4.80422 12.7431 4.71463 12.503 4.56649 12.2693C4.39362 11.9963 4.1628 11.7748 3.89262 11.5861L3.86197 11.5647C3.78965 11.5117 3.73394 11.4392 3.70136 11.3557C3.64994 11.2245 3.73202 11.129 3.87937 11.127C3.96699 11.127 4.05481 11.1258 4.14243 11.1256C4.23914 11.1256 4.33587 11.1256 4.43239 11.1256H4.58152V11.1165H4.58626V9.8426H4.58152V9.83093H3.1798C3.1798 9.83093 3.16259 9.83093 3.13332 9.83093H3.12976C3.09123 9.831 3.05274 9.83318 3.01445 9.83746C2.91679 9.84806 2.82115 9.87257 2.73043 9.91024C2.53971 9.98922 2.37669 10.123 2.26199 10.2946C2.14729 10.4662 2.08605 10.668 2.08603 10.8745C2.08603 10.8824 2.08603 10.8901 2.08603 10.8978C2.08209 11.1357 2.14819 11.3696 2.27611 11.5703C2.46005 11.8626 2.71737 12.0833 3.03047 12.2473C3.04016 12.2522 3.04926 12.2578 3.05816 12.2633C3.09873 12.2862 3.134 12.3175 3.16167 12.355C3.18934 12.3925 3.2088 12.4354 3.21876 12.4809C3.24447 12.5962 3.17209 12.7606 3.0186 12.7776H2.93949C2.88015 12.7752 2.82082 12.7742 2.76148 12.7738H2V14.0889H3.84179C3.84179 14.0889 4.12799 14.0691 4.3056 13.9277C4.45482 13.8338 4.57778 13.7035 4.66295 13.5491C4.74811 13.3948 4.79271 13.2213 4.79255 13.045Z" fill="url(#paint1_linear_1_2972)"/>
<path d="M21.9999 11.938C21.9977 11.4824 21.8606 11.0377 21.6059 10.66C21.3512 10.2823 20.9904 9.98856 20.5689 9.81576C20.1474 9.64295 19.6841 9.59888 19.2376 9.68911C18.7911 9.77933 18.3813 9.99981 18.06 10.3227C17.7387 10.6456 17.5202 11.0565 17.4321 11.5034C17.3441 11.9504 17.3904 12.4134 17.5653 12.834C17.7401 13.2547 18.0357 13.6141 18.4146 13.8669C18.7936 14.1198 19.2389 14.2547 19.6944 14.2546C19.7978 14.2545 19.9011 14.2475 20.0036 14.2337V12.5345C19.8607 12.5881 19.7044 12.595 19.5573 12.5543C19.4102 12.5136 19.2797 12.4274 19.1846 12.308C19.0895 12.1886 19.0347 12.0422 19.0279 11.8897C19.0212 11.7372 19.0629 11.5864 19.1471 11.4591C19.2313 11.3318 19.3536 11.2344 19.4966 11.1809C19.6396 11.1274 19.7958 11.1205 19.9429 11.1613C20.09 11.202 20.2204 11.2883 20.3155 11.4078C20.4105 11.5272 20.4653 11.6737 20.4719 11.8262V14.2546H21.9999V11.938Z" fill="url(#paint2_linear_1_2972)"/>
<path d="M11.7947 9.63379C11.1852 9.63383 10.6005 9.87522 10.1685 10.3052C9.73644 10.7351 9.49224 11.3186 9.48926 11.9281V15.8623H11.0172V14.1683V11.817C11.024 11.6647 11.0788 11.5186 11.1737 11.3994C11.2687 11.2802 11.3989 11.1942 11.5458 11.1536C11.6927 11.1129 11.8486 11.1199 11.9913 11.1733C12.134 11.2268 12.2561 11.324 12.3402 11.4511C12.4242 11.5782 12.4659 11.7286 12.4592 11.8809C12.4525 12.0331 12.3978 12.1793 12.3029 12.2985C12.2081 12.4178 12.0779 12.5039 11.931 12.5447C11.7842 12.5854 11.6283 12.5786 11.4855 12.5252V14.224C11.7986 14.2665 12.117 14.2443 12.4211 14.1586C12.7252 14.0729 13.0084 13.9256 13.2532 13.7259C13.498 13.5262 13.6991 13.2783 13.8441 12.9977C13.9891 12.717 14.0749 12.4095 14.0961 12.0943C14.1174 11.7791 14.0736 11.4629 13.9675 11.1653C13.8615 10.8677 13.6954 10.5951 13.4796 10.3644C13.2638 10.1337 13.0028 9.94979 12.713 9.82411C12.4232 9.69842 12.1106 9.63364 11.7947 9.63379Z" fill="url(#paint3_linear_1_2972)"/>
<path d="M7.53387 12.9075C7.1646 13.119 7.02496 12.8193 7.01112 12.7867L8.2463 12.0891L8.07343 11.9053L9.32542 11.204C9.22267 10.9346 9.07106 10.6865 8.87823 10.4722C8.47079 10.0192 7.89147 9.73621 7.24846 9.73621C6.01486 9.73621 5.01485 10.7781 5.01485 12.0632C5.01343 12.5312 5.14983 12.9894 5.40707 13.3804L4.18652 14.3828L5.57103 13.6006C5.98045 14.0846 6.57974 14.3901 7.24767 14.3901C8.05365 14.3901 8.75956 13.9455 9.15256 13.279L8.44864 12.3844L7.53387 12.9075ZM6.6462 12.3618L6.63354 12.3521L6.6284 12.351C6.1909 11.4016 6.9686 10.9514 7.23086 10.9607C7.49313 10.97 7.58807 11.2817 7.58807 11.2817L6.74885 11.8381L6.98462 12.0837L6.6462 12.3618Z" fill="url(#paint4_linear_1_2972)"/>
<defs>
<linearGradient id="paint0_linear_1_2972" x1="15.7556" y1="9.23638" x2="15.7556" y2="15.1811" gradientUnits="userSpaceOnUse">
<stop stop-color="#01709C"/>
<stop offset="1" stop-color="#014166"/>
</linearGradient>
<linearGradient id="paint1_linear_1_2972" x1="3.39558" y1="9.23638" x2="3.39558" y2="15.1811" gradientUnits="userSpaceOnUse">
<stop stop-color="#01709C"/>
<stop offset="1" stop-color="#014166"/>
</linearGradient>
<linearGradient id="paint2_linear_1_2972" x1="19.6943" y1="9.23639" x2="19.6943" y2="15.1811" gradientUnits="userSpaceOnUse">
<stop stop-color="#01709C"/>
<stop offset="1" stop-color="#014166"/>
</linearGradient>
<linearGradient id="paint3_linear_1_2972" x1="11.7947" y1="9.23644" x2="11.7947" y2="15.1811" gradientUnits="userSpaceOnUse">
<stop stop-color="#01709C"/>
<stop offset="1" stop-color="#014166"/>
</linearGradient>
<linearGradient id="paint4_linear_1_2972" x1="6.75597" y1="9.71801" x2="6.75597" y2="14.4412" gradientUnits="userSpaceOnUse">
<stop stop-color="#C91A19"/>
<stop offset="1" stop-color="#8B1A19"/>
</linearGradient>
</defs>
</svg>
