<svg width="24" height="25" viewBox="0 0 24 25" fill="none" xmlns="http://www.w3.org/2000/svg">
<g clip-path="url(#clip0_1_1863)">
<path d="M11.0652 18.709C7.98866 18.709 5.48682 16.2071 5.48682 13.1306C5.48682 10.0541 7.98866 7.55225 11.0652 7.55225C14.1417 7.55225 16.6435 10.0541 16.6435 13.1306C16.6494 16.2071 14.1417 18.709 11.0652 18.709ZM11.0652 8.7132C8.62719 8.7132 6.64777 10.6984 6.64777 13.1306C6.64777 15.5686 8.63299 17.548 11.0652 17.548C13.5032 17.548 15.4826 15.5628 15.4826 13.1306C15.4884 10.6926 13.5032 8.7132 11.0652 8.7132Z" fill="currentColor"/>
<path d="M13.5144 24.0958L8.51069 24.0784C8.35396 24.0784 8.20884 24.0145 8.09855 23.91C7.98826 23.7997 7.93022 23.6546 7.93022 23.4979L7.93602 21.7042C7.67481 21.6113 7.4194 21.501 7.16399 21.3791L5.86372 22.6736C5.63734 22.9 5.26584 22.9 5.04526 22.6736L1.52177 19.1269C1.29539 18.9005 1.29539 18.529 1.52177 18.3084L2.81043 17.0256C2.68272 16.7528 2.56663 16.4741 2.46795 16.1955L0.680084 16.1897C0.360823 16.1897 0.0996094 15.9285 0.0996094 15.6092L0.117024 10.6113C0.117024 10.2921 0.378237 10.0309 0.697499 10.0309L2.49117 10.0367C2.59565 9.75223 2.71175 9.47941 2.83945 9.20659L1.59723 7.95276C1.37085 7.72638 1.37085 7.35487 1.59723 7.13429L5.14394 3.61081C5.37032 3.38442 5.73602 3.38442 5.96241 3.61081L7.22784 4.88205C7.49486 4.76015 7.76188 4.64986 8.0347 4.55118L8.04051 2.67044C8.04051 2.51371 8.10436 2.36859 8.20884 2.2583C8.31333 2.14801 8.46425 2.08997 8.62098 2.08997L13.6189 2.10738C13.7756 2.10738 13.9207 2.17123 14.031 2.27572C14.1413 2.38601 14.1993 2.53113 14.1993 2.68785L14.1935 4.58601C14.478 4.69049 14.7508 4.80659 15.0236 4.9401L16.3239 3.65144C16.5503 3.42506 16.916 3.42506 17.1482 3.65144L20.6716 7.19815C20.898 7.42453 20.898 7.79603 20.6716 8.01661L19.3365 9.3459C19.4526 9.60131 19.5571 9.85672 19.65 10.1179L21.5191 10.1412C21.6759 10.1412 21.821 10.205 21.9313 10.3095C22.0416 10.4198 22.0996 10.5649 22.0996 10.7216L22.0822 15.7195C22.0822 16.0388 21.821 16.3 21.5017 16.3L19.5978 16.2942C19.4991 16.5554 19.3946 16.8166 19.2727 17.0662L20.6078 18.4129C20.8342 18.6393 20.8342 19.0108 20.6078 19.2314L17.0611 22.7549C16.8347 22.9813 16.4632 22.9813 16.2426 22.7549L14.8959 21.4024C14.6347 21.5243 14.3677 21.6346 14.1007 21.7274L14.0949 23.5211C14.0891 23.8404 13.8336 24.0958 13.5144 24.0958ZM9.09697 22.9232L12.9339 22.9348L12.9397 21.3037C12.9397 21.0483 13.1081 20.8219 13.3519 20.7522C13.8278 20.6071 14.2922 20.4156 14.745 20.1834C14.9714 20.0615 15.25 20.1079 15.4241 20.2879L16.6548 21.5243L19.3772 18.8193L18.1524 17.5886C17.9724 17.4087 17.9318 17.1301 18.0537 16.9037C18.2859 16.4683 18.4832 16.0098 18.6284 15.5396C18.7038 15.2958 18.9302 15.1332 19.1798 15.1332L20.9154 15.139L20.9387 11.2963L19.2205 11.2905C18.965 11.2905 18.7387 11.1222 18.6632 10.8784C18.5239 10.414 18.3381 9.9496 18.1059 9.50844C17.9898 9.28205 18.0305 9.00923 18.2104 8.82928L19.4294 7.61609L16.7244 4.89366L15.5402 6.07202C15.3603 6.25197 15.0759 6.2926 14.8495 6.1707C14.4025 5.9269 13.9207 5.72374 13.4331 5.56701C13.1893 5.49155 13.0268 5.26516 13.0268 5.00975L13.0326 3.27413L9.19565 3.26253L9.18985 4.98073C9.18985 5.23614 9.02151 5.46253 8.77771 5.53799C8.30172 5.6773 7.83154 5.86886 7.37876 6.10105C7.15238 6.21714 6.87956 6.17651 6.69961 5.99656L5.55027 4.84142L2.82784 7.54643L3.95977 8.68416C4.13971 8.86411 4.18035 9.14274 4.05845 9.36912C3.81465 9.82189 3.61148 10.2979 3.46056 10.7855C3.3851 11.0293 3.15871 11.1918 2.9033 11.1918L1.27217 11.186L1.26056 15.0288L2.89169 15.0346C3.1471 15.0346 3.37349 15.2029 3.44315 15.4467C3.58826 15.9343 3.78562 16.4161 4.02942 16.8689C4.15132 17.0952 4.10489 17.3739 3.92494 17.5538L2.75238 18.7206L5.45739 21.443L6.64156 20.2646C6.82151 20.0847 7.10014 20.0441 7.32072 20.166C7.76768 20.4039 8.22626 20.5955 8.68483 20.7406C8.92863 20.8161 9.09697 21.0425 9.09117 21.2979L9.09697 22.9232Z" fill="currentColor"/>
</g>
<defs>
<clipPath id="clip0_1_1863">
<rect width="24" height="24" fill="white" transform="translate(0 0.504028)"/>
</clipPath>
</defs>
</svg>
