<svg width="21" height="22" viewBox="0 0 21 22" fill="none" xmlns="http://www.w3.org/2000/svg">
<path d="M3.71107 14.7168C4.90949 14.7168 5.97475 14.1437 6.65211 13.2637L13.2 17.3047C13.1132 17.6174 13.0669 17.9416 13.0669 18.2832C13.0669 20.3326 14.7342 22 16.7837 22C18.8332 22 20.5005 20.3326 20.5005 18.2832C20.5005 16.2337 18.8332 14.5663 16.7837 14.5663C15.4869 14.5663 14.3463 15.2321 13.6805 16.2395L7.20791 12.2447C7.34686 11.8568 7.42791 11.44 7.42791 11C7.42791 10.6237 7.37002 10.2589 7.26581 9.91737L13.7848 5.89947C14.4621 6.82579 15.5505 7.43368 16.7837 7.43368C18.8332 7.43368 20.5005 5.76632 20.5005 3.71684C20.5005 1.66737 18.8332 0 16.7837 0C14.7342 0 13.0669 1.66737 13.0669 3.71684C13.0669 4.11632 13.1305 4.50421 13.2521 4.86895L6.75633 8.87526C6.08475 7.92 4.97317 7.28895 3.71686 7.28895C1.66738 7.28895 1.50313e-05 8.95632 1.50313e-05 11.0058C-0.00577444 13.0495 1.6616 14.7168 3.71107 14.7168ZM16.7837 15.7184C18.1963 15.7184 19.3426 16.8647 19.3426 18.2774C19.3426 19.69 18.1963 20.8363 16.7837 20.8363C15.3711 20.8363 14.2247 19.69 14.2247 18.2774C14.2247 16.8647 15.3711 15.7184 16.7837 15.7184ZM16.7837 1.15211C18.1963 1.15211 19.3426 2.29842 19.3426 3.71105C19.3426 5.12368 18.1963 6.27 16.7837 6.27C15.3711 6.27 14.2247 5.12368 14.2247 3.71105C14.2247 2.29842 15.3711 1.15211 16.7837 1.15211ZM3.71107 8.44105C5.1237 8.44105 6.27002 9.58737 6.27002 11C6.27002 12.4126 5.1237 13.5589 3.71107 13.5589C2.29844 13.5589 1.15212 12.4126 1.15212 11C1.15212 9.58737 2.29844 8.44105 3.71107 8.44105Z" fill="currentColor"/>
</svg>
