<svg width="22" height="23" viewBox="0 0 22 23" fill="none" xmlns="http://www.w3.org/2000/svg">
<path d="M21.4211 15.7578C21.1026 15.7578 20.8421 16.0183 20.8421 16.3367V21.6746H3.48526C2.2 21.6746 1.15789 20.6325 1.15789 19.353V16.3367C1.15789 16.0183 0.897368 15.7578 0.578947 15.7578C0.260526 15.7578 0 16.0183 0 16.3367V19.353C0 21.2694 1.56316 22.8325 3.48526 22.8325H21.4211C21.7395 22.8325 22 22.572 22 22.2536V16.3367C22 16.0183 21.7395 15.7578 21.4211 15.7578Z" fill="currentColor"/>
<path d="M6.53631 6.49462C6.68683 6.49462 6.83157 6.43673 6.94736 6.32673L10.421 2.85883V17.7841C10.421 18.1025 10.6816 18.363 11 18.363C11.3184 18.363 11.5789 18.1025 11.5789 17.7841V2.83567L15.0642 6.22831C15.2958 6.45409 15.6605 6.44831 15.8805 6.21673C16.1063 5.98515 16.1005 5.62041 15.8689 5.40041L11.4053 1.05252C11.2142 0.861463 10.8958 0.844095 10.67 0.994621C10.641 1.01199 10.6121 1.03515 10.5947 1.05831L6.13104 5.51041C5.90525 5.7362 5.90525 6.10094 6.13104 6.32673C6.23525 6.43673 6.38578 6.49462 6.53631 6.49462Z" fill="currentColor"/>
</svg>
