<svg width="24" height="24" viewBox="0 0 24 24" fill="none" xmlns="http://www.w3.org/2000/svg">
<path d="M12.413 23C12.3378 23 12.2625 22.9884 12.1931 22.9595L8.55198 21.4776C5.35661 20.1809 3.29004 17.0781 3.29004 13.5818V5.05499C3.29004 4.81766 3.43476 4.60926 3.64894 4.51664L12.1931 1.04342C12.332 0.985528 12.4883 0.985528 12.6272 1.04342L21.1714 4.51664C21.3913 4.60347 21.5303 4.81766 21.5303 5.05499V13.5818C21.5303 17.0781 19.4637 20.1751 16.2683 21.4718L12.6272 22.9537C12.5636 22.9884 12.4883 23 12.413 23ZM4.44778 5.44284V13.5818C4.44778 16.6035 6.2307 19.2836 8.98613 20.4009L12.413 21.7959L15.84 20.4009C18.6012 19.2779 20.3783 16.6035 20.3783 13.5818V5.44284L12.413 2.20695L4.44778 5.44284Z" fill="currentColor"/>
<path d="M12.4026 14.3227C12.0842 14.3227 11.8237 14.0622 11.8237 13.7439V6.95949C11.8237 6.64111 12.0842 6.38062 12.4026 6.38062C12.721 6.38062 12.9815 6.64111 12.9815 6.95949V13.7439C12.9815 14.068 12.721 14.3227 12.4026 14.3227Z" fill="currentColor"/>
<path d="M12.4142 17.0434C12.7819 17.0434 13.0799 16.7454 13.0799 16.3777C13.0799 16.0101 12.7819 15.712 12.4142 15.712C12.0466 15.712 11.7485 16.0101 11.7485 16.3777C11.7485 16.7454 12.0466 17.0434 12.4142 17.0434Z" fill="currentColor"/>
</svg>
