<svg width="24" height="24" viewBox="0 0 24 24" fill="none" xmlns="http://www.w3.org/2000/svg">
<path d="M20.7612 4.51664L12.2171 1.04342C12.0781 0.985528 11.9218 0.985528 11.7829 1.04342L3.23878 4.51664C3.01881 4.60347 2.87988 4.81766 2.87988 5.05499V13.5818C2.87988 17.0781 4.94646 20.1751 8.14182 21.4776L11.7829 22.9595C11.8524 22.9884 11.9276 23 12.0029 23C12.0781 23 12.1534 22.9884 12.2229 22.9595L15.864 21.4776C19.0593 20.1809 21.1259 17.0781 21.1259 13.5876V5.05499C21.1201 4.81766 20.9754 4.60926 20.7612 4.51664ZM19.9624 13.5818C19.9624 16.6035 18.1795 19.2836 15.424 20.4009L11.9971 21.7959L8.57019 20.4009C5.80898 19.2779 4.03184 16.6035 4.03184 13.5818V5.44284L11.9971 2.20695L19.9624 5.44284V13.5818Z" fill="currentColor"/>
<path d="M8.26955 12.1404C8.06695 11.8915 7.70226 11.8567 7.45334 12.0651C7.20443 12.2677 7.17548 12.6324 7.37808 12.8813L9.73988 15.7352C9.84408 15.8625 9.99458 15.9378 10.1567 15.9436C10.1682 15.9436 10.174 15.9436 10.1856 15.9436C10.3361 15.9436 10.4866 15.8857 10.5966 15.7757L17.3289 9.04342C17.5546 8.81766 17.5546 8.45297 17.3289 8.22721C17.1031 8.00145 16.7384 8.00145 16.5127 8.22721L10.2319 14.508L8.26955 12.1404Z" fill="currentColor"/>
</svg>
