<svg width="24" height="24" viewBox="0 0 24 24" fill="none" xmlns="http://www.w3.org/2000/svg">
<path d="M12.123 23C12.0478 23 11.9725 22.9884 11.903 22.9595L8.26194 21.4776C5.06657 20.1751 3 17.0781 3 13.5818V5.05499C3 4.81766 3.14472 4.60926 3.3589 4.51664L11.903 1.04342C12.042 0.985528 12.1983 0.985528 12.3372 1.04342L20.8813 4.51664C21.1013 4.60347 21.2402 4.81766 21.2402 5.05499V13.5818C21.2402 17.0781 19.1737 20.1751 15.9783 21.4718L12.3372 22.9537C12.2735 22.9884 12.1983 23 12.123 23ZM4.15774 5.44284V13.5818C4.15774 16.6035 5.94067 19.2836 8.69609 20.4009L12.123 21.7959L15.5499 20.4009C18.3111 19.2779 20.0941 16.6035 20.0941 13.5818V5.44284L12.123 2.20695L4.15774 5.44284Z" fill="currentColor"/>
</svg>
