<svg width="24" height="24" viewBox="0 0 24 24" fill="none" xmlns="http://www.w3.org/2000/svg">
<path d="M20.4672 4.51664L11.9231 1.04342C11.7841 0.985528 11.6278 0.985528 11.4889 1.04342L2.94477 4.51664C2.71901 4.60926 2.58008 4.81766 2.58008 5.05499V13.5818C2.58008 17.0781 4.64665 20.1751 7.84202 21.4776L11.4831 22.9595C11.5526 22.9884 11.6278 23 11.7031 23C11.7783 23 11.8536 22.9884 11.9231 22.9595L15.5642 21.4776C18.7595 20.1809 20.8261 17.0781 20.8261 13.5876V5.05499C20.8261 4.81766 20.6872 4.60926 20.4672 4.51664ZM19.6684 13.5818C19.6684 16.6035 17.8854 19.2836 15.13 20.4009L11.7031 21.7959L8.27617 20.4009C5.51495 19.2779 3.73782 16.6035 3.73782 13.5818V5.44284L11.7031 2.20695L19.6684 5.44284V13.5818Z" fill="currentColor"/>
<path d="M8.27605 7.92619C8.05029 7.70043 7.68561 7.70043 7.45985 7.92619C7.23409 8.15195 7.23409 8.51663 7.45985 8.74239L10.7189 12.0014L7.45985 15.2605C7.23409 15.4862 7.23409 15.8509 7.45985 16.0767C7.57562 16.1925 7.72034 16.2446 7.87085 16.2446C8.02135 16.2446 8.16607 16.1867 8.28184 16.0767L11.5409 12.8176L14.7999 16.0767C14.9157 16.1925 15.0604 16.2446 15.2109 16.2446C15.3614 16.2446 15.5062 16.1867 15.6219 16.0767C15.8477 15.8509 15.8477 15.4862 15.6219 15.2605L12.3513 12.0014L15.6103 8.74239C15.8361 8.51663 15.8361 8.15195 15.6103 7.92619C15.3846 7.70043 15.0199 7.70043 14.7941 7.92619L11.5351 11.1852L8.27605 7.92619Z" fill="currentColor"/>
</svg>
