<svg width="24" height="24" viewBox="0 0 24 24" fill="none" xmlns="http://www.w3.org/2000/svg">
<path d="M23.0666 18.3172L20.935 7.93057C20.7256 6.89561 19.8138 6.15018 18.7727 6.15018H15.9265V5.04745C15.9265 2.81735 14.2324 1 12.144 1C10.0556 1 8.36144 2.81735 8.36144 5.04745V6.15018H5.51529C4.47416 6.15018 3.56857 6.90177 3.35295 7.93057L1.22141 18.3172C0.993476 19.4384 1.2707 20.5904 1.99148 21.4714C2.69378 22.3338 3.72874 22.8267 4.82531 22.8267H19.4504C20.5531 22.8267 21.5819 22.3338 22.2842 21.4714C23.0111 20.5904 23.2945 19.4384 23.0666 18.3172ZM9.59355 5.04745C9.59355 3.49501 10.7394 2.2321 12.144 2.2321C13.5486 2.2321 14.6944 3.49501 14.6944 5.04745V6.15018H9.58738V5.04745H9.59355ZM21.3355 20.6951C20.8673 21.2681 20.1835 21.5946 19.4565 21.5946H4.83147C4.10453 21.5946 3.41456 21.2681 2.95252 20.6951C2.46584 20.1037 2.28102 19.3275 2.43504 18.5698L4.56657 8.18315C4.65898 7.72111 5.06557 7.38845 5.52145 7.38845H18.7789C19.2347 7.38845 19.6352 7.72111 19.7337 8.18315L21.8653 18.5698C22.0131 19.3214 21.8222 20.0976 21.3355 20.6951Z" fill="currentColor"/>
</svg>
