<svg width="24" height="25" viewBox="0 0 24 25" fill="none" xmlns="http://www.w3.org/2000/svg">
<path d="M6.06686 13.4647C5.74844 13.4647 5.48792 13.7252 5.48792 14.0437V16.7995C5.48792 17.1179 5.74844 17.3784 6.06686 17.3784C6.38528 17.3784 6.64581 17.1179 6.64581 16.7995V14.0437C6.64581 13.7252 6.38528 13.4647 6.06686 13.4647Z" fill="currentColor"/>
<path d="M18.0221 1H10.49C9.37263 1 8.46368 1.90895 8.46368 3.02053V6.99211C5.95684 7.28158 4 9.41211 4 12C4 12.3184 4.26053 12.5789 4.57895 12.5789H13.5121C13.8305 12.5789 14.0911 12.3184 14.0911 12C14.0911 9.41211 12.1342 7.28158 9.62737 6.99211V3.02053C9.62158 2.54579 10.0095 2.15789 10.49 2.15789H18.0279C18.5026 2.15789 18.8905 2.54579 18.8905 3.02053V22.4211C18.8905 22.7395 19.1511 23 19.4695 23C19.7879 23 20.0484 22.7395 20.0484 22.4211V3.02053C20.0426 1.90895 19.1395 1 18.0221 1ZM12.8868 11.4211H5.19842C5.47632 9.55105 7.09737 8.11526 9.04263 8.11526C10.9937 8.11526 12.6089 9.55105 12.8868 11.4211Z" fill="currentColor"/>
<path d="M7.55466 17.6216C7.23623 17.6216 6.97571 17.8821 6.97571 18.2005V20.9563C6.97571 21.2747 7.23623 21.5353 7.55466 21.5353C7.87308 21.5353 8.1336 21.2747 8.1336 20.9563V18.2005C8.1336 17.8821 7.87308 17.6216 7.55466 17.6216Z" fill="currentColor"/>
<path d="M10.5074 17.6216C10.1889 17.6216 9.92841 17.8821 9.92841 18.2005V20.9563C9.92841 21.2747 10.1889 21.5353 10.5074 21.5353C10.8258 21.5353 11.0863 21.2747 11.0863 20.9563V18.2005C11.0863 17.8821 10.8316 17.6216 10.5074 17.6216Z" fill="currentColor"/>
<path d="M9.04263 13.4647C8.72421 13.4647 8.46368 13.7252 8.46368 14.0437V16.7995C8.46368 17.1179 8.72421 17.3784 9.04263 17.3784C9.36105 17.3784 9.62158 17.1179 9.62158 16.7995V14.0437C9.62158 13.7252 9.36684 13.4647 9.04263 13.4647Z" fill="currentColor"/>
<path d="M12.0243 13.4647C11.7058 13.4647 11.4453 13.7252 11.4453 14.0437V16.7995C11.4453 17.1179 11.7058 17.3784 12.0243 17.3784C12.3427 17.3784 12.6032 17.1179 12.6032 16.7995V14.0437C12.6032 13.7252 12.3427 13.4647 12.0243 13.4647Z" fill="currentColor"/>
</svg>
