<svg width="24" height="24" viewBox="0 0 24 24" fill="none" xmlns="http://www.w3.org/2000/svg">
<path d="M21.7686 6.65474C21.6698 6.65474 21.5709 6.63132 21.4779 6.57275L17.3428 4.14246C17.209 4.06633 17.1101 3.9375 17.0752 3.78524C17.0345 3.63298 17.0578 3.47487 17.1334 3.34017L18.3198 1.29639C18.4827 1.01529 18.8374 0.921596 19.1166 1.08557L21.9548 2.75456C22.4375 3.03566 22.7806 3.49243 22.9202 4.0312C23.0598 4.57582 22.9842 5.138 22.705 5.62406L22.2804 6.36193C22.1699 6.54933 21.978 6.65474 21.7803 6.65474H21.7686ZM18.4303 3.42802L21.5593 5.26684L21.693 5.03845C21.9489 4.59924 21.7977 4.02534 21.3615 3.76767L19.0236 2.39734L18.4245 3.42802H18.4303Z" fill="currentColor"/>
<path d="M12.5217 17.793C12.4228 17.793 12.3181 17.7637 12.2309 17.711C12.0797 17.6232 11.975 17.465 11.9459 17.2894L11.3876 13.5063C11.3701 13.3716 11.3934 13.2369 11.4632 13.1256L16.2845 4.83923C16.4474 4.55814 16.8021 4.46444 17.0813 4.62841C17.3605 4.79239 17.4535 5.14961 17.2907 5.4307L12.5682 13.5414L12.9869 16.3934L15.6622 15.3568L20.3847 7.2461C20.5476 6.96501 20.9023 6.87131 21.1815 7.03528C21.4607 7.19925 21.5537 7.55648 21.3909 7.83757L16.5695 16.124C16.5055 16.2411 16.4008 16.3289 16.2787 16.3758L12.7369 17.7461C12.6671 17.7696 12.5973 17.7871 12.5275 17.7871L12.5217 17.793Z" fill="currentColor"/>
<path d="M14.3014 14.7187C14.2025 14.7187 14.0978 14.6953 14.0106 14.6367C13.7314 14.4727 13.6384 14.1155 13.8012 13.8344L18.3376 6.04578C18.5004 5.76468 18.8552 5.67099 19.1343 5.83496C19.4135 5.99893 19.5066 6.35615 19.3437 6.63725L14.8073 14.4259C14.6968 14.6133 14.5049 14.7128 14.3072 14.7128L14.3014 14.7187Z" fill="currentColor"/>
<path d="M6.1706 23.0049C5.15283 23.0049 4.19903 22.6828 3.49531 22.0503C1.99481 20.7093 2.00063 18.4371 2.64619 16.8911C3.30338 15.3099 4.52471 14.1211 5.82165 12.9499L5.97286 12.8152C7.07788 11.8197 8.21779 10.789 8.8808 9.5065C9.08435 9.10828 9.51473 8.10688 9.09017 7.36315C8.68887 6.66042 7.65947 6.5023 7.24072 6.46131C5.28078 6.29148 3.23941 7.18747 2.03552 8.75106C1.83778 9.00873 1.47139 9.04972 1.2213 8.85647C0.965405 8.65736 0.918878 8.28842 1.11662 8.03661C2.55895 6.16851 5.00743 5.09098 7.34541 5.29594C8.63653 5.40721 9.61941 5.93426 10.1021 6.77169C10.6081 7.6501 10.5383 8.8389 9.91602 10.0394C9.15414 11.5093 7.93281 12.6161 6.75219 13.6819L6.60098 13.8166C5.40873 14.8941 4.28626 15.9775 3.72212 17.3361C3.21614 18.5484 3.24522 20.2525 4.27463 21.166C5.24588 22.0327 6.78127 21.9332 7.86884 21.453C9.14833 20.8849 10.1777 19.825 11.1722 18.8002C11.3991 18.5718 11.7655 18.5659 11.9923 18.7885C12.2249 19.0168 12.2249 19.3858 12.0039 19.6142C10.9803 20.6683 9.82297 21.8571 8.33992 22.5188C7.62457 22.835 6.88596 22.9931 6.18224 22.9931L6.1706 23.0049Z" fill="currentColor"/>
</svg>
