<svg width="24" height="24" viewBox="0 0 24 24" fill="none" xmlns="http://www.w3.org/2000/svg">
<path d="M21.6348 2.1243C20.6903 1.57668 19.5554 1.58461 18.6109 2.13223L5.68237 9.64811C4.74586 10.1957 4.18237 11.1719 4.18237 12.2592C4.18237 13.3465 4.74586 14.3227 5.68237 14.8703L18.6109 22.3862C19.0871 22.664 19.6109 22.7989 20.1268 22.7989C20.6427 22.7989 21.1586 22.664 21.6348 22.3941C22.5871 21.8465 23.1506 20.8703 23.1506 19.7751V4.74334C23.1506 3.64811 22.5792 2.66398 21.6348 2.1243ZM21.5633 19.7751C21.5633 20.291 21.2935 20.7592 20.8411 21.0132C20.3887 21.2751 19.857 21.2672 19.4046 21.0132L6.47602 13.4973C6.03158 13.2354 5.76174 12.7751 5.76174 12.2592C5.76174 11.7433 6.02364 11.283 6.47602 11.0211L19.4046 3.50525C19.6268 3.37033 19.8808 3.30684 20.1268 3.30684C20.3728 3.30684 20.6189 3.37033 20.8411 3.49731C21.2935 3.75922 21.5633 4.21953 21.5633 4.74334V19.7751Z" fill="currentColor"/>
<path d="M1.94404 2.70374C1.50753 2.70374 1.15039 3.06088 1.15039 3.49739V21.4021C1.15039 21.8387 1.50753 22.1958 1.94404 22.1958C2.38055 22.1958 2.73769 21.8387 2.73769 21.4021V3.49739C2.73769 3.06088 2.38055 2.70374 1.94404 2.70374Z" fill="currentColor"/>
</svg>
