<svg width="24" height="24" viewBox="0 0 24 24" fill="none" xmlns="http://www.w3.org/2000/svg">
<path d="M18.6187 9.64811L5.69007 2.13223C4.74563 1.58461 3.61071 1.57668 2.66627 2.1243C1.72182 2.67192 1.15039 3.64811 1.15039 4.74334V19.783C1.15039 20.8783 1.71389 21.8545 2.66627 22.4021C3.13452 22.6719 3.65834 22.8068 4.17421 22.8068C4.69802 22.8068 5.21388 22.6719 5.69007 22.3941L18.6187 14.8783C19.5552 14.3306 20.1186 13.3545 20.1186 12.2672C20.1186 11.1799 19.5552 10.1957 18.6187 9.64811ZM17.8171 13.4973L4.88849 21.0132C4.43611 21.2751 3.90437 21.2751 3.45199 21.0132C2.9996 20.7513 2.72976 20.291 2.72976 19.7751V4.74334C2.72976 4.22747 2.9996 3.75922 3.45199 3.50525C3.67421 3.37826 3.92023 3.31477 4.16627 3.31477C4.4123 3.31477 4.65833 3.37827 4.88849 3.51319L17.8171 11.0291C18.2615 11.291 18.5313 11.7513 18.5313 12.2672C18.5313 12.783 18.2615 13.2354 17.8171 13.4973Z" fill="currentColor"/>
<path d="M22.3566 2.70374C21.9201 2.70374 21.563 3.06088 21.563 3.49739V21.4021C21.563 21.8387 21.9201 22.1958 22.3566 22.1958C22.7931 22.1958 23.1503 21.8387 23.1503 21.4021V3.49739C23.1503 3.06088 22.7931 2.70374 22.3566 2.70374Z" fill="currentColor"/>
</svg>
