<svg width="24" height="24" viewBox="0 0 24 24" fill="none" xmlns="http://www.w3.org/2000/svg">
<path d="M20.1728 8.44526C20.1149 8.44526 20.0628 8.45684 20.005 8.46263V3.04368C20.005 1.92053 19.0905 1 17.9618 1H6.06759C4.94473 1 4.02444 1.91474 4.02444 3.04368V8.46842C3.9492 8.46263 3.87395 8.44526 3.79292 8.44526C2.24175 8.44526 0.97998 9.70737 0.97998 11.2589V19.4453C0.97998 19.7637 1.24044 20.0242 1.55877 20.0242H5.11257L4.09968 22.1779C3.96656 22.4674 4.08811 22.8147 4.37751 22.9479C4.45854 22.9826 4.53957 23 4.6206 23C4.84054 23 5.0489 22.8784 5.1473 22.67L6.39171 20.0242H17.574L18.8995 22.6816C19.0036 22.8842 19.2062 23 19.4204 23C19.5072 23 19.594 22.9826 19.6808 22.9363C19.9644 22.7916 20.0802 22.4442 19.9413 22.1605L18.8705 20.0184H22.4012C22.7195 20.0184 22.98 19.7579 22.98 19.4395V11.2532C22.9857 9.70737 21.724 8.44526 20.1728 8.44526ZM5.18782 3.04368C5.18782 2.55737 5.5814 2.15789 6.07337 2.15789H17.9676C18.4538 2.15789 18.8532 2.55158 18.8532 3.04368V8.79263C17.9734 9.26737 17.3656 10.1879 17.3656 11.2589V11.4211H6.61744V11.2532C6.61744 10.2111 6.03864 9.30789 5.1936 8.82158V3.04368H5.18782ZM6.61744 12.5789H17.3656V14.3968H6.61744V12.5789ZM21.8282 18.8663H2.14915V11.2532C2.14915 10.3384 2.89 9.59737 3.8045 9.59737C4.71899 9.59737 5.45985 10.3384 5.45985 11.2532V14.9758C5.45985 15.2942 5.72031 15.5547 6.03865 15.5547H17.9444C18.2628 15.5547 18.5232 15.2942 18.5232 14.9758V11.2532C18.5232 10.3384 19.2641 9.59737 20.1786 9.59737C21.0931 9.59737 21.8339 10.3384 21.8339 11.2532V18.8663H21.8282Z" fill="currentColor"/>
</svg>
