<svg width="24" height="24" viewBox="0 0 24 24" fill="none" xmlns="http://www.w3.org/2000/svg">
<path d="M23.4167 7.64986C23.4109 7.56883 23.3993 7.49359 23.3646 7.42413L20.3896 1.46833C20.2912 1.27154 20.0886 1.14999 19.8745 1.14999H4.98206C4.76212 1.14999 4.55954 1.27154 4.46693 1.46833C4.46693 1.46833 1.49192 7.41256 1.49192 7.42413C1.39353 7.62092 1.43404 7.83508 1.43404 8.04344C1.43404 8.23445 1.43404 8.43124 1.43404 8.62224C1.43404 8.6396 1.43404 8.65697 1.43404 8.67433C1.43404 9.9361 2.01284 11.0648 2.92155 11.8114V19.6367C2.92155 21.5757 4.49587 23.15 6.43483 23.15H9.90761H14.9605H21.3677C21.6861 23.15 21.9465 22.8895 21.9465 22.5712V11.8056C22.8552 11.0648 23.434 9.9361 23.434 8.66854C23.4225 8.33284 23.434 7.99714 23.4167 7.64986ZM19.5098 2.30758L21.906 7.1058H16.4306L16.0313 2.30758H19.5098ZM9.98285 2.30758H14.8737L15.273 7.1058H9.58348L9.98285 2.30758ZM9.53139 8.2576H15.3193V8.66854C15.3193 10.266 14.0228 11.5625 12.4254 11.5625C10.8279 11.5625 9.53139 10.266 9.53139 8.66854V8.2576ZM5.34091 2.30758H8.81947L8.4201 7.1058H2.9447L5.34091 2.30758ZM2.58585 8.67433V8.26339H8.3738V8.67433C8.3738 10.2718 7.0773 11.5683 5.47982 11.5683C3.88235 11.5683 2.58585 10.266 2.58585 8.67433ZM14.3701 21.9866H10.4748V15.7009H14.3701V21.9866ZM20.7774 21.9866H15.5277V15.1221C15.5277 14.8038 15.2672 14.5433 14.9489 14.5433H9.89603C9.57769 14.5433 9.31723 14.8038 9.31723 15.1221V21.9866H6.42326C5.12676 21.9866 4.06756 20.9274 4.06756 19.6309V12.4654C4.50745 12.6275 4.97627 12.7201 5.47403 12.7201C6.94996 12.7201 8.24067 11.9272 8.9468 10.7464C9.65293 11.9272 10.9436 12.7201 12.4196 12.7201C13.8955 12.7201 15.1862 11.9272 15.8923 10.7464C16.5985 11.9272 17.8892 12.7201 19.3651 12.7201C19.8571 12.7201 20.3317 12.6275 20.7716 12.4654V21.9866H20.7774ZM22.2649 8.67433C22.2649 10.2718 20.9684 11.5683 19.3709 11.5683C17.7734 11.5683 16.4769 10.2718 16.4769 8.67433V8.26339H22.2649V8.67433Z" fill="currentColor"/>
</svg>
