<svg width="24" height="24" viewBox="0 0 24 24" fill="none" xmlns="http://www.w3.org/2000/svg">
<path d="M18.2036 1H6.28891C5.97049 1 5.70996 1.26053 5.70996 1.57895V19.4916C5.70996 21.4253 7.2847 23 9.21838 23H18.1979C18.5163 23 18.7768 22.7395 18.7768 22.4211V1.57895C18.7826 1.26053 18.5221 1 18.2036 1ZM17.6247 2.15789V18.9126H6.86786V2.15789H17.6247ZM9.21838 21.8421C8.12417 21.8421 7.20943 21.0837 6.94891 20.0705H17.6189V21.8421H9.21838Z" fill="currentColor"/>
<path d="M10.5846 4.17267H13.7341C14.0525 4.17267 14.313 3.91214 14.313 3.59372C14.313 3.2753 14.0525 3.01477 13.7341 3.01477H10.5846C10.2662 3.01477 10.0057 3.2753 10.0057 3.59372C10.0057 3.91214 10.2662 4.17267 10.5846 4.17267Z" fill="currentColor"/>
<path d="M12.2461 20.3658C11.9335 20.3658 11.6846 20.6206 11.6846 20.9274C11.6846 21.2401 11.9393 21.489 12.2461 21.489C12.553 21.489 12.8077 21.2343 12.8077 20.9274C12.8077 20.6206 12.5588 20.3658 12.2461 20.3658Z" fill="currentColor"/>
</svg>
