<svg width="24" height="24" viewBox="0 0 24 24" fill="none" xmlns="http://www.w3.org/2000/svg">
<path d="M20.8327 17.4711C20.6083 17.2453 20.2458 17.2453 20.0213 17.4711L16.4883 21.0258L16.4653 1.57895C16.4653 1.26053 16.2064 1 15.8899 1C15.5734 1 15.3145 1.26053 15.3145 1.57895L15.3375 21.02L11.7873 17.4479C11.5628 17.2221 11.2003 17.2221 10.9759 17.4479C10.7515 17.6737 10.7515 18.0384 10.9759 18.2642L15.5101 22.8263C15.5619 22.8784 15.6252 22.9247 15.6943 22.9537C15.7633 22.9826 15.8381 23 15.9129 23H15.9244C15.9935 23 16.0625 22.9826 16.1316 22.9595C16.2006 22.9305 16.2639 22.89 16.3215 22.8321L20.8327 18.2932C21.0571 18.0674 21.0571 17.7026 20.8327 17.4768V17.4711Z" fill="currentColor"/>
<path d="M11.2185 6.5521C11.3336 6.66789 11.4774 6.71999 11.6271 6.71999C11.7767 6.71999 11.9205 6.6621 12.0356 6.5521C12.26 6.32631 12.26 5.96157 12.0356 5.73578L7.49562 1.16789C7.44383 1.11578 7.38053 1.06946 7.31148 1.04052C7.24244 1.01157 7.16763 0.994202 7.09283 0.994202H7.08132C7.01227 0.994202 6.94322 1.01157 6.87417 1.03473C6.80513 1.06368 6.74183 1.1042 6.68429 1.1621L2.16733 5.71262C1.94292 5.93841 1.94292 6.30315 2.16733 6.52894C2.39174 6.75473 2.75425 6.75473 2.97866 6.52894L6.51742 2.9742L6.54044 22.421C6.54044 22.7395 6.79937 23 7.11585 23C7.43232 23 7.69126 22.7395 7.69126 22.421L7.66824 2.97999L11.2185 6.5521Z" fill="currentColor"/>
</svg>
