<svg width="24" height="25" viewBox="0 0 24 25" fill="none" xmlns="http://www.w3.org/2000/svg">
<path d="M18.0579 1.74466C17.3507 1.33103 16.4968 1.33103 15.7896 1.73798L7.43694 6.50808C7.04999 6.72824 6.60967 6.84166 6.16936 6.84166H3.70758C2.45335 6.84166 1.43262 7.86239 1.43262 9.11663V15.7547C1.43262 17.009 2.45335 18.0297 3.70758 18.0297H6.16936C6.61635 18.0297 7.04999 18.1431 7.43694 18.3633L15.7896 23.1334C16.1432 23.3335 16.5302 23.4336 16.9171 23.4336C17.3107 23.4336 17.7043 23.3269 18.0579 23.12C18.7651 22.7064 19.1921 21.9725 19.1921 21.152V3.71274C19.1921 2.89215 18.7718 2.15829 18.0579 1.74466ZM17.8578 21.1653C17.8578 21.5055 17.6843 21.8058 17.3908 21.9792C17.0972 22.146 16.7436 22.1527 16.4501 21.9792L8.09741 17.2091C7.51032 16.8755 6.84318 16.6954 6.16936 16.6954H3.70758C3.18721 16.6954 2.76691 16.2751 2.76691 15.7547V9.11663C2.76691 8.59625 3.18721 8.17595 3.70758 8.17595H6.16936C6.84318 8.17595 7.51032 7.99582 8.09741 7.66225L16.4501 2.89215C16.7436 2.72536 17.0972 2.72536 17.3908 2.89215C17.6843 3.06561 17.8578 3.36582 17.8578 3.70607V21.1653Z" fill="currentColor"/>
<path d="M21.8674 8.56293C21.5939 8.31609 21.1736 8.3361 20.9267 8.60296C20.6799 8.87649 20.6932 9.29679 20.9668 9.54364C21.6072 10.1307 22.0008 11.2515 22.0008 12.4858C22.0008 13.7133 21.6072 14.8408 20.9668 15.4279C20.6932 15.6747 20.6799 16.1017 20.9267 16.3685C21.0602 16.5086 21.2403 16.582 21.4204 16.582C21.5805 16.582 21.7407 16.522 21.8741 16.4086C22.7947 15.568 23.3418 14.1002 23.3418 12.4858C23.3351 10.8713 22.7881 9.40353 21.8674 8.56293Z" fill="currentColor"/>
</svg>
