<svg width="24" height="24" viewBox="0 0 24 24" fill="none" xmlns="http://www.w3.org/2000/svg">
<path d="M13.9257 1.04004H5.67568C5.3586 1.04004 5.09916 1.29947 5.09916 1.61656V8.41373L4.77054 8.74234C4.40157 9.11132 4.09601 9.53794 3.8654 10.0107L3.79622 10.1491C3.4849 10.7948 3.3177 11.5096 3.3177 12.2245V18.6412H3.19664C2.87955 18.6412 2.62012 18.9006 2.62012 19.2177V22.4635C2.62012 22.7806 2.87955 23.04 3.19664 23.04C3.51372 23.04 3.77316 22.7806 3.77316 22.4635V19.7942H3.88847H10.5184H10.8355V22.4635C10.8355 22.7806 11.095 23.04 11.412 23.04C11.7291 23.04 11.9886 22.7806 11.9886 22.4635V19.2177C11.9886 18.9006 11.7291 18.6412 11.412 18.6412H11.095V18.2376C11.6023 17.8687 12.0232 17.2864 12.2711 16.6349H13.9141C14.2312 16.6349 14.4907 16.3755 14.4907 16.0584V1.61656C14.5022 1.29947 14.2428 1.04004 13.9257 1.04004ZM6.24643 2.19308H13.3434V13.4525H9.6306C10.0918 12.8818 10.357 12.1842 10.3513 11.4347C10.3455 10.5757 10.0053 9.76855 9.3827 9.16897C9.15786 8.94989 8.79466 8.94989 8.57558 9.17474L6.24643 11.5039V2.19308ZM4.8282 10.6506L4.89738 10.5123C4.95503 10.397 5.02421 10.2874 5.09339 10.1779V12.6511L4.62641 13.1239C4.5284 13.2219 4.48227 13.343 4.47074 13.464V12.2245C4.47074 11.6826 4.59183 11.1407 4.8282 10.6506ZM10.2648 17.4074C10.0745 17.5054 9.95345 17.7015 9.95345 17.9205V18.6412H4.47074V13.6024C4.48804 13.7292 4.53417 13.8503 4.62641 13.9426C4.85126 14.1674 5.21447 14.1674 5.43931 13.9426L8.93302 10.4488C9.10597 10.7486 9.19821 11.0888 9.19821 11.4462C9.20398 11.9997 8.99066 12.5128 8.59863 12.9048L7.64737 13.8561C7.45135 14.0521 7.42253 14.3576 7.57819 14.5883C7.6935 14.7612 7.78573 14.9515 7.84339 15.1475C7.9068 15.3666 7.94139 15.5914 7.92986 15.822C7.91257 16.3524 7.69349 16.8482 7.32452 17.223C7.09968 17.4478 7.09968 17.811 7.32452 18.0358C7.43983 18.1511 7.58395 18.203 7.73385 18.203C7.88374 18.203 8.02788 18.1454 8.14319 18.0358C8.53522 17.6438 8.80042 17.1653 8.95031 16.6407H11.0027C10.8067 16.975 10.5415 17.2633 10.2648 17.4074ZM9.07138 15.4819C9.05408 15.2513 9.0195 15.0264 8.95031 14.8073C8.92725 14.7382 8.89842 14.6747 8.86959 14.6056H13.3434V15.4819H9.07138Z" fill="currentColor"/>
<path d="M8.65074 3.70931H10.83C11.1471 3.70931 11.4065 3.44988 11.4065 3.13279C11.4065 2.81571 11.1471 2.55627 10.83 2.55627H8.65074C8.33365 2.55627 8.07422 2.81571 8.07422 3.13279C8.07422 3.44988 8.32789 3.70931 8.65074 3.70931Z" fill="currentColor"/>
<path d="M9.79746 14.7035C9.61874 14.7035 9.47461 14.8476 9.47461 15.0263C9.47461 15.2051 9.61874 15.3492 9.79746 15.3492C9.97618 15.3492 10.1203 15.2051 10.1203 15.0263C10.1203 14.8476 9.97618 14.7035 9.79746 14.7035Z" fill="currentColor"/>
<path d="M15.8807 5.64645C15.6443 5.43313 15.2811 5.45043 15.0678 5.68104C14.8545 5.91741 14.866 6.28062 15.1024 6.49393C15.5117 6.86867 15.7769 7.62968 15.7769 8.42527C15.7769 9.22087 15.5117 9.98188 15.1024 10.3566C14.866 10.5699 14.8545 10.9389 15.0678 11.1695C15.1831 11.2906 15.3388 11.354 15.4944 11.354C15.6328 11.354 15.7712 11.3021 15.8865 11.2041C16.5437 10.6045 16.93 9.56102 16.93 8.41951C16.9242 7.28376 16.5322 6.24603 15.8807 5.64645Z" fill="currentColor"/>
<path d="M17.3214 3.84766C17.0677 3.65164 16.7045 3.69777 16.5142 3.94567C16.3182 4.19934 16.3643 4.55678 16.6122 4.7528C17.5635 5.49651 18.1573 6.90322 18.1573 8.42523C18.1573 9.94724 17.5635 11.354 16.6122 12.0977C16.3586 12.2937 16.3182 12.6569 16.5142 12.9048C16.6295 13.0489 16.7967 13.1239 16.9697 13.1239C17.0908 13.1239 17.2176 13.0835 17.3214 13.0028C18.5666 12.0342 19.3104 10.322 19.3104 8.42523C19.3104 6.52848 18.5666 4.81622 17.3214 3.84766Z" fill="currentColor"/>
<path d="M19.2296 2.07776C18.9759 1.88175 18.6185 1.92787 18.4224 2.17577C18.2264 2.42944 18.2725 2.78688 18.5204 2.9829C19.9387 4.08982 20.8208 6.17682 20.8208 8.42525C20.8208 10.6737 19.9387 12.7607 18.5204 13.8676C18.2668 14.0636 18.2264 14.4268 18.4224 14.6747C18.5377 14.8189 18.7049 14.8938 18.8779 14.8938C18.999 14.8938 19.1258 14.8534 19.2296 14.7727C20.9245 13.4525 21.9738 11.0196 21.9738 8.42525C21.9796 5.83091 20.9245 3.39799 19.2296 2.07776Z" fill="currentColor"/>
</svg>
