<svg width="24" height="25" viewBox="0 0 24 25" fill="none" xmlns="http://www.w3.org/2000/svg">
<path d="M14.8948 21.5804C14.5584 21.5804 14.222 21.4934 13.9146 21.3194L6.65276 17.1722C6.31635 16.9808 5.93354 16.8822 5.55073 16.8822H3.41047C2.32004 16.8822 1.43262 15.9948 1.43262 14.9044V9.13323C1.43262 8.0428 2.32004 7.15537 3.41047 7.15537H5.55073C5.93934 7.15537 6.31635 7.05677 6.65276 6.86536L13.9146 2.71825C14.5352 2.36444 15.2718 2.36444 15.8866 2.72405C16.5014 3.08366 16.8726 3.72168 16.8726 4.4351V19.6141C16.8726 20.3275 16.5072 20.9656 15.8866 21.3252C15.5792 21.4876 15.237 21.5804 14.8948 21.5804ZM3.41047 8.3038C2.95806 8.3038 2.59265 8.66921 2.59265 9.12163V14.8928C2.59265 15.3452 2.95806 15.7106 3.41047 15.7106H5.55073C6.13655 15.7106 6.71657 15.8672 7.22698 16.1572L14.4888 20.3043C14.744 20.4493 15.0514 20.4493 15.3066 20.3043C15.5618 20.1535 15.7126 19.8925 15.7126 19.5967V4.4235C15.7126 4.12769 15.5618 3.86668 15.3066 3.71588C15.0514 3.57087 14.744 3.56507 14.4888 3.71588L7.22698 7.86299C6.71657 8.153 6.13655 8.3096 5.55073 8.3096H3.41047V8.3038Z" fill="currentColor"/>
<path d="M18.8099 15.612C18.6533 15.612 18.4967 15.5482 18.3807 15.4264C18.1661 15.1886 18.1777 14.8232 18.4155 14.6086C18.9723 14.0982 19.3145 13.1238 19.3145 12.0507C19.3145 10.9835 18.9723 10.0033 18.4155 9.49287C18.1777 9.27827 18.1603 8.90706 18.3807 8.67505C18.5953 8.43724 18.9665 8.42564 19.1985 8.64025C19.9989 9.37107 20.4746 10.6471 20.4746 12.0507C20.4746 13.4544 19.9989 14.7304 19.1985 15.4612C19.0883 15.5656 18.9491 15.612 18.8099 15.612Z" fill="currentColor"/>
<path d="M20.6196 17.8508C20.4456 17.8508 20.2773 17.7754 20.1613 17.6304C19.9641 17.3752 20.0105 17.0156 20.26 16.8184C21.5012 15.8497 22.2726 14.0285 22.2726 12.0564C22.2726 10.0844 21.5012 8.26313 20.26 7.29451C20.0047 7.0973 19.9641 6.73189 20.1613 6.48248C20.3585 6.22728 20.724 6.18667 20.9734 6.38388C22.4872 7.56711 23.4326 9.74217 23.4326 12.0622C23.4326 14.3823 22.493 16.5574 20.9734 17.7406C20.869 17.8102 20.7472 17.8508 20.6196 17.8508Z" fill="currentColor"/>
</svg>
