<svg width="24" height="25" viewBox="0 0 24 25" fill="none" xmlns="http://www.w3.org/2000/svg">
<g clip-path="url(#clip0_88_3284)">
<path d="M16.0579 1.74466C15.3507 1.33103 14.4968 1.33103 13.7896 1.73798L5.43694 6.50808C5.04999 6.72824 4.60967 6.84166 4.16936 6.84166H1.70758C0.453349 6.84166 -0.567383 7.86239 -0.567383 9.11663V15.7547C-0.567383 17.009 0.453349 18.0297 1.70758 18.0297H4.16936C4.61635 18.0297 5.04999 18.1431 5.43694 18.3633L13.7896 23.1334C14.1432 23.3335 14.5301 23.4336 14.9171 23.4336C15.3107 23.4336 15.7043 23.3269 16.0579 23.12C16.7651 22.7064 17.1921 21.9725 17.1921 21.152V3.71274C17.1921 2.89215 16.7718 2.15829 16.0579 1.74466ZM15.8578 21.1653C15.8578 21.5055 15.6843 21.8058 15.3908 21.9792C15.0972 22.146 14.7436 22.1527 14.4501 21.9792L6.09741 17.2091C5.51032 16.8755 4.84318 16.6954 4.16936 16.6954H1.70758C1.18721 16.6954 0.76691 16.2751 0.76691 15.7547V9.11663C0.76691 8.59625 1.18721 8.17595 1.70758 8.17595H4.16936C4.84318 8.17595 5.51032 7.99582 6.09741 7.66225L14.4501 2.89215C14.7436 2.72536 15.0972 2.72536 15.3908 2.89215C15.6843 3.06561 15.8578 3.36582 15.8578 3.70607V21.1653Z" fill="currentColor"/>
<path d="M22.4626 12.439L24.5441 10.3575C24.8042 10.0973 24.8042 9.67701 24.5441 9.41682C24.2839 9.15663 23.8636 9.15663 23.6034 9.41682L21.5219 11.4983L19.4404 9.41682C19.1802 9.15663 18.7599 9.15663 18.4997 9.41682C18.2395 9.67701 18.2395 10.0973 18.4997 10.3575L20.5812 12.439L18.4997 14.5205C18.2395 14.7807 18.2395 15.201 18.4997 15.4612C18.6331 15.5946 18.7999 15.6546 18.9734 15.6546C19.1468 15.6546 19.3136 15.5879 19.4471 15.4612L21.5286 13.3797L23.61 15.4612C23.7435 15.5946 23.9103 15.6546 24.0837 15.6546C24.2572 15.6546 24.424 15.5879 24.5574 15.4612C24.8176 15.201 24.8176 14.7807 24.5574 14.5205L22.4626 12.439Z" fill="currentColor"/>
</g>
<defs>
<clipPath id="clip0_88_3284">
<rect width="24" height="24" fill="white" transform="translate(0 0.104004)"/>
</clipPath>
</defs>
</svg>
