<svg width="24" height="24" viewBox="0 0 24 24" fill="none" xmlns="http://www.w3.org/2000/svg">
<path d="M22.5794 11.1881C22.9615 10.8175 23.0947 10.2675 22.9326 9.75794C22.7647 9.24843 22.3362 8.88945 21.8093 8.80839L16.0194 7.96885C15.9441 7.95727 15.8746 7.91095 15.8399 7.84147L13.2518 2.5958C13.0144 2.11523 12.5338 1.81995 12.0012 1.81995C11.4685 1.81995 10.9937 2.11523 10.7563 2.5958C10.7563 2.5958 10.7563 2.5958 10.7505 2.60159L10.3684 3.38323C10.2237 3.67272 10.3453 4.01433 10.629 4.15908C10.71 4.19961 10.7969 4.21698 10.8837 4.21698C11.0979 4.21698 11.3006 4.10118 11.4048 3.89274L11.4222 3.85221V18.9466C11.399 18.9581 11.3759 18.9581 11.3527 18.9697L10.5826 19.375C10.2989 19.5256 10.1889 19.8729 10.3395 20.1567C10.4437 20.3535 10.6463 20.4635 10.8548 20.4635C10.9474 20.4635 11.04 20.4404 11.1211 20.3998L11.8912 19.9945C11.9606 19.9598 12.0417 19.9598 12.1112 19.9945L17.2874 22.7158C17.4958 22.8258 17.7158 22.8779 17.9359 22.8779C18.2253 22.8779 18.5091 22.7853 18.7522 22.6116C19.1865 22.2989 19.3949 21.7778 19.3081 21.251L18.318 15.4842C18.3064 15.4089 18.3296 15.3279 18.3875 15.2757L22.5794 11.1881ZM17.1832 15.681L18.1732 21.4478C18.1964 21.5752 18.1211 21.6447 18.0806 21.6794C18.0343 21.7141 17.9416 21.7547 17.8316 21.6968L12.6554 18.9755C12.6323 18.9639 12.6091 18.9581 12.586 18.9466V3.85221L14.8093 8.35099C15.0119 8.76207 15.4057 9.04578 15.8573 9.11526L21.6472 9.9548C21.7746 9.97217 21.8209 10.0648 21.8383 10.1169C21.8556 10.169 21.873 10.2675 21.7804 10.3601L17.5885 14.442C17.2526 14.7662 17.1021 15.2236 17.1832 15.681Z" fill="currentColor"/>
<path d="M5.46957 20.1335C5.50431 20.1393 5.53326 20.1393 5.568 20.1393C5.84591 20.1393 6.08909 19.9424 6.13541 19.6587L6.4249 17.9623C6.47701 17.6496 6.26858 17.3485 5.95013 17.2964C5.63169 17.2443 5.3364 17.4528 5.28429 17.7712L4.99479 19.4676C4.94268 19.7803 5.15112 20.0814 5.46957 20.1335Z" fill="currentColor"/>
<path d="M2.23326 10.3601C2.18694 10.3138 2.16377 10.2559 2.16377 10.198C2.16377 10.1285 2.19852 10.0532 2.25063 10.0127C2.49959 9.81007 2.53433 9.4453 2.32589 9.19633C2.12324 8.95316 1.75848 8.91263 1.50952 9.12106C1.18528 9.3874 1 9.78112 1 10.2038C1 10.5801 1.15054 10.9333 1.42266 11.1996L1.67163 11.4428C1.78164 11.5528 1.93218 11.6049 2.07693 11.6049C2.22747 11.6049 2.378 11.547 2.4938 11.4312C2.71961 11.1996 2.71382 10.8349 2.48222 10.6149L2.23326 10.3601Z" fill="currentColor"/>
<path d="M4.94835 13.0118L3.71509 11.8075C3.48928 11.5817 3.11872 11.5875 2.89871 11.8191C2.6729 12.0507 2.67869 12.4155 2.91029 12.6355L4.14354 13.8398C4.25355 13.9498 4.40409 14.0019 4.54884 14.0019C4.69938 14.0019 4.84992 13.944 4.96572 13.8282C5.17994 13.6024 5.17415 13.2318 4.94835 13.0118Z" fill="currentColor"/>
<path d="M3.54177 9.78108C3.57071 9.78108 3.59966 9.78108 3.62282 9.77529L5.32506 9.52632C5.64351 9.48 5.86353 9.18472 5.81721 8.87206C5.77089 8.55361 5.4756 8.33938 5.16295 8.37991L3.46071 8.62888C3.14226 8.6752 2.92224 8.97049 2.96856 9.28314C3.00909 9.57264 3.25806 9.78108 3.54177 9.78108Z" fill="currentColor"/>
<path d="M9.10021 7.25097C9.18127 7.2915 9.26811 7.30887 9.35496 7.30887C9.56919 7.30887 9.77184 7.19307 9.87606 6.98463L10.6403 5.43872C10.7851 5.14922 10.6635 4.80762 10.3798 4.66287C10.0903 4.52391 9.74868 4.63971 9.60393 4.92342L8.83966 6.46933C8.69491 6.76461 8.81072 7.11201 9.10021 7.25097Z" fill="currentColor"/>
<path d="M9.01355 8.6405C9.22199 8.39732 9.18725 8.03256 8.94407 7.82412C8.7009 7.61568 8.33613 7.65042 8.12769 7.8936C8.09295 7.93992 8.04084 7.96308 7.98294 7.97466L6.86549 8.13678C6.54705 8.1831 6.32702 8.47838 6.37334 8.79104C6.41387 9.08053 6.66284 9.28897 6.94655 9.28897C6.9755 9.28897 7.00445 9.28897 7.02761 9.28318L8.14506 9.12106C8.48667 9.06896 8.79353 8.89526 9.01355 8.6405Z" fill="currentColor"/>
<path d="M9.05999 20.1741L7.53723 20.9731C7.25353 21.1236 7.14352 21.471 7.29406 21.7547C7.39828 21.9516 7.60092 22.0616 7.80936 22.0616C7.902 22.0616 7.99464 22.0384 8.0757 21.9979L9.59846 21.1989C9.88216 21.0483 9.99217 20.7009 9.84163 20.4172C9.69109 20.1393 9.34369 20.0293 9.05999 20.1741Z" fill="currentColor"/>
<path d="M6.06585 21.7199C5.95584 21.7199 5.82847 21.6273 5.83426 21.442L5.85162 21.3552C5.90373 21.0425 5.6895 20.7414 5.37685 20.6893C5.0584 20.6314 4.76312 20.8514 4.71101 21.1641L4.69943 21.2509C4.68785 21.332 4.67627 21.4131 4.67627 21.4941C4.67627 22.2584 5.30158 22.8837 6.07164 22.8837H6.07743C6.19902 22.8837 6.32061 22.8663 6.4364 22.8316C6.74327 22.7447 6.8996 22.4321 6.81275 22.1252C6.72011 21.8126 6.37272 21.6389 6.06585 21.7199Z" fill="currentColor"/>
<path d="M6.18212 14.2103C5.95632 13.9903 5.58576 13.9903 5.36574 14.2219C5.14572 14.4535 5.14573 14.8183 5.37732 15.0383L5.6205 15.2699C5.66682 15.3162 5.68998 15.3741 5.68998 15.4783L5.59155 16.0689C5.53944 16.3816 5.74788 16.6826 6.06633 16.7348C6.10107 16.7405 6.13001 16.7405 6.16475 16.7405C6.44267 16.7405 6.68585 16.5437 6.73216 16.26L6.8306 15.6694C6.84218 15.5883 6.85376 15.5131 6.85376 15.432C6.85376 15.0557 6.69743 14.6967 6.43109 14.4362L6.18212 14.2103Z" fill="currentColor"/>
</svg>
