<svg width="24" height="24" viewBox="0 0 24 24" fill="none" xmlns="http://www.w3.org/2000/svg">
<path d="M17.9409 23C17.7209 23 17.4951 22.9456 17.2924 22.8306L12.1158 19.9876C12.0463 19.9513 11.9653 19.9513 11.8958 19.9876L6.71917 22.8306C6.24436 23.0907 5.68269 23.0484 5.24841 22.7217C4.81413 22.3951 4.60568 21.8507 4.69253 21.3002L5.68269 15.2755C5.69427 15.1969 5.67111 15.1122 5.6132 15.0577L1.42096 10.7872C1.0388 10.394 0.90562 9.82541 1.06775 9.2931C1.23567 8.76079 1.66416 8.38576 2.19109 8.30107L7.98147 7.42398C8.05675 7.41188 8.12623 7.36349 8.16097 7.2909L10.7493 1.81056C10.9867 1.3085 11.4615 1 12 1C12.5385 1 13.0133 1.3085 13.2507 1.81056L15.839 7.2909C15.8738 7.36349 15.9375 7.41188 16.0185 7.42398L21.8089 8.30107C22.3358 8.37971 22.7701 8.76079 22.9322 9.2931C23.0944 9.82541 22.9612 10.394 22.579 10.7872L18.3868 15.0517C18.3289 15.1061 18.3057 15.1908 18.3173 15.2695L19.3075 21.2942C19.4001 21.8447 19.1859 22.3891 18.7516 22.7157C18.5142 22.9093 18.2247 23 17.9409 23ZM12 2.20979C11.9479 2.20979 11.8437 2.22794 11.7858 2.34891L9.19745 7.82926C8.99479 8.25873 8.60104 8.55513 8.14939 8.62772L2.35901 9.50481C2.23162 9.52296 2.18529 9.61974 2.16792 9.67418C2.15055 9.72862 2.13318 9.83146 2.22583 9.92824L6.41807 14.1927C6.74812 14.5254 6.89867 15.0093 6.8176 15.4812L5.82745 21.5059C5.80429 21.639 5.87956 21.7116 5.92009 21.7479C5.96642 21.7842 6.05327 21.8265 6.16908 21.766L11.3457 18.923C11.751 18.6992 12.2374 18.6992 12.6427 18.923L17.8193 21.766C17.9351 21.8265 18.022 21.7781 18.0683 21.7479C18.1146 21.7116 18.1841 21.639 18.161 21.5059L17.1708 15.4812C17.0955 15.0093 17.2403 14.5254 17.5704 14.1927L21.7568 9.92824C21.8494 9.8375 21.8321 9.72862 21.8147 9.67418C21.7973 9.61974 21.751 9.52296 21.6236 9.50481L15.8332 8.62772C15.3758 8.56118 14.9878 8.25873 14.7852 7.82926L12.1969 2.34891C12.1563 2.22794 12.0521 2.20979 12 2.20979Z" fill="currentColor"/>
</svg>
