<svg width="24" height="24" viewBox="0 0 24 24" fill="none" xmlns="http://www.w3.org/2000/svg">
<path d="M5.20321 17.5381L4.91373 19.2171C4.86163 19.5297 5.07005 19.8308 5.38848 19.8829C5.42321 19.8887 5.45216 19.8887 5.4869 19.8887C5.76479 19.8887 6.00795 19.6918 6.05426 19.4081L6.34374 17.7292C6.39584 17.4166 6.18742 17.1155 5.869 17.0634C5.55637 17.0055 5.25531 17.2197 5.20321 17.5381Z" fill="currentColor"/>
<path d="M5.67762 14.7649L5.49235 15.8592C5.44024 16.1718 5.64867 16.4728 5.96709 16.5249C6.00183 16.5307 6.03077 16.5307 6.06551 16.5307C6.3434 16.5307 6.58656 16.3339 6.63287 16.0502L6.81814 14.956C6.82972 14.8749 6.8413 14.7997 6.8413 14.7186C6.8413 14.4581 6.76603 14.2034 6.63287 13.9834C6.46498 13.7113 6.10604 13.6302 5.83393 13.7981C5.56183 13.966 5.48077 14.3249 5.64867 14.597C5.67182 14.6376 5.6834 14.6781 5.67762 14.7649Z" fill="currentColor"/>
<path d="M2.23316 9.64126C2.18684 9.59494 2.16369 9.53705 2.16369 9.44442C2.20421 9.126 1.98421 8.83652 1.66579 8.79021C1.34737 8.74389 1.05789 8.96968 1.01158 9.2881C1.00579 9.35179 1 9.41547 1 9.47915C1 9.85547 1.15053 10.2086 1.42263 10.4749L2.09421 11.1349C2.20421 11.2449 2.35473 11.297 2.49947 11.297C2.65 11.297 2.80052 11.2392 2.91631 11.1234C3.1421 10.8918 3.13632 10.527 2.90474 10.307L2.23316 9.64126Z" fill="currentColor"/>
<path d="M2.91623 9.15494C2.94517 9.15494 2.97412 9.15494 2.99728 9.14915L4.68202 8.90599C5.00044 8.85967 5.22044 8.56441 5.17413 8.25178C5.12781 7.93336 4.83254 7.71915 4.51991 7.75967L2.83517 8.00283C2.51675 8.04915 2.29675 8.34441 2.34307 8.65704C2.38939 8.94652 2.63254 9.15494 2.91623 9.15494Z" fill="currentColor"/>
<path d="M19.3874 8.91175L21.0722 9.15491C21.1011 9.1607 21.13 9.1607 21.1532 9.1607C21.4369 9.1607 21.6858 8.95228 21.7264 8.6628C21.7727 8.34438 21.5527 8.05491 21.2343 8.00859L19.5495 7.76543C19.2311 7.71912 18.9416 7.93912 18.8953 8.25754C18.849 8.57017 19.069 8.86543 19.3874 8.91175Z" fill="currentColor"/>
<path d="M18.0904 13.8387C17.8067 13.694 17.4593 13.8098 17.3146 14.0934C17.2162 14.2845 17.1641 14.5045 17.1641 14.7245C17.1641 14.8055 17.1699 14.8808 17.1872 14.9619L17.3841 16.1255C17.4304 16.4092 17.6793 16.6061 17.9514 16.6061C17.9862 16.6061 18.0151 16.6061 18.0499 16.6003C18.3625 16.5482 18.5767 16.2471 18.5246 15.9345L18.322 14.7361C18.322 14.6955 18.3335 14.6608 18.3509 14.6261C18.4899 14.3308 18.3741 13.9834 18.0904 13.8387Z" fill="currentColor"/>
<path d="M5.354 13.4971C5.57979 13.2655 5.574 12.9007 5.34242 12.6807L4.12663 11.4939C3.90084 11.2739 3.53032 11.2739 3.31032 11.5055C3.08453 11.7371 3.09032 12.1018 3.3219 12.3218L4.53769 13.5086C4.64769 13.6186 4.79821 13.6707 4.94295 13.6707C5.08768 13.6707 5.23821 13.6128 5.354 13.4971Z" fill="currentColor"/>
<path d="M6.28537 8.66287C6.31432 8.66287 6.34327 8.66287 6.36642 8.65708L8.05115 8.41392C8.36957 8.36761 8.58958 8.07235 8.54326 7.75971C8.49695 7.44129 8.20747 7.22708 7.88905 7.26761L6.20432 7.51077C5.8859 7.55708 5.6659 7.85235 5.71221 8.16498C5.75274 8.45445 6.00169 8.66287 6.28537 8.66287Z" fill="currentColor"/>
<path d="M16.0178 8.42542L17.7025 8.66858C17.7315 8.67437 17.7604 8.67437 17.7836 8.67437C18.0673 8.67437 18.3162 8.46595 18.3567 8.17647C18.4031 7.85805 18.1831 7.56858 17.8646 7.52226L16.1799 7.27911C15.8615 7.23279 15.572 7.45279 15.5257 7.77121C15.4794 8.08384 15.6994 8.37911 16.0178 8.42542Z" fill="currentColor"/>
<path d="M17.6681 17.7987L17.9576 19.4777C18.0039 19.7614 18.2529 19.9582 18.525 19.9582C18.5597 19.9582 18.5887 19.9582 18.6234 19.9524C18.936 19.9003 19.1502 19.5992 19.0981 19.2866L18.8087 17.6077C18.7566 17.295 18.4555 17.0808 18.1429 17.1329C17.8244 17.185 17.616 17.4861 17.6681 17.7987Z" fill="currentColor"/>
<path d="M11.0682 3.85181L11.7977 2.37549C11.9656 2.10339 11.8845 1.74444 11.6124 1.57654C11.3403 1.40865 10.9814 1.4897 10.8135 1.76181C10.7903 1.79654 10.773 1.83128 10.7498 1.87181L10.0261 3.33654C9.88138 3.62602 10.003 3.97338 10.2866 4.11233C10.3677 4.15286 10.4545 4.17023 10.5414 4.17023C10.7614 4.17602 10.964 4.05444 11.0682 3.85181Z" fill="currentColor"/>
<path d="M14.4722 6.96657C14.5706 7.1692 14.779 7.29078 14.9932 7.29078C15.0801 7.29078 15.1669 7.27341 15.248 7.23288C15.5374 7.09394 15.6532 6.74657 15.5085 6.45709L14.7558 4.92867C14.6169 4.6392 14.2695 4.52341 13.9801 4.66815C13.6906 4.80709 13.5748 5.15446 13.7195 5.44394L14.4722 6.96657Z" fill="currentColor"/>
<path d="M18.9069 20.5139C18.6116 20.3981 18.2758 20.5486 18.16 20.8497C18.1137 20.9713 17.9574 21.0407 17.83 20.9713L17.5463 20.8207C17.2627 20.6702 16.9153 20.7802 16.7648 21.0639C16.6142 21.3476 16.7242 21.6949 17.0079 21.8455L17.2916 21.996C17.4942 22.1002 17.72 22.1581 17.94 22.1581C18.5132 22.1581 19.04 21.7992 19.2426 21.2607C19.3526 20.9655 19.2021 20.6297 18.9069 20.5139Z" fill="currentColor"/>
<path d="M16.035 20.0334L14.5297 19.2402C14.246 19.0897 13.8987 19.1997 13.7482 19.4834C13.5976 19.7671 13.7076 20.1144 13.9913 20.265L15.4966 21.0581C15.5834 21.1044 15.676 21.1218 15.7629 21.1218C15.9713 21.1218 16.1739 21.0118 16.2782 20.815C16.4287 20.5313 16.3187 20.1781 16.035 20.0334Z" fill="currentColor"/>
<path d="M19.8274 11.5345L18.6058 12.7213C18.3742 12.9471 18.3742 13.3119 18.5942 13.5376C18.71 13.6534 18.8606 13.7113 19.0111 13.7113C19.1558 13.7113 19.3006 13.6592 19.4163 13.5492L20.6379 12.3624C20.8695 12.1366 20.8695 11.7719 20.6495 11.5461C20.4237 11.3203 20.0532 11.3145 19.8274 11.5345Z" fill="currentColor"/>
<path d="M23.0002 9.40971C22.9886 9.09708 22.7223 8.88286 22.4096 8.87708C22.097 8.88286 21.8423 9.16076 21.8423 9.47918C21.8423 9.54286 21.8191 9.59497 21.767 9.64129L21.0433 10.3476C20.8117 10.5734 20.8117 10.9381 21.0317 11.1639C21.1475 11.2797 21.2981 11.3376 21.4486 11.3376C21.5933 11.3376 21.7381 11.2855 21.8539 11.1755L22.5775 10.4692C22.8496 10.2029 23.0002 9.84971 23.0002 9.49655C23.0002 9.48497 23.0002 9.42708 23.0002 9.40971Z" fill="currentColor"/>
<path d="M9.4121 19.275L7.90684 20.0682C7.62315 20.2187 7.51315 20.5661 7.66368 20.8497C7.76789 21.0466 7.97052 21.1566 8.17894 21.1566C8.27158 21.1566 8.36421 21.1334 8.44526 21.0929L9.95053 20.2997C10.2342 20.1492 10.3442 19.8019 10.1937 19.5182C10.0432 19.2345 9.69579 19.1245 9.4121 19.275Z" fill="currentColor"/>
<path d="M10.0487 4.60439C9.75921 4.46545 9.41762 4.58124 9.27288 4.86492L8.52026 6.39334C8.37552 6.68281 8.4971 7.02439 8.78078 7.16913C8.86184 7.20966 8.94868 7.22702 9.03552 7.22702C9.24973 7.22702 9.45236 7.11124 9.55657 6.90281L10.3092 5.37439C10.4539 5.09071 10.3382 4.74334 10.0487 4.60439Z" fill="currentColor"/>
<path d="M6.39566 20.8555L6.16986 20.9712C6.03091 21.0465 5.86882 20.9597 5.83408 20.8265C5.74724 20.5197 5.42302 20.3402 5.11618 20.427C4.80934 20.5139 4.62986 20.8323 4.71671 21.1449C4.8846 21.7412 5.4404 22.1581 6.05987 22.1581C6.27987 22.1581 6.50566 22.1002 6.70829 21.996L6.93408 21.8802C7.21776 21.7297 7.32776 21.3823 7.17723 21.0986C7.0325 20.8149 6.67934 20.7049 6.39566 20.8555Z" fill="currentColor"/>
<path d="M14.0029 3.40597L13.2502 1.87755C13.2444 1.86597 13.2213 1.81965 13.2155 1.81386C13.0592 1.54176 12.7292 1.4607 12.4513 1.60544C12.1734 1.75018 12.075 2.10913 12.2139 2.39281L12.9665 3.92123C13.065 4.12386 13.2734 4.24544 13.4876 4.24544C13.5744 4.24544 13.6613 4.22807 13.7423 4.18755C14.026 4.03702 14.1418 3.68965 14.0029 3.40597Z" fill="currentColor"/>
<path d="M13.0249 18.447L12.6486 18.2502C12.2492 18.0418 11.7513 18.0418 11.3518 18.2502L10.9176 18.4818C10.6339 18.6323 10.5239 18.9797 10.6744 19.2633C10.7786 19.4602 10.9813 19.5702 11.1897 19.5702C11.2823 19.5702 11.3749 19.547 11.456 19.5065L11.8902 19.2749C11.9597 19.2402 12.0407 19.2402 12.1102 19.2749L12.4807 19.4718C12.7644 19.6223 13.1118 19.5123 13.2623 19.2286C13.4128 18.9449 13.3028 18.5976 13.0249 18.447Z" fill="currentColor"/>
</svg>
