<svg width="24" height="24" viewBox="0 0 24 24" fill="none" xmlns="http://www.w3.org/2000/svg">
<path d="M17.9409 23C17.7209 23 17.4951 22.9456 17.2924 22.8306L12.1158 19.9876C12.0463 19.9513 11.9653 19.9513 11.8958 19.9876L6.71917 22.8306C6.24436 23.0907 5.68269 23.0484 5.24841 22.7217C4.81413 22.3951 4.60568 21.8507 4.69253 21.3002L5.68269 15.2755C5.69427 15.1969 5.67111 15.1122 5.6132 15.0577L1.42096 10.7872C1.0388 10.394 0.90562 9.82541 1.06775 9.2931C1.23567 8.76079 1.66416 8.38576 2.19109 8.30107L7.98147 7.42398C8.05675 7.41188 8.12623 7.36349 8.16097 7.2909L10.7493 1.81056C10.9867 1.3085 11.4615 1 12 1C12.5385 1 13.0133 1.3085 13.2507 1.81056L15.839 7.2909C15.8738 7.36349 15.9375 7.41188 16.0185 7.42398L21.8089 8.30107C22.3358 8.37971 22.7701 8.76079 22.9322 9.2931C23.0944 9.82541 22.9612 10.394 22.579 10.7872L18.3868 15.0517C18.3289 15.1061 18.3057 15.1908 18.3173 15.2695L19.3075 21.2942C19.4001 21.8447 19.1859 22.3891 18.7516 22.7157C18.5142 22.9093 18.2247 23 17.9409 23Z" fill="currentColor"/>
</svg>
