<svg width="24" height="25" viewBox="0 0 24 25" fill="none" xmlns="http://www.w3.org/2000/svg">
<path d="M2.59152 11.74C2.67261 11.74 2.7537 11.7226 2.83479 11.6878L19.4295 4.04212L18.5896 6.41692C18.4853 6.71811 18.6417 7.04827 18.9429 7.15832C19.0066 7.18149 19.0703 7.19307 19.1341 7.19307C19.3715 7.19307 19.5974 7.04248 19.6785 6.805L20.976 3.13853C21.0223 3.00531 21.0107 2.84892 20.9586 2.72149C20.8949 2.57669 20.779 2.46084 20.6284 2.40292L16.9388 1.03596C16.6376 0.925909 16.3075 1.07651 16.1916 1.3777C16.0816 1.6789 16.2322 2.00905 16.5334 2.1249L18.9139 3.0111L2.33666 10.6452C2.04705 10.7784 1.91962 11.126 2.05284 11.4156C2.16289 11.6183 2.37141 11.74 2.59152 11.74Z" fill="currentColor"/>
<path d="M20.4605 8.43835H14.5003C14.1817 8.43835 13.9211 8.699 13.9211 9.01757V11.8847H8.54013C8.22156 11.8847 7.96091 12.1454 7.96091 12.4639V15.8871H2.57995C2.26138 15.8871 2.00073 16.1478 2.00073 16.4663V19.5304C2.00073 21.4419 3.55883 23 5.47026 23H8.53434H14.4945H20.4547C20.7733 23 21.0339 22.7393 21.0339 22.4207V9.01757C21.0397 8.699 20.7791 8.43835 20.4605 8.43835ZM3.16496 19.5304V17.0456H7.9667V21.8473H5.48184C4.20756 21.8415 3.16496 20.8047 3.16496 19.5304ZM9.12515 16.4663V13.0432H13.9269V21.8415H9.12515V16.4663ZM19.8813 21.8415H15.0795V12.4639V9.5968H19.8813V21.8415Z" fill="currentColor"/>
</svg>
