<svg width="24" height="25" viewBox="0 0 24 25" fill="none" xmlns="http://www.w3.org/2000/svg">
<path d="M2.347 2.09923L18.8942 9.71948L16.5179 10.6041C16.2173 10.7139 16.0669 11.0493 16.1768 11.3499C16.2635 11.5812 16.4832 11.7257 16.7203 11.7257C16.7896 11.7257 16.8532 11.7142 16.9226 11.691C16.9226 11.691 20.6055 10.3266 20.6055 10.3208C20.7327 10.2745 20.8484 10.1647 20.912 10.0433C20.9814 9.91028 20.9987 9.73105 20.9467 9.5865L19.6458 5.9267C19.5417 5.62605 19.2064 5.46995 18.9057 5.57402C18.6051 5.67809 18.449 6.01343 18.5531 6.31407L19.3914 8.68456L2.82688 1.05275C2.5378 0.919769 2.1909 1.04697 2.05792 1.33605C1.93072 1.61935 2.05792 1.96625 2.347 2.09923Z" fill="currentColor"/>
<path d="M20.4262 15.9001H15.055V12.4831C15.055 12.1651 14.7949 11.9049 14.4769 11.9049H9.10568V9.04301C9.10568 8.72502 8.8455 8.46484 8.52751 8.46484H2.57817C2.26018 8.46484 2 8.72502 2 9.04301V19.5252C2 21.4389 3.56105 23 5.47479 23H8.52751H14.4769H20.4262C20.7442 23 21.0044 22.7398 21.0044 22.4218V16.4783C21.0044 16.1603 20.7442 15.9001 20.4262 15.9001ZM3.1679 19.531V9.62118H7.96091V12.4831V21.8436H5.48635C4.20282 21.8436 3.1679 20.8087 3.1679 19.531ZM9.11147 13.0613H13.9045V16.4783V21.8494H9.11147V13.0613ZM19.848 21.8436H15.055V17.0506H19.848V21.8436Z" fill="currentColor"/>
</svg>
