<svg width="24" height="24" viewBox="0 0 24 24" fill="none" xmlns="http://www.w3.org/2000/svg">
<path d="M11.8803 5.43909C8.29902 5.43909 5.37988 8.35246 5.37988 11.9395C5.37988 15.5265 8.29326 18.4399 11.8803 18.4399C15.4615 18.4399 18.3807 15.5265 18.3807 11.9395C18.3807 8.35246 15.4615 5.43909 11.8803 5.43909ZM11.8803 17.2883C8.93236 17.2883 6.53141 14.8874 6.53141 11.9395C6.53141 8.99156 8.93236 6.59062 11.8803 6.59062C14.8282 6.59062 17.2291 8.99156 17.2291 11.9395C17.2234 14.8874 14.8282 17.2883 11.8803 17.2883Z" fill="currentColor"/>
<path d="M11.8805 4.69066C12.1971 4.69066 12.4562 4.43156 12.4562 4.11489V1.57577C12.4562 1.25909 12.1971 1 11.8805 1C11.5638 1 11.3047 1.25909 11.3047 1.57577V4.11489C11.3047 4.43156 11.5638 4.69066 11.8805 4.69066Z" fill="currentColor"/>
<path d="M11.8805 19.1885C11.5638 19.1885 11.3047 19.4476 11.3047 19.7642V22.3034C11.3047 22.62 11.5638 22.8791 11.8805 22.8791C12.1971 22.8791 12.4562 22.62 12.4562 22.3034V19.7642C12.4562 19.4476 12.1971 19.1885 11.8805 19.1885Z" fill="currentColor"/>
<path d="M4.63109 11.9395C4.63109 11.6229 4.37199 11.3638 4.05532 11.3638H1.5162C1.19952 11.3638 0.94043 11.6229 0.94043 11.9395C0.94043 12.2562 1.19952 12.5153 1.5162 12.5153H4.05532C4.37199 12.5153 4.63109 12.2562 4.63109 11.9395Z" fill="currentColor"/>
<path d="M22.3649 11.3638H19.8258C19.5091 11.3638 19.25 11.6229 19.25 11.9395C19.25 12.2562 19.5091 12.5153 19.8258 12.5153H22.3649C22.6816 12.5153 22.9407 12.2562 22.9407 11.9395C22.9407 11.6229 22.6816 11.3638 22.3649 11.3638Z" fill="currentColor"/>
<path d="M17.4132 6.98218C17.5629 6.98218 17.7069 6.9246 17.822 6.8152L19.6184 5.01882C19.843 4.79427 19.843 4.43153 19.6184 4.20699C19.3939 3.98244 19.0311 3.98244 18.8066 4.20699L17.0102 6.00337C16.7857 6.22792 16.7857 6.59066 17.0102 6.8152C17.1196 6.9246 17.2635 6.98218 17.4132 6.98218Z" fill="currentColor"/>
<path d="M5.93843 17.0639L4.14204 18.8603C3.9175 19.0849 3.9175 19.4476 4.14204 19.6721C4.2572 19.7873 4.40114 19.8391 4.55084 19.8391C4.70054 19.8391 4.84448 19.7815 4.95963 19.6721L6.75602 17.8757C6.98056 17.6512 6.98056 17.2885 6.75602 17.0639C6.53147 16.8394 6.16298 16.8394 5.93843 17.0639Z" fill="currentColor"/>
<path d="M17.822 17.0639C17.5975 16.8394 17.2348 16.8394 17.0102 17.0639C16.7857 17.2885 16.7857 17.6512 17.0102 17.8757L18.8066 19.6721C18.9217 19.7873 19.0657 19.8391 19.2154 19.8391C19.3651 19.8391 19.509 19.7815 19.6242 19.6721C19.8487 19.4476 19.8487 19.0849 19.6242 18.8603L17.822 17.0639Z" fill="currentColor"/>
<path d="M5.93755 6.8152C6.05271 6.93036 6.19665 6.98218 6.34635 6.98218C6.49605 6.98218 6.63999 6.9246 6.75514 6.8152C6.97969 6.59066 6.97969 6.22792 6.75514 6.00337L4.95875 4.20699C4.73421 3.98244 4.37148 3.98244 4.14693 4.20699C3.92238 4.43153 3.92238 4.79427 4.14693 5.01882L5.93755 6.8152Z" fill="currentColor"/>
</svg>
