<svg width="24" height="25" viewBox="0 0 24 25" fill="none" xmlns="http://www.w3.org/2000/svg">
<path d="M11.9998 1.18994C11.6814 1.18994 11.4209 1.45054 11.4209 1.76904V6.2339C11.4209 6.5524 11.6814 6.813 11.9998 6.813C12.3183 6.813 12.5788 6.5524 12.5788 6.2339V1.76904C12.5788 1.44475 12.3183 1.18994 11.9998 1.18994Z" fill="currentColor"/>
<path d="M11.9998 17.5668C11.6814 17.5668 11.4209 17.8274 11.4209 18.1459V22.6107C11.4209 22.9292 11.6814 23.1898 11.9998 23.1898C12.3183 23.1898 12.5788 22.9292 12.5788 22.6107V18.1459C12.5788 17.8274 12.3183 17.5668 11.9998 17.5668Z" fill="currentColor"/>
<path d="M22.4215 11.6138H17.9579C17.6394 11.6138 17.3789 11.8743 17.3789 12.1927C17.3789 12.5111 17.6394 12.7717 17.9579 12.7717H22.4215C22.74 12.7717 23.0005 12.5111 23.0005 12.1927C23.0005 11.8743 22.74 11.6138 22.4215 11.6138Z" fill="currentColor"/>
<path d="M6.62158 12.1927C6.62158 11.8743 6.36105 11.6138 6.04263 11.6138H1.57895C1.26053 11.6138 1 11.8743 1 12.1927C1 12.5111 1.26053 12.7717 1.57895 12.7717H6.04263C6.36684 12.7717 6.62158 12.5111 6.62158 12.1927Z" fill="currentColor"/>
<path d="M16.2084 8.5561C16.3589 8.5561 16.5037 8.49819 16.6194 8.38816L19.7805 5.22628C20.0063 5.00043 20.0063 4.63559 19.7805 4.40974C19.5547 4.18389 19.19 4.18389 18.9642 4.40974L15.8031 7.57163C15.5773 7.79748 15.5773 8.16231 15.8031 8.38816C15.9131 8.50398 16.0637 8.5561 16.2084 8.5561Z" fill="currentColor"/>
<path d="M7.3802 15.9919L4.21915 19.1538C3.99336 19.3796 3.99336 19.7445 4.21915 19.9703C4.33494 20.0861 4.47967 20.1383 4.6302 20.1383C4.78073 20.1383 4.92546 20.0803 5.04125 19.9703L8.2023 16.8084C8.42809 16.5826 8.42809 16.2177 8.2023 15.9919C7.97652 15.766 7.60599 15.766 7.3802 15.9919Z" fill="currentColor"/>
<path d="M16.6194 15.9919C16.3937 15.766 16.0289 15.766 15.8031 15.9919C15.5773 16.2177 15.5773 16.5826 15.8031 16.8084L18.9642 19.9703C19.08 20.0861 19.2247 20.1383 19.3752 20.1383C19.5258 20.1383 19.6705 20.0803 19.7863 19.9703C20.0121 19.7445 20.0121 19.3796 19.7863 19.1538L16.6194 15.9919Z" fill="currentColor"/>
<path d="M5.04132 4.40974C4.81553 4.18389 4.4508 4.18389 4.22501 4.40974C3.99922 4.63559 3.99922 5.00043 4.22501 5.22628L7.38606 8.38816C7.50185 8.50398 7.64658 8.5561 7.79711 8.5561C7.94764 8.5561 8.09237 8.49819 8.20816 8.38816C8.43395 8.16231 8.43395 7.79748 8.20816 7.57163L5.04132 4.40974Z" fill="currentColor"/>
</svg>
