<svg width="24" height="24" viewBox="0 0 24 24" fill="none" xmlns="http://www.w3.org/2000/svg">
<path d="M17.9547 22.5963H8.95891C7.03123 22.5963 5.46825 21.0275 5.46825 19.1056V11.0475L3.32639 12.1185C3.17588 12.1937 3.00221 12.1995 2.84591 12.1358C2.68962 12.0722 2.57384 11.9448 2.51595 11.7827L1.02822 7.31954C0.935602 7.04746 1.06296 6.74644 1.31766 6.61909L7.27436 3.64363C7.35541 3.60311 7.44224 3.57996 7.53486 3.57996H9.28309C9.51464 3.57996 9.71725 3.7131 9.80987 3.92729C10.1919 4.79561 11.0545 5.35713 11.998 5.35713C12.9416 5.35713 13.8042 4.79561 14.1862 3.92729C14.2788 3.71889 14.4872 3.57996 14.713 3.57996H16.4612C16.5539 3.57996 16.6407 3.60311 16.7217 3.64363L22.6784 6.61909C22.9331 6.74644 23.0605 7.04746 22.9679 7.31954L21.4801 11.7827C21.428 11.939 21.3065 12.0722 21.1502 12.1358C20.9939 12.1995 20.8202 12.1937 20.6697 12.1185L18.5278 11.0475V22.0174C18.5336 22.3358 18.2731 22.5963 17.9547 22.5963ZM6.04713 9.53087C6.15133 9.53087 6.26132 9.55981 6.35394 9.6177C6.52182 9.7219 6.62602 9.90714 6.62602 10.1098V19.1056C6.62602 20.3907 7.67379 21.4385 8.95891 21.4385H17.3759V10.1098C17.3759 9.90714 17.4801 9.7219 17.6479 9.6177C17.8216 9.5135 18.03 9.50193 18.2095 9.59455L20.5887 10.787L21.7059 7.42953L16.3223 4.73772H15.0661C14.4351 5.82602 13.2658 6.51489 11.9923 6.51489C10.7187 6.51489 9.54937 5.83181 8.91839 4.73772H7.66221L2.27861 7.42953L3.39585 10.787L5.77506 9.59455C5.86768 9.54824 5.95451 9.53087 6.04713 9.53087Z" fill="currentColor"/>
</svg>
