<svg width="24" height="24" viewBox="0 0 24 24" fill="none" xmlns="http://www.w3.org/2000/svg">
<path d="M21.8647 22.1745L21.2528 20.8179C20.4331 19.0052 20.0579 17.3081 20.1387 15.7667C20.156 15.4204 20.1156 15.074 20.0117 14.7334L18.7705 10.6636C18.505 9.79769 17.6218 9.29546 16.802 9.54946C16.4557 9.65337 16.1843 9.87851 15.9938 10.1671C15.6706 10.0401 15.2953 10.0113 14.9259 10.1267C14.568 10.2364 14.2793 10.4558 14.0831 10.7271C13.9156 10.6636 13.7367 10.6347 13.5462 10.629V1.57728C13.5462 1.25977 13.2864 1 12.9689 1H2.94739C2.62989 1 2.37012 1.25977 2.37012 1.57728V17.4639C2.37012 18.6877 3.3688 19.6807 4.59263 19.6807H11.9875C12.6918 20.1252 13.194 20.6447 13.4711 21.2335L14.1408 22.6594C14.2389 22.8672 14.4467 22.9942 14.6661 22.9942C14.7469 22.9942 14.8335 22.9769 14.9086 22.9423C15.1972 22.8095 15.3184 22.4631 15.1856 22.1745L14.516 20.7486C14.1119 19.8885 13.3961 19.1553 12.3859 18.5665L9.45907 16.8347C9.22816 16.7019 9.13002 16.3844 9.24548 16.142C9.29166 16.0438 9.37248 15.9745 9.46484 15.9457C9.55721 15.9168 9.66689 15.9284 9.75925 15.9861L11.4218 16.9617C11.6065 17.0714 11.8663 17.0541 12.0395 16.9328C12.2358 16.8001 12.3339 16.5345 12.2646 16.292L10.3019 9.84965C10.2615 9.71687 10.2673 9.57833 10.325 9.46287C10.3538 9.40514 10.4173 9.30123 10.5443 9.26082C10.6713 9.22041 10.781 9.27237 10.8388 9.30123C10.9484 9.36473 11.035 9.47442 11.0754 9.60719C11.0754 9.60719 11.9644 12.5167 11.9644 12.5224L12.3339 13.7405C12.4089 13.9887 12.6399 14.1504 12.8881 14.1504C12.9458 14.1504 12.9978 14.1446 13.0555 14.1273C13.3615 14.0349 13.5346 13.7116 13.4423 13.4057L13.0728 12.1876C13.0324 12.0606 13.1479 11.8701 13.3788 11.8008C13.6097 11.7316 13.8117 11.8239 13.8464 11.9567L14.2158 13.1748C14.3024 13.4634 14.6488 13.6481 14.9374 13.5558C15.2434 13.4634 15.4166 13.1401 15.3184 12.8342L14.949 11.6161C14.9086 11.4891 15.024 11.2986 15.2549 11.2293C15.4858 11.1601 15.6879 11.2524 15.7225 11.3852L16.092 12.6033C16.1843 12.9092 16.5018 13.0824 16.8136 12.99C17.1195 12.8977 17.2927 12.5744 17.2003 12.2684L16.9406 11.4141L16.8886 11.2467C16.8078 10.9869 16.9175 10.7271 17.1311 10.6636C17.3447 10.6001 17.5813 10.756 17.6622 11.01L18.9033 15.0798C18.9668 15.2876 18.9957 15.5012 18.9841 15.7148C18.8975 17.4408 19.3074 19.3227 20.2022 21.3028L20.8141 22.6594C20.9122 22.873 21.1201 23 21.3394 23C21.4202 23 21.5011 22.9827 21.5761 22.948C21.8705 22.8095 21.9975 22.4689 21.8647 22.1745ZM10.0594 18.5261H4.59263C4.00381 18.5261 3.52467 18.047 3.52467 17.4639V17.2215H8.27565C8.4142 17.4639 8.61624 17.6775 8.87024 17.8276L10.0594 18.5261ZM11.4334 8.30832C11.0581 8.08895 10.6252 8.037 10.2211 8.15823C9.81121 8.27945 9.48793 8.56809 9.29743 8.96064C9.1127 9.33587 9.08384 9.7746 9.21084 10.1845L10.7464 15.2125L10.3538 14.9816C9.97862 14.7623 9.54566 14.7103 9.14157 14.8315C8.7317 14.9528 8.40265 15.2414 8.21792 15.634C8.14865 15.7725 8.11401 15.9168 8.08515 16.0611H3.53621V2.15455H12.3974V9.93046L12.1954 9.27237C12.0626 8.8625 11.7913 8.51614 11.4334 8.30832Z" fill="currentColor"/>
<path d="M9.21038 2.54138H6.56067C6.24317 2.54138 5.9834 2.80116 5.9834 3.11866C5.9834 3.43616 6.24317 3.69593 6.56067 3.69593H9.21038C9.52788 3.69593 9.78765 3.43616 9.78765 3.11866C9.78765 2.80116 9.52788 2.54138 9.21038 2.54138Z" fill="currentColor"/>
<path d="M7.95766 18.3299C8.22228 18.3299 8.43679 18.1153 8.43679 17.8507C8.43679 17.5861 8.22228 17.3716 7.95766 17.3716C7.69303 17.3716 7.47852 17.5861 7.47852 17.8507C7.47852 18.1153 7.69303 18.3299 7.95766 18.3299Z" fill="currentColor"/>
</svg>
