<svg width="24" height="25" viewBox="0 0 24 25" fill="none" xmlns="http://www.w3.org/2000/svg">
<path d="M13.782 4.56893C11.4514 4.56893 9.32416 5.44632 7.69677 6.88153L6.63316 5.81239L6.87146 4.15638C6.89471 3.97625 6.83659 3.79031 6.70872 3.66248L4.20952 1.16976C4.0526 1.01287 3.82592 0.960576 3.61669 1.0303C3.40745 1.10003 3.25634 1.28016 3.22147 1.50096L3.00642 3.0117L1.50109 3.22088C1.28023 3.25574 1.10006 3.40682 1.03031 3.616C0.960565 3.82518 1.01287 4.05179 1.1698 4.20867L3.66319 6.7014C3.77362 6.8118 3.92473 6.86991 4.07584 6.86991C4.1049 6.86991 4.12815 6.86991 4.15721 6.8641L5.80785 6.62586L6.87727 7.69501C5.44168 9.32196 4.56406 11.4486 4.56406 13.7845C4.56406 18.8687 8.69645 23 13.782 23C18.8676 23 23 18.8629 23 13.7845C23 8.70604 18.8676 4.56893 13.782 4.56893ZM2.81462 4.20867L3.60506 4.09827C3.8608 4.06341 4.06422 3.86004 4.09909 3.60438L4.20952 2.81414L5.67417 4.2784L5.4998 5.49862L4.27927 5.67293L2.81462 4.20867ZM13.782 21.8379C9.3416 21.8379 5.72648 18.2237 5.72648 13.7845C5.72648 11.774 6.47042 9.93788 7.69677 8.5201L8.9115 9.73451C7.99319 10.8327 7.44104 12.2447 7.44104 13.7845C7.44104 17.2824 10.2832 20.1238 13.782 20.1238C17.2809 20.1238 20.123 17.2766 20.123 13.7845C20.123 10.2923 17.2809 7.44515 13.782 7.44515C12.2418 7.44515 10.8295 7.99715 9.731 8.91522L8.51628 7.70082C9.92862 6.47479 11.7652 5.73104 13.782 5.73104C18.2225 5.73104 21.8376 9.3452 21.8376 13.7845C21.8376 18.2237 18.2225 21.8379 13.782 21.8379ZM11.1724 11.9948C10.8237 12.5061 10.6144 13.1163 10.6144 13.7845C10.6144 15.5276 12.0326 16.9454 13.7762 16.9454C15.5198 16.9454 16.9496 15.5276 16.9496 13.7845C16.9496 12.0413 15.5315 10.6235 13.7878 10.6235C13.1253 10.6235 12.5092 10.8269 11.9977 11.1813L10.5621 9.74613C11.4456 9.03724 12.5673 8.61307 13.7878 8.61307C16.6416 8.61307 18.9664 10.9373 18.9664 13.7903C18.9664 16.6433 16.6416 18.9675 13.7878 18.9675C10.9341 18.9675 8.60927 16.6433 8.60927 13.7903C8.60927 12.5701 9.03355 11.4544 9.74263 10.5654L11.1724 11.9948ZM13.3694 14.1912C13.4856 14.3074 13.6309 14.3597 13.782 14.3597C13.9331 14.3597 14.0784 14.3016 14.1947 14.1912C14.4214 13.9646 14.4214 13.5985 14.1947 13.3719L12.8463 12.0239C13.1253 11.8728 13.4449 11.7798 13.782 11.7798C14.8863 11.7798 15.7814 12.6805 15.7814 13.7787C15.7814 14.8768 14.8805 15.7775 13.782 15.7775C12.6835 15.7775 11.7827 14.8885 11.7827 13.7845C11.7827 13.4416 11.8757 13.1279 12.0268 12.849L13.3694 14.1912Z" fill="currentColor"/>
</svg>
