<svg width="24" height="24" viewBox="0 0 24 24" fill="none" xmlns="http://www.w3.org/2000/svg">
<path d="M19.9552 9.59765L21.743 7.90523L17.5596 3.47751L11.2666 9.42484H8.90081L16.4393 2.29758L16.2307 2.07113C14.9316 0.700499 12.7684 0.634948 11.3918 1.93406L3.47193 9.42484H2.59592C2.26817 9.42484 2 9.693 2 10.0208V19.4125C2 21.391 3.609 23 5.58747 23H21.8562C22.184 23 22.4521 22.7318 22.4521 22.4041V13.0123C22.4521 11.4152 21.4033 10.0625 19.9552 9.59765ZM21.2245 12.6428H3.19781V10.6167H18.8706C20.0565 10.6167 21.0457 11.4987 21.2245 12.6428ZM21.2603 21.8081H5.58747C4.26452 21.8081 3.19185 20.7355 3.19185 19.4125V14.4008H21.2603V21.8081Z" fill="currentColor"/>
<path d="M5.00315 19.3946H8.63234C8.9601 19.3946 9.22826 19.1265 9.22826 18.7987V16.4806C9.22826 16.1528 8.9601 15.8846 8.63234 15.8846H5.00315C4.67539 15.8846 4.40723 16.1528 4.40723 16.4806V18.7987C4.40723 19.1324 4.67539 19.3946 5.00315 19.3946ZM5.59908 17.0825H8.03641V18.2087H5.59908V17.0825Z" fill="currentColor"/>
<path d="M10.7717 17.0825H15.6464C15.9741 17.0825 16.2423 16.8144 16.2423 16.4866C16.2423 16.1589 15.9741 15.8907 15.6464 15.8907H10.7717C10.4439 15.8907 10.1758 16.1589 10.1758 16.4866C10.1758 16.8144 10.4439 17.0825 10.7717 17.0825Z" fill="currentColor"/>
<path d="M17.6907 17.0825H19.2937C19.6214 17.0825 19.8896 16.8144 19.8896 16.4866C19.8896 16.1589 19.6214 15.8907 19.2937 15.8907H17.6907C17.3629 15.8907 17.0947 16.1589 17.0947 16.4866C17.0947 16.8144 17.3629 17.0825 17.6907 17.0825Z" fill="currentColor"/>
</svg>
