<svg width="24" height="24" viewBox="0 0 24 24" fill="none" xmlns="http://www.w3.org/2000/svg">
<rect x="4" y="19" width="16" height="2" fill="#686868"/>
<path d="M19.724 5.58674L16.397 2.27452C16.2214 2.09972 15.9837 2.00106 15.7355 2.00001C15.4874 1.99896 15.2488 2.09559 15.0718 2.26889L6.91383 10.2687C6.78625 10.3937 6.69712 10.5524 6.65689 10.7262L5.69315 14.8859L4 17H6.6616L7.7364 15.9416L11.1133 15.1653C11.2827 15.1259 11.438 15.0406 11.5622 14.9197L19.7192 6.91801C19.8078 6.83116 19.8782 6.72772 19.9263 6.61364C19.9745 6.49957 19.9996 6.37711 20 6.25335C20.0004 6.12959 19.9763 6.00696 19.9289 5.89255C19.8815 5.77814 19.8119 5.6742 19.724 5.58674ZM10.9062 12.9303L8.91003 10.9427L15.7268 4.25735L17.7221 6.24487L10.9062 12.9303Z" fill="#686868"/>
</svg>
