<svg width="24" height="24" viewBox="0 0 24 24" fill="none" xmlns="http://www.w3.org/2000/svg">
<path d="M13.0887 3C13.3668 3 13.6449 3.10535 13.8579 3.32045L21.6806 11.2219C22.1065 11.6521 22.1065 12.3457 21.6806 12.7759L13.8579 20.6774C13.432 21.1075 12.7453 21.1075 12.3194 20.6774C11.8935 20.2472 11.8935 19.5536 12.3194 19.1234L19.3729 11.9989L12.3194 4.8744C11.8935 4.44421 11.8935 3.75064 12.3194 3.32045C12.5324 3.10535 12.8105 3 13.0887 3Z" fill="currentColor"/>
<path d="M3.08866 3C3.3668 3 3.64494 3.10535 3.85789 3.32045L11.6806 11.2219C12.1065 11.6521 12.1065 12.3457 11.6806 12.7759L3.85789 20.6774C3.43198 21.1075 2.74533 21.1075 2.31942 20.6774C1.89352 20.2472 1.89352 19.5536 2.31942 19.1234L9.37288 11.9989L2.31943 4.8744C1.89352 4.44421 1.89352 3.75064 2.31943 3.32045C2.53238 3.10535 2.81052 3 3.08866 3Z" fill="currentColor"/>
</svg>
