<svg width="24" height="24" viewBox="0 0 24 24" fill="none" xmlns="http://www.w3.org/2000/svg">
<path d="M10.9113 21C10.6332 21 10.3551 20.8947 10.1421 20.6796L2.31942 12.7781C1.89352 12.3479 1.89352 11.6543 2.31942 11.2241L10.1421 3.32265C10.568 2.89245 11.2547 2.89245 11.6806 3.32265C12.1065 3.75284 12.1065 4.44641 11.6806 4.8766L4.62712 12.0011L11.6806 19.1256C12.1065 19.5558 12.1065 20.2494 11.6806 20.6796C11.4676 20.8947 11.1895 21 10.9113 21Z" fill="currentColor"/>
<path d="M20.9113 21C20.6332 21 20.3551 20.8947 20.1421 20.6796L12.3194 12.7781C11.8935 12.3479 11.8935 11.6543 12.3194 11.2241L20.1421 3.32265C20.568 2.89245 21.2547 2.89245 21.6806 3.32265C22.1065 3.75284 22.1065 4.44641 21.6806 4.8766L14.6271 12.0011L21.6806 19.1256C22.1065 19.5558 22.1065 20.2494 21.6806 20.6796C21.4676 20.8947 21.1895 21 20.9113 21Z" fill="currentColor"/>
</svg>
