<svg width="22" height="23" viewBox="0 0 22 23" fill="none" xmlns="http://www.w3.org/2000/svg">
<path d="M20.6584 9.76254H12.3413V1.44547C12.3413 0.704979 11.7403 0.104004 10.9998 0.104004C10.2593 0.104004 9.65835 0.704979 9.65835 1.44547V9.76254H1.34128C0.600792 9.76254 -0.000183105 10.3635 -0.000183105 11.104C-0.000183105 11.8445 0.600792 12.4455 1.34128 12.4455H9.65835V20.7625C9.65835 21.503 10.2593 22.104 10.9998 22.104C11.7403 22.104 12.3413 21.503 12.3413 20.7625V12.4455H20.6584C21.3988 12.4455 21.9998 11.8445 21.9998 11.104C21.9998 10.3635 21.3988 9.76254 20.6584 9.76254Z" fill="currentColor"/>
</svg>
