<svg width="24" height="24" viewBox="0 0 24 24" fill="none" xmlns="http://www.w3.org/2000/svg">
<path d="M2.49637 3C2.62641 3 2.75144 3.04738 2.85146 3.1374L11.8537 11.6654C12.0488 11.8502 12.0488 12.1486 11.8537 12.3334L2.85146 20.8614C2.65641 21.0462 2.34133 21.0462 2.14629 20.8614C1.95124 20.6766 1.95124 20.3782 2.14629 20.1934L10.7934 12.0018L2.14629 3.81016C1.95124 3.62539 1.95124 3.32691 2.14629 3.14213C2.24131 3.04738 2.36634 3 2.49637 3Z" fill="currentColor"/>
<path d="M12.4964 3C12.6264 3 12.7514 3.04738 12.8515 3.1374L21.8537 11.6654C22.0488 11.8502 22.0488 12.1486 21.8537 12.3334L12.8515 20.8614C12.6564 21.0462 12.3413 21.0462 12.1463 20.8614C11.9512 20.6766 11.9512 20.3782 12.1463 20.1934L20.7934 12.0018L12.1463 3.81016C11.9512 3.62539 11.9512 3.32691 12.1463 3.14213C12.2413 3.04738 12.3663 3 12.4964 3Z" fill="currentColor"/>
</svg>
