<svg width="20" height="20" viewBox="0 0 20 20" fill="none" xmlns="http://www.w3.org/2000/svg">
<path d="M12.2974 10L19.5151 2.7823C20.1529 2.14448 20.1529 1.11617 19.5151 0.47836C18.8773 -0.159453 17.849 -0.159453 17.2112 0.47836L9.99349 7.69606L2.7823 0.47836C2.14448 -0.152945 1.11617 -0.152945 0.47836 0.47836C-0.152945 1.11617 -0.152945 2.14448 0.47836 2.7823L7.69606 10L0.47836 17.2177C-0.159453 17.8555 -0.159453 18.8838 0.47836 19.5216C0.797266 19.8405 1.2138 19.9967 1.63033 19.9967C2.04686 19.9967 2.46339 19.8405 2.7823 19.5216L10 12.3039L17.2177 19.5216C17.5366 19.8405 17.9531 19.9967 18.3697 19.9967C18.7862 19.9967 19.2027 19.8405 19.5216 19.5216C20.1595 18.8838 20.1595 17.8555 19.5216 17.2177L12.3039 10H12.2974Z" fill="currentColor"/>
</svg>
