<svg width="24" height="24" viewBox="0 0 24 24" fill="none" xmlns="http://www.w3.org/2000/svg">
<path d="M11.5036 21C11.3736 21 11.2486 20.9526 11.1485 20.8626L2.14629 12.3346C1.95124 12.1498 1.95124 11.8514 2.14629 11.6666L11.1485 3.13858C11.3436 2.95381 11.6587 2.95381 11.8537 3.13858C12.0488 3.32336 12.0488 3.62184 11.8537 3.80661L3.20655 11.9982L11.8537 20.1898C12.0488 20.3746 12.0488 20.6731 11.8537 20.8579C11.7587 20.9526 11.6337 21 11.5036 21Z" fill="currentColor"/>
<path d="M21.5036 21C21.3736 21 21.2486 20.9526 21.1485 20.8626L12.1463 12.3346C11.9512 12.1498 11.9512 11.8514 12.1463 11.6666L21.1485 3.13858C21.3436 2.95381 21.6587 2.95381 21.8537 3.13858C22.0488 3.32336 22.0488 3.62184 21.8537 3.80661L13.2066 11.9982L21.8537 20.1898C22.0488 20.3746 22.0488 20.6731 21.8537 20.8579C21.7587 20.9526 21.6337 21 21.5036 21Z" fill="currentColor"/>
</svg>
