<svg width="24" height="24" viewBox="0 0 24 24" fill="none" xmlns="http://www.w3.org/2000/svg">
<path d="M17.8876 6.06478H16.9615C16.8457 4.61198 16.157 3.25758 15.0341 2.30834C13.7955 1.2607 12.1691 0.809232 10.5658 1.07548C8.4011 1.43434 6.65893 3.04342 6.12643 5.17342L5.53028 7.55231H5.24088C2.86782 7.55231 0.94043 9.47973 0.94043 11.8528C0.94043 14.2259 2.86782 16.1534 5.24088 16.1534C5.55922 16.1534 5.81967 15.8929 5.81967 15.5745C5.81967 15.2562 5.55922 14.9957 5.24088 14.9957C3.51028 14.9957 2.09802 13.5835 2.09802 11.8528C2.09802 10.1222 3.51028 8.70992 5.24088 8.70992H5.98752C6.25377 8.70992 6.48528 8.53049 6.54895 8.27003L7.25508 5.45125C7.6776 3.76693 9.04935 2.49934 10.7626 2.21573C12.0301 2.00736 13.3151 2.36043 14.2932 3.18812C15.2714 4.01581 15.8328 5.22551 15.8328 6.51046V6.64359C15.8328 6.96193 16.0933 7.22239 16.4116 7.22239H17.8991C20.0407 7.22239 21.7828 8.96459 21.7828 11.1062C21.7828 13.2477 20.0407 14.99 17.8991 14.99C17.5808 14.99 17.3203 15.2504 17.3203 15.5688C17.3203 15.8871 17.5808 16.1476 17.8991 16.1476C20.6773 16.1476 22.9404 13.8844 22.9404 11.1062C22.9346 8.32791 20.6716 6.06478 17.8876 6.06478Z" fill="currentColor"/>
<path d="M14.1721 17.3746H10.7862L13.165 13.8092C13.3445 13.5429 13.2692 13.1841 13.003 13.0047C12.7367 12.8252 12.3779 12.9005 12.1984 13.1667L9.22344 17.6293C9.10189 17.8087 9.0961 18.0345 9.1945 18.2255C9.29289 18.4165 9.48969 18.5322 9.70384 18.5322H13.0898L10.7109 22.0977C10.5315 22.3639 10.6068 22.7228 10.873 22.9022C10.9714 22.9659 11.0814 23.0006 11.1913 23.0006C11.3766 23.0006 11.5618 22.908 11.6717 22.7402L14.6468 18.2776C14.7683 18.0981 14.7741 17.8724 14.6757 17.6814C14.5773 17.4904 14.3805 17.3746 14.1721 17.3746Z" fill="currentColor"/>
</svg>
