<svg width="24" height="25" viewBox="0 0 24 25" fill="none" xmlns="http://www.w3.org/2000/svg">
<path d="M20.948 6.93954C20.722 6.71364 20.357 6.71364 20.131 6.93954C19.3198 7.75044 17.9988 7.75044 17.1876 6.93954C16.7936 6.54567 16.5792 6.02438 16.5792 5.46833C16.5792 4.91229 16.7936 4.39099 17.1876 3.99713C17.4136 3.77123 17.4136 3.40633 17.1876 3.18044L15.2756 1.26903C15.0496 1.04314 14.6846 1.04314 14.4586 1.26903L1.19024 14.533C1.08015 14.6431 1.02222 14.7879 1.02222 14.9443C1.02222 15.1007 1.08595 15.2455 1.19024 15.3555L3.10228 17.2669C3.29928 17.4639 3.61216 17.487 3.83813 17.3248C3.93662 17.2553 4.01774 17.1742 4.10465 17.0932C4.66088 16.6182 5.49522 16.5197 6.16733 16.763C6.43965 16.8615 6.68879 17.0179 6.89158 17.2206C7.42464 17.7535 7.61585 18.5296 7.42464 19.2536C7.35512 19.5143 7.23344 19.7633 7.05962 19.9719C6.90897 20.1456 6.71777 20.3078 6.6888 20.5395C6.66562 20.7248 6.75832 20.9276 6.89158 21.0608C7.04802 21.2114 7.20446 21.3678 7.3609 21.5241C7.68537 21.8485 8.00985 22.1787 8.33431 22.503C8.40384 22.5725 8.47916 22.6478 8.54869 22.7173C8.72251 22.8911 8.91371 23.0996 9.17444 23.0996C9.32509 23.0996 9.46993 23.0417 9.58581 22.9316L22.8542 9.66763C22.9643 9.55758 23.0222 9.41278 23.0222 9.25639C23.0222 9.1 22.9585 8.9552 22.8542 8.84515L20.948 6.93954ZM17.7091 13.1777L17.5063 12.9749C17.2803 12.7491 16.9153 12.7491 16.6893 12.9749C16.4634 13.2008 16.4634 13.5657 16.6893 13.7916L16.8921 13.9944L9.18024 21.7037L8.06199 20.5858C8.45599 20.0414 8.66456 19.3868 8.66456 18.6976C8.66456 17.8346 8.32852 17.0179 7.71435 16.4097C7.10018 15.7957 6.289 15.4598 5.42569 15.4598C4.74199 15.4598 4.08727 15.6741 3.53683 16.0622L2.41279 14.9443L10.1247 7.23494L10.3275 7.43766C10.4433 7.5535 10.5882 7.60563 10.7388 7.60563C10.8895 7.60563 11.0343 7.54771 11.1502 7.43766C11.3762 7.21177 11.3762 6.84686 11.1502 6.62097L10.9474 6.41824L14.8642 2.50275L15.9882 3.62643C15.1133 4.88912 15.235 6.63834 16.3591 7.76202C17.4831 8.88569 19.2329 9.00733 20.496 8.13272L21.6258 9.25639L17.7091 13.1777Z" fill="currentColor"/>
<path d="M12.4187 7.88939C12.1928 7.6635 11.8279 7.6635 11.602 7.88939C11.3761 8.11528 11.3761 8.48019 11.602 8.70608L12.8705 9.97456C12.9864 10.0904 13.1312 10.1425 13.2818 10.1425C13.4324 10.1425 13.5772 10.0846 13.693 9.97456C13.9189 9.74867 13.9189 9.38376 13.693 9.15787L12.4187 7.88939Z" fill="currentColor"/>
<path d="M14.9623 10.4321C14.7364 10.2062 14.3715 10.2062 14.1456 10.4321C13.9197 10.658 13.9197 11.0229 14.1456 11.2488L15.4141 12.5173C15.5299 12.6331 15.6747 12.6853 15.8253 12.6853C15.9759 12.6853 16.1207 12.6273 16.2366 12.5173C16.4625 12.2914 16.4625 11.9265 16.2366 11.7006L14.9623 10.4321Z" fill="currentColor"/>
</svg>
