<svg width="24" height="25" viewBox="0 0 24 25" fill="none" xmlns="http://www.w3.org/2000/svg">
<path fill-rule="evenodd" clip-rule="evenodd" d="M5.72786 6.2891C5.72786 7.14153 6.4138 7.34132 6.7934 7.35464C6.84667 7.35464 6.89995 7.35464 6.93991 7.34132C7.30619 7.31468 7.91221 6.98836 7.81897 6.12927C7.7657 5.61648 7.43938 5.37674 6.99985 5.30348C6.93325 5.30348 6.85333 5.29016 6.78674 5.29016C6.25397 5.32346 5.71454 5.65644 5.72786 6.2891ZM20.1659 17.3906C20.6653 16.9045 20.9051 16.4849 20.9051 16.4849C20.9051 16.4849 21.0782 17.6304 20.3923 18.969C20.3257 19.0888 20.2591 19.2087 20.1659 19.3219C19.3534 20.4008 17.6152 20.8337 16.0902 20.8203C15.1712 20.8203 14.3787 20.6738 13.8259 20.494C13.3531 20.3342 13.0468 20.1411 13.0468 20.1411C11.282 19.3286 11.4285 16.5116 11.4285 16.5116C11.4285 16.5116 12.4274 18.7892 15.8904 18.9956C17.9948 19.1355 19.3934 18.1765 20.1659 17.3906ZM20.1659 13.6679C20.2857 13.6679 20.379 13.6546 20.4522 13.6413C20.8185 13.588 21.9506 13.1285 21.8574 11.3904C21.7775 9.69215 20.8984 9.21932 20.1725 9.206H20.1326C20.1326 9.206 19.7929 9.19268 19.4333 9.41911C18.9738 9.69881 18.4876 10.3381 18.501 11.4969C18.5143 13.0885 19.4466 13.5747 20.0527 13.6679H20.1659ZM20.1659 7.74755C22.5567 7.81415 23.3625 9.9319 23.469 10.7444C23.5489 11.3238 23.5623 13.1884 22.3768 14.2939C21.8907 14.7534 21.1781 15.1131 20.1659 15.1131H20.0993C18.9805 15.0864 18.2346 14.6136 17.7418 14.0875C16.7029 12.9554 16.7961 11.2971 16.7961 11.2971C16.7828 10.7444 16.9559 10.0451 17.3355 9.39247C17.8616 8.50009 18.7141 7.73423 20.1126 7.74755H20.1659ZM20.1659 4.03816C20.2325 4.03816 20.3124 4.03816 20.379 4.02484C22.5234 3.9982 23.3491 5.73636 23.3491 5.73636V6.90844C23.3491 6.90844 22.6632 5.46331 20.3523 5.34344H20.1659C18.0082 5.30348 17.169 6.78857 17.169 6.78857V5.81627C17.5087 5.17029 18.1813 4.13139 20.1659 4.03816ZM2.15832 8.00728V6.30242C2.15832 6.30242 1.06615 6.15591 0.540039 7.48783V13.0419C0.540039 13.0419 0.619954 13.648 0.972913 14.1607C1.29923 14.6602 1.87862 15.0664 2.7377 15.0798C4.48918 15.133 4.78886 14.2673 4.62903 13.315C4.62903 13.315 2.68443 14.3938 2.2116 12.7755V9.45907H3.96307C3.96307 9.45907 4.75556 9.39247 4.60905 8.00062H2.15832V8.00728ZM5.93431 7.96066V13.2617C5.93431 13.2617 6.08082 14.9732 7.3528 15.0398C8.62479 15.1064 9.02436 14.5137 9.051 13.608C9.051 13.608 8.41834 13.8344 8.0121 13.5414C7.59255 13.255 7.60587 12.8288 7.60587 12.8288V8.86636C7.60587 8.86636 7.33282 7.89406 5.93431 7.96066ZM15.6706 9.85198C15.6706 9.85198 15.8305 9.91858 15.8837 9.74543C15.9237 9.55896 16.0569 8.3003 14.5718 7.89406C12.847 7.43455 10.8091 8.06721 10.1099 9.52566C9.87013 10.0385 9.61041 10.7643 9.57045 11.4969C9.50385 12.8288 10.0166 14.2873 11.4285 15.0198C11.4285 15.0198 13.0867 15.8323 14.7183 15.2596C14.7183 15.2596 15.9304 14.7601 15.9437 13.8544C15.9703 12.9354 16.0769 11.6567 15.2977 11.6434C14.5185 11.6168 14.2588 11.6434 14.2588 11.6434C14.2588 11.6434 14.4453 13.1418 14.3787 13.3283C14.3121 13.5281 13.8792 14.0675 12.5872 13.6679C11.3086 13.275 11.1288 11.6434 11.4418 10.6045C11.7548 9.56562 13.0601 9.14607 13.8859 9.21266C14.7117 9.28592 15.6706 9.85198 15.6706 9.85198Z" fill="#28348A"/>
<path d="M2.59111 16.4583V18.7758H1.99175V17.8434H1.10602V18.7758H0.5V16.4583H1.10602V17.3773H1.99175V16.4583H2.59111Z" fill="#28348A"/>
<path d="M4.57549 17.2308C4.73532 17.3907 4.82189 17.6171 4.82189 17.9034C4.82189 18.1898 4.74198 18.4162 4.57549 18.5761C4.41566 18.7359 4.18257 18.8158 3.88955 18.8158C3.59653 18.8158 3.3701 18.7359 3.21027 18.5761C3.04378 18.4096 2.96387 18.1898 2.96387 17.9034C2.96387 17.6171 3.04378 17.3907 3.21027 17.2308C3.3701 17.071 3.60319 16.9911 3.88955 16.9911C4.18257 16.9844 4.409 17.071 4.57549 17.2308ZM3.64315 17.5305C3.58987 17.6104 3.56323 17.7303 3.56323 17.9034C3.56323 18.0766 3.58987 18.1965 3.64315 18.2764C3.69642 18.3563 3.783 18.3896 3.88955 18.3896C4.00276 18.3896 4.08268 18.3496 4.13596 18.2764C4.18923 18.2031 4.21587 18.0766 4.21587 17.9034C4.21587 17.7303 4.18923 17.6104 4.13596 17.5305C4.08268 17.4506 4.00276 17.4173 3.88955 17.4173C3.77634 17.4106 3.69642 17.4506 3.64315 17.5305Z" fill="#28348A"/>
<path d="M6.72013 18.5228C6.83334 18.6093 6.88662 18.7425 6.88662 18.9157C6.88662 19.1155 6.80004 19.2686 6.62023 19.3752C6.44042 19.4817 6.20068 19.535 5.901 19.535C5.59466 19.535 5.36823 19.5017 5.22172 19.4285C5.07521 19.3552 5.00195 19.2553 5.00195 19.1221C5.00195 19.0422 5.02859 18.9756 5.08187 18.9157C5.13514 18.8557 5.21506 18.8158 5.32827 18.7891C5.14846 18.7092 5.05523 18.5894 5.05523 18.4229C5.05523 18.3429 5.08187 18.2697 5.13514 18.2031C5.18842 18.1432 5.25502 18.0899 5.34825 18.0632C5.15512 17.9567 5.06189 17.7969 5.06189 17.5838C5.06189 17.3973 5.13514 17.2441 5.28832 17.1442C5.43483 17.0377 5.64793 16.991 5.92098 16.991C6.04751 16.991 6.16738 17.0044 6.27394 17.031C6.29391 16.8912 6.34719 16.7779 6.43377 16.6847C6.51368 16.5981 6.62689 16.5515 6.7734 16.5515L6.82668 16.5582L6.89328 16.9577C6.84 16.9444 6.8067 16.9444 6.79338 16.9444C6.71347 16.9444 6.64687 16.9577 6.5936 16.9844C6.54032 17.011 6.50036 17.051 6.48038 17.0976C6.68017 17.2042 6.7734 17.364 6.7734 17.5838C6.7734 17.7702 6.70015 17.9167 6.54698 18.0233C6.39381 18.1232 6.18736 18.1765 5.91432 18.1765C5.78779 18.1765 5.67457 18.1698 5.57468 18.1432C5.50142 18.1631 5.46812 18.2031 5.46812 18.263C5.46812 18.3429 5.52806 18.3829 5.64793 18.3829H6.2473C6.45374 18.3896 6.61357 18.4362 6.72013 18.5228ZM6.30057 19.1021C6.38049 19.0688 6.42045 19.0289 6.42045 18.9756C6.42045 18.9356 6.40713 18.909 6.37383 18.889C6.34053 18.8691 6.28725 18.8624 6.20734 18.8624H5.72119C5.62795 18.8624 5.5547 18.8757 5.51474 18.8957C5.47478 18.9157 5.45481 18.949 5.45481 18.9889C5.45481 19.0955 5.61464 19.1488 5.94096 19.1488C6.10079 19.1488 6.214 19.1288 6.30057 19.1021ZM5.72785 17.3973C5.68123 17.4439 5.65459 17.5038 5.65459 17.5838C5.65459 17.6637 5.68123 17.7236 5.72785 17.7702C5.77447 17.8168 5.84106 17.8368 5.91432 17.8368C5.98757 17.8368 6.05417 17.8168 6.10079 17.7702C6.1474 17.7236 6.17404 17.6637 6.17404 17.5838C6.17404 17.5038 6.1474 17.4439 6.10079 17.3973C6.05417 17.3507 5.98757 17.3307 5.91432 17.3307C5.84106 17.3307 5.77447 17.3507 5.72785 17.3973Z" fill="#28348A"/>
<path d="M8.93083 18.4229L8.88422 18.7559C8.81762 18.7959 8.73771 18.8092 8.64447 18.8092C8.39141 18.8092 8.23824 18.7159 8.19162 18.5361C8.08507 18.7159 7.87862 18.8092 7.56562 18.8092C7.39247 18.8092 7.25262 18.7692 7.15938 18.696C7.06615 18.6227 7.01953 18.5095 7.01953 18.3696C7.01953 18.2231 7.07281 18.0966 7.17936 18.0034C7.28591 17.9101 7.45906 17.8435 7.70547 17.7903L8.10505 17.7103V17.6437C8.10505 17.5638 8.08507 17.5039 8.03845 17.4573C7.99183 17.4107 7.9319 17.384 7.85864 17.384C7.77207 17.384 7.69881 17.404 7.63887 17.4506C7.57894 17.4906 7.54564 17.5638 7.53232 17.6571L7.04617 17.5172C7.07947 17.3441 7.15938 17.2175 7.29923 17.1176C7.43909 17.0244 7.62555 16.9778 7.85864 16.9778C8.13168 16.9778 8.33813 17.0311 8.48464 17.1443C8.62449 17.2575 8.69775 17.424 8.69775 17.6504V18.2897C8.69775 18.383 8.73771 18.4296 8.82428 18.4296C8.86424 18.4362 8.89754 18.4362 8.93083 18.4229ZM8.00515 18.3563C8.07175 18.3097 8.10505 18.2498 8.10505 18.1765V18.0233L7.81868 18.0899C7.74543 18.1099 7.69215 18.1299 7.65885 18.1565C7.62555 18.1832 7.61224 18.2231 7.61224 18.2697C7.61224 18.3164 7.62555 18.3563 7.65885 18.383C7.69215 18.4096 7.73211 18.4229 7.78538 18.4229C7.8653 18.4296 7.93856 18.4029 8.00515 18.3563Z" fill="#28348A"/>
<path d="M10.4359 17.0243L10.3693 17.5305C10.3493 17.5171 10.316 17.5038 10.276 17.4905C10.2361 17.4772 10.1961 17.4772 10.1495 17.4772C10.0363 17.4772 9.94306 17.5105 9.8698 17.5837C9.79655 17.657 9.75659 17.7569 9.75659 17.8901V18.7758H9.15723V17.0177H9.68333L9.70997 17.3973C9.74993 17.2641 9.81653 17.1642 9.90976 17.0909C9.99634 17.0177 10.1095 16.9844 10.2427 16.9844C10.3293 16.9844 10.3893 16.9977 10.4359 17.0243Z" fill="#28348A"/>
</svg>
