<svg width="24" height="25" viewBox="0 0 24 25" fill="none" xmlns="http://www.w3.org/2000/svg">
<path fill-rule="evenodd" clip-rule="evenodd" d="M5.70376 6.60455C5.70376 7.454 6.39269 7.66135 6.77395 7.67473C6.82746 7.67473 6.88097 7.67473 6.9211 7.66135C7.28897 7.6346 7.89095 7.31354 7.79731 6.44402C7.7438 5.92899 7.41606 5.6882 6.97461 5.62132C6.90772 5.62132 6.82746 5.60794 6.76057 5.60794C6.22548 5.63469 5.69039 5.96913 5.70376 6.60455ZM20.1579 17.7278C20.6596 17.2395 20.9004 16.8248 20.9004 16.8248C20.9004 16.8248 21.0743 17.9752 20.3853 19.313C20.3185 19.4334 20.2516 19.5538 20.1579 19.6608C19.3486 20.7443 17.6029 21.1724 16.0779 21.159C15.1615 21.159 14.3589 21.0119 13.8104 20.8313C13.3355 20.6708 13.0278 20.4768 13.0278 20.4768C11.2553 19.6675 11.4092 16.8449 11.4092 16.8449C11.4092 16.8449 12.4125 19.1257 15.8839 19.333C17.9841 19.4668 19.3887 18.5103 20.1579 17.7278ZM20.1579 13.9955C20.2783 13.9955 20.372 13.9821 20.4388 13.9687C20.8067 13.9152 21.9371 13.4537 21.8435 11.7147C21.7632 10.0091 20.887 9.54086 20.1579 9.52748H20.1178C20.1178 9.52748 19.7834 9.51411 19.4155 9.74152C18.954 10.0224 18.4724 10.6579 18.4858 11.8217C18.4991 13.4136 19.4289 13.9019 20.0375 13.9955H20.1579ZM20.1579 8.06936C22.5458 8.13625 23.3618 10.2565 23.4688 11.0659C23.5491 11.6478 23.5624 13.5139 22.3719 14.6175C21.8836 15.0791 21.1679 15.4402 20.1579 15.4402H20.091C18.9673 15.4135 18.2249 14.9386 17.7299 14.4169C16.6865 13.2798 16.7868 11.621 16.7868 11.621C16.7735 11.0659 16.9474 10.3636 17.3286 9.71477C17.857 8.82518 18.7065 8.05598 20.1111 8.06936H20.1579ZM20.1579 4.35047C20.2248 4.35047 20.3051 4.35047 20.372 4.3371C22.519 4.31034 23.3417 6.05608 23.3417 6.05608V7.23328C23.3417 7.23328 22.6528 5.78853 20.3452 5.66814H20.1579C17.9975 5.628 17.1547 7.11288 17.1547 7.11288V6.13634C17.4958 5.48754 18.1714 4.44411 20.1579 4.35047ZM2.11865 8.32353V6.61792C2.11865 6.61792 1.02171 6.47077 0.5 7.8085V13.3735C0.5 13.3735 0.580264 13.9821 0.934762 14.4971C1.25582 14.9988 1.83773 15.4001 2.70725 15.4135C4.46637 15.467 4.76067 14.6042 4.60014 13.641C4.60014 13.641 2.65374 14.7246 2.18554 13.0992V9.78165H3.94465C3.94465 9.78165 4.7406 9.71477 4.59345 8.32353H2.11865ZM5.90442 8.2834V13.5942C5.90442 13.5942 6.05157 15.3132 7.32242 15.38C8.59326 15.4469 9.00127 14.8516 9.02802 13.9487C9.02802 13.9487 8.3926 14.1761 7.99128 13.8818C7.5699 13.6009 7.58327 13.1661 7.58327 13.1661V9.18636C7.57659 9.18636 7.30904 8.21651 5.90442 8.2834ZM15.6565 10.1763C15.6565 10.1763 15.817 10.2432 15.8705 10.0693C15.9106 9.88198 16.0444 8.62452 14.5595 8.21651C12.8272 7.75499 10.7871 8.39041 10.0848 9.84854C9.84404 10.3636 9.58318 11.0926 9.54305 11.8217C9.47616 13.1594 9.99119 14.6175 11.4092 15.3466C11.4092 15.3466 13.068 16.1559 14.7067 15.5874C14.7067 15.5874 15.924 15.0857 15.9374 14.1828C15.9641 13.2664 16.0712 11.9822 15.2886 11.9688C14.506 11.9421 14.2452 11.9688 14.2452 11.9688C14.2452 11.9688 14.4324 13.4671 14.3656 13.6544C14.2987 13.855 13.8639 14.3968 12.5663 13.9955C11.2821 13.6009 11.1082 11.9688 11.4159 10.9254C11.7436 9.88867 13.0479 9.47397 13.8773 9.54086C14.7 9.60775 15.6565 10.1763 15.6565 10.1763Z" fill="#28348A"/>
</svg>
