<svg width="24" height="24" viewBox="0 0 24 24" fill="none" xmlns="http://www.w3.org/2000/svg">
<path d="M11.6902 2.89319C6.14965 2.89319 1.63965 7.40319 1.63965 12.9437C1.63965 18.4842 6.14965 23 11.6902 23C17.2307 23 21.7407 18.49 21.7407 12.9495C21.7407 7.40898 17.2307 2.89319 11.6902 2.89319ZM11.6902 21.8421C6.78649 21.8421 2.79754 17.8532 2.79754 12.9495C2.79754 8.04582 6.78649 4.05108 11.6902 4.05108C16.5939 4.05108 20.5828 8.04003 20.5828 12.9437C20.5828 17.8474 16.5939 21.8421 11.6902 21.8421Z" fill="currentColor"/>
<path d="M11.6903 6.9574C11.3719 6.9574 11.1113 7.21792 11.1113 7.53634V13.4937C11.1113 13.8121 11.3719 14.0727 11.6903 14.0727C12.0087 14.0727 12.2692 13.8121 12.2692 13.4937V7.53634C12.2692 7.21792 12.0087 6.9574 11.6903 6.9574Z" fill="currentColor"/>
<path d="M7.90414 2.15789H15.4826C15.801 2.15789 16.0615 1.89737 16.0615 1.57895C16.0615 1.26053 15.801 1 15.4826 1H7.90414C7.58572 1 7.3252 1.26053 7.3252 1.57895C7.3252 1.89737 7.57993 2.15789 7.90414 2.15789Z" fill="currentColor"/>
</svg>
