<svg width="24" height="24" viewBox="0 0 24 24" fill="none" xmlns="http://www.w3.org/2000/svg">
<path d="M18.732 5.78793L21.0246 3.4953C21.2504 3.26951 21.2504 2.90478 21.0246 2.67899C20.7988 2.4532 20.4341 2.4532 20.2083 2.67899L17.852 5.02951C16.1441 3.69793 14.0078 2.89899 11.6804 2.89899C6.13988 2.89899 1.62988 7.40899 1.62988 12.9495C1.62988 15.2653 2.42883 17.3958 3.74883 19.0979L2.34199 20.499C2.1162 20.7248 2.1162 21.0895 2.34199 21.3153C2.45778 21.4311 2.60252 21.4832 2.75304 21.4832C2.90357 21.4832 3.0483 21.4253 3.16409 21.3153L4.51304 19.9721C6.33673 21.8421 8.87831 23 11.6862 23C17.2267 23 21.7367 18.49 21.7367 12.9495C21.7367 10.1474 20.5846 7.61162 18.732 5.78793ZM2.79357 12.9495C2.79357 8.04583 6.78252 4.05688 11.6862 4.05688C13.6951 4.05688 15.542 4.73425 17.0299 5.85741L12.2651 10.6048V7.53635C12.2651 7.21793 12.0046 6.95741 11.6862 6.95741C11.3678 6.95741 11.1073 7.21793 11.1073 7.53635V11.7627L4.57673 18.2758C3.45936 16.7879 2.79357 14.9469 2.79357 12.9495ZM11.6862 21.8421C9.19673 21.8421 6.94462 20.8116 5.32936 19.1558L12.0915 12.4053L17.9099 6.60425C19.5541 8.21951 20.5788 10.4658 20.5788 12.9437C20.5788 17.8532 16.5899 21.8421 11.6862 21.8421Z" fill="currentColor"/>
<path d="M7.89975 2.15789H15.4782C15.7966 2.15789 16.0571 1.89737 16.0571 1.57895C16.0571 1.26053 15.7966 1 15.4782 1H7.89975C7.58133 1 7.3208 1.26053 7.3208 1.57895C7.3208 1.89737 7.57554 2.15789 7.89975 2.15789Z" fill="currentColor"/>
</svg>
