<svg width="24" height="24" viewBox="0 0 24 24" fill="none" xmlns="http://www.w3.org/2000/svg">
<path d="M22.8103 18.092L21.1494 16.431C20.8908 16.1724 20.477 16.1724 20.2241 16.431C19.9713 16.6897 19.9713 17.1034 20.2241 17.3563L20.6954 17.8276H14.2414C13.954 16.8563 13.069 16.1437 12.0057 16.1437C10.9425 16.1437 10.0057 16.8966 9.74713 17.9023H6.01149V12.5862H9.77011C10.0575 13.5575 10.9425 14.2701 12.0057 14.2701C13.069 14.2701 13.9713 13.546 14.2471 12.5632H18.6494C19.0115 12.5632 19.3046 12.2701 19.3046 11.908V5.33908C19.3046 4.97701 19.0115 4.68391 18.6494 4.68391H14.2356C13.9483 3.71264 13.0632 3 12 3C10.9368 3 10.0977 3.67816 9.78736 4.6092H5.55172C5.24138 3.67816 4.37356 3 3.33908 3C2.05172 3 1 4.05172 1 5.33908C1 6.62644 2.05172 7.67816 3.33908 7.67816C4.43103 7.67816 5.33908 6.92529 5.5977 5.91379H9.73563C9.99425 6.92529 10.908 7.67816 11.9943 7.67816C13.0805 7.67816 13.9425 6.96552 14.2299 5.99425H17.9885V11.2529H14.2241C13.931 10.2931 13.046 9.59195 11.9943 9.59195C10.9425 9.59195 10.046 10.3046 9.75862 11.2759H5.34483C4.98276 11.2759 4.68966 11.569 4.68966 11.931V18.5575C4.68966 18.9195 4.98276 19.2126 5.34483 19.2126H9.78161C10.092 20.1437 10.9598 20.8276 11.9943 20.8276C13.0287 20.8276 13.9425 20.1149 14.2299 19.1437H20.8333L20.2184 19.7586C19.9598 20.0172 19.9655 20.431 20.2184 20.6839C20.3448 20.8103 20.5115 20.8736 20.6839 20.8736C20.8563 20.8736 21.0172 20.8103 21.1494 20.6839L22.8103 19.023C23.0632 18.7644 23.0632 18.3506 22.8103 18.0977V18.092ZM3.33908 6.37356C2.77012 6.37356 2.31034 5.91379 2.31034 5.34483C2.31034 4.77586 2.77012 4.31609 3.33908 4.31609C3.90805 4.31609 4.36782 4.77586 4.36782 5.34483C4.36782 5.91379 3.90805 6.37356 3.33908 6.37356ZM12 6.37356C11.431 6.37356 10.9713 5.91379 10.9713 5.34483C10.9713 4.77586 11.431 4.31609 12 4.31609C12.569 4.31609 13.0287 4.77586 13.0287 5.34483C13.0287 5.91379 12.569 6.37356 12 6.37356ZM12 10.9023C12.569 10.9023 13.0287 11.3621 13.0287 11.931C13.0287 12.5 12.569 12.9598 12 12.9598C11.431 12.9598 10.9713 12.5 10.9713 11.931C10.9713 11.3621 11.431 10.9023 12 10.9023ZM12 19.5172C11.431 19.5172 10.9713 19.0575 10.9713 18.4885C10.9713 17.9195 11.431 17.4598 12 17.4598C12.569 17.4598 13.0287 17.9195 13.0287 18.4885C13.0287 19.0575 12.569 19.5172 12 19.5172Z" fill="currentColor"/>
</svg>
