<svg width="24" height="24" viewBox="0 0 24 24" fill="none" xmlns="http://www.w3.org/2000/svg">
<path d="M18.8112 15.9134C20.9248 15.9134 22.6381 14.2001 22.6381 12.0865C22.6381 9.97302 20.9248 8.25967 18.8112 8.25967C16.6977 8.25967 14.9844 9.97302 14.9844 12.0865C14.9844 14.2001 16.6977 15.9134 18.8112 15.9134Z" fill="#C9C2EA"/>
<path d="M10.6452 11.2334C10.6234 11.2114 10.5974 11.1938 10.5687 11.1819C10.54 11.1699 10.5093 11.1638 10.4782 11.1638C10.4472 11.1638 10.4164 11.1699 10.3877 11.1819C10.3591 11.1938 10.3331 11.2114 10.3112 11.2334L9.79782 11.7468L9.28443 11.2334C9.26278 11.2083 9.23616 11.1878 9.20625 11.1734C9.17634 11.159 9.14378 11.1509 9.11061 11.1497C9.07743 11.1485 9.04436 11.1541 9.01345 11.1662C8.98255 11.1783 8.95448 11.1967 8.93101 11.2202C8.90753 11.2437 8.88915 11.2717 8.87703 11.3026C8.8649 11.3335 8.85928 11.3666 8.86052 11.3998C8.86176 11.433 8.86984 11.4655 8.88424 11.4954C8.89865 11.5253 8.91907 11.552 8.94424 11.5736L9.45762 12.087L8.94424 12.6004C8.91062 12.6336 8.8878 12.6762 8.87878 12.7226C8.86975 12.7691 8.87492 12.8171 8.89363 12.8605C8.91233 12.9039 8.94369 12.9407 8.98362 12.966C9.02354 12.9914 9.07018 13.004 9.11743 13.0024C9.14847 13.0034 9.17936 12.9978 9.20813 12.9861C9.23689 12.9744 9.26288 12.9568 9.28443 12.9344L9.79782 12.421L10.3112 12.9344C10.3561 12.9775 10.416 13.0016 10.4782 13.0016C10.5405 13.0016 10.6003 12.9775 10.6452 12.9344C10.6673 12.9126 10.6848 12.8865 10.6968 12.8579C10.7087 12.8292 10.7149 12.7985 10.7149 12.7674C10.7149 12.7363 10.7087 12.7056 10.6968 12.6769C10.6848 12.6483 10.6673 12.6222 10.6452 12.6004L10.1504 12.087L10.6638 11.5736C10.7064 11.526 10.7283 11.4635 10.7248 11.3997C10.7213 11.3359 10.6927 11.2761 10.6452 11.2334Z" fill="currentColor"/>
<path d="M13.0328 12.087L13.5462 11.5736C13.5912 11.5284 13.6164 11.4673 13.6164 11.4035C13.6164 11.3398 13.5912 11.2786 13.5462 11.2334C13.5038 11.1976 13.4502 11.178 13.3947 11.178C13.3392 11.178 13.2855 11.1976 13.2431 11.2334L12.7298 11.7468L12.1854 11.2334C12.1636 11.2113 12.1376 11.1938 12.1089 11.1819C12.0802 11.1699 12.0495 11.1638 12.0184 11.1638C11.9874 11.1638 11.9566 11.1699 11.928 11.1819C11.8993 11.1938 11.8733 11.2113 11.8514 11.2334C11.8065 11.2786 11.7812 11.3398 11.7812 11.4035C11.7812 11.4673 11.8065 11.5284 11.8514 11.5736L12.3586 12.087L11.8514 12.6004C11.8294 12.6222 11.8118 12.6483 11.7999 12.6769C11.7879 12.7056 11.7818 12.7363 11.7818 12.7674C11.7818 12.7984 11.7879 12.8292 11.7999 12.8579C11.8118 12.8865 11.8294 12.9125 11.8514 12.9344C11.8963 12.9775 11.9562 13.0016 12.0184 13.0016C12.0807 13.0016 12.1405 12.9775 12.1854 12.9344L12.6988 12.421L13.2122 12.9344C13.2571 12.9775 13.317 13.0016 13.3792 13.0016C13.4415 13.0016 13.5013 12.9775 13.5462 12.9344C13.5683 12.9125 13.5858 12.8865 13.5978 12.8579C13.6097 12.8292 13.6159 12.7984 13.6159 12.7674C13.6159 12.7363 13.6097 12.7056 13.5978 12.6769C13.5858 12.6483 13.5683 12.6222 13.5462 12.6004L13.0328 12.087Z" fill="currentColor"/>
<path d="M7.74581 11.2334C7.70061 11.1885 7.63946 11.1632 7.57571 11.1632C7.51197 11.1632 7.45081 11.1885 7.40561 11.2334L6.89841 11.7468L6.38502 11.2334C6.36336 11.2083 6.33675 11.1878 6.30684 11.1734C6.27693 11.159 6.24437 11.1509 6.21119 11.1497C6.17802 11.1485 6.14494 11.1541 6.11404 11.1662C6.08313 11.1783 6.05507 11.1967 6.03159 11.2202C6.00812 11.2437 5.98974 11.2717 5.97761 11.3026C5.96548 11.3335 5.95986 11.3666 5.96111 11.3998C5.96235 11.433 5.97042 11.4655 5.98483 11.4954C5.99923 11.5253 6.01966 11.552 6.04482 11.5736L6.55821 12.087L6.04482 12.6004C6.01126 12.6472 5.99554 12.7044 6.00049 12.7618C6.00545 12.8191 6.03075 12.8728 6.07183 12.9131C6.11291 12.9535 6.16705 12.9778 6.22449 12.9817C6.28193 12.9856 6.33887 12.9688 6.38502 12.9344L6.89841 12.421L7.40561 12.9344C7.42833 12.9569 7.45541 12.9746 7.48519 12.9863C7.51497 12.998 7.54682 13.0035 7.5788 13.0024C7.60985 13.0034 7.64074 12.9978 7.6695 12.9861C7.69826 12.9744 7.72426 12.9568 7.74581 12.9344C7.76788 12.9126 7.78539 12.8865 7.79735 12.8579C7.80931 12.8292 7.81546 12.7985 7.81546 12.7674C7.81546 12.7363 7.80931 12.7056 7.79735 12.6769C7.78539 12.6483 7.76788 12.6222 7.74581 12.6004L7.23242 12.087L7.74581 11.5736C7.79076 11.5284 7.81599 11.4673 7.81599 11.4035C7.81599 11.3398 7.79076 11.2786 7.74581 11.2334Z" fill="currentColor"/>
<path d="M4.8464 11.2334C4.80119 11.1885 4.74004 11.1632 4.6763 11.1632C4.61255 11.1632 4.5514 11.1885 4.5062 11.2334L3.96807 11.7468L3.4856 11.2334C3.46395 11.2083 3.43734 11.1878 3.40742 11.1734C3.37751 11.159 3.34495 11.1509 3.31178 11.1497C3.2786 11.1485 3.24553 11.1541 3.21462 11.1662C3.18372 11.1783 3.15565 11.1967 3.13218 11.2202C3.1087 11.2437 3.09033 11.2717 3.0782 11.3026C3.06607 11.3335 3.06045 11.3666 3.06169 11.3998C3.06293 11.433 3.07101 11.4655 3.08541 11.4954C3.09982 11.5253 3.12024 11.552 3.14541 11.5736L3.6588 12.087L3.14541 12.6004C3.11185 12.6472 3.09613 12.7044 3.10108 12.7618C3.10603 12.8191 3.13133 12.8728 3.17241 12.9131C3.21349 12.9535 3.26764 12.9778 3.32508 12.9817C3.38251 12.9856 3.43945 12.9688 3.4856 12.9344L3.96807 12.421L4.48146 12.9344C4.50344 12.9562 4.52951 12.9734 4.55817 12.9851C4.58683 12.9968 4.61752 13.0027 4.64846 13.0024C4.69571 13.004 4.74234 12.9914 4.78227 12.966C4.8222 12.9407 4.85356 12.9039 4.87226 12.8605C4.89097 12.8171 4.89614 12.7691 4.88711 12.7226C4.87808 12.6762 4.85527 12.6336 4.82165 12.6004L4.30826 12.087L4.82165 11.5736C4.87004 11.5318 4.89983 11.4724 4.90447 11.4086C4.9091 11.3448 4.88822 11.2818 4.8464 11.2334Z" fill="currentColor"/>
<path d="M18.9473 8C18.3348 7.99906 17.73 8.13711 17.1785 8.40376C16.627 8.67041 16.1431 9.0587 15.7634 9.53941H2.39103C2.20836 9.53941 2.02747 9.57539 1.8587 9.64529C1.68994 9.7152 1.53659 9.81766 1.40742 9.94683C1.14655 10.2077 1 10.5615 1 10.9304V13.2426C1 13.6116 1.14655 13.9654 1.40742 14.2262C1.53659 14.3554 1.68994 14.4579 1.8587 14.5278C2.02747 14.5977 2.20836 14.6337 2.39103 14.6337H9.19161L11.0463 16.8531C11.0677 16.8801 11.095 16.9019 11.126 16.9169C11.1571 16.9319 11.1911 16.9397 11.2256 16.9397C11.252 16.9462 11.2796 16.9462 11.306 16.9397C11.3527 16.9241 11.3934 16.8943 11.4222 16.8543C11.4511 16.8144 11.4666 16.7664 11.4667 16.7171V14.6337H15.7944C16.2281 15.1638 16.7888 15.5757 17.4245 15.831C18.0601 16.0863 18.75 16.1767 19.4299 16.0937C20.1099 16.0108 20.7578 15.7573 21.3135 15.3567C21.8691 14.9561 22.3144 14.4215 22.608 13.8027C22.9016 13.1838 23.0339 12.5007 22.9926 11.817C22.9513 11.1332 22.7378 10.471 22.3719 9.89197C22.0059 9.31292 21.4995 8.83581 20.8997 8.50502C20.2999 8.17423 19.6262 8.0005 18.9412 8H18.9473ZM11.2441 14.1824C11.1818 14.1824 11.1221 14.2071 11.078 14.2512C11.034 14.2952 11.0092 14.355 11.0092 14.4173V16.0741L9.53164 14.2442C9.50844 14.2176 9.47996 14.1962 9.44803 14.1813C9.41609 14.1664 9.3814 14.1584 9.34617 14.1576H2.39103C2.1521 14.1512 1.92501 14.0522 1.75774 13.8814C1.59047 13.7107 1.49611 13.4816 1.49459 13.2426V10.9304C1.49213 10.8103 1.51337 10.6908 1.55709 10.5788C1.60081 10.4669 1.66616 10.3646 1.74941 10.278C1.83266 10.1913 1.93217 10.1218 2.04226 10.0736C2.15235 10.0254 2.27086 9.99931 2.39103 9.9969H15.442C15.0659 10.6223 14.8671 11.3382 14.8671 12.068C14.8671 12.7977 15.0659 13.5137 15.442 14.1391L11.2441 14.1824ZM18.9473 15.6723C18.2382 15.6723 17.5449 15.462 16.9552 15.068C16.3655 14.674 15.9059 14.114 15.6345 13.4587C15.3631 12.8035 15.2921 12.0826 15.4305 11.387C15.5688 10.6914 15.9104 10.0525 16.4118 9.55102C16.9133 9.04954 17.5522 8.70803 18.2478 8.56967C18.9434 8.43132 19.6643 8.50233 20.3196 8.77372C20.9748 9.04512 21.5348 9.50472 21.9288 10.0944C22.3228 10.6841 22.5331 11.3773 22.5331 12.0865C22.525 13.0327 22.1438 13.9375 21.4724 14.6043C20.801 15.2711 19.8936 15.646 18.9473 15.6476V15.6723Z" fill="currentColor"/>
<path d="M19.1828 11.4745V10.1515C19.1884 10.117 19.1864 10.0817 19.177 10.0481C19.1676 10.0145 19.151 9.98326 19.1284 9.95667C19.1057 9.93009 19.0776 9.90873 19.0459 9.89409C19.0142 9.87944 18.9797 9.87186 18.9448 9.87186C18.9099 9.87186 18.8754 9.87944 18.8437 9.89409C18.812 9.90873 18.7838 9.93009 18.7612 9.95667C18.7385 9.98326 18.722 10.0145 18.7126 10.0481C18.7032 10.0817 18.7012 10.117 18.7068 10.1515V11.4745C18.5886 11.5201 18.4873 11.6008 18.4165 11.7059C18.3457 11.8109 18.3089 11.9352 18.3111 12.0618C18.3114 12.1467 18.3282 12.2306 18.3605 12.3091L17.6619 13.0077C17.617 13.0529 17.5918 13.114 17.5918 13.1777C17.5918 13.2414 17.617 13.3025 17.6619 13.3477C17.7067 13.3911 17.7665 13.4155 17.8289 13.4157C17.8929 13.4146 17.9543 13.3905 18.002 13.3477L18.7006 12.6491C18.7787 12.6824 18.8629 12.6993 18.9479 12.6986C19.1118 12.6986 19.2691 12.6334 19.385 12.5175C19.501 12.4016 19.5661 12.2443 19.5661 12.0803C19.5731 11.952 19.5399 11.8248 19.4712 11.7162C19.4025 11.6076 19.3017 11.5231 19.1828 11.4745ZM18.7871 12.0618C18.7871 12.0202 18.8032 11.9802 18.832 11.9503C18.8608 11.9203 18.9001 11.9027 18.9417 11.9011C18.9843 11.9011 19.0252 11.918 19.0553 11.9481C19.0855 11.9783 19.1024 12.0192 19.1024 12.0618C19.1086 12.2411 18.8057 12.2411 18.8057 12.0618H18.7871Z" fill="currentColor"/>
</svg>
