<svg width="22" height="23" viewBox="0 0 22 23" fill="none" xmlns="http://www.w3.org/2000/svg">
<path d="M21.3386 4.27297C21.253 4.09563 21.0879 3.96722 20.8922 3.93053C20.6965 3.89995 20.4947 3.9611 20.3541 4.10174L16.2694 8.19257H14.0864V6.00958L18.1711 1.92486C18.3117 1.78422 18.3729 1.58244 18.3423 1.38676C18.3117 1.19109 18.1833 1.02598 17.9999 0.94037C15.3277 -0.331516 12.1235 0.22494 10.0261 2.32233C8.38122 3.96722 7.69025 6.29086 8.0816 8.51054L6.55289 6.98183L6.78525 4.48698C6.80971 4.24239 6.6813 4.01002 6.46728 3.89384L2.17466 1.58243C1.93618 1.45402 1.64267 1.49682 1.45311 1.68638L0.395245 2.75037C0.205685 2.93993 0.162881 3.23343 0.291292 3.47191L2.6027 7.76453C2.71277 7.96632 2.92067 8.08862 3.14081 8.08862C3.15915 8.08862 3.1775 8.08862 3.19584 8.08862L5.6907 7.85625L8.10606 10.2716L0.817169 17.5483C0.297407 18.068 0.0100098 18.7651 0.0100098 19.4989C0.0100098 20.2388 0.297407 20.9298 0.817169 21.4557C1.33693 21.9815 2.03402 22.2628 2.7678 22.2628C3.5077 22.2628 4.19867 21.9754 4.71844 21.4557L10.4908 15.6832L16.1287 21.3334C16.6485 21.8531 17.3456 22.1405 18.0794 22.1405C18.8131 22.1405 19.5102 21.8531 20.03 21.3334C21.1062 20.2572 21.1062 18.5022 20.03 17.426L16.6913 14.0873C17.8959 13.7876 19.0272 13.1639 19.9444 12.2467C22.0479 10.1493 22.6043 6.94515 21.3386 4.27297ZM1.58152 3.28848L1.99733 2.87266L5.53171 4.78049L5.35438 6.65164L3.48324 6.82896L1.58152 3.28848ZM19.18 18.2882C19.7793 18.8874 19.7793 19.8658 19.18 20.4651C18.5991 21.046 17.5841 21.046 17.0031 20.4651L11.3653 14.8149L12.3803 13.7999C13.2853 14.1607 14.2392 14.3196 15.1809 14.2952L19.18 18.2882ZM12.5087 12.5219C12.2764 12.4118 11.9951 12.4607 11.8116 12.6442L3.86236 20.5935C3.56885 20.887 3.18361 21.046 2.77392 21.046C2.36422 21.046 1.97287 20.887 1.68548 20.5935C1.39808 20.3 1.23298 19.9147 1.23298 19.505C1.23298 19.0953 1.39196 18.704 1.68548 18.4166L9.63477 10.4673C9.81821 10.2838 9.86713 10.0087 9.75706 9.7702C8.71143 7.56274 9.17004 4.91501 10.8944 3.18452C12.0073 2.07161 13.4932 1.49071 15.0036 1.49071C15.5539 1.49071 16.1104 1.5702 16.6485 1.72919L13.0468 5.33083C12.9307 5.44701 12.8695 5.59988 12.8695 5.76498L12.8634 8.81017C12.8634 8.97528 12.9246 9.12814 13.0407 9.24432C13.1569 9.36051 13.3098 9.42166 13.4749 9.42166H16.5262C16.6913 9.42166 16.8442 9.35439 16.9603 9.24432L20.5559 5.64268C21.149 7.65447 20.6109 9.87416 19.0944 11.3906C17.3639 13.1089 14.7162 13.5675 12.5087 12.5219Z" fill="currentColor"/>
</svg>
