<svg width="24" height="24" viewBox="0 0 24 24" fill="none" xmlns="http://www.w3.org/2000/svg">
<path d="M20.5401 6.56263C19.8107 6.56263 19.1622 6.90421 18.7107 7.44263C18.2591 6.91 17.5586 6.56263 16.7654 6.56263C16.0012 6.56263 15.3296 6.88105 14.878 7.37894C14.4264 6.88684 13.7491 6.56263 12.9907 6.56263C12.5101 6.56263 12.0644 6.69579 11.6822 6.91V2.93842C11.6822 1.49105 10.5765 0.309998 9.21592 0.309998C7.8554 0.309998 6.74961 1.48526 6.74961 2.93842V14.4074L5.23856 12.7689C4.76961 12.2595 4.14435 11.9816 3.47856 11.9816C2.81277 11.9816 2.18751 12.2595 1.71856 12.7689C0.780663 13.7821 0.780663 15.4321 1.71856 16.4453L6.13014 21.2737C6.73225 21.9337 7.57171 22.31 8.43434 22.31H18.4154C20.9512 22.31 23.018 20.0926 23.018 17.3716V9.19105C23.0064 7.74368 21.9007 6.56263 20.5401 6.56263ZM21.8486 17.3716C21.8486 19.4558 20.3028 21.1521 18.4038 21.1521H8.42277C7.87856 21.1521 7.3633 20.9147 6.9754 20.4921L2.56382 15.6637C2.0254 15.0847 2.0254 14.1353 2.56382 13.5563C2.81277 13.29 3.13119 13.1453 3.47277 13.1453C3.81435 13.1453 4.13856 13.29 4.38172 13.5563L6.89436 16.2832C7.05067 16.451 7.32276 16.5089 7.53119 16.4221C7.7454 16.3353 7.88435 16.1153 7.89593 15.8895V2.93842C7.89593 2.12789 8.48067 1.46789 9.20435 1.46789C9.92804 1.46789 10.5128 2.12789 10.5128 2.93842V8.79737V9.8221V11.2463C10.5128 11.5647 10.7733 11.8253 11.0917 11.8253C11.4101 11.8253 11.6707 11.5647 11.6707 11.2463V9.8221V8.79737C11.6707 8.20105 12.2554 7.72052 12.9791 7.72052C13.7028 7.72052 14.2875 8.20105 14.2875 8.79737V11.2463C14.2875 11.5647 14.548 11.8253 14.8665 11.8253C15.1849 11.8253 15.4454 11.5647 15.4454 11.2463V8.79737C15.4454 8.20105 16.0301 7.72052 16.7538 7.72052C17.4775 7.72052 18.0622 8.20105 18.0622 8.79737V9.19105V9.88579V11.2463C18.0622 11.5647 18.3228 11.8253 18.6412 11.8253C18.9596 11.8253 19.2201 11.5647 19.2201 11.2463V9.88579V9.19105C19.2201 8.38052 19.8049 7.72052 20.5286 7.72052C21.2522 7.72052 21.837 8.38052 21.837 9.19105V17.3716H21.8486Z" fill="currentColor"/>
</svg>
