<svg width="24" height="24" viewBox="0 0 24 24" fill="none" xmlns="http://www.w3.org/2000/svg">
<path d="M19.9166 8.18506C20.5784 7.45366 20.9615 6.50748 20.9615 5.48004C20.9615 3.25102 19.1504 1.43994 16.9214 1.43994H5.54987C3.32085 1.43994 1.50977 3.25102 1.50977 5.48004C1.50977 7.70907 3.32085 9.52015 5.54987 9.52015H10.1182V13.2758L9.39842 12.4922C9.04433 12.1091 8.56834 11.8943 8.05172 11.8943C7.5409 11.8943 7.05911 12.1091 6.70502 12.4922C5.99684 13.2584 5.99684 14.5064 6.70502 15.2669L9.75251 18.5988C10.2691 19.1502 10.8786 20.0442 10.8786 21.1471V22.8479C10.8786 23.1671 11.1398 23.4283 11.4591 23.4283C11.7784 23.4283 12.0396 23.1671 12.0396 22.8479V21.1471C12.0396 19.9745 11.5404 18.8194 10.5942 17.7977L7.55832 14.4774C7.25647 14.1523 7.25647 13.6009 7.55832 13.2758C7.69182 13.1307 7.86597 13.0552 8.05172 13.0552C8.23747 13.0552 8.41161 13.1365 8.54512 13.2758C8.54512 13.2758 10.2749 15.1508 10.2865 15.1566C10.4433 15.3191 10.6987 15.3771 10.9135 15.2959C11.1224 15.2146 11.2792 14.994 11.285 14.756V5.85155C11.285 5.39297 11.6042 5.02147 12.0048 5.02147C12.4053 5.02147 12.7245 5.39297 12.7245 5.85155V9.89166V10.594V11.575C12.7245 11.8943 12.9858 12.1555 13.305 12.1555C13.6243 12.1555 13.8855 11.8943 13.8855 11.575V10.594V9.89166C13.8855 9.58981 14.2164 9.3344 14.6053 9.3344C14.9942 9.3344 15.3251 9.58981 15.3251 9.89166V11.575C15.3251 11.8943 15.5863 12.1555 15.9055 12.1555C16.2248 12.1555 16.486 11.8943 16.486 11.575V9.89166C16.486 9.58981 16.8169 9.3344 17.2058 9.3344C17.5947 9.3344 17.9256 9.58981 17.9256 9.89166V10.1587V10.6347V11.5692C17.9256 11.8885 18.1868 12.1497 18.5061 12.1497C18.8253 12.1497 19.0865 11.8885 19.0865 11.5692V10.6347V10.1587C19.0865 9.7001 19.4058 9.3344 19.8063 9.3344C20.2011 9.3344 20.5261 9.70591 20.5261 10.1587V15.7835C20.5261 16.4104 20.3055 17.0489 19.9108 17.5423C18.8776 18.8484 18.3377 20.317 18.3377 21.7914V22.8595C18.3377 23.1787 18.599 23.4399 18.9182 23.4399C19.2375 23.4399 19.4987 23.1787 19.4987 22.8595V21.7914C19.4987 20.584 19.9573 19.3592 20.8222 18.2621C21.3794 17.5539 21.6871 16.6774 21.6871 15.7835V10.1587C21.6639 9.11382 20.8918 8.26052 19.9166 8.18506ZM15.8939 8.65524C15.5573 8.3592 15.0987 8.17345 14.5937 8.17345C14.3383 8.17345 14.1003 8.21989 13.8739 8.30696V5.86316C13.8739 4.76606 13.0322 3.87213 11.9931 3.87213C10.9541 3.87213 10.1124 4.76606 10.1124 5.86316V8.365H5.54987C3.95937 8.365 2.67072 7.07055 2.67072 5.48585C2.67072 3.89535 3.96517 2.60669 5.54987 2.60669H16.9214C18.5119 2.60669 19.8005 3.90116 19.8005 5.48585C19.8005 6.57715 19.1968 7.55814 18.2216 8.05735C18.0591 8.13862 17.885 8.20247 17.7108 8.25471C17.5425 8.20827 17.3683 8.17926 17.1884 8.17926C16.6834 8.17345 16.2306 8.3592 15.8939 8.65524Z" fill="currentColor"/>
</svg>
