<svg width="24" height="24" viewBox="0 0 24 24" fill="none" xmlns="http://www.w3.org/2000/svg">
<path d="M23.0303 22.4486L22.0995 20.3905C20.8392 17.604 20.2669 14.9793 20.3883 12.5975C20.4114 12.1061 20.3536 11.6147 20.2033 11.1406L18.3244 4.97216C18.1568 4.42295 17.7983 3.96046 17.3127 3.67718C16.8155 3.38234 16.2432 3.31297 15.7056 3.48062C15.1679 3.6425 14.7517 4.02405 14.5089 4.50389C14.0348 4.24952 13.4451 4.16858 12.8612 4.3478C12.3467 4.50389 11.9131 4.83341 11.6414 5.267C11.6299 5.29012 11.6183 5.31325 11.6067 5.33637C11.1442 5.10513 10.5719 5.04153 10.0111 5.20919C9.70475 5.30168 9.43303 5.46356 9.196 5.6659L8.34039 2.85626C8.17274 2.30705 7.8143 1.84456 7.32869 1.56128C6.83151 1.26645 6.25918 1.19707 5.72153 1.36472C4.63467 1.70003 4.03344 2.90829 4.38609 4.06452L6.92979 12.4125L5.68106 11.6841C5.18388 11.395 4.61155 11.3256 4.0739 11.4875C3.53625 11.6494 3.10268 12.0252 2.85409 12.5455C2.35691 13.5803 2.75579 14.8984 3.74437 15.4765L8.19586 18.1127C9.46193 18.8469 10.3522 19.743 10.8321 20.772L11.8438 22.9284C11.942 23.1365 12.1502 23.2637 12.3698 23.2637C12.4508 23.2637 12.5375 23.2464 12.6127 23.2117C12.9017 23.0787 13.0231 22.7318 12.8901 22.4428L11.8784 20.2864C11.2946 19.0377 10.2482 17.974 8.76242 17.1126L4.32827 14.4879C3.85422 14.2104 3.65188 13.5514 3.89469 13.0542C4.00453 12.8287 4.18375 12.6669 4.40922 12.5975C4.63468 12.5281 4.87748 12.5628 5.09139 12.6842L7.61196 14.1642C7.80274 14.274 8.06867 14.2567 8.24789 14.1237C8.43288 13.985 8.51961 13.7306 8.45602 13.4936L5.47871 3.72921C5.31106 3.18579 5.56544 2.61923 6.04527 2.4747C6.27074 2.40533 6.51354 2.44002 6.72744 2.5672C6.95869 2.70017 7.13213 2.92563 7.21884 3.20313L8.56586 7.61992L9.12662 9.46411C9.20177 9.7127 9.43303 9.87457 9.68162 9.87457C9.73943 9.87457 9.79145 9.86879 9.84926 9.85145C10.1557 9.75895 10.3291 9.4352 10.2308 9.1288C10.2308 9.1288 9.90131 8.05929 9.90131 8.05351L9.66428 7.27884C9.61225 7.1054 9.64115 6.91462 9.75099 6.74119C9.87239 6.54463 10.0747 6.39432 10.3233 6.31917C10.8032 6.17464 11.2888 6.36542 11.4044 6.74697L11.9652 8.59116C11.9883 8.66053 12.023 8.72412 12.0634 8.77615C12.075 8.7935 12.0923 8.80506 12.1097 8.8224C12.1444 8.85709 12.1791 8.886 12.2138 8.90912C12.2369 8.92068 12.2542 8.93224 12.2773 8.94381C12.3178 8.96115 12.3583 8.97271 12.4045 8.98427C12.4277 8.99006 12.4508 8.99584 12.4739 8.99584C12.4855 8.99584 12.497 9.00162 12.5086 9.00162C12.5664 9.00162 12.6184 8.99584 12.6762 8.97849C12.9826 8.886 13.1561 8.56225 13.0578 8.25585L12.497 6.41166C12.445 6.23823 12.4739 6.04745 12.5837 5.87402C12.7052 5.67746 12.9075 5.52715 13.1561 5.45199C13.6359 5.30747 14.1215 5.49824 14.2372 5.8798C14.2372 5.8798 14.3239 6.16886 14.3239 6.17464L14.4857 6.70072L14.7979 7.72399C14.8904 8.03039 15.2142 8.20382 15.5206 8.11132C15.827 8.01882 16.0004 7.69508 15.9021 7.38868L15.59 6.36542L15.4281 5.83933C15.2604 5.2959 15.5148 4.72935 15.9946 4.58482C16.2201 4.51545 16.4629 4.55014 16.6768 4.67732C16.9081 4.81607 17.0815 5.03575 17.1682 5.31325L19.0471 11.4817C19.1511 11.8286 19.1974 12.187 19.18 12.5455C19.0471 15.1123 19.6599 17.9161 20.9953 20.8761L21.9261 22.9342C22.0244 23.1481 22.2325 23.2753 22.4522 23.2753C22.5331 23.2753 22.614 23.2579 22.6892 23.2232C23.0361 23.0787 23.1632 22.7376 23.0303 22.4486Z" fill="currentColor"/>
</svg>
