<svg width="24" height="24" viewBox="0 0 24 24" fill="none" xmlns="http://www.w3.org/2000/svg">
<path d="M20.6657 7.69695C20.6657 7.54639 20.6078 7.39583 20.4977 7.28581L14.7187 1.50678C14.4929 1.28094 14.1281 1.28094 13.9022 1.50678C13.6764 1.73261 13.6764 2.09741 13.9022 2.32325L18.6969 7.11789L3.3691 7.14683C3.05062 7.14683 2.79004 7.40741 2.79004 7.72589C2.79004 8.04438 3.05062 8.30496 3.3691 8.30496L18.6853 8.27601L13.8675 13.0938C13.6417 13.3196 13.6417 13.6844 13.8675 13.9103C13.9833 14.0261 14.1281 14.0782 14.2786 14.0782C14.4292 14.0782 14.5739 14.0203 14.6898 13.9103L20.4977 8.10229C20.4977 8.07913 20.573 8.01543 20.5846 7.98648C20.6136 7.93436 20.6367 7.87645 20.6483 7.81855C20.6657 7.78959 20.6715 7.74327 20.6657 7.69695Z" fill="currentColor"/>
<path d="M20.0689 16.377L4.77006 16.4059L9.58785 11.5881C9.81368 11.3623 9.81368 10.9975 9.58785 10.7717C9.36201 10.5458 8.9972 10.5458 8.77137 10.7717C8.77137 10.7717 3.1371 16.4059 2.96917 16.5739C2.9518 16.5912 2.93443 16.6144 2.91706 16.6376C2.89969 16.6607 2.88231 16.6839 2.87073 16.7071C2.84178 16.7534 2.82441 16.8055 2.80704 16.8576C2.78966 16.9213 2.78967 16.9908 2.79546 17.0545C2.81862 17.2629 2.9518 17.3903 3.09077 17.5293C3.20659 17.6451 3.31661 17.7552 3.43242 17.871C3.60035 18.0389 3.77407 18.2126 3.942 18.3805C4.15625 18.5948 4.36471 18.8033 4.57896 19.0175C4.81638 19.2549 5.0538 19.4923 5.29121 19.7298C5.54021 19.9788 5.7892 20.2277 6.0382 20.4767C6.2814 20.7199 6.5304 20.9689 6.77361 21.2122C6.99944 21.438 7.22527 21.6638 7.45111 21.8897C7.6422 22.0807 7.83908 22.2776 8.03017 22.4687C8.17493 22.6135 8.3197 22.7583 8.45868 22.8972C8.53975 22.9783 8.62082 23.0594 8.6961 23.1346C8.70768 23.1462 8.71926 23.1578 8.73084 23.1694C8.84665 23.2852 8.99141 23.3373 9.14197 23.3373C9.29252 23.3373 9.43729 23.2794 9.5531 23.1694C9.77894 22.9435 9.77894 22.5787 9.5531 22.3529L4.75847 17.5583L20.0631 17.5293C20.3816 17.5293 20.6421 17.2687 20.6421 16.9503C20.6479 16.6376 20.3931 16.377 20.0689 16.377Z" fill="currentColor"/>
</svg>
