<svg width="24" height="24" viewBox="0 0 24 24" fill="none" xmlns="http://www.w3.org/2000/svg">
<path d="M19.5676 16.0531H4.13548C3.6058 16.0439 3.10128 15.8254 2.73219 15.4454C2.36309 15.0654 2.15942 14.5547 2.16566 14.025V7.16559H17.015C17.4058 7.16787 17.787 7.28664 18.1098 7.50673C18.4327 7.72682 18.6826 8.03822 18.8275 8.4011C18.8568 8.47198 18.8999 8.53637 18.9542 8.59058C19.0085 8.64479 19.0729 8.68776 19.1439 8.717C19.2148 8.74623 19.2908 8.76117 19.3675 8.76096C19.4442 8.76076 19.5202 8.74542 19.5909 8.7158C19.7327 8.6565 19.8452 8.54362 19.9042 8.40174C19.9631 8.25985 19.9636 8.10044 19.9056 7.95817C19.6714 7.37784 19.2686 6.88107 18.7491 6.53201C18.2297 6.18295 17.6175 5.99765 16.9917 6.00002H1.58287C1.42831 6.00002 1.28008 6.06141 1.17079 6.17071C1.0615 6.28 1.00009 6.42824 1.00009 6.58281V14.025C0.993868 14.8638 1.32035 15.6709 1.90802 16.2695C2.4957 16.8681 3.29667 17.2094 4.13548 17.2186H19.5676C19.7222 17.2186 19.8704 17.1572 19.9797 17.0479C20.089 16.9386 20.1504 16.7904 20.1504 16.6359C20.1504 16.4813 20.089 16.333 19.9797 16.2238C19.8704 16.1145 19.7222 16.0531 19.5676 16.0531Z" fill="currentColor"/>
<path d="M11.3038 15.2196V14.5086C11.6589 14.4539 11.9886 14.2911 12.2479 14.0424C12.3928 13.8931 12.5057 13.7158 12.5798 13.5215C12.654 13.3271 12.6878 13.1197 12.6792 12.9118C12.6883 12.7075 12.6558 12.5035 12.5837 12.3122C12.5115 12.1208 12.4013 11.9461 12.2596 11.7987C11.9251 11.5001 11.5262 11.2827 11.094 11.1634C10.838 11.0967 10.5994 10.9755 10.3947 10.808C10.3424 10.7554 10.3019 10.6924 10.2758 10.6231C10.2497 10.5538 10.2386 10.4798 10.2431 10.4058C10.231 10.2429 10.2834 10.0818 10.3888 9.95708C10.4538 9.90043 10.5298 9.85776 10.612 9.83169C10.6942 9.80563 10.7809 9.79674 10.8667 9.80557C10.9523 9.80025 11.0377 9.8167 11.1152 9.85339C11.1927 9.89008 11.2596 9.94581 11.3096 10.0154C11.4404 10.207 11.5039 10.4365 11.4903 10.6681V10.8837H12.6559V10.6681C12.6768 10.2121 12.5433 9.76246 12.2771 9.39178C12.0649 9.0991 11.7547 8.8923 11.4029 8.80899V7.98145H10.4005V8.80317C10.065 8.86715 9.75872 9.03661 9.52631 9.28688C9.25659 9.59119 9.11464 9.98782 9.13002 10.3942C9.12187 10.6011 9.15589 10.8075 9.23003 11.0009C9.30417 11.1943 9.41687 11.3705 9.56128 11.519C9.89633 11.8155 10.2952 12.0308 10.7268 12.1484C10.9724 12.215 11.1996 12.3365 11.3912 12.5039C11.4446 12.5536 11.4868 12.6141 11.515 12.6815C11.5431 12.7488 11.5565 12.8214 11.5544 12.8943C11.5602 12.9771 11.5469 13.06 11.5156 13.1368C11.4842 13.2136 11.4357 13.2822 11.3737 13.3372C11.2058 13.4607 10.9986 13.5187 10.7909 13.5004C10.596 13.5088 10.4049 13.4444 10.2548 13.3198C10.1781 13.2377 10.1201 13.14 10.0849 13.0333C10.0496 12.9266 10.038 12.8136 10.0508 12.702V12.4864H9.15915H9.00181L8.94353 12.6262V12.702C8.92371 12.9348 8.95289 13.1691 9.02918 13.39C9.10546 13.6108 9.22717 13.8132 9.38645 13.9841C9.64531 14.2335 9.97146 14.4016 10.3247 14.4678V15.1788L11.3038 15.2196Z" fill="currentColor"/>
<path d="M22.9941 14.0249C22.9941 14.0249 22.9941 14.0249 22.9941 13.9899C22.9943 13.9318 22.9824 13.8742 22.9592 13.8209C22.941 13.7748 22.9132 13.7331 22.8776 13.6985L21.4906 12.2765C21.4504 12.2353 21.4023 12.2025 21.3493 12.1801C21.2962 12.1578 21.2393 12.1462 21.1817 12.1462C21.1241 12.1462 21.0671 12.1578 21.0141 12.1801C20.961 12.2025 20.913 12.2353 20.8728 12.2765C20.791 12.3585 20.745 12.4696 20.745 12.5854C20.745 12.7012 20.791 12.8123 20.8728 12.8943L21.5139 13.5354H16.5719C16.4559 13.5354 16.3448 13.5814 16.2628 13.6634C16.1808 13.7453 16.1348 13.8565 16.1348 13.9724C16.1348 14.0884 16.1808 14.1995 16.2628 14.2815C16.3448 14.3635 16.4559 14.4095 16.5719 14.4095H21.5255L20.9019 15.0564C20.8201 15.1384 20.7741 15.2495 20.7741 15.3653C20.7741 15.4811 20.8201 15.5922 20.9019 15.6742C20.9419 15.7135 20.9892 15.7446 21.0413 15.7656C21.0933 15.7866 21.1489 15.7971 21.205 15.7966C21.2637 15.7962 21.3218 15.7842 21.3758 15.7612C21.4298 15.7381 21.4787 15.7046 21.5197 15.6625L22.8718 14.2755C22.8718 14.2755 22.8718 14.2405 22.8718 14.2289C22.8964 14.2002 22.9179 14.1689 22.9359 14.1356C22.9576 14.1 22.9771 14.063 22.9941 14.0249Z" fill="currentColor"/>
<path d="M17.9762 9.74135C18.0302 9.70433 18.0751 9.6557 18.1078 9.599C18.1404 9.5423 18.1599 9.47898 18.1648 9.41375C18.1697 9.34851 18.1599 9.283 18.1361 9.22206C18.1124 9.16111 18.0752 9.10627 18.0274 9.0616C17.9796 9.01693 17.9224 8.98357 17.86 8.96396C17.7976 8.94435 17.7315 8.93898 17.6668 8.94829C17.602 8.95759 17.5402 8.98133 17.4858 9.01772C17.4315 9.05411 17.3859 9.10224 17.3527 9.15856L16.0006 10.5281C15.9922 10.5444 15.9825 10.56 15.9715 10.5747C15.9468 10.6034 15.9253 10.6347 15.9073 10.668C15.9046 10.7107 15.9046 10.7535 15.9073 10.7962C15.9073 10.7962 15.9073 10.7962 15.9073 10.8312C15.9078 10.8874 15.9197 10.9429 15.9423 10.9943C15.9605 11.0405 15.9883 11.0822 16.0239 11.1167L17.4051 12.5096C17.4871 12.5914 17.5982 12.6374 17.714 12.6374C17.8298 12.6374 17.9409 12.5914 18.0229 12.5096C18.0641 12.4694 18.0969 12.4214 18.1193 12.3683C18.1416 12.3153 18.1532 12.2583 18.1532 12.2007C18.1532 12.1431 18.1416 12.0861 18.1193 12.0331C18.0969 11.98 18.0641 11.932 18.0229 11.8918L17.3818 11.2449H22.5628C22.6787 11.2449 22.7899 11.1989 22.8718 11.1169C22.9538 11.0349 22.9999 10.9238 22.9999 10.8079C22.9999 10.6919 22.9538 10.5808 22.8718 10.4988C22.7899 10.4168 22.6787 10.3708 22.5628 10.3708H17.3527L17.9762 9.74135Z" fill="currentColor"/>
</svg>
