<svg width="24" height="24" viewBox="0 0 24 24" fill="none" xmlns="http://www.w3.org/2000/svg">
<path d="M11.3168 13.2273C11.421 13.3084 11.5484 13.3489 11.6699 13.3489C11.8436 13.3489 12.0115 13.2736 12.1273 13.1289C12.3242 12.8742 12.2778 12.5152 12.0289 12.3184C11.0215 11.531 10.1936 10.79 9.51048 10.101C12.1215 7.40313 12.9436 5.03524 13.1868 4.02209H16.4694C16.7878 4.02209 17.0483 3.76157 17.0483 3.44315C17.0483 3.12473 16.7878 2.8642 16.4694 2.8642H9.60312V1.57894C9.60312 1.26053 9.34259 1 9.02417 1C8.70575 1 8.44523 1.26053 8.44523 1.57894V2.85841H1.57894C1.26053 2.85841 1 3.11894 1 3.43736C1 3.75578 1.26053 4.0163 1.57894 4.0163H11.9768C11.6815 4.99472 10.8594 6.97471 8.69996 9.23838C7.79102 8.21365 7.18313 7.31629 6.72576 6.56945C6.56366 6.29734 6.20471 6.2105 5.93261 6.3784C5.6605 6.54629 5.57366 6.89945 5.74156 7.17155C6.23366 7.98207 6.88787 8.94891 7.87786 10.0547C6.44787 11.3863 4.54893 12.7757 2.01894 14.0899C1.73526 14.2347 1.62526 14.5878 1.77579 14.8715C1.88 15.0684 2.08263 15.1841 2.29105 15.1841C2.38368 15.1841 2.47052 15.161 2.55736 15.1205C5.19735 13.7484 7.18313 12.301 8.68838 10.9057C9.40049 11.6294 10.2631 12.4052 11.3168 13.2273Z" fill="currentColor"/>
<path d="M22.9591 22.2067L17.5981 8.80993C17.5112 8.58993 17.297 8.44519 17.0597 8.44519C16.8223 8.44519 16.6081 8.58993 16.5213 8.80993L11.1602 22.2067C11.0386 22.502 11.1834 22.8378 11.4844 22.9593C11.7797 23.0751 12.1155 22.9362 12.2371 22.6351L13.8407 18.6346H20.2844L21.8881 22.6351C21.9749 22.8609 22.1891 22.9999 22.4207 22.9999C22.4902 22.9999 22.5654 22.9883 22.6349 22.9593C22.9302 22.8435 23.0749 22.502 22.9591 22.2067ZM14.3039 17.4767L17.0597 10.5815L19.8154 17.4767H14.3039Z" fill="currentColor"/>
</svg>
