<svg width="24" height="24" viewBox="0 0 24 24" fill="none" xmlns="http://www.w3.org/2000/svg">
<path d="M18.7829 13.172C16.6802 13.172 14.9656 14.9266 14.9656 17.0783C14.9656 19.2301 16.6802 20.9847 18.7829 20.9847C20.8855 20.9847 22.6001 19.2301 22.6001 17.0783C22.6001 14.9266 20.8855 13.172 18.7829 13.172ZM18.7829 14.3575C19.3042 14.3575 19.7908 14.5176 20.202 14.7843L16.5411 18.5306C16.2805 18.1098 16.1241 17.6118 16.1241 17.0783C16.1241 15.5786 17.3173 14.3575 18.7829 14.3575ZM18.7829 19.7992C18.2615 19.7992 17.775 19.6391 17.3637 19.3724L21.0246 15.6261C21.2852 16.0469 21.4416 16.5449 21.4416 17.0783C21.4416 18.5781 20.2484 19.7992 18.7829 19.7992Z" fill="currentColor"/>
<path d="M13.0833 15.2645H5.84262C4.55088 15.2645 3.49664 14.1857 3.49664 12.8638V5.89281H17.6072C18.899 5.89281 19.9532 6.97165 19.9532 8.29353V11.2218C19.9532 11.5478 20.2139 11.8146 20.5325 11.8146C20.8511 11.8146 21.1117 11.5478 21.1117 11.2218V8.29353C21.1117 6.31961 19.542 4.70728 17.6072 4.70728H2.91739C2.5988 4.70728 2.33813 4.97402 2.33813 5.30004V12.8638C2.33813 14.8377 3.90791 16.45 5.84262 16.45H13.0833C13.4019 16.45 13.6625 16.1833 13.6625 15.8573C13.6625 15.5312 13.4019 15.2645 13.0833 15.2645Z" fill="currentColor"/>
<path d="M16.6628 3.59277C16.6628 3.26675 16.4021 3 16.0835 3H1.17935C0.860762 3 0.600098 3.26675 0.600098 3.59277V11.2217C0.600098 11.5477 0.860762 11.8145 1.17935 11.8145C1.49794 11.8145 1.7586 11.5477 1.7586 11.2217V4.18554H16.0835C16.4021 4.18554 16.6628 3.91879 16.6628 3.59277Z" fill="currentColor"/>
<path d="M11.5426 10.1251C11.6932 9.92949 11.7685 9.70423 11.7685 9.44934C11.7685 9.04033 11.6353 8.72024 11.3689 8.49498C11.1024 8.26973 10.6911 8.1571 10.1293 8.1571H8.10767V12.8815H10.1988C10.7491 12.8815 11.1661 12.7689 11.4557 12.5377C11.7454 12.3065 11.8844 11.9923 11.8844 11.5833C11.8844 11.3047 11.7975 11.0676 11.6237 10.8661C11.45 10.6645 11.2067 10.54 10.8823 10.4926C11.1719 10.4333 11.392 10.3089 11.5426 10.1132V10.1251ZM9.04606 8.93363H10.0076C10.5174 8.93363 10.7722 9.13517 10.7722 9.54418C10.7722 9.9532 10.5174 10.1547 10.0076 10.1547H9.04606V8.93956V8.93363ZM10.6969 11.9805C10.5695 12.0931 10.3783 12.1464 10.1177 12.1464H9.04606V10.9076H10.1177C10.3783 10.9076 10.5695 10.9609 10.6969 11.0676C10.8244 11.1743 10.8881 11.3284 10.8881 11.524C10.8881 11.7196 10.8244 11.8738 10.6969 11.9805Z" fill="currentColor"/>
<path d="M15.3482 12.3895C15.4698 12.2117 15.5278 12.0042 15.5278 11.7789C15.5278 11.5537 15.4524 11.3344 15.3018 11.1684C15.1512 11.0024 14.908 10.8779 14.5604 10.8068L13.8479 10.6586C13.6741 10.623 13.5583 10.5756 13.4888 10.5163C13.4251 10.463 13.3903 10.3978 13.3903 10.3207C13.3903 10.2437 13.4135 10.1785 13.4598 10.131C13.5062 10.0836 13.5757 10.0421 13.6683 10.0125C13.761 9.98284 13.8711 9.97098 14.0043 9.97098C14.1839 9.97098 14.3577 10.0125 14.5256 10.1014C14.6936 10.1903 14.8269 10.3148 14.9253 10.4867L15.4988 9.9117C15.3482 9.69238 15.1454 9.5264 14.8848 9.41378C14.6241 9.30115 14.3229 9.2478 13.9696 9.2478C13.6162 9.2478 13.344 9.30115 13.1181 9.40785C12.8922 9.51455 12.7184 9.65681 12.6025 9.82872C12.4867 10.0006 12.4287 10.1844 12.4287 10.38C12.4287 10.6586 12.5156 10.8838 12.6836 11.0557C12.8516 11.2277 13.1412 11.3581 13.5467 11.447L14.1607 11.5774C14.3171 11.613 14.4156 11.6544 14.4677 11.7078C14.5199 11.7611 14.543 11.8264 14.543 11.9034C14.543 12.022 14.4909 12.1109 14.3808 12.1642C14.2708 12.2176 14.126 12.2472 13.9464 12.2472C13.6915 12.2472 13.4656 12.1939 13.2803 12.0812C13.0949 11.9686 12.9443 11.8323 12.8342 11.6604L12.2839 12.2354C12.4635 12.4725 12.701 12.6503 12.9964 12.7807C13.286 12.9111 13.6104 12.9763 13.9638 12.9763C14.3171 12.9763 14.5836 12.923 14.8153 12.8222C15.047 12.7214 15.2207 12.5792 15.3424 12.4013L15.3482 12.3895Z" fill="currentColor"/>
</svg>
