<svg width="24" height="24" viewBox="0 0 24 24" fill="none" xmlns="http://www.w3.org/2000/svg">
<path d="M19.5675 16.053H4.13545C3.60578 16.0438 3.10127 15.8253 2.73218 15.4453C2.36308 15.0653 2.15941 14.5546 2.16565 14.0249V7.16559H17.0149C17.4057 7.16786 17.7868 7.28663 18.1097 7.50672C18.4326 7.72681 18.6824 8.03821 18.8274 8.40108C18.8567 8.47197 18.8998 8.53635 18.9541 8.59056C19.0083 8.64477 19.0728 8.68774 19.1437 8.71698C19.2147 8.74622 19.2907 8.76115 19.3674 8.76094C19.4441 8.76074 19.52 8.7454 19.5908 8.71579C19.7325 8.65648 19.8451 8.5436 19.9041 8.40172C19.963 8.25984 19.9635 8.10043 19.9055 7.95816C19.6713 7.37783 19.2684 6.88107 18.749 6.53201C18.2296 6.18295 17.6174 5.99765 16.9916 6.00002H1.58287C1.42831 6.00002 1.28008 6.06141 1.17079 6.17071C1.0615 6.28 1.00009 6.42824 1.00009 6.5828V14.0249C0.993868 14.8637 1.32034 15.6709 1.90802 16.2694C2.49569 16.868 3.29665 17.2093 4.13545 17.2186H19.5675C19.7221 17.2186 19.8703 17.1572 19.9796 17.0479C20.0889 16.9386 20.1503 16.7903 20.1503 16.6358C20.1503 16.4812 20.0889 16.333 19.9796 16.2237C19.8703 16.1144 19.7221 16.053 19.5675 16.053Z" fill="currentColor"/>
<path d="M22.9708 14.1589C22.9764 14.1164 22.9764 14.0733 22.9708 14.0307C22.9708 14.0307 22.9708 14.0307 22.9708 13.9957C22.9701 13.9382 22.9603 13.8812 22.9416 13.8267C22.9192 13.7829 22.8919 13.7419 22.8601 13.7044L21.4905 12.2765C21.4503 12.2353 21.4023 12.2025 21.3493 12.1801C21.2962 12.1578 21.2392 12.1462 21.1817 12.1462C21.1241 12.1462 21.0671 12.1578 21.014 12.1801C20.961 12.2025 20.913 12.2353 20.8728 12.2765C20.7909 12.3585 20.7449 12.4696 20.7449 12.5854C20.7449 12.7012 20.7909 12.8123 20.8728 12.8943L21.5138 13.5353H16.5719C16.4559 13.5353 16.3448 13.5814 16.2628 13.6634C16.1808 13.7453 16.1348 13.8565 16.1348 13.9724C16.1348 14.0884 16.1808 14.1995 16.2628 14.2815C16.3448 14.3635 16.4559 14.4095 16.5719 14.4095H21.5313L20.9019 15.0564C20.84 15.1167 20.7976 15.1943 20.7803 15.279C20.763 15.3637 20.7715 15.4516 20.8048 15.5314C20.8381 15.6112 20.8946 15.6792 20.967 15.7264C21.0394 15.7737 21.1243 15.7981 21.2108 15.7965C21.2695 15.7962 21.3276 15.7841 21.3816 15.7611C21.4356 15.7381 21.4845 15.7046 21.5255 15.6625L22.8776 14.2755C22.8776 14.2755 22.8776 14.2405 22.8776 14.2289C22.9111 14.209 22.9424 14.1856 22.9708 14.1589Z" fill="currentColor"/>
<path d="M17.9821 9.74137C18.0353 9.65516 18.0569 9.55316 18.0433 9.45278C18.0296 9.35241 17.9815 9.2599 17.9071 9.19108C17.8328 9.12225 17.7369 9.08138 17.6358 9.07546C17.5346 9.06953 17.4346 9.09891 17.3527 9.15858L16.0007 10.5281C15.9923 10.5445 15.9825 10.56 15.9715 10.5747C15.9468 10.6022 15.9271 10.6337 15.9132 10.668C15.9078 10.7106 15.9078 10.7536 15.9132 10.7962C15.9132 10.7962 15.9132 10.7962 15.9132 10.8312C15.9137 10.8874 15.9256 10.9429 15.9482 10.9943C15.9664 11.0405 15.9942 11.0822 16.0298 11.1167L17.411 12.5096C17.4942 12.5895 17.6045 12.6353 17.7199 12.6378C17.8355 12.6364 17.9462 12.5905 18.0287 12.5096C18.07 12.4694 18.1027 12.4214 18.1251 12.3683C18.1475 12.3153 18.159 12.2583 18.159 12.2007C18.159 12.1431 18.1475 12.0861 18.1251 12.0331C18.1027 11.98 18.07 11.932 18.0287 11.8918L17.3877 11.245H22.5628C22.6787 11.245 22.7899 11.1989 22.8719 11.1169C22.9538 11.0349 22.9999 10.9238 22.9999 10.8079C22.9999 10.6919 22.9538 10.5808 22.8719 10.4988C22.7899 10.4168 22.6787 10.3708 22.5628 10.3708H17.3527L17.9821 9.74137Z" fill="currentColor"/>
<path d="M10.1794 10.5282C10.1893 10.3567 10.1591 10.1854 10.0914 10.0276C10.0236 9.86979 9.92005 9.72993 9.78893 9.61905C9.44643 9.38699 9.03612 9.2762 8.62337 9.30434H6.7002V13.681H8.68748C9.11277 13.7083 9.53505 13.5935 9.88801 13.3547C10.0255 13.2477 10.1354 13.1093 10.2084 12.9512C10.2814 12.793 10.3154 12.6196 10.3076 12.4455C10.3116 12.1922 10.22 11.9467 10.0512 11.7578C9.92894 11.6199 9.77197 11.5173 9.59662 11.4606C9.74741 11.4033 9.87878 11.3042 9.97542 11.1751C10.1174 10.9902 10.1896 10.7611 10.1794 10.5282ZM7.6851 11.9035H8.57675C8.74887 11.8903 8.92063 11.9333 9.06629 12.0259C9.1164 12.0699 9.15563 12.1249 9.18091 12.1866C9.20619 12.2482 9.21682 12.3149 9.21198 12.3814C9.2148 12.4482 9.20266 12.5148 9.17645 12.5763C9.15023 12.6378 9.1106 12.6927 9.06045 12.7369C8.91941 12.8354 8.74807 12.8809 8.57675 12.8651H7.66761L7.6851 11.9035ZM8.49515 11.076H7.6851V10.1319H8.49515C9.07794 10.1319 9.11874 10.4 9.11874 10.604C9.11874 10.8079 9.05463 11.111 8.49515 11.111V11.076Z" fill="currentColor"/>
<path d="M12.0034 11.1109C12.0964 11.0856 12.1925 11.0739 12.2889 11.0759C12.4435 11.0753 12.5957 11.1134 12.7318 11.1866C12.873 11.256 12.9906 11.3654 13.0698 11.5013L13.1223 11.5771L13.7575 10.9593L13.7167 10.9069C13.5709 10.6977 13.3688 10.5341 13.134 10.4348C12.8568 10.3296 12.562 10.2781 12.2656 10.2833C11.9877 10.2728 11.7109 10.3246 11.4555 10.4348C11.2548 10.5177 11.0812 10.6549 10.9543 10.8311C10.8449 10.9885 10.7859 11.1756 10.7853 11.3673C10.7813 11.4887 10.8019 11.6097 10.846 11.7229C10.8901 11.8361 10.9567 11.9391 11.0418 12.0258C11.2776 12.2236 11.5644 12.3508 11.8693 12.393L12.4521 12.5096C12.5428 12.5202 12.6292 12.5543 12.7027 12.6086C12.7325 12.6424 12.7491 12.6859 12.7493 12.731C12.7515 12.7673 12.7419 12.8034 12.722 12.8339C12.702 12.8643 12.6728 12.8875 12.6386 12.9C12.523 12.9501 12.3972 12.972 12.2714 12.9641C12.0686 12.9737 11.8669 12.9274 11.6886 12.8301C11.5351 12.7423 11.4036 12.6207 11.304 12.4746L11.2516 12.3988L10.6396 13.0224L10.6746 13.0748C10.8587 13.2953 11.0923 13.4691 11.3565 13.5819C11.6462 13.7031 11.9574 13.7646 12.2714 13.7625C12.5485 13.7685 12.8239 13.719 13.0815 13.6168C13.2863 13.5326 13.4637 13.3935 13.5943 13.2147C13.7089 13.042 13.7698 12.8392 13.7692 12.6319C13.7695 12.4171 13.6907 12.2096 13.5477 12.0491C13.3499 11.86 13.0966 11.7395 12.8251 11.7053L12.1724 11.5713C12.0666 11.5558 11.9653 11.518 11.8751 11.4606C11.8562 11.4461 11.8406 11.4276 11.8295 11.4065C11.8184 11.3853 11.8121 11.362 11.811 11.3382C11.8107 11.3166 11.8147 11.2952 11.8227 11.2752C11.8307 11.2552 11.8426 11.237 11.8577 11.2216C11.8966 11.1735 11.9466 11.1355 12.0034 11.1109Z" fill="currentColor"/>
</svg>
