<svg width="19" height="23" viewBox="0 0 19 23" fill="none" xmlns="http://www.w3.org/2000/svg">
<path d="M17.8947 3.22682H13.5005V0.74893C13.5005 0.430509 13.24 0.169983 12.9216 0.169983H5.82369C5.50526 0.169983 5.24474 0.430509 5.24474 0.74893V3.22682H0.838957C0.520536 3.22682 0.26001 3.48735 0.26001 3.80577C0.26001 4.12419 0.520536 4.38472 0.838957 4.38472H1.72475L2.55843 18.8931C2.66264 20.7284 4.19106 22.17 6.03212 22.17H15.5211C15.8279 22.17 16.0826 21.9268 16.1 21.62L17.0205 4.38472H17.8947C18.2132 4.38472 18.4737 4.12419 18.4737 3.80577C18.4737 3.48735 18.2132 3.22682 17.8947 3.22682ZM6.40263 1.32788H12.3426V3.22682H6.40263V1.32788ZM14.9711 21.0121H6.03212C4.80475 21.0121 3.7858 20.051 3.71633 18.8237L2.88842 4.38472H15.8626L14.9711 21.0121Z" fill="currentColor"/>
<path d="M9.37265 6.78735C9.05423 6.78735 8.7937 7.04788 8.7937 7.3663V18.0421C8.7937 18.3605 9.05423 18.621 9.37265 18.621C9.69107 18.621 9.9516 18.3605 9.9516 18.0421V7.3663C9.9516 7.04209 9.69107 6.78735 9.37265 6.78735Z" fill="currentColor"/>
<path d="M5.82376 6.78735C5.50534 6.78735 5.24481 7.04788 5.24481 7.3663V18.0421C5.24481 18.3605 5.50534 18.621 5.82376 18.621C6.14218 18.621 6.40271 18.3605 6.40271 18.0421V7.3663C6.40271 7.04209 6.14218 6.78735 5.82376 6.78735Z" fill="currentColor"/>
<path d="M12.3426 7.3663V18.0421C12.3426 18.3605 12.6031 18.621 12.9215 18.621C13.24 18.621 13.5005 18.3605 13.5005 18.0421V7.3663C13.5005 7.04788 13.24 6.78735 12.9215 6.78735C12.6031 6.78735 12.3426 7.04209 12.3426 7.3663Z" fill="currentColor"/>
</svg>
