<svg width="24" height="24" viewBox="0 0 24 24" fill="none" xmlns="http://www.w3.org/2000/svg">
<path d="M18.4735 6.39306C18.1267 3.36416 15.4678 1 12.2481 1C9.70476 1 7.43309 2.46821 6.45621 4.73988C6.24234 5.23121 6.12095 5.78035 6.07471 6.3815C3.56603 6.90751 1.68164 9.06936 1.68164 11.6532C1.68164 14.6301 4.18453 17.052 7.25389 17.052H11.9533V22.422C11.9533 22.7399 12.2134 23 12.5314 23C12.8493 23 13.1094 22.7399 13.1094 22.422V17.052H17.2481C20.3233 17.052 22.8204 14.6301 22.8204 11.6532C22.8146 9.11561 20.9996 6.9422 18.4735 6.39306ZM17.2423 15.896H13.1036V12.2717L16.9938 10.3121C17.277 10.1676 17.3926 9.82081 17.2481 9.53757C17.1036 9.25433 16.7568 9.13873 16.4735 9.28324L13.1036 10.9827V9.80347C13.1036 9.48555 12.8435 9.22543 12.5256 9.22543C12.2077 9.22543 11.9475 9.48555 11.9475 9.80347V15.9017H7.24811C4.81459 15.9017 2.83193 14 2.83193 11.659C2.83193 9.31792 4.81459 7.41618 7.24811 7.41618H9.61806C9.93598 7.41618 10.1961 7.15607 10.1961 6.83815C10.1961 6.52023 9.93598 6.26012 9.61806 6.26012H7.24811C7.24811 6.26012 7.24812 6.26012 7.24234 6.26012C7.28858 5.87283 7.37528 5.52023 7.51401 5.20231C8.3117 3.34682 10.1672 2.15607 12.2481 2.15607C15.0689 2.15607 17.3637 4.35838 17.3637 7.06936V8.60694C17.3637 8.92485 17.6238 9.18497 17.9418 9.18497C18.2597 9.18497 18.5198 8.92485 18.5198 8.60694V7.58959C20.3637 8.12139 21.6643 9.75723 21.6643 11.6474C21.6585 13.9884 19.6759 15.896 17.2423 15.896Z" fill="currentColor"/>
</svg>
