<svg width="24" height="24" viewBox="0 0 24 24" fill="none" xmlns="http://www.w3.org/2000/svg">
<path d="M5.17858 23.0015C4.86015 23.0015 4.59961 22.7409 4.59961 22.4225V15.0406C4.59961 15.0348 4.59961 15.0233 4.59961 15.0175V1.57956C4.59961 1.37692 4.70382 1.19165 4.87173 1.08744C5.04542 0.983222 5.25385 0.971643 5.43333 1.06428L18.8307 7.78612C19.0275 7.88455 19.1491 8.08719 19.1491 8.30141C19.1491 8.51563 19.0275 8.71827 18.8307 8.81669L5.75755 15.3822V22.4225C5.75755 22.7409 5.49701 23.0015 5.17858 23.0015ZM5.75755 2.51749V14.0853L17.2849 8.30141L5.75755 2.51749Z" fill="currentColor"/>
</svg>
