<svg width="24" height="24" viewBox="0 0 24 24" fill="none" xmlns="http://www.w3.org/2000/svg">
<path d="M22.4268 13.0474C21.9753 12.3468 21.3616 11.7853 20.5916 11.38L18.5247 8.54895C18.4437 8.43895 18.3279 8.35789 18.1947 8.32894C18.1484 8.31737 17.0311 8.05105 14.2868 8.05684C14.1884 6.23315 12.6774 4.78 10.8305 4.78H1.57895C1.26053 4.78 1 5.04053 1 5.35895V13.0937V14.6453C1 15.6642 1.67158 16.5268 2.59211 16.8337C2.58053 16.9205 2.56316 17.0074 2.56316 17.1C2.56316 18.2926 3.53 19.2595 4.72263 19.2595C5.91526 19.2595 6.88789 18.2868 6.88789 17.1C6.88789 17.0421 6.87632 16.99 6.87053 16.9379H13.3895L14.1132 17.6616C14.2232 17.7716 14.3679 17.8295 14.5242 17.8295H16.8111C16.8689 17.8295 16.9211 17.8237 16.9789 17.8063L17.7026 17.5921C17.9226 18.5474 18.7795 19.2653 19.8042 19.2653C20.8753 19.2653 21.7553 18.4837 21.9289 17.4647H22.4211C22.7395 17.4647 23 17.2042 23 16.8858V15.0389C23 14.3153 22.8032 13.6263 22.4268 13.0474ZM2.15789 5.93789H10.8305C12.1042 5.93789 13.1405 6.97421 13.1405 8.24789V8.64158V12.5147H2.15789V5.93789ZM4.72263 18.1016C4.16684 18.1016 3.72105 17.65 3.72105 17.1C3.72105 16.5442 4.17263 16.0926 4.72263 16.0926C5.27842 16.0926 5.73 16.5442 5.73 17.1C5.73 17.65 5.27842 18.1016 4.72263 18.1016ZM19.7984 18.1016C19.2426 18.1016 18.7911 17.65 18.7911 17.1C18.7911 16.5442 19.2426 16.0926 19.7984 16.0926C20.3542 16.0926 20.8058 16.5442 20.8058 17.1C20.8 17.65 20.3484 18.1016 19.7984 18.1016ZM21.8421 16.3011H21.8016C21.4832 15.5021 20.7074 14.9347 19.7926 14.9347C18.8605 14.9347 18.0732 15.5253 17.7721 16.3532L16.7184 16.6658H14.7558L14.0321 15.9421C13.9221 15.8321 13.7774 15.7742 13.6211 15.7742H6.42474C6.03105 15.2647 5.41737 14.9347 4.72842 14.9347C4.03947 14.9347 3.43737 15.2647 3.03789 15.7626C2.53421 15.6353 2.15789 15.1837 2.15789 14.6453V13.6726H13.7195C14.0379 13.6726 14.2984 13.4121 14.2984 13.0937V9.21473C14.3042 9.21473 14.31 9.21473 14.31 9.21473C16.2495 9.21473 17.3147 9.34789 17.7258 9.41737L19.7405 12.1732C19.7926 12.2484 19.8679 12.3121 19.9489 12.3526C20.5858 12.6653 21.0895 13.1111 21.4484 13.6726C21.7032 14.0721 21.8363 14.5411 21.8363 15.0389V16.3011H21.8421Z" fill="currentColor"/>
</svg>
