<svg width="24" height="25" viewBox="0 0 24 25" fill="none" xmlns="http://www.w3.org/2000/svg">
<path d="M7.32333 23.104C7.28273 23.104 7.24212 23.0982 7.20152 23.0924C7.01012 23.0518 6.85351 22.9185 6.77811 22.7331L5.26425 18.8324L1.37231 17.3313C1.1867 17.2617 1.0533 17.1053 1.01269 16.9082C0.972093 16.7169 1.0301 16.5199 1.1693 16.3808L2.43955 15.1115C2.53235 15.0187 2.64836 14.9608 2.77596 14.9434L7.06232 14.3986L10.8035 10.0169L1.69132 4.85273C1.53471 4.76579 1.43031 4.6093 1.40711 4.42963C1.37811 4.24996 1.44191 4.07028 1.56952 3.94277L2.83976 2.67347C2.97897 2.53437 3.17617 2.47641 3.36758 2.51698L15.693 5.06718C16.1223 4.64987 17.1199 3.71673 18.2219 2.85894C19.6198 1.76931 21.6035 0.442052 22.6417 1.47952C24.0917 2.92849 20.7856 6.66105 19.0514 8.423L21.6035 20.7335C21.6441 20.9247 21.5861 21.1218 21.4468 21.2609L20.1766 22.5302C20.049 22.6577 19.8692 22.7215 19.6894 22.6925C19.5096 22.6693 19.353 22.5592 19.2602 22.4027L14.0922 13.2973L9.68981 17.0183L9.1736 21.3247C9.1562 21.4522 9.09819 21.5739 9.00539 21.6666L7.73514 22.9359C7.61914 23.0402 7.47413 23.104 7.32333 23.104ZM2.61935 16.5662L5.91968 17.8413C6.07048 17.8993 6.19229 18.021 6.25029 18.1717L7.53214 21.4812L8.03095 20.9827L8.54717 16.6474C8.56457 16.5025 8.63418 16.3692 8.75018 16.2706L13.8602 11.9527C13.9936 11.8426 14.1676 11.7904 14.3358 11.8252C14.504 11.8542 14.6548 11.9585 14.736 12.1092L19.875 21.1624L20.3854 20.6523L17.8333 8.34186C17.7927 8.15059 17.8507 7.95353 17.9899 7.81443C20.5768 5.22946 22.1893 2.67927 21.8007 2.29094C21.412 1.90262 18.86 3.51388 16.2731 6.09885C16.1339 6.23795 15.9366 6.29591 15.7452 6.25534L3.43718 3.71094L2.92677 4.22098L11.9867 9.35614C12.1375 9.44308 12.2419 9.58798 12.2709 9.76185C12.2999 9.93573 12.2535 10.1096 12.1433 10.2371L7.79895 15.3259C7.70614 15.436 7.57274 15.5056 7.43353 15.523L3.12397 16.0678L2.61935 16.5662Z" fill="currentColor"/>
</svg>
