<svg width="24" height="24" viewBox="0 0 24 24" fill="none" xmlns="http://www.w3.org/2000/svg">
<path d="M22.943 10.7521C21.7912 5.98209 17.6146 2.62566 12.7341 2.49769V1.67167C12.7341 1.35173 12.4724 1.08997 12.1524 1.08997C11.8325 1.08997 11.5707 1.35173 11.5707 1.67167V2.49769C6.73677 2.63148 2.57177 5.94137 1.3851 10.659C1.30366 10.9847 1.46654 11.3279 1.77484 11.4617C2.08896 11.6013 2.44961 11.4908 2.64158 11.2058C3.13602 10.4554 4.03766 10.0424 5.1778 10.0424C6.40519 10.0424 7.52788 10.6124 7.90599 11.4268C8.03978 11.706 8.31318 11.8864 8.62148 11.8864C8.92978 11.8864 9.20319 11.7119 9.33698 11.4326C9.66855 10.723 10.5702 10.1994 11.6173 10.0715V19.5823C11.6173 21.5194 13.1937 23.09 15.1249 23.09H15.1889C15.5088 23.09 15.7706 22.8282 15.7706 22.5083C15.7706 22.1883 15.5088 21.9266 15.1889 21.9266H15.1249C13.8335 21.9266 12.7807 20.8737 12.7807 19.5823V10.1064C13.7521 10.2692 14.5723 10.7637 14.8864 11.4326C15.0202 11.7119 15.2936 11.8864 15.6019 11.8864C15.9102 11.8864 16.1836 11.7119 16.3174 11.4268C16.7013 10.6008 17.8066 10.0424 19.063 10.0424C20.2497 10.0424 21.1455 10.4728 21.6691 11.2872C21.8552 11.5781 22.2159 11.6886 22.5358 11.5548C22.8499 11.421 23.0186 11.0836 22.943 10.7521ZM19.0689 8.87897C17.6088 8.87897 16.3174 9.45485 15.6019 10.3856C14.8748 9.46649 13.5543 8.87897 12.1117 8.87897C10.6691 8.87897 9.34861 9.46649 8.62148 10.3914C7.90599 9.46649 6.59716 8.87897 5.17199 8.87897C4.38669 8.87897 3.66537 9.04184 3.05458 9.35015C4.58446 5.92392 7.99906 3.64946 11.8616 3.64946H12.4258C16.3058 3.64946 19.7204 5.93555 21.2444 9.37923C20.6278 9.05348 19.8891 8.87897 19.0689 8.87897Z" fill="currentColor"/>
</svg>
