<svg width="22" height="20" viewBox="0 0 22 20" fill="none" xmlns="http://www.w3.org/2000/svg">
<path d="M0.0100098 5.61158C0.0100098 5.76211 0.0679038 5.91264 0.172114 6.01685L4.52001 10.4805C4.6358 10.5963 4.78633 10.6542 4.93686 10.6542C5.08159 10.6542 5.22633 10.6021 5.34212 10.4921C5.5737 10.2663 5.5737 9.90158 5.3537 9.67579L1.96107 6.19053H14.7326C18.1079 6.19053 20.8521 8.93474 20.8521 12.31C20.8521 15.6853 18.1079 18.4295 14.7326 18.4295H3.56475C3.24633 18.4295 2.9858 18.69 2.9858 19.0084C2.9858 19.3268 3.24633 19.5874 3.56475 19.5874H14.7326C18.7448 19.5874 22.01 16.3221 22.01 12.31C22.01 8.2979 18.7448 5.03264 14.7326 5.03264H1.98422L5.45212 1.55316C5.67791 1.32737 5.67791 0.962636 5.45212 0.736847C5.22633 0.511058 4.86159 0.511058 4.6358 0.736847L0.183696 5.20053C0.120012 5.26421 0.0737014 5.35685 0.044754 5.4379C0.0158067 5.49579 0.0100098 5.55369 0.0100098 5.61158Z" fill="currentColor"/>
</svg>
