<svg width="24" height="25" viewBox="0 0 24 25" fill="none" xmlns="http://www.w3.org/2000/svg">
<path d="M12.0498 23.7981C10.54 23.7981 9.10143 23.4936 7.79178 22.9433V8.57508H12.8978V15.4557H14.6721V8.57508H14.6756V6.80083H14.6721V6.79979H12.8978V6.80083H7.79178V6.79805H6.01753V21.997C3.02561 20.0311 1.0498 16.6457 1.0498 12.7981C1.0498 6.72297 5.97468 1.7981 12.0498 1.7981C13.572 1.7981 15.0217 2.1073 16.3401 2.66632V16.8894H11.2333V10.0088H9.45907V16.8894H9.45558V18.6637H9.45907V18.6647H11.2333V18.6637H16.3401V18.6691H18.1143V3.62025C21.0881 5.58926 23.0498 8.96443 23.0498 12.7981C23.0498 18.8732 18.1249 23.7981 12.0498 23.7981Z" fill="currentColor"/>
</svg>
