<svg width="20" height="23" viewBox="0 0 20 23" fill="none" xmlns="http://www.w3.org/2000/svg">
<path d="M19.0685 21.028H1.15068C0.831346 21.028 0.570068 21.2893 0.570068 21.6086C0.570068 21.928 0.831346 22.1892 1.15068 22.1892H19.0685C19.3878 22.1892 19.6491 21.928 19.6491 21.6086C19.6491 21.2893 19.3878 21.028 19.0685 21.028Z" fill="currentColor"/>
<path d="M10.1096 17.7127C10.429 17.7127 10.6903 17.4514 10.6903 17.1321V2.14055L14.1856 5.54297C14.4178 5.76941 14.7836 5.7636 15.0042 5.53135C15.2307 5.2991 15.2249 4.93332 14.9926 4.71268L10.5161 0.352253C10.4638 0.299998 10.3883 0.259355 10.3245 0.230324C10.1212 0.149038 9.8774 0.189678 9.71483 0.340638C9.70902 0.346444 9.7032 0.346447 9.7032 0.352253L5.22665 4.81719C5.00021 5.04364 5.00021 5.40942 5.22665 5.63586C5.34278 5.75199 5.48793 5.80424 5.63889 5.80424C5.78985 5.80424 5.93501 5.74618 6.05114 5.63586L9.54063 2.15797V17.1263C9.52902 17.4514 9.7903 17.7127 10.1096 17.7127Z" fill="currentColor"/>
</svg>
