<svg width="22" height="23" viewBox="0 0 22 23" fill="none" xmlns="http://www.w3.org/2000/svg">
<path d="M17.4031 17.9753H4.59683C4.27841 17.9753 4.01788 18.2358 4.01788 18.5542C4.01788 18.8726 4.27841 19.1331 4.59683 19.1331H17.4031C17.7216 19.1331 17.9821 18.8726 17.9821 18.5542C17.9821 18.2358 17.7274 17.9753 17.4031 17.9753Z" fill="currentColor"/>
<path d="M7.79841 7.42104C7.94893 7.42104 8.09367 7.36314 8.20946 7.25314L10.421 5.04736V15.3526C10.421 15.671 10.6816 15.9316 11 15.9316C11.3184 15.9316 11.5789 15.671 11.5789 15.3526V5.01841L13.7963 7.17788C14.0279 7.40367 14.3926 7.39788 14.6126 7.1663C14.8384 6.93472 14.8326 6.56999 14.601 6.34999L11.3995 3.22946C11.2952 3.12525 11.1331 3.06735 10.9884 3.06735C10.8437 3.06735 10.6874 3.13104 10.5889 3.23525L7.38736 6.42525C7.16157 6.65104 7.16157 7.01577 7.38736 7.24156C7.50315 7.36314 7.64788 7.42104 7.79841 7.42104Z" fill="currentColor"/>
<path d="M18.5147 0.0799866H0.578947C0.260526 0.0799866 0 0.340513 0 0.658934V18.5947C0 20.5168 1.56315 22.08 3.48526 22.08H21.4211C21.7395 22.08 22 21.8195 22 21.501V3.56525C22 1.64314 20.4368 0.0799866 18.5147 0.0799866ZM20.8421 20.9221H3.48526C2.19999 20.9221 1.15789 19.88 1.15789 18.5947V1.23788H18.5147C19.7942 1.23788 20.8421 2.27998 20.8421 3.56525V20.9221Z" fill="currentColor"/>
</svg>
