<svg width="24" height="24" viewBox="0 0 24 24" fill="none" xmlns="http://www.w3.org/2000/svg">
<path d="M14.4577 21.848H5.47694C4.17328 21.848 3.11297 20.7877 3.11297 19.4841V14.5997C3.11297 12.931 4.34711 11.4651 5.98682 11.1754H6.19541C7.26151 12.2067 8.71002 12.8499 10.3092 12.8499C11.9199 12.8499 13.38 12.201 14.4461 11.1522C15.7266 11.3087 16.8333 12.1836 17.2852 13.4061C17.3721 13.6379 17.5923 13.7827 17.8299 13.7827C17.8994 13.7827 17.9631 13.7711 18.0326 13.748C18.3339 13.6379 18.4846 13.3018 18.3745 13.0005C17.853 11.5984 16.6768 10.5439 15.2689 10.1441C15.8657 9.22281 16.2191 8.12194 16.2191 6.93996C16.2191 3.6837 13.5654 1.03003 10.3092 1.03003C7.05292 1.03003 4.39925 3.6837 4.39925 6.93996C4.39925 8.12194 4.75269 9.21702 5.34947 10.1383C3.38529 10.6945 1.95996 12.5254 1.95996 14.5997V19.4841C1.95996 21.4251 3.54173 23.0069 5.48273 23.0069H14.4635C14.7822 23.0069 15.0429 22.7461 15.0429 22.4274C15.0429 22.1088 14.7764 21.848 14.4577 21.848ZM10.3092 2.19463C12.9281 2.19463 15.0603 4.32684 15.0603 6.94575C15.0603 9.56466 12.9281 11.6969 10.3092 11.6969C7.69027 11.6969 5.55806 9.56466 5.55806 6.94575C5.55806 4.32684 7.69027 2.19463 10.3092 2.19463Z" fill="currentColor"/>
<path d="M21.3987 14.7735C20.4833 14.0608 19.1912 13.916 18.1077 14.4085C17.8991 14.5012 17.7311 14.6055 17.5921 14.6982C17.453 14.5997 17.2792 14.5012 17.0764 14.4085C15.9755 13.9102 14.7124 14.0492 13.7796 14.7735C13.0611 15.3355 12.6787 16.1293 12.6787 17.0737C12.6787 19.0843 14.2257 21.06 17.285 22.9431C17.3777 23.001 17.482 23.03 17.5921 23.03C17.7021 23.03 17.8006 23.001 17.8991 22.9431C20.9584 21.06 22.5054 19.0843 22.5054 17.0737C22.5054 16.1351 22.123 15.3355 21.3987 14.7735ZM17.5921 21.7669C15.8133 20.6255 13.8375 18.9336 13.8375 17.0737C13.8375 16.4885 14.0519 16.0308 14.4922 15.689C14.8399 15.4166 15.2744 15.2776 15.7206 15.2776C16.0161 15.2776 16.3174 15.3413 16.5955 15.4688C16.9605 15.6368 17.1401 15.8338 17.1401 15.8338C17.2502 15.9671 17.4124 16.0424 17.5863 16.0424C17.7485 16.0308 17.9223 15.9671 18.0382 15.8396C18.0382 15.8396 18.2178 15.6368 18.5886 15.4688C19.2897 15.1501 20.1125 15.237 20.6919 15.689C21.1322 16.0308 21.3466 16.4885 21.3466 17.0737C21.3466 18.9336 19.3708 20.6255 17.5921 21.7669Z" fill="currentColor"/>
</svg>
