<svg width="24" height="24" viewBox="0 0 24 24" fill="none" xmlns="http://www.w3.org/2000/svg">
<path d="M18.1224 19.4809H18.1282V17.0674V14.8043V13.8493C18.1282 12.3328 17.1616 11.0421 15.7841 10.5675C16.1603 9.91924 16.3802 9.1726 16.3802 8.36807C16.3802 5.94871 14.4123 3.9808 11.993 3.9808C9.5736 3.9808 7.6057 5.94871 7.6057 8.36807C7.6057 9.16681 7.82564 9.91345 8.20185 10.5617C6.8359 11.0421 5.86353 12.3618 5.86353 13.8435V16.1876C5.86353 18.3002 7.58254 20.0192 9.69515 20.0192H17.561C17.8562 20.0192 18.0992 19.7819 18.1224 19.4809ZM11.993 5.13261C13.7757 5.13261 15.2226 6.58538 15.2226 8.36228C15.2226 10.145 13.7699 11.592 11.993 11.592C10.2161 11.592 8.76329 10.1392 8.76329 8.36228C8.76329 6.58538 10.2103 5.13261 11.993 5.13261ZM7.01532 16.1876V13.8435C7.01532 12.7322 7.83143 11.7598 8.91956 11.5572H8.98902C9.77618 12.2981 10.8296 12.7553 11.993 12.7553C13.1563 12.7553 14.2155 12.2981 14.9969 11.5572C16.1082 11.7309 16.9706 12.709 16.9706 13.8435V14.7985V18.8558H9.68357C8.21343 18.8616 7.01532 17.6635 7.01532 16.1876Z" fill="currentColor"/>
<path d="M1.57464 6.6201C1.89298 6.6201 2.15344 6.35964 2.15344 6.04131V3.06051C2.15344 2.56275 2.55859 2.15759 3.05636 2.15759H6.04294C6.36128 2.15759 6.62174 1.89713 6.62174 1.5788C6.62174 1.26046 6.36128 1 6.04294 1H3.05636C1.92192 1 0.99585 1.92607 0.99585 3.06051V6.04709C0.99585 6.36543 1.25631 6.6201 1.57464 6.6201Z" fill="currentColor"/>
<path d="M20.9296 1H17.9431C17.6247 1 17.3643 1.26046 17.3643 1.5788C17.3643 1.89713 17.6247 2.15759 17.9431 2.15759H20.9296C21.4274 2.15759 21.8326 2.56275 21.8326 3.06051V6.04709C21.8326 6.36543 22.093 6.62589 22.4114 6.62589C22.7297 6.62589 22.9901 6.36543 22.9901 6.04709V3.06051C22.9901 1.92607 22.0641 1 20.9296 1Z" fill="currentColor"/>
<path d="M6.03733 21.8366H3.05075C2.55298 21.8366 2.14782 21.4315 2.14782 20.9337V17.9471C2.14782 17.6288 1.88737 17.3683 1.56903 17.3683C1.25069 17.3683 0.990234 17.6288 0.990234 17.9471V20.9337C0.990234 22.0681 1.91631 22.9942 3.05075 22.9942H6.03733C6.35567 22.9942 6.61613 22.7337 6.61613 22.4154C6.61613 22.0971 6.36146 21.8366 6.03733 21.8366Z" fill="currentColor"/>
<path d="M22.4114 17.3741C22.093 17.3741 21.8326 17.6346 21.8326 17.9529V20.9395C21.8326 21.4373 21.4274 21.8424 20.9296 21.8424H17.9431C17.6247 21.8424 17.3643 22.1029 17.3643 22.4212C17.3643 22.7395 17.6247 23 17.9431 23H20.9296C22.0641 23 22.9901 22.0739 22.9901 20.9395V17.9529C22.9901 17.6288 22.7297 17.3741 22.4114 17.3741Z" fill="currentColor"/>
</svg>
