<svg width="25" height="24" viewBox="0 0 25 24" fill="none" xmlns="http://www.w3.org/2000/svg">
<path d="M23.0928 19.5209C23.0574 19.4089 22.9797 19.315 22.8762 19.2587L22.3552 18.9849C22.3552 18.9208 22.3552 18.8567 22.3552 18.7926C22.355 18.6211 22.3433 18.4498 22.3201 18.2799L22.8235 17.9478C22.9142 17.8842 22.9773 17.7887 23.0001 17.6806C23.0229 17.5725 23.0038 17.4598 22.9465 17.3652L21.8401 15.699C21.7753 15.6099 21.6794 15.5479 21.5712 15.5253C21.4629 15.5027 21.3501 15.521 21.2547 15.5767L20.7513 15.9087C20.6342 15.8388 20.5172 15.7747 20.3942 15.7165V15.1339C20.3942 15.018 20.348 14.9069 20.2656 14.8249C20.1833 14.743 20.0716 14.6969 19.9552 14.6969H17.9298C17.8719 14.6962 17.8145 14.7069 17.7609 14.7286C17.7072 14.7503 17.6585 14.7824 17.6176 14.8232C17.5767 14.8639 17.5444 14.9124 17.5226 14.9658C17.5008 15.0191 17.49 15.0763 17.4908 15.1339V15.7165C17.2716 15.8191 17.0636 15.9441 16.8703 16.0893L16.3317 15.8039C16.2305 15.7516 16.1127 15.7406 16.0035 15.7733C15.8942 15.8059 15.802 15.8795 15.7464 15.9787L14.798 17.7264C14.7475 17.8282 14.7381 17.9454 14.7719 18.0538C14.8057 18.1622 14.88 18.2536 14.9795 18.309L15.5181 18.5945C15.5181 18.6586 15.5181 18.7227 15.5181 18.7926C15.5174 18.9624 15.5311 19.132 15.559 19.2995L15.0615 19.6315C14.9708 19.6952 14.9077 19.7907 14.8849 19.8988C14.8621 20.0069 14.8812 20.1196 14.9385 20.2141L16.0449 21.8804C16.0761 21.928 16.1165 21.9689 16.1637 22.0009C16.211 22.0329 16.2641 22.0553 16.32 22.0668C16.3771 22.0798 16.4362 22.0808 16.4936 22.0697C16.5511 22.0587 16.6056 22.0359 16.6537 22.0027L17.1513 21.6765C17.2683 21.7464 17.3854 21.8105 17.5083 21.8687V22.4863C17.5083 22.6022 17.5546 22.7133 17.6369 22.7952C17.7193 22.8772 17.8309 22.9232 17.9474 22.9232H19.9552C20.0712 22.9217 20.182 22.8752 20.264 22.7936C20.346 22.712 20.3927 22.6017 20.3942 22.4863V21.8862C20.614 21.7845 20.822 21.6595 21.0147 21.5133L21.5357 21.793C21.5859 21.8202 21.641 21.8371 21.6979 21.8428C21.7548 21.8484 21.8122 21.8426 21.8667 21.8258C21.9213 21.8089 21.972 21.7814 22.0156 21.7447C22.0593 21.7081 22.0952 21.6631 22.1211 21.6124L23.0694 19.8646C23.0962 19.8118 23.1121 19.7541 23.1161 19.6951C23.1201 19.636 23.1122 19.5768 23.0928 19.5209ZM21.5474 20.7967L21.1494 20.587C21.0689 20.5453 20.9776 20.5291 20.8876 20.5406C20.7976 20.5521 20.7133 20.5906 20.6459 20.6511C20.3984 20.8772 20.1078 21.0515 19.7913 21.1638C19.7059 21.1947 19.6321 21.2509 19.5798 21.3249C19.5274 21.3989 19.4991 21.487 19.4986 21.5774V22.0493H18.3688V21.5774C18.3683 21.487 18.34 21.3989 18.2877 21.3249C18.2354 21.2509 18.1615 21.1947 18.0761 21.1638C17.8341 21.0767 17.607 20.9529 17.403 20.7967C17.328 20.7456 17.2392 20.7183 17.1483 20.7183C17.0574 20.7183 16.9687 20.7456 16.8937 20.7967L16.5132 21.0473L15.8927 20.1093L16.2732 19.8588C16.3483 19.8095 16.4062 19.7381 16.4387 19.6546C16.4712 19.571 16.4768 19.4795 16.4547 19.3927C16.406 19.2022 16.3805 19.0066 16.3786 18.8101C16.3793 18.6833 16.3891 18.5568 16.4078 18.4314C16.4214 18.3429 16.4073 18.2525 16.3675 18.1723C16.3277 18.0921 16.2641 18.0259 16.1854 17.9828L15.7698 17.7614L16.3025 16.771L16.7122 16.9924C16.7922 17.0357 16.884 17.0529 16.9744 17.0414C17.0647 17.0299 17.1492 16.9903 17.2156 16.9283C17.4653 16.7021 17.7579 16.5278 18.0761 16.4156C18.1615 16.3847 18.2354 16.3284 18.2877 16.2545C18.34 16.1805 18.3683 16.0924 18.3688 16.002V15.5534H19.4986V15.9961C19.4991 16.0866 19.5274 16.1747 19.5798 16.2487C19.6321 16.3226 19.7059 16.3788 19.7913 16.4098C20.032 16.4974 20.2587 16.6191 20.4645 16.771C20.5379 16.8232 20.6259 16.8512 20.7162 16.8512C20.8065 16.8512 20.8945 16.8232 20.9679 16.771L21.3543 16.5205L21.9748 17.4585L21.5943 17.709C21.518 17.7575 21.459 17.8285 21.4254 17.9121C21.3918 17.9957 21.3854 18.0876 21.4069 18.1751C21.4551 18.3656 21.4807 18.5612 21.483 18.7576C21.492 18.8818 21.492 19.0064 21.483 19.1305C21.47 19.2196 21.485 19.3105 21.5258 19.3908C21.5667 19.4711 21.6315 19.5368 21.7113 19.5791L22.1094 19.7888L21.5474 20.7967Z" fill="currentColor"/>
<path d="M14.3056 21.9212H4.57081C3.93738 21.9212 3.3299 21.6708 2.882 21.225C2.4341 20.7792 2.18247 20.1746 2.18247 19.5442V14.6329C2.1902 13.8093 2.487 13.0143 3.0215 12.3855C3.556 11.7568 4.29456 11.3338 5.10935 11.1897H5.32009C6.43126 12.2767 7.92698 12.8858 9.48504 12.8858C11.0431 12.8858 12.5388 12.2767 13.65 11.1897C14.2932 11.2717 14.9016 11.5273 15.4093 11.9289C15.917 12.3304 16.3045 12.8626 16.53 13.4677L16.6471 13.7706C16.6896 13.8801 16.7643 13.9743 16.8614 14.0408C16.9585 14.1074 17.0736 14.1432 17.1915 14.1435C17.266 14.1418 17.3396 14.126 17.4081 14.0969C17.5512 14.0398 17.6658 13.9289 17.7272 13.7882C17.7885 13.6475 17.7917 13.4883 17.7359 13.3453L17.6188 13.0482C17.364 12.3515 16.9459 11.7254 16.3992 11.2218C15.8525 10.7182 15.193 10.3517 14.4754 10.1527C15.1036 9.19463 15.4372 8.07495 15.4354 6.93093C15.4336 6.00839 15.216 5.09894 14.7998 4.2746C14.3837 3.45026 13.7804 2.73367 13.0378 2.18158C12.2951 1.62949 11.4336 1.25707 10.5212 1.0938C9.60894 0.930534 8.67097 0.98091 7.78161 1.24094C6.89225 1.50097 6.07594 1.96351 5.39732 2.59193C4.71869 3.22035 4.1964 3.99739 3.8718 4.86152C3.5472 5.72565 3.4292 6.65312 3.52716 7.5705C3.62512 8.48787 3.93634 9.36995 4.43617 10.1469C3.4561 10.4279 2.59338 11.0163 1.97636 11.8246C1.35935 12.6329 1.02102 13.6178 1.01172 14.6329V19.5442C1.01327 20.4832 1.38874 21.3832 2.05586 22.0472C2.72298 22.7112 3.62735 23.0848 4.57081 23.0864H14.3056C14.4609 23.0864 14.6098 23.025 14.7195 22.9157C14.8293 22.8065 14.891 22.6583 14.891 22.5038C14.891 22.3493 14.8293 22.2011 14.7195 22.0918C14.6098 21.9826 14.4609 21.9212 14.3056 21.9212ZM9.44699 2.15363C10.3964 2.15363 11.3244 2.43381 12.1138 2.95875C12.9031 3.48369 13.5184 4.2298 13.8817 5.10274C14.245 5.97568 14.3401 6.93623 14.1548 7.86294C13.9696 8.78965 13.5125 9.64088 12.8412 10.309C12.1699 10.9771 11.3146 11.4321 10.3834 11.6164C9.45231 11.8008 8.48718 11.7062 7.61008 11.3446C6.73298 10.983 5.9833 10.3707 5.45586 9.58506C4.92842 8.79944 4.6469 7.8758 4.6469 6.93093C4.6469 5.66391 5.15263 4.44879 6.05282 3.55287C6.95301 2.65695 8.17393 2.15363 9.44699 2.15363Z" fill="currentColor"/>
<path d="M18.924 16.9982C18.5651 16.9982 18.2143 17.1042 17.9159 17.3026C17.6174 17.5011 17.3849 17.7831 17.2475 18.1131C17.1102 18.4432 17.0742 18.8063 17.1442 19.1566C17.2143 19.507 17.3871 19.8288 17.6409 20.0814C17.8947 20.3339 18.218 20.5059 18.57 20.5756C18.922 20.6453 19.2869 20.6096 19.6185 20.4729C19.9501 20.3362 20.2335 20.1047 20.4329 19.8077C20.6323 19.5107 20.7387 19.1615 20.7387 18.8043C20.7387 18.3253 20.5475 17.8659 20.2072 17.5272C19.8669 17.1885 19.4053 16.9982 18.924 16.9982ZM18.924 19.7364C18.7388 19.7364 18.5577 19.6818 18.4037 19.5793C18.2497 19.4769 18.1296 19.3313 18.0587 19.161C17.9878 18.9907 17.9693 18.8033 18.0054 18.6224C18.0416 18.4416 18.1308 18.2755 18.2618 18.1452C18.3928 18.0148 18.5596 17.926 18.7413 17.89C18.923 17.8541 19.1113 17.8725 19.2825 17.9431C19.4536 18.0136 19.5999 18.1331 19.7028 18.2864C19.8057 18.4397 19.8606 18.6199 19.8606 18.8043C19.8606 19.0515 19.762 19.2886 19.5863 19.4634C19.4107 19.6382 19.1724 19.7364 18.924 19.7364Z" fill="currentColor"/>
</svg>
