<svg width="24" height="24" viewBox="0 0 24 24" fill="none" xmlns="http://www.w3.org/2000/svg">
<path d="M21.8917 7.21053C20.6125 4.56532 18.3841 2.57418 15.6115 1.60755C12.1386 0.397811 8.28943 1.02873 5.38954 3.19351L5.52267 2.3658C5.56898 2.04745 5.35481 1.75225 5.04225 1.70016C4.7239 1.64806 4.4287 1.86801 4.37661 2.18058L3.99459 4.58268C3.99459 4.59426 3.99459 4.61162 3.99459 4.6232C3.9888 4.6695 3.99459 4.71002 4.00037 4.75054C4.00616 4.78527 4.01195 4.81421 4.01774 4.84315C4.02931 4.88367 4.04668 4.91261 4.06404 4.94734C4.08141 4.98207 4.09877 5.01101 4.12193 5.03995C4.1335 5.05153 4.13929 5.06889 4.15087 5.08047C4.16823 5.09783 4.1856 5.10362 4.20296 5.1152C4.2319 5.13835 4.26084 5.15571 4.29557 5.17308C4.34188 5.19623 4.37661 5.2136 4.41712 5.22517C4.43449 5.23096 4.45185 5.24254 4.46922 5.24832L6.42563 5.58404C6.46036 5.58983 6.4893 5.58983 6.52403 5.58983C6.80186 5.58983 7.04497 5.39303 7.09127 5.10941C7.14337 4.79685 6.93499 4.49586 6.61664 4.43798L5.84681 4.30485C8.46308 2.22109 12.0286 1.58439 15.2295 2.69573C17.7126 3.56396 19.7096 5.34094 20.8498 7.70831C21.9901 10.0757 22.1464 12.744 21.2782 15.2272C21.174 15.5282 21.3302 15.8581 21.637 15.9623C21.7007 15.9854 21.7644 15.997 21.828 15.997C22.0653 15.997 22.2911 15.8465 22.3721 15.6092C23.3388 12.8367 23.1651 9.85573 21.8917 7.21053Z" fill="currentColor"/>
<path d="M19.9699 19.2269C19.9641 19.1921 19.9583 19.1632 19.9526 19.1342C19.941 19.0995 19.9236 19.0648 19.9063 19.0301C19.8889 18.9953 19.8715 18.9664 19.8426 18.9374C19.831 18.9259 19.8252 18.9085 19.8136 18.8969C19.7963 18.8796 19.7789 18.8738 19.7615 18.8622C19.7326 18.839 19.7037 18.8159 19.6689 18.7985C19.6342 18.7812 19.5995 18.7638 19.559 18.758C19.5416 18.7522 19.5242 18.7406 19.5069 18.7349L17.5505 18.3991C17.2379 18.3413 16.9369 18.5554 16.879 18.8738C16.8211 19.1921 17.0353 19.4873 17.3537 19.5452L18.1293 19.6783C15.513 21.7621 11.9475 22.3988 8.75239 21.2875C6.26925 20.4192 4.27232 18.6422 3.13204 16.2749C1.99176 13.9075 1.83548 11.2391 2.70371 8.756C2.8079 8.45501 2.65162 8.12509 2.34484 8.0209C2.04386 7.91671 1.71393 8.07299 1.60974 8.37398C0.643113 11.1465 0.81097 14.1332 2.09016 16.7784C3.36936 19.4237 5.59781 21.4148 8.37036 22.3814C9.54537 22.7924 10.7609 22.9892 11.9706 22.9892C14.3438 22.9892 16.6764 22.2136 18.5923 20.7781L18.4592 21.6232C18.4071 21.9415 18.6213 22.2367 18.9396 22.283C18.9686 22.2888 19.0033 22.2888 19.0322 22.2888C19.3101 22.2888 19.559 22.0862 19.6053 21.8026L19.9873 19.4005C19.9873 19.3889 19.9873 19.3716 19.9873 19.36C19.9815 19.3137 19.9757 19.2732 19.9699 19.2269Z" fill="currentColor"/>
<path d="M15.2003 10.2204C15.4723 9.71107 15.6286 9.12646 15.6286 8.51291C15.6286 6.5044 13.9963 4.87213 11.9878 4.87213C9.97931 4.87213 8.34703 6.5044 8.34703 8.51291C8.34703 9.13225 8.50332 9.71107 8.77536 10.2204C7.69876 10.6603 6.94629 11.7196 6.94629 12.9119V15.7134C6.94629 16.9637 7.96501 17.9824 9.21526 17.9824H16.4505C16.7573 17.9824 17.0004 17.7451 17.0235 17.4441L17.0293 15.4993V14.4805V12.9119C17.0293 11.6906 16.2769 10.6488 15.2003 10.2204ZM11.9878 6.02977C13.3538 6.02977 14.471 7.14111 14.471 8.51291C14.471 9.88471 13.3596 10.996 11.9878 10.996C10.616 10.996 9.50467 9.88471 9.50467 8.51291C9.50467 7.14111 10.616 6.02977 11.9878 6.02977ZM15.8717 16.8248H9.21526C8.60171 16.8248 8.10393 16.327 8.10393 15.7134V12.9119C8.10393 12.0784 8.71169 11.3433 9.52783 11.1928C10.1761 11.789 11.0385 12.1537 11.982 12.1537C12.9255 12.1537 13.7822 11.789 14.4304 11.1986C15.2466 11.3491 15.8659 12.0727 15.8659 12.9119V14.4805V16.8248H15.8717Z" fill="currentColor"/>
</svg>
