<svg width="24" height="24" viewBox="0 0 24 24" fill="none" xmlns="http://www.w3.org/2000/svg">
<path d="M17.3252 10.1455C17.9225 9.22349 18.2704 8.12755 18.2704 6.94463C18.2704 3.6858 15.6147 1.03003 12.3558 1.03003C9.09699 1.03003 6.44122 3.6858 6.44122 6.94463C6.44122 8.12755 6.79494 9.22349 7.3922 10.1455C5.42646 10.7079 4 12.5403 4 14.6162V19.5045C4 21.447 5.58303 23.03 7.52557 23.03H20.1376C20.4565 23.03 20.7174 22.7691 20.7174 22.4502V19.1333V17.0748V14.622C20.7174 12.4939 19.3026 10.6963 17.3252 10.1455ZM12.3558 2.19555C14.9768 2.19555 17.1107 4.32945 17.1107 6.95043C17.1107 9.57141 14.9768 11.7053 12.3558 11.7053C9.73484 11.7053 7.60095 9.57141 7.60095 6.95043C7.60095 4.32945 9.73484 2.19555 12.3558 2.19555ZM19.5577 21.4818V21.8645H7.52557C6.22087 21.8645 5.15973 20.8092 5.15973 19.5045V14.6162C5.15973 12.9462 6.39483 11.4792 8.03585 11.1892H8.2446C9.31154 12.2214 10.7612 12.865 12.3616 12.865C13.9736 12.865 15.4349 12.2156 16.5018 11.166C18.224 11.3806 19.5635 12.8766 19.5635 14.6162V17.069V21.4818H19.5577Z" fill="currentColor"/>
</svg>
