<svg width="24" height="24" viewBox="0 0 24 24" fill="none" xmlns="http://www.w3.org/2000/svg">
<path d="M13.3515 21.87H5.48065C4.17562 21.87 3.11419 20.8086 3.11419 19.5035V14.614C3.11419 12.9436 4.34962 11.4761 5.99107 11.1861H6.19988C7.2671 12.2185 8.71714 12.8624 10.318 12.8624C11.9304 12.8624 13.3921 12.2127 14.4593 11.1629C15.7411 11.3195 16.849 12.1953 17.3014 13.4192C17.3884 13.6512 17.6088 13.7962 17.8466 13.7962C17.9162 13.7962 17.98 13.7846 18.0496 13.7614C18.3512 13.6512 18.502 13.3148 18.3918 13.0132C17.8698 11.6095 16.6924 10.5539 15.2829 10.1537C15.8803 9.23145 16.2342 8.12942 16.2342 6.94619C16.2342 3.6865 13.5777 1.03003 10.318 1.03003C7.05829 1.03003 4.40182 3.6865 4.40182 6.94619C4.40182 8.12942 4.75563 9.22565 5.35305 10.1479C3.38679 10.7047 1.95996 12.5375 1.95996 14.614V19.5035C1.95996 21.4466 3.5434 23.03 5.48645 23.03H13.3573C13.6763 23.03 13.9373 22.769 13.9373 22.45C13.9373 22.131 13.6763 21.87 13.3515 21.87ZM10.318 2.19586C12.9397 2.19586 15.0741 4.33032 15.0741 6.95199C15.0741 9.57366 12.9397 11.7081 10.318 11.7081C7.69631 11.7081 5.56185 9.57366 5.56185 6.95199C5.56185 4.33032 7.69631 2.19586 10.318 2.19586Z" fill="currentColor"/>
<path d="M22.4809 17.514C22.3765 17.1892 22.0981 16.9572 21.7616 16.905L19.6678 16.6034L18.734 14.7068C18.5832 14.3994 18.2757 14.2079 17.9335 14.2079C17.5913 14.2079 17.2839 14.3994 17.1331 14.7068L16.1993 16.6034L14.1054 16.905C13.769 16.9514 13.4906 17.1892 13.3862 17.514C13.2818 17.8388 13.3688 18.1927 13.6124 18.4305L15.1263 19.9037L14.7667 21.986C14.7087 22.3224 14.8479 22.6588 15.1263 22.8618C15.2829 22.9778 15.4627 23.03 15.6483 23.03C15.7933 23.03 15.9325 22.9952 16.0659 22.9256L17.9393 21.9396L19.807 22.9198C20.1086 23.0764 20.4682 23.0532 20.7466 22.8502C21.025 22.6472 21.1584 22.3166 21.1062 21.9744L20.7466 19.8921L22.2605 18.4189C22.4983 18.1869 22.5853 17.8388 22.4809 17.514ZM19.8302 19.1729C19.6214 19.3759 19.5228 19.6717 19.575 19.9617L19.865 21.6496L18.3453 20.8549C18.0843 20.7157 17.7711 20.7157 17.5159 20.8549L15.9963 21.6553L16.2863 19.9675C16.3385 19.6775 16.2399 19.3817 16.0311 19.1729L14.8015 17.978L16.4951 17.7344C16.7851 17.6938 17.0403 17.5082 17.1679 17.2472L17.9277 15.7102L18.6876 17.2472C18.821 17.5082 19.0704 17.6938 19.3604 17.7344L21.054 17.978L19.8302 19.1729Z" fill="currentColor"/>
</svg>
