<svg width="24" height="27" viewBox="0 0 24 27" fill="none" xmlns="http://www.w3.org/2000/svg">
<path d="M19.1549 0.25H2.09637C1.71358 0.25 1.40039 0.563192 1.40039 0.945982V26.0013C1.40039 26.3841 1.71358 26.6973 2.09637 26.6973C2.47916 26.6973 2.89675 26.6973 3.3909 26.6904C4.07992 26.6834 4.9151 26.6834 5.97996 26.6834C6.36275 26.6834 6.67594 26.3702 6.67594 25.9874V24.4423H18.1388V25.9178C18.1388 25.9387 18.1388 25.9665 18.1388 25.9874C18.1388 26.3702 18.452 26.6834 18.8347 26.6834C19.8996 26.6834 20.7278 26.6904 21.4168 26.6904C21.904 26.6904 22.3216 26.6973 22.7044 26.6973C23.0872 26.6973 23.4004 26.3841 23.4004 26.0013V4.4955C23.4004 2.157 21.4934 0.25 19.1549 0.25ZM22.0084 25.2984C21.8275 25.2984 21.6326 25.2984 21.4238 25.2984C20.8949 25.2984 20.2754 25.2914 19.5307 25.2914V23.7464C19.5307 23.3636 19.2175 23.0504 18.8347 23.0504H5.97996C5.59717 23.0504 5.28397 23.3636 5.28397 23.7464V25.2914C4.53231 25.2914 3.91289 25.2984 3.37699 25.2984C3.16819 25.2984 2.97331 25.2984 2.79236 25.2984V1.63501H19.1549C20.7278 1.63501 22.0084 2.91561 22.0084 4.48853V25.2984Z" fill="currentColor"/>
<path d="M19.5795 3.33325H5.22137C4.83858 3.33325 4.52539 3.64644 4.52539 4.02923V20.6354C4.52539 21.0182 4.83858 21.3314 5.22137 21.3314H19.5795C19.9623 21.3314 20.2755 21.0182 20.2755 20.6354V4.02923C20.2755 3.64644 19.9623 3.33325 19.5795 3.33325ZM18.8835 19.9464H5.91736V4.73218H18.8835V19.9464Z" fill="currentColor"/>
<path d="M7.87242 12.5898C8.36657 12.5898 8.77024 12.1862 8.77024 11.692C8.77024 11.1979 8.36657 10.7942 7.87242 10.7942C7.37827 10.7942 6.97461 11.1979 6.97461 11.692C6.97461 12.1862 7.37827 12.5898 7.87242 12.5898Z" fill="currentColor"/>
</svg>
