<svg width="24" height="24" viewBox="0 0 24 24" fill="none" xmlns="http://www.w3.org/2000/svg">
<path d="M14.5678 21.8316H4.93412C3.63149 21.8316 2.57202 20.7721 2.57202 19.4695V14.589C2.57202 12.9216 3.80517 11.4569 5.4436 11.1674H5.65203C6.71729 12.1979 8.16464 12.8406 9.76254 12.8406C11.372 12.8406 12.831 12.1921 13.8962 11.1442C15.1757 11.3006 16.2873 12.1748 16.7389 13.4079L16.8604 13.709C16.9531 13.9348 17.1673 14.0737 17.3989 14.0737C17.4683 14.0737 17.5436 14.0621 17.6131 14.0332C17.9083 13.9174 18.0589 13.5816 17.9373 13.2806L17.8215 12.9911C17.3004 11.59 16.1252 10.5306 14.7183 10.1369C15.3147 9.21634 15.6678 8.11634 15.6678 6.93529C15.6678 3.68161 13.0162 1.03003 9.76254 1.03003C6.50885 1.03003 3.85729 3.68161 3.85729 6.93529C3.85729 8.11634 4.21043 9.21056 4.80675 10.1311C2.84412 10.6869 1.41992 12.5163 1.41992 14.589V19.4695C1.41992 21.409 3.00044 22.9895 4.93991 22.9895H14.5736C14.892 22.9895 15.1526 22.729 15.1526 22.4106C15.1526 22.0921 14.8862 21.8316 14.5678 21.8316ZM9.76254 2.19371C12.3794 2.19371 14.5099 4.32424 14.5099 6.94108C14.5099 9.55792 12.3794 11.6884 9.76254 11.6884C7.1457 11.6884 5.01518 9.55792 5.01518 6.94108C5.01518 4.32424 7.1457 2.19371 9.76254 2.19371Z" fill="currentColor"/>
<path d="M19.118 14.4095C16.7443 14.4095 14.8164 16.3374 14.8164 18.7111C14.8164 21.0847 16.7443 23.0126 19.118 23.0126C21.4917 23.0126 23.4196 21.0847 23.4196 18.7111C23.4196 16.3374 21.4859 14.4095 19.118 14.4095ZM19.118 21.8547C17.3869 21.8547 15.9743 20.4421 15.9743 18.7111C15.9743 16.98 17.3811 15.5674 19.118 15.5674C20.8548 15.5674 22.2617 16.98 22.2617 18.7111C22.2617 20.4421 20.849 21.8547 19.118 21.8547Z" fill="currentColor"/>
<path d="M21.3993 16.9164C21.1735 16.6906 20.8087 16.6906 20.583 16.9164L18.2614 19.2379L17.6998 18.5548C17.4972 18.3116 17.1324 18.2711 16.8835 18.4737C16.6345 18.6764 16.5998 19.0411 16.8082 19.29C16.8082 19.29 17.7809 20.4653 17.7809 20.4711C17.9024 20.6158 18.1166 20.6969 18.3019 20.6737C18.4293 20.6564 18.5451 20.5985 18.6377 20.5058L21.4109 17.7327C21.6251 17.5069 21.6251 17.1421 21.3993 16.9164Z" fill="currentColor"/>
</svg>
