<svg width="24" height="24" viewBox="0 0 24 24" fill="none" xmlns="http://www.w3.org/2000/svg">
<path d="M22.7221 5.79984C22.5542 5.69563 22.3342 5.68405 22.1605 5.77668L15.5547 9.11141V7.37457C15.5547 7.05615 15.2942 6.79562 14.9758 6.79562H1.57895C1.26053 6.79562 1 7.05615 1 7.37457V14.2525C1 16.1572 2.54579 17.703 4.45053 17.703H14.9758C15.2942 17.703 15.5547 17.4425 15.5547 17.124V15.4335L22.1605 18.7219C22.2416 18.7625 22.3284 18.7798 22.4211 18.7798C22.5253 18.7798 22.6353 18.7509 22.7279 18.693C22.8958 18.5888 23 18.4035 23 18.2009V6.29773C23 6.0951 22.8958 5.90984 22.7221 5.79984ZM14.3968 16.5451H4.45053C3.18842 16.5451 2.15789 15.5146 2.15789 14.2525V7.95352H14.3968V16.5451ZM21.8421 17.2688L15.5547 14.1425V10.4083L21.8421 7.23563V17.2688Z" fill="currentColor"/>
</svg>
