<svg width="24" height="24" viewBox="0 0 24 24" fill="none" xmlns="http://www.w3.org/2000/svg">
<path d="M22.7164 5.6331C22.5485 5.52891 22.3286 5.51734 22.155 5.60995L16.3612 8.53286L21.3389 3.55522C21.5646 3.32949 21.5646 2.96485 21.3389 2.73912C21.1131 2.51339 20.7485 2.51339 20.5228 2.73912L15.5567 7.70518V7.20742C15.5567 6.88908 15.2962 6.62862 14.9779 6.62862H1.5788C1.26046 6.62862 1 6.88908 1 7.20742V14.0835C1 15.9877 2.54538 17.5331 4.44962 17.5331H5.72875L2.66114 20.6007C2.43541 20.8265 2.43541 21.1911 2.66114 21.4168C2.7769 21.5326 2.9216 21.5847 3.07209 21.5847C3.22257 21.5847 3.36727 21.5268 3.48303 21.4168L7.36674 17.5331H14.9779C15.2962 17.5331 15.5567 17.2727 15.5567 16.9543V15.2642L22.1607 18.5518C22.2418 18.5923 22.3286 18.6097 22.4212 18.6097C22.5254 18.6097 22.6354 18.5807 22.728 18.5229C22.8958 18.4187 23 18.2335 23 18.0309V6.13086C22.9942 5.92828 22.89 5.74307 22.7164 5.6331ZM4.44962 16.3755C3.18784 16.3755 2.15759 15.3453 2.15759 14.0835V7.78621H14.3933V8.86277L6.88634 16.3755H4.44962ZM8.52434 16.3755L14.3991 10.5008V16.3755H8.52434ZM21.8366 17.099L15.5509 13.9735V10.2403L21.8366 7.06851V17.099Z" fill="currentColor"/>
</svg>
