<svg width="24" height="24" viewBox="0 0 24 24" fill="none" xmlns="http://www.w3.org/2000/svg">
<path d="M22.2224 9.42401L20.6816 8.1271V4.02812H17.1596V5.16441L12.5252 1.26176L12.5074 1.24392C12.4955 1.23202 12.4836 1.23202 12.4717 1.22012L12.4241 1.18442C12.4122 1.17847 12.4003 1.17253 12.3884 1.16658C12.317 1.11303 12.2456 1.07139 12.1623 1.04164C12.1386 1.03569 12.1148 1.02975 12.091 1.0238C12.0255 1.0119 11.9541 1 11.8768 1C11.8411 1 11.8054 1.00595 11.7697 1.0119C11.7102 1.0238 11.6507 1.03569 11.5972 1.05949C11.5496 1.07734 11.502 1.10708 11.4544 1.13683C11.4247 1.15468 11.3949 1.16063 11.3652 1.18442L1.27538 9.67388C0.94223 9.95349 0.912485 10.4354 1.20399 10.7507L1.30513 10.8578C1.60259 11.1731 2.10827 11.2028 2.44142 10.9232L2.63179 10.7626V19.6149C2.63179 21.483 4.21427 23 6.16559 23H8.99145H14.7562H20.5209C20.8481 23 21.1158 22.7323 21.1158 22.4051V10.709C21.449 10.941 21.913 10.9054 22.1867 10.6079L22.2878 10.5008C22.5853 10.1855 22.5555 9.70362 22.2224 9.42401ZM19.926 21.8102H15.3511V15.1114C15.3511 14.7842 15.0834 14.5165 14.7562 14.5165H8.99145C8.66424 14.5165 8.39653 14.7842 8.39653 15.1114V21.8161H6.16559C4.87463 21.8161 3.82162 20.8286 3.82162 19.6209V9.894L11.8768 3.11195L19.932 9.894V21.8102H19.926Z" fill="currentColor"/>
</svg>
