<svg width="24" height="24" viewBox="0 0 24 24" fill="none" xmlns="http://www.w3.org/2000/svg">
<path d="M16.6599 2.35498H7.43971C3.92063 2.35498 1.0498 5.22002 1.0498 8.74488V14.9901C1.0498 18.5091 3.91484 21.3742 7.43971 21.3742H16.6599C20.179 21.3742 23.0498 18.5091 23.0498 14.9901V8.74488C23.044 5.22002 20.179 2.35498 16.6599 2.35498ZM21.8864 14.9843C21.8864 17.8667 19.5423 20.2108 16.6541 20.2108H7.43391C4.55151 20.2108 2.20162 17.8667 2.20162 14.9843V8.74488C2.20162 5.86248 4.54573 3.51257 7.43391 3.51257H16.6541C19.5365 3.51257 21.8864 5.85669 21.8864 8.74488V14.9843Z" fill="currentColor"/>
<path d="M8.63777 8.1603C8.3368 8.04454 8.00688 8.19502 7.89112 8.49021L5.97531 13.4563L4.0595 8.49021C3.94374 8.18924 3.60803 8.04454 3.31285 8.1603C3.01766 8.27606 2.86719 8.61176 2.98295 8.90694L5.43703 15.2737C5.52385 15.4994 5.738 15.6441 5.97531 15.6441C6.21261 15.6441 6.42676 15.4994 6.51358 15.2737L8.96769 8.90694C9.08345 8.61176 8.93874 8.27606 8.63777 8.1603Z" fill="currentColor"/>
<path d="M12.9093 8.22397H10.5305C10.2121 8.22397 9.95166 8.48443 9.95166 8.80276V15.1521C9.95166 15.4705 10.2121 15.7309 10.5305 15.7309C10.8488 15.7309 11.1092 15.4705 11.1092 15.1521V12.5591H12.9151C14.1074 12.5591 15.0798 11.5868 15.0798 10.3887C15.074 9.19634 14.1016 8.22397 12.9093 8.22397ZM12.9093 11.4016H11.1035V9.38156H12.9035C13.4592 9.38156 13.9106 9.83302 13.9106 10.3887C13.9164 10.9501 13.465 11.4016 12.9093 11.4016Z" fill="currentColor"/>
<path d="M19.9994 8.80275V13.2421L16.816 8.46705C16.6713 8.25289 16.4109 8.16029 16.1678 8.23553C15.9247 8.31077 15.7568 8.5365 15.7568 8.79117V15.1579C15.7568 15.4763 16.0173 15.7367 16.3356 15.7367C16.654 15.7367 16.9144 15.4763 16.9144 15.1579V10.7012L20.0978 15.4763C20.2078 15.6383 20.3872 15.7367 20.5782 15.7367C20.6361 15.7367 20.6882 15.7309 20.746 15.7136C20.9891 15.6383 21.157 15.4126 21.157 15.1579V8.80275C21.157 8.48441 20.8965 8.22395 20.5782 8.22395C20.2599 8.22395 19.9994 8.48441 19.9994 8.80275Z" fill="currentColor"/>
</svg>
