<svg width="24" height="24" viewBox="0 0 24 24" fill="none" xmlns="http://www.w3.org/2000/svg">
<path d="M11.8118 8.35805C11.5109 8.24229 11.1752 8.39278 11.0652 8.68796L9.14938 13.654L7.23357 8.68796C7.11781 8.38699 6.78211 8.24229 6.48693 8.35805C6.19174 8.47381 6.04126 8.80951 6.15702 9.1047L8.6111 15.4714C8.69792 15.6972 8.91207 15.8419 9.14938 15.8419C9.38669 15.8419 9.60085 15.6972 9.68767 15.4714L12.1418 9.1047C12.2633 8.80951 12.1128 8.47381 11.8118 8.35805Z" fill="currentColor"/>
<path d="M17.8835 10.488C17.8835 9.28988 16.8879 8.3175 15.6667 8.3175H13.201C12.8827 8.3175 12.6222 8.57796 12.6222 8.8963V15.263C12.6222 15.5814 12.8827 15.8418 13.201 15.8418C13.5193 15.8418 13.7798 15.5814 13.7798 15.263V12.6585H15.302L16.778 15.5293C16.8821 15.7261 17.0847 15.8418 17.2931 15.8418C17.3799 15.8418 17.4725 15.8187 17.5593 15.7782C17.8429 15.6335 17.9529 15.2804 17.8082 14.9968L16.5175 12.4906C17.3162 12.1607 17.8835 11.3909 17.8835 10.488ZM15.6667 11.5009H13.7798V9.47509H15.6667C16.2512 9.47509 16.7259 9.92655 16.7259 10.488C16.7259 11.0494 16.2512 11.5009 15.6667 11.5009Z" fill="currentColor"/>
<path d="M16.6101 2.57007H7.3899C3.87083 2.57007 1 5.4351 1 8.95996V15.2052C1 18.7242 3.86504 21.5893 7.3899 21.5893H16.6101C20.1292 21.5893 23 18.7242 23 15.2052V8.95996C22.9942 5.4351 20.1292 2.57007 16.6101 2.57007ZM21.8366 15.1994C21.8366 18.0818 19.4925 20.4259 16.6043 20.4259H7.38411C4.50171 20.4259 2.15181 18.0818 2.15181 15.1994V8.95996C2.15181 6.07757 4.49592 3.72766 7.38411 3.72766H16.6043C19.4867 3.72766 21.8366 6.07178 21.8366 8.95996V15.1994Z" fill="currentColor"/>
</svg>
