<svg width="24" height="24" viewBox="0 0 24 24" fill="none" xmlns="http://www.w3.org/2000/svg">
<path fill-rule="evenodd" clip-rule="evenodd" d="M19.5059 2.56324H15.3328L13.9379 1.48668C13.2202 0.931035 12.2536 0.931035 11.5301 1.48668L10.1352 2.56324C10.1294 2.56324 10.1294 2.56324 10.1236 2.56324H3.80318C2.25201 2.56324 0.990234 3.82501 0.990234 5.37618V19.5624C0.990234 21.4956 2.56456 23.07 4.49773 23.07H22.4114C22.7298 23.07 22.9902 22.8095 22.9902 22.4912V7.61033V6.05337C22.9902 4.13177 21.4275 2.56324 19.5059 2.56324ZM19.5059 3.72083C20.7908 3.72083 21.8326 4.76266 21.8326 6.04758V7.02575H21.1207L16.8319 3.72083H19.5059ZM12.242 2.40696C12.5372 2.17544 12.9366 2.18123 13.2317 2.40696L19.2223 7.03154H6.2457L12.242 2.40696ZM3.80896 3.72083H8.64191L4.35303 7.02575H3.80318C2.88868 7.02575 2.14782 6.28489 2.14782 5.37039C2.15361 4.46747 2.89447 3.72083 3.80896 3.72083ZM4.50352 21.9124C3.20702 21.9124 2.15361 20.8589 2.15361 19.5624V7.63927C2.61665 7.98076 3.18965 8.18913 3.80896 8.18913H21.8326V12.5938H16.8839C15.5122 12.5938 14.4009 13.705 14.4009 15.0768C14.4009 16.4485 15.5122 17.5598 16.8839 17.5598H21.8326V21.9124H4.50352ZM21.8326 13.7513V16.4022H16.8897C16.1605 16.4022 15.5643 15.8061 15.5643 15.0768C15.5643 14.3475 16.1605 13.7513 16.8897 13.7513H21.8326Z" fill="currentColor"/>
<path d="M17.1271 15.7714C17.5235 15.7714 17.8448 15.45 17.8448 15.0536C17.8448 14.6573 17.5235 14.3359 17.1271 14.3359C16.7307 14.3359 16.4094 14.6573 16.4094 15.0536C16.4094 15.45 16.7307 15.7714 17.1271 15.7714Z" fill="currentColor"/>
</svg>
