<svg width="23" height="22" viewBox="0 0 23 22" fill="none" xmlns="http://www.w3.org/2000/svg">
<path d="M14.342 2.51636C13.7651 1.35088 12.4714 0.570007 11.1253 0.570007C9.85489 0.570007 8.65444 1.28678 7.91436 2.49888L0.676714 15.4241C-0.0517136 16.6187 -0.0517186 18.1047 0.653399 19.2527C1.22449 20.424 2.524 21.2107 3.88179 21.2107H18.3804C19.8023 21.2107 21.0086 20.4765 21.5797 19.2993C22.3081 18.1047 22.3081 16.6187 21.5913 15.4416L14.342 2.51636ZM20.554 18.7457C20.1461 19.579 19.3536 20.0511 18.3746 20.0511H3.87596C2.95523 20.0511 2.08111 19.5266 1.66736 18.6933C1.16621 17.8716 1.16622 16.8518 1.67903 16.0127L8.92251 3.09328C9.44697 2.23082 10.2512 1.73549 11.1311 1.73549C12.0518 1.73549 12.9259 2.25996 13.3106 3.04083C13.3164 3.05249 13.3222 3.05831 13.328 3.06997L20.589 16.036C21.0843 16.8576 21.0843 17.8774 20.554 18.7457Z" fill="currentColor"/>
<path d="M11.1136 14.7306C11.4341 14.7306 11.6964 14.4684 11.6964 14.1479V7.31815C11.6964 6.99765 11.4341 6.73541 11.1136 6.73541C10.7931 6.73541 10.5309 6.99765 10.5309 7.31815V14.1479C10.5309 14.4684 10.7931 14.7306 11.1136 14.7306Z" fill="currentColor"/>
<path d="M11.1253 16.1234C10.7524 16.1234 10.4552 16.4264 10.4552 16.7935C10.4552 17.1665 10.7582 17.4637 11.1253 17.4637C11.4925 17.4637 11.7955 17.1607 11.7955 16.7935C11.7955 16.4264 11.4983 16.1234 11.1253 16.1234Z" fill="currentColor"/>
</svg>
