<svg width="22" height="22" viewBox="0 0 22 22" fill="none" xmlns="http://www.w3.org/2000/svg">
<path d="M10.9884 13.9005C11.3069 13.9005 11.5674 13.64 11.5674 13.3216V6.53631C11.5674 6.21789 11.3069 5.95737 10.9884 5.95737C10.67 5.95737 10.4095 6.21789 10.4095 6.53631V13.3216C10.4095 13.6458 10.67 13.9005 10.9884 13.9005Z" fill="currentColor"/>
<path d="M11.0001 16.6216C11.3706 16.6216 11.6659 16.3205 11.6659 15.9558C11.6659 15.5853 11.3648 15.29 11.0001 15.29C10.6353 15.29 10.3343 15.5911 10.3343 15.9558C10.3343 16.3205 10.6296 16.6216 11.0001 16.6216Z" fill="currentColor"/>
<path d="M11 0C4.93263 0 0 4.93263 0 11C0 17.0674 4.93263 22 11 22C17.0674 22 22 17.0674 22 11C22 4.93263 17.0674 0 11 0ZM11 20.8421C5.57526 20.8421 1.15789 16.4247 1.15789 11C1.15789 5.57526 5.57526 1.15789 11 1.15789C16.4247 1.15789 20.8421 5.57526 20.8421 11C20.8421 16.4247 16.4247 20.8421 11 20.8421Z" fill="currentColor"/>
</svg>
