<svg width="24" height="25" viewBox="0 0 24 25" fill="none" xmlns="http://www.w3.org/2000/svg">
<path d="M20.62 24.748H3.38C1.51334 24.748 0 23.2347 0 21.368V4.12805C0 2.26138 1.51334 0.748047 3.38 0.748047H20.62C22.4867 0.748047 24 2.26138 24 4.12805V21.368C24 23.2347 22.4867 24.748 20.62 24.748Z" fill="url(#paint0_linear_1_3176)"/>
<path fill-rule="evenodd" clip-rule="evenodd" d="M17.7406 7.16141C16.3139 5.73474 14.4139 4.94141 12.3872 4.94141C8.2139 4.94141 4.82057 8.33474 4.82057 12.5014C4.82057 13.8347 5.16724 15.1347 5.82724 16.2814L4.75391 20.2014L8.76723 19.1481C9.8739 19.7481 11.1139 20.0681 12.3806 20.0681C16.5472 20.0681 19.9472 16.6747 19.9472 12.5014C19.9539 10.4881 19.1672 8.58807 17.7406 7.16141ZM12.3872 18.7947C11.2539 18.7947 10.1472 18.4881 9.18724 17.9214L8.96057 17.7881L6.58057 18.4147L7.21391 16.0947L7.06724 15.8547C6.44057 14.8547 6.10724 13.6947 6.10724 12.5081C6.10724 9.04141 8.92724 6.22141 12.4006 6.22141C14.0806 6.22141 15.6606 6.87474 16.8472 8.06807C18.0339 9.26141 18.6872 10.8347 18.6872 12.5147C18.6739 15.9747 15.8539 18.7947 12.3872 18.7947ZM15.8339 14.0881C15.6472 13.9947 14.7139 13.5347 14.5406 13.4747C14.3672 13.4147 14.2406 13.3814 14.1139 13.5681C13.9872 13.7547 13.6272 14.1814 13.5139 14.3081C13.4006 14.4347 13.2939 14.4481 13.1072 14.3547C12.9206 14.2614 12.3072 14.0614 11.5872 13.4147C11.0272 12.9147 10.6472 12.2947 10.5339 12.1081C10.4206 11.9214 10.5206 11.8147 10.6139 11.7214C10.7006 11.6347 10.8006 11.5014 10.9006 11.3881C10.9939 11.2747 11.0272 11.2014 11.0872 11.0747C11.1472 10.9481 11.1206 10.8414 11.0739 10.7414C11.0272 10.6481 10.6472 9.71474 10.4939 9.34141C10.3406 8.97474 10.1872 9.02141 10.0672 9.01474C9.95391 9.00807 9.8339 9.00807 9.70723 9.00807C9.58057 9.00807 9.37391 9.05474 9.20057 9.24141C9.02724 9.42807 8.54057 9.88807 8.54057 10.8147C8.54057 11.7414 9.22057 12.6414 9.3139 12.7681C9.40724 12.8947 10.6472 14.8014 12.5406 15.6214C12.9939 15.8147 13.3406 15.9347 13.6206 16.0214C14.0739 16.1681 14.4872 16.1481 14.8139 16.0947C15.1739 16.0414 15.9339 15.6347 16.0872 15.1947C16.2472 14.7547 16.2472 14.3747 16.2006 14.2947C16.1539 14.2147 16.0272 14.1814 15.8339 14.0881Z" fill="white"/>
<defs>
<linearGradient id="paint0_linear_1_3176" x1="12.0005" y1="24.1206" x2="12.0005" y2="1.41251" gradientUnits="userSpaceOnUse">
<stop stop-color="#27CD44"/>
<stop offset="1" stop-color="#5FFB7C"/>
</linearGradient>
</defs>
</svg>
