<svg width="24" height="25" viewBox="0 0 24 25" fill="none" xmlns="http://www.w3.org/2000/svg">
<path d="M12 24.748C18.6274 24.748 24 19.3755 24 12.748C24 6.12063 18.6274 0.748047 12 0.748047C5.37258 0.748047 0 6.12063 0 12.748C0 19.3755 5.37258 24.748 12 24.748Z" fill="url(#paint0_linear_1_3241)"/>
<path fill-rule="evenodd" clip-rule="evenodd" d="M17.7735 7.11988C16.3381 5.68444 14.4264 4.88623 12.3873 4.88623C8.18831 4.88623 4.77411 8.30043 4.77411 12.4927C4.77411 13.8342 5.12291 15.1422 5.78696 16.296L4.70703 20.2401L8.74504 19.1803C9.85851 19.7839 11.1061 20.1059 12.3806 20.1059C16.5729 20.1059 19.9938 16.6917 19.9938 12.4927C20.0005 10.4737 19.209 8.56203 17.7735 7.11988ZM12.3873 18.8315C11.247 18.8315 10.1335 18.5229 9.16762 17.9528L8.93956 17.8186L6.54493 18.4491L7.18216 16.1149L7.03459 15.8734C6.40407 14.8672 6.06869 13.7001 6.06869 12.5061C6.06869 9.01815 8.90602 6.18081 12.4007 6.18081C14.091 6.18081 15.6808 6.83816 16.8747 8.03883C18.0687 9.2395 18.726 10.8225 18.726 12.5128C18.7126 15.9941 15.8753 18.8315 12.3873 18.8315ZM15.8552 14.0891C15.6673 13.9952 14.7283 13.5324 14.5539 13.472C14.3795 13.4117 14.252 13.3781 14.1246 13.5659C13.9971 13.7538 13.6349 14.183 13.5209 14.3105C13.4069 14.4379 13.2995 14.4514 13.1117 14.3574C12.9239 14.2635 12.3068 14.0623 11.5824 13.4117C11.0189 12.9086 10.6366 12.2848 10.5226 12.097C10.4085 11.9091 10.5092 11.8018 10.6031 11.7079C10.6903 11.6207 10.7909 11.4866 10.8915 11.3725C10.9854 11.2585 11.0189 11.1847 11.0793 11.0573C11.1397 10.9298 11.1128 10.8225 11.0659 10.7219C11.0189 10.628 10.6366 9.68892 10.4823 9.31329C10.328 8.94437 10.1738 8.99132 10.053 8.98461C9.939 8.9779 9.81827 8.97791 9.69082 8.97791C9.56338 8.97791 9.35544 9.02486 9.18104 9.21267C9.00664 9.40049 8.51698 9.86332 8.51698 10.7957C8.51698 11.7348 9.20116 12.6336 9.29507 12.761C9.38898 12.8885 10.6366 14.8069 12.5416 15.6319C12.9977 15.8264 13.3465 15.9472 13.6282 16.0344C14.0843 16.1819 14.5002 16.1618 14.8289 16.1081C15.1911 16.0545 15.9558 15.6453 16.11 15.2026C16.271 14.7599 16.271 14.3776 16.2241 14.2971C16.1771 14.2367 16.0497 14.1898 15.8552 14.0891Z" fill="white"/>
<defs>
<linearGradient id="paint0_linear_1_3241" x1="12.0003" y1="23.0023" x2="12.0003" y2="-0.998158" gradientUnits="userSpaceOnUse">
<stop stop-color="#27CD44"/>
<stop offset="1" stop-color="#5FFB7C"/>
</linearGradient>
</defs>
</svg>
