<svg width="24" height="24" viewBox="0 0 24 24" fill="none" xmlns="http://www.w3.org/2000/svg">
<path d="M12 1C5.93263 1 1 5.93263 1 12C1 18.0674 5.93263 23 12 23C18.0674 23 23 18.0674 23 12C23 5.93263 18.0674 1 12 1ZM12 21.8421C6.57526 21.8421 2.15789 17.4247 2.15789 12C2.15789 6.57526 6.57526 2.15789 12 2.15789C17.4247 2.15789 21.8421 6.57526 21.8421 12C21.8421 17.4247 17.4305 21.8421 12 21.8421Z" fill="currentColor"/>
<path d="M20.0066 11.6179C20.024 11.5426 20.0298 11.4558 20.0182 11.3747C20.0124 11.3516 20.0008 11.3342 19.9951 11.3111C19.9198 10.4253 19.6998 9.57422 19.3582 8.79264C19.3466 8.76948 19.3408 8.74633 19.3235 8.72317C18.0672 5.92685 15.2651 3.9758 12.0056 3.9758C8.79821 3.9758 6.02505 5.87475 4.74558 8.60738C4.72821 8.63633 4.71664 8.66527 4.69927 8.70001C4.32295 9.52212 4.08558 10.4195 4.01032 11.3632C4.01032 11.369 4.00453 11.369 4.00453 11.3747C3.99874 11.3921 4.00453 11.4095 4.00453 11.4326C3.99295 11.6237 3.97559 11.809 3.97559 12C3.97559 16.4232 7.57663 20.0242 11.9998 20.0242C16.4229 20.0242 20.024 16.4232 20.024 12C20.024 11.8726 20.0124 11.7453 20.0066 11.6179ZM11.9998 5.13369C14.5124 5.13369 16.7124 6.50001 17.9051 8.52054L15.705 8.71159C15.3461 8.74054 14.9872 8.67685 14.6803 8.52633C14.0608 8.21948 13.094 7.85475 11.9998 7.85475C10.9287 7.85475 9.97347 8.2079 9.35979 8.50317C9.024 8.66527 8.64769 8.72896 8.27716 8.68843L6.14084 8.43948C7.34505 6.46527 9.5161 5.13369 11.9998 5.13369ZM5.14505 12.2142C8.04558 13.0595 10.1356 15.63 10.3729 18.6579C7.44347 17.9458 5.24347 15.3463 5.14505 12.2142ZM11.5424 18.8432C11.3745 15.1321 8.79821 11.9653 5.21452 11.039C5.28979 10.5179 5.41716 10.02 5.60243 9.54527L8.14979 9.84054C8.74032 9.91001 9.33662 9.81159 9.87504 9.55106C10.3787 9.30791 11.1545 9.01843 12.0056 9.01843C12.874 9.01843 13.6614 9.31948 14.1708 9.56843C14.5935 9.77685 15.0566 9.88106 15.5314 9.88106C15.624 9.88106 15.7166 9.87527 15.8093 9.86948L18.4377 9.63791C18.6056 10.0837 18.7214 10.5584 18.7908 11.0447C15.213 11.9711 12.6424 15.1379 12.4745 18.8432C12.3182 18.8547 12.1619 18.8663 11.9998 18.8663C11.8435 18.8663 11.6929 18.849 11.5424 18.8432ZM13.644 18.6579C13.8814 15.6358 15.9656 13.0711 18.8545 12.22C18.7561 15.3405 16.5677 17.9342 13.644 18.6579Z" fill="currentColor"/>
<path d="M14.4717 12C14.4717 10.6395 13.3659 9.53369 12.0054 9.53369C10.6449 9.53369 9.53906 10.6395 9.53906 12C9.53906 13.3605 10.6449 14.4663 12.0054 14.4663C13.3601 14.4663 14.4717 13.3605 14.4717 12ZM10.6912 12C10.6912 11.2763 11.2817 10.6916 11.9996 10.6916C12.7233 10.6916 13.308 11.2821 13.308 12C13.308 12.7179 12.7175 13.3084 11.9996 13.3084C11.2759 13.3084 10.6912 12.7237 10.6912 12Z" fill="currentColor"/>
</svg>
