<svg width="24" height="24" viewBox="0 0 24 24" fill="none" xmlns="http://www.w3.org/2000/svg">
<path d="M22.9167 10.2297C21.7707 8.75965 20.127 7.57896 18.2055 6.76869L21.3772 3.60284C21.6029 3.37712 21.6029 3.0125 21.3772 2.78678C21.1515 2.56106 20.7868 2.56106 20.5611 2.78678L17.0075 6.32883C15.4564 5.8253 13.7722 5.55328 12.0359 5.55328C7.5794 5.55328 3.41228 7.34746 1.16088 10.2355C0.9641 10.4902 1.0104 10.849 1.25927 11.0458C1.36345 11.1268 1.49078 11.1673 1.61232 11.1673C1.78595 11.1673 1.95379 11.0921 2.06954 10.9474C4.1068 8.33136 7.92665 6.71081 12.0301 6.71081C13.4307 6.71081 14.7966 6.90181 16.0699 7.25485L13.0024 10.3107C12.6783 10.2818 12.3542 10.2644 12.0243 10.2644C8.85268 10.2644 5.8894 11.5435 4.28043 13.6097C4.08365 13.8644 4.12995 14.2232 4.37882 14.42C4.483 14.501 4.61032 14.5415 4.73187 14.5415C4.9055 14.5415 5.07334 14.4663 5.18909 14.3216C6.56077 12.5621 9.11312 11.4683 11.8796 11.4278L2.7004 20.5954C2.47468 20.8211 2.47468 21.1858 2.7004 21.4115C2.81615 21.5272 2.96084 21.5793 3.11132 21.5793C3.2618 21.5793 3.40649 21.5214 3.52225 21.4115L7.8109 17.1344C7.83405 17.1344 7.8572 17.146 7.87456 17.146C8.03083 17.146 8.1871 17.0823 8.30285 16.9608C9.05525 16.1389 10.4906 15.6296 12.0417 15.6296C13.5928 15.6296 15.0281 16.1389 15.7805 16.9608C15.9947 17.1981 16.3593 17.2096 16.5966 16.9955C16.8339 16.7813 16.8454 16.4109 16.6313 16.1794C15.6532 15.1087 13.9342 14.4721 12.0359 14.4721C11.4224 14.4721 10.8321 14.5473 10.2707 14.6746L13.4423 11.5204C15.7053 11.8213 17.7194 12.8284 18.8769 14.3158C19.0737 14.5647 19.4383 14.611 19.6872 14.4142C19.936 14.2174 19.9823 13.8528 19.7856 13.6039C18.5933 12.076 16.6602 10.9821 14.4493 10.5133L17.3142 7.6542C19.2415 8.38924 20.8852 9.51783 22.0022 10.9416C22.199 11.1905 22.5636 11.2368 22.8125 11.04C23.0672 10.8432 23.1135 10.4786 22.9167 10.2297Z" fill="currentColor"/>
<path d="M12.0417 18.1877C11.6713 18.1877 11.3761 18.4887 11.3761 18.8533C11.3761 19.2237 11.6771 19.5189 12.0417 19.5189C12.4121 19.5189 12.7073 19.2179 12.7073 18.8533C12.7073 18.4829 12.4063 18.1877 12.0417 18.1877Z" fill="currentColor"/>
</svg>
