<svg width="24" height="24" viewBox="0 0 24 24" fill="none" xmlns="http://www.w3.org/2000/svg">
<path d="M7.83167 16.2892C7.69271 16.2892 7.55374 16.2371 7.44373 16.1387C7.20634 15.9244 7.18897 15.5539 7.40899 15.3223C8.38752 14.2511 10.1072 13.6142 12.0063 13.6142C13.9055 13.6142 15.6194 14.2511 16.6037 15.3223C16.8179 15.5596 16.8064 15.9244 16.569 16.1387C16.3316 16.3529 15.9668 16.3355 15.7526 16.1039C14.9998 15.2817 13.5639 14.7722 12.0121 14.7722C10.4546 14.7722 9.02444 15.2817 8.27172 16.1039C8.14434 16.2255 7.988 16.2892 7.83167 16.2892Z" fill="currentColor"/>
<path d="M4.70486 13.6721C4.57748 13.6721 4.45589 13.6315 4.35166 13.5505C4.0969 13.3536 4.05637 12.9888 4.25323 12.7399C5.86289 10.6786 8.83322 9.39316 12.0062 9.39316C15.1792 9.39316 18.1437 10.6728 19.7534 12.7399C19.9503 12.9946 19.9039 13.3536 19.655 13.5505C19.406 13.7473 19.0412 13.701 18.8443 13.452C17.4489 11.6629 14.8318 10.5512 12.0062 10.5512C9.18642 10.5512 6.56349 11.6629 5.16807 13.452C5.05227 13.5968 4.87857 13.6721 4.70486 13.6721Z" fill="currentColor"/>
<path d="M12.0295 18.6574C12.3973 18.6574 12.6954 18.3592 12.6954 17.9915C12.6954 17.6237 12.3973 17.3256 12.0295 17.3256C11.6618 17.3256 11.3636 17.6237 11.3636 17.9915C11.3636 18.3592 11.6618 18.6574 12.0295 18.6574Z" fill="currentColor"/>
<path d="M12.0005 4.67999C7.54214 4.67999 3.37325 6.47493 1.12089 9.3642C0.924029 9.61897 0.97035 9.97796 1.21933 10.1748C1.32355 10.2559 1.45093 10.2964 1.57252 10.2964C1.74623 10.2964 1.91414 10.2211 2.02994 10.0764C4.07386 7.45925 7.89534 5.83802 12.0005 5.83802C16.1057 5.83802 19.9272 7.45925 21.9653 10.0764C22.1622 10.3312 22.527 10.3717 22.776 10.1748C23.0307 9.97796 23.0713 9.61318 22.8744 9.3642C20.622 6.47493 16.4589 4.67999 12.0005 4.67999Z" fill="currentColor"/>
</svg>
