<svg width="24" height="24" viewBox="0 0 24 24" fill="none" xmlns="http://www.w3.org/2000/svg">
<path d="M1.51938 12.4611H19.432C21.3657 12.4611 22.9404 10.8863 22.9404 8.95264C22.9404 7.01895 21.3657 5.44421 19.3857 5.44421C19.0673 5.44421 18.8299 5.70474 18.8299 6.02316C18.8299 6.34158 19.1136 6.60211 19.432 6.60211C20.7289 6.60211 21.7825 7.65579 21.7825 8.95264C21.7825 10.2495 20.7289 11.3032 19.432 11.3032H1.51938C1.20096 11.3032 0.94043 11.5637 0.94043 11.8821C0.94043 12.2005 1.20096 12.4611 1.51938 12.4611Z" fill="currentColor"/>
<path d="M19.3857 13.1731H1.51938C1.20096 13.1731 0.94043 13.4336 0.94043 13.752C0.94043 14.0705 1.20096 14.331 1.51938 14.331H19.3857C20.7057 14.331 21.7825 15.4078 21.7825 16.7278C21.7825 18.0478 20.7057 19.1247 19.3857 19.1247C19.0673 19.1247 18.8067 19.3852 18.8067 19.7036C18.8067 20.022 19.0673 20.2826 19.3857 20.2826C21.3483 20.2826 22.9404 18.6847 22.9404 16.7278C22.9404 14.771 21.3425 13.1731 19.3857 13.1731Z" fill="currentColor"/>
<path d="M1.51938 10.5794H10.4525C12.4152 10.5794 14.0073 8.98155 14.0073 7.02471C14.0073 5.06787 12.4094 3.46997 10.4525 3.46997C10.1341 3.46997 9.87358 3.7305 9.87358 4.04892C9.87358 4.36734 10.1341 4.62787 10.4525 4.62787C11.7725 4.62787 12.8494 5.70471 12.8494 7.02471C12.8494 8.34471 11.7725 9.42155 10.4525 9.42155H1.51938C1.20096 9.42155 0.94043 9.68208 0.94043 10.0005C0.94043 10.3189 1.20096 10.5794 1.51938 10.5794Z" fill="currentColor"/>
</svg>
