<svg width="20" height="22" viewBox="0 0 20 22" fill="none" xmlns="http://www.w3.org/2000/svg">
<path d="M19.3307 15.9521L16.6525 14.3815L19.4069 13.6606C19.7175 13.5786 19.905 13.2563 19.823 12.9457C19.7409 12.6351 19.4186 12.4417 19.108 12.5296L15.2226 13.5493L11.2023 11.1993L15.2226 8.84923L19.1139 9.86894C19.1608 9.88066 19.2135 9.88652 19.2604 9.88652C19.5182 9.88652 19.7585 9.71071 19.8288 9.44699C19.9109 9.13639 19.7234 8.81406 19.4128 8.73202L16.6584 8.01119L19.3307 6.44646C19.612 6.28237 19.7058 5.92488 19.5417 5.64358C19.3776 5.36228 19.0201 5.26851 18.7388 5.43261L16.0606 7.0032L16.7814 4.2488C16.8635 3.9382 16.6759 3.61588 16.3653 3.53383C16.0547 3.45178 15.7324 3.63932 15.6504 3.94992L14.6307 7.84124L10.5225 10.244V5.35056L13.3648 2.50826C13.5934 2.2797 13.5934 1.9105 13.3648 1.68194C13.1362 1.45338 12.767 1.45338 12.5385 1.68194L10.5166 3.69206V0.586042C10.5166 0.263719 10.2529 0 9.9306 0C9.60828 0 9.34456 0.263719 9.34456 0.586042V3.69206L7.32857 1.67608C7.10002 1.44752 6.73081 1.44752 6.50225 1.67608C6.2737 1.90464 6.2737 2.27384 6.50225 2.5024L9.34456 5.3447V10.1092L5.21882 7.70059L4.19911 3.80927C4.11707 3.49867 3.79474 3.31113 3.48414 3.39318C3.16768 3.47523 2.98601 3.79755 3.06805 4.10815L3.78888 6.86255L1.33337 5.43261C1.05793 5.26851 0.700443 5.36228 0.536351 5.63772C0.37226 5.91902 0.466026 6.2765 0.747326 6.4406L3.19698 7.8764L0.442585 8.59723C0.126122 8.67928 -0.0555506 9.0016 0.0264953 9.3122C0.0968202 9.57592 0.331237 9.75173 0.594956 9.75173C0.641839 9.75173 0.694583 9.74587 0.741466 9.73415L4.63278 8.71444L8.88744 11.1993L4.63278 13.6841L0.747326 12.6644C0.436724 12.5823 0.114401 12.7698 0.0323557 13.0804C-0.0496902 13.391 0.137843 13.7134 0.448445 13.7954L3.20284 14.5162L0.753187 15.9521C0.471887 16.1161 0.37812 16.4736 0.542212 16.7549C0.65356 16.9425 0.846953 17.0479 1.04621 17.0479C1.14583 17.0479 1.24546 17.0245 1.33923 16.9659L3.78888 15.5301L3.06805 18.2845C2.98601 18.5951 3.17354 18.9174 3.48414 18.9995C3.53102 19.0112 3.58377 19.017 3.63065 19.017C3.88851 19.017 4.12879 18.8412 4.19911 18.5775L5.21882 14.6862L9.34456 12.2717V16.919L6.50225 19.7613C6.2737 19.9899 6.2737 20.3591 6.50225 20.5876C6.73081 20.8162 7.10002 20.8162 7.32857 20.5876L9.34456 18.5717V21.414C9.34456 21.7363 9.60828 22 9.9306 22C10.2529 22 10.5166 21.7363 10.5166 21.414V18.5717L12.5326 20.5876C12.6498 20.7048 12.7963 20.7576 12.9487 20.7576C13.1011 20.7576 13.2476 20.699 13.3648 20.5876C13.5934 20.3591 13.5934 19.9899 13.3648 19.7613L10.5225 16.919V12.1428L14.6307 14.5456L15.6504 18.4369C15.7207 18.7006 15.9551 18.8764 16.2188 18.8764C16.2657 18.8764 16.3185 18.8705 16.3653 18.8588C16.6759 18.7768 16.8635 18.4544 16.7814 18.1438L16.0606 15.3895L18.7388 16.96C18.8326 17.0128 18.9322 17.0421 19.0318 17.0421C19.2311 17.0421 19.4303 16.9366 19.5358 16.7491C19.7058 16.4795 19.612 16.1161 19.3307 15.9521Z" fill="currentColor"/>
</svg>
