<svg width="24" height="24" viewBox="0 0 24 24" fill="none" xmlns="http://www.w3.org/2000/svg">
<path d="M21.1398 17.5211C21.1398 17.5211 21.1398 17.5211 21.1049 17.5211C19.0663 16.5975 19.1302 13.1417 19.1824 10.6209C19.1824 10.2492 19.1824 9.8949 19.1824 9.57545C19.1696 7.72546 18.7093 5.90606 17.8407 4.27257C17.3044 3.27086 16.5063 2.43347 15.5315 1.84966C14.5567 1.26586 13.4418 0.95752 12.3055 0.95752C11.1693 0.95752 10.0543 1.26586 9.07955 1.84966C8.10475 2.43347 7.30665 3.27086 6.77033 4.27257C5.91218 5.8949 5.45605 7.69954 5.44026 9.53479C5.44026 9.85424 5.44026 10.2085 5.44026 10.5803C5.49253 13.101 5.55642 16.5569 3.51774 17.4804H3.48289C3.09177 17.7176 2.76859 18.0519 2.5447 18.4508C2.32082 18.8498 2.20383 19.2998 2.20509 19.7572V22.3767C2.20509 22.5307 2.26629 22.6785 2.37521 22.7874C2.48413 22.8963 2.63186 22.9575 2.78591 22.9575H21.8252C21.9792 22.9575 22.1269 22.8963 22.2359 22.7874C22.3448 22.6785 22.406 22.5307 22.406 22.3767V19.7572C22.4015 19.3078 22.283 18.8668 22.0615 18.4757C21.8401 18.0846 21.5229 17.7561 21.1398 17.5211ZM7.44408 8.95397C7.44194 8.55918 7.50473 8.16674 7.62994 7.79233C8.66865 7.50123 9.56895 6.84815 10.1681 5.95113C11.0335 6.90948 13.0316 8.24537 17.1728 7.65874C17.202 7.99692 17.202 8.33699 17.1728 8.67518C17.1728 8.77972 17.1728 8.88427 17.1728 9.00043C17.1728 13.7748 13.1593 15.2849 12.323 15.5463C11.4575 15.2675 7.44408 13.7515 7.44408 8.95397ZM8.0249 14.0013V15.1629C7.43469 15.8115 6.69782 16.3094 5.87587 16.615C6.57866 15.1165 6.64255 13.1301 6.62512 11.3876C6.90916 12.3461 7.38764 13.2358 8.03071 14.0013H8.0249ZM16.5978 13.9548C17.251 13.1713 17.7319 12.259 18.0092 11.2772C18.0092 13.0604 18.0092 15.1107 18.7526 16.6498C17.9312 16.3432 17.1945 15.8455 16.6036 15.1978L16.5978 13.9548ZM12.3172 2.09449C15.3316 2.09449 16.8592 4.26095 17.5445 6.46806C17.4349 6.45048 17.3231 6.45048 17.2135 6.46806C11.9106 7.29863 10.7025 4.75465 10.6502 4.63848C10.6065 4.5353 10.5339 4.44695 10.4412 4.38408C10.3484 4.32122 10.2395 4.28653 10.1275 4.28418C10.0144 4.28166 9.90307 4.31218 9.80712 4.37202C9.71117 4.43186 9.63477 4.51841 9.5873 4.62105C9.38073 5.14645 9.04712 5.61245 8.61634 5.97735C8.18556 6.34224 7.67104 6.59466 7.11882 6.712H6.99685C7.6706 4.43519 9.18654 2.09449 12.3172 2.09449ZM21.256 21.8423H3.37835V19.8037C3.37629 19.5289 3.45071 19.259 3.59329 19.0241C3.73587 18.7892 3.94098 18.5986 4.18568 18.4736H4.22634C4.29313 18.4395 4.36318 18.4123 4.43544 18.3923C8.18172 17.3468 9.08199 15.8134 9.15169 15.645C9.19265 15.5618 9.21448 15.4705 9.21558 15.3778V15.1571C10.0941 15.859 11.0971 16.3891 12.1719 16.7195C12.22 16.7279 12.2691 16.7279 12.3172 16.7195C12.3652 16.7284 12.4144 16.7284 12.4624 16.7195C13.5556 16.3825 14.5747 15.8404 15.4652 15.1223V15.343C15.4663 15.4357 15.4881 15.527 15.5291 15.6102C15.6162 15.7786 16.4991 17.312 20.2453 18.3574C20.3176 18.3774 20.3876 18.4047 20.4544 18.4387H20.4951C20.735 18.5659 20.9352 18.7569 21.0735 18.9905C21.2119 19.2242 21.283 19.4915 21.2792 19.763L21.256 21.8423Z" fill="currentColor"/>
</svg>
