<svg width="24" height="25" viewBox="0 0 24 25" fill="none" xmlns="http://www.w3.org/2000/svg">
<path d="M11.0353 5.74805H7.76829L3.82324 11.4134L7.76829 17.0809H11.0353L7.0902 11.4134L11.0353 5.74805Z" fill="#0C55F8"/>
<path d="M12.9629 5.74805H16.2299L20.1749 11.4134L16.2299 17.0809H12.9629L16.9079 11.4134L12.9629 5.74805Z" fill="#0C55F8"/>
<path d="M8.00731 19.8645L7.51758 18.2069H7.72686L8.13707 19.6803L8.52634 18.2069H8.75446L9.14373 19.6866L9.55394 18.2069H9.75276L9.26512 19.8645H9.01607L8.72307 18.7887L8.63726 18.4141H8.63517L8.54936 18.7887L8.25845 19.8645H8.00731Z" fill="#0C55F8"/>
<path d="M10.7603 18.1818C10.9172 18.1818 11.0533 18.2173 11.1684 18.2864C11.2835 18.3555 11.3714 18.4538 11.4342 18.5815C11.497 18.7092 11.5284 18.8599 11.5284 19.0357C11.5284 19.2115 11.497 19.3621 11.4342 19.4898C11.3714 19.6175 11.2835 19.7158 11.1684 19.7849C11.0533 19.854 10.9172 19.8895 10.7603 19.8895C10.6033 19.8895 10.4673 19.854 10.3522 19.7849C10.2371 19.7158 10.1492 19.6175 10.0864 19.4898C10.0236 19.3621 9.99219 19.2115 9.99219 19.0357C9.99219 18.8599 10.0236 18.7092 10.0864 18.5815C10.1492 18.4538 10.2371 18.3555 10.3522 18.2864C10.4673 18.2173 10.6012 18.1818 10.7603 18.1818ZM10.7603 18.3701C10.6473 18.3701 10.5468 18.3973 10.4631 18.4496C10.3794 18.502 10.3145 18.5794 10.2705 18.6778C10.2245 18.7782 10.2036 18.8975 10.2036 19.0357C10.2036 19.1738 10.2266 19.2931 10.2705 19.3935C10.3166 19.494 10.3794 19.5693 10.4631 19.6217C10.5468 19.674 10.6452 19.7012 10.7603 19.7012C10.8754 19.7012 10.9758 19.674 11.0575 19.6217C11.1412 19.5693 11.204 19.4919 11.25 19.3935C11.296 19.2952 11.317 19.1738 11.317 19.0357C11.317 18.8975 11.2939 18.7782 11.25 18.6778C11.206 18.5773 11.1412 18.502 11.0575 18.4496C10.9737 18.3952 10.8754 18.3701 10.7603 18.3701Z" fill="#0C55F8"/>
<path d="M12.5986 18.2069C12.7681 18.2069 12.9041 18.2509 13.0046 18.3367C13.1071 18.4246 13.1574 18.5418 13.1574 18.6904C13.1574 18.839 13.105 18.9562 13.0025 19.0378C12.8999 19.1215 12.7639 19.1613 12.5944 19.1613L12.5776 19.1738H12.1716V19.8624H11.9707V18.2048H12.5986V18.2069ZM12.5965 18.9876C12.7158 18.9876 12.8037 18.9625 12.8623 18.9143C12.9209 18.8641 12.9481 18.7908 12.9481 18.6925C12.9481 18.5941 12.9188 18.5188 12.8623 18.4706C12.8037 18.4204 12.7158 18.3974 12.5965 18.3974H12.1716V18.9897H12.5965V18.9876ZM12.7116 19.0273L13.2599 19.8645H13.0213L12.5441 19.1383L12.7116 19.0273Z" fill="#0C55F8"/>
<path d="M13.8415 18.2069V19.8645H13.6406V18.2069H13.8415ZM14.9382 18.2069L14.2141 18.9478L14.1848 18.9792L13.7411 19.4333V19.1613L14.6745 18.2048H14.9382V18.2069ZM14.235 18.818L14.9466 19.8624H14.7059L14.0697 18.9311L14.235 18.818Z" fill="#0C55F8"/>
<path d="M17.2718 18.3953H16.3132V18.931H17.0625V19.1194H16.3132V19.8645H16.1123V18.2069H17.2718V18.3953Z" fill="#0C55F8"/>
<path d="M17.8454 19.6761H18.7956V19.8645H17.6445V18.2069H17.8454V19.6761Z" fill="#0C55F8"/>
<path d="M19.7564 18.1818C19.9133 18.1818 20.0494 18.2173 20.1645 18.2864C20.2796 18.3555 20.3675 18.4538 20.4303 18.5815C20.4931 18.7092 20.5244 18.8599 20.5244 19.0357C20.5244 19.2115 20.4931 19.3621 20.4303 19.4898C20.3675 19.6175 20.2796 19.7158 20.1645 19.7849C20.0494 19.854 19.9133 19.8895 19.7564 19.8895C19.5994 19.8895 19.4634 19.854 19.3483 19.7849C19.2331 19.7158 19.1452 19.6175 19.0825 19.4898C19.0197 19.3621 18.9883 19.2115 18.9883 19.0357C18.9883 18.8599 19.0197 18.7092 19.0825 18.5815C19.1452 18.4538 19.2331 18.3555 19.3483 18.2864C19.4634 18.2173 19.5994 18.1818 19.7564 18.1818ZM19.7564 18.3701C19.6433 18.3701 19.5429 18.3973 19.4592 18.4496C19.3755 18.502 19.3106 18.5794 19.2666 18.6778C19.2206 18.7782 19.1997 18.8975 19.1997 19.0357C19.1997 19.1738 19.2227 19.2931 19.2666 19.3935C19.3127 19.494 19.3755 19.5693 19.4592 19.6217C19.5429 19.674 19.6413 19.7012 19.7564 19.7012C19.8715 19.7012 19.9719 19.674 20.0536 19.6217C20.1373 19.5693 20.2001 19.4919 20.2461 19.3935C20.2921 19.2952 20.3131 19.1738 20.3131 19.0357C20.3131 18.8975 20.29 18.7782 20.2461 18.6778C20.2021 18.5773 20.1373 18.502 20.0536 18.4496C19.9698 18.3952 19.8715 18.3701 19.7564 18.3701Z" fill="#0C55F8"/>
<path d="M21.2544 19.8645L20.7646 18.2069H20.9739L21.3841 19.6803L21.7734 18.2069H22.0015L22.3908 19.6866L22.801 18.2069H22.9998L22.5122 19.8645H22.2631L21.9701 18.7887L21.8843 18.4141H21.8822L21.7964 18.7887L21.5055 19.8645H21.2544Z" fill="#0C55F8"/>
<path d="M5.68343 19.5798C5.85923 19.5798 5.96596 19.517 5.96596 19.383V19.3768C5.96596 19.2554 5.87597 19.18 5.67087 19.18H5.20835V19.5798H5.68343ZM5.57669 18.8473C5.75249 18.8473 5.86551 18.7908 5.86551 18.6547V18.6484C5.86551 18.5292 5.77133 18.4622 5.6039 18.4622H5.20835V18.8473H5.57669ZM4.67676 18.1127H5.6625C5.86969 18.1127 6.03293 18.1692 6.13758 18.2738C6.22129 18.3575 6.26315 18.458 6.26315 18.5836V18.5898C6.26315 18.7949 6.15432 18.9101 6.02456 18.9812C6.23385 19.0607 6.36361 19.1842 6.36361 19.427V19.4312C6.36361 19.7639 6.09363 19.9293 5.68343 19.9293H4.81907V18.3701C4.81907 18.1566 4.67676 18.1545 4.67676 18.1545V18.1127Z" fill="#0C55F8"/>
<path d="M4.5602 18.3094C4.5602 18.3094 4.57066 18.1127 4.37812 18.1127H4.16674C4.16674 18.1127 4.16674 19.0001 4.16674 19.3684L3.40075 18.3408C3.40075 18.3408 3.26262 18.1106 2.98008 18.1106H2.67871V18.1545C2.67871 18.1545 2.85451 18.2111 2.85451 18.4727V19.6091V19.8791V19.9293H3.12031C3.25634 19.9293 3.25006 19.7388 3.25006 19.7388V18.7719L3.95117 19.6802C3.95117 19.6802 4.10814 19.9293 4.34672 19.9293H4.5602V19.8958V18.3094Z" fill="#0C55F8"/>
<path d="M2.00667 19.5798C2.18247 19.5798 2.28921 19.517 2.28921 19.383V19.3768C2.28921 19.2554 2.19921 19.18 1.99411 19.18H1.53159V19.5798H2.00667ZM1.89993 18.8473C2.07573 18.8473 2.18875 18.7908 2.18875 18.6547V18.6484C2.18875 18.5292 2.09457 18.4622 1.92714 18.4622H1.53159V18.8473H1.89993ZM1 18.1127H1.98574C2.19293 18.1127 2.35618 18.1692 2.46082 18.2738C2.54453 18.3575 2.58639 18.458 2.58639 18.5836V18.5898C2.58639 18.7949 2.47756 18.9101 2.34781 18.9812C2.55709 19.0607 2.68685 19.1842 2.68685 19.427V19.4312C2.68685 19.7639 2.41687 19.9293 2.00667 19.9293H1.14231V18.3701C1.14231 18.1587 1 18.1545 1 18.1545V18.1127Z" fill="#0C55F8"/>
</svg>
