<svg width="24" height="24" viewBox="0 0 24 24" fill="none" xmlns="http://www.w3.org/2000/svg">
<path d="M17.2992 7.85474V4.52579C17.2992 2.58053 15.7186 1 13.7734 1H7.78705C7.46863 1 7.2081 1.26053 7.2081 1.57895V7.85474C6.276 8.98368 5.72021 10.4311 5.72021 12C5.72021 13.5689 6.28179 15.0163 7.2081 16.1453V19.4742C7.2081 21.4195 8.78864 23 10.7339 23H16.7202C17.0386 23 17.2992 22.7395 17.2992 22.4211V16.1453C18.2313 15.0163 18.7871 13.5689 18.7871 12C18.7871 10.4311 18.2255 8.98368 17.2992 7.85474ZM13.7676 2.15789C15.076 2.15789 16.1355 3.22316 16.1355 4.52579V6.76053C15.0471 5.95 13.7039 5.46368 12.2507 5.46368C10.7918 5.46368 9.44863 5.95 8.366 6.76053V2.15789H13.7676ZM12.2507 6.62158C15.215 6.62158 17.6292 9.03579 17.6292 12C17.6292 14.9642 15.215 17.3784 12.2507 17.3784C9.28653 17.3784 6.87232 14.9642 6.87232 12C6.87811 9.03579 9.28653 6.62158 12.2507 6.62158ZM10.7339 21.8421C9.42548 21.8421 8.366 20.7768 8.366 19.4742V17.2395C9.45442 18.05 10.7976 18.5363 12.2507 18.5363C13.7097 18.5363 15.0471 18.05 16.1355 17.2395V21.8421H10.7339Z" fill="currentColor"/>
<path d="M12.2506 12.5789H15.2264C15.5448 12.5789 15.8054 12.3184 15.8054 11.9999C15.8054 11.6815 15.5448 11.421 15.2264 11.421H12.8296V8.91415C12.8296 8.59573 12.5691 8.33521 12.2506 8.33521C11.9322 8.33521 11.6717 8.59573 11.6717 8.91415V11.9999C11.6717 12.3184 11.9322 12.5789 12.2506 12.5789Z" fill="currentColor"/>
</svg>
