<svg width="24" height="25" viewBox="0 0 24 25" fill="none" xmlns="http://www.w3.org/2000/svg">
<path d="M12 24.748C18.6274 24.748 24 19.3755 24 12.748C24 6.12063 18.6274 0.748047 12 0.748047C5.37258 0.748047 0 6.12063 0 12.748C0 19.3755 5.37258 24.748 12 24.748Z" fill="black"/>
<path d="M17.5539 18.4473C16.4715 18.4473 15.4559 18.454 14.447 18.4406C14.3401 18.4406 14.2131 18.3203 14.1396 18.2201C13.2243 16.8972 12.3089 15.5742 11.4002 14.2446C11.3468 14.1644 11.2866 14.0843 11.2131 13.984C10.7521 14.5186 10.3045 15.033 9.85679 15.5542C9.08174 16.4562 8.31336 17.3649 7.53162 18.2535C7.43808 18.3604 7.25768 18.4139 7.11069 18.4406C6.92361 18.474 6.72316 18.4473 6.44922 18.4473C7.92583 16.7235 9.36236 15.0531 10.8056 13.376C9.36236 11.278 7.93252 9.1934 6.47594 7.08204C6.58285 7.06867 6.65635 7.05531 6.72984 7.05531C7.65189 7.05531 8.58062 7.04863 9.50267 7.06199C9.62294 7.06199 9.78329 7.14885 9.85011 7.24908C10.712 8.47847 11.5606 9.71455 12.4158 10.9506C12.4826 11.0442 12.5494 11.1377 12.6296 11.258C13.1508 10.6566 13.6452 10.0754 14.1463 9.50074C14.8011 8.73905 15.4492 7.97736 16.1107 7.22235C16.1909 7.13549 16.3312 7.07536 16.4514 7.06199C16.6653 7.03527 16.8791 7.05531 17.1664 7.05531C16.9459 7.31589 16.7655 7.53638 16.5851 7.75687C15.4559 9.06644 14.3334 10.376 13.1975 11.6856C13.0706 11.8326 13.084 11.9261 13.1909 12.0865C14.5739 14.0843 15.9503 16.0954 17.3334 18.0999C17.3869 18.1867 17.4537 18.2936 17.5539 18.4473ZM7.83229 7.77023C10.1107 11.0843 12.349 14.3315 14.5873 17.5787C14.6274 17.6388 14.7009 17.719 14.761 17.719C15.2154 17.7324 15.6697 17.7257 16.1775 17.7257C16.084 17.5787 16.0305 17.4918 15.9704 17.405C15.2555 16.3693 14.5472 15.3337 13.8323 14.3048C12.3891 12.2001 10.9392 10.1021 9.49599 7.9974C9.43586 7.91054 9.33563 7.78359 9.24877 7.78359C8.79443 7.75687 8.34677 7.77023 7.83229 7.77023Z" fill="white"/>
</svg>
