<svg width="24" height="25" viewBox="0 0 24 25" fill="none" xmlns="http://www.w3.org/2000/svg">
<path d="M20.62 24.748H3.38C1.51334 24.748 0 23.2347 0 21.368V4.12805C0 2.26138 1.51334 0.748047 3.38 0.748047H20.62C22.4867 0.748047 24 2.26138 24 4.12805V21.368C24 23.2347 22.4867 24.748 20.62 24.748Z" fill="black"/>
<path d="M17.5409 18.4347C16.4609 18.4347 15.4476 18.4413 14.4409 18.428C14.3343 18.428 14.2076 18.308 14.1343 18.208C13.2209 16.888 12.3076 15.568 11.4009 14.2413C11.3476 14.1613 11.2876 14.0813 11.2143 13.9813C10.7543 14.5147 10.3076 15.028 9.86093 15.548C9.0876 16.448 8.32093 17.3547 7.54093 18.2413C7.4476 18.348 7.2676 18.4013 7.12093 18.428C6.93426 18.4613 6.73427 18.4347 6.46094 18.4347C7.93427 16.7147 9.36761 15.048 10.8076 13.3747C9.36761 11.2813 7.94093 9.20132 6.4876 7.09466C6.59427 7.08132 6.6676 7.06799 6.74094 7.06799C7.66094 7.06799 8.5876 7.06132 9.5076 7.07466C9.6276 7.07466 9.7876 7.16132 9.85427 7.26132C10.7143 8.48799 11.5609 9.72132 12.4143 10.9547C12.4809 11.048 12.5476 11.1413 12.6276 11.2613C13.1476 10.6613 13.6409 10.0813 14.1409 9.50799C14.7943 8.74799 15.4409 7.98799 16.1009 7.23466C16.1809 7.14799 16.3209 7.08799 16.4409 7.07466C16.6543 7.04799 16.8676 7.06799 17.1543 7.06799C16.9343 7.32799 16.7543 7.54799 16.5743 7.76799C15.4476 9.07466 14.3276 10.3813 13.1943 11.688C13.0676 11.8347 13.0809 11.928 13.1876 12.088C14.5676 14.0813 15.9409 16.088 17.3209 18.088C17.3743 18.1813 17.4409 18.2813 17.5409 18.4347ZM7.84093 7.78132C10.1143 11.088 12.3476 14.328 14.5809 17.568C14.6209 17.628 14.6943 17.708 14.7543 17.708C15.2076 17.7213 15.6609 17.7147 16.1676 17.7147C16.0743 17.568 16.0209 17.4813 15.9609 17.3947C15.2476 16.3613 14.5409 15.328 13.8276 14.3013C12.3876 12.2013 10.9409 10.108 9.50094 8.00799C9.44094 7.92132 9.34094 7.79466 9.25427 7.79466C8.80094 7.77466 8.35427 7.78132 7.84093 7.78132Z" fill="white"/>
</svg>
