<svg width="24" height="25" viewBox="0 0 24 25" fill="none" xmlns="http://www.w3.org/2000/svg">
<path d="M19.5487 9.08389C19.3685 8.40314 18.8278 7.86254 18.1471 7.68234C16.9124 7.34863 11.9602 7.34863 11.9602 7.34863C11.9602 7.34863 7.00804 7.34863 5.77333 7.68234C5.09257 7.86254 4.55199 8.40314 4.37179 9.08389C4.03809 10.3186 4.03809 12.8948 4.03809 12.8948C4.03809 12.8948 4.03809 15.471 4.37179 16.7057C4.55199 17.3865 5.09257 17.9271 5.77333 18.1073C7.00804 18.441 11.9602 18.441 11.9602 18.441C11.9602 18.441 16.9124 18.441 18.1471 18.1073C18.8278 17.9271 19.3685 17.3865 19.5487 16.7057C19.8824 15.471 19.8824 12.8948 19.8824 12.8948C19.8824 12.8948 19.8824 10.3186 19.5487 9.08389ZM10.3785 15.2708V10.5188L14.4964 12.8948L10.3785 15.2708Z" fill="white"/>
<path d="M12 24.7481C18.6274 24.7481 24 19.3755 24 12.748C24 6.12063 18.6274 0.748047 12 0.748047C5.37259 0.748047 0 6.12063 0 12.748C0 19.3755 5.37259 24.7481 12 24.7481Z" fill="#FD0000"/>
<path d="M19.5946 8.93717C19.4144 8.25641 18.8738 7.71581 18.193 7.53561C16.9583 7.2019 12.0061 7.2019 12.0061 7.2019C12.0061 7.2019 7.05396 7.2019 5.81925 7.53561C5.13849 7.71581 4.59789 8.25641 4.41769 8.93717C4.08398 10.1719 4.08398 12.7481 4.08398 12.7481C4.08398 12.7481 4.08398 15.3243 4.41769 16.559C4.59789 17.2397 5.13849 17.7803 5.81925 17.9605C7.05396 18.2942 12.0061 18.2942 12.0061 18.2942C12.0061 18.2942 16.9583 18.2942 18.193 17.9605C18.8738 17.7803 19.4144 17.2397 19.5946 16.559C19.9283 15.3243 19.9283 12.7481 19.9283 12.7481C19.9283 12.7481 19.9216 10.1719 19.5946 8.93717ZM10.4177 15.124V10.3721L14.5356 12.7481L10.4177 15.124Z" fill="white"/>
</svg>
