<svg width="24" height="25" viewBox="0 0 24 25" fill="none" xmlns="http://www.w3.org/2000/svg">
<path d="M20.62 24.748H3.38C1.51333 24.748 0 23.2347 0 21.368V4.12805C0 2.26138 1.51333 0.748047 3.38 0.748047H20.62C22.4867 0.748047 24 2.26138 24 4.12805V21.368C24 23.2347 22.4867 24.748 20.62 24.748Z" fill="#FD0000"/>
<path d="M19.5803 9.07464C19.4003 8.39464 18.8602 7.85464 18.1802 7.67464C16.9469 7.34131 12.0002 7.34131 12.0002 7.34131C12.0002 7.34131 7.05358 7.34131 5.82025 7.67464C5.14025 7.85464 4.60025 8.39464 4.42025 9.07464C4.08691 10.308 4.08691 12.8813 4.08691 12.8813C4.08691 12.8813 4.08691 15.4546 4.42025 16.688C4.60025 17.368 5.14025 17.908 5.82025 18.088C7.05358 18.4213 12.0002 18.4213 12.0002 18.4213C12.0002 18.4213 16.9469 18.4213 18.1802 18.088C18.8602 17.908 19.4003 17.368 19.5803 16.688C19.9136 15.4546 19.9136 12.8813 19.9136 12.8813C19.9136 12.8813 19.9136 10.308 19.5803 9.07464ZM10.4202 15.2546V10.508L14.5336 12.8813L10.4202 15.2546Z" fill="white"/>
</svg>
