<svg width="24" height="24" viewBox="0 0 24 24" fill="none" xmlns="http://www.w3.org/2000/svg">
<path d="M12.7071 8.77869H5.26158C4.94315 8.77869 4.68262 9.03922 4.68262 9.35765C4.68262 9.67608 4.94315 9.93662 5.26158 9.93662H12.7071C13.0255 9.93662 13.286 9.67608 13.286 9.35765C13.286 9.03922 13.0255 8.77869 12.7071 8.77869Z" fill="currentColor"/>
<path d="M22.8385 21.6664L15.2483 13.8099C16.1283 12.5419 16.6494 11.0077 16.6494 9.35184C16.6494 5.03856 13.1409 1.53003 8.8276 1.53003C4.51431 1.53003 1 5.04435 1 9.35763C1 13.6709 4.50853 17.1794 8.82182 17.1794C11.0624 17.1794 13.0772 16.2299 14.5072 14.7131L22.0048 22.4712C22.1206 22.587 22.2712 22.6507 22.4217 22.6507C22.5664 22.6507 22.7112 22.5986 22.827 22.4886C23.0528 22.2628 23.0586 21.898 22.8385 21.6664ZM8.82182 16.0215C5.14539 16.0215 2.15793 13.0341 2.15793 9.35763C2.15793 5.68121 5.15118 2.69375 8.82182 2.69375C12.4982 2.69375 15.4857 5.68121 15.4857 9.35763C15.4857 13.0341 12.4982 16.0215 8.82182 16.0215Z" fill="currentColor"/>
</svg>
