<svg width="24" height="24" viewBox="0 0 24 24" fill="none" xmlns="http://www.w3.org/2000/svg">
<path d="M12.5445 8.24862H9.4007V5.10484C9.4007 4.78641 9.14016 4.52588 8.82173 4.52588C8.5033 4.52588 8.24277 4.78641 8.24277 5.10484V8.24862H5.09898C4.78055 8.24862 4.52002 8.50916 4.52002 8.82759C4.52002 9.14602 4.78055 9.40655 5.09898 9.40655H8.24277V12.5503C8.24277 12.8688 8.5033 13.1293 8.82173 13.1293C9.14016 13.1293 9.4007 12.8688 9.4007 12.5503V9.40655H12.5445C12.8629 9.40655 13.1234 9.14602 13.1234 8.82759C13.1234 8.50916 12.8687 8.24862 12.5445 8.24862Z" fill="currentColor"/>
<path d="M22.8385 21.1364L15.2483 13.2798C16.1283 12.0119 16.6494 10.4777 16.6494 8.82181C16.6494 4.50853 13.1409 1 8.8276 1C4.51431 1 1 4.51432 1 8.8276C1 13.1409 4.50853 16.6494 8.82182 16.6494C11.0624 16.6494 13.0772 15.6999 14.5072 14.183L22.0048 21.9412C22.1206 22.0569 22.2712 22.1206 22.4217 22.1206C22.5664 22.1206 22.7112 22.0685 22.827 21.9585C23.0528 21.7327 23.0586 21.368 22.8385 21.1364ZM8.82182 15.4915C5.14539 15.4915 2.15793 12.504 2.15793 8.8276C2.15793 5.15118 5.15118 2.16372 8.82182 2.16372C12.4982 2.16372 15.4857 5.15118 15.4857 8.8276C15.4857 12.504 12.4982 15.4915 8.82182 15.4915Z" fill="currentColor"/>
</svg>
